<?xml version="1.0" encoding="UTF-8"?>
<svg version="1.1" xmlns="http://www.w3.org/2000/svg" width="160" height="160">
<path d="M0 0 C1.875 0.25 1.875 0.25 4 1 C5.25 3.0625 5.25 3.0625 6 5 C6.43570312 4.6390625 6.87140625 4.278125 7.3203125 3.90625 C11.31407151 0.79422999 13.73840541 -0.64165788 19 0 C18.34533943 5.36821671 16.82792929 10.22764057 13.828125 14.77734375 C12.59045489 18.09920362 13.41044637 20.51919364 14.1875 23.9375 C14.58001953 25.74541016 14.58001953 25.74541016 14.98046875 27.58984375 C16.34275568 32.14645865 17.5244483 34.93485095 21.4296875 37.75390625 C26.60783088 39.5611576 31.67693767 39.66281115 37.125 39.9375 C51.26224145 40.88275199 64.27240974 43.27240974 74.73828125 53.73828125 C76.33226165 55.74472019 77.65770704 57.81696978 79 60 C79.62390625 60.89332031 80.2478125 61.78664062 80.890625 62.70703125 C86.5565353 71.47621685 89.11114125 80.56391204 91.56616211 90.67333984 C94.30079094 103.18663895 94.30079094 103.18663895 102 112.9453125 C110.36696447 117.35757892 119.71304848 118.58423912 128.98046875 119.60546875 C132 120 132 120 134 121 C134 121.99 134 122.98 134 124 C129.76492615 126.11753692 124.15147143 125.18495543 119.5 125.1875 C117.77910156 125.20586914 117.77910156 125.20586914 116.0234375 125.22460938 C105.46307234 125.242651 95.62856508 124.70881203 87.3671875 117.59375 C81.02403523 111.10308256 77.12536077 102.58904417 72.92041016 94.63891602 C72.10610786 93.01601095 72.10610786 93.01601095 71 92 C69.48530552 91.76807135 67.96245438 91.58784762 66.4375 91.4375 C65.61121094 91.35371094 64.78492187 91.26992187 63.93359375 91.18359375 C63.29550781 91.12300781 62.65742187 91.06242187 62 91 C62.57413488 105.11064415 62.57413488 105.11064415 65 119 C64.35289063 119.28746094 63.70578125 119.57492188 63.0390625 119.87109375 C60.79841332 120.80221847 60.79841332 120.80221847 60.375 123.0625 C60.189375 124.0215625 60.189375 124.0215625 60 125 C54.48160368 127.75919816 46.20325672 125.94967963 40.25 125.4375 C33.38334323 124.93385059 26.62638704 125.0760964 19.75 125.375 C18.73711914 125.41810303 17.72423828 125.46120605 16.68066406 125.50561523 C11.25326128 125.74287456 11.25326128 125.74287456 6 127 C6.6875 124.125 6.6875 124.125 8 121 C9.64363134 120.27840576 11.31050386 119.60648579 13 119 C13.67156616 117.06381575 13.67156616 117.06381575 14 115 C17.79328945 110.276509 24.2289891 109.43243405 29.97998047 108.77294922 C34.3141714 108.39114945 38.65233421 108.17015156 43 108 C42.7834375 106.81921875 42.566875 105.6384375 42.34375 104.421875 C42.0623177 102.86461627 41.78107777 101.30732276 41.5 99.75 C41.35691406 98.97269531 41.21382813 98.19539063 41.06640625 97.39453125 C40.86337891 96.26337891 40.86337891 96.26337891 40.65625 95.109375 C40.53056641 94.41811523 40.40488281 93.72685547 40.27539062 93.01464844 C40 91 40 91 40 87 C39.34 86.814375 38.68 86.62875 38 86.4375 C31.32949047 83.24121419 26.58197801 77.66009049 22 72 C21.01 71.505 21.01 71.505 20 71 C19.63762737 72.62318979 19.28534843 74.2486358 18.9375 75.875 C18.74027344 76.77992187 18.54304688 77.68484375 18.33984375 78.6171875 C17.76797843 81.01014125 17.76797843 81.01014125 19 83 C19.99 82.67 20.98 82.34 22 82 C21.690625 82.9075 21.38125 83.815 21.0625 84.75 C20.2727737 87.16563338 19.57050703 89.52780285 19 92 C12.78090452 92.35879397 12.78090452 92.35879397 9.6875 90.9375 C7.21363891 88.09714097 6.66635739 85.69525459 6 82 C6.29899586 78.41204969 6.75556692 75.04049216 7.578125 71.5390625 C8.89344803 64.30478581 6.79705657 60.11739656 2.98022461 54.14672852 C0.17469732 49.66916398 -0.88482474 46.23535981 -0.8671875 40.98828125 C-0.85582484 38.67675041 -0.85582484 38.67675041 -3 36 C-6.25467018 35.67224816 -6.25467018 35.67224816 -9.9375 35.875 C-16.74172185 36.08609272 -16.74172185 36.08609272 -20 35 C-23.06287366 30.95263123 -23.06287366 30.95263123 -22.87109375 28.046875 C-21.64824334 25.17345072 -19.91514119 24.24701963 -17.3125 22.5625 C-14.25872326 20.53391974 -11.32754075 18.53393701 -8.5625 16.125 C-6 14 -6 14 -3 13 C-2.95101563 12.39671875 -2.90203125 11.7934375 -2.8515625 11.171875 C-2.77679687 10.37265625 -2.70203125 9.5734375 -2.625 8.75 C-2.55539063 7.96109375 -2.48578125 7.1721875 -2.4140625 6.359375 C-1.98492887 3.914123 -1.21399362 2.15163097 0 0 Z " fill="#A77B4A" transform="translate(25,26)"/>
<path d="M0 0 C0 0.99 0 1.98 0 3 C1.65 3 3.3 3 5 3 C4.67 3.99 4.34 4.98 4 6 C1.03 6 -1.94 6 -5 6 C-5 6.99 -5 7.98 -5 9 C-3.35 9 -1.7 9 0 9 C0 10.32 0 11.64 0 13 C8.415 12.505 8.415 12.505 17 12 C16.67 12.99 16.34 13.98 16 15 C14.98574951 15.02505615 13.97149902 15.0501123 12.92651367 15.07592773 C9.16368973 15.17009645 5.40104631 15.27029405 1.63842773 15.37231445 C0.00988996 15.41562749 -1.61869216 15.45730518 -3.24731445 15.49731445 C-5.58818935 15.55510503 -7.92884176 15.61877398 -10.26953125 15.68359375 C-11.36186821 15.70866249 -11.36186821 15.70866249 -12.47627258 15.73423767 C-15.56166939 15.82467238 -18.05171978 16.01723993 -21 17 C-20.3125 14.125 -20.3125 14.125 -19 11 C-17.35636866 10.27840576 -15.68949614 9.60648579 -14 9 C-13.32843384 7.06381575 -13.32843384 7.06381575 -13 5 C-10.7883981 1.61755003 -7.56500195 1.18527978 -3.83984375 0.33203125 C-2 0 -2 0 0 0 Z " fill="#604F3D" transform="translate(52,136)"/>
<path d="M0 0 C2.68823598 4.29448487 2.69520751 9.15496202 3.12304688 14.06835938 C3.58610643 18.51957147 4.70070524 21.23334903 7 25 C6.6875 27.3125 6.6875 27.3125 6 29 C-2.41826913 30.69882188 -10.41922945 31.24911914 -19 31 C-19 30.01 -19 29.02 -19 28 C-20.65 28 -22.3 28 -24 28 C-24 27.01 -24 26.02 -24 25 C-19.33560507 24.31659648 -14.66856211 23.65428742 -10 23 C-9.05511719 22.85949219 -8.11023437 22.71898437 -7.13671875 22.57421875 C-5.10090815 22.29766837 -3.04995802 22.13666387 -1 22 C-0.34 22.66 0.32 23.32 1 24 C0.51945233 18.42311778 -0.41518549 13.38836932 -2 8 C-2 6.68 -2 5.36 -2 4 C-1.34 4 -0.68 4 0 4 C0 2.68 0 1.36 0 0 Z " fill="#A68866" transform="translate(71,117)"/>
<path d="M0 0 C-1.98 0.99 -1.98 0.99 -4 2 C-4 3.32 -4 4.64 -4 6 C-8.75 7.125 -8.75 7.125 -11 6 C-11 7.32 -11 8.64 -11 10 C-9.35 10 -7.7 10 -6 10 C-6 9.34 -6 8.68 -6 8 C-4.0085944 7.61866701 -2.00720923 7.28674418 0 7 C1 8 1 8 1.0625 10.5625 C1.041875 11.366875 1.02125 12.17125 1 13 C0.28972656 13.19335938 -0.42054687 13.38671875 -1.15234375 13.5859375 C-2.07144531 13.84632812 -2.99054687 14.10671875 -3.9375 14.375 C-4.85402344 14.63023438 -5.77054688 14.88546875 -6.71484375 15.1484375 C-9.16745087 15.76660104 -9.16745087 15.76660104 -10 18 C-13.63 18 -17.26 18 -21 18 C-21.33 15.69 -21.66 13.38 -22 11 C-21.22076172 10.41992188 -21.22076172 10.41992188 -20.42578125 9.828125 C-19.72839844 9.30734375 -19.03101563 8.7865625 -18.3125 8.25 C-17.57773437 7.7034375 -16.84296875 7.156875 -16.0859375 6.59375 C-14.48829721 5.37308102 -12.94834102 4.07659212 -11.4375 2.75 C-8.10381802 0.35658729 -3.92944401 -1.964722 0 0 Z " fill="#DEB98A" transform="translate(28,39)"/>
<path d="M0 0 C7.875 0.875 7.875 0.875 9 2 C9.18816044 4.64917958 9.32848087 7.2848881 9.4375 9.9375 C9.71394691 15.8721007 10.25977101 21.44804193 11.79296875 27.21484375 C11.86128906 27.80394531 11.92960937 28.39304688 12 29 C11.34 29.66 10.68 30.32 10 31 C7.9765625 30.8828125 7.9765625 30.8828125 6 30 C5.0234375 28.1796875 5.0234375 28.1796875 4.375 25.875 C4.1378125 25.05128906 3.900625 24.22757813 3.65625 23.37890625 C3.33140625 22.20134766 3.33140625 22.20134766 3 21 C2.62875 19.948125 2.2575 18.89625 1.875 17.8125 C0.52771171 11.94217246 0.31638986 6.00308133 0 0 Z " fill="#715437" transform="translate(78,116)"/>
<path d="M0 0 C0.66 0 1.32 0 2 0 C2.10957031 0.6084375 2.21914062 1.216875 2.33203125 1.84375 C2.6736121 3.73216448 3.01761677 5.62014124 3.36328125 7.5078125 C3.82556332 10.04327367 4.28047173 12.57955724 4.73046875 15.1171875 C4.98676891 16.53649632 5.24327819 17.95576739 5.5 19.375 C5.61835205 20.05240234 5.7367041 20.72980469 5.85864258 21.42773438 C6.54338797 25.17503252 7.54163971 28.49121008 9 32 C9.125 34.8125 9.125 34.8125 9 37 C8.01 37.495 8.01 37.495 7 38 C6.67 37.34 6.34 36.68 6 36 C-0.435 36.495 -0.435 36.495 -7 37 C-7 36.34 -7 35.68 -7 35 C-8.65 35 -10.3 35 -12 35 C-11.67 33.68 -11.34 32.36 -11 31 C-6.05 30.67 -1.1 30.34 4 30 C3.35807989 26.04099506 2.71165424 22.08281927 2.0625 18.125 C1.88009766 16.99707031 1.69769531 15.86914062 1.50976562 14.70703125 C1.33251953 13.63066406 1.15527344 12.55429688 0.97265625 11.4453125 C0.81031494 10.45031738 0.64797363 9.45532227 0.48071289 8.43017578 C0.11232627 6.00369478 0.11232627 6.00369478 -1 4 C-0.5625 1.875 -0.5625 1.875 0 0 Z " fill="#A07648" transform="translate(64,104)"/>
<path d="M0 0 C0.33 0 0.66 0 1 0 C1 2.31 1 4.62 1 7 C9.47612009 8.22040874 17.8989554 8.07971966 26.4375 8 C29.33202717 7.9734302 32.22649104 7.9534755 35.12109375 7.9375 C36.3939624 7.92589844 37.66683105 7.91429687 38.97827148 7.90234375 C42 8 42 8 44 9 C44 9.99 44 10.98 44 12 C39.76492615 14.11753692 34.15147143 13.18495543 29.5 13.1875 C28.35273438 13.19974609 27.20546875 13.21199219 26.0234375 13.22460938 C16.73895947 13.24047124 8.18676475 12.73970591 0 8 C0 5.36 0 2.72 0 0 Z " fill="#B19B83" transform="translate(115,138)"/>
<path d="M0 0 C1.875 0.25 1.875 0.25 4 1 C5.25 3.0625 5.25 3.0625 6 5 C6.43570312 4.6390625 6.87140625 4.278125 7.3203125 3.90625 C11.31407151 0.79422999 13.73840541 -0.64165788 19 0 C17.68507334 9.42364107 17.68507334 9.42364107 14.0625 12.8125 C12 14 12 14 9 14 C9 12.68 9 11.36 9 10 C7.576875 10.061875 7.576875 10.061875 6.125 10.125 C3 10 3 10 1 8 C0.01 7.34 -0.98 6.68 -2 6 C-1.34 4.02 -0.68 2.04 0 0 Z " fill="#957359" transform="translate(25,26)"/>
<path d="M0 0 C0.99 0.33 1.98 0.66 3 1 C3 2.65 3 4.3 3 6 C4.8253125 5.7215625 4.8253125 5.7215625 6.6875 5.4375 C12.83884987 4.7299965 18.86286321 5.38344066 25 6 C24.1875 8.9375 24.1875 8.9375 23 12 C22.01 12.33 21.02 12.66 20 13 C19.34 12.34 18.68 11.68 18 11 C14.74329309 10.79425535 14.74329309 10.79425535 11.0625 10.9375 C4.2953668 11.0984556 4.2953668 11.0984556 1 10 C-2.10034602 5.90311419 -2.10034602 5.90311419 -1.75 2.75 C-1 1 -1 1 0 0 Z " fill="#725438" transform="translate(4,51)"/>
<path d="M0 0 C2 1 2 1 4 4 C4.845625 4.28875 5.69125 4.5775 6.5625 4.875 C7.366875 5.24625 8.17125 5.6175 9 6 C9.625 8.375 9.625 8.375 10 11 C10.7734375 11.928125 10.7734375 11.928125 11.5625 12.875 C13.61317602 15.90643412 13.20587442 18.43151004 13 22 C10.35247996 19.42215154 8.05567935 17.08351902 6 14 C5.67 14.66 5.34 15.32 5 16 C2 15 2 15 0.3125 12.4375 C-1.29319915 8.23209747 -1.30298062 5.46896416 -1 1 C-0.67 0.67 -0.34 0.34 0 0 Z " fill="#B08E6B" transform="translate(26,66)"/>
<path d="M0 0 C2.8086289 2.8086289 2.72711179 5.11134294 3 9 C2.01 10.485 2.01 10.485 1 12 C4.465 11.505 4.465 11.505 8 11 C7.625 12.9375 7.625 12.9375 7 15 C4.426671 16.2866645 2.49776962 16.16824551 -0.375 16.1875 C-1.80972656 16.20876953 -1.80972656 16.20876953 -3.2734375 16.23046875 C-6.03010017 15.99745572 -7.64947395 15.40920164 -10 14 C-10 13.67 -10 13.34 -10 13 C-15.28 13 -20.56 13 -26 13 C-26 12.67 -26 12.34 -26 12 C-25.34926514 11.94465088 -24.69853027 11.88930176 -24.02807617 11.83227539 C-21.08087901 11.57946307 -18.1341994 11.32104674 -15.1875 11.0625 C-14.16333984 10.97548828 -13.13917969 10.88847656 -12.08398438 10.79882812 C-11.10107422 10.71181641 -10.11816406 10.62480469 -9.10546875 10.53515625 C-7.74651489 10.41732788 -7.74651489 10.41732788 -6.36010742 10.29711914 C-3.85319251 10.05953902 -3.85319251 10.05953902 -1 9 C-1.33 7.35 -1.66 5.7 -2 4 C-1.34 4 -0.68 4 0 4 C0 2.68 0 1.36 0 0 Z " fill="#8E7152" transform="translate(78,136)"/>
<path d="M0 0 C0.66 0 1.32 0 2 0 C2.28875 0.94875 2.5775 1.8975 2.875 2.875 C3.76825109 6.05211578 3.76825109 6.05211578 6 8 C5.86400382 13.30385094 3.36818852 17.66604558 1.14453125 22.36328125 C-0.10057162 25.2316923 -0.7471666 27.88172135 -1 31 C-2.32 31 -3.64 31 -5 31 C-5.125 25.25 -5.125 25.25 -4 23 C-3.34 23 -2.68 23 -2 23 C-1.76230626 20.86075636 -1.52490719 18.72147953 -1.2890625 16.58203125 C-1.10211169 14.9121058 -0.90976666 13.24277159 -0.7109375 11.57421875 C-0.2542566 7.69243113 0.12636663 3.91736566 0 0 Z " fill="#BB9367" transform="translate(41,76)"/>
<path d="M0 0 C11.46928933 -0.30539528 22.56008004 -0.21995998 33 5 C32.67 5.99 32.34 6.98 32 8 C31.34 8 30.68 8 30 8 C30 7.34 30 6.68 30 6 C29.24074219 6 28.48148438 6 27.69921875 6 C17.50213989 6 9.49689343 4.73092242 0 1 C0 0.67 0 0.34 0 0 Z " fill="#D3A672" transform="translate(53,66)"/>
<path d="M0 0 C0.33 1.32 0.66 2.64 1 4 C2.65 4 4.3 4 6 4 C6 3.34 6 2.68 6 2 C7.9914056 1.61866701 9.99279077 1.28674418 12 1 C13 2 13 2 13.0625 4.5625 C13.041875 5.366875 13.02125 6.17125 13 7 C12.28972656 7.19335938 11.57945313 7.38671875 10.84765625 7.5859375 C9.92855469 7.84632812 9.00945313 8.10671875 8.0625 8.375 C7.14597656 8.63023438 6.22945312 8.88546875 5.28515625 9.1484375 C2.83254913 9.76660104 2.83254913 9.76660104 2 12 C1.34 11.67 0.68 11.34 0 11 C0.33 10.34 0.66 9.68 1 9 C0.01 9 -0.98 9 -2 9 C-2.125 5.625 -2.125 5.625 -2 2 C-1.34 1.34 -0.68 0.68 0 0 Z " fill="#CAA170" transform="translate(16,45)"/>
<path d="M0 0 C3.93664921 1.60382005 6.56562063 3.49162973 9 7 C9.03149906 13.7932965 6.70752564 19.43871153 3 25 C2.34 25 1.68 25 1 25 C1.144375 23.906875 1.28875 22.81375 1.4375 21.6875 C1.52386719 20.96175781 1.61023438 20.23601562 1.69921875 19.48828125 C1.91137211 17.73319435 2.1452089 15.9806623 2.39453125 14.23046875 C3.10000099 8.56345359 3.34489701 4.95044757 0 0 Z " fill="#6F5133" transform="translate(30,83)"/>
<path d="M0 0 C-0.309375 0.9075 -0.61875 1.815 -0.9375 2.75 C-1.7272263 5.16563338 -2.42949297 7.52780285 -3 10 C-9.29213483 10.36300778 -9.29213483 10.36300778 -12.4375 8.75 C-14 7 -14 7 -14 3 C-13.38511719 2.86722656 -12.77023438 2.73445313 -12.13671875 2.59765625 C-11.32847656 2.42105469 -10.52023438 2.24445313 -9.6875 2.0625 C-8.88699219 1.88847656 -8.08648437 1.71445313 -7.26171875 1.53515625 C-0.77372263 0 -0.77372263 0 0 0 Z " fill="#4B3D2F" transform="translate(47,108)"/>
<path d="M0 0 C4.5206665 -0.02468857 9.0412939 -0.04285449 13.56201172 -0.05493164 C15.10043013 -0.05996552 16.63884375 -0.06679308 18.17724609 -0.07543945 C20.38640526 -0.08754639 22.59550126 -0.09323769 24.8046875 -0.09765625 C25.49432587 -0.10281754 26.18396423 -0.10797882 26.89450073 -0.11329651 C31.77225659 -0.11387171 31.77225659 -0.11387171 34 1 C34 1.66 34 2.32 34 3 C29.4583875 3.05823729 24.9168716 3.09367675 20.375 3.125 C18.44720703 3.15013672 18.44720703 3.15013672 16.48046875 3.17578125 C15.23652344 3.18222656 13.99257812 3.18867188 12.7109375 3.1953125 C11.56931152 3.20578613 10.42768555 3.21625977 9.25146484 3.22705078 C5.86433183 2.99052625 3.15994958 2.2095701 0 1 C0 0.67 0 0.34 0 0 Z " fill="#C4B093" transform="translate(125,146)"/>
<path d="M0 0 C-1 3 -1 3 -4.125 4.6875 C-7.79357134 6.14581407 -11.05393993 6.24159551 -15 6 C-15 5.34 -15 4.68 -15 4 C-16.65 4 -18.3 4 -20 4 C-20 3.34 -20 2.68 -20 2 C-6.3667426 -0.29612756 -6.3667426 -0.29612756 0 0 Z " fill="#C2A37D" transform="translate(68,140)"/>
<path d="M0 0 C2.70033488 4.32053581 2.72791165 9.21865244 3.2109375 14.15625 C3.61347378 17.87624043 4.18551313 20.73392364 6 24 C6 24.99 6 25.98 6 27 C5.01 27 4.02 27 3 27 C2.70996094 25.82244141 2.70996094 25.82244141 2.4140625 24.62109375 C0.73194435 17.7783395 0.73194435 17.7783395 -1.1875 11 C-2 8 -2 8 -2 4 C-1.34 4 -0.68 4 0 4 C0 2.68 0 1.36 0 0 Z " fill="#BD9668" transform="translate(71,117)"/>
<path d="M0 0 C0.99 0.495 0.99 0.495 2 1 C2.75774926 3.73204127 3.410823 6.41882841 4 9.1875 C5.10104986 14.23254488 6.25858213 19.1255848 8 24 C6.02 24 4.04 24 2 24 C2.226875 23.030625 2.45375 22.06125 2.6875 21.0625 C3.29868585 16.96590292 2.14096164 14.09279398 0.703125 10.2890625 C-0.37699538 6.77267061 -0.1993094 3.6540057 0 0 Z " fill="#B48A5E" transform="translate(77,124)"/>
<path d="M0 0 C7.875 0.875 7.875 0.875 9 2 C9.04092937 4.33297433 9.04241723 6.66705225 9 9 C6.69 9 4.38 9 2 9 C0.14223235 5.86501708 -0.20140476 3.62528568 0 0 Z " fill="#55361D" transform="translate(78,116)"/>
<path d="M0 0 C2.5 1.25 2.5 1.25 5 3 C5 4.32 5 5.64 5 7 C5.66 7.33 6.32 7.66 7 8 C6.34 11.63 5.68 15.26 5 19 C3.35 18.01 1.7 17.02 0 16 C0.50995576 12.94026546 1.02081693 9.90537759 1.6875 6.875 C2.02465469 3.77317682 1.67925131 2.56826671 0 0 Z " fill="#906943" transform="translate(44,80)"/>
<path d="M0 0 C20.88764045 -0.55617978 20.88764045 -0.55617978 28 3 C27.67 3.66 27.34 4.32 27 5 C25.87722656 4.86722656 24.75445312 4.73445313 23.59765625 4.59765625 C22.87578125 4.51257813 22.15390625 4.4275 21.41015625 4.33984375 C19.84361581 4.15477824 18.27720899 3.96857815 16.7109375 3.78125 C12.64363539 3.297534 8.57996437 2.86487486 4.5 2.5 C3.345 2.335 2.19 2.17 1 2 C0.67 1.34 0.34 0.68 0 0 Z " fill="#DAAF7B" transform="translate(53,66)"/>
<path d="M0 0 C0.928125 0.0825 1.85625 0.165 2.8125 0.25 C2.26144091 4.1992568 1.42314629 7.59920174 -0.1875 11.25 C-1.1775 11.25 -2.1675 11.25 -3.1875 11.25 C-3.31125 10.280625 -3.435 9.31125 -3.5625 8.3125 C-3.76875 7.301875 -3.975 6.29125 -4.1875 5.25 C-4.8475 4.92 -5.5075 4.59 -6.1875 4.25 C-4.36434338 1.00883268 -3.82500054 0.30000004 0 0 Z " fill="#9E8A7A" transform="translate(41.1875,25.75)"/>
<path d="M0 0 C0.33 1.32 0.66 2.64 1 4 C1.78375 3.484375 2.5675 2.96875 3.375 2.4375 C4.24125 1.963125 5.1075 1.48875 6 1 C6.66 1.33 7.32 1.66 8 2 C7.360625 2.66 6.72125 3.32 6.0625 4 C3.41087498 7.85690912 3.31332879 10.37840033 3 15 C2.67 15 2.34 15 2 15 C1.67 13.02 1.34 11.04 1 9 C0.38125 8.9175 -0.2375 8.835 -0.875 8.75 C-3 8 -3 8 -4.25 5.9375 C-4.62125 4.9784375 -4.62125 4.9784375 -5 4 C-4.01 3.67 -3.02 3.34 -2 3 C-1.34 2.01 -0.68 1.02 0 0 Z " fill="#835834" transform="translate(33,36)"/>
<path d="M0 0 C0.99 0.33 1.98 0.66 3 1 C3 2.65 3 4.3 3 6 C3.62648438 5.90460937 4.25296875 5.80921875 4.8984375 5.7109375 C5.71570313 5.60007812 6.53296875 5.48921875 7.375 5.375 C8.59316406 5.20097656 8.59316406 5.20097656 9.8359375 5.0234375 C10.55007813 5.01570313 11.26421875 5.00796875 12 5 C12.66 5.66 13.32 6.32 14 7 C7.25 9.125 7.25 9.125 5 8 C3.7625 8.061875 3.7625 8.061875 2.5 8.125 C1.675 8.08375 0.85 8.0425 0 8 C-2 5 -2 5 -1.6875 2.875 C-1 1 -1 1 0 0 Z " fill="#8D755B" transform="translate(4,51)"/>
<path d="M0 0 C0.66 0 1.32 0 2 0 C2.433125 1.423125 2.433125 1.423125 2.875 2.875 C3.76825109 6.05211578 3.76825109 6.05211578 6 8 C5.67582137 11.80909895 5.14418558 13.78372163 3 17 C2.67 15.68 2.34 14.36 2 13 C1.34 14.65 0.68 16.3 0 18 C-0.92801148 14.96849583 -1.00185006 12.69219117 -0.5625 9.5625 C-0.14817561 6.34351818 0.10492163 3.25257059 0 0 Z " fill="#B18557" transform="translate(41,76)"/>
<path d="M0 0 C1.32 0 2.64 0 4 0 C4.8320582 5.72040011 5.12036664 11.22240116 5 17 C3 16 3 16 2.1484375 13.92578125 C0.74105263 9.17052631 -0.3961821 5.01830661 0 0 Z " fill="#69492B" transform="translate(79,124)"/>
<path d="M0 0 C5 2 5 2 10 4 C9.34 5.32 8.68 6.64 8 8 C7.01 8 6.02 8 5 8 C4.67 8.66 4.34 9.32 4 10 C3.67 9.01 3.34 8.02 3 7 C2.01 7 1.02 7 0 7 C-0.38133299 5.0085944 -0.71325582 3.00720923 -1 1 C-0.67 0.67 -0.34 0.34 0 0 Z " fill="#846347" transform="translate(23,32)"/>
<path d="M0 0 C0.33 0.66 0.66 1.32 1 2 C3.52733235 2.65555119 3.52733235 2.65555119 6 3 C5.67 3.66 5.34 4.32 5 5 C3.25034642 5.05429959 1.50020213 5.09292823 -0.25 5.125 C-1.22453125 5.14820313 -2.1990625 5.17140625 -3.203125 5.1953125 C-6.0196498 4.99862781 -7.60949036 4.44568916 -10 3 C-9.67 2.34 -9.34 1.68 -9 1 C-5.93090555 0.33280556 -3.14213983 0 0 0 Z " fill="#806549" transform="translate(78,147)"/>
<path d="M0 0 C1.32 0.33 2.64 0.66 4 1 C4 6.28 4 11.56 4 17 C3.34 16.67 2.68 16.34 2 16 C1.62599214 13.67284 1.29235267 11.33882138 1 9 C0.67 8.67 0.34 8.34 0 8 C-0.14115161 5.32941149 -0.04247107 2.67567762 0 0 Z " fill="#7E5A3B" transform="translate(83,124)"/>
<path d="M0 0 C0.99 0.33 1.98 0.66 3 1 C0.64600076 4.26944339 -1.94694261 7.28798278 -4.59765625 10.31640625 C-6.18202741 12.15787611 -6.18202741 12.15787611 -8 15 C-8.4375 12.5 -8.4375 12.5 -8 9 C-5.65146884 5.69399075 -2.861105 2.861105 0 0 Z " fill="#CCA47A" transform="translate(71,76)"/>
<path d="M0 0 C0 0.99 0 1.98 0 3 C1.65 3 3.3 3 5 3 C5 3.66 5 4.32 5 5 C1.04 5 -2.92 5 -7 5 C-7 4.34 -7 3.68 -7 3 C-8.32 3.33 -9.64 3.66 -11 4 C-10 2 -10 2 -8.22265625 1.3671875 C-7.50980469 1.20476562 -6.79695313 1.04234375 -6.0625 0.875 C-5.35222656 0.70742187 -4.64195313 0.53984375 -3.91015625 0.3671875 C-2 0 -2 0 0 0 Z " fill="#4D3E2E" transform="translate(52,136)"/>
<path d="M0 0 C0.33 0.66 0.66 1.32 1 2 C2.10408203 1.89171875 2.10408203 1.89171875 3.23046875 1.78125 C4.20628906 1.6884375 5.18210937 1.595625 6.1875 1.5 C7.15042969 1.4071875 8.11335938 1.314375 9.10546875 1.21875 C11.75187667 1.01875156 14.34760865 0.96120817 17 1 C17 1.66 17 2.32 17 3 C12.73383684 4.13764351 9.43513689 5 5 5 C5 4.34 5 3.68 5 3 C3.35 3 1.7 3 0 3 C0 2.01 0 1.02 0 0 Z " fill="#80664B" transform="translate(52,136)"/>
<path d="M0 0 C0 0.99 0 1.98 0 3 C-1.72888555 3.16955795 -3.45812443 3.33551514 -5.1875 3.5 C-6.15042969 3.5928125 -7.11335938 3.685625 -8.10546875 3.78125 C-10.75187667 3.98124844 -13.34760865 4.03879183 -16 4 C-16 3.01 -16 2.02 -16 1 C-13.89594609 0.83191581 -11.79175242 0.66558052 -9.6875 0.5 C-8.51574219 0.4071875 -7.34398437 0.314375 -6.13671875 0.21875 C-4.094806 0.07635011 -2.0468721 0 0 0 Z " fill="#917659" transform="translate(69,134)"/>
<path d="M0 0 C2 1 2 1 2.62109375 2.734375 C3.04706889 5.28144284 3.09646629 7.66856169 3.0625 10.25 C3.05347656 11.14203125 3.04445313 12.0340625 3.03515625 12.953125 C3.02355469 13.62859375 3.01195312 14.3040625 3 15 C-0.90310164 9.90899786 -1.2021508 7.36775016 -1 1 C-0.67 0.67 -0.34 0.34 0 0 Z " fill="#B99773" transform="translate(26,66)"/>
<path d="M0 0 C0.515625 0.37125 1.03125 0.7425 1.5625 1.125 C-1.5629959 3.76965038 -4.52538267 4.96914715 -8.4375 6.125 C-8.7675 4.475 -9.0975 2.825 -9.4375 1.125 C-3.0375 -1.09038462 -3.0375 -1.09038462 0 0 Z " fill="#684C2E" transform="translate(42.4375,109.875)"/>
<path d="M0 0 C2.31 0 4.62 0 7 0 C7 0.66 7 1.32 7 2 C7.99 2 8.98 2 10 2 C10 2.66 10 3.32 10 4 C6.7 4.33 3.4 4.66 0 5 C0 3.35 0 1.7 0 0 Z " fill="#CAAD8C" transform="translate(7,52)"/>
<path d="M0 0 C0.99 0.495 0.99 0.495 2 1 C2 1.66 2 2.32 2 3 C2.99 2.67 3.98 2.34 5 2 C6 3 6 3 6.09765625 5.28515625 C6.08605469 6.20167969 6.07445313 7.11820313 6.0625 8.0625 C6.05347656 8.98160156 6.04445313 9.90070313 6.03515625 10.84765625 C6.02355469 11.55792969 6.01195313 12.26820313 6 13 C2.85707928 10.90471952 2.49143331 10.41216767 1.3125 7.0625 C1.06113281 6.37285156 0.80976562 5.68320313 0.55078125 4.97265625 C0 3 0 3 0 0 Z " fill="#B69464" transform="translate(108,131)"/>
<path d="M0 0 C0 0.66 0 1.32 0 2 C-5.02125926 2.77916092 -8.97703996 3.13016601 -14 2 C-12 -1 -12 -1 -10.140625 -1.74609375 C-6.50469587 -2.17736272 -3.49715913 -0.99086175 0 0 Z " fill="#81603C" transform="translate(94,115)"/>
<path d="M0 0 C0.33 0 0.66 0 1 0 C1.25 5.625 1.25 5.625 -1 9 C-3.3828125 9.51171875 -3.3828125 9.51171875 -6.125 9.6875 C-7.49011719 9.78611328 -7.49011719 9.78611328 -8.8828125 9.88671875 C-9.93082031 9.94279297 -9.93082031 9.94279297 -11 10 C-10.67 9.01 -10.34 8.02 -10 7 C-5.05 6.01 -5.05 6.01 0 5 C0 3.35 0 1.7 0 0 Z " fill="#AB8357" transform="translate(29,47)"/>
<path d="M0 0 C0.9075 0.78375 1.815 1.5675 2.75 2.375 C5.05190236 4.30052496 7.21577207 5.82205741 10 7 C10 7.33 10 7.66 10 8 C8.35 8 6.7 8 5 8 C5.33 8.99 5.66 9.98 6 11 C4.5625 13.1875 4.5625 13.1875 3 15 C2.92652344 13.95199219 2.92652344 13.95199219 2.8515625 12.8828125 C2.73941406 11.51769531 2.73941406 11.51769531 2.625 10.125 C2.55539063 9.22007813 2.48578125 8.31515625 2.4140625 7.3828125 C2.20431868 4.82058097 2.20431868 4.82058097 0 3 C0 2.01 0 1.02 0 0 Z " fill="#BF8B4E" transform="translate(41,59)"/>
<path d="M0 0 C0.33 0 0.66 0 1 0 C1 1.65 1 3.3 1 5 C1.99 5 2.98 5 4 5 C4.33 4.34 4.66 3.68 5 3 C4.67 4.32 4.34 5.64 4 7 C1.69 7.33 -0.62 7.66 -3 8 C-2.67 7.01 -2.34 6.02 -2 5 C-2.99 4.67 -3.98 4.34 -5 4 C-4.01 3.01 -3.02 2.02 -2 1 C-1.67 1.33 -1.34 1.66 -1 2 C-0.67 1.34 -0.34 0.68 0 0 Z " fill="#A7825A" transform="translate(73,139)"/>
<path d="M0 0 C1.81242052 -0.02687279 3.62495233 -0.04633715 5.4375 -0.0625 C6.44683594 -0.07410156 7.45617187 -0.08570313 8.49609375 -0.09765625 C11 0 11 0 12 1 C14.32817964 1.36760731 16.6618385 1.70241581 19 2 C19 2.33 19 2.66 19 3 C16.95863605 3.05451714 14.91684144 3.09302485 12.875 3.125 C11.16957031 3.15980469 11.16957031 3.15980469 9.4296875 3.1953125 C5.94242233 2.99672109 3.2446138 2.2524801 0 1 C0 0.67 0 0.34 0 0 Z " fill="#C0A885" transform="translate(125,146)"/>
<path d="M0 0 C0 0.66 0 1.32 0 2 C1.32 2.33 2.64 2.66 4 3 C2.95199219 3.06058594 1.90398438 3.12117187 0.82421875 3.18359375 C-0.55470048 3.26801738 -1.93360605 3.35266447 -3.3125 3.4375 C-4.34793945 3.49647461 -4.34793945 3.49647461 -5.40429688 3.55664062 C-8.47161535 3.74927415 -11.06968152 4.02322717 -14 5 C-13.67 4.01 -13.34 3.02 -13 2 C-11.39658445 1.66307215 -9.79223445 1.33058907 -8.1875 1 C-7.29417969 0.814375 -6.40085937 0.62875 -5.48046875 0.4375 C-3 0 -3 0 0 0 Z " fill="#4D3D2D" transform="translate(45,148)"/>
<path d="M0 0 C4 4.75 4 4.75 4 7 C4.66 7 5.32 7 6 7 C7.2890625 8.53125 7.2890625 8.53125 8.625 10.5 C9.07101563 11.1496875 9.51703125 11.799375 9.9765625 12.46875 C10.48316406 13.22671875 10.48316406 13.22671875 11 14 C8.70703125 13.8046875 8.70703125 13.8046875 6 13 C4.19921875 10.8203125 4.19921875 10.8203125 2.6875 8.125 C2.17574219 7.24070313 1.66398437 6.35640625 1.13671875 5.4453125 C0 3 0 3 0 0 Z " fill="#B69261" transform="translate(115,125)"/>
<path d="M0 0 C-4.96993194 2.43425238 -8.34605369 3.34615998 -14 3 C-13.67 2.01 -13.34 1.02 -13 0 C-11.58456585 -0.19658808 -10.16755969 -0.38187546 -8.75 -0.5625 C-7.96109375 -0.66691406 -7.1721875 -0.77132812 -6.359375 -0.87890625 C-3.99467126 -1.00027349 -2.2488963 -0.69633257 0 0 Z " fill="#B69670" transform="translate(67,143)"/>
<path d="M0 0 C0.66 0 1.32 0 2 0 C3.00496852 3.01490557 3.10335303 5.04181692 3.0625 8.1875 C3.05347656 9.08855469 3.04445313 9.98960938 3.03515625 10.91796875 C3.02355469 11.60503906 3.01195313 12.29210937 3 13 C2.34 13 1.68 13 1 13 C0.855625 11.88625 0.71125 10.7725 0.5625 9.625 C0.21627965 6.17857953 0.21627965 6.17857953 -1 4 C-0.5625 1.875 -0.5625 1.875 0 0 Z " fill="#976D42" transform="translate(64,104)"/>
<path d="M0 0 C3.63 0 7.26 0 11 0 C10.1875 2.9375 10.1875 2.9375 9 6 C8.01 6.33 7.02 6.66 6 7 C5.67 6.01 5.34 5.02 5 4 C5.66 4 6.32 4 7 4 C7 3.01 7 2.02 7 1 C4.69 1 2.38 1 0 1 C0 0.67 0 0.34 0 0 Z " fill="#7F6042" transform="translate(18,57)"/>
<path d="M0 0 C2.3297964 3.64030688 2.3862557 6.75118727 2 11 C1.01 11.99 0.02 12.98 -1 14 C-1.33 10.7 -1.66 7.4 -2 4 C-1.34 4 -0.68 4 0 4 C0 2.68 0 1.36 0 0 Z " fill="#B68A59" transform="translate(71,117)"/>
<path d="M0 0 C0.33 0 0.66 0 1 0 C0.85904936 1.6254308 0.71207913 3.25034051 0.5625 4.875 C0.48128906 5.77992187 0.40007813 6.68484375 0.31640625 7.6171875 C0 10 0 10 -1 12 C-1.66 12 -2.32 12 -3 12 C-2.88541307 10.56163249 -2.75790884 9.12429034 -2.625 7.6875 C-2.55539063 6.88699219 -2.48578125 6.08648437 -2.4140625 5.26171875 C-2 3 -2 3 0 0 Z " fill="#A07B54" transform="translate(43,95)"/>
<path d="M0 0 C3.83690637 1.56318408 6.39154889 3.7953315 9 7 C8.8125 9.8125 8.8125 9.8125 8 12 C7.6596875 11.1646875 7.6596875 11.1646875 7.3125 10.3125 C6.01523552 7.78808783 6.01523552 7.78808783 3.4375 5.4375 C1 3 1 3 0 0 Z " fill="#5A3F25" transform="translate(30,83)"/>
<path d="M0 0 C0.99 0.495 0.99 0.495 2 1 C2.31241455 3.71446979 2.51336592 6.33909361 2.625 9.0625 C2.66367187 9.82111328 2.70234375 10.57972656 2.7421875 11.36132812 C2.83673562 13.24047195 2.91946756 15.12020336 3 17 C2.34 17.33 1.68 17.66 1 18 C-0.32594359 12.03325384 -0.0884587 6.07416385 0 0 Z " fill="#A6733C" transform="translate(42,63)"/>
<path d="M0 0 C1.65 0 3.3 0 5 0 C5 1.32 5 2.64 5 4 C3.02 4.33 1.04 4.66 -1 5 C-0.67 3.35 -0.34 1.7 0 0 Z " fill="#E3B67E" transform="translate(22,47)"/>
<path d="M0 0 C-1.98 0.99 -1.98 0.99 -4 2 C-4 3.32 -4 4.64 -4 6 C-6.375 6.625 -6.375 6.625 -9 7 C-9.66 6.34 -10.32 5.68 -11 5 C-9.35 4.67 -7.7 4.34 -6 4 C-6 2.68 -6 1.36 -6 0 C-2.25 -1.125 -2.25 -1.125 0 0 Z " fill="#C1955E" transform="translate(28,39)"/>
<path d="M0 0 C2.25 0.25 2.25 0.25 4 1 C4 1.66 4 2.32 4 3 C1.64561267 4.42944945 0.51967567 5.08661261 -2.25 4.625 C-2.8275 4.41875 -3.405 4.2125 -4 4 C-2.25 1.9375 -2.25 1.9375 0 0 Z " fill="#6E5D4B" transform="translate(36,145)"/>
<path d="M0 0 C0.99 0 1.98 0 3 0 C2.38461538 5.53846154 2.38461538 5.53846154 0.4375 7.875 C-0.036875 8.24625 -0.51125 8.6175 -1 9 C-1.09765625 2.84765625 -1.09765625 2.84765625 -1 1 C-0.67 0.67 -0.34 0.34 0 0 Z " fill="#D59379" transform="translate(39,28)"/>
<path d="M0 0 C0.33 0.66 0.66 1.32 1 2 C2.65 2 4.3 2 6 2 C5.67 3.32 5.34 4.64 5 6 C3.35 6 1.7 6 0 6 C0 4.02 0 2.04 0 0 Z " fill="#705C46" transform="translate(46,143)"/>
<path d="M0 0 C1.12377697 3.30435084 0.89554742 5.0506862 -0.4375 8.25 C-0.72496094 8.95640625 -1.01242188 9.6628125 -1.30859375 10.390625 C-1.53675781 10.92171875 -1.76492187 11.4528125 -2 12 C-2.66 11.34 -3.32 10.68 -4 10 C-3.60761402 6.33773088 -1.68433117 3.22219876 0 0 Z " fill="#885F34" transform="translate(103,104)"/>
<path d="M0 0 C2.60334924 2.71182212 2.99456691 3.89133813 3.1875 7.75 C3.125625 8.8225 3.06375 9.895 3 11 C0.9375 9.4375 0.9375 9.4375 -1 7 C-0.75 3.25 -0.75 3.25 0 0 Z " fill="#A67F59" transform="translate(36,77)"/>
<path d="M0 0 C1.32 0.33 2.64 0.66 4 1 C4.33 3.31 4.66 5.62 5 8 C4.34 7.67 3.68 7.34 3 7 C3 6.34 3 5.68 3 5 C2.34 5 1.68 5 1 5 C0.67 3.35 0.34 1.7 0 0 Z " fill="#B29A88" transform="translate(25,26)"/>
<path d="M0 0 C2.31 0 4.62 0 7 0 C6.34 1.32 5.68 2.64 5 4 C3.35 4 1.7 4 0 4 C0 2.68 0 1.36 0 0 Z " fill="#3E3526" transform="translate(17,45)"/>
<path d="M0 0 C0.33 0 0.66 0 1 0 C1.9765625 6.0546875 1.9765625 6.0546875 2 8 C1.34 8.66 0.68 9.32 0 10 C-0.99 9.67 -1.98 9.34 -3 9 C-2.67 8.67 -2.34 8.34 -2 8 C-1.835 6.845 -1.67 5.69 -1.5 4.5 C-1 1 -1 1 0 0 Z " fill="#C28162" transform="translate(37,30)"/>
<path d="M0 0 C0.66 1.32 1.32 2.64 2 4 C2.66 4 3.32 4 4 4 C4.66 5.32 5.32 6.64 6 8 C5.01 8.495 5.01 8.495 4 9 C3.34 8.34 2.68 7.68 2 7 C1.01 6.34 0.02 5.68 -1 5 C-0.67 3.35 -0.34 1.7 0 0 Z " fill="#A3866F" transform="translate(24,27)"/>
<path d="M0 0 C1.32 0 2.64 0 4 0 C3.67 3.3 3.34 6.6 3 10 C2.67 10 2.34 10 2 10 C1.87625 9.030625 1.7525 8.06125 1.625 7.0625 C1.41875 6.051875 1.2125 5.04125 1 4 C0.34 3.67 -0.32 3.34 -1 3 C-0.67 2.01 -0.34 1.02 0 0 Z " fill="#7F5627" transform="translate(33,41)"/>
<path d="M0 0 C0.66 1.32 1.32 2.64 2 4 C-0.64 4.66 -3.28 5.32 -6 6 C-6 5.01 -6 4.02 -6 3 C-2.66666667 0 -2.66666667 0 0 0 Z " fill="#DFB179" transform="translate(21,40)"/>
<path d="M0 0 C0.99 0 1.98 0 3 0 C3.33 1.65 3.66 3.3 4 5 C2.02 5 0.04 5 -2 5 C-1.34 3.35 -0.68 1.7 0 0 Z " fill="#A7845E" transform="translate(81,143)"/>
<path d="M0 0 C0.33 0 0.66 0 1 0 C1 2.31 1 4.62 1 7 C2.65 7.33 4.3 7.66 6 8 C6 8.99 6 9.98 6 11 C4.02 10.01 2.04 9.02 0 8 C0 5.36 0 2.72 0 0 Z " fill="#B9996E" transform="translate(115,138)"/>
<path d="M0 0 C1.32 0.66 2.64 1.32 4 2 C3.54625 2.5775 3.0925 3.155 2.625 3.75 C0.77047097 6.1905049 0.77047097 6.1905049 -1 10 C-0.67 6.7 -0.34 3.4 0 0 Z " fill="#896035" transform="translate(78,109)"/>
<path d="M0 0 C0.33 0 0.66 0 1 0 C1.36402369 1.43503555 1.71586591 2.87316506 2.0625 4.3125 C2.25972656 5.11300781 2.45695312 5.91351563 2.66015625 6.73828125 C3 9 3 9 2 12 C1.34 12 0.68 12 0 12 C0 8.04 0 4.08 0 0 Z " fill="#A58362" transform="translate(29,70)"/>
<path d="M0 0 C0.33 0.66 0.66 1.32 1 2 C1.66 2.33 2.32 2.66 3 3 C1.68 4.65 0.36 6.3 -1 8 C-1.125 2.25 -1.125 2.25 0 0 Z " fill="#C39C72" transform="translate(64,83)"/>
<path d="M0 0 C0.33 1.32 0.66 2.64 1 4 C2.32 4 3.64 4 5 4 C5 4.66 5 5.32 5 6 C3.02 6 1.04 6 -1 6 C-1.042721 4.33388095 -1.04063832 2.66617115 -1 1 C-0.67 0.67 -0.34 0.34 0 0 Z " fill="#B98D57" transform="translate(16,45)"/>
<path d="M0 0 C0.93423645 3.01031744 1.04449911 3.86650268 0 7 C-0.99 6.67 -1.98 6.34 -3 6 C-2.42655063 3.13275314 -2.1385485 2.1385485 0 0 Z " fill="#7F5E42" transform="translate(47,90)"/>
<path d="M0 0 C0 1.98 0 3.96 0 6 C-1.32 6.33 -2.64 6.66 -4 7 C-4.33 6.01 -4.66 5.02 -5 4 C-1.125 0 -1.125 0 0 0 Z " fill="#97795D" transform="translate(29,60)"/>
<path d="M0 0 C-0.33 0.99 -0.66 1.98 -1 3 C-3.97 2.505 -3.97 2.505 -7 2 C-7 1.34 -7 0.68 -7 0 C-3.98968256 -0.93423645 -3.13349732 -1.04449911 0 0 Z " fill="#7C6046" transform="translate(12,59)"/>
<path d="M0 0 C0.99 0.33 1.98 0.66 3 1 C2.34 2.32 1.68 3.64 1 5 C0.01 5 -0.98 5 -2 5 C-2.33 5.66 -2.66 6.32 -3 7 C-2.38722388 4.03824877 -1.74627478 2.61941217 0 0 Z " fill="#8F6A43" transform="translate(30,35)"/>
<path d="M0 0 C2 2 2 2 2.125 5.125 C2.08375 6.07375 2.0425 7.0225 2 8 C1.34 8 0.68 8 0 8 C-0.66 6.68 -1.32 5.36 -2 4 C-1.34 4 -0.68 4 0 4 C0 2.68 0 1.36 0 0 Z " fill="#987248" transform="translate(78,136)"/>
<path d="M0 0 C0.33 0 0.66 0 1 0 C1 1.65 1 3.3 1 5 C1.99 5 2.98 5 4 5 C4 5.66 4 6.32 4 7 C2.35 7 0.7 7 -1 7 C-0.67 4.69 -0.34 2.38 0 0 Z " fill="#A0784E" transform="translate(35,102)"/>
<path d="M0 0 C2.475 0.99 2.475 0.99 5 2 C5 2.66 5 3.32 5 4 C3.02 4 1.04 4 -1 4 C-0.67 2.68 -0.34 1.36 0 0 Z " fill="#907258" transform="translate(23,32)"/>
<path d="M0 0 C1.32 0.99 2.64 1.98 4 3 C3.67 3.66 3.34 4.32 3 5 C1.5 3.625 1.5 3.625 0 2 C0 1.34 0 0.68 0 0 Z " fill="#976D3F" transform="translate(123,129)"/>
</svg>
