<?xml version="1.0" encoding="UTF-8"?>
<svg version="1.1" xmlns="http://www.w3.org/2000/svg" width="160" height="160">
<path d="M0 0 C1.85581966 1.85581966 1.12004366 4.49398306 1.12442017 6.96286011 C1.12082489 7.81953278 1.11722961 8.67620544 1.11352539 9.55883789 C1.11367142 10.45631241 1.11381744 11.35378693 1.1139679 12.27845764 C1.11326842 15.25988134 1.10547441 18.2412434 1.09765625 21.22265625 C1.09579219 23.28388942 1.09436823 25.34512304 1.09336853 27.40635681 C1.08954237 32.8430401 1.07971126 38.27969686 1.06866455 43.71636963 C1.05845253 49.25947714 1.05387136 54.80258892 1.04882812 60.34570312 C1.03808908 71.23048043 1.02101149 82.11523802 1 93 C-0.15254776 92.71741333 -1.30509552 92.43482666 -2.49256897 92.14367676 C-4.02761882 91.77326757 -5.56273273 91.40312376 -7.09790039 91.03320312 C-7.85481422 90.84687317 -8.61172806 90.66054321 -9.39157867 90.46856689 C-15.77906053 88.93852789 -21.86328525 88.37883591 -28.4375 88.5 C-30.07658325 88.51595215 -30.07658325 88.51595215 -31.7487793 88.53222656 C-48.70042368 88.91515026 -65.40654711 92.31576283 -81.9777832 95.69238281 C-100.44868523 99.40524187 -122.19471846 101.02617291 -140 94 C-141.83357444 92.16642556 -141.11999967 89.60364305 -141.12442017 87.1640625 C-141.12082489 86.32609131 -141.11722961 85.48812012 -141.11352539 84.62475586 C-141.11367142 83.74678848 -141.11381744 82.86882111 -141.1139679 81.96424866 C-141.11326844 79.04775565 -141.10547455 76.13132567 -141.09765625 73.21484375 C-141.09579218 71.19845108 -141.09436823 69.18205796 -141.09336853 67.16566467 C-141.08954244 61.84734862 -141.07971139 56.5290597 -141.06866455 51.21075439 C-141.05845238 45.78829312 -141.05387133 40.36582748 -141.04882812 34.94335938 C-141.0380892 24.29556097 -141.02101169 13.64778274 -141 3 C-140.11304443 3.20858643 -139.22608887 3.41717285 -138.31225586 3.63208008 C-136.56247437 4.04043091 -136.56247437 4.04043091 -134.77734375 4.45703125 C-133.62226318 4.72749268 -132.46718262 4.9979541 -131.27709961 5.27661133 C-127.16576966 6.18414844 -123.19932704 6.76516921 -119 7 C-118.0925 7.06445312 -117.185 7.12890625 -116.25 7.1953125 C-96.71925346 7.91335465 -76.85936287 2.71117888 -57.76220703 -0.98095703 C-38.48977368 -4.68951729 -18.87557168 -6.58265735 0 0 Z " fill="#0F9A59" transform="translate(150,33)"/>
<path d="M0 0 C0 30.36 0 60.72 0 92 C-5.61 90.68 -11.22 89.36 -17 88 C-21.27275436 87.64717997 -25.1929662 87.42177239 -29.4375 87.5 C-31.07658325 87.51595215 -31.07658325 87.51595215 -32.7487793 87.53222656 C-49.70042368 87.91515026 -66.40654711 91.31576283 -82.9777832 94.69238281 C-101.44868523 98.40524187 -123.19471846 100.02617291 -141 93 C-142.78857062 91.21142938 -142.11990579 88.79876866 -142.12442017 86.41790771 C-142.12082489 85.61733948 -142.11722961 84.81677124 -142.11352539 83.99194336 C-142.11367142 83.15299026 -142.11381744 82.31403717 -142.1139679 81.44966125 C-142.1132685 78.66302956 -142.10547485 75.87646384 -142.09765625 73.08984375 C-142.09579217 71.16313209 -142.09436822 69.23641995 -142.09336853 67.30970764 C-142.08954259 62.22812603 -142.07971166 57.1465728 -142.06866455 52.06500244 C-142.05845206 46.88383366 -142.05387126 41.70266031 -142.04882812 36.52148438 C-142.03808946 26.34764375 -142.02101213 16.17382423 -142 6 C-140 6 -140 6 -137.90338135 7.52984619 C-135.37401344 10.81238743 -135.46489163 13.5477665 -135.54589844 17.52246094 C-135.54531433 18.27406998 -135.54473022 19.02567902 -135.54412842 19.80006409 C-135.54691002 22.27864135 -135.57800383 24.75600845 -135.609375 27.234375 C-135.61683716 28.95501041 -135.62253021 30.67565432 -135.62652588 32.39630127 C-135.64178425 36.92075139 -135.68106758 41.44468628 -135.7253418 45.96893311 C-135.76629025 50.58729076 -135.78453597 55.20573181 -135.8046875 59.82421875 C-135.84756182 68.88303863 -135.91581546 77.94147644 -136 87 C-134.73430176 87.31694824 -133.46860352 87.63389648 -132.16455078 87.96044922 C-131.45259552 88.1387326 -130.74064026 88.31701599 -130.0071106 88.5007019 C-113.42051475 92.62686004 -95.90411139 91.47450193 -79 90 C-79 89.34 -79 88.68 -79 88 C-70.17620213 86.07340658 -61.44685254 84.56731662 -52.46118164 83.64697266 C-48.60674494 83.29492848 -48.60674494 83.29492848 -45 82 C-53.00694114 82.5982929 -61.00605711 83.2470635 -69 84 C-62.49941992 76.23101405 -55.67368679 69.63335047 -47.78125 63.26953125 C-42.80483162 59.20871794 -37.93184616 55.02843846 -33.5 50.375 C-30.54053777 47.56351088 -27.34051259 45.4967786 -23.890625 43.33203125 C-21.86772381 42.13011784 -21.86772381 42.13011784 -21 40 C-21.52980469 39.76023438 -22.05960937 39.52046875 -22.60546875 39.2734375 C-25.68493264 37.63574545 -28.47379786 35.63965529 -31.3125 33.625 C-35.75877762 30.5030659 -40.20686676 27.56376894 -45 25 C-45 24.01 -45 23.02 -45 22 C-45.72920654 21.71914551 -46.45841309 21.43829102 -47.2097168 21.14892578 C-49.77960528 20.09074963 -52.19113303 18.91899064 -54.64453125 17.6171875 C-55.90620117 16.95009766 -55.90620117 16.95009766 -57.19335938 16.26953125 C-58.48983398 15.57923828 -58.48983398 15.57923828 -59.8125 14.875 C-60.69615234 14.40707031 -61.57980469 13.93914063 -62.49023438 13.45703125 C-64.66135525 12.30692397 -66.8312226 11.15451854 -69 10 C-69 9.34 -69 8.68 -69 8 C-61.85845289 5.30846215 -54.7982575 4.37825177 -47.24658203 3.73486328 C-46.49747559 3.66638184 -45.74836914 3.59790039 -44.9765625 3.52734375 C-44.30705566 3.47312256 -43.63754883 3.41890137 -42.94775391 3.36303711 C-40.92960488 3.08365786 -40.92960488 3.08365786 -39.02685547 1.98144531 C-36.70115913 0.85529507 -35.16412593 0.7554417 -32.59375 0.76953125 C-31.76746094 0.77146484 -30.94117187 0.77339844 -30.08984375 0.77539062 C-29.23519531 0.78763672 -28.38054687 0.79988281 -27.5 0.8125 C-26.64535156 0.81314453 -25.79070312 0.81378906 -24.91015625 0.81445312 C-21.0711103 0.84140431 -17.7189227 1.01047763 -14 2 C-12.31522575 2.11444754 -10.62610899 2.17476539 -8.9375 2.1875 C-8.08027344 2.20167969 -7.22304687 2.21585938 -6.33984375 2.23046875 C-3.76978463 1.97732436 -2.35776418 0 0 0 Z " fill="#0F9958" transform="translate(151,34)"/>
<path d="M0 0 C3.23105615 0.80415406 5.70264411 1.8882959 8.61767578 3.48388672 C10.13844727 4.31146484 10.13844727 4.31146484 11.68994141 5.15576172 C12.73472656 5.73583984 13.77951172 6.31591797 14.85595703 6.91357422 C16.39413086 7.74888672 16.39413086 7.74888672 17.96337891 8.60107422 C27.10727783 13.61491141 35.97057073 19.01871033 44.35595703 25.22607422 C45.27763672 25.90541016 46.19931641 26.58474609 47.14892578 27.28466797 C47.81537109 27.78095703 48.48181641 28.27724609 49.16845703 28.78857422 C47.82929054 32.80607369 45.94633367 33.49292244 42.41845703 35.78857422 C35.75689471 40.23331355 29.75165248 45.23330707 23.70751953 50.47167969 C20.49023913 53.22453668 17.16671704 55.8497366 13.86767578 58.50341797 C11.90993525 60.1608394 10.07763075 61.81543602 8.25048828 63.60498047 C7.76596191 64.07282959 7.28143555 64.54067871 6.78222656 65.02270508 C5.43211879 66.33930282 4.10235004 67.67666386 2.77392578 69.01513672 C0.16845703 70.78857422 0.16845703 70.78857422 -2.67138672 70.80419922 C-6.56892839 69.55159003 -9.9979595 67.87680927 -13.58154297 65.91357422 C-14.68103271 65.32008179 -14.68103271 65.32008179 -15.80273438 64.71459961 C-42.08995638 50.35001266 -42.08995638 50.35001266 -51.83154297 41.78857422 C-51.83154297 41.12857422 -51.83154297 40.46857422 -51.83154297 39.78857422 C-49.92228037 38.35283303 -48.0146967 37.03182422 -46.01904297 35.72607422 C-39.63908435 31.42933194 -33.70735046 26.75726818 -27.83154297 21.78857422 C-26.78121777 20.91302684 -25.7304197 20.03804647 -24.67919922 19.16357422 C-23.58363379 18.24752115 -22.48858685 17.33084764 -21.39404297 16.41357422 C-20.85255615 15.96095215 -20.31106934 15.50833008 -19.75317383 15.04199219 C-16.92385006 12.65102622 -14.19445194 10.20402121 -11.55029297 7.60888672 C-11.01976318 7.09503418 -10.4892334 6.58118164 -9.94262695 6.05175781 C-8.47621271 4.61886557 -7.03016729 3.16521401 -5.58544922 1.71044922 C-2.83154297 -0.21142578 -2.83154297 -0.21142578 0 0 Z " fill="#F2CA3F" transform="translate(80.83154296875,45.21142578125)"/>
<path d="M0 0 C0 29.37 0 58.74 0 89 C-5.61 87.68 -11.22 86.36 -17 85 C-21.27275436 84.64717997 -25.1929662 84.42177239 -29.4375 84.5 C-31.07658325 84.51595215 -31.07658325 84.51595215 -32.7487793 84.53222656 C-49.70042368 84.91515026 -66.40654711 88.31576283 -82.9777832 91.69238281 C-101.44868523 95.40524187 -123.19471846 97.02617291 -141 90 C-142.78857062 88.21142938 -142.11990579 85.79876866 -142.12442017 83.41790771 C-142.12082489 82.61733948 -142.11722961 81.81677124 -142.11352539 80.99194336 C-142.11367142 80.15299026 -142.11381744 79.31403717 -142.1139679 78.44966125 C-142.1132685 75.66302956 -142.10547485 72.87646384 -142.09765625 70.08984375 C-142.09579217 68.16313209 -142.09436822 66.23641995 -142.09336853 64.30970764 C-142.08954259 59.22812603 -142.07971166 54.1465728 -142.06866455 49.06500244 C-142.05845206 43.88383366 -142.05387126 38.70266031 -142.04882812 33.52148438 C-142.03808946 23.34764375 -142.02101213 13.17382423 -142 3 C-140 3 -140 3 -137.90338135 4.52984619 C-135.37401344 7.81238743 -135.46489163 10.5477665 -135.54589844 14.52246094 C-135.54531433 15.27406998 -135.54473022 16.02567902 -135.54412842 16.80006409 C-135.54691002 19.27864135 -135.57800383 21.75600845 -135.609375 24.234375 C-135.61683716 25.95501041 -135.62253021 27.67565432 -135.62652588 29.39630127 C-135.64178425 33.92075139 -135.68106758 38.44468628 -135.7253418 42.96893311 C-135.76629025 47.58729076 -135.78453597 52.20573181 -135.8046875 56.82421875 C-135.84756182 65.88303863 -135.91581546 74.94147644 -136 84 C-134.73430176 84.31694824 -133.46860352 84.63389648 -132.16455078 84.96044922 C-131.45259552 85.1387326 -130.74064026 85.31701599 -130.0071106 85.5007019 C-113.42051475 89.62686004 -95.90411139 88.47450193 -79 87 C-79 86.34 -79 85.68 -79 85 C-70.23218041 83.08562891 -61.57567456 81.56744444 -52.63696289 80.73486328 C-48.98201972 80.36576483 -46.19187146 79.81668875 -43 78 C-32.88794872 76.12739791 -22.40226081 76.30270277 -12.40234375 78.66015625 C-9.55506564 79.19834049 -9.55506564 79.19834049 -5 78 C-5 52.59 -5 27.18 -5 1 C-3 0 -3 0 0 0 Z " fill="#147346" transform="translate(151,37)"/>
<path d="M0 0 C-1 3 -1 3 -3 4 C-4.62268991 4.09611752 -6.24947306 4.12982352 -7.875 4.125 C-8.73867187 4.12757812 -9.60234375 4.13015625 -10.4921875 4.1328125 C-13 4 -13 4 -14.88574219 3.50219727 C-18.66433154 2.60467321 -22.50856557 2.81544698 -26.375 2.8125 C-27.21289062 2.80025391 -28.05078125 2.78800781 -28.9140625 2.77539062 C-33.73307755 2.76402502 -37.44103293 3.28956502 -42 5 C-44.46484375 5.30859375 -44.46484375 5.30859375 -46.9375 5.4375 C-54.0868464 5.97073854 -61.00373347 7.49877682 -68 9 C-65.64924131 11.61980117 -63.23250529 13.09234576 -60.11328125 14.69921875 C-59.17548828 15.18583984 -58.23769531 15.67246094 -57.27148438 16.17382812 C-56.29501953 16.67333984 -55.31855469 17.17285156 -54.3125 17.6875 C-53.32443359 18.19861328 -52.33636719 18.70972656 -51.31835938 19.23632812 C-48.8814733 20.49597455 -46.44199904 21.75030279 -44 23 C-44 23.66 -44 24.32 -44 25 C-47.3319412 23.82121508 -50.35386941 22.29470554 -53.43359375 20.58203125 C-54.24763672 20.13279297 -55.06167969 19.68355469 -55.90039062 19.22070312 C-57.5938164 18.28078012 -59.28136813 17.3301964 -60.96289062 16.36914062 C-65.97180415 13.59834498 -65.97180415 13.59834498 -71.59765625 13.19921875 C-72.39042969 13.46347656 -73.18320313 13.72773437 -74 14 C-73.67 12.68 -73.34 11.36 -73 10 C-73.85722656 10.20496094 -74.71445313 10.40992188 -75.59765625 10.62109375 C-76.74105469 10.89050781 -77.88445312 11.15992188 -79.0625 11.4375 C-80.75052734 11.83775391 -80.75052734 11.83775391 -82.47265625 12.24609375 C-90.31577696 13.92241966 -97.51968002 14.03372276 -105.5 13.6875 C-106.65387207 13.63754883 -107.80774414 13.58759766 -108.99658203 13.53613281 C-132.62502586 12.41554715 -132.62502586 12.41554715 -136.3828125 8.546875 C-138 6 -138 6 -138 4 C-136.79085937 4.2165625 -135.58171875 4.433125 -134.3359375 4.65625 C-108.00424951 9.21839005 -83.69281155 4.03231913 -57.76220703 -0.98095703 C-38.25297974 -4.73508313 -19.14342912 -6.22369829 0 0 Z " fill="#6AAB8C" transform="translate(150,33)"/>
<path d="M0 0 C1.15048828 -0.00580078 1.15048828 -0.00580078 2.32421875 -0.01171875 C7.99650022 -0.00174989 7.99650022 -0.00174989 10.25 1.125 C10.25 2.115 10.25 3.105 10.25 4.125 C10.91 4.125 11.57 4.125 12.25 4.125 C12.25 3.465 12.25 2.805 12.25 2.125 C15.22 3.115 18.19 4.105 21.25 5.125 C21.25 5.785 21.25 6.445 21.25 7.125 C22.57 7.785 23.89 8.445 25.25 9.125 C23.28003238 16.46760658 19.95985096 21.2836089 13.6875 25.5625 C7.95639342 28.75787034 2.67750536 29.1947006 -3.75 28.125 C-8.84133448 25.81075705 -12.0801886 21.97533466 -14.75 17.125 C-15.69108422 14.23160443 -15.88526533 11.5959063 -15.875 8.5625 C-15.87757812 7.79808594 -15.88015625 7.03367187 -15.8828125 6.24609375 C-15.75 4.125 -15.75 4.125 -14.75 1.125 C-9.7816043 0.12815628 -5.04125628 -0.02594128 0 0 Z " fill="#5E60A4" transform="translate(73.75,75.875)"/>
<path d="M0 0 C0.66 0 1.32 0 2 0 C3.50571458 3.01142915 3.17042734 6.12674871 3.18945312 9.43139648 C3.19774643 10.19740173 3.20603973 10.96340698 3.21458435 11.75262451 C3.23199997 13.41847593 3.24716264 15.08435206 3.26036072 16.75024223 C3.28136147 19.38507911 3.30838686 22.01979219 3.33703613 24.65455627 C3.39677889 30.24882345 3.4489073 35.84314802 3.5 41.4375 C3.5592021 47.91534626 3.62149338 54.39313156 3.69187927 60.87086678 C3.71847706 63.46942827 3.7392787 66.06799581 3.7598877 68.66661072 C3.77649057 70.25747979 3.7933624 71.84834609 3.81054688 73.43920898 C3.81473129 74.16398941 3.81891571 74.88876984 3.82322693 75.63551331 C3.86153541 78.69311748 4.02520314 81.07560941 5 84 C31.22986022 89.5013939 55.81563803 86.50144796 81.734375 80.66015625 C91.03633334 78.77973644 100.5064787 77.66094567 110 78 C110 77.34 110 76.68 110 76 C112.70894767 75.91855057 115.41541263 75.85929386 118.125 75.8125 C118.88554688 75.78736328 119.64609375 75.76222656 120.4296875 75.73632812 C125.47251978 75.67111909 128.51337086 76.4958349 133 79 C136.75073204 79.25144312 136.75073204 79.25144312 140 79 C140 80.98 140 82.96 140 85 C139.21882812 84.7834375 138.43765625 84.566875 137.6328125 84.34375 C111.56007463 78.07235648 84.79798371 83.44021157 59.0222168 88.69238281 C40.55131477 92.40524187 18.80528154 94.02617291 1 87 C-0.78857062 85.21142938 -0.11990579 82.79876866 -0.12442017 80.41790771 C-0.12082489 79.61733948 -0.11722961 78.81677124 -0.11352539 77.99194336 C-0.11367142 77.15299026 -0.11381744 76.31403717 -0.1139679 75.44966125 C-0.1132685 72.66302956 -0.10547485 69.87646384 -0.09765625 67.08984375 C-0.09579217 65.16313209 -0.09436822 63.23641995 -0.09336853 61.30970764 C-0.08954259 56.22812603 -0.07971166 51.1465728 -0.06866455 46.06500244 C-0.05845206 40.88383366 -0.05387126 35.70266031 -0.04882812 30.52148438 C-0.03808946 20.34764375 -0.02101213 10.17382423 0 0 Z " fill="#065B33" transform="translate(9,40)"/>
<path d="M0 0 C4.6356795 4.28800354 8.31568909 8.31909694 8.6171875 14.8515625 C8.62420343 17.34221734 8.58699406 19.82350338 8.5 22.3125 C6.025 21.3225 6.025 21.3225 3.5 20.3125 C3.5 19.6525 3.5 18.9925 3.5 18.3125 C0.53 17.3225 -2.44 16.3325 -5.5 15.3125 C-5.5 14.3225 -5.5 13.3325 -5.5 12.3125 C-6.16 12.3125 -6.82 12.3125 -7.5 12.3125 C-7.5 12.9725 -7.5 13.6325 -7.5 14.3125 C-8.49 14.3125 -9.48 14.3125 -10.5 14.3125 C-10.83 14.9725 -11.16 15.6325 -11.5 16.3125 C-12.16 15.9825 -12.82 15.6525 -13.5 15.3125 C-13.5 14.6525 -13.5 13.9925 -13.5 13.3125 C-19.44 13.6425 -25.38 13.9725 -31.5 14.3125 C-28.14813029 7.60876057 -24.81824212 3.70472106 -18.8125 -0.625 C-12.49088965 -2.65268634 -6.02715687 -2.90595063 0 0 Z " fill="#5C5EA2" transform="translate(92.5,58.6875)"/>
<path d="M0 0 C3.83331699 -0.02929981 7.66660471 -0.04689897 11.5 -0.0625 C12.57765625 -0.07087891 13.6553125 -0.07925781 14.765625 -0.08789062 C20.61853473 -0.10573486 26.21115575 0.1411411 32 1 C32.66 1 33.32 1 34 1 C33 4 33 4 31 5 C29.37731009 5.09611752 27.75052694 5.12982352 26.125 5.125 C25.26132813 5.12757812 24.39765625 5.13015625 23.5078125 5.1328125 C21 5 21 5 19.11425781 4.50219727 C15.33566846 3.60467321 11.49143443 3.81544698 7.625 3.8125 C6.78710938 3.80025391 5.94921875 3.78800781 5.0859375 3.77539062 C0.26692245 3.76402502 -3.44103293 4.28956502 -8 6 C-10.46484375 6.30859375 -10.46484375 6.30859375 -12.9375 6.4375 C-20.0868464 6.97073854 -27.00373347 8.49877682 -34 10 C-31.64924131 12.61980117 -29.23250529 14.09234576 -26.11328125 15.69921875 C-25.17548828 16.18583984 -24.23769531 16.67246094 -23.27148438 17.17382812 C-22.29501953 17.67333984 -21.31855469 18.17285156 -20.3125 18.6875 C-19.32443359 19.19861328 -18.33636719 19.70972656 -17.31835938 20.23632812 C-14.8814733 21.49597455 -12.44199904 22.75030279 -10 24 C-10 24.66 -10 25.32 -10 26 C-13.3319412 24.82121508 -16.35386941 23.29470554 -19.43359375 21.58203125 C-20.24763672 21.13279297 -21.06167969 20.68355469 -21.90039062 20.22070312 C-23.5938164 19.28078012 -25.28136813 18.3301964 -26.96289062 17.36914062 C-31.97180415 14.59834498 -31.97180415 14.59834498 -37.59765625 14.19921875 C-38.39042969 14.46347656 -39.18320313 14.72773437 -40 15 C-39.67 13.68 -39.34 12.36 -39 11 C-39.85722656 11.20496094 -40.71445313 11.40992188 -41.59765625 11.62109375 C-42.74105469 11.89050781 -43.88445312 12.15992188 -45.0625 12.4375 C-46.75052734 12.83775391 -46.75052734 12.83775391 -48.47265625 13.24609375 C-56.64370907 14.99250925 -64.12445636 14.95706345 -72.4375 14.5625 C-73.64599609 14.51029297 -74.85449219 14.45808594 -76.09960938 14.40429688 C-79.06671084 14.27529246 -82.03341748 14.1403565 -85 14 C-85 13.67 -85 13.34 -85 13 C-84.26587891 12.98541748 -83.53175781 12.97083496 -82.77539062 12.95581055 C-68.86561532 12.64769639 -55.58016928 12.09723159 -42 9 C-39.8559533 8.61491629 -37.71024601 8.23888563 -35.5625 7.875 C-32.48126464 7.54090841 -32.48126464 7.54090841 -30 6 C-28.21179927 5.63092587 -26.41214058 5.31702259 -24.609375 5.02734375 C-23.50722656 4.85009766 -22.40507813 4.67285156 -21.26953125 4.49023438 C-20.10808594 4.30783203 -18.94664063 4.12542969 -17.75 3.9375 C-16.60402344 3.75123047 -15.45804687 3.56496094 -14.27734375 3.37304688 C-9.46912574 2.60899361 -4.87973642 1.87974056 0 2 C0 1.34 0 0.68 0 0 Z " fill="#2CAD6F" transform="translate(116,32)"/>
<path d="M0 0 C0 0.66 0 1.32 0 2 C-3.49931587 2.64957631 -6.99956712 3.29397258 -10.5 3.9375 C-11.97339844 4.21110352 -11.97339844 4.21110352 -13.4765625 4.49023438 C-17.80255721 5.2833334 -22.09378134 6.04226183 -26.46875 6.50390625 C-29.82604357 6.77923574 -29.82604357 6.77923574 -31.91577148 7.97998047 C-34.28564545 9.13979462 -36.26666169 9.47781444 -38.87890625 9.81640625 C-39.79994141 9.94080078 -40.72097656 10.06519531 -41.66992188 10.19335938 C-43.10174805 10.37608398 -43.10174805 10.37608398 -44.5625 10.5625 C-46.4599617 10.81132652 -48.35711415 11.06252588 -50.25390625 11.31640625 C-51.09252197 11.42412354 -51.9311377 11.53184082 -52.79516602 11.64282227 C-55.16710417 11.96656159 -55.16710417 11.96656159 -58 13 C-60.39691999 13.09610891 -62.79646734 13.13074631 -65.1953125 13.1328125 C-66.25563187 13.13424759 -66.25563187 13.13424759 -67.33737183 13.13571167 C-68.83526702 13.136392 -70.33316517 13.13454796 -71.83105469 13.13037109 C-74.09577287 13.12506843 -76.36028837 13.13029614 -78.625 13.13671875 C-98.79049246 13.15050717 -98.79049246 13.15050717 -102.5625 9.5625 C-104 7 -104 7 -104 5 C-100.59687262 6.05875074 -97.98646769 7.00902154 -95 9 C-89.43331668 10.45814777 -83.77701375 10.19128612 -78.0625 10.1875 C-76.94617188 10.18741943 -75.82984375 10.18733887 -74.6796875 10.18725586 C-61.57541846 10.86373651 -61.57541846 10.86373651 -50 7 C-48.48049593 6.64570956 -46.94901736 6.34237122 -45.4140625 6.0625 C-44.48335937 5.88976563 -43.55265625 5.71703125 -42.59375 5.5390625 C-41.12421875 5.27222656 -41.12421875 5.27222656 -39.625 5 C-37.70017618 4.64771129 -35.77568091 4.29362136 -33.8515625 3.9375 C-32.99385254 3.78152344 -32.13614258 3.62554687 -31.25244141 3.46484375 C-28.84747814 3.01469223 -28.84747814 3.01469223 -26 2 C-24.51867007 1.78853038 -23.03186199 1.61402378 -21.54296875 1.46484375 C-20.67736328 1.37783203 -19.81175781 1.29082031 -18.91992188 1.20117188 C-18.01822266 1.11416016 -17.11652344 1.02714844 -16.1875 0.9375 C-15.29740234 0.84662109 -14.40730469 0.75574219 -13.49023438 0.66210938 C-8.97414135 0.21686077 -4.54466361 -0.11267761 0 0 Z " fill="#5AA984" transform="translate(116,32)"/>
<path d="M0 0 C0.99 0.33 1.98 0.66 3 1 C3 26.41 3 51.82 3 78 C15.40143464 81.10035866 27.28092318 82.42734014 40 83 C40 83.33 40 83.66 40 84 C35.72930036 84.08824695 31.45884011 84.14080654 27.1875 84.1875 C25.99189453 84.21263672 24.79628906 84.23777344 23.56445312 84.26367188 C16.14644251 84.32430956 8.87629016 84.0824749 2 81 C-0.42669283 77.35996076 -0.26911387 74.7027485 -0.22705078 70.49926758 C-0.22734283 69.73805099 -0.22763489 68.97683441 -0.22793579 68.19255066 C-0.22654243 65.67642824 -0.21098107 63.16060194 -0.1953125 60.64453125 C-0.19158239 58.90004132 -0.18873541 57.15554929 -0.18673706 55.41105652 C-0.17910045 50.81936866 -0.15945171 46.22780731 -0.1373291 41.63616943 C-0.11687129 36.95082307 -0.10773548 32.26545627 -0.09765625 27.58007812 C-0.07620585 18.38666317 -0.04206955 9.1933421 0 0 Z " fill="#01773F" transform="translate(12,43)"/>
<path d="M0 0 C0.66 0 1.32 0 2 0 C2 0.99 2 1.98 2 3 C3.11375 3.185625 3.11375 3.185625 4.25 3.375 C6.80141485 3.95486701 8.7267573 4.73708739 11 6 C11 6.66 11 7.32 11 8 C12.32 8.66 13.64 9.32 15 10 C15 11.32 15 12.64 15 14 C12.525 13.01 12.525 13.01 10 12 C10 11.34 10 10.68 10 10 C7.03 9.01 4.06 8.02 1 7 C1 7.66 1 8.32 1 9 C0.34 9 -0.32 9 -1 9 C-1 8.01 -1 7.02 -1 6 C-9.25 6 -17.5 6 -26 6 C-24 2 -24 2 -22 1 C-19.34326192 0.90170936 -16.7186515 0.86098337 -14.0625 0.875 C-13.33353516 0.87113281 -12.60457031 0.86726563 -11.85351562 0.86328125 C-8.64142264 0.8691696 -6.0678556 0.97738147 -3 2 C-2.01 2 -1.02 2 0 2 C0 1.34 0 0.68 0 0 Z " fill="#AAD4C9" transform="translate(85,71)"/>
<path d="M0 0 C0.99 0.495 0.99 0.495 2 1 C-3.76416116 6.38189567 -9.52661084 11.69454338 -15.6875 16.625 C-20.81999042 20.75038838 -25.44919593 25.24693798 -30 30 C-29.01 30.66 -28.02 31.32 -27 32 C-31.95 32.495 -31.95 32.495 -37 33 C-36.34 32.34 -35.68 31.68 -35 31 C-35.69971924 30.64284912 -36.39943848 30.28569824 -37.12036133 29.91772461 C-40.35395365 28.26321076 -43.58321685 26.60040779 -46.8125 24.9375 C-47.91271484 24.37611328 -49.01292969 23.81472656 -50.14648438 23.23632812 C-57.35535558 19.51493443 -64.23728133 15.48156536 -71 11 C-68 10 -68 10 -65.79858398 11.00048828 C-64.95626221 11.51853027 -64.11394043 12.03657227 -63.24609375 12.5703125 C-62.30830078 13.1375 -61.37050781 13.7046875 -60.40429688 14.2890625 C-59.42525391 14.89492187 -58.44621094 15.50078125 -57.4375 16.125 C-51.88595233 19.52283283 -46.33625297 22.91698918 -40.59765625 25.9921875 C-39.83074463 26.40581543 -39.06383301 26.81944336 -38.27368164 27.24560547 C-35.41515014 28.19404983 -33.84611937 27.92135758 -31 27 C-28.82310599 25.22152957 -26.8648286 23.46586198 -24.875 21.5 C-23.72633865 20.40115221 -22.57525992 19.30482625 -21.421875 18.2109375 C-20.84888672 17.66663086 -20.27589844 17.12232422 -19.68554688 16.56152344 C-16.4155206 13.53210744 -12.92948664 10.77165178 -9.45703125 7.98046875 C-6.24246053 5.38939188 -3.11987892 2.70389506 0 0 Z " fill="#1EAC6B" transform="translate(113,87)"/>
<path d="M0 0 C3.40312738 1.05875074 6.01353231 2.00902154 9 4 C14.56681606 5.45818254 20.22288397 5.19086451 25.9375 5.1875 C27.61634277 5.1884668 27.61634277 5.1884668 29.32910156 5.18945312 C36.48189024 5.14385436 43.28414288 4.72472516 50.328125 3.4375 C52.9383368 3.0100969 55.36067079 2.92293929 58 3 C50.95036853 9.46216218 40.70193858 8.28146218 31.79174805 8.20581055 C29.57133428 8.18757256 27.35134029 8.18530133 25.13085938 8.18554688 C5.19831148 8.13985726 5.19831148 8.13985726 1.4375 4.5625 C0 2 0 2 0 0 Z " fill="#4BA47A" transform="translate(12,37)"/>
<path d="M0 0 C3.83331699 -0.02929981 7.66660471 -0.04689897 11.5 -0.0625 C12.57765625 -0.07087891 13.6553125 -0.07925781 14.765625 -0.08789062 C20.61853473 -0.10573486 26.21115575 0.1411411 32 1 C32.66 1 33.32 1 34 1 C33 4 33 4 31 5 C29.37731009 5.09611752 27.75052694 5.12982352 26.125 5.125 C25.26132813 5.12757812 24.39765625 5.13015625 23.5078125 5.1328125 C21 5 21 5 19.11425781 4.50219727 C15.33566846 3.60467321 11.49143443 3.81544698 7.625 3.8125 C6.78710938 3.80025391 5.94921875 3.78800781 5.0859375 3.77539062 C0.31538183 3.76413931 -3.51731565 4.15290042 -8 6 C-8.33 5.34 -8.66 4.68 -9 4 C-5.86501708 2.14223235 -3.62528568 1.79859524 0 2 C0 1.34 0 0.68 0 0 Z " fill="#41986F" transform="translate(116,32)"/>
<path d="M0 0 C0.98701904 0.00273926 1.97403809 0.00547852 2.9909668 0.00830078 C10.39788723 0.11382802 17.65029624 0.57288663 24.625 3.3125 C25.12 4.3025 25.12 4.3025 25.625 5.3125 C24.61695313 5.15007813 23.60890625 4.98765625 22.5703125 4.8203125 C16.57650001 4.07339531 10.56512985 4.16314834 4.53369141 4.18212891 C2.49764626 4.18750622 0.46181986 4.18214846 -1.57421875 4.17578125 C-3.52134766 4.17771484 -3.52134766 4.17771484 -5.5078125 4.1796875 C-6.68230957 4.18081543 -7.85680664 4.18194336 -9.06689453 4.18310547 C-12.2565477 4.30786681 -15.23937035 4.73795391 -18.375 5.3125 C-21.05310075 5.42446073 -23.69232686 5.35875299 -26.375 5.3125 C-26.375 4.9825 -26.375 4.6525 -26.375 4.3125 C-25.47136719 4.19132812 -24.56773438 4.07015625 -23.63671875 3.9453125 C-22.45722656 3.77773438 -21.27773437 3.61015625 -20.0625 3.4375 C-18.89074219 3.27507813 -17.71898438 3.11265625 -16.51171875 2.9453125 C-1.86194373 -0.01018383 -1.86194373 -0.01018383 0 0 Z " fill="#5B9D7E" transform="translate(122.375,28.6875)"/>
<path d="M0 0 C0.66 0.33 1.32 0.66 2 1 C1.67 1.33 1.34 1.66 1 2 C0.87504973 4.463493 0.81397797 6.90036767 0.79467773 9.36547852 C0.78477814 10.13615662 0.77487854 10.90683472 0.76467896 11.7008667 C0.73297299 14.26018147 0.7082708 16.81951483 0.68359375 19.37890625 C0.66303206 21.14868159 0.64203581 22.91845194 0.62062073 24.68821716 C0.56531891 29.3554582 0.51594554 34.02274414 0.46777344 38.69006348 C0.41761747 43.44901546 0.36190066 48.20790191 0.30664062 52.96679688 C0.19895992 62.31114198 0.09753712 71.6555439 0 81 C-1.32 80.67 -2.64 80.34 -4 80 C-3.34 79.01 -2.68 78.02 -2 77 C-1.81642911 74.52244513 -1.74750539 72.15935792 -1.77294922 69.68286133 C-1.77251114 68.57029716 -1.77251114 68.57029716 -1.77206421 67.43525696 C-1.77345736 64.98406265 -1.78901773 62.53317245 -1.8046875 60.08203125 C-1.80841768 58.38238186 -1.81126463 56.68273031 -1.81326294 54.983078 C-1.82089898 50.50975609 -1.84054721 46.03656406 -1.8626709 41.56329346 C-1.88312996 36.99859372 -1.89226478 32.433873 -1.90234375 27.86914062 C-1.92379313 18.91270335 -1.95792873 9.95636248 -2 1 C-1.34 0.67 -0.68 0.34 0 0 Z " fill="#168551" transform="translate(148,37)"/>
<path d="M0 0 C-2.8653418 2.41767043 -4.88433171 3.42114068 -8.59765625 3.87890625 C-9.47631348 3.99451904 -10.3549707 4.11013184 -11.26025391 4.22924805 C-12.18499512 4.33922119 -13.10973633 4.44919434 -14.0625 4.5625 C-15.96767566 4.80813586 -17.8726276 5.05551359 -19.77734375 5.3046875 C-21.14028564 5.48016113 -21.14028564 5.48016113 -22.53076172 5.65917969 C-25.42105133 6.05811624 -28.26811776 6.5969945 -31.125 7.1875 C-36.42144316 8.21618318 -41.62294836 8.18720876 -47 8 C-47 7.67 -47 7.34 -47 7 C-46.2793335 6.88930176 -45.55866699 6.77860352 -44.81616211 6.66455078 C-41.52254544 6.15596789 -38.23003395 5.6405439 -34.9375 5.125 C-33.80376953 4.95097656 -32.67003906 4.77695313 -31.50195312 4.59765625 C-25.85844542 3.70917399 -20.45298424 2.70039294 -15 1 C-9.92323178 0.07695123 -5.13734486 -0.09012886 0 0 Z " fill="#1F975E" transform="translate(108,115)"/>
<path d="M0 0 C1.05960938 0.10828125 1.05960938 0.10828125 2.140625 0.21875 C10.09718404 0.93843876 17.94568197 1.0788361 25.93066406 0.96289062 C30.7450013 0.91335649 35.25305006 1.18111915 40 2 C40 2.33 40 2.66 40 3 C33.50349758 4.1667569 27.08813198 4.18364729 20.5 4.1875 C18.84677734 4.20586914 18.84677734 4.20586914 17.16015625 4.22460938 C11.41789136 4.23494959 6.36788474 4.14866173 1 2 C0.67 1.34 0.34 0.68 0 0 Z " fill="#62A485" transform="translate(18,39)"/>
<path d="M0 0 C0.495 0.99 0.495 0.99 1 2 C0.50113281 1.83757812 0.00226563 1.67515625 -0.51171875 1.5078125 C-3.94343631 0.80746198 -7.32635239 0.85309177 -10.8125 0.875 C-11.92516235 0.87790039 -11.92516235 0.87790039 -13.06030273 0.88085938 C-20.39878691 0.93696757 -27.68693714 1.40388425 -35 2 C-26.37583592 -5.02360961 -10.06489903 -3.07064716 0 0 Z " fill="#0A7E48" transform="translate(139,116)"/>
<path d="M0 0 C3.40312738 1.05875074 6.01353231 2.00902154 9 4 C11.56766546 4.6117498 14.09543602 5.15063535 16.6875 5.625 C17.38939453 5.7590625 18.09128906 5.893125 18.81445312 6.03125 C20.54181706 6.3602717 22.27076591 6.68095312 24 7 C24 7.33 24 7.66 24 8 C5.3805689 8.31322407 5.3805689 8.31322407 1.4375 4.5625 C0 2 0 2 0 0 Z " fill="#3D966C" transform="translate(12,37)"/>
<path d="M0 0 C0.56960449 0.06566162 1.13920898 0.13132324 1.72607422 0.19897461 C8.85275399 0.97120887 15.96317496 1.30850504 23.125 1.5625 C24.27226563 1.60568359 25.41953125 1.64886719 26.6015625 1.69335938 C29.40095143 1.79833646 32.20041215 1.90049465 35 2 C35 2.33 35 2.66 35 3 C23.32270264 4.57194387 11.02160843 5.72354647 0 1 C0 0.67 0 0.34 0 0 Z " fill="#259E65" transform="translate(21,44)"/>
<path d="M0 0 C0.74507812 0.00451172 1.49015625 0.00902344 2.2578125 0.01367188 C4.0885764 0.02540754 5.91929873 0.0433415 7.75 0.0625 C7.75 0.3925 7.75 0.7225 7.75 1.0625 C-4.6113457 3.21899645 -16.73037789 3.28554384 -29.25 3.0625 C-28.92 2.4025 -28.59 1.7425 -28.25 1.0625 C-27.14140625 1.07410156 -26.0328125 1.08570312 -24.890625 1.09765625 C-23.42708502 1.10703792 -21.96354322 1.11613771 -20.5 1.125 C-19.77039062 1.13337891 -19.04078125 1.14175781 -18.2890625 1.15039062 C-14.2351145 1.19713225 -14.2351145 1.19713225 -10.25 0.5625 C-6.88760599 -0.2780985 -3.44468475 -0.0395591 0 0 Z " fill="#158852" transform="translate(64.25,122.9375)"/>
<path d="M0 0 C1.24458984 -0.01611328 2.48917969 -0.03222656 3.77148438 -0.04882812 C5.5571582 -0.04979492 5.5571582 -0.04979492 7.37890625 -0.05078125 C9.01388062 -0.05525269 9.01388062 -0.05525269 10.68188477 -0.05981445 C13.4375 0.3125 13.4375 0.3125 15.31616211 1.83520508 C15.68620361 2.3227124 16.05624512 2.81021973 16.4375 3.3125 C15.31601563 3.15136719 14.19453125 2.99023438 13.0390625 2.82421875 C8.28924367 2.23336722 3.59450945 2.12879525 -1.1875 2.125 C-2.00734375 2.11275391 -2.8271875 2.10050781 -3.671875 2.08789062 C-8.37627807 2.0765456 -12.13861877 2.50142888 -16.5625 4.3125 C-16.8925 3.6525 -17.2225 2.9925 -17.5625 2.3125 C-12.22762519 -0.93267358 -6.04240702 -0.01569456 0 0 Z " fill="#279561" transform="translate(124.5625,33.6875)"/>
<path d="M0 0 C0.66 0.33 1.32 0.66 2 1 C-0.37773185 3.50085065 -2.95266942 5.58683303 -5.6875 7.6875 C-6.49574219 8.31011719 -7.30398437 8.93273437 -8.13671875 9.57421875 C-8.75160156 10.04472656 -9.36648437 10.51523438 -10 11 C-7.28395285 13.87420123 -7.28395285 13.87420123 -4 16 C-4 16.66 -4 17.32 -4 18 C-7.58273331 16.34643078 -10.80973467 14.32019297 -14 12 C-14 11.34 -14 10.68 -14 10 C-11.8828956 8.39524075 -9.77285341 6.90258242 -7.5625 5.4375 C-3.59312613 2.94746296 -3.59312613 2.94746296 0 0 Z " fill="#E1BA31" transform="translate(43,75)"/>
<path d="M0 0 C0 0.33 0 0.66 0 1 C-1.2375 1.12375 -2.475 1.2475 -3.75 1.375 C-6.09308497 1.6093085 -7.71700358 1.84112482 -9.78125 3 C-13.00511235 4.45300838 -16.26931541 4.46708614 -19.75 4.625 C-20.44738281 4.66367187 -21.14476563 4.70234375 -21.86328125 4.7421875 C-23.57510818 4.83598624 -25.28751682 4.91906174 -27 5 C-19.10025856 -0.26649429 -9.18670228 -0.19138963 0 0 Z " fill="#49AF7F" transform="translate(94,37)"/>
<path d="M0 0 C-3.53893654 2.10924148 -6.88080904 2.54729592 -10.9375 3.0625 C-15.87017549 3.69495079 -15.87017549 3.69495079 -20.765625 4.5546875 C-23.22295003 5.0444341 -25.5007931 5.07140591 -28 5 C-25.14169737 2.59687227 -23.06240724 1.55762582 -19.375 1.015625 C-18.50359375 0.88542969 -17.6321875 0.75523438 -16.734375 0.62109375 C-15.83203125 0.49863281 -14.9296875 0.37617187 -14 0.25 C-13.09765625 0.11207031 -12.1953125 -0.02585938 -11.265625 -0.16796875 C-3.94552421 -1.21833824 -3.94552421 -1.21833824 0 0 Z " fill="#35B076" transform="translate(110,36)"/>
<path d="M0 0 C0 0.99 0 1.98 0 3 C1.32 3 2.64 3 4 3 C4 2.34 4 1.68 4 1 C4.66 1 5.32 1 6 1 C6 1.66 6 2.32 6 3 C6.66 3.33 7.32 3.66 8 4 C-0.415 4.495 -0.415 4.495 -9 5 C-6.40100021 -0.19799959 -5.44050551 -0.1431712 0 0 Z " fill="#A7D1C6" transform="translate(68,72)"/>
<path d="M0 0 C1.7290774 -0.02725341 3.45828176 -0.04650987 5.1875 -0.0625 C6.15042969 -0.07410156 7.11335938 -0.08570312 8.10546875 -0.09765625 C10.85576513 -0.00486622 13.32479591 0.37888315 16 1 C15.34 2.32 14.68 3.64 14 5 C11.36 4.34 8.72 3.68 6 3 C6 2.34 6 1.68 6 1 C5.34 1 4.68 1 4 1 C4 1.66 4 2.32 4 3 C2.68 3 1.36 3 0 3 C0 2.01 0 1.02 0 0 Z " fill="#C5ECD9" transform="translate(68,72)"/>
<path d="M0 0 C13.6332574 0.77904328 13.6332574 0.77904328 20 3 C20 3.33 20 3.66 20 4 C6.96330275 4.3853211 6.96330275 4.3853211 1 2 C0.67 1.34 0.34 0.68 0 0 Z " fill="#5D9E7F" transform="translate(18,39)"/>
<path d="M0 0 C1.21236328 0.02707031 1.21236328 0.02707031 2.44921875 0.0546875 C3.37154297 0.08949219 3.37154297 0.08949219 4.3125 0.125 C3.9825 0.785 3.6525 1.445 3.3125 2.125 C0.77838893 2.77569047 -1.67967636 3.29817629 -4.25 3.75 C-4.94158203 3.8840625 -5.63316406 4.018125 -6.34570312 4.15625 C-11.19251034 5.0415941 -15.76255998 5.24687703 -20.6875 5.125 C-20.6875 4.795 -20.6875 4.465 -20.6875 4.125 C-19.78386719 4.00382812 -18.88023438 3.88265625 -17.94921875 3.7578125 C-16.76972656 3.59023438 -15.59023437 3.42265625 -14.375 3.25 C-13.20324219 3.08757813 -12.03148438 2.92515625 -10.82421875 2.7578125 C-6.60360224 1.90633071 -4.44138394 -0.12873577 0 0 Z " fill="#62A586" transform="translate(116.6875,28.875)"/>
<path d="M0 0 C1.43739513 -0.02712066 2.87493863 -0.04645067 4.3125 -0.0625 C5.51326172 -0.07990234 5.51326172 -0.07990234 6.73828125 -0.09765625 C9 0 9 0 12 1 C13.33363703 1.14403348 14.67218046 1.24590423 16.01171875 1.31640625 C17.14770508 1.37924805 17.14770508 1.37924805 18.30664062 1.44335938 C19.48516602 1.50233398 19.48516602 1.50233398 20.6875 1.5625 C21.88342773 1.62727539 21.88342773 1.62727539 23.10351562 1.69335938 C25.06881447 1.79927368 27.03438496 1.90012551 29 2 C29 2.33 29 2.66 29 3 C25.47923768 3.05855176 21.9586024 3.0937806 18.4375 3.125 C16.9515332 3.15013672 16.9515332 3.15013672 15.43554688 3.17578125 C9.87271509 3.21274359 5.25156925 2.87082551 0 1 C0 0.67 0 0.34 0 0 Z " fill="#0B7C47" transform="translate(23,124)"/>
<path d="M0 0 C-3.47571176 4.10765936 -7.85288948 4.4557436 -13 5 C-15.45764601 4.8871046 -17.58532231 4.52492993 -20 4 C-16.89234404 2.25971266 -14.0636951 1.48685934 -10.5625 0.875 C-9.17224609 0.62363281 -9.17224609 0.62363281 -7.75390625 0.3671875 C-5.12946175 0.01726157 -2.64357647 -0.06716891 0 0 Z " fill="#1A7B4E" transform="translate(92,119)"/>
<path d="M0 0 C0 0.66 0 1.32 0 2 C-2.35258344 2.50866669 -4.70661404 3.0070625 -7.0625 3.5 C-7.71927734 3.64308594 -8.37605469 3.78617188 -9.05273438 3.93359375 C-13.43139988 4.83952455 -17.50418704 5.14031146 -22 5 C-21.67 4.34 -21.34 3.68 -21 3 C-18.12890625 2.40234375 -18.12890625 2.40234375 -14.5625 1.9375 C-9.43052055 1.25586497 -5.17765055 -0.11255762 0 0 Z " fill="#48A97B" transform="translate(116,32)"/>
<path d="M0 0 C0.99 0.33 1.98 0.66 3 1 C0.36 3.64 -2.28 6.28 -5 9 C-4.34 9.66 -3.68 10.32 -3 11 C-4.98 11.33 -6.96 11.66 -9 12 C-6.78268341 6.8262613 -4.04983806 3.77984886 0 0 Z " fill="#4E51A3" transform="translate(70,61)"/>
<path d="M0 0 C0 0.33 0 0.66 0 1 C-6.88002171 3.62096065 -13.72176039 3.18170362 -21 3 C-21 2.67 -21 2.34 -21 2 C-13.94546999 0.79556805 -7.16562789 -0.28100502 0 0 Z " fill="#36B077" transform="translate(82,41)"/>
<path d="M0 0 C1.32 0 2.64 0 4 0 C4 1.32 4 2.64 4 4 C4.66 4.33 5.32 4.66 6 5 C3.6875 7.0625 3.6875 7.0625 1 9 C0.01 8.67 -0.98 8.34 -2 8 C-0.68 7.67 0.64 7.34 2 7 C2 5.35 2 3.7 2 2 C1.34 2 0.68 2 0 2 C-0.33 2.66 -0.66 3.32 -1 4 C-0.67 2.68 -0.34 1.36 0 0 Z " fill="#5356A3" transform="translate(85,93)"/>
<path d="M0 0 C1.65 0 3.3 0 5 0 C4.67 1.65 4.34 3.3 4 5 C3.01 4.67 2.02 4.34 1 4 C1 4.66 1 5.32 1 6 C-0.65 6.33 -2.3 6.66 -4 7 C-4 6.34 -4 5.68 -4 5 C-3.01 4.67 -2.02 4.34 -1 4 C-0.26676204 1.98491642 -0.26676204 1.98491642 0 0 Z " fill="#7B7DB2" transform="translate(94,85)"/>
<path d="M0 0 C0.99 0.33 1.98 0.66 3 1 C2.67 1.66 2.34 2.32 2 3 C1.77532169 4.53668865 1.59203195 6.07968054 1.4375 7.625 C1.35371094 8.44226563 1.26992188 9.25953125 1.18359375 10.1015625 C1.12300781 10.72804688 1.06242187 11.35453125 1 12 C0.34 11.67 -0.32 11.34 -1 11 C-1.0270043 9.54176788 -1.04639787 8.08339325 -1.0625 6.625 C-1.07410156 5.81289062 -1.08570313 5.00078125 -1.09765625 4.1640625 C-1 2 -1 2 0 0 Z " fill="#5C5B92" transform="translate(59,78)"/>
<path d="M0 0 C4.39158329 1.4638611 4.87947433 3.97831338 7 8 C4.525 7.01 4.525 7.01 2 6 C2 5.34 2 4.68 2 4 C1.34 4 0.68 4 0 4 C0 2.68 0 1.36 0 0 Z " fill="#257D54" transform="translate(9,36)"/>
<path d="M0 0 C0.98484375 0.01804688 1.9696875 0.03609375 2.984375 0.0546875 C4.10585937 0.08949219 4.10585937 0.08949219 5.25 0.125 C5.25 0.455 5.25 0.785 5.25 1.125 C-2.25 2.625 -2.25 2.625 -9.75 4.125 C-9.75 3.465 -9.75 2.805 -9.75 2.125 C-6.40060119 0.09941119 -3.88037449 -0.09238987 0 0 Z " fill="#2CA36B" transform="translate(116.75,33.875)"/>
<path d="M0 0 C3.77545388 1.09068668 6.47043472 1.9083091 9 5 C5.93606987 5.25532751 4.36766788 5.21861333 1.6875 3.625 C1.130625 3.08875 0.57375 2.5525 0 2 C0 1.34 0 0.68 0 0 Z " fill="#4E9473" transform="translate(12,37)"/>
<path d="M0 0 C1.32 0.66 2.64 1.32 4 2 C4 3.32 4 4.64 4 6 C1.525 5.01 1.525 5.01 -1 4 C-0.67 2.68 -0.34 1.36 0 0 Z " fill="#C5E3D7" transform="translate(96,79)"/>
<path d="M0 0 C0.99 0.33 1.98 0.66 3 1 C-0.96 4.465 -0.96 4.465 -5 8 C-5 5 -5 5 -2.5 2.3125 C-1.675 1.549375 -0.85 0.78625 0 0 Z " fill="#1FAE6E" transform="translate(71,49)"/>
<path d="M0 0 C0.66 0 1.32 0 2 0 C0.75023244 3.65316671 0.32901247 4.78065836 -3 7 C-2.67 5.35 -2.34 3.7 -2 2 C-1.34 2 -0.68 2 0 2 C0 1.34 0 0.68 0 0 Z " fill="#4E52A5" transform="translate(95,89)"/>
<path d="M0 0 C0.33 0.66 0.66 1.32 1 2 C1.66 2 2.32 2 3 2 C2.67 3.65 2.34 5.3 2 7 C1.34 7 0.68 7 0 7 C-1.125 2.25 -1.125 2.25 0 0 Z " fill="#9AC2C0" transform="translate(84,73)"/>
</svg>
