<?xml version="1.0" encoding="UTF-8"?>
<svg version="1.1" xmlns="http://www.w3.org/2000/svg" width="160" height="160">
<path d="M0 0 C6.06492647 10.1234111 6.25744621 25.70469279 7.8125 37.1875 C9.16499299 47.15348534 10.93780475 56.93384117 13.125 66.75 C16.86846245 83.67474963 18.45556349 99.6718388 18 117 C17.97099609 118.17103271 17.97099609 118.17103271 17.94140625 119.36572266 C17.38896335 138.06347761 17.38896335 138.06347761 10.375 144.8125 C-2.94249388 155.55952171 -22.59126371 152.2438619 -38.46044922 150.828125 C-40.76073034 150.62404802 -43.06182901 150.43255152 -45.36328125 150.2421875 C-71.07994695 148.04952813 -71.07994695 148.04952813 -78.375 140.5625 C-81.51003397 135.61879259 -82.37652271 131.00864507 -82.9375 125.25 C-83.51939235 119.84557514 -84.31217246 115.01674349 -86.51171875 109.9921875 C-87.69742443 105.15450834 -85.50510712 100.17611743 -83.9375 95.625 C-83.57527344 94.56539063 -83.21304688 93.50578125 -82.83984375 92.4140625 C-82.56269531 91.61742188 -82.28554687 90.82078125 -82 90 C-82.56589844 89.86722656 -83.13179687 89.73445313 -83.71484375 89.59765625 C-84.44832031 89.42105469 -85.18179688 89.24445313 -85.9375 89.0625 C-86.66839844 88.88847656 -87.39929688 88.71445313 -88.15234375 88.53515625 C-90 88 -90 88 -91 87 C-91.37488273 83.1886923 -91.41868498 81.48906272 -90 78 C-88.07233795 75.85401365 -85.89667173 74.0369061 -83.6875 72.1875 C-77.22650233 66.71642382 -74.98974727 62.28719483 -73 54 C-72.15114377 51.5325173 -71.27541822 49.07413756 -70.375 46.625 C-68.86201403 42.43296882 -67.39400808 38.2331805 -66 34 C-66.78375 33.71125 -67.5675 33.4225 -68.375 33.125 C-71 32 -71 32 -73 30 C-74.86660362 19.26702916 -65.85942358 8.98404019 -60.05078125 0.6171875 C-56.51657056 -3.89313852 -53.55825125 -4.4219902 -48.0625 -5.125 C-33.3660199 -6.8706957 -12.64414443 -9.26644679 0 0 Z " fill="#74746E" transform="translate(115,7)"/>
<path d="M0 0 C2.62249774 2.2425211 3.40473773 3.62795282 3.6796875 7.05859375 C3.77588379 8.25524658 3.77588379 8.25524658 3.87402344 9.47607422 C4.08358749 13.6746656 4.14814556 17.85903042 4.125 22.0625 C4.12089111 22.97281982 4.11678223 23.88313965 4.11254883 24.82104492 C3.8871617 52.50003869 3.8871617 52.50003869 -1.66015625 58.921875 C-10.42181183 67.35257341 -21.30821816 68.20906934 -32.98242188 68.12011719 C-39.49340327 67.96842766 -45.97578754 67.40664082 -52.46044922 66.828125 C-54.76073034 66.62404802 -57.06182901 66.43255152 -59.36328125 66.2421875 C-85.07994695 64.04952813 -85.07994695 64.04952813 -92.375 56.5625 C-95.53668748 51.57676204 -96.41740164 46.87230027 -97 41.0625 C-97.49684602 36.13544362 -98.33612195 31.68350859 -100 27 C-100.1875 24.1875 -100.1875 24.1875 -100 22 C-98.25871044 20.25871044 -95.9341786 20.82730449 -93.5625 20.8125 C-87.74465632 20.85132877 -82.03183769 21.30288697 -76.25 21.9375 C-75.05225952 22.06765503 -75.05225952 22.06765503 -73.83032227 22.20043945 C-68.1303988 22.8696012 -68.1303988 22.8696012 -67 24 C-64.48393551 24.24349011 -61.96913976 24.38363366 -59.4453125 24.5234375 C-56.66613019 25.06506728 -55.75049421 25.83216942 -54 28 C-54.495 29.485 -54.495 29.485 -55 31 C-54.1646875 30.505 -54.1646875 30.505 -53.3125 30 C-50.69715478 28.8690399 -48.8193354 28.84337026 -46 29 C-45.67 28.34 -45.34 27.68 -45 27 C-45.99 27.33 -46.98 27.66 -48 28 C-48.66 27.67 -49.32 27.34 -50 27 C-48.84826645 24.53199953 -47.95216435 22.95216435 -46 21 C-45.21625 21.04125 -44.4325 21.0825 -43.625 21.125 C-40.11538881 20.95787566 -39.37623766 19.45289048 -37 17 C-35.68 17 -34.36 17 -33 17 C-32.34 16.34 -31.68 15.68 -31 15 C-31 14.01 -31 13.02 -31 12 C-29.54085754 9.28068905 -28.18565143 7.18565143 -26 5 C-23.31160615 4.73008094 -20.70858064 4.91262643 -18 5 C-18 5.33 -18 5.66 -18 6 C-15.69 6 -13.38 6 -11 6 C-10.67 5.34 -10.34 4.68 -10 4 C-7.36 4.33 -4.72 4.66 -2 5 C-1.34 3.35 -0.68 1.7 0 0 Z " fill="#545450" transform="translate(129,91)"/>
<path d="M0 0 C0.33 0 0.66 0 1 0 C1.38063221 2.3260857 1.71269945 4.66055264 2 7 C1.67 7.33 1.34 7.66 1 8 C7.27 7.67 13.54 7.34 20 7 C20.85241826 12.96692783 20.96707932 15.62648466 19.6875 21.1875 C19.42324219 22.37730469 19.15898438 23.56710938 18.88671875 24.79296875 C18.14616023 27.47137643 17.24388716 29.55024843 16 32 C15.7763932 34.9254644 15.7763932 34.9254644 17 37 C17.66 37 18.32 37 19 37 C19 36.01 19 35.02 19 34 C21 32.3125 21 32.3125 23 31 C23.598125 31.66 24.19625 32.32 24.8125 33 C26.87501834 35.3373846 26.87501834 35.3373846 30 35 C30.74926071 38.66305234 31.2380014 41.42355152 30 45 C28.68 45 27.36 45 26 45 C25.67 45.99 25.34 46.98 25 48 C24.01 47.67 23.02 47.34 22 47 C21.67 47.99 21.34 48.98 21 50 C20.01 49.34 19.02 48.68 18 48 C17.01 48 16.02 48 15 48 C15 48.66 15 49.32 15 50 C2.14767335 50.91984843 -10.39715836 48.21562523 -23 46 C-22.34 47.98 -21.68 49.96 -21 52 C-21.99 51.67 -22.98 51.34 -24 51 C-24.31083715 47.26995422 -24.33822442 45.44324167 -23 42 C-21.07841092 39.84659781 -18.9000571 38.03476082 -16.6875 36.1875 C-10.22408352 30.71598106 -7.99471148 26.2857246 -6 18 C-5.12816031 15.48720524 -4.23880994 12.99205995 -3.3125 10.5 C-1.42681989 5.31849139 -1.42681989 5.31849139 0 0 Z " fill="#959684" transform="translate(48,43)"/>
<path d="M0 0 C0.83200928 -0.00080566 1.66401855 -0.00161133 2.52124023 -0.00244141 C7.25503202 0.04053663 11.7683987 0.40409374 16.4375 1.1875 C16.4375 1.5175 16.4375 1.8475 16.4375 2.1875 C15.179375 2.290625 13.92125 2.39375 12.625 2.5 C10.14369036 2.82383935 8.69020182 3.02745551 6.5625 4.375 C5.02653208 6.84961498 4.24270984 9.40023517 3.4375 12.1875 C4.4275 12.5175 5.4175 12.8475 6.4375 13.1875 C6.0625 15.125 6.0625 15.125 5.4375 17.1875 C4.4475 17.6825 4.4475 17.6825 3.4375 18.1875 C2.7775 17.8575 2.1175 17.5275 1.4375 17.1875 C1.9325 19.1675 1.9325 19.1675 2.4375 21.1875 C1.65375 21.435 0.87 21.6825 0.0625 21.9375 C-2.98545608 23.38890766 -3.28786664 24.18300707 -4.5625 27.1875 C-5.71557617 28.79370117 -5.71557617 28.79370117 -7.5625 30.1875 C-10.4699707 30.55981445 -10.4699707 30.55981445 -13.98828125 30.55078125 C-15.25994141 30.55013672 -16.53160156 30.54949219 -17.84179688 30.54882812 C-18.50429443 30.54052979 -19.16679199 30.53223145 -19.84936523 30.52368164 C-21.85712727 30.50020895 -23.86515363 30.50486115 -25.87304688 30.50976562 C-31.90629333 30.47623065 -36.87220456 30.35705672 -42.5625 28.1875 C-42.8925 30.8275 -43.2225 33.4675 -43.5625 36.1875 C-43.8925 36.1875 -44.2225 36.1875 -44.5625 36.1875 C-46.05723759 25.22609099 -37.55655767 15.36546907 -31.61328125 6.8046875 C-27.62914998 1.72017711 -23.63792703 1.5510831 -17.52954102 0.80737305 C-11.68664636 0.17007202 -5.87472988 0.00544814 0 0 Z " fill="#B9B89E" transform="translate(86.5625,0.8125)"/>
<path d="M0 0 C0.66 0 1.32 0 2 0 C2.99 1.485 2.99 1.485 4 3 C4.598125 2.67 5.19625 2.34 5.8125 2 C8 1 8 1 11 1 C12.78864564 4.57729129 12.86302173 8.12274796 12 12 C7.19296217 18.68638507 0.01006542 21.04832771 -7.75048828 22.52246094 C-18.50553584 24.10299234 -29.68611066 22.78933556 -40.46044922 21.828125 C-42.76073034 21.62404802 -45.06182901 21.43255152 -47.36328125 21.2421875 C-64.71589773 19.76136742 -64.71589773 19.76136742 -73 17 C-74 14 -74 14 -73.0625 11.8125 C-72.5365625 10.9153125 -72.5365625 10.9153125 -72 10 C-73.65 10 -75.3 10 -77 10 C-77.33 10.66 -77.66 11.32 -78 12 C-78.66 10.35 -79.32 8.7 -80 7 C-78.741875 6.95875 -77.48375 6.9175 -76.1875 6.875 C-75.47980469 6.85179687 -74.77210937 6.82859375 -74.04296875 6.8046875 C-72 7 -72 7 -69 9 C-64.86511787 10.1220581 -60.68588715 10.24408093 -56.42578125 10.38671875 C-55.33997017 10.42500542 -55.33997017 10.42500542 -54.23222351 10.46406555 C-52.70347732 10.51590331 -51.17464839 10.56534973 -49.64575195 10.61254883 C-47.336843 10.68671803 -45.02898195 10.77765772 -42.72070312 10.86914062 C-32.87077551 11.21000726 -24.20220476 10.77526349 -15 7 C-13.50440081 6.64744623 -12.00373525 6.31605601 -10.5 6 C-5.60094992 4.94747142 -5.60094992 4.94747142 -1 3 C-0.67 2.01 -0.34 1.02 0 0 Z M7 6 C8 8 8 8 8 8 Z " fill="#383938" transform="translate(117,136)"/>
<path d="M0 0 C0.99 0.33 1.98 0.66 3 1 C3.495 2.485 3.495 2.485 4 4 C7.00007271 5.70855022 7.00007271 5.70855022 10 7 C9.34 7.33 8.68 7.66 8 8 C8 8.66 8 9.32 8 10 C8.99 9.67 9.98 9.34 11 9 C10.70504936 13.71921016 8.3806207 16.42238046 5.56640625 19.99609375 C3.55241134 22.57260096 1.78147301 25.2592723 0 28 C1.65 28 3.3 28 5 28 C4.505 29.485 4.505 29.485 4 31 C1.03 31.33 -1.94 31.66 -5 32 C-5.495 30.02 -5.495 30.02 -6 28 C-7.65227926 26.34772074 -9.73234304 26.6803818 -12 26.5 C-16.88888889 26.11111111 -16.88888889 26.11111111 -18 25 C-20.75261259 24.58831013 -23.48465447 24.23769288 -26.25 23.9375 C-27.46333008 23.80553223 -27.46333008 23.80553223 -28.70117188 23.67089844 C-38.84208049 22.62182925 -38.84208049 22.62182925 -49 23 C-49.66 23.66 -50.32 24.32 -51 25 C-50.36843005 19.94744036 -48.86540627 15.70406799 -47 11 C-46.06576355 14.01031744 -45.95550089 14.86650268 -47 18 C-26.38439718 16.53691729 -26.38439718 16.53691729 -7 10 C-5.33829923 9.32105024 -3.67299959 8.65061095 -2 8 C-2.04125 7.236875 -2.0825 6.47375 -2.125 5.6875 C-2 3 -2 3 0 0 Z " fill="#959384" transform="translate(79,90)"/>
<path d="M0 0 C5.70331816 0.03802212 11.14460475 0.65912537 16.75 1.625 C17.87631836 1.81400879 17.87631836 1.81400879 19.02539062 2.00683594 C20.86545033 2.34749334 22.68604416 2.79018329 24.5 3.25 C24.83 3.91 25.16 4.57 25.5 5.25 C27.51669827 6.38350534 27.51669827 6.38350534 29.5 7.25 C29.5 9.23 29.5 11.21 29.5 13.25 C28.51 13.25 27.52 13.25 26.5 13.25 C26.5 13.91 26.5 14.57 26.5 15.25 C25.51 15.25 24.52 15.25 23.5 15.25 C23.231875 15.8275 22.96375 16.405 22.6875 17 C21.48280141 19.2825868 20.09201885 21.2237942 18.5 23.25 C15.03058454 22.79177532 11.82604951 22.35868317 8.5 21.25 C6.50038436 21.21079185 4.49950636 21.20556653 2.5 21.25 C1.84 19.6 1.18 17.95 0.5 16.25 C-0.49 16.25 -1.48 16.25 -2.5 16.25 C-3.17756882 14.69219668 -3.84159457 13.12849904 -4.5 11.5625 C-4.87125 10.69238281 -5.2425 9.82226562 -5.625 8.92578125 C-6.52480731 6.17413835 -6.74153265 4.12323215 -6.5 1.25 C-4.74649769 -0.50350231 -2.3861627 0.03543806 0 0 Z " fill="#33342F" transform="translate(35.5,111.75)"/>
<path d="M0 0 C2.38550623 -0.07748972 4.76980369 -0.12539619 7.15625 -0.16308594 C7.91284912 -0.1845166 8.66944824 -0.20594727 9.44897461 -0.22802734 C14.38910016 -0.25758599 17.30391367 0.7096945 21.71875 3.08691406 C25.13561873 3.86119322 25.13561873 3.86119322 28.59375 4.27441406 C29.74617188 4.43296875 30.89859375 4.59152344 32.0859375 4.75488281 C33.38917969 4.91923828 33.38917969 4.91923828 34.71875 5.08691406 C33.71875 7.08691406 33.71875 7.08691406 31.86328125 7.79785156 C31.09371094 8.01699219 30.32414062 8.23613281 29.53125 8.46191406 C25.00023169 9.87830894 21.13084113 11.67482294 17.71875 15.08691406 C13.97717603 15.11342319 10.24779079 15.05791275 6.5078125 14.95996094 C2.05027468 14.89825235 -1.18763774 15.1164813 -5.28125 17.08691406 C-8.03125 17.27441406 -8.03125 17.27441406 -10.28125 17.08691406 C-11.28125 16.08691406 -11.28125 16.08691406 -11.37890625 14.23925781 C-11.34635417 12.18847656 -11.31380208 10.13769531 -11.28125 8.08691406 C-12.60125 7.75691406 -13.92125 7.42691406 -15.28125 7.08691406 C-16.40625 3.33691406 -16.40625 3.33691406 -15.28125 1.08691406 C-10.26173334 0.1866285 -5.09039064 0.1939404 0 0 Z " fill="#292928" transform="translate(60.28125,32.9130859375)"/>
<path d="M0 0 C5.82541826 -0.15191 11.15648714 0.35900854 16.875 1.4375 C17.63296875 1.57220703 18.3909375 1.70691406 19.171875 1.84570312 C24.7124256 2.8562128 24.7124256 2.8562128 27 4 C28.5912342 4.21941219 30.18929031 4.39059852 31.7890625 4.53515625 C33.20058594 4.66567383 33.20058594 4.66567383 34.640625 4.79882812 C36.11789063 4.9293457 36.11789063 4.9293457 37.625 5.0625 C38.61757813 5.15337891 39.61015625 5.24425781 40.6328125 5.33789062 C43.08823868 5.56218436 45.54394389 5.78273107 48 6 C48 6.99 48 7.98 48 9 C46.4609375 10.53515625 46.4609375 10.53515625 44.375 12.0625 C43.36566406 12.82240234 43.36566406 12.82240234 42.3359375 13.59765625 C36.59229758 17.04576115 30.59040019 17.53637929 24.0625 18.125 C23.19431641 18.21136719 22.32613281 18.29773438 21.43164062 18.38671875 C16.59731515 18.8471307 11.85541098 19.09248402 7 19 C7.33 15.37 7.66 11.74 8 8 C6.576875 7.8453125 6.576875 7.8453125 5.125 7.6875 C2 7 2 7 0 4 C0 2.68 0 1.36 0 0 Z " fill="#2A2A25" transform="translate(25,89)"/>
<path d="M0 0 C1.32 0.33 2.64 0.66 4 1 C3.54625 1.37125 3.0925 1.7425 2.625 2.125 C0.52970606 4.54264685 -0.12013285 6.95430602 -1 10 C-0.01 10.33 0.98 10.66 2 11 C1.625 12.9375 1.625 12.9375 1 15 C0.34 15.33 -0.32 15.66 -1 16 C-1.66 15.67 -2.32 15.34 -3 15 C-2.505 16.98 -2.505 16.98 -2 19 C-2.78375 19.2475 -3.5675 19.495 -4.375 19.75 C-7.42295608 21.20140766 -7.72536664 21.99550707 -9 25 C-10.15307617 26.60620117 -10.15307617 26.60620117 -12 28 C-14.9074707 28.37231445 -14.9074707 28.37231445 -18.42578125 28.36328125 C-19.69744141 28.36263672 -20.96910156 28.36199219 -22.27929688 28.36132812 C-22.94179443 28.35302979 -23.60429199 28.34473145 -24.28686523 28.33618164 C-26.29462727 28.31270895 -28.30265363 28.31736115 -30.31054688 28.32226562 C-36.34379333 28.28873065 -41.30970456 28.16955672 -47 26 C-47.33 28.64 -47.66 31.28 -48 34 C-48.33 34 -48.66 34 -49 34 C-49.9826183 26.79413248 -46.82297825 20.99751633 -43 15 C-40.31141086 12.51620574 -39.47967729 12.02767369 -35.75 11.8125 C-34.8425 11.874375 -33.935 11.93625 -33 12 C-32.67 11.34 -32.34 10.68 -32 10 C-32.66 9.67 -33.32 9.34 -34 9 C-28 5 -28 5 -26 5 C-26.20625 5.7425 -26.4125 6.485 -26.625 7.25 C-27.04408751 10.32330841 -26.61949011 11.42786866 -25 14 C-23.68 13.34 -22.36 12.68 -21 12 C-21.33 14.31 -21.66 16.62 -22 19 C-22.33 18.34 -22.66 17.68 -23 17 C-23.99 17.33 -24.98 17.66 -26 18 C-26.99 17.67 -27.98 17.34 -29 17 C-29.33 16.34 -29.66 15.68 -30 15 C-30.33 16.32 -30.66 17.64 -31 19 C-29.35 19.33 -27.7 19.66 -26 20 C-25.67 20.99 -25.34 21.98 -25 23 C-19.06 23.99 -19.06 23.99 -13 25 C-12.67 23.35 -12.34 21.7 -12 20 C-11.01577854 17.99218823 -10.01765927 15.99107248 -9 14 C-9 13.34 -9 12.68 -9 12 C-8.34 12 -7.68 12 -7 12 C-6.67 9.36 -6.34 6.72 -6 4 C-4.35 3.67 -2.7 3.34 -1 3 C-0.67 2.01 -0.34 1.02 0 0 Z " fill="#B0B098" transform="translate(91,3)"/>
<path d="M0 0 C2.97 0 5.94 0 9 0 C9.33 0.99 9.66 1.98 10 3 C12.31 3.33 14.62 3.66 17 4 C16.34 4.99 15.68 5.98 15 7 C15.3121764 9.64632287 15.3121764 9.64632287 16 12 C15.0409375 12.6496875 15.0409375 12.6496875 14.0625 13.3125 C11.73253997 14.91239177 11.73253997 14.91239177 11 18 C10.34 18.33 9.68 18.66 9 19 C9 19.99 9 20.98 9 22 C8.01 22 7.02 22 6 22 C5.40929986 23.94603274 5.40929986 23.94603274 5 26 C5.33 26.33 5.66 26.66 6 27 C6.68268138 28.32520503 7.3507041 29.65812182 8 31 C12.0384057 31.0744389 16.07654293 31.12873729 20.11547852 31.16479492 C21.48794517 31.17983432 22.86036414 31.20027133 24.23266602 31.22631836 C26.21088656 31.26291221 28.18946514 31.27816698 30.16796875 31.29296875 C31.35672607 31.3086792 32.5454834 31.32438965 33.77026367 31.34057617 C37.31316953 30.96697623 39.06439545 29.9310106 42 28 C45.0625 27.875 45.0625 27.875 48 28 C48.70125 27.79375 49.4025 27.5875 50.125 27.375 C52.6524113 26.86951774 53.78886492 27.7980967 56 29 C55.35933594 29.12117188 54.71867187 29.24234375 54.05859375 29.3671875 C50.08676721 30.1366919 46.20309282 30.94148173 42.3125 32.0625 C34.42479072 34.29487055 26.71150348 34.03647749 18.61181641 33.75805664 C16.5057035 33.68769056 14.39957522 33.63334468 12.29296875 33.58007812 C10.93486499 33.5374296 9.57679035 33.49384108 8.21875 33.44921875 C7.00123047 33.41143311 5.78371094 33.37364746 4.52929688 33.3347168 C-4.52388231 32.47611769 -4.52388231 32.47611769 -7 30 C-9.33297433 29.95907063 -11.66705225 29.95758277 -14 30 C-13.67 30.99 -13.34 31.98 -13 33 C-12.505 32.505 -12.505 32.505 -12 32 C-10.33382885 31.95936168 -8.66611905 31.957279 -7 32 C-7.33 33.98 -7.66 35.96 -8 38 C-12.43936951 36.64352598 -14.4156882 34.83191061 -17 31 C-20.1391418 24.55649841 -20.14028047 18.01402344 -20 11 C-19.67 11.99 -19.34 12.98 -19 14 C-18.01 14 -17.02 14 -16 14 C-15.34 15.32 -14.68 16.64 -14 18 C-12.7625 17.979375 -11.525 17.95875 -10.25 17.9375 C-7.3359175 17.93233319 -4.79046673 18.06984442 -2 19 C-2 19.66 -2 20.32 -2 21 C-0.68 21 0.64 21 2 21 C2.268125 20.4225 2.53625 19.845 2.8125 19.25 C4.0388622 16.92636635 5.24843434 14.96175354 7 13 C7.99 13 8.98 13 10 13 C10 12.34 10 11.68 10 11 C10.99 11 11.98 11 13 11 C12.81584568 8.05908413 12.81584568 8.05908413 12 5 C10.04836882 3.56362302 10.04836882 3.56362302 8 3 C8 2.34 8 1.68 8 1 C5.36 1 2.72 1 0 1 C0 0.67 0 0.34 0 0 Z " fill="#4B4B44" transform="translate(52,114)"/>
<path d="M0 0 C-0.0928125 1.5159375 -0.0928125 1.5159375 -0.1875 3.0625 C-0.02439191 6.4877698 0.17886576 7.78186809 1.5625 10.6875 C3 14 3 14 3 16.0625 C2 18 2 18 -0.5 20.9375 C-2.91140408 23.89147 -3.67291091 25.29299037 -4 29 C-4.99 29.33 -5.98 29.66 -7 30 C-7.66 29.67 -8.32 29.34 -9 29 C-9 28.34 -9 27.68 -9 27 C-11.475 26.01 -11.475 26.01 -14 25 C-14 24.34 -14 23.68 -14 23 C-15.65 23.33 -17.3 23.66 -19 24 C-18.773125 23.278125 -18.54625 22.55625 -18.3125 21.8125 C-17.91395503 18.22559529 -19.02300414 16.92595387 -21 14 C-21 13.34 -21 12.68 -21 12 C-20.01 12 -19.02 12 -18 12 C-17.9071875 11.1646875 -17.9071875 11.1646875 -17.8125 10.3125 C-15.24040384 2.99191863 -7.42042117 -2.12012033 0 0 Z M-22 24 C-21.01 24.33 -20.02 24.66 -19 25 C-19.99 25.33 -20.98 25.66 -22 26 C-22 25.34 -22 24.68 -22 24 Z " fill="#8F8F84" transform="translate(95,43)"/>
<path d="M0 0 C2.62249774 2.2425211 3.40473773 3.62795282 3.6796875 7.05859375 C3.74381836 7.8563623 3.80794922 8.65413086 3.87402344 9.47607422 C4.08358841 13.67468401 4.14775758 17.85901836 4.125 22.0625 C4.11992432 23.42580444 4.11992432 23.42580444 4.11474609 24.81665039 C3.94633143 47.15509315 3.94633143 47.15509315 1 55 C0.67 55 0.34 55 0 55 C-1.68167004 48.57084607 -2.18238218 44.42590309 0 38 C0.34372913 33.33468885 0.34372913 33.33468885 -1 29 C-2.32 29 -3.64 29 -5 29 C-6.125 22.375 -6.125 22.375 -5 19 C-4.01 19 -3.02 19 -2 19 C-2 17.35 -2 15.7 -2 14 C-2.99 14.495 -2.99 14.495 -4 15 C-3.67 12.69 -3.34 10.38 -3 8 C-4.65 8 -6.3 8 -8 8 C-8.33 8.66 -8.66 9.32 -9 10 C-12.63 9.67 -16.26 9.34 -20 9 C-20 9.99 -20 10.98 -20 12 C-18.34997172 13.35386936 -16.6825613 14.68678142 -15 16 C-14.67 16.99 -14.34 17.98 -14 19 C-17.9492568 18.44894091 -21.34920174 17.61064629 -25 16 C-24.01 13.03 -23.02 10.06 -22 7 C-21.21753906 6.95101562 -20.43507813 6.90203125 -19.62890625 6.8515625 C-18.61699219 6.77679688 -17.60507813 6.70203125 -16.5625 6.625 C-15.55316406 6.55539063 -14.54382813 6.48578125 -13.50390625 6.4140625 C-12.26447266 6.20910156 -12.26447266 6.20910156 -11 6 C-10.67 5.34 -10.34 4.68 -10 4 C-7.36 4.33 -4.72 4.66 -2 5 C-1.34 3.35 -0.68 1.7 0 0 Z " fill="#474745" transform="translate(129,91)"/>
<path d="M0 0 C0.99 0.33 1.98 0.66 3 1 C1.68139111 5.61513112 -0.21355437 9.09897612 -3 13 C-3.66 12.67 -4.32 12.34 -5 12 C-7.03362291 11.85741856 -9.07149935 11.77365407 -11.109375 11.71875 C-12.33914062 11.68136719 -13.56890625 11.64398438 -14.8359375 11.60546875 C-16.12757812 11.57066406 -17.41921875 11.53585938 -18.75 11.5 C-21.28656303 11.43082101 -23.82303063 11.35802869 -26.359375 11.28125 C-27.48827148 11.25095703 -28.61716797 11.22066406 -29.78027344 11.18945312 C-32.91750693 11.00485401 -35.91289035 10.57613607 -39 10 C-38.67 9.01 -38.34 8.02 -38 7 C-31.84797767 5.57913981 -25.70559784 4.68891495 -19.4375 4 C-9.43016159 3.11449055 -9.43016159 3.11449055 0 0 Z " fill="#ACAB9A" transform="translate(76,102)"/>
<path d="M0 0 C3.18748029 -0.02932572 6.37492528 -0.04690739 9.5625 -0.0625 C10.45775391 -0.07087891 11.35300781 -0.07925781 12.27539062 -0.08789062 C17.29997943 -0.10629571 22.04817291 0.13733602 27 1 C27 1.33 27 1.66 27 2 C25.71802734 2.07347656 25.71802734 2.07347656 24.41015625 2.1484375 C23.30542969 2.22320312 22.20070313 2.29796875 21.0625 2.375 C19.96035156 2.44460938 18.85820313 2.51421875 17.72265625 2.5859375 C16.37494141 2.79089844 16.37494141 2.79089844 15 3 C14.67 3.66 14.34 4.32 14 5 C12.68 5.33 11.36 5.66 10 6 C9.34 8.64 8.68 11.28 8 14 C7.34 14 6.68 14 6 14 C6.33 14.99 6.66 15.98 7 17 C5.70672372 19.02613283 4.3703055 21.02514795 3 23 C2.23060319 25.22602615 2.23060319 25.22602615 2 27 C-0.64 27 -3.28 27 -6 27 C-5.67 25.02 -5.34 23.04 -5 21 C-4.34 21 -3.68 21 -3 21 C-3 19.68 -3 18.36 -3 17 C-3.66 16.67 -4.32 16.34 -5 16 C-5 15.34 -5 14.68 -5 14 C-3.68 13.67 -2.36 13.34 -1 13 C-1 12.34 -1 11.68 -1 11 C-0.34 11 0.32 11 1 11 C1.33 7.7 1.66 4.4 2 1 C1.34 0.67 0.68 0.34 0 0 Z " fill="#C7C5AF" transform="translate(76,1)"/>
<path d="M0 0 C1.32 0.33 2.64 0.66 4 1 C3.54625 1.37125 3.0925 1.7425 2.625 2.125 C0.52970606 4.54264685 -0.12013285 6.95430602 -1 10 C-0.01 10.33 0.98 10.66 2 11 C1.625 12.9375 1.625 12.9375 1 15 C0.34 15.33 -0.32 15.66 -1 16 C-1.66 15.67 -2.32 15.34 -3 15 C-2.505 16.98 -2.505 16.98 -2 19 C-2.78375 19.2475 -3.5675 19.495 -4.375 19.75 C-7.42295608 21.20140766 -7.72536664 21.99550707 -9 25 C-10.73660055 27.28898179 -11.56508283 27.93958882 -14.4519043 28.34057617 C-15.39976807 28.32486572 -16.34763184 28.30915527 -17.32421875 28.29296875 C-18.35224609 28.28330078 -19.38027344 28.27363281 -20.43945312 28.26367188 C-22.04723633 28.2259668 -22.04723633 28.2259668 -23.6875 28.1875 C-24.77095703 28.17396484 -25.85441406 28.16042969 -26.97070312 28.14648438 C-29.64763405 28.11110643 -32.32356838 28.06174189 -35 28 C-36 26 -36 26 -35.4375 24 C-33.38831052 21.14895376 -31.36166382 20.75465923 -28 20 C-27.01 20.33 -26.02 20.66 -25 21 C-25 21.66 -25 22.32 -25 23 C-19.06 23.99 -19.06 23.99 -13 25 C-12.67 23.35 -12.34 21.7 -12 20 C-11.01577854 17.99218823 -10.01765927 15.99107248 -9 14 C-9 13.34 -9 12.68 -9 12 C-8.34 12 -7.68 12 -7 12 C-6.67 9.36 -6.34 6.72 -6 4 C-4.35 3.67 -2.7 3.34 -1 3 C-0.67 2.01 -0.34 1.02 0 0 Z " fill="#A7A590" transform="translate(91,3)"/>
<path d="M0 0 C0.433125 0.598125 0.86625 1.19625 1.3125 1.8125 C2.77461239 3.70783087 4.27050227 5.3528593 6 7 C5 10 5 10 2 12 C1.01 12 0.02 12 -1 12 C-1.33 12.99 -1.66 13.98 -2 15 C-4.5625 17.3125 -4.5625 17.3125 -8 19 C-9.95051524 18.53501569 -11.9000415 18.06164677 -13.83007812 17.5178833 C-17.29552891 16.69080325 -20.67319375 16.75258285 -24.21875 16.8046875 C-25.33376892 16.80893234 -25.33376892 16.80893234 -26.47131348 16.81326294 C-28.81438217 16.82433843 -31.15704947 16.84941772 -33.5 16.875 C-35.10155693 16.88504619 -36.70311993 16.89416915 -38.3046875 16.90234375 C-42.2032765 16.9242361 -46.10157052 16.95867614 -50 17 C-49.67 15.68 -49.34 14.36 -49 13 C-47.97519531 13.10828125 -47.97519531 13.10828125 -46.9296875 13.21875 C-39.41829531 13.91033598 -31.9154518 14.19423773 -24.375 14.3125 C-22.91682861 14.35697266 -22.91682861 14.35697266 -21.42919922 14.40234375 C-20.05272217 14.41394531 -20.05272217 14.41394531 -18.6484375 14.42578125 C-17.41359619 14.44765503 -17.41359619 14.44765503 -16.15380859 14.4699707 C-13.83834001 14.17205433 -13.83834001 14.17205433 -12.20947266 12.16088867 C-10.75579439 9.97641668 -10.75579439 9.97641668 -11 7 C-9.35 6.67 -7.7 6.34 -6 6 C-5.67 4.68 -5.34 3.36 -5 2 C-4.360625 1.855625 -3.72125 1.71125 -3.0625 1.5625 C-1.02454854 1.18992819 -1.02454854 1.18992819 0 0 Z " fill="#7E7E73" transform="translate(93,16)"/>
<path d="M0 0 C0.8971875 0.309375 0.8971875 0.309375 1.8125 0.625 C1.8125 1.615 1.8125 2.605 1.8125 3.625 C-0.1675 4.285 -2.1475 4.945 -4.1875 5.625 C-4.26832094 7.58266281 -4.32660778 9.54126728 -4.375 11.5 C-4.40980469 12.59054688 -4.44460937 13.68109375 -4.48046875 14.8046875 C-4.38378906 15.73539063 -4.28710938 16.66609375 -4.1875 17.625 C-3.1975 18.285 -2.2075 18.945 -1.1875 19.625 C-3.24918985 19.82120767 -5.31190998 20.00660753 -7.375 20.1875 C-8.52355469 20.29191406 -9.67210938 20.39632812 -10.85546875 20.50390625 C-13.90750245 20.61482424 -16.27085761 20.4901497 -19.1875 19.625 C-19.8475 18.965 -20.5075 18.305 -21.1875 17.625 C-21.8475 17.295 -22.5075 16.965 -23.1875 16.625 C-21.66543991 13.99598712 -20.34384036 11.78134036 -18.1875 9.625 C-16.8675 9.625 -15.5475 9.625 -14.1875 9.625 C-14.1875 8.305 -14.1875 6.985 -14.1875 5.625 C-12.8675 5.625 -11.5475 5.625 -10.1875 5.625 C-9.8575 4.635 -9.5275 3.645 -9.1875 2.625 C-7.3125 2.0625 -7.3125 2.0625 -5.1875 1.625 C-2.1875 -0.375 -2.1875 -0.375 0 0 Z " fill="#717063" transform="translate(78.1875,124.375)"/>
<path d="M0 0 C-1.24354886 1.29787866 -2.4951264 2.58806759 -3.75 3.875 C-4.44609375 4.59429687 -5.1421875 5.31359375 -5.859375 6.0546875 C-8 8 -8 8 -10.203125 9.0703125 C-12.36147454 9.92230664 -12.36147454 9.92230664 -13 13 C-13.66 13 -14.32 13 -15 13 C-15 13.99 -15 14.98 -15 16 C-9.39 16 -3.78 16 2 16 C1.34 16.66 0.68 17.32 0 18 C1.134375 18.28875 2.26875 18.5775 3.4375 18.875 C4.613125 19.24625 5.78875 19.6175 7 20 C7.495 20.99 7.495 20.99 8 22 C7.37351563 21.97679688 6.74703125 21.95359375 6.1015625 21.9296875 C5.28429687 21.91164063 4.46703125 21.89359375 3.625 21.875 C2.81289063 21.85179688 2.00078125 21.82859375 1.1640625 21.8046875 C-1.21342243 21.78629949 -1.21342243 21.78629949 -3 24 C-3.99 24 -4.98 24 -6 24 C-6 23.34 -6 22.68 -6 22 C-6.66 21.87625 -7.32 21.7525 -8 21.625 C-9.485 21.315625 -9.485 21.315625 -11 21 C-11.68578125 20.8659375 -12.3715625 20.731875 -13.078125 20.59375 C-15.07631168 20.16248669 -17.04201516 19.58739545 -19 19 C-19.33 18.01 -19.66 17.02 -20 16 C-21.98 16.66 -23.96 17.32 -26 18 C-25.29875 17.29875 -24.5975 16.5975 -23.875 15.875 C-23.42253906 15.41996094 -22.97007813 14.96492188 -22.50390625 14.49609375 C-21.48033471 13.47783947 -20.44596661 12.47034949 -19.40234375 11.47265625 C-16.67323181 8.83742039 -14.39057788 6.61550249 -13 3 C-12.67 3.66 -12.34 4.32 -12 5 C-10.35 4.34 -8.7 3.68 -7 3 C-7 2.34 -7 1.68 -7 1 C-3.375 -1.125 -3.375 -1.125 0 0 Z " fill="#ABAB9D" transform="translate(53,66)"/>
<path d="M0 0 C1 2 1 2 0.125 4.6875 C-0.24625 5.780625 -0.6175 6.87375 -1 8 C-1.37531446 10.32694964 -1.71917202 12.65976685 -2 15 C-2.66 15 -3.32 15 -4 15 C-4 16.98 -4 18.96 -4 21 C-7.41205596 23.09972674 -10.0300247 23.33083127 -14 23 C-16.375 22 -16.375 22 -18 21 C-16.26994244 14.55160363 -12.91113288 8.46514686 -7 5 C-6.34 5 -5.68 5 -5 5 C-5 4.34 -5 3.68 -5 3 C-2.5 1.375 -2.5 1.375 0 0 Z " fill="#86867B" transform="translate(63,58)"/>
<path d="M0 0 C2.375 0.375 2.375 0.375 4.375 2.375 C5.38974377 7.85461635 6.2141713 12.40645022 3.375 17.375 C2.055 17.375 0.735 17.375 -0.625 17.375 C-0.955 18.035 -1.285 18.695 -1.625 19.375 C-2.945 19.375 -4.265 19.375 -5.625 19.375 C-5.625 18.385 -5.625 17.395 -5.625 16.375 C-6.285 16.375 -6.945 16.375 -7.625 16.375 C-7.955 15.385 -8.285 14.395 -8.625 13.375 C-7.965 12.385 -7.305 11.395 -6.625 10.375 C-6.625 9.385 -6.625 8.395 -6.625 7.375 C-6.625 4.375 -6.625 4.375 -4.9375 2.1875 C-2.625 0.375 -2.625 0.375 0 0 Z " fill="#A5A396" transform="translate(88.625,44.625)"/>
<path d="M0 0 C1.125 3.75 1.125 3.75 0 6 C1.65 6.33 3.3 6.66 5 7 C4.34 8.32 3.68 9.64 3 11 C3.391875 10.505 3.78375 10.01 4.1875 9.5 C4.785625 9.005 5.38375 8.51 6 8 C6.7425 8.0825 7.485 8.165 8.25 8.25 C12.29155125 7.88258625 13.82473228 5.46415727 16.44921875 2.53125 C18 1 18 1 20 1 C17.27112037 6.88455086 13.04242303 12.34722891 7 15 C3.1875 15.6875 3.1875 15.6875 0 16 C0 16.66 0 17.32 0 18 C-1.98 18.99 -3.96 19.98 -6 21 C-5.60983685 13.19673706 -3.24226342 7.07076635 0 0 Z " fill="#9E9E93" transform="translate(46,51)"/>
<path d="M0 0 C3.17830671 0.73345539 4.43151551 2.03644546 6.4375 4.5625 C6.4375 5.2225 6.4375 5.8825 6.4375 6.5625 C4.7875 6.8925 3.1375 7.2225 1.4375 7.5625 C1.33953125 8.24957031 1.2415625 8.93664062 1.140625 9.64453125 C0.99109375 10.54558594 0.8415625 11.44664063 0.6875 12.375 C0.54828125 13.26832031 0.4090625 14.16164063 0.265625 15.08203125 C-0.74596725 18.11203634 -1.75781209 19.08224805 -4.5625 20.5625 C-5.5525 20.2325 -6.5425 19.9025 -7.5625 19.5625 C-7.95430108 17.98324025 -8.32530736 16.39881206 -8.6875 14.8125 C-8.89632812 13.93078125 -9.10515625 13.0490625 -9.3203125 12.140625 C-9.59977091 9.16574519 -9.17125075 8.03588877 -7.5625 5.5625 C-3.53802685 0.77664004 -3.53802685 0.77664004 0 0 Z " fill="#84847B" transform="translate(109.5625,59.4375)"/>
<path d="M0 0 C5.82541826 -0.15191 11.15648714 0.35900854 16.875 1.4375 C17.63296875 1.57220703 18.3909375 1.70691406 19.171875 1.84570312 C24.7124256 2.8562128 24.7124256 2.8562128 27 4 C28.70363822 4.22622081 30.41328701 4.40888473 32.125 4.5625 C33.03507812 4.64628906 33.94515625 4.73007813 34.8828125 4.81640625 C35.58148438 4.87699219 36.28015625 4.93757813 37 5 C37 5.33 37 5.66 37 6 C34.02149379 6.36076001 31.04243216 6.71390416 28.0625 7.0625 C26.78729492 7.2181543 26.78729492 7.2181543 25.48632812 7.37695312 C24.67744141 7.47041016 23.86855469 7.56386719 23.03515625 7.66015625 C22.2862915 7.74918213 21.53742676 7.83820801 20.76586914 7.92993164 C20.18313232 7.9530542 19.60039551 7.97617676 19 8 C18.67 7.67 18.34 7.34 18 7 C15.32941149 6.85884839 12.67567762 6.95752893 10 7 C9.67 8.65 9.34 10.3 9 12 C8.67 10.68 8.34 9.36 8 8 C6.576875 7.8453125 6.576875 7.8453125 5.125 7.6875 C2 7 2 7 0 4 C0 2.68 0 1.36 0 0 Z " fill="#3D3D38" transform="translate(25,89)"/>
<path d="M0 0 C2.05078125 0.03255208 4.1015625 0.06510417 6.15234375 0.09765625 C6.48234375 1.08765625 6.81234375 2.07765625 7.15234375 3.09765625 C8.47234375 3.09765625 9.79234375 3.09765625 11.15234375 3.09765625 C10.82234375 4.74765625 10.49234375 6.39765625 10.15234375 8.09765625 C9.16234375 8.42765625 8.17234375 8.75765625 7.15234375 9.09765625 C6.82234375 10.08765625 6.49234375 11.07765625 6.15234375 12.09765625 C2.66204957 13.57431917 -1.12202011 13.1693031 -4.84765625 13.09765625 C-4.54006447 11.11772084 -4.22644945 9.13872026 -3.91015625 7.16015625 C-3.73613281 6.05800781 -3.56210937 4.95585938 -3.3828125 3.8203125 C-2.65953404 0.14056734 -2.65953404 0.14056734 0 0 Z " fill="#1C1C1A" transform="translate(36.84765625,94.90234375)"/>
<path d="M0 0 C0.2475 0.61875 0.495 1.2375 0.75 1.875 C2.20628639 4.35068687 3.37812506 4.95125002 6 6 C6 7.32 6 8.64 6 10 C5.34 10 4.68 10 4 10 C3.67 11.32 3.34 12.64 3 14 C-2.94 14.495 -2.94 14.495 -9 15 C-9.66 13.02 -10.32 11.04 -11 9 C-8.36 9.33 -5.72 9.66 -3 10 C-3.33 8.68 -3.66 7.36 -4 6 C-5.65 6 -7.3 6 -9 6 C-3.85714286 0.42857143 -3.85714286 0.42857143 0 0 Z " fill="#7E7E6E" transform="translate(87,128)"/>
<path d="M0 0 C0.33 0 0.66 0 1 0 C1.38063221 2.3260857 1.71269945 4.66055264 2 7 C1.67 7.33 1.34 7.66 1 8 C10.405 7.505 10.405 7.505 20 7 C20.33 9.31 20.66 11.62 21 14 C19 10.25 19 10.25 19 8 C18.01 8 17.02 8 16 8 C15.773125 8.556875 15.54625 9.11375 15.3125 9.6875 C13.57911553 12.74155835 11.72430394 14.7825433 9 17 C6.1875 16.8125 6.1875 16.8125 4 16 C3.67 16.99 3.34 17.98 3 19 C2.34 19 1.68 19 1 19 C1.33 17.68 1.66 16.36 2 15 C0.68 14.67 -0.64 14.34 -2 14 C-1.34 9.38 -0.68 4.76 0 0 Z " fill="#8E8E84" transform="translate(48,43)"/>
<path d="M0 0 C0 0.99 0 1.98 0 3 C1.2684375 2.9071875 1.2684375 2.9071875 2.5625 2.8125 C6.73619843 3.04015628 9.25432947 4.20207814 13 6 C13 6.66 13 7.32 13 8 C13.99 8 14.98 8 16 8 C16 8.66 16 9.32 16 10 C7.55569721 9.48244596 -0.68086307 8.5439119 -9 7 C-8.34 8.98 -7.68 10.96 -7 13 C-7.99 12.67 -8.98 12.34 -10 12 C-9.98674715 8.89883383 -9.80495747 6.00311055 -9 3 C-4.18604651 -1.39534884 -4.18604651 -1.39534884 0 0 Z " fill="#A9A894" transform="translate(34,82)"/>
<path d="M0 0 C0 3.60352128 -1.08590249 5.01400788 -3 8 C-3.33 8.66 -3.66 9.32 -4 10 C-3.28714844 10.10957031 -2.57429688 10.21914062 -1.83984375 10.33203125 C3.87594422 11.27825187 8.79195618 12.45384524 14 15 C14 16.65 14 18.3 14 20 C12.02 20.33 10.04 20.66 8 21 C8 21.66 8 22.32 8 23 C7.34 22.67 6.68 22.34 6 22 C6.33 21.34 6.66 20.68 7 20 C6.01 20 5.02 20 4 20 C3.67 20.99 3.34 21.98 3 23 C2.34 23 1.68 23 1 23 C1.33 21.35 1.66 19.7 2 18 C4.97 18 7.94 18 11 18 C9.03177114 16.03177114 5.65191291 16.33751619 3 16 C3.33 15.34 3.66 14.68 4 14 C-0.95 13.67 -5.9 13.34 -11 13 C-11 12.01 -11 11.02 -11 10 C-10.34 10 -9.68 10 -9 10 C-8.95875 9.4225 -8.9175 8.845 -8.875 8.25 C-7.55970884 4.86782273 -5.02383152 3.85132542 -2 2 C-1.34 1.34 -0.68 0.68 0 0 Z " fill="#A09F90" transform="translate(49,69)"/>
<path d="M0 0 C0.5775 0.20625 1.155 0.4125 1.75 0.625 C1.42 1.945 1.09 3.265 0.75 4.625 C-5.16501356 6.32370527 -10.4828693 6.96279708 -16.625 6.9375 C-17.83349609 6.96166992 -17.83349609 6.96166992 -19.06640625 6.98632812 C-21.3984375 6.98828125 -21.3984375 6.98828125 -25.25 6.625 C-25.91 5.635 -26.57 4.645 -27.25 3.625 C-24.59733915 2.74077972 -22.89311783 2.47063295 -20.16015625 2.37890625 C-18.98356445 2.32959961 -18.98356445 2.32959961 -17.78320312 2.27929688 C-16.14010921 2.21824912 -14.49687206 2.16093865 -12.85351562 2.10742188 C-12.06783203 2.07326172 -11.28214844 2.03910156 -10.47265625 2.00390625 C-9.75859619 1.9788501 -9.04453613 1.95379395 -8.30883789 1.92797852 C-5.09557545 1.45511492 -3.26495777 -0.54415963 0 0 Z " fill="#BCBB9F" transform="translate(68.25,106.375)"/>
<path d="M0 0 C0.66 0.99 1.32 1.98 2 3 C2 2.34 2 1.68 2 1 C5.14624993 0.73781251 6.61837017 0.75245633 9.3125 2.5 C10.1478125 3.2425 10.1478125 3.2425 11 4 C10.375 6.375 10.375 6.375 9 9 C5.34553071 10.91029076 3.63980244 11.16587471 -0.375 10.125 C-1.24125 9.75375 -2.1075 9.3825 -3 9 C-3.33 11.64 -3.66 14.28 -4 17 C-4.33 17 -4.66 17 -5 17 C-5.7342166 10.24520726 -3.27591952 5.81475715 0 0 Z " fill="#BCBAA0" transform="translate(47,20)"/>
<path d="M0 0 C0.99 0.33 1.98 0.66 3 1 C2.67 3.64 2.34 6.28 2 9 C-1.88461047 10.29487016 -5.55883956 10.1232604 -9.60546875 10.09765625 C-10.44467361 10.0962413 -11.28387848 10.09482635 -12.14851379 10.09336853 C-14.82821216 10.08777215 -17.5078269 10.07522035 -20.1875 10.0625 C-22.00455608 10.05748453 -23.82161348 10.05292171 -25.63867188 10.04882812 C-30.09248013 10.03780391 -34.54622589 10.02054178 -39 10 C-38.67 8.68 -38.34 7.36 -38 6 C-36.97519531 6.10828125 -36.97519531 6.10828125 -35.9296875 6.21875 C-28.41829531 6.91033598 -20.9154518 7.19423773 -13.375 7.3125 C-12.40288574 7.34214844 -11.43077148 7.37179688 -10.42919922 7.40234375 C-9.05272217 7.41394531 -9.05272217 7.41394531 -7.6484375 7.42578125 C-6.82520996 7.44036377 -6.00198242 7.45494629 -5.15380859 7.4699707 C-2.83834001 7.17205433 -2.83834001 7.17205433 -1.20947266 5.16088867 C0.24420561 2.97641668 0.24420561 2.97641668 0 0 Z " fill="#84836E" transform="translate(82,23)"/>
<path d="M0 0 C0.69738281 0.00902344 1.39476563 0.01804688 2.11328125 0.02734375 C3.82566958 0.05080112 5.53788004 0.08666896 7.25 0.125 C7.25 0.455 7.25 0.785 7.25 1.125 C6.39535156 1.17398437 5.54070312 1.22296875 4.66015625 1.2734375 C3.55542969 1.34820312 2.45070313 1.42296875 1.3125 1.5 C0.21035156 1.56960937 -0.89179687 1.63921875 -2.02734375 1.7109375 C-3.37505859 1.91589844 -3.37505859 1.91589844 -4.75 2.125 C-5.08 2.785 -5.41 3.445 -5.75 4.125 C-7.07 4.455 -8.39 4.785 -9.75 5.125 C-10.41 7.765 -11.07 10.405 -11.75 13.125 C-12.41 13.125 -13.07 13.125 -13.75 13.125 C-13.42 14.115 -13.09 15.105 -12.75 16.125 C-14.04327628 18.15113283 -15.3796945 20.15014795 -16.75 22.125 C-17.51939681 24.35102615 -17.51939681 24.35102615 -17.75 26.125 C-20.39 26.125 -23.03 26.125 -25.75 26.125 C-25.75 25.795 -25.75 25.465 -25.75 25.125 C-24.1 24.795 -22.45 24.465 -20.75 24.125 C-20.42 23.135 -20.09 22.145 -19.75 21.125 C-19.09 20.795 -18.43 20.465 -17.75 20.125 C-17.42 19.135 -17.09 18.145 -16.75 17.125 C-17.41 16.795 -18.07 16.465 -18.75 16.125 C-18.42 15.465 -18.09 14.805 -17.75 14.125 C-17.09 14.125 -16.43 14.125 -15.75 14.125 C-15.5953125 13.1040625 -15.5953125 13.1040625 -15.4375 12.0625 C-13.3968254 3.34325397 -13.3968254 3.34325397 -10.12890625 0.92578125 C-6.76325904 -0.20715418 -3.50486987 -0.08613102 0 0 Z " fill="#B6B4A3" transform="translate(95.75,1.875)"/>
<path d="M0 0 C0 0.33 0 0.66 0 1 C-4.455 1.495 -4.455 1.495 -9 2 C-9 3.32 -9 4.64 -9 6 C-9.763125 6.20625 -10.52625 6.4125 -11.3125 6.625 C-14.82229103 8.42070704 -15.52599781 10.43136312 -17 14 C-18.423125 13.9690625 -18.423125 13.9690625 -19.875 13.9375 C-22.90666283 13.77448174 -22.90666283 13.77448174 -25 15 C-23.09041888 9.27125665 -20.03687382 4.35791588 -15 1 C-10.13605528 -0.47392264 -5.03008423 -0.08790438 0 0 Z " fill="#BBB9A3" transform="translate(75,2)"/>
<path d="M0 0 C1.60332791 -0.08121924 3.20784026 -0.13929134 4.8125 -0.1875 C6.15248047 -0.23970703 6.15248047 -0.23970703 7.51953125 -0.29296875 C10 0 10 0 11.82421875 1.26171875 C13 3 13 3 13 7 C12.34 7.66 11.68 8.32 11 9 C10.67 9.66 10.34 10.32 10 11 C9.01 11.33 8.02 11.66 7 12 C6.67 12.66 6.34 13.32 6 14 C4.68 14 3.36 14 2 14 C2 15.32 2 16.64 2 18 C0.68 17.67 -0.64 17.34 -2 17 C-1.01 16.67 -0.02 16.34 1 16 C1.35412344 14.67203709 1.68521554 13.33783393 2 12 C2.804375 11.2575 2.804375 11.2575 3.625 10.5 C4.07875 10.005 4.5325 9.51 5 9 C4.59070014 6.94603274 4.59070014 6.94603274 4 5 C4.66 4.34 5.32 3.68 6 3 C4.02 2.34 2.04 1.68 0 1 C0 0.67 0 0.34 0 0 Z " fill="#5E5D52" transform="translate(62,116)"/>
<path d="M0 0 C-0.33 0.99 -0.66 1.98 -1 3 C-1.55945313 2.67902344 -2.11890625 2.35804687 -2.6953125 2.02734375 C-5.90424336 0.59692203 -8.89310722 0.61020952 -12.3671875 0.44140625 C-15 0 -15 0 -17.70410156 -1.50927734 C-21.54083132 -3.244616 -24.17228725 -3.34497165 -28.3671875 -3.29296875 C-29.04677521 -3.28872391 -29.72636292 -3.28447906 -30.42654419 -3.28010559 C-32.57644924 -3.26344266 -34.72538299 -3.22581716 -36.875 -3.1875 C-38.3411322 -3.172437 -39.80727924 -3.15875143 -41.2734375 -3.14648438 C-44.84926875 -3.1135808 -48.42453941 -3.06188663 -52 -3 C-52 -1.35 -52 0.3 -52 2 C-52.66 1.67 -53.32 1.34 -54 1 C-54 -0.65 -54 -2.3 -54 -4 C-36.53313431 -6.63170273 -16.50446395 -7.01668523 0 0 Z " fill="#53524A" transform="translate(97,37)"/>
<path d="M0 0 C1.65 0 3.3 0 5 0 C2.78071806 2.90802461 1.07030857 4.95312762 -2 7 C-5.00268555 7.22705078 -5.00268555 7.22705078 -8.63671875 7.1953125 C-10.58481445 7.18564453 -10.58481445 7.18564453 -12.57226562 7.17578125 C-13.94401307 7.1590706 -15.31575786 7.14214071 -16.6875 7.125 C-18.07095718 7.11496674 -19.45442127 7.10584149 -20.83789062 7.09765625 C-24.22543452 7.07404967 -27.61263072 7.04112037 -31 7 C-31 6.01 -31 5.02 -31 4 C-30.46246094 4.17144531 -29.92492188 4.34289062 -29.37109375 4.51953125 C-20.77521472 6.26136506 -9.44483043 4.0315394 -1 2 C-0.67 1.34 -0.34 0.68 0 0 Z " fill="#5F6059" transform="translate(91,139)"/>
<path d="M0 0 C0.99 0.99 1.98 1.98 3 3 C2.01 4.485 2.01 4.485 1 6 C1 6.66 1 7.32 1 8 C1.66 8 2.32 8 3 8 C3 8.99 3 9.98 3 11 C3.99 11 4.98 11 6 11 C6.66 12.32 7.32 13.64 8 15 C7 16 7 16 4.4375 16.0625 C3.633125 16.041875 2.82875 16.02125 2 16 C1.67 15.01 1.34 14.02 1 13 C-0.65 13.33 -2.3 13.66 -4 14 C-3.814375 13.278125 -3.62875 12.55625 -3.4375 11.8125 C-2.98004693 8.87173027 -3.26483643 6.85896942 -4 4 C-3.01 4 -2.02 4 -1 4 C-0.67 2.68 -0.34 1.36 0 0 Z M-7 14 C-6.01 14.33 -5.02 14.66 -4 15 C-4.99 15.33 -5.98 15.66 -7 16 C-7 15.34 -7 14.68 -7 14 Z " fill="#95958E" transform="translate(80,53)"/>
<path d="M0 0 C3.63 0.66 7.26 1.32 11 2 C10.67 2.66 10.34 3.32 10 4 C8.88625 4.12375 7.7725 4.2475 6.625 4.375 C3.01251483 4.63907241 3.01251483 4.63907241 1.1875 6.8125 C0.795625 7.534375 0.40375 8.25625 0 9 C-0.391875 9.680625 -0.78375 10.36125 -1.1875 11.0625 C-2.19336334 13.11093602 -2.19336334 13.11093602 -2 16 C-4 17.6875 -4 17.6875 -6 19 C-6 18.01 -6 17.02 -6 16 C-6.66 15.67 -7.32 15.34 -8 15 C-7.34 15 -6.68 15 -6 15 C-5.34 11.04 -4.68 7.08 -4 3 C-2.68 2.67 -1.36 2.34 0 2 C0 1.34 0 0.68 0 0 Z " fill="#67665F" transform="translate(100,92)"/>
<path d="M0 0 C2.29160319 -0.02692484 4.58329546 -0.04636124 6.875 -0.0625 C8.15117188 -0.07410156 9.42734375 -0.08570312 10.7421875 -0.09765625 C14 0 14 0 16 1 C18.30028162 1.23174479 20.59880047 1.38109483 22.90625 1.5234375 C25 2 25 2 27 5 C26.37351562 4.97679688 25.74703125 4.95359375 25.1015625 4.9296875 C24.28429687 4.91164063 23.46703125 4.89359375 22.625 4.875 C21.40683594 4.84019531 21.40683594 4.84019531 20.1640625 4.8046875 C17.78657757 4.78629949 17.78657757 4.78629949 16 7 C15.01 7 14.02 7 13 7 C13 6.34 13 5.68 13 5 C12.34 4.87625 11.68 4.7525 11 4.625 C7.30301417 3.85479462 3.65994058 2.93049337 0 2 C0 1.34 0 0.68 0 0 Z " fill="#BCBAA7" transform="translate(34,83)"/>
<path d="M0 0 C0 0.66 0 1.32 0 2 C5.94 2.99 5.94 2.99 12 4 C11.67 4.66 11.34 5.32 11 6 C0.605 6.495 0.605 6.495 -10 7 C-10.33 6.34 -10.66 5.68 -11 5 C-10.13669998 2.48858176 -9.34790785 1.25193327 -7.1875 -0.3125 C-4.45808824 -1.17031512 -2.72321308 -0.75644808 0 0 Z " fill="#A5A490" transform="translate(66,24)"/>
<path d="M0 0 C0.33 0 0.66 0 1 0 C1.81295369 6.39394526 2.15987858 12.62018494 2.125 19.0625 C2.11992432 20.42580444 2.11992432 20.42580444 2.11474609 21.81665039 C1.94633143 44.15509315 1.94633143 44.15509315 -1 52 C-1.33 52 -1.66 52 -2 52 C-2.125 44.375 -2.125 44.375 -1 41 C-0.88734453 39.63484686 -0.82417414 38.26522788 -0.79467773 36.89575195 C-0.77473251 36.07512772 -0.75478729 35.25450348 -0.73423767 34.40901184 C-0.71752518 33.52767075 -0.70081268 32.64632965 -0.68359375 31.73828125 C-0.6524221 30.37959175 -0.6524221 30.37959175 -0.62062073 28.99345398 C-0.55523442 26.09987984 -0.49629096 23.20621493 -0.4375 20.3125 C-0.3943044 18.35090207 -0.35068977 16.38931332 -0.30664062 14.42773438 C-0.19956418 9.61858261 -0.09826586 4.80933954 0 0 Z " fill="#898987" transform="translate(131,94)"/>
<path d="M0 0 C0.93423645 3.01031744 1.04449911 3.86650268 0 7 C4.31430437 6.57925724 8.6259339 6.13536811 12.9375 5.6875 C14.14986328 5.56955078 15.36222656 5.45160156 16.61132812 5.33007812 C23.48702866 4.60337807 29.54214902 3.4870041 36 1 C34.37248847 3.75560991 33.56489268 4.85115611 30.41210938 5.68188477 C29.39955078 5.76752686 28.38699219 5.85316895 27.34375 5.94140625 C26.23902344 6.05033203 25.13429688 6.15925781 23.99609375 6.27148438 C22.84238281 6.36751953 21.68867187 6.46355469 20.5 6.5625 C18.21767871 6.76013117 15.93631501 6.96925289 13.65625 7.19140625 C12.64369141 7.27592041 11.63113281 7.36043457 10.58789062 7.44750977 C7.66938454 8.07058328 6.96516072 8.86909016 5 11 C2.67182036 11.36760731 0.3381615 11.70241581 -2 12 C-2.66 12.66 -3.32 13.32 -4 14 C-3.36843005 8.94744036 -1.86540627 4.70406799 0 0 Z " fill="#747369" transform="translate(32,101)"/>
<path d="M0 0 C5.49004545 0.01906266 10.80287858 0.44111454 16.25 1.1328125 C15.59 2.4528125 14.93 3.7728125 14.25 5.1328125 C12.25045254 5.17535606 10.24958364 5.17362033 8.25 5.1328125 C7.92 4.8028125 7.59 4.4728125 7.25 4.1328125 C2.44181518 3.79504745 -2.04442579 4.1421653 -6.75 5.1328125 C-9.08301986 5.17105873 -11.41711508 5.17855534 -13.75 5.1328125 C-13.42 4.4728125 -13.09 3.8128125 -12.75 3.1328125 C-10.5 2.53515625 -10.5 2.53515625 -7.75 2.0703125 C-4.96420789 1.59150448 -2.53952256 0.19273162 0 0 Z " fill="#5A5A54" transform="translate(61.75,46.8671875)"/>
<path d="M0 0 C-0.33 2.97 -0.66 5.94 -1 9 C-2.98 9.66 -4.96 10.32 -7 11 C-9 9 -9 9 -9.375 6.625 C-9 4 -9 4 -7.3125 1.6875 C-4.60883753 -0.28544288 -3.27034459 -0.36337162 0 0 Z " fill="#828170" transform="translate(74,131)"/>
<path d="M0 0 C0.99 0 1.98 0 3 0 C5.23624251 4.47248501 4.59505104 10.78239701 3.328125 15.50390625 C2.62259893 17.36423206 1.82073239 19.18754931 1 21 C0.67 21 0.34 21 0 21 C0.33 17.7 0.66 14.4 1 11 C0.34 11 -0.32 11 -1 11 C-1 10.01 -1 9.02 -1 8 C-2.98 8.99 -2.98 8.99 -5 10 C-4.57847656 9.51789062 -4.15695313 9.03578125 -3.72265625 8.5390625 C-3.17480469 7.90742187 -2.62695312 7.27578125 -2.0625 6.625 C-1.51722656 5.99851562 -0.97195312 5.37203125 -0.41015625 4.7265625 C1.06958624 3.04367666 1.06958624 3.04367666 2 1 C1.34 0.67 0.68 0.34 0 0 Z " fill="#8F8F88" transform="translate(64,51)"/>
<path d="M0 0 C0.33 0.66 0.66 1.32 1 2 C3.22473663 2.56383958 3.22473663 2.56383958 5.91015625 2.8515625 C6.89951172 2.98046875 7.88886719 3.109375 8.90820312 3.2421875 C9.94912109 3.36851563 10.99003906 3.49484375 12.0625 3.625 C13.10728516 3.7590625 14.15207031 3.893125 15.22851562 4.03125 C17.81808861 4.36233696 20.4084462 4.68485796 23 5 C23 5.66 23 6.32 23 7 C14.55569721 6.48244596 6.31913693 5.5439119 -2 4 C-1.34 5.98 -0.68 7.96 0 10 C-0.99 9.67 -1.98 9.34 -3 9 C-3.36923077 3.46153846 -3.36923077 3.46153846 -1.5 1.125 C-1.005 0.75375 -0.51 0.3825 0 0 Z " fill="#7D7C71" transform="translate(27,85)"/>
<path d="M0 0 C0.66 0.33 1.32 0.66 2 1 C1.625 2.9375 1.625 2.9375 1 5 C0.01 5.495 0.01 5.495 -1 6 C-1.66 5.67 -2.32 5.34 -3 5 C-2.67 6.32 -2.34 7.64 -2 9 C-2.78375 9.2475 -3.5675 9.495 -4.375 9.75 C-7.42295608 11.20140766 -7.72536664 11.99550707 -9 15 C-10.5 16.75 -10.5 16.75 -12 18 C-12.66 18 -13.32 18 -14 18 C-12.94124926 14.59687262 -11.99097846 11.98646769 -10 9 C-9.01 9 -8.02 9 -7 9 C-6.5978125 7.7934375 -6.5978125 7.7934375 -6.1875 6.5625 C-5.795625 5.716875 -5.40375 4.87125 -5 4 C-4.01 3.67 -3.02 3.34 -2 3 C-1.34 3.33 -0.68 3.66 0 4 C0 2.68 0 1.36 0 0 Z " fill="#999987" transform="translate(91,13)"/>
<path d="M0 0 C1.11375 0.1546875 1.11375 0.1546875 2.25 0.3125 C2.58 1.6325 2.91 2.9525 3.25 4.3125 C2.1053125 4.9621875 2.1053125 4.9621875 0.9375 5.625 C-1.33093768 7.04936785 -2.9699723 8.34510097 -4.75 10.3125 C-5.74 9.9825 -6.73 9.6525 -7.75 9.3125 C-7.06213852 4.66943499 -4.92005947 0.55909767 0 0 Z " fill="#8A8A81" transform="translate(109.75,59.6875)"/>
<path d="M0 0 C0.33 0.99 0.66 1.98 1 3 C0.01 3.495 0.01 3.495 -1 4 C-1 4.99 -1 5.98 -1 7 C-1.99 7 -2.98 7 -4 7 C-4.59070014 8.94603274 -4.59070014 8.94603274 -5 11 C-4.67 11.33 -4.34 11.66 -4 12 C-3.67 12.99 -3.34 13.98 -3 15 C-5.31 15 -7.62 15 -10 15 C-10.33 14.01 -10.66 13.02 -11 12 C-7.37 8.04 -3.74 4.08 0 0 Z " fill="#54554B" transform="translate(62,129)"/>
<path d="M0 0 C-0.33 0.99 -0.66 1.98 -1 3 C-2.91425781 3.07347656 -2.91425781 3.07347656 -4.8671875 3.1484375 C-6.53648072 3.22346191 -8.20575046 3.29900988 -9.875 3.375 C-11.13763672 3.42140625 -11.13763672 3.42140625 -12.42578125 3.46875 C-13.63427734 3.52675781 -13.63427734 3.52675781 -14.8671875 3.5859375 C-15.61081543 3.6173584 -16.35444336 3.6487793 -17.12060547 3.68115234 C-19.24010974 3.85419551 -19.24010974 3.85419551 -21 6 C-23.625 6.125 -23.625 6.125 -26 6 C-25.67 5.01 -25.34 4.02 -25 3 C-16.75165829 1.12040001 -8.47293503 0 0 0 Z " fill="#9F9F83" transform="translate(63,106)"/>
<path d="M0 0 C0.66 0.33 1.32 0.66 2 1 C2.82804069 3.48412207 3 5.35220307 3 8 C-3.4 11.07692308 -3.4 11.07692308 -6.4375 10.6875 C-6.953125 10.460625 -7.46875 10.23375 -8 10 C-8.33 8.68 -8.66 7.36 -9 6 C-6.36 6.33 -3.72 6.66 -1 7 C-1.020625 6.030625 -1.04125 5.06125 -1.0625 4.0625 C-1 1 -1 1 0 0 Z " fill="#858472" transform="translate(85,131)"/>
<path d="M0 0 C1.32 0.33 2.64 0.66 4 1 C2.515 2.485 2.515 2.485 1 4 C1.969375 4.763125 2.93875 5.52625 3.9375 6.3125 C6.42086332 8.26748815 6.9521672 8.85650159 8 12 C4.0507432 11.44894091 0.65079826 10.61064629 -3 9 C-2.01 6.03 -1.02 3.06 0 0 Z " fill="#373837" transform="translate(107,98)"/>
<path d="M0 0 C0 0.33 0 0.66 0 1 C-0.96099609 1.18175781 -0.96099609 1.18175781 -1.94140625 1.3671875 C-5.91323279 2.1366919 -9.79690718 2.94148173 -13.6875 4.0625 C-17.11859359 5.03356422 -20.46432893 5.56706069 -24 6 C-24.33 5.34 -24.66 4.68 -25 4 C-23.9275 3.71125 -22.855 3.4225 -21.75 3.125 C-18.1977959 2.19994585 -18.1977959 2.19994585 -15.9375 0.875 C-13.2663795 -0.33131248 -10.89852664 -0.06301145 -8 0 C-5.13822943 -1.43088528 -3.06624227 -0.59991697 0 0 Z " fill="#414140" transform="translate(108,142)"/>
<path d="M0 0 C1.48828125 1.11328125 1.48828125 1.11328125 3 3 C3.29296875 5.91796875 3.29296875 5.91796875 3.1875 9.1875 C3.14689453 10.81751953 3.14689453 10.81751953 3.10546875 12.48046875 C3.07066406 13.31191406 3.03585938 14.14335938 3 15 C2.01 15.33 1.02 15.66 0 16 C-0.33 16.99 -0.66 17.98 -1 19 C-1 18.34 -1 17.68 -1 17 C-1.66 17 -2.32 17 -3 17 C-2.67 15.02 -2.34 13.04 -2 11 C-1.01 11 -0.02 11 1 11 C1 9.35 1 7.7 1 6 C0.01 6.495 0.01 6.495 -1 7 C-0.67 4.69 -0.34 2.38 0 0 Z " fill="#343534" transform="translate(126,99)"/>
<path d="M0 0 C0.33 0 0.66 0 1 0 C1.38063221 2.3260857 1.71269945 4.66055264 2 7 C1.67 7.33 1.34 7.66 1 8 C3.97 8 6.94 8 10 8 C9.67 8.99 9.34 9.98 9 11 C5.41066525 12.36069944 1.73965603 13.09732441 -2 14 C-1.34 9.38 -0.68 4.76 0 0 Z " fill="#7D7C73" transform="translate(48,43)"/>
<path d="M0 0 C1.32 0 2.64 0 4 0 C4.25 2.75 4.25 2.75 4 6 C2 8.375 2 8.375 0 10 C-0.99 9.34 -1.98 8.68 -3 8 C-3.66 7.67 -4.32 7.34 -5 7 C-3.47793991 4.37098712 -2.15634036 2.15634036 0 0 Z " fill="#68675B" transform="translate(60,134)"/>
<path d="M0 0 C0 0.33 0 0.66 0 1 C-4.455 1.495 -4.455 1.495 -9 2 C-9 3.32 -9 4.64 -9 6 C-11.64 6.33 -14.28 6.66 -17 7 C-17.33 5.68 -17.66 4.36 -18 3 C-12.39004157 -0.73997229 -6.52699931 -0.11406407 0 0 Z " fill="#C5C4AE" transform="translate(75,2)"/>
<path d="M0 0 C0.66 0 1.32 0 2 0 C1.88590318 2.10478604 1.75834639 4.20884577 1.625 6.3125 C1.55539063 7.48425781 1.48578125 8.65601562 1.4140625 9.86328125 C1 13 1 13 -1 16 C-1.66 16 -2.32 16 -3 16 C-2.88544319 14.08268082 -2.75793742 12.1661325 -2.625 10.25 C-2.55539063 9.18265625 -2.48578125 8.1153125 -2.4140625 7.015625 C-2.0271777 4.19793568 -1.44313834 2.4169634 0 0 Z " fill="#A5A49A" transform="translate(63,62)"/>
<path d="M0 0 C0.98484375 0.00902344 1.9696875 0.01804688 2.984375 0.02734375 C4.10585937 0.04474609 4.10585937 0.04474609 5.25 0.0625 C5.25 1.7125 5.25 3.3625 5.25 5.0625 C2.25 5.0625 2.25 5.0625 0.25 4.0625 C0.25 3.4025 0.25 2.7425 0.25 2.0625 C-0.20375 2.5575 -0.6575 3.0525 -1.125 3.5625 C-2.75 5.0625 -2.75 5.0625 -4.75 5.0625 C-5.08 4.4025 -5.41 3.7425 -5.75 3.0625 C-7.76669827 1.92899466 -7.76669827 1.92899466 -9.75 1.0625 C-6.43929162 0.06140485 -3.44915231 -0.04106134 0 0 Z " fill="#ABAB96" transform="translate(71.75,2.9375)"/>
<path d="M0 0 C0.1875 2.375 0.1875 2.375 0 5 C-3 7 -3 7 -5.6875 6.625 C-6.450625 6.41875 -7.21375 6.2125 -8 6 C-8 4.35 -8 2.7 -8 1 C-5.29120665 -0.35439668 -2.99066732 -0.06501451 0 0 Z " fill="#A7A69D" transform="translate(78,78)"/>
<path d="M0 0 C0.99 0.33 1.98 0.66 3 1 C2.67 3.64 2.34 6.28 2 9 C-1.13174001 10.04391334 -2.82496113 10.0069626 -6.0625 9.6875 C-6.94035156 9.60886719 -7.81820312 9.53023437 -8.72265625 9.44921875 C-11 9 -11 9 -13 7 C-12.31292969 7.04640625 -11.62585938 7.0928125 -10.91796875 7.140625 C-9.56638672 7.19476563 -9.56638672 7.19476563 -8.1875 7.25 C-6.84751953 7.31960937 -6.84751953 7.31960937 -5.48046875 7.390625 C-2.87041905 7.2292855 -2.87041905 7.2292855 -1.17578125 5.171875 C0.23803966 2.97191835 0.23803966 2.97191835 0 0 Z " fill="#8A897C" transform="translate(82,23)"/>
<path d="M0 0 C0.99 0.66 1.98 1.32 3 2 C2.34 2 1.68 2 1 2 C1.3403125 3.36125 1.3403125 3.36125 1.6875 4.75 C2 8 2 8 0.625 10.125 C0.08875 10.74375 -0.4475 11.3625 -1 12 C-1.70514846 14.14733927 -1.70514846 14.14733927 -2 16 C-4.64 16 -7.28 16 -10 16 C-10 15.67 -10 15.34 -10 15 C-8.35 14.67 -6.7 14.34 -5 14 C-4.67 13.01 -4.34 12.02 -4 11 C-3.34 10.67 -2.68 10.34 -2 10 C-1.67 9.01 -1.34 8.02 -1 7 C-1.66 6.67 -2.32 6.34 -3 6 C-2.67 5.34 -2.34 4.68 -2 4 C-1.34 4 -0.68 4 0 4 C0 2.68 0 1.36 0 0 Z " fill="#BAB8A4" transform="translate(80,12)"/>
<path d="M0 0 C2.0625 0.4375 2.0625 0.4375 4 1 C4.38613383 3.62571005 4.38493778 5.3843879 2.95703125 7.66796875 C1.625 9.3125 1.625 9.3125 -1 12 C-1.66 12 -2.32 12 -3 12 C-3 8 -3 8 -1 6 C-0.95936168 4.33382885 -0.957279 2.66611905 -1 1 C-0.67 0.67 -0.34 0.34 0 0 Z " fill="#BBB69E" transform="translate(88,47)"/>
<path d="M0 0 C0.99 0.33 1.98 0.66 3 1 C2.34 2.32 1.68 3.64 1 5 C1.66 5.33 2.32 5.66 3 6 C2.34 6 1.68 6 1 6 C1 6.66 1 7.32 1 8 C1.66 8.33 2.32 8.66 3 9 C1.35 9.66 -0.3 10.32 -2 11 C-2.66 8.69 -3.32 6.38 -4 4 C-2.68 2.68 -1.36 1.36 0 0 Z " fill="#B0AD97" transform="translate(86,45)"/>
<path d="M0 0 C0.5465625 0.16226074 1.093125 0.32452148 1.65625 0.49169922 C4.33095235 1.07177529 6.76300861 1.12959359 9.5 1.1328125 C10.551875 1.13410156 11.60375 1.13539063 12.6875 1.13671875 C13.780625 1.13285156 14.87375 1.12898437 16 1.125 C17.093125 1.12886719 18.18625 1.13273438 19.3125 1.13671875 C20.8903125 1.13478516 20.8903125 1.13478516 22.5 1.1328125 C23.4590625 1.13168457 24.418125 1.13055664 25.40625 1.12939453 C27.75803316 1.01207101 29.75052606 0.66781258 32 0 C30.91479492 1.48168945 30.91479492 1.48168945 29 3 C25.99731445 3.34057617 25.99731445 3.34057617 22.36328125 3.29296875 C21.06455078 3.28330078 19.76582031 3.27363281 18.42773438 3.26367188 C17.05598361 3.23860585 15.68423882 3.21321101 14.3125 3.1875 C12.92905076 3.1724502 11.54558599 3.1587623 10.16210938 3.14648438 C6.77434793 3.11107223 3.38736861 3.06168054 0 3 C0 2.01 0 1.02 0 0 Z " fill="#595851" transform="translate(60,143)"/>
<path d="M0 0 C0.33 0.99 0.66 1.98 1 3 C1.99 3 2.98 3 4 3 C4.33 3.99 4.66 4.98 5 6 C4.34 6 3.68 6 3 6 C3.185625 7.051875 3.37125 8.10375 3.5625 9.1875 C3.95079331 12.57119882 3.88247485 14.76425888 3 18 C-0.66829266 12.49756101 -0.12789125 6.39456234 0 0 Z " fill="#6B6B69" transform="translate(32,125)"/>
<path d="M0 0 C0.66 1.32 1.32 2.64 2 4 C0.37982158 5.33918806 -1.24629343 6.6711969 -2.875 8 C-4.23238281 9.11375 -4.23238281 9.11375 -5.6171875 10.25 C-8 12 -8 12 -10 12 C-10 11.34 -10 10.68 -10 10 C-9.34 10 -8.68 10 -8 10 C-7.731875 9.4225 -7.46375 8.845 -7.1875 8.25 C-5.9611378 5.92636635 -4.75156566 3.96175354 -3 2 C-2.01 2 -1.02 2 0 2 C0 1.34 0 0.68 0 0 Z " fill="#42423B" transform="translate(62,125)"/>
<path d="M0 0 C1.67889021 0.63525576 3.34416775 1.30686092 5 2 C6.65919896 2.36871088 8.3247643 2.71281674 10 3 C9.67 3.99 9.34 4.98 9 6 C4.545 6.495 4.545 6.495 0 7 C-0.33 5.68 -0.66 4.36 -1 3 C-1.33 2.34 -1.66 1.68 -2 1 C-1.34 0.67 -0.68 0.34 0 0 Z " fill="#787968" transform="translate(74,115)"/>
<path d="M0 0 C-0.375 1.9375 -0.375 1.9375 -1 4 C-3.95664519 5.4783226 -6.74229737 5.06032783 -10 5 C-7.3491787 0.07704616 -5.59728355 -1.737088 0 0 Z " fill="#BBBBAA" transform="translate(70,107)"/>
<path d="M0 0 C5.61 0 11.22 0 17 0 C17 0.33 17 0.66 17 1 C15.7625 1.12375 14.525 1.2475 13.25 1.375 C10.05467127 1.76248275 7.85921201 2.52109724 5 4 C2.25 4.125 2.25 4.125 0 4 C0 2.68 0 1.36 0 0 Z " fill="#D9D6BD" transform="translate(79,1)"/>
<path d="M0 0 C1 3 1 3 0.0625 5.1875 C-0.288125 5.785625 -0.63875 6.38375 -1 7 C-3.64 6.01 -6.28 5.02 -9 4 C-9 4.66 -9 5.32 -9 6 C-9.66 5.67 -10.32 5.34 -11 5 C-9 2 -9 2 -6.5 1.375 C-5.2625 1.189375 -5.2625 1.189375 -4 1 C-2 0 -2 0 0 0 Z " fill="#A9A892" transform="translate(58,17)"/>
<path d="M0 0 C0.33 0 0.66 0 1 0 C1.05418326 2.08304538 1.09287551 4.16649768 1.125 6.25 C1.14820313 7.41015625 1.17140625 8.5703125 1.1953125 9.765625 C1.0103949 12.82786046 0.60823023 14.44202751 -1 17 C-3 14 -3 14 -2.5390625 10.64453125 C-2.23742187 9.37996094 -1.93578125 8.11539063 -1.625 6.8125 C-1.32851562 5.54019531 -1.03203125 4.26789063 -0.7265625 2.95703125 C-0.48679688 1.98121094 -0.24703125 1.00539063 0 0 Z " fill="#3D3E3F" transform="translate(130,122)"/>
<path d="M0 0 C0.33 1.65 0.66 3.3 1 5 C-1.31 4.34 -3.62 3.68 -6 3 C-6.33 5.64 -6.66 8.28 -7 11 C-7.33 11 -7.66 11 -8 11 C-8.125 4.375 -8.125 4.375 -7 1 C-4.53721199 -0.231394 -2.7204945 -0.07159196 0 0 Z " fill="#B0B299" transform="translate(50,26)"/>
<path d="M0 0 C0.66 0 1.32 0 2 0 C2 0.66 2 1.32 2 2 C1.34 2 0.68 2 0 2 C0 1.34 0 0.68 0 0 Z M0 2 C-0.33 3.32 -0.66 4.64 -1 6 C-6.94 6.495 -6.94 6.495 -13 7 C-12.67 6.34 -12.34 5.68 -12 5 C-10.34080104 4.63128912 -8.67225729 4.30404678 -7 4 C-1.94117647 2 -1.94117647 2 0 2 Z " fill="#716F64" transform="translate(91,136)"/>
<path d="M0 0 C4.455 0.99 4.455 0.99 9 2 C9 2.33 9 2.66 9 3 C8.38511719 3.00257812 7.77023438 3.00515625 7.13671875 3.0078125 C4.62855042 3.12782055 2.42008233 3.31774275 0 4 C-2.16247221 6.90251302 -2.16247221 6.90251302 -3 10 C-3.33 10 -3.66 10 -4 10 C-4 7.69 -4 5.38 -4 3 C-2.68 2.67 -1.36 2.34 0 2 C0 1.34 0 0.68 0 0 Z " fill="#696966" transform="translate(100,92)"/>
<path d="M0 0 C0.33 0.66 0.66 1.32 1 2 C-0.78174788 4.30142435 -2.16304165 5.80034391 -5.046875 6.48828125 C-7.0246611 6.72323102 -9.01271872 6.86751458 -11 7 C-7.7129243 3.18699218 -4.60272162 1.77027754 0 0 Z " fill="#939285" transform="translate(77,98)"/>
<path d="M0 0 C0.33 0.99 0.66 1.98 1 3 C4.51190809 4.22969878 4.51190809 4.22969878 8 5 C8 5.33 8 5.66 8 6 C6.741875 6.04125 5.48375 6.0825 4.1875 6.125 C3.47980469 6.14820312 2.77210937 6.17140625 2.04296875 6.1953125 C0 6 0 6 -3 4 C-3.99 4.495 -3.99 4.495 -5 5 C-4 2 -4 2 -1.9375 0.8125 C-1.298125 0.544375 -0.65875 0.27625 0 0 Z " fill="#949687" transform="translate(30,82)"/>
<path d="M0 0 C0.33 0 0.66 0 1 0 C1.21755666 5.4389165 1.10428384 9.87080814 -1 15 C-1.33 15 -1.66 15 -2 15 C-1.67 11.7 -1.34 8.4 -1 5 C-1.66 5 -2.32 5 -3 5 C-1.125 1.125 -1.125 1.125 0 0 Z " fill="#999890" transform="translate(66,57)"/>
<path d="M0 0 C1.32 0.33 2.64 0.66 4 1 C3.54625 1.37125 3.0925 1.7425 2.625 2.125 C0.52970606 4.54264685 -0.12013285 6.95430602 -1 10 C-1.66 10 -2.32 10 -3 10 C-3 9.01 -3 8.02 -3 7 C-3.66 6.67 -4.32 6.34 -5 6 C-4.34 6 -3.68 6 -3 6 C-3.33 5.01 -3.66 4.02 -4 3 C-3.01 3 -2.02 3 -1 3 C-0.67 2.01 -0.34 1.02 0 0 Z " fill="#949683" transform="translate(91,3)"/>
<path d="M0 0 C0.66 0.33 1.32 0.66 2 1 C2.05416188 2.60379341 2.09286638 4.20811406 2.125 5.8125 C2.14820312 6.70582031 2.17140625 7.59914063 2.1953125 8.51953125 C2 11 2 11 0 14 C-0.33 13.67 -0.66 13.34 -1 13 C-0.90982004 10.80949979 -0.75333792 8.621534 -0.5625 6.4375 C-0.46066406 5.23996094 -0.35882813 4.04242188 -0.25390625 2.80859375 C-0.17011719 1.88175781 -0.08632812 0.95492187 0 0 Z " fill="#5D5E5B" transform="translate(120,45)"/>
<path d="M0 0 C1.8871875 0.0309375 1.8871875 0.0309375 3.8125 0.0625 C3.8125 1.0525 3.8125 2.0425 3.8125 3.0625 C0.5125 3.0625 -2.7875 3.0625 -6.1875 3.0625 C-6.5175 2.4025 -6.8475 1.7425 -7.1875 1.0625 C-4.43671116 0.14557039 -2.82801087 -0.04636083 0 0 Z " fill="#DBD9AC" transform="translate(48.1875,108.9375)"/>
<path d="M0 0 C3.63 0 7.26 0 11 0 C11 0.66 11 1.32 11 2 C9.35 2.33 7.7 2.66 6 3 C6 3.66 6 4.32 6 5 C5.34 4.67 4.68 4.34 4 4 C4.33 3.34 4.66 2.68 5 2 C4.01 2 3.02 2 2 2 C1.67 2.99 1.34 3.98 1 5 C0.34 5 -0.32 5 -1 5 C-0.67 3.35 -0.34 1.7 0 0 Z " fill="#AEAE92" transform="translate(51,87)"/>
<path d="M0 0 C1.02104551 0.97850195 2.0206121 1.97980427 3 3 C3 3.33 3 3.66 3 4 C-2.61 4 -8.22 4 -14 4 C-14 3.67 -14 3.34 -14 3 C-10.37 3 -6.74 3 -3 3 C-3 2.34 -3 1.68 -3 1 C-2.01 0.67 -1.02 0.34 0 0 Z " fill="#80806D" transform="translate(66,90)"/>
<path d="M0 0 C0 0.66 0 1.32 0 2 C0.66 2.33 1.32 2.66 2 3 C-4 3 -10 3 -16 3 C-16.33 2.34 -16.66 1.68 -17 1 C-16.16855469 1.01160156 -15.33710937 1.02320312 -14.48046875 1.03515625 C-12.85044922 1.04869141 -12.85044922 1.04869141 -11.1875 1.0625 C-9.56908203 1.07990234 -9.56908203 1.07990234 -7.91796875 1.09765625 C-5.08596176 1.0028769 -2.78625619 0 0 0 Z " fill="#868575" transform="translate(78,113)"/>
<path d="M0 0 C0.33 0 0.66 0 1 0 C1.36504603 1.58086048 1.71660506 3.16483907 2.0625 4.75 C2.25972656 5.63171875 2.45695312 6.5134375 2.66015625 7.421875 C2.99825872 9.98679028 2.81158635 11.57091639 2 14 C0.05081856 11.58301501 -1.00815254 9.81253599 -0.9765625 6.6640625 C-0.71537901 4.42635527 -0.40084514 2.21672195 0 0 Z " fill="#8F9090" transform="translate(125,63)"/>
<path d="M0 0 C-1.78614318 1.03046722 -3.57910018 2.04913236 -5.375 3.0625 C-6.87160156 3.91521484 -6.87160156 3.91521484 -8.3984375 4.78515625 C-9.25695312 5.18605469 -10.11546875 5.58695313 -11 6 C-11.66 5.67 -12.32 5.34 -13 5 C-9.44809236 0.85610776 -5.36327214 -1.71439369 0 0 Z " fill="#5D5D53" transform="translate(91,42)"/>
<path d="M0 0 C1.65 0 3.3 0 5 0 C4.67 1.98 4.34 3.96 4 6 C1.525 5.01 1.525 5.01 -1 4 C-0.67 2.68 -0.34 1.36 0 0 Z " fill="#3F3F3E" transform="translate(40,146)"/>
<path d="M0 0 C1.04449911 3.13349732 0.93423645 3.98968256 0 7 C-1.65 7 -3.3 7 -5 7 C-5.66 5.68 -6.32 4.36 -7 3 C-6.21625 3.061875 -5.4325 3.12375 -4.625 3.1875 C-3.75875 3.125625 -2.8925 3.06375 -2 3 C-1.34 2.01 -0.68 1.02 0 0 Z " fill="#9A998F" transform="translate(78,81)"/>
<path d="M0 0 C0.79921875 0.00902344 1.5984375 0.01804687 2.421875 0.02734375 C3.02515625 0.03894531 3.6284375 0.05054687 4.25 0.0625 C4.25 0.7225 4.25 1.3825 4.25 2.0625 C-1.69 2.5575 -1.69 2.5575 -7.75 3.0625 C-8.08 2.4025 -8.41 1.7425 -8.75 1.0625 C-5.75519083 0.1901588 -3.11424089 -0.04579766 0 0 Z " fill="#9D9E83" transform="translate(63.75,27.9375)"/>
<path d="M0 0 C-1 1 -1 1 -4.3125 1.375 C-7.91099753 1.98491484 -9.37548273 2.58544412 -12 5 C-12.33 4.34 -12.66 3.68 -13 3 C-11 0 -11 0 -8.90625 -0.546875 C-8.1121875 -0.61390625 -7.318125 -0.6809375 -6.5 -0.75 C-5.7059375 -0.82734375 -4.911875 -0.9046875 -4.09375 -0.984375 C-2 -1 -2 -1 0 0 Z " fill="#5F5F5D" transform="translate(111,95)"/>
<path d="M0 0 C0.99 0.33 1.98 0.66 3 1 C2.34 2.65 1.68 4.3 1 6 C0.01 6 -0.98 6 -2 6 C-2.33 6.66 -2.66 7.32 -3 8 C-3.33 6.68 -3.66 5.36 -4 4 C-3.01 4 -2.02 4 -1 4 C-0.67 2.68 -0.34 1.36 0 0 Z " fill="#898983" transform="translate(78,51)"/>
<path d="M0 0 C0.66 0 1.32 0 2 0 C1.67 2.64 1.34 5.28 1 8 C0.34 8 -0.32 8 -1 8 C-1.33 8.99 -1.66 9.98 -2 11 C-2.28571429 3.57142857 -2.28571429 3.57142857 0 0 Z " fill="#AFAD9C" transform="translate(83,7)"/>
<path d="M0 0 C0.66 0 1.32 0 2 0 C2 0.99 2 1.98 2 3 C2.66 3.33 3.32 3.66 4 4 C3.01 4 2.02 4 1 4 C1 5.32 1 6.64 1 8 C0.34 8 -0.32 8 -1 8 C-1 7.34 -1 6.68 -1 6 C-1.99 6.33 -2.98 6.66 -4 7 C-4 6.34 -4 5.68 -4 5 C-3.01 4.67 -2.02 4.34 -1 4 C-0.26676204 1.98491642 -0.26676204 1.98491642 0 0 Z " fill="#929183" transform="translate(79,107)"/>
<path d="M0 0 C1 4 1 4 0 6 C1.32 6.33 2.64 6.66 4 7 C0.535 8.485 0.535 8.485 -3 10 C-2.01 6.7 -1.02 3.4 0 0 Z " fill="#AEADA2" transform="translate(46,51)"/>
<path d="M0 0 C3.3 0 6.6 0 10 0 C10.33 0.99 10.66 1.98 11 3 C9.54077307 2.88590407 8.08259402 2.75834456 6.625 2.625 C5.40683594 2.52058594 5.40683594 2.52058594 4.1640625 2.4140625 C2 2 2 2 0 0 Z " fill="#3F403B" transform="translate(46,144)"/>
<path d="M0 0 C0.33 1.32 0.66 2.64 1 4 C0.01 4.33 -0.98 4.66 -2 5 C-2.33 5.99 -2.66 6.98 -3 8 C-3 7.34 -3 6.68 -3 6 C-3.66 6 -4.32 6 -5 6 C-5 5.01 -5 4.02 -5 3 C-3.35 2.67 -1.7 2.34 0 2 C0 1.34 0 0.68 0 0 Z " fill="#3C3D3A" transform="translate(128,110)"/>
<path d="M0 0 C0.99 0.66 1.98 1.32 3 2 C2.67 2.99 2.34 3.98 2 5 C1.34 5 0.68 5 0 5 C-0.33 5.66 -0.66 6.32 -1 7 C-1.66 6.67 -2.32 6.34 -3 6 C-3 3 -3 3 -1.5 1.3125 C-0.7575 0.6628125 -0.7575 0.6628125 0 0 Z " fill="#999991" transform="translate(70,74)"/>
<path d="M0 0 C0.66 0.33 1.32 0.66 2 1 C1.625 2.9375 1.625 2.9375 1 5 C0.01 5.495 0.01 5.495 -1 6 C-1.66 5.67 -2.32 5.34 -3 5 C-3 5.66 -3 6.32 -3 7 C-3.66 7 -4.32 7 -5 7 C-4.67 5.68 -4.34 4.36 -4 3 C-2.02 3.495 -2.02 3.495 0 4 C0 2.68 0 1.36 0 0 Z " fill="#939180" transform="translate(91,13)"/>
<path d="M0 0 C0.99 0.33 1.98 0.66 3 1 C2.6875 2.9375 2.6875 2.9375 2 5 C1.01 5.33 0.02 5.66 -1 6 C-1 2 -1 2 0 0 Z " fill="#918E7F" transform="translate(79,90)"/>
<path d="M0 0 C0.99 0.33 1.98 0.66 3 1 C2.01 2.485 2.01 2.485 1 4 C0.34 4 -0.32 4 -1 4 C-1 4.66 -1 5.32 -1 6 C-1.66 6 -2.32 6 -3 6 C-2.625 3.5625 -2.625 3.5625 -2 1 C-1.34 0.67 -0.68 0.34 0 0 Z " fill="#A5A38C" transform="translate(48,58)"/>
<path d="M0 0 C1.32 0.33 2.64 0.66 4 1 C4.66 3.31 5.32 5.62 6 8 C4.02 8.99 4.02 8.99 2 10 C2.66 7.69 3.32 5.38 4 3 C2.68 2.34 1.36 1.68 0 1 C0 0.67 0 0.34 0 0 Z " fill="#A4A18D" transform="translate(88,45)"/>
<path d="M0 0 C2.45484649 2.13464912 3.68134222 3.70720291 4 7 C3.34 7.66 2.68 8.32 2 9 C0 3.375 0 3.375 0 0 Z " fill="#1C1D1D" transform="translate(31,117)"/>
<path d="M0 0 C0 1.65 0 3.3 0 5 C-1.32 5 -2.64 5 -4 5 C-4.33 3.68 -4.66 2.36 -5 1 C-2 0 -2 0 0 0 Z " fill="#444541" transform="translate(128,115)"/>
<path d="M0 0 C-1.04874998 2.62187494 -1.64931313 3.79371361 -4.125 5.25 C-4.74375 5.4975 -5.3625 5.745 -6 6 C-6.33 5.34 -6.66 4.68 -7 4 C-6.34 4 -5.68 4 -5 4 C-5 3.34 -5 2.68 -5 2 C-2 0 -2 0 0 0 Z " fill="#7D7F70" transform="translate(92,107)"/>
<path d="M0 0 C2 2 2 2 2.125 5.125 C2.08375 6.07375 2.0425 7.0225 2 8 C1.01 8 0.02 8 -1 8 C-0.67 5.36 -0.34 2.72 0 0 Z " fill="#5C5C5A" transform="translate(129,91)"/>
<path d="M0 0 C2.97 0.33 5.94 0.66 9 1 C8.67 1.99 8.34 2.98 8 4 C7.01 4 6.02 4 5 4 C5 3.34 5 2.68 5 2 C3.35 1.67 1.7 1.34 0 1 C0 0.67 0 0.34 0 0 Z " fill="#B6B19D" transform="translate(42,86)"/>
<path d="M0 0 C1.65 0 3.3 0 5 0 C5 0.99 5 1.98 5 3 C4.01 3 3.02 3 2 3 C1.67 3.99 1.34 4.98 1 6 C0.67 4.02 0.34 2.04 0 0 Z " fill="#C7C29E" transform="translate(50,25)"/>
<path d="M0 0 C0.598125 0.185625 1.19625 0.37125 1.8125 0.5625 C4.16408762 1.22093687 4.16408762 1.22093687 7 0 C7 0.99 7 1.98 7 3 C4.69 3.33 2.38 3.66 0 4 C0 2.68 0 1.36 0 0 Z " fill="#B3B292" transform="translate(56,25)"/>
<path d="M0 0 C0.66 0 1.32 0 2 0 C1.67 1.32 1.34 2.64 1 4 C-1.31 4.66 -3.62 5.32 -6 6 C-4.625 4.5 -4.625 4.5 -3 3 C-2.34 3 -1.68 3 -1 3 C-0.67 2.01 -0.34 1.02 0 0 Z " fill="#393A39" transform="translate(117,136)"/>
<path d="M0 0 C0 0.99 0 1.98 0 3 C-1.98 3.33 -3.96 3.66 -6 4 C-5.67 3.01 -5.34 2.02 -5 1 C-3 0 -3 0 0 0 Z " fill="#858477" transform="translate(96,100)"/>
<path d="M0 0 C1.65 0 3.3 0 5 0 C5 0.99 5 1.98 5 3 C4.01 3.495 4.01 3.495 3 4 C2.01 3.67 1.02 3.34 0 3 C0 2.01 0 1.02 0 0 Z " fill="#383934" transform="translate(68,95)"/>
<path d="M0 0 C2.875 -0.1875 2.875 -0.1875 6 0 C6.66 0.99 7.32 1.98 8 3 C5.36 2.67 2.72 2.34 0 2 C0 1.34 0 0.68 0 0 Z " fill="#B7B79D" transform="translate(53,85)"/>
<path d="M0 0 C2 3 2 3 1.8125 5.125 C1.544375 5.74375 1.27625 6.3625 1 7 C0.01 7.33 -0.98 7.66 -2 8 C-1.47731534 5.23723823 -0.89130413 2.6739124 0 0 Z " fill="#929180" transform="translate(42,64)"/>
<path d="M0 0 C0.66 0.33 1.32 0.66 2 1 C2 2.98 2 4.96 2 7 C1.01 7 0.02 7 -1 7 C-0.67 4.69 -0.34 2.38 0 0 Z " fill="#9C997E" transform="translate(104,46)"/>
<path d="M0 0 C2.97 0.495 2.97 0.495 6 1 C6 1.99 6 2.98 6 4 C5.01 4 4.02 4 3 4 C3.33 3.34 3.66 2.68 4 2 C2.68 2 1.36 2 0 2 C0 1.34 0 0.68 0 0 Z " fill="#686A5E" transform="translate(93,35)"/>
<path d="M0 0 C0.99 0.33 1.98 0.66 3 1 C2.34 2.32 1.68 3.64 1 5 C0.01 5 -0.98 5 -2 5 C-2 4.01 -2 3.02 -2 2 C-1.34 2 -0.68 2 0 2 C0 1.34 0 0.68 0 0 Z " fill="#BEBDA5" transform="translate(71,17)"/>
<path d="" fill="#FF0000" transform="translate(0,0)"/>
<path d="" fill="#FF0000" transform="translate(0,0)"/>
</svg>
