<?xml version="1.0" encoding="UTF-8"?>
<svg version="1.1" xmlns="http://www.w3.org/2000/svg" width="160" height="160">
<path d="M0 0 C5.83291773 0.66935121 8.95569856 3.25794981 12.6328125 7.57421875 C17.36572938 13.93599663 22.8125 22.28832373 22.8125 30.4375 C23.49183594 30.6746875 24.17117187 30.911875 24.87109375 31.15625 C28.48113673 32.72875212 31.60212123 34.76483604 34.875 36.9375 C42.33996265 42.15327666 42.33996265 42.15327666 51.0625 43.5625 C52.40054688 43.53542969 52.40054688 43.53542969 53.765625 43.5078125 C54.44109375 43.48460937 55.1165625 43.46140625 55.8125 43.4375 C54.0745468 49.12534683 50.60066742 51.24538839 45.8125 54.4375 C46.699375 55.0975 47.58625 55.7575 48.5 56.4375 C53.1472646 60.33413754 56.57757762 64.80636936 57.125 70.9375 C56.9703125 72.175 56.9703125 72.175 56.8125 73.4375 C54.14583333 72.10416667 51.47916667 70.77083333 48.8125 69.4375 C49.15023437 69.9221875 49.48796875 70.406875 49.8359375 70.90625 C55.87273944 79.97890031 57.10187005 88.57944524 55.08984375 99.28125 C51.01331316 117.6267259 41.9168067 130.13272387 26.8125 141.4375 C26.18859375 141.91445312 25.5646875 142.39140625 24.921875 142.8828125 C21.85279522 145.09937012 20.77491025 145.4375 16.8125 145.4375 C16.956875 144.74785156 17.10125 144.05820313 17.25 143.34765625 C18.45457787 137.2494808 19.01618412 131.64986555 18.8125 125.4375 C18.4825 125.4375 18.1525 125.4375 17.8125 125.4375 C17.67714844 126.03175781 17.54179688 126.62601562 17.40234375 127.23828125 C14.63467755 137.89462475 9.42880647 146.74702586 -0.1875 152.4375 C-3.33706438 154.26288604 -4.31519489 154.4375 -8.1875 154.4375 C-7.9709375 153.62667969 -7.754375 152.81585938 -7.53125 151.98046875 C-4.9352498 141.65656054 -3.20445725 132.23175644 -8.1875 122.4375 C-13.35831189 117.11895062 -20.57943039 113.80486117 -27.96875 113.2734375 C-31.9355266 113.56675549 -34.85308057 115.39341146 -38.1875 117.4375 C-46.69457861 122.31527886 -53.17808393 125.82149944 -63.1875 123.4375 C-64.89000393 122.15024093 -66.55814759 120.81618281 -68.1875 119.4375 C-70.33799416 118.83272832 -70.33799416 118.83272832 -72.6875 118.4375 C-76.79878156 117.65081551 -79.24406422 116.55932582 -82.1875 113.4375 C-82.496875 112.550625 -82.80625 111.66375 -83.125 110.75 C-83.475625 109.986875 -83.82625 109.22375 -84.1875 108.4375 C-87.08823181 107.75948966 -87.08823181 107.75948966 -90.1875 107.4375 C-92.5625 106.3125 -92.5625 106.3125 -94.1875 104.4375 C-94.75220833 100.07669675 -94.68070437 98.11317192 -92.0546875 94.515625 C-91.07697872 93.5525139 -90.07804087 92.61063281 -89.0625 91.6875 C-88.52842529 91.17799805 -87.99435059 90.66849609 -87.4440918 90.14355469 C-80.61688184 83.75715982 -73.12715348 78.04411356 -65.58203125 72.53515625 C-59.17303506 67.4940009 -56.40195796 61.4317901 -53.01171875 54.21484375 C-48.23703951 44.11465574 -40.11690692 36.95967049 -31.1875 30.4375 C-31.52974609 29.47650391 -31.52974609 29.47650391 -31.87890625 28.49609375 C-33.71167668 22.98134506 -34.63537542 19.10834538 -33.1875 13.4375 C-32.1875 12.4375 -32.1875 12.4375 -29 12.125 C-21.98115236 12.70031538 -17.73120245 17.46106398 -13.1875 22.4375 C-13.1875 23.0975 -13.1875 23.7575 -13.1875 24.4375 C-11.5375 24.1075 -9.8875 23.7775 -8.1875 23.4375 C-8.23970703 22.29474609 -8.23970703 22.29474609 -8.29296875 21.12890625 C-8.46905156 14.41260469 -8.17684255 8.5533109 -5.1875 2.4375 C-3.1875 0.4375 -3.1875 0.4375 0 0 Z " fill="#6C6C6C" transform="translate(96.1875,0.5625)"/>
<path d="M0 0 C0.96541545 3.18554592 1.05239684 5.88752707 0.87890625 9.203125 C0.83056641 10.1828125 0.78222656 11.1625 0.73242188 12.171875 C0.67634766 13.18765625 0.62027344 14.2034375 0.5625 15.25 C0.51029297 16.28125 0.45808594 17.3125 0.40429688 18.375 C0.27484366 20.91699039 0.13988672 23.45856593 0 26 C-1.98364258 25.66430664 -3.96728516 25.32861328 -5.95092773 24.99291992 C-9.52299892 25.00526236 -11.47553874 27.69038651 -14 30 C-16.32548007 30.69356423 -18.65880445 31.36149212 -21 32 C-22.68889872 33.3050581 -24.3603279 34.63360658 -26 36 C-26.99 36 -27.98 36 -29 36 C-29.2784375 36.86625 -29.2784375 36.86625 -29.5625 37.75 C-31.31151442 40.48758779 -33.38265756 41.44081398 -36.19921875 42.9453125 C-42.93867924 46.89250194 -47.36372253 53.96734613 -49.9375 61.125 C-51.78199963 66.01143653 -53.58272968 68.20540041 -58 71 C-60.875 71.8125 -60.875 71.8125 -63 72 C-62.29875 71.319375 -61.5975 70.63875 -60.875 69.9375 C-59.91564509 68.95933421 -58.9573721 67.98010653 -58 67 C-57.071875 66.071875 -56.14375 65.14375 -55.1875 64.1875 C-52.05892181 60.54813353 -50.21799691 56.49044438 -48.1875 52.1875 C-42.78566303 40.88828031 -34.97937609 33.45848985 -25 26 C-25.34224609 25.03900391 -25.34224609 25.03900391 -25.69140625 24.05859375 C-27.52417668 18.54384506 -28.44787542 14.67084538 -27 9 C-26 8 -26 8 -22.8125 7.6875 C-15.79365236 8.26281538 -11.54370245 13.02356398 -7 18 C-7 18.66 -7 19.32 -7 20 C-5.35 19.67 -3.7 19.34 -2 19 C-2.02320313 18.21496094 -2.04640625 17.42992188 -2.0703125 16.62109375 C-2.17284781 10.65207397 -2.04580539 5.62596482 0 0 Z " fill="#B2B0AF" transform="translate(90,5)"/>
<path d="M0 0 C2.45763751 1.72034625 3.81413266 3.30549236 5.5 5.75 C6.16 5.75 6.82 5.75 7.5 5.75 C4.84023089 11.78511063 -0.0459878 16.38141627 -5.75 19.5625 C-10.94422138 21.20733677 -16.18668642 22.54835143 -21.5 23.75 C-22.36367188 23.96398437 -23.22734375 24.17796875 -24.1171875 24.3984375 C-26.5942415 24.76390448 -28.14503114 24.53498962 -30.5 23.75 C-31.15358121 18.52135029 -31.06580476 14.8641843 -27.8125 10.5625 C-26.72195537 9.27995807 -25.61813332 8.00856238 -24.5 6.75 C-24.05914063 6.16863281 -23.61828125 5.58726563 -23.1640625 4.98828125 C-17.48235624 -2.484791 -8.47192636 -3.02568798 0 0 Z " fill="#959798" transform="translate(49.5,82.25)"/>
<path d="M0 0 C0.33 0.99 0.66 1.98 1 3 C2.650701 3.70527188 4.32196676 4.36248398 6 5 C8.41529799 6.40661033 10.73429121 7.95444465 13.0625 9.5 C20.52746265 14.71577666 20.52746265 14.71577666 29.25 16.125 C30.58804688 16.09792969 30.58804688 16.09792969 31.953125 16.0703125 C32.62859375 16.04710938 33.3040625 16.02390625 34 16 C32.2620468 21.68784683 28.78816742 23.80788839 24 27 C24.886875 27.66 25.77375 28.32 26.6875 29 C31.3347646 32.89663754 34.76507762 37.36886936 35.3125 43.5 C35.209375 44.325 35.10625 45.15 35 46 C31.88801935 44.50163895 28.9465385 42.80066242 26 41 C26.99 40.505 26.99 40.505 28 40 C25.92874286 33.40963636 21.42881237 29.95215876 15.52148438 26.86328125 C14.87501953 26.53714844 14.22855469 26.21101563 13.5625 25.875 C12.91990234 25.54113281 12.27730469 25.20726563 11.61523438 24.86328125 C8.62821452 23.31670244 5.62969981 21.82439372 2.58984375 20.3828125 C0 19 0 19 -1 17 C0.32 17 1.64 17 3 17 C2.7834375 16.10796875 2.566875 15.2159375 2.34375 14.296875 C2.0653125 13.12640625 1.786875 11.9559375 1.5 10.75 C1.2215625 9.58984375 0.943125 8.4296875 0.65625 7.234375 C0 4 0 4 0 0 Z " fill="#A4A29F" transform="translate(118,28)"/>
<path d="M0 0 C3.75210316 1.20603316 5.20517566 3.4198236 6.9921875 6.83203125 C10.95897678 15.36524074 12.87290247 23.67178492 14 33 C12.515 33.495 12.515 33.495 11 34 C11 33.34 11 32.68 11 32 C9.35 31.67 7.7 31.34 6 31 C6 30.34 6 29.68 6 29 C5.21625 28.690625 4.4325 28.38125 3.625 28.0625 C1 27 1 27 -1 26 C-2.33587913 21.58394098 -2.18357514 17.00996332 -2.1875 12.4375 C-2.19974609 11.68275391 -2.21199219 10.92800781 -2.22460938 10.15039062 C-2.23481923 6.28766107 -2.19359668 3.26871916 0 0 Z " fill="#AB8383" transform="translate(95,7)"/>
<path d="M0 0 C5.06694 -0.51703469 8.19357136 0.04022306 12.23828125 3.2578125 C17.83140338 8.78892662 22.87521968 16.36016489 25 24 C24.67 24.99 24.34 25.98 24 27 C23.67 26.34 23.34 25.68 23 25 C22.78537284 30.0437383 23.40088905 34.21553419 24.7578125 39.08203125 C24.87769531 40.03142578 24.87769531 40.03142578 25 41 C24.34 41.66 23.68 42.32 23 43 C21.02 42.01 19.04 41.02 17 40 C17.66 39.01 18.32 38.02 19 37 C19.66 37 20.32 37 21 37 C20.67 35.02 20.34 33.04 20 31 C19.34 31 18.68 31 18 31 C17.70609375 30.17822266 17.70609375 30.17822266 17.40625 29.33984375 C14.76567489 22.34004335 11.37800498 15.87397642 7.8046875 9.3203125 C6.4879489 6.89774147 5.20768063 4.47761283 4 2 C2.02 2.66 0.04 3.32 -2 4 C-1.34 2.68 -0.68 1.36 0 0 Z " fill="#969595" transform="translate(93,1)"/>
<path d="M0 0 C4.09973733 -0.55188772 6.3911257 -0.32307616 10.0625 1.625 C13.33824397 4.27347385 16.1904447 6.85597384 19 10 C19 10.99 19 11.98 19 13 C16.73291675 13.8655047 14.46224921 14.71759315 12.1875 15.5625 C11.54490234 15.80935547 10.90230469 16.05621094 10.24023438 16.31054688 C5.33984375 18.11328125 5.33984375 18.11328125 2 17 C1.67 15.35 1.34 13.7 1 12 C0.34 12 -0.32 12 -1 12 C-1.2226746 10.56465159 -1.42761906 9.12654475 -1.625 7.6875 C-1.74101563 6.88699219 -1.85703125 6.08648437 -1.9765625 5.26171875 C-2 3 -2 3 0 0 Z " fill="#A6A5A4" transform="translate(64,13)"/>
<path d="M0 0 C0 0.99 0 1.98 0 3 C-5.89695365 6.29504282 -11.72320373 9.48928149 -18 12 C-8.65454041 11.69359149 -1.60800096 8.03011844 5.5625 2.125 C9.10781472 -0.52330738 12.35540114 -0.58901945 16.6875 -0.37109375 C19.6601534 0.10593678 21.69051522 1.07542935 24 3 C24 3.33 24 3.66 24 4 C21.36 4 18.72 4 16 4 C16 3.34 16 2.68 16 2 C11.92180817 2.13212291 11.92180817 2.13212291 8 3 C7.401875 3.928125 6.80375 4.85625 6.1875 5.8125 C3.29250824 10.03091657 0.41688881 10.6496557 -4.34375 12.140625 C-6.95260133 12.89420918 -6.95260133 12.89420918 -9 14.08984375 C-11.58533233 15.26637194 -13.66839624 15.3008313 -16.5 15.3125 C-17.4384375 15.32925781 -18.376875 15.34601563 -19.34375 15.36328125 C-22.41069925 14.94383084 -23.79265591 14.13966608 -26 12 C-26 11.34 -26 10.68 -26 10 C-25.01 10 -24.02 10 -23 10 C-23 9.34 -23 8.68 -23 8 C-26.63 8 -30.26 8 -34 8 C-34 7.67 -34 7.34 -34 7 C-31.87631556 6.77865824 -29.75095976 6.57329993 -27.625 6.375 C-26.44164062 6.25898437 -25.25828125 6.14296875 -24.0390625 6.0234375 C-23.03617188 6.01570313 -22.03328125 6.00796875 -21 6 C-20.34 6.66 -19.68 7.32 -19 8 C-12.22788048 5.9094278 -5.99672394 3.81609706 0 0 Z " fill="#646464" transform="translate(56,108)"/>
<path d="M0 0 C0 0.66 0 1.32 0 2 C-0.81984375 2.18175781 -1.6396875 2.36351562 -2.484375 2.55078125 C-3.56203125 2.80214844 -4.6396875 3.05351562 -5.75 3.3125 C-6.81734375 3.55613281 -7.8846875 3.79976562 -8.984375 4.05078125 C-11.98444145 4.99510268 -13.53952285 6.12394757 -16 8 C-17.8392787 8.57118759 -19.69599075 9.08779525 -21.5625 9.5625 C-31.14589043 12.6005638 -37.80571205 19.58639512 -43 28 C-44.44774348 31.2102138 -45.77823174 34.44557934 -47.0859375 37.71484375 C-49.57460269 43.61947931 -51.50066117 47.56291323 -57 51 C-59.875 51.8125 -59.875 51.8125 -62 52 C-60.948125 50.9790625 -60.948125 50.9790625 -59.875 49.9375 C-58.91564509 48.95933421 -57.9573721 47.98010653 -57 47 C-56.071875 46.071875 -55.14375 45.14375 -54.1875 44.1875 C-51.05892181 40.54813353 -49.21799691 36.49044438 -47.1875 32.1875 C-41.78566303 20.88828031 -33.97937609 13.45848985 -24 6 C-24.495 3.03 -24.495 3.03 -25 0 C-23 2 -23 2 -22 5 C-15.83187022 3.37438075 -9.76478159 1.66187241 -3.77734375 -0.546875 C-2 -1 -2 -1 0 0 Z " fill="#D6D5D2" transform="translate(89,25)"/>
<path d="M0 0 C0 1.65 0 3.3 0 5 C1.32 5 2.64 5 4 5 C4 3.35 4 1.7 4 0 C7.875 0.875 7.875 0.875 9 2 C9.69565217 8.95652174 9.69565217 8.95652174 7 13 C2.97020535 15.68652977 0.76065969 15.40344574 -4 15 C-4 14.34 -4 13.68 -4 13 C-4.66 13 -5.32 13 -6 13 C-6.10824843 11.3973218 -6.18570645 9.79254252 -6.25 8.1875 C-6.29640625 7.29417969 -6.3428125 6.40085937 -6.390625 5.48046875 C-6 3 -6 3 -4.109375 1.17578125 C-2 0 -2 0 0 0 Z " fill="#1D1E1E" transform="translate(66,55)"/>
<path d="M0 0 C1.32 0 2.64 0 4 0 C10.83788634 8.40045021 16.98132626 19.96007953 16 31 C14.3555297 28.53329455 13.52539357 26.92669815 12.6328125 24.19921875 C12.38660156 23.46896484 12.14039062 22.73871094 11.88671875 21.98632812 C11.38317665 20.46666389 10.88311329 18.94584208 10.38671875 17.42382812 C8.80103894 12.74484028 7.06442743 8.90187217 4 5 C3.34 5 2.68 5 2 5 C1.0699111 7.7902667 0.81301231 9.76529542 0.68359375 12.66796875 C0.64169922 13.56064453 0.59980469 14.45332031 0.55664062 15.37304688 C0.49766602 16.76620117 0.49766602 16.76620117 0.4375 18.1875 C0.39431641 19.12787109 0.35113281 20.06824219 0.30664062 21.03710938 C0.20061335 23.35792854 0.09854971 25.67885325 0 28 C-1.92554101 26.39299585 -2.90679231 25.50203801 -3.37231445 22.99462891 C-3.3693335 22.24616699 -3.36635254 21.49770508 -3.36328125 20.7265625 C-3.36263672 19.9015625 -3.36199219 19.0765625 -3.36132812 18.2265625 C-3.34521484 17.36804688 -3.32910156 16.50953125 -3.3125 15.625 C-3.31572266 14.77421875 -3.31894531 13.9234375 -3.32226562 13.046875 C-3.23823522 3.23823522 -3.23823522 3.23823522 0 0 Z " fill="#575454" transform="translate(93,3)"/>
<path d="M0 0 C1.32 0.33 2.64 0.66 4 1 C4 1.66 4 2.32 4 3 C4.598125 3.12375 5.19625 3.2475 5.8125 3.375 C8 4 8 4 11 6 C12.54766142 6.5827119 14.11192222 7.12264187 15.6875 7.625 C16.49574219 7.88539062 17.30398437 8.14578125 18.13671875 8.4140625 C19.05904297 8.70410156 19.05904297 8.70410156 20 9 C20 9.66 20 10.32 20 11 C23.34252724 11.07427838 25.8035914 11.06546953 29 10 C27.54600704 13.83325416 25.6919885 15.28279605 22 17 C18.76830198 17.41784639 17.43251918 17.29846786 14.71875 15.42578125 C13.9865625 14.72839844 13.254375 14.03101563 12.5 13.3125 C11.72398437 12.58417969 10.94796875 11.85585938 10.1484375 11.10546875 C8.46392289 9.45464443 6.78515182 7.80024411 5.125 6.125 C2.99182849 3.8529129 2.99182849 3.8529129 0 2 C0 1.34 0 0.68 0 0 Z " fill="#868583" transform="translate(121,37)"/>
<path d="M0 0 C2.34940804 1.45894718 3.34712909 2.72017805 5 5 C4.34 7.31 3.68 9.62 3 12 C2.67 12 2.34 12 2 12 C1.731875 10.865625 1.46375 9.73125 1.1875 8.5625 C0.795625 7.386875 0.40375 6.21125 0 5 C-0.99 4.67 -1.98 4.34 -3 4 C-3 5.65 -3 7.3 -3 9 C-4.32 9 -5.64 9 -7 9 C-7 7.35 -7 5.7 -7 4 C-7.61875 4.495 -8.2375 4.99 -8.875 5.5 C-11 7 -11 7 -13 7 C-13 9.64 -13 12.28 -13 15 C-15.14978703 12.67106405 -15.96248682 11.22038995 -16.5 8.0625 C-16 5 -16 5 -14.1875 2.125 C-9.57578897 -0.94947402 -5.39238224 -1.05098904 0 0 Z " fill="#4B4C4C" transform="translate(73,51)"/>
<path d="M0 0 C-4.74617909 5.09774791 -8.47375545 7.31308727 -15.5 7.625 C-19.44878794 7.81874894 -23.13561857 8.16997441 -27 9 C-27.66 9 -28.32 9 -29 9 C-29 8.34 -29 7.68 -29 7 C-30.32 6.67 -31.64 6.34 -33 6 C-30.679476 5.35025328 -28.45807755 4.93081841 -26.0625 4.625 C-18.88573298 3.64846367 -11.72951145 1.88165762 -4.8125 -0.25 C-2 -1 -2 -1 0 0 Z " fill="#57595C" transform="translate(57,103)"/>
<path d="M0 0 C0 3 0 3 -2.23046875 5.375 C-3.20628906 6.24125 -4.18210937 7.1075 -5.1875 8 C-6.15042969 8.86625 -7.11335938 9.7325 -8.10546875 10.625 C-13.12886622 14.74676202 -19.32043239 19 -26 19 C-24.4812711 14.98300699 -22.04151643 13.33538781 -18.5625 10.9375 C-14.01115999 7.78533403 -14.01115999 7.78533403 -10 4 C-9.34 4.33 -8.68 4.66 -8 5 C-4.98037615 3.79215046 -2.54621319 2.00059608 0 0 Z " fill="#797A7A" transform="translate(93,61)"/>
<path d="M0 0 C0.89203125 0.01804687 1.7840625 0.03609375 2.703125 0.0546875 C3.71632813 0.08949219 3.71632813 0.08949219 4.75 0.125 C4.75 0.455 4.75 0.785 4.75 1.125 C3.37714844 1.27195312 3.37714844 1.27195312 1.9765625 1.421875 C0.19378906 1.64617187 0.19378906 1.64617187 -1.625 1.875 C-2.80835937 2.01421875 -3.99171875 2.1534375 -5.2109375 2.296875 C-8.31965831 2.78051341 -8.31965831 2.78051341 -9.4453125 4.9765625 C-9.71085937 5.68554688 -9.97640625 6.39453125 -10.25 7.125 C-11.39105156 8.35755097 -12.55979833 9.56484156 -13.75 10.75 C-17.73705463 15.14322028 -18.66767051 19.32547367 -19.25 25.125 C-21.41131936 23.13939766 -22.23110104 22.18169689 -23.1875 19.3125 C-23.26945675 15.13270567 -22.04389903 13.05062132 -19.25 10.125 C-7.59113424 -0.19976669 -7.59113424 -0.19976669 0 0 Z " fill="#737576" transform="translate(38.25,79.875)"/>
<path d="M0 0 C0.33 0.99 0.66 1.98 1 3 C2.650701 3.70527188 4.32196676 4.36248398 6 5 C8.41529799 6.40661033 10.73429121 7.95444465 13.0625 9.5 C20.52746265 14.71577666 20.52746265 14.71577666 29.25 16.125 C30.58804688 16.09792969 30.58804688 16.09792969 31.953125 16.0703125 C32.62859375 16.04710938 33.3040625 16.02390625 34 16 C33.18359375 17.94921875 33.18359375 17.94921875 32 20 C28.41410857 20.99184231 26.55287397 21.18429132 23 20 C23 19.34 23 18.68 23 18 C22.21625 17.814375 21.4325 17.62875 20.625 17.4375 C16.35401106 15.74383197 13.09964241 13.36857272 9.41015625 10.6640625 C6.91349536 8.82769365 6.91349536 8.82769365 3.4375 7.4375 C1 6 1 6 0.125 2.8125 C0.08375 1.884375 0.0425 0.95625 0 0 Z " fill="#C3C1BE" transform="translate(118,28)"/>
<path d="M0 0 C0.50015625 0.48082031 1.0003125 0.96164063 1.515625 1.45703125 C4.83671397 3.51965726 7.94817916 3.56173088 11.75 3.6875 C12.79607422 3.73874023 12.79607422 3.73874023 13.86328125 3.79101562 C15.57497108 3.87308295 17.2874576 3.93822919 19 4 C19 4.66 19 5.32 19 6 C18.01 6 17.02 6 16 6 C17.29898394 8.22876774 17.29898394 8.22876774 20 10 C27.47525491 11.41728826 33.20542075 9.47948313 39.78515625 5.99609375 C40.51605469 5.66738281 41.24695312 5.33867188 42 5 C42.66 5.33 43.32 5.66 44 6 C35.51941844 10.93758304 28.97312715 14.3753563 19 12 C17.29749607 10.71274093 15.62935241 9.37868281 14 8 C11.84950584 7.39522832 11.84950584 7.39522832 9.5 7 C5.42207293 6.23751614 2.95279116 5.04804249 0 2 C0 1.34 0 0.68 0 0 Z " fill="#B4B2B0" transform="translate(14,112)"/>
<path d="M0 0 C3.69764405 1.84882203 5.15326897 2.98157761 7.75 6 C8.67039062 7.051875 8.67039062 7.051875 9.609375 8.125 C11 10 11 10 11 12 C6.05 13.485 6.05 13.485 1 15 C-1.66590937 10.44573816 -2.31563182 7.26053037 -2 2 C-1.34 2 -0.68 2 0 2 C0.66 4.64 1.32 7.28 2 10 C3.32 9.34 4.64 8.68 6 8 C4.02 5.36 2.04 2.72 0 0 Z " fill="#B99796" transform="translate(66,16)"/>
<path d="M0 0 C-0.99 1.485 -0.99 1.485 -2 3 C-2.99 3 -3.98 3 -5 3 C-5.185625 3.5775 -5.37125 4.155 -5.5625 4.75 C-7.30865164 7.48310692 -9.36343856 8.43924274 -12.1875 9.921875 C-14.88220195 11.52475806 -16.85781233 13.73540161 -19 16 C-19.66 16.33 -20.32 16.66 -21 17 C-19.59791755 12.82374372 -17.62593426 10.07687822 -14.6875 6.8125 C-13.92824219 5.95269531 -13.16898438 5.09289063 -12.38671875 4.20703125 C-8.52463779 0.63571252 -5.1912424 -0.29664242 0 0 Z " fill="#A09F9D" transform="translate(66,38)"/>
<path d="M0 0 C1.32 0.33 2.64 0.66 4 1 C4 1.66 4 2.32 4 3 C4.556875 3.061875 5.11375 3.12375 5.6875 3.1875 C9.48333226 4.52117079 12.21170413 7.42340827 14 11 C14.039992 12.99960012 14.04346799 15.00047242 14 17 C10.88801935 15.50163895 7.9465385 13.80066242 5 12 C5.66 11.67 6.32 11.34 7 11 C5.60208411 6.55208582 3.35266088 4.17620505 0 1 C0 0.67 0 0.34 0 0 Z " fill="#90908F" transform="translate(139,57)"/>
<path d="M0 0 C3.96 0 7.92 0 12 0 C11.34 1.32 10.68 2.64 10 4 C9.731875 4.721875 9.46375 5.44375 9.1875 6.1875 C8 8 8 8 5.6875 9.0625 C3 9 3 9 0.1875 6.5625 C-0.534375 5.716875 -1.25625 4.87125 -2 4 C-1.34 2.68 -0.68 1.36 0 0 Z " fill="#969696" transform="translate(60,69)"/>
<path d="M0 0 C1.67542976 0.28604898 3.34385343 0.61781233 5 1 C5.33 1.99 5.66 2.98 6 4 C5.04504326 5.69287785 4.0409066 7.35857037 3 9 C2.30420546 11.19130534 2.30420546 11.19130534 2 13 C-0.31 13 -2.62 13 -5 13 C-5.33 12.01 -5.66 11.02 -6 10 C-5.34 10 -4.68 10 -4 10 C-3.67 9.01 -3.34 8.02 -3 7 C-2.360625 6.855625 -1.72125 6.71125 -1.0625 6.5625 C1.20311706 6.19895007 1.20311706 6.19895007 2.25 3.9375 C2.62125 2.9784375 2.62125 2.9784375 3 2 C2.21625 2.495 1.4325 2.99 0.625 3.5 C-2 5 -2 5 -4 5 C-4.33 5.99 -4.66 6.98 -5 8 C-5.33 7.34 -5.66 6.68 -6 6 C-4 4 -2 2 0 0 Z " fill="#2B2B2B" transform="translate(10,92)"/>
<path d="M0 0 C0.66 0 1.32 0 2 0 C-0.66903309 6.05613093 -5.57917715 10.60337143 -11.25 13.875 C-16.42802493 15.42840748 -21.65239122 16.25361782 -27 17 C-24.33008232 14.11587689 -22.84429685 13.76885937 -19 13 C-16.258108 11.80424588 -13.63237044 10.41825673 -11 9 C-10.13375 8.54625 -9.2675 8.0925 -8.375 7.625 C-6.21637439 6.14804563 -4.62505222 4.67746337 -2.8125 2.8125 C-1.884375 1.884375 -0.95625 0.95625 0 0 Z " fill="#838486" transform="translate(55,88)"/>
<path d="M0 0 C0 0.66 0 1.32 0 2 C-1.22976562 2.27263672 -1.22976562 2.27263672 -2.484375 2.55078125 C-3.56203125 2.80214844 -4.6396875 3.05351562 -5.75 3.3125 C-6.81734375 3.55613281 -7.8846875 3.79976562 -8.984375 4.05078125 C-11.98297912 4.99464239 -13.55306378 6.10559776 -16 8 C-18.578125 8.94921875 -18.578125 8.94921875 -21.25 9.6875 C-22.58804688 10.06455078 -22.58804688 10.06455078 -23.953125 10.44921875 C-24.62859375 10.63097656 -25.3040625 10.81273437 -26 11 C-25.01 9.68 -24.02 8.36 -23 7 C-23.350625 6.401875 -23.70125 5.80375 -24.0625 5.1875 C-25 3 -25 3 -24 0 C-23.34 1.65 -22.68 3.3 -22 5 C-15.83187022 3.37438075 -9.76478159 1.66187241 -3.77734375 -0.546875 C-2 -1 -2 -1 0 0 Z " fill="#C5C3C1" transform="translate(89,25)"/>
<path d="M0 0 C3.09612297 0.30384963 4.57294201 0.51164663 6.66015625 2.8984375 C11.29285749 11.07986532 15.85651578 19.36419743 15 29 C13.3555297 26.53329455 12.52539357 24.92669815 11.6328125 22.19921875 C11.38660156 21.46896484 11.14039062 20.73871094 10.88671875 19.98632812 C10.38317665 18.46666389 9.88311329 16.94584208 9.38671875 15.42382812 C7.79895949 10.73870429 6.08152072 6.89721738 3 3 C2.01 2.67 1.02 2.34 0 2 C0 1.34 0 0.68 0 0 Z " fill="#464344" transform="translate(94,5)"/>
<path d="M0 0 C0.66 0 1.32 0 2 0 C3.49500664 7.00353109 4.50477379 12.22237679 2 19 C2.33 19.66 2.66 20.32 3 21 C2.67 21.66 2.34 22.32 2 23 C0.68 23 -0.64 23 -2 23 C-1.855625 22.34515625 -1.71125 21.6903125 -1.5625 21.015625 C-0.12092162 13.92786466 0.22683527 7.22092278 0 0 Z " fill="#5B5C5C" transform="translate(115,123)"/>
<path d="M0 0 C0 0.99 0 1.98 0 3 C-7.45794628 7.53642795 -14.43684936 10.29633652 -23 12 C-19.98772636 8.54918533 -17.56494011 7.25872476 -13.1875 6 C-8.30485559 4.49397014 -4.30107439 2.73704734 0 0 Z " fill="#2F3031" transform="translate(56,108)"/>
<path d="M0 0 C0.99 0.495 0.99 0.495 2 1 C2.6328125 3.06640625 2.6328125 3.06640625 3.125 5.5625 C3.29257813 6.38878906 3.46015625 7.21507812 3.6328125 8.06640625 C3.75398438 8.70449219 3.87515625 9.34257812 4 10 C4.66 10 5.32 10 6 10 C6.33 11.98 6.66 13.96 7 16 C5.02 16.33 3.04 16.66 1 17 C-0.1659919 9.22672065 -0.1659919 9.22672065 1 5 C0.61432869 2.31850007 0.61432869 2.31850007 0 0 Z " fill="#625D5C" transform="translate(107,22)"/>
<path d="M0 0 C3.125 1.4375 3.125 1.4375 5 3 C5 3.33 5 3.66 5 4 C2.36 4 -0.28 4 -3 4 C-3 3.34 -3 2.68 -3 2 C-8.73866286 2.24126997 -8.73866286 2.24126997 -13.5 5.0625 C-14.2425 6.0215625 -14.2425 6.0215625 -15 7 C-15 5.68 -15 4.36 -15 3 C-10.77552288 -0.94284531 -5.43878778 -0.68653551 0 0 Z " fill="#4E4F50" transform="translate(75,108)"/>
<path d="M0 0 C-1.52708963 3.43595166 -3.59927045 6.11912454 -6 9 C-8.475 8.01 -8.475 8.01 -11 7 C-8.76456876 1.59770784 -5.88000164 -0.49000014 0 0 Z " fill="#5C5C5B" transform="translate(23,85)"/>
<path d="M0 0 C0.96541545 3.18554592 1.05239684 5.88752707 0.87890625 9.203125 C0.83056641 10.1828125 0.78222656 11.1625 0.73242188 12.171875 C0.67634766 13.18765625 0.62027344 14.2034375 0.5625 15.25 C0.51029297 16.28125 0.45808594 17.3125 0.40429688 18.375 C0.27484366 20.91699039 0.13988672 23.45856593 0 26 C-2.3431213 25.74438677 -4.67843403 25.40729228 -7 25 C-7.33 24.34 -7.66 23.68 -8 23 C-4.535 22.505 -4.535 22.505 -1 22 C-1.165 21.38125 -1.33 20.7625 -1.5 20.125 C-2.6254903 13.09068564 -2.33946419 6.72595956 0 0 Z " fill="#A3A3A2" transform="translate(90,5)"/>
<path d="M0 0 C0.33 0.99 0.66 1.98 1 3 C0.67 3.66 0.34 4.32 0 5 C3.72430357 5.69289369 7.21083746 6.11144596 11 6 C7.26935156 8.48709896 5.42368032 8.29991053 1 8 C-2.4375 7 -2.4375 7 -5 6 C-5 5.34 -5 4.68 -5 4 C-4.01 4 -3.02 4 -2 4 C-2 3.34 -2 2.68 -2 2 C-5.63 2 -9.26 2 -13 2 C-13 1.67 -13 1.34 -13 1 C-11.20843648 0.83222817 -9.4167455 0.66581706 -7.625 0.5 C-6.62726562 0.4071875 -5.62953125 0.314375 -4.6015625 0.21875 C-2 0 -2 0 0 0 Z " fill="#494B4C" transform="translate(35,114)"/>
<path d="M0 0 C2.00948183 0.01778303 4.01668765 0.16786374 6.01953125 0.33203125 C6.01953125 0.99203125 6.01953125 1.65203125 6.01953125 2.33203125 C7.66953125 2.33203125 9.31953125 2.33203125 11.01953125 2.33203125 C11.67953125 3.65203125 12.33953125 4.97203125 13.01953125 6.33203125 C11.34890625 5.80609375 11.34890625 5.80609375 9.64453125 5.26953125 C4.63923486 3.98681193 0.07295282 4.56573372 -4.98046875 5.33203125 C-3.05235036 0.51173527 -3.05235036 0.51173527 0 0 Z " fill="#70706F" transform="translate(65.98046875,109.66796875)"/>
<path d="M0 0 C0.66 0.33 1.32 0.66 2 1 C-1.0229455 4.45479486 -2.63400704 5.86226643 -7.29296875 6.33203125 C-10.54122796 6.31431991 -13.75921387 6.21637296 -17 6 C-13.69513117 3.79675411 -11.23910486 3.25573063 -7.375 2.4375 C-3.37000416 1.88314231 -3.37000416 1.88314231 0 0 Z " fill="#76787A" transform="translate(45,100)"/>
<path d="M0 0 C5.6194584 -0.57341412 8.36404155 0.4406642 12.71484375 3.7109375 C14 5 14 5 14 7 C12.51793505 6.745504 11.03931385 6.47088238 9.5625 6.1875 C8.73878906 6.03667969 7.91507813 5.88585937 7.06640625 5.73046875 C6.38449219 5.48941406 5.70257813 5.24835937 5 5 C4.67 4.01 4.34 3.02 4 2 C2.02 2.66 0.04 3.32 -2 4 C-1.34 2.68 -0.68 1.36 0 0 Z " fill="#C0BFBD" transform="translate(93,1)"/>
<path d="M0 0 C-0.3125 1.875 -0.3125 1.875 -1 4 C-4 6 -4 6 -6 6 C-6.33 6.66 -6.66 7.32 -7 8 C-7.66 8 -8.32 8 -9 8 C-9.33 8.66 -9.66 9.32 -10 10 C-11 9 -11 9 -11.25 6.5625 C-11.1675 5.716875 -11.085 4.87125 -11 4 C-10.01 3.34 -9.02 2.68 -8 2 C-8 2.99 -8 3.98 -8 5 C-7.236875 4.175 -6.47375 3.35 -5.6875 2.5 C-3 0 -3 0 0 0 Z " fill="#575756" transform="translate(13,94)"/>
<path d="M0 0 C-6.32230301 3.57866208 -13.89921077 7.00132943 -21.328125 5.54296875 C-21.87984375 5.36378906 -22.4315625 5.18460937 -23 5 C-21.99582031 4.71511719 -20.99164063 4.43023437 -19.95703125 4.13671875 C-17.40596448 3.40885205 -14.86501802 2.6586611 -12.32421875 1.89453125 C-11.12410156 1.53746094 -9.92398438 1.18039063 -8.6875 0.8125 C-6.86798828 0.26529297 -6.86798828 0.26529297 -5.01171875 -0.29296875 C-2 -1 -2 -1 0 0 Z " fill="#5E6062" transform="translate(57,103)"/>
<path d="M0 0 C0 0.33 0 0.66 0 1 C-1.37285156 1.14695312 -1.37285156 1.14695312 -2.7734375 1.296875 C-4.55621094 1.52117187 -4.55621094 1.52117187 -6.375 1.75 C-7.55835938 1.88921875 -8.74171875 2.0284375 -9.9609375 2.171875 C-13.08616499 2.65989467 -13.08616499 2.65989467 -14.25 4.9375 C-14.4975 5.618125 -14.745 6.29875 -15 7 C-17.625 9.25 -17.625 9.25 -20 11 C-19.21502051 6.78073526 -17.95081297 4.55309219 -14.5 2.125 C-9.75747061 -0.60369798 -5.33259677 -0.49173536 0 0 Z " fill="#848586" transform="translate(43,80)"/>
<path d="M0 0 C0.33 0 0.66 0 1 0 C1.2890625 2.203125 1.2890625 2.203125 1 5 C-0.9765625 7.421875 -0.9765625 7.421875 -3.625 9.75 C-4.91277344 10.91789062 -4.91277344 10.91789062 -6.2265625 12.109375 C-9.25398342 14.173138 -11.38481707 14.68194872 -15 15 C-14.67 14.34 -14.34 13.68 -14 13 C-13.34 13 -12.68 13 -12 13 C-12 12.34 -12 11.68 -12 11 C-10.6696875 10.38125 -10.6696875 10.38125 -9.3125 9.75 C-3.59687315 6.8623345 -3.59687315 6.8623345 -0.1875 1.75 C-0.125625 1.1725 -0.06375 0.595 0 0 Z " fill="#91908E" transform="translate(39,66)"/>
<path d="M0 0 C0.50015625 0.48082031 1.0003125 0.96164063 1.515625 1.45703125 C4.83671397 3.51965726 7.94817916 3.56173088 11.75 3.6875 C12.79607422 3.73874023 12.79607422 3.73874023 13.86328125 3.79101562 C15.57497108 3.87308295 17.2874576 3.93822919 19 4 C19 4.66 19 5.32 19 6 C14.2634103 7.43300982 9.80061488 7.02371755 5 6 C1.875 4.0625 1.875 4.0625 0 2 C0 1.34 0 0.68 0 0 Z " fill="#9B9A97" transform="translate(14,112)"/>
<path d="M0 0 C0.66 0.33 1.32 0.66 2 1 C1.51789063 1.47050781 1.03578125 1.94101563 0.5390625 2.42578125 C-0.09257813 3.04839844 -0.72421875 3.67101562 -1.375 4.3125 C-2.00148438 4.92738281 -2.62796875 5.54226562 -3.2734375 6.17578125 C-5.18086607 8.08812528 -5.18086607 8.08812528 -7 11 C-9.62356462 11.98515378 -12.24524123 12.42238929 -15 13 C-12.86117044 9.47722189 -10.37900044 7.9972221 -6.78515625 6.08203125 C-4.0645822 4.4330181 -2.1428038 2.33760415 0 0 Z " fill="#878888" transform="translate(83,65)"/>
<path d="M0 0 C2 1 2 1 3.125 4.0625 C3.41375 5.031875 3.7025 6.00125 4 7 C3.34 7 2.68 7 2 7 C2 7.66 2 8.32 2 9 C-0.97 8.01 -3.94 7.02 -7 6 C-7 5.67 -7 5.34 -7 5 C-5.02 5 -3.04 5 -1 5 C-0.67 3.35 -0.34 1.7 0 0 Z " fill="#4F5051" transform="translate(13,100)"/>
<path d="M0 0 C3.03918463 4.55877695 4.29408315 9.5983209 3.625 15.0625 C3.41875 15.701875 3.2125 16.34125 3 17 C0.19499035 12.79248553 -0.12829139 9.75014586 -0.0625 4.75 C-0.05347656 3.85796875 -0.04445313 2.9659375 -0.03515625 2.046875 C-0.02355469 1.37140625 -0.01195313 0.6959375 0 0 Z " fill="#757474" transform="translate(115,23)"/>
<path d="M0 0 C4.42065371 2.09608524 8.41960136 4.64900905 12 8 C13 10.875 13 10.875 13 13 C12.01 12.67 11.02 12.34 10 12 C10 11.01 10 10.02 10 9 C8.68 8.34 7.36 7.68 6 7 C6 6.34 6 5.68 6 5 C5.38125 4.731875 4.7625 4.46375 4.125 4.1875 C2 3 2 3 0 0 Z " fill="#5D5E5E" transform="translate(81,113)"/>
<path d="M0 0 C0.33 0 0.66 0 1 0 C1.185625 1.11375 1.37125 2.2275 1.5625 3.375 C2.036875 4.57125 2.51125 5.7675 3 7 C6.51400668 8.54086322 6.51400668 8.54086322 10 9 C10 9.99 10 10.98 10 12 C7.36 12 4.72 12 2 12 C2 11.34 2 10.68 2 10 C1.34 10 0.68 10 0 10 C0 6.7 0 3.4 0 0 Z " fill="#303031" transform="translate(60,58)"/>
<path d="M0 0 C2.68280955 -0.48778355 4.45757503 -0.29804825 6.85546875 1.01953125 C9.76318157 3.1958194 11.67529681 4.83220783 12.66796875 8.40234375 C12.9098944 10.62174866 13.03470724 12.76882001 13 15 C12.70480469 14.401875 12.40960938 13.80375 12.10546875 13.1875 C8.96748037 6.97805302 6.11995023 4.05997511 0 1 C0 0.67 0 0.34 0 0 Z " fill="#9E9D9C" transform="translate(79,116)"/>
<path d="M0 0 C0 0.66 0 1.32 0 2 C-1.93475671 2.53093324 -3.87293155 3.04942317 -5.8125 3.5625 C-7.43091797 3.99755859 -7.43091797 3.99755859 -9.08203125 4.44140625 C-12 5 -12 5 -15 4 C-13.58521865 3.35004703 -12.16808513 2.70521278 -10.75 2.0625 C-9.96109375 1.70285156 -9.1721875 1.34320312 -8.359375 0.97265625 C-2.71143376 -1.35571688 -2.71143376 -1.35571688 0 0 Z " fill="#D3D1CE" transform="translate(89,25)"/>
<path d="M0 0 C1.32 0 2.64 0 4 0 C4 0.66 4 1.32 4 2 C3.01 2 2.02 2 1 2 C1.33 2.99 1.66 3.98 2 5 C0.39911152 7.40133271 -1.25728062 9.702779 -3 12 C-2.88601335 10.37419034 -2.75844341 8.74932843 -2.625 7.125 C-2.55539063 6.22007813 -2.48578125 5.31515625 -2.4140625 4.3828125 C-2 2 -2 2 0 0 Z " fill="#727171" transform="translate(93,3)"/>
<path d="M0 0 C1.32 0.33 2.64 0.66 4 1 C4 1.66 4 2.32 4 3 C4.5775 3.103125 5.155 3.20625 5.75 3.3125 C8.32049158 4.09792798 9.93657284 5.30504197 12 7 C11.67 7.66 11.34 8.32 11 9 C10.01 9 9.02 9 8 9 C8 8.34 8 7.68 8 7 C7.4225 6.7525 6.845 6.505 6.25 6.25 C3.68684812 4.82602673 1.95895126 3.16883889 0 1 C0 0.67 0 0.34 0 0 Z " fill="#9A9997" transform="translate(139,57)"/>
<path d="M0 0 C0.66 0 1.32 0 2 0 C2.99 4.29 3.98 8.58 5 13 C2 12 2 12 0.8125 9.875 C-0.14531259 6.48581699 -0.13746202 3.50528139 0 0 Z " fill="#585251" transform="translate(64,18)"/>
<path d="M0 0 C4.5 2.25 4.5 2.25 6 6 C5.01 6.495 5.01 6.495 4 7 C3.34 8.32 2.68 9.64 2 11 C1.34 7.37 0.68 3.74 0 0 Z " fill="#BA9896" transform="translate(66,18)"/>
<path d="M0 0 C0.66 0.33 1.32 0.66 2 1 C1.39009109 4.55780196 0.4216319 7.6828589 -1 11 C-1.33 10.01 -1.66 9.02 -2 8 C-2.66 7.67 -3.32 7.34 -4 7 C-3.34 5.35 -2.68 3.7 -2 2 C-1.34 2 -0.68 2 0 2 C0 1.34 0 0.68 0 0 Z " fill="#8B8C8C" transform="translate(147,106)"/>
<path d="M0 0 C3.875 0.875 3.875 0.875 5 2 C5.14115161 4.67058851 5.04247107 7.32432238 5 10 C4.67 9.34 4.34 8.68 4 8 C3.34 8 2.68 8 2 8 C0.74335022 5.09399739 0 3.20395416 0 0 Z " fill="#292929" transform="translate(70,55)"/>
<path d="M0 0 C3.5625 0.1875 3.5625 0.1875 5.5625 2.1875 C2.9225 2.1875 0.2825 2.1875 -2.4375 2.1875 C-2.7675 5.4875 -3.0975 8.7875 -3.4375 12.1875 C-5.70657773 7.64934454 -5.43960012 6.01580058 -4.4375 1.1875 C-3.4375 0.1875 -3.4375 0.1875 0 0 Z " fill="#BCBBBA" transform="translate(67.4375,12.8125)"/>
<path d="M0 0 C-1 3 -1 3 -2.8125 4.125 C-6.72989956 5.69195983 -8.90942489 6.13343019 -13 5 C-11.39967863 4.15930585 -9.79458829 3.32768495 -8.1875 2.5 C-6.84751953 1.80390625 -6.84751953 1.80390625 -5.48046875 1.09375 C-3 0 -3 0 0 0 Z " fill="#4D4F50" transform="translate(55,104)"/>
<path d="M0 0 C1.74271938 2.297221 3.39911152 4.59866729 5 7 C7.55183404 8.20450304 7.55183404 8.20450304 10 9 C10 9.33 10 9.66 10 10 C7.69 10 5.38 10 3 10 C0 3.375 0 3.375 0 0 Z " fill="#5C5F61" transform="translate(14,98)"/>
<path d="M0 0 C5.07713906 2.34329495 9.58116878 5.60089906 14 9 C13.67 9.66 13.34 10.32 13 11 C11.68 10.34 10.36 9.68 9 9 C9 8.34 9 7.68 9 7 C7.68 6.67 6.36 6.34 5 6 C5 5.34 5 4.68 5 4 C4.360625 3.71125 3.72125 3.4225 3.0625 3.125 C1 2 1 2 0 0 Z " fill="#B3B1AF" transform="translate(134,51)"/>
<path d="M0 0 C3.02419525 0.58803797 6.01758453 1.22678118 9 2 C9 2.66 9 3.32 9 4 C9.928125 4.2165625 9.928125 4.2165625 10.875 4.4375 C13 5 13 5 15 6 C14.67 6.66 14.34 7.32 14 8 C9.38 5.69 4.76 3.38 0 1 C0 0.67 0 0.34 0 0 Z " fill="#999795" transform="translate(124,49)"/>
<path d="M0 0 C0.99 0.33 1.98 0.66 3 1 C3 2.65 3 4.3 3 6 C1.35 6 -0.3 6 -2 6 C-2.33 5.01 -2.66 4.02 -3 3 C-2.34 3 -1.68 3 -1 3 C-0.67 2.01 -0.34 1.02 0 0 Z " fill="#2F2F2F" transform="translate(7,99)"/>
<path d="M0 0 C0 3.62875867 -1.22793994 5.01739353 -3.5546875 7.703125 C-5.55721506 9.49998757 -7.35337395 9.84876423 -10 10 C-6.66666667 6.66666667 -3.33333333 3.33333333 0 0 Z " fill="#D7D5D3" transform="translate(37,67)"/>
<path d="M0 0 C1.84765625 0.33984375 1.84765625 0.33984375 4.0625 0.9375 C5.16271484 1.22947266 5.16271484 1.22947266 6.28515625 1.52734375 C7.13400391 1.76130859 7.13400391 1.76130859 8 2 C7.01 3.485 7.01 3.485 6 5 C3.03 4.505 3.03 4.505 0 4 C-0.33 3.01 -0.66 2.02 -1 1 C-0.67 0.67 -0.34 0.34 0 0 Z " fill="#A5A5A3" transform="translate(60,69)"/>
<path d="M0 0 C3.387199 1.4388102 5.3594104 3.22119499 7.75 6 C8.67039062 7.051875 8.67039062 7.051875 9.609375 8.125 C11 10 11 10 11 12 C10.34 12 9.68 12 9 12 C7.34375 10.13671875 7.34375 10.13671875 5.5 7.6875 C4.8915625 6.88699219 4.283125 6.08648437 3.65625 5.26171875 C2.39439121 3.53856725 1.18471531 1.77707297 0 0 Z " fill="#686767" transform="translate(66,16)"/>
<path d="M0 0 C0.66 0.66 1.32 1.32 2 2 C-2.75 7.75 -2.75 7.75 -5 10 C-4.67 7.69 -4.34 5.38 -4 3 C-3.34 3 -2.68 3 -2 3 C-2 2.34 -2 1.68 -2 1 C-1.34 0.67 -0.68 0.34 0 0 Z " fill="#7C7C7B" transform="translate(60,50)"/>
<path d="M0 0 C3.63 0 7.26 0 11 0 C11.66 1.32 12.32 2.64 13 4 C8.71 3.01 4.42 2.02 0 1 C0 0.67 0 0.34 0 0 Z " fill="#A2A1A0" transform="translate(66,112)"/>
<path d="M0 0 C0.99 0.33 1.98 0.66 3 1 C-0.43361902 4.63559661 -3.7973607 7.36113346 -8 10 C-6.76044505 6.28133515 -4.81445146 4.67716114 -2 2 C-1.34 1.34 -0.68 0.68 0 0 Z " fill="#818180" transform="translate(53,45)"/>
<path d="M0 0 C0.93423645 3.01031744 1.04449911 3.86650268 0 7 C1.98 7.495 1.98 7.495 4 8 C2.35 8.66 0.7 9.32 -1 10 C-1.125 3.375 -1.125 3.375 0 0 Z " fill="#787877" transform="translate(41,61)"/>
<path d="M0 0 C2.3125 0.1875 2.3125 0.1875 5 1 C6.875 3.4375 6.875 3.4375 8 6 C7.67 6.66 7.34 7.32 7 8 C6.1028125 6.7934375 6.1028125 6.7934375 5.1875 5.5625 C3.19052724 2.77672016 3.19052724 2.77672016 0 2 C0 1.34 0 0.68 0 0 Z " fill="#484648" transform="translate(94,5)"/>
<path d="M0 0 C2 2 2 2 2.125 5.625 C2.08375 6.73875 2.0425 7.8525 2 9 C1.34 9 0.68 9 0 9 C-1.125 3.375 -1.125 3.375 0 0 Z " fill="#666564" transform="translate(94,127)"/>
<path d="M0 0 C0.33 0.99 0.66 1.98 1 3 C0.01 3.33 -0.98 3.66 -2 4 C-2 3.34 -2 2.68 -2 2 C-5.63 2 -9.26 2 -13 2 C-13 1.67 -13 1.34 -13 1 C-11.20843648 0.83222817 -9.4167455 0.66581706 -7.625 0.5 C-6.62726562 0.4071875 -5.62953125 0.314375 -4.6015625 0.21875 C-2 0 -2 0 0 0 Z " fill="#595959" transform="translate(35,114)"/>
<path d="M0 0 C0.33 0.66 0.66 1.32 1 2 C1.66 2 2.32 2 3 2 C3.33 3.98 3.66 5.96 4 8 C3.01 8.33 2.02 8.66 1 9 C0.67 6.03 0.34 3.06 0 0 Z " fill="#717171" transform="translate(110,30)"/>
<path d="M0 0 C0.99 0 1.98 0 3 0 C2.34 2.31 1.68 4.62 1 7 C0.34 7 -0.32 7 -1 7 C-1.04254356 5.00045254 -1.04080783 2.99958364 -1 1 C-0.67 0.67 -0.34 0.34 0 0 Z " fill="#0D0D0D" transform="translate(11,98)"/>
<path d="M0 0 C2 2 2 2 3 5 C0.625 4.6875 0.625 4.6875 -2 4 C-2.66 3.01 -3.32 2.02 -4 1 C-2.125 0.375 -2.125 0.375 0 0 Z " fill="#979693" transform="translate(121,44)"/>
<path d="M0 0 C0.33 0.66 0.66 1.32 1 2 C-1.97 4.475 -1.97 4.475 -5 7 C-5 5.68 -5 4.36 -5 3 C-2.5 1.25 -2.5 1.25 0 0 Z " fill="#4B4B4B" transform="translate(65,108)"/>
<path d="M0 0 C7.50769231 -0.36923077 7.50769231 -0.36923077 10 1.5 C10.495 2.2425 10.495 2.2425 11 3 C9.35 3 7.7 3 6 3 C6 2.34 6 1.68 6 1 C4.02 1 2.04 1 0 1 C0 0.67 0 0.34 0 0 Z " fill="#595A5A" transform="translate(66,109)"/>
<path d="M0 0 C0.99 0.33 1.98 0.66 3 1 C1.68 3.31 0.36 5.62 -1 8 C-1.93065133 5.39417629 -2.14917407 4.35801776 -1.0625 1.75 C-0.711875 1.1725 -0.36125 0.595 0 0 Z " fill="#858685" transform="translate(78,55)"/>
</svg>
