<?xml version="1.0" encoding="UTF-8"?>
<svg version="1.1" xmlns="http://www.w3.org/2000/svg" width="256" height="256">
<path d="M0 0 C12.0469366 3.26420395 24.08022758 6.37944509 36.30853271 8.88980103 C37.43380371 9.12118774 38.55907471 9.35257446 39.71844482 9.5909729 C63.20078895 14.21460859 86.83606169 13.5567904 109.38665771 5.28823853 C112.50995508 4.23959521 115.33696788 3.47755501 118.62103271 3.20230103 C121.68960821 6.27087653 121.32469782 10.05853811 121.68353271 14.20230103 C121.761521 14.99636353 121.83950928 15.79042603 121.91986084 16.60855103 C123.39349631 32.39228304 123.78273018 48.15348675 123.78900146 63.99526978 C123.7922308 65.95794191 123.79559599 67.92061383 123.79908752 69.88328552 C123.80502785 73.97685298 123.80693295 78.0703995 123.80633545 82.16397095 C123.80625458 86.29129455 123.81314275 90.41850623 123.82684326 94.54580688 C123.90520707 118.50889904 123.73495785 142.31784712 121.62103271 166.20230103 C121.53916718 167.16933456 121.45730164 168.1363681 121.37295532 169.13270569 C121.25151657 170.47474815 121.25151657 170.47474815 121.12762451 171.84390259 C121.05770798 172.61889099 120.98779144 173.39387939 120.91575623 174.19235229 C120.47678212 177.18605797 119.6336332 178.94665344 117.62103271 181.20230103 C88.72079055 197.71117592 52.13863733 192.78802037 21.62103271 185.20230103 C20.49938721 184.92579712 19.3777417 184.64929321 18.22210693 184.3644104 C7.85208346 181.78661967 -2.4669011 179.03888696 -12.74615479 176.12026978 C-32.07614012 170.64063475 -51.1860875 165.68741525 -71.37896729 165.20230103 C-72.18189209 165.17651978 -72.98481689 165.15073853 -73.81207275 165.12417603 C-91.57301526 164.59567485 -109.61969165 166.31385774 -125.56256104 174.92105103 C-128.37896729 176.20230103 -128.37896729 176.20230103 -130.75396729 175.88980103 C-131.55834229 175.54948853 -131.55834229 175.54948853 -132.37896729 175.20230103 C-132.29504682 173.36046769 -132.21067769 171.5186543 -132.12481689 169.6769104 C-132.04074303 167.86838824 -131.95834795 166.05978757 -131.8772583 164.25112915 C-131.60320251 158.32590252 -131.26688648 152.40949922 -130.86724854 146.49136353 C-128.01397768 102.92158418 -128.21784892 59.07196126 -131.92164612 15.56477356 C-133.03635153 2.08743075 -133.03635153 2.08743075 -130.29302979 -1.60629272 C-94.37072734 -28.62024939 -38.28595238 -10.38279947 0 0 Z " fill="#178B5E" transform="translate(132.37896728515625,39.797698974609375)"/>
<path d="M0 0 C12.0469366 3.26420395 24.08022758 6.37944509 36.30853271 8.88980103 C37.43380371 9.12118774 38.55907471 9.35257446 39.71844482 9.5909729 C63.20078895 14.21460859 86.83606169 13.5567904 109.38665771 5.28823853 C112.50995508 4.23959521 115.33696788 3.47755501 118.62103271 3.20230103 C121.68815453 6.26942284 121.32757138 10.05992594 121.68353271 14.20230103 C121.76587158 15.10657837 121.84821045 16.01085571 121.93304443 16.9425354 C122.17620607 19.69483617 122.40212234 22.4479737 122.62103271 25.20230103 C122.68177979 25.94609009 122.74252686 26.68987915 122.80511475 27.45620728 C123.94459008 42.01428019 123.72238514 56.61067088 123.62103271 71.20230103 C117.22629725 74.49487574 110.96120562 77.70305498 104.12103271 79.95230103 C102.40400146 80.53237915 102.40400146 80.53237915 100.65228271 81.12417603 C90.37483809 84.07995475 79.95160776 84.67678632 69.30853271 84.70230103 C68.6011496 84.70531219 67.89376648 84.70832336 67.16494751 84.71142578 C52.29377481 84.70748255 38.33636125 82.37487245 23.90081787 78.94448853 C21.05287379 78.30002299 18.23690797 77.79382743 15.35150146 77.35855103 C1.92608907 75.03053492 -5.39418371 66.25218244 -14.25811768 56.45181274 C-16.82738205 53.72668302 -19.57062138 51.3044594 -22.4229126 48.88247681 C-25.79345638 45.98730927 -28.97330238 42.88942166 -32.19146729 39.82730103 C-39.19746374 33.21274194 -46.3695204 27.00332871 -54.05084229 21.17495728 C-54.88099854 20.54460571 -55.71115479 19.91425415 -56.56646729 19.26480103 C-57.30252197 18.71952759 -58.03857666 18.17425415 -58.79693604 17.61245728 C-59.5800415 16.91442993 -59.5800415 16.91442993 -60.37896729 16.20230103 C-60.37896729 15.54230103 -60.37896729 14.88230103 -60.37896729 14.20230103 C-61.07506104 13.97155884 -61.77115479 13.74081665 -62.48834229 13.50308228 C-65.96073441 11.94050582 -68.69595363 9.76839031 -71.62896729 7.38980103 C-75.89365344 4.02561676 -80.06658664 1.00373724 -84.90240479 -1.50473022 C-88.30280239 -3.28001667 -91.61631229 -5.19857815 -94.94146729 -7.11019897 C-96.17186063 -7.81475776 -97.40232326 -8.51919557 -98.63287354 -9.22348022 C-99.53908447 -9.74297241 -100.44529541 -10.2624646 -101.37896729 -10.79769897 C-82.93048602 -29.24618024 -21.37395309 -5.79642023 0 0 Z " fill="#ED4740" transform="translate(132.37896728515625,39.797698974609375)"/>
<path d="M0 0 C0.29466819 11.01731621 -0.21418598 21.94634241 -0.9375 32.9375 C-1.00284943 33.94044601 -1.00284943 33.94044601 -1.06951904 34.96365356 C-1.35554346 39.31105174 -1.67359007 43.65547764 -2 48 C-2.06074707 48.98629395 -2.12149414 49.97258789 -2.18408203 50.98876953 C-2.80629513 59.42061467 -2.80629513 59.42061467 -6 63 C-34.90024216 79.50887489 -71.48239539 74.58571934 -102 67 C-103.12164551 66.72349609 -104.24329102 66.44699219 -105.39892578 66.16210938 C-115.76894926 63.58431865 -126.08793381 60.83658594 -136.3671875 57.91796875 C-158.83020921 51.5501853 -180.52868868 46.58822261 -204 47 C-204 46.01 -204 45.02 -204 44 C-200.98348832 41.25455734 -197.43727829 39.18134968 -194 37 C-193.07703125 36.41347656 -192.1540625 35.82695312 -191.203125 35.22265625 C-183.02798656 30.31549828 -174.44706203 26.27475859 -165.8125 22.25 C-164.62479004 21.69489746 -163.43708008 21.13979492 -162.21337891 20.56787109 C-156.01445888 17.71313937 -149.81757837 15.12303201 -143.37866211 12.86279297 C-140.28223571 11.73965114 -137.33788825 10.37300787 -134.375 8.9375 C-120.68177437 2.54516481 -112.80138996 3.74288903 -98.24023438 7.0078125 C-95.16365291 7.68918908 -92.08266131 8.34669053 -89 9 C-87.77933838 9.2690918 -86.55867676 9.53818359 -85.30102539 9.81542969 C-75.26786412 11.93828235 -65.55340222 12.56200001 -55.3125 12.5 C-54.52896149 12.49823761 -53.74542297 12.49647522 -52.93814087 12.49465942 C-35.13376283 12.40567942 -19.56911259 9.5690577 -3.640625 1.35546875 C-1 0 -1 0 0 0 Z " fill="#07228E" transform="translate(256,158)"/>
<path d="M0 0 C26.4592607 1.20390301 50.99198517 7.12912031 76.4375 14 C103.30452084 21.24813859 129.12317608 26.88109433 157 28 C157 28.33 157 28.66 157 29 C156.08476562 29.10957031 155.16953125 29.21914063 154.2265625 29.33203125 C153.03804687 29.49058594 151.84953125 29.64914063 150.625 29.8125 C149.44164062 29.96332031 148.25828125 30.11414063 147.0390625 30.26953125 C143.70467916 30.70699334 143.70467916 30.70699334 142 34 C142.33652369 36.51599015 142.33652369 36.51599015 143 39 C143 42 143 42 142 44 C142.38733281 46.90499604 142.93064513 49.71564503 143.625 52.5625 C144.04991918 55.3244747 143.6399337 57.29805771 143 60 C143 60.99 143 61.98 143 63 C143 70.33333333 143 77.66666667 143 85 C143.33 85.66 143.66 86.32 144 87 C129.44258014 87.54476831 115.33802148 84.74432155 101.22460938 81.48828125 C99.21902011 81.0480729 97.19568457 80.69068878 95.171875 80.34375 C84.72634605 78.1890669 79.37527808 72.21226011 72.47900391 64.59277344 C70.70495021 62.68225407 68.81284854 60.98285214 66.8125 59.3125 C63.5354665 56.54070507 60.51257583 53.55292739 57.5 50.5 C53.79695835 46.75213804 50.02353282 43.15575973 46.015625 39.734375 C43.69885379 37.74087419 41.44580016 35.68445612 39.1875 33.625 C33.93765407 28.89533697 28.52655883 24.40201138 23 20 C22.48002441 19.58572754 21.96004883 19.17145508 21.42431641 18.74462891 C14.21575872 13.02764647 6.88354784 7.77120531 -1 3 C-0.67 2.01 -0.34 1.02 0 0 Z " fill="#CD2620" transform="translate(53,25)"/>
<path d="M0 0 C1.98 0 3.96 0 6 0 C6 0.33 6 0.66 6 1 C4.35 1 2.7 1 1 1 C1 5.29 1 9.58 1 14 C2.15242187 14.11859375 3.30484375 14.2371875 4.4921875 14.359375 C26.14001439 17.11403485 45.37742679 30.53446953 62.21923828 43.61767578 C64.14464073 45.11227801 66.08553426 46.58538468 68.02734375 48.05859375 C69.33168383 49.05865193 70.63510003 50.05991647 71.9375 51.0625 C72.54787109 51.5280127 73.15824219 51.99352539 73.78710938 52.47314453 C75.22978442 53.60133657 76.62078885 54.79504973 78 56 C78 56.66 78 57.32 78 58 C77.26136719 58.35191406 76.52273437 58.70382813 75.76171875 59.06640625 C50.39970992 71.40903571 12.45871146 96.75234095 0 123 C0.02963837 122.34443115 0.05927673 121.6888623 0.08981323 121.01342773 C0.85389871 103.65196777 1.15846569 86.32241025 1.13037109 68.94482422 C1.12496582 64.97489677 1.13038247 61.00508052 1.13671875 57.03515625 C1.13965189 44.66419867 1.0355511 32.34525067 0.22045898 19.9987793 C-0.19920401 13.34200409 -0.08275132 6.66607879 0 0 Z " fill="#292626" transform="translate(2,60)"/>
<path d="M0 0 C0.29466819 11.01731621 -0.21418598 21.94634241 -0.9375 32.9375 C-1.00284943 33.94044601 -1.00284943 33.94044601 -1.06951904 34.96365356 C-1.35554346 39.31105174 -1.67359007 43.65547764 -2 48 C-2.06074707 48.98629395 -2.12149414 49.97258789 -2.18408203 50.98876953 C-2.80629513 59.42061467 -2.80629513 59.42061467 -6 63 C-34.89462821 79.505668 -71.48799619 74.59487174 -102 67 C-103.24394531 66.6915918 -104.48789063 66.38318359 -105.76953125 66.06542969 C-127.81017562 60.5552686 -127.81017562 60.5552686 -135 58 C-135 57.67 -135 57.34 -135 57 C-130.48980373 56.8048229 -126.99205024 57.43488224 -122.703125 58.8046875 C-114.48263701 61.25614674 -106.20169982 62.71576283 -97.75 64.125 C-95.52776274 64.5026446 -93.30591463 64.88249141 -91.08421326 65.26327515 C-89.65218332 65.50800492 -88.21978132 65.75056829 -86.78700256 65.99087524 C-83.11404091 66.61158917 -79.48571313 67.32454392 -75.85546875 68.15625 C-69.47943088 69.45668795 -63.04704014 69.38321348 -56.5625 69.375 C-55.9038092 69.37512085 -55.24511841 69.3752417 -54.56646729 69.37536621 C-38.80110255 69.33430187 -24.76260814 66.45908947 -10 61 C-9.01 60.67 -8.02 60.34 -7 60 C-7.33 59.34 -7.66 58.68 -8 58 C-8.89525391 58.47179687 -8.89525391 58.47179687 -9.80859375 58.953125 C-22.86576264 65.39440297 -36.56693732 67.5798235 -51 68 C-52.125 63.25 -52.125 63.25 -51 61 C-50.34 61 -49.68 61 -49 61 C-49.31710938 60.154375 -49.63421875 59.30875 -49.9609375 58.4375 C-51.04090733 54.86466749 -51.4047507 51.71976589 -51.625 48 C-51.73714844 46.2365625 -51.73714844 46.2365625 -51.8515625 44.4375 C-51.94785754 42.20750952 -51.98769899 39.97409567 -51.9609375 37.7421875 C-52.00393006 34.72411004 -52.72367229 32.71219639 -54 30 C-53.34 30 -52.68 30 -52 30 C-52.33 24.72 -52.66 19.44 -53 14 C-57.62 14 -62.24 14 -67 14 C-67 13.67 -67 13.34 -67 13 C-65.80177612 12.99383667 -65.80177612 12.99383667 -64.5793457 12.98754883 C-43.00092561 12.79406898 -23.17239073 11.41568118 -3.640625 1.35546875 C-1 0 -1 0 0 0 Z " fill="#2040B4" transform="translate(256,158)"/>
<path d="M0 0 C1.15242188 0.00902344 2.30484375 0.01804687 3.4921875 0.02734375 C4.36101563 0.03894531 5.22984375 0.05054687 6.125 0.0625 C6.125 0.7225 6.125 1.3825 6.125 2.0625 C6.84171875 2.31644531 7.5584375 2.57039063 8.296875 2.83203125 C13.43091335 5.0657634 17.67892139 8.70173323 22.125 12.0625 C22.85847656 12.61035156 23.59195313 13.15820312 24.34765625 13.72265625 C30.99220166 18.77747864 37.27730107 24.26117061 43.58300781 29.72753906 C44.80919322 30.78909413 46.04044854 31.84479239 47.2734375 32.8984375 C56.65647972 40.97031225 65.69601589 49.51487254 74.37109375 58.33984375 C76.8177479 60.74290496 79.40935968 62.9574386 82.02734375 65.17089844 C84.08880833 67.02986347 85.86630458 69.00654204 87.71484375 71.07421875 C92.22692503 75.60298441 96.55324042 76.99892624 102.6875 78.375 C103.65405518 78.61371826 104.62061035 78.85243652 105.61645508 79.09838867 C108.44618591 79.78612965 111.28215731 80.4314446 114.125 81.0625 C114.88458008 81.23652344 115.64416016 81.41054687 116.42675781 81.58984375 C128.97373996 84.4395572 141.34507385 85.28574418 154.17504883 85.35766602 C155.59116638 85.36915024 157.00724187 85.38954578 158.4230957 85.41918945 C176.73270091 85.7997979 193.49279816 80.58659131 210.125 73.0625 C210.125 77.0225 210.125 80.9825 210.125 85.0625 C192.41820091 94.46240569 175.86462345 98.51442893 155.8125 98.5625 C155.10511688 98.56551117 154.39773376 98.56852234 153.66891479 98.57162476 C138.79774209 98.56768152 124.84032853 96.23507143 110.40478516 92.8046875 C107.55684108 92.16022196 104.74087525 91.65402641 101.85546875 91.21875 C88.43005636 88.8907339 81.10978357 80.11238141 72.24584961 70.31201172 C69.67658524 67.58688199 66.93334591 65.16465838 64.08105469 62.74267578 C60.7105109 59.84750824 57.53066491 56.74962064 54.3125 53.6875 C47.30650355 47.07294092 40.13444689 40.86352768 32.453125 35.03515625 C31.62296875 34.40480469 30.7928125 33.77445313 29.9375 33.125 C29.20144531 32.57972656 28.46539062 32.03445312 27.70703125 31.47265625 C26.92392578 30.77462891 26.92392578 30.77462891 26.125 30.0625 C26.125 29.4025 26.125 28.7425 26.125 28.0625 C25.42890625 27.83175781 24.7328125 27.60101563 24.015625 27.36328125 C20.54323288 25.8007048 17.80801366 23.62858928 14.875 21.25 C10.61031384 17.88581574 6.43738064 14.86393621 1.6015625 12.35546875 C-1.79883511 10.5801823 -5.11234501 8.66162083 -8.4375 6.75 C-9.66789334 6.04544121 -10.89835597 5.34100341 -12.12890625 4.63671875 C-13.03511719 4.11722656 -13.94132812 3.59773438 -14.875 3.0625 C-10.99572606 -0.81677394 -5.20574076 -0.0531198 0 0 Z " fill="#EFEEF0" transform="translate(45.875,25.9375)"/>
<path d="M0 0 C0 3.63 0 7.26 0 11 C-17.15307888 19.98066957 -33.23130179 24.5502992 -52.55810547 24.39111328 C-54.86616522 24.37506144 -57.17246229 24.39104131 -59.48046875 24.41015625 C-69.67289905 24.42399084 -79.04198604 23.16484385 -89 21 C-91.62257187 20.48645979 -94.24863324 19.99398856 -96.875 19.5 C-101.17861844 18.64923211 -105.28071579 17.6461718 -109.4375 16.25 C-118.71314632 13.39127622 -126.43500012 17.45860632 -135 21 C-136.01707031 21.41765625 -137.03414063 21.8353125 -138.08203125 22.265625 C-140.07446728 23.09080165 -142.06405839 23.92288021 -144.05078125 24.76171875 C-145.97926761 25.57142759 -147.91403963 26.36636609 -149.85546875 27.14453125 C-157.83652349 30.36495685 -165.46520012 34.14860304 -173.125 38.05517578 C-174.78126789 38.88977952 -176.45216076 39.69522197 -178.125 40.49609375 C-185.56943255 44.06658925 -192.48276265 48.29661778 -199.43359375 52.73046875 C-200.04831543 53.12041016 -200.66303711 53.51035156 -201.29638672 53.91210938 C-202.78008189 54.85956505 -204.25241779 55.82476293 -205.72265625 56.79296875 C-208.12042871 58.06382928 -209.33294395 58.30782239 -212 58.125 C-214.49913843 58.01675107 -216.32482729 58.06496546 -218.8125 58.5625 C-221 59 -221 59 -224 58 C-222.76089089 54.28267266 -221.48990276 53.65936266 -218.3125 51.4375 C-217.3121875 50.73367187 -216.311875 50.02984375 -215.28125 49.3046875 C-214.745 48.93053711 -214.20875 48.55638672 -213.65625 48.17089844 C-211.99180063 46.99420339 -210.35359756 45.78773157 -208.71875 44.5703125 C-189.82658554 30.59082278 -168.31459521 20.75139568 -146.89941406 11.28759766 C-144.9386594 10.41684824 -142.98235486 9.53601941 -141.03027344 8.64599609 C-138.11472339 7.32026764 -135.18519451 6.03154614 -132.25 4.75 C-131.37005371 4.34273682 -130.49010742 3.93547363 -129.58349609 3.51586914 C-122.96649285 0.69681689 -118.8063019 1.03048605 -112 3 C-109.73701273 3.55753286 -107.47257793 4.10921024 -105.20703125 4.65625 C-104.00763916 4.95587646 -102.80824707 5.25550293 -101.57250977 5.56420898 C-69.10031211 13.64588768 -36.16188552 16.1835994 -5.2421875 0.953125 C-3 0 -3 0 0 0 Z " fill="#ECEFF3" transform="translate(256,147)"/>
<path d="M0 0 C20.12757449 0.55909929 39.42019228 11.98955999 55 24 C56.74872703 25.23097703 58.49876439 26.46009439 60.25 27.6875 C65.76578415 31.68086396 70.86297325 36.10375151 75.96191406 40.6081543 C76.57260742 41.14738525 77.18330078 41.68661621 77.8125 42.2421875 C78.35519531 42.7254248 78.89789063 43.20866211 79.45703125 43.70654297 C81.18131022 45.19990976 81.18131022 45.19990976 84 47 C84 47.66 84 48.32 84 49 C84.56203125 49.2475 85.1240625 49.495 85.703125 49.75 C88.39092569 51.21274867 90.46405482 52.96804873 92.75 55 C93.54921875 55.70125 94.3484375 56.4025 95.171875 57.125 C97 59 97 59 97 61 C96.3922876 61.28085449 95.7845752 61.56170898 95.15844727 61.85107422 C76.78564757 70.38247692 59.67499687 79.46852722 43.57177734 91.79833984 C42.2197241 92.83201584 40.85515602 93.8492855 39.48828125 94.86328125 C33.93851355 99.03806162 28.87063532 103.70397884 23.79296875 108.4296875 C21.63236161 110.41805043 19.4535427 112.32374353 17.1875 114.1875 C13.36353957 117.41888545 10.22137715 121.18259712 7 125 C5.71218393 126.5033072 4.4206266 128.00341907 3.125 129.5 C2.26261719 130.50546875 2.26261719 130.50546875 1.3828125 131.53125 C0.92648438 132.0159375 0.47015625 132.500625 0 133 C-0.33 133 -0.66 133 -1 133 C-1.05449838 131.27119018 -1.09301688 129.54187288 -1.125 127.8125 C-1.14820312 126.84957031 -1.17140625 125.88664062 -1.1953125 124.89453125 C-0.78539497 118.81955344 2.10336219 115.39234529 6.1875 111.125 C6.97338501 110.2911377 6.97338501 110.2911377 7.77514648 109.44042969 C9.50571941 107.61600462 11.25046673 105.80624423 13 104 C13.61198242 103.36610352 14.22396484 102.73220703 14.85449219 102.07910156 C29.98119929 86.48286398 46.72474033 73.0497197 65.3125 61.75 C65.91610352 61.37939453 66.51970703 61.00878906 67.14160156 60.62695312 C70.39789466 58.70236015 73.23804583 57.47994913 77 57 C77 56.34 77 55.68 77 55 C76.22076172 54.67515625 76.22076172 54.67515625 75.42578125 54.34375 C72.02625118 52.46059647 69.16923161 49.96899388 66.1875 47.5 C58.76417329 41.4718311 51.08101438 36.10231255 43 31 C42.33242676 30.56913086 41.66485352 30.13826172 40.97705078 29.69433594 C28.01545238 21.37172208 14.90792318 16.62217256 0 13 C0 8.71 0 4.42 0 0 Z " fill="#F8D933" transform="translate(3,61)"/>
<path d="M0 0 C1.73830078 0.87398437 1.73830078 0.87398437 3.51171875 1.765625 C6.3125 3.75 6.3125 3.75 7.20703125 6.296875 C7.42313415 11.32326829 7.42313415 11.32326829 6.875 13.4375 C5.20347978 19.70957499 5.20347978 19.70957499 6.3125 25.75 C6.1077872 31.444738 5.3712474 37.15376372 4.3125 42.75 C0.17225726 41.46572973 -3.54250456 39.8932036 -7.375 37.875 C-13.01299215 35.00347605 -18.69913941 32.76887727 -24.6875 30.75 C-25.76 30.358125 -26.8325 29.96625 -27.9375 29.5625 C-31.16380608 28.6092732 -34.35730574 28.19949805 -37.6875 27.75 C-37.99103638 24.68758837 -38.25614125 21.62975092 -38.5 18.5625 C-38.63438477 17.26602539 -38.63438477 17.26602539 -38.77148438 15.94335938 C-39.0876667 11.60001272 -39.2076426 9.49620458 -36.65625 5.8359375 C-33.37842579 3.5328347 -30.11147394 1.93652789 -26.375 0.5625 C-25.71072998 0.30911865 -25.04645996 0.0557373 -24.36206055 -0.20532227 C-14.37588763 -3.94876219 -9.64156219 -4.9665382 0 0 Z " fill="#3BB88A" transform="translate(38.6875,32.25)"/>
<path d="M0 0 C1.90275921 6.81155818 2 13.97181974 2 21 C2.495 22.485 2.495 22.485 3 24 C4.15384615 29.53846154 4.15384615 29.53846154 3 33 C3.99 33.33 4.98 33.66 6 34 C4.35 35.65 2.7 37.3 1 39 C1.99 39.495 1.99 39.495 3 40 C1.75605469 40.30292969 0.51210938 40.60585937 -0.76953125 40.91796875 C-9.19031667 43.02168421 -17.16703128 45.04941966 -24.87109375 49.1796875 C-27.41060322 50.15821408 -28.45281917 49.7521295 -31 49 C-30.97717062 45.58185979 -30.89982966 42.16705287 -30.8125 38.75 C-30.80669922 37.78191406 -30.80089844 36.81382812 -30.79492188 35.81640625 C-30.57079876 28.59466159 -30.57079876 28.59466159 -27.6640625 25.56640625 C-26.34535156 24.79103516 -26.34535156 24.79103516 -25 24 C-23.81844847 22.76230563 -22.67016807 21.49173266 -21.5625 20.1875 C-20.964375 19.49140625 -20.36625 18.7953125 -19.75 18.078125 C-18.65894886 16.78250178 -17.57441927 15.48132349 -16.5 14.171875 C-11.83787542 8.54692035 -6.73206845 3.06683118 0 0 Z " fill="#1C875D" transform="translate(31,166)"/>
<path d="M0 0 C-4.06873272 1.85154567 -7.89082406 2.54646296 -12.3125 3.125 C-13.56675781 3.29257812 -14.82101563 3.46015625 -16.11328125 3.6328125 C-17.06589844 3.75398438 -18.01851562 3.87515625 -19 4 C-18.94465088 4.74870361 -18.88930176 5.49740723 -18.83227539 6.26879883 C-17.88456426 19.14721683 -16.95003454 32.01982492 -16.32666016 44.91845703 C-16.05892488 50.30587239 -15.61487253 55.64182509 -15 61 C-17.93847653 61.107834 -20.87301151 61.18721916 -23.8125 61.25 C-25.06256836 61.30027344 -25.06256836 61.30027344 -26.33789062 61.3515625 C-32.46320429 61.44996111 -32.46320429 61.44996111 -35.125 59.21875 C-36.47924795 55.78476412 -35.22548879 53.35396931 -34 50 C-34.66 49.67 -35.32 49.34 -36 49 C-35.835 47.948125 -35.67 46.89625 -35.5 45.8125 C-35.10280255 42.78386944 -34.9156199 40.03768358 -35 37 C-35 26 -35 26 -34.9375 23 C-34.85282956 19.94751264 -34.85282956 19.94751264 -36 17 C-35.835 16.21625 -35.67 15.4325 -35.5 14.625 C-34.95221266 11.74911647 -35.27719833 9.81089538 -36 7 C-35.34 7 -34.68 7 -34 7 C-33.67 6.01 -33.34 5.02 -33 4 C-32.17757812 3.87882812 -31.35515625 3.75765625 -30.5078125 3.6328125 C-23.62670745 2.59985216 -16.81282182 1.40954934 -10 0 C-6.25830842 -0.76219643 -3.64123822 -1.26042862 0 0 Z " fill="#EC463F" transform="translate(230,51)"/>
<path d="M0 0 C0.89758306 2.69274919 1.12836222 4.25686008 1.1328125 7.01953125 C1.13474609 8.18258789 1.13474609 8.18258789 1.13671875 9.36914062 C1.13285156 10.17544922 1.12898438 10.98175781 1.125 11.8125 C1.13080078 13.00456055 1.13080078 13.00456055 1.13671875 14.22070312 C1.12945606 18.61099778 0.73069221 22.66234532 0 27 C0.33 27.66 0.66 28.32 1 29 C0.34 29.99 -0.32 30.98 -1 32 C-0.66361169 33.96715479 -0.66361169 33.96715479 0 36 C0.21297581 39.01852943 0.18509702 42.03714321 0.1875 45.0625 C0.19974609 45.87783203 0.21199219 46.69316406 0.22460938 47.53320312 C0.22750977 48.70979492 0.22750977 48.70979492 0.23046875 49.91015625 C0.23457764 50.62308838 0.23868652 51.33602051 0.24291992 52.07055664 C0 54 0 54 -2 57 C-1.34 57.66 -0.68 58.32 0 59 C-4.95 59.495 -4.95 59.495 -10 60 C-12.04309149 51.28053006 -12.60160992 42.65652505 -13.0625 33.75 C-13.17943465 31.61503105 -13.29840802 29.48018246 -13.41757202 27.34533691 C-13.49543304 25.94751644 -13.57245078 24.54964871 -13.64859009 23.1517334 C-14.01871433 16.42845588 -14.49567817 9.71457136 -15 3 C-11.32901963 1.74099951 -7.9952329 0.72683935 -4.125 0.375 C-3.34382812 0.30023438 -2.56265625 0.22546875 -1.7578125 0.1484375 C-0.88769531 0.07496094 -0.88769531 0.07496094 0 0 Z " fill="#FC5E58" transform="translate(225,52)"/>
<path d="M0 0 C0.66 0.33 1.32 0.66 2 1 C1.4740625 2.423125 1.4740625 2.423125 0.9375 3.875 C-0.35026777 6.87060172 -0.35026777 6.87060172 1 9 C0.0625 11.125 0.0625 11.125 -1 13 C-0.34 13.33 0.32 13.66 1 14 C1 15.98 1 17.96 1 20 C0.34 20 -0.32 20 -1 20 C-1 20.66 -1 21.32 -1 22 C0.32 22 1.64 22 3 22 C3 22.66 3 23.32 3 24 C3.96035156 24.11214844 4.92070313 24.22429687 5.91015625 24.33984375 C10.53579565 25.00064938 14.95394836 26.27271117 19.4375 27.5625 C20.26443359 27.79646484 21.09136719 28.03042969 21.94335938 28.27148438 C23.96338426 28.84363015 25.98185676 29.42125204 28 30 C28 30.66 28 31.32 28 32 C29.32 32.66 30.64 33.32 32 34 C25.83851319 33.35817846 20.00430343 32.12690779 14 30.625 C-3.00683582 26.49617281 -19.41064086 23.69141475 -37 24 C-37 23.01 -37 22.02 -37 21 C-27.29636603 12.16835157 -12.32469827 4.51779584 0 0 Z " fill="#2242B7" transform="translate(89,181)"/>
<path d="M0 0 C-0.16242187 0.91394531 -0.32484375 1.82789063 -0.4921875 2.76953125 C-1.24569479 8.05872643 -1.14520962 13.35552771 -1.125 18.6875 C-1.12886719 19.71939453 -1.13273437 20.75128906 -1.13671875 21.81445312 C-1.13478516 23.30428711 -1.13478516 23.30428711 -1.1328125 24.82421875 C-1.13168457 25.72229248 -1.13055664 26.62036621 -1.12939453 27.5456543 C-1.00853116 29.8381816 -0.6442289 31.80341616 0 34 C-14.18181818 31.81818182 -14.18181818 31.81818182 -16 30 C-18.32817964 29.63239269 -20.6618385 29.29758419 -23 29 C-23.30353638 25.93758837 -23.56864125 22.87975092 -23.8125 19.8125 C-23.94688477 18.51602539 -23.94688477 18.51602539 -24.08398438 17.19335938 C-24.40514122 12.78167856 -24.53803071 10.74511803 -21.87890625 7.0625 C-15.41261578 2.42993369 -8.0466807 -0.91439553 0 0 Z " fill="#0F6947" transform="translate(24,31)"/>
<path d="M0 0 C4.25158682 0.24885812 8.50067019 0.52786662 12.75 0.8125 C13.9565625 0.88275391 15.163125 0.95300781 16.40625 1.02539062 C17.56640625 1.10595703 18.7265625 1.18652344 19.921875 1.26953125 C21.52434082 1.37164917 21.52434082 1.37164917 23.15917969 1.47583008 C26.26078811 2.04811895 27.62079224 3.00327081 30 5 C32.34950017 5.41697614 34.59486415 5.49879857 36.9765625 5.59375 C39 6 39 6 41 9 C40.70131344 11.00546689 40.36628677 13.00577205 40 15 C40.2981424 16.34164079 40.62243192 17.67851173 41 19 C40.67 19.66 40.34 20.32 40 21 C40.495 22.485 40.495 22.485 41 24 C40.67 24.66 40.34 25.32 40 26 C40.495 27.485 40.495 27.485 41 29 C40.0625 31.1875 40.0625 31.1875 39 33 C34.59827428 29.86469257 30.49842881 26.58138922 26.5625 22.875 C18.28302518 15.29192961 8.72348241 8.61631401 -1 3 C-0.67 2.01 -0.34 1.02 0 0 Z " fill="#EA4740" transform="translate(53,25)"/>
<path d="M0 0 C0.66 0.33 1.32 0.66 2 1 C1.01 2.485 1.01 2.485 0 4 C0.309375 4.598125 0.61875 5.19625 0.9375 5.8125 C2 8 2 8 3 11 C2.67 11.66 2.34 12.32 2 13 C2.66 13.33 3.32 13.66 4 14 C4 17 4 17 3 20 C3.66 20.33 4.32 20.66 5 21 C5.625 23.0625 5.625 23.0625 6 25 C5.34 25 4.68 25 4 25 C4.2475 26.1446875 4.2475 26.1446875 4.5 27.3125 C5 30 5 30 5 33 C5.99 33 6.98 33 8 33 C8 33.99 8 34.98 8 36 C6.07333096 37.67920696 4.19964822 39.15328158 2.125 40.625 C1.56941406 41.03234375 1.01382813 41.4396875 0.44140625 41.859375 C-1.65178297 43.38261149 -3.68058796 44.84029398 -6 46 C-6.99 45.67 -7.98 45.34 -9 45 C-8.979375 44.2575 -8.95875 43.515 -8.9375 42.75 C-8.99428442 40.25148567 -9.38938858 38.39721522 -10 36 C-10.86554702 29.29201061 -11.28192773 22.59820527 -11.62109375 15.84375 C-11.74613281 14.9053125 -11.87117188 13.966875 -12 13 C-12.66 12.67 -13.32 12.34 -14 12 C-12.41856529 10.56041153 -10.83477221 9.12341355 -9.25 7.6875 C-8.36828125 6.88699219 -7.4865625 6.08648437 -6.578125 5.26171875 C-4.44550672 3.39083089 -2.29812057 1.65915714 0 0 Z " fill="#2CA477" transform="translate(43,154)"/>
<path d="M0 0 C2.10852713 3.47286822 2.10852713 3.47286822 1.5625 6.125 C1.376875 6.74375 1.19125 7.3625 1 8 C1.33 8.66 1.66 9.32 2 10 C2.07065617 12.04055005 2.08421976 14.08334257 2.0625 16.125 C2.05347656 17.22070312 2.04445313 18.31640625 2.03515625 19.4453125 C2.02355469 20.28835937 2.01195313 21.13140625 2 22 C5.63 21.67 9.26 21.34 13 21 C13 21.66 13 22.32 13 23 C8.38 23.99 3.76 24.98 -1 26 C-1.33 27.65 -1.66 29.3 -2 31 C-3.92578125 32.3984375 -3.92578125 32.3984375 -6.3125 33.375 C-7.09238281 33.71273437 -7.87226562 34.05046875 -8.67578125 34.3984375 C-11.26026489 35.06736268 -12.48675489 34.72846725 -15 34 C-14.97717062 30.58185979 -14.89982966 27.16705287 -14.8125 23.75 C-14.80669922 22.78191406 -14.80089844 21.81382812 -14.79492188 20.81640625 C-14.57073171 13.59250091 -14.57073171 13.59250091 -11.64453125 10.5546875 C-10.77183594 10.04164063 -9.89914063 9.52859375 -9 9 C-7.92265792 7.82336372 -6.87627043 6.61701305 -5.875 5.375 C-3.94925085 2.99123484 -2.62479446 1.74986297 0 0 Z " fill="#097048" transform="translate(15,181)"/>
<path d="M0 0 C0.33 0 0.66 0 1 0 C1.08187055 1.56160485 1.13958275 3.12448483 1.1875 4.6875 C1.22230469 5.55761719 1.25710937 6.42773438 1.29296875 7.32421875 C0.92339483 10.69966056 0.12905278 12.34856107 -2 15 C-30.89462821 31.505668 -67.48799619 26.59487174 -98 19 C-99.24394531 18.6915918 -100.48789063 18.38318359 -101.76953125 18.06542969 C-123.81017562 12.5552686 -123.81017562 12.5552686 -131 10 C-131 9.67 -131 9.34 -131 9 C-126.48980373 8.8048229 -122.99205024 9.43488224 -118.703125 10.8046875 C-110.48263701 13.25614674 -102.20169982 14.71576283 -93.75 16.125 C-91.52776274 16.5026446 -89.30591463 16.88249141 -87.08421326 17.26327515 C-85.65218332 17.50800492 -84.21978132 17.75056829 -82.78700256 17.99087524 C-79.11404091 18.61158917 -75.48571313 19.32454392 -71.85546875 20.15625 C-65.47943088 21.45668795 -59.04704014 21.38321348 -52.5625 21.375 C-51.9038092 21.37512085 -51.24511841 21.3752417 -50.56646729 21.37536621 C-32.89530393 21.3293378 -17.36253794 17.54501518 -1 11 C-0.67 7.37 -0.34 3.74 0 0 Z " fill="#223072" transform="translate(252,206)"/>
<path d="M0 0 C0.66 0.33 1.32 0.66 2 1 C1.01 1.7734375 1.01 1.7734375 0 2.5625 C-2.69562899 5.84779783 -2.37085759 7.846395 -2 12 C-1.61521484 12.96099609 -1.61521484 12.96099609 -1.22265625 13.94140625 C-1 16 -1 16 -2.6953125 18.18359375 C-3.89800781 19.29927734 -3.89800781 19.29927734 -5.125 20.4375 C-6.37990234 21.62472656 -6.37990234 21.62472656 -7.66015625 22.8359375 C-8.43230469 23.55007812 -9.20445313 24.26421875 -10 25 C-10.845625 25.845625 -11.69125 26.69125 -12.5625 27.5625 C-14.00326712 29.00326712 -15.44820266 30.43991966 -16.90234375 31.8671875 C-20.05433023 34.97808663 -23.13648357 38.0657103 -25.9375 41.5 C-26.618125 42.325 -27.29875 43.15 -28 44 C-28.33 44 -28.66 44 -29 44 C-29.05449838 42.27119018 -29.09301688 40.54187288 -29.125 38.8125 C-29.14820312 37.84957031 -29.17140625 36.88664062 -29.1953125 35.89453125 C-28.78534711 29.81884419 -25.89614356 26.39348076 -21.8125 22.125 C-21.29655273 21.57561768 -20.78060547 21.02623535 -20.24902344 20.46020508 C-13.65408094 13.48988516 -6.83009076 6.73874181 0 0 Z " fill="#ECBD21" transform="translate(31,150)"/>
<path d="M0 0 C-0.17402344 0.66773437 -0.34804688 1.33546875 -0.52734375 2.0234375 C-1.09978645 5.62840724 -0.85397548 9.01196216 -0.5625 12.625 C0.10772422 22.08890162 0.09368349 31.51714878 0 41 C-2.97 40.01 -5.94 39.02 -9 38 C-8.67 37.34 -8.34 36.68 -8 36 C-8.33028227 34.66590761 -8.6643363 33.33274858 -9 32 C-9.0925252 29.91434229 -9.13067923 27.82598919 -9.1328125 25.73828125 C-9.13410156 24.53751953 -9.13539062 23.33675781 -9.13671875 22.09960938 C-9.13285156 20.84986328 -9.12898438 19.60011719 -9.125 18.3125 C-9.12886719 17.05115234 -9.13273437 15.78980469 -9.13671875 14.49023438 C-9.13542969 13.29333984 -9.13414063 12.09644531 -9.1328125 10.86328125 C-9.13168457 9.76282471 -9.13055664 8.66236816 -9.12939453 7.52856445 C-9 5 -9 5 -8 4 C-8.99 3.34 -9.98 2.68 -11 2 C-3.375 0 -3.375 0 0 0 Z " fill="#2CA274" transform="translate(31,28)"/>
<path d="M0 0 C0 0.66 0 1.32 0 2 C1.32 2 2.64 2 4 2 C4 2.66 4 3.32 4 4 C4.96035156 4.11214844 5.92070313 4.22429687 6.91015625 4.33984375 C11.53579565 5.00064938 15.95394836 6.27271117 20.4375 7.5625 C21.67790039 7.91344727 21.67790039 7.91344727 22.94335938 8.27148438 C24.96338426 8.84363015 26.98185676 9.42125204 29 10 C29 10.66 29 11.32 29 12 C30.32 12.66 31.64 13.32 33 14 C26.83851319 13.35817846 21.00430343 12.12690779 15 10.625 C-2.00683582 6.49617281 -18.41064086 3.69141475 -36 4 C-36 3.01 -36 2.02 -36 1 C-28.40207286 -6.50998816 -9.76668574 -1.08089803 0 0 Z M0 -1 C2 0 2 0 2 0 Z " fill="#243B99" transform="translate(88,201)"/>
<path d="M0 0 C8.05353101 0.41836525 14.56027691 1.90611129 22 5 C22.19747219 6.39445749 22.38248587 7.79068152 22.5625 9.1875 C22.66691406 9.96480469 22.77132813 10.74210937 22.87890625 11.54296875 C23.00981379 14.19912494 22.6180707 16.42241629 22 19 C21.41734375 18.81824219 20.8346875 18.63648437 20.234375 18.44921875 C13.54026818 16.39678034 6.80177729 14.66089911 0 13 C0 8.71 0 4.42 0 0 Z " fill="#EFBB1F" transform="translate(3,61)"/>
<path d="M0 0 C-0.16242187 0.91394531 -0.32484375 1.82789063 -0.4921875 2.76953125 C-1.24569479 8.05872643 -1.14520962 13.35552771 -1.125 18.6875 C-1.12886719 19.71939453 -1.13273437 20.75128906 -1.13671875 21.81445312 C-1.13478516 23.30428711 -1.13478516 23.30428711 -1.1328125 24.82421875 C-1.13168457 25.72229248 -1.13055664 26.62036621 -1.12939453 27.5456543 C-1.00853116 29.8381816 -0.6442289 31.80341616 0 34 C-3.75519057 33.48792856 -6.66688525 32.7824918 -10 31 C-9.98259766 29.06447266 -9.98259766 29.06447266 -9.96484375 27.08984375 C-9.9554588 25.37239729 -9.94635936 23.65494925 -9.9375 21.9375 C-9.92912109 21.08994141 -9.92074219 20.24238281 -9.91210938 19.36914062 C-9.89313751 14.45542741 -10.23034925 9.84942546 -11 5 C-10.75 2.625 -10.75 2.625 -10 1 C-6.52674819 -0.1577506 -3.63932552 -0.06866652 0 0 Z " fill="#157A54" transform="translate(24,31)"/>
<path d="M0 0 C6.96817762 0.64786775 13.66965348 1.86711798 20.5 3.375 C21.48097656 3.58382812 22.46195313 3.79265625 23.47265625 4.0078125 C28.63073223 5.13420992 33.58124203 6.47234775 38.56494141 8.20556641 C43.7787031 9.90654701 49.11890721 11.17278425 54.4375 12.5 C55.67363037 12.80897217 56.90976074 13.11794434 58.18334961 13.4362793 C67.74319574 15.78185249 77.27039042 17.56232616 87 19 C90.67157099 19.64100355 94.33657312 20.31411611 98 21 C98 21.33 98 21.66 98 22 C85.12445158 22.9421133 73.29993477 20.26291083 60.76611328 17.56787109 C57.45508922 16.88813217 54.1622256 16.38550011 50.8125 15.9375 C45.10239439 15.12946619 39.701784 13.60406064 34.18359375 11.94921875 C31.54855034 11.1635555 28.92238341 10.45522512 26.25 9.8125 C23 9 23 9 21 8 C21 7.34 21 6.68 21 6 C20.40574219 5.89042969 19.81148437 5.78085938 19.19921875 5.66796875 C12.70154153 4.42502272 6.3605714 2.81385116 0 1 C0 0.67 0 0.34 0 0 Z " fill="#021464" transform="translate(96,205)"/>
<path d="M0 0 C1.90275921 6.81155818 2 13.97181974 2 21 C2.33 21.99 2.66 22.98 3 24 C4.15384615 29.53846154 4.15384615 29.53846154 3 33 C3.99 33.33 4.98 33.66 6 34 C1.05 34.495 1.05 34.495 -4 35 C-3.96744792 32.78645833 -3.93489583 30.57291667 -3.90234375 28.359375 C-3.91234901 26.05388819 -3.91234901 26.05388819 -4.50390625 24.10546875 C-5.42269048 20.20606166 -5.01136517 16.17550912 -4.9375 12.19140625 C-4.90178611 9.0444729 -4.90178611 9.0444729 -5.578125 6.19921875 C-5.71734375 5.47347656 -5.8565625 4.74773437 -6 4 C-4.18682851 1.46155991 -3.01532925 1.00510975 0 0 Z " fill="#219468" transform="translate(31,166)"/>
<path d="M0 0 C0.33 0 0.66 0 1 0 C1.08187055 1.56160485 1.13958275 3.12448483 1.1875 4.6875 C1.23970703 5.99267578 1.23970703 5.99267578 1.29296875 7.32421875 C0.92180071 10.71422021 0.15395018 12.34594733 -2 15 C-4.34250446 16.27399365 -6.39840293 17.22719462 -8.875 18.125 C-9.54772949 18.37652832 -10.22045898 18.62805664 -10.91357422 18.88720703 C-24.4180639 23.80053587 -36.75729531 24.39389128 -51 24 C-50.67 23.34 -50.34 22.68 -50 22 C-47.15355904 21.61682526 -44.36006308 21.34287261 -41.5 21.125 C-29.64894614 20.04518244 -17.48327986 18.29067595 -6.76171875 12.83203125 C-5 12 -5 12 -1 11 C-0.67 7.37 -0.34 3.74 0 0 Z " fill="#364385" transform="translate(252,206)"/>
<path d="M0 0 C-0.65355469 0.33128906 -1.30710937 0.66257812 -1.98046875 1.00390625 C-4.37277118 2.95357882 -4.37277118 2.95357882 -4.42578125 6.58984375 C-4.40951412 8.03946308 -4.37051153 9.48895055 -4.3125 10.9375 C-4.29775635 11.69514648 -4.2830127 12.45279297 -4.26782227 13.23339844 C-4.13384483 18.67299736 -3.74664737 24.07835608 -3.12109375 29.484375 C-2.99212098 32.16368026 -3.36911296 34.40168005 -4 37 C-5.65 37 -7.3 37 -9 37 C-8.67 36.34 -8.34 35.68 -8 35 C-8.33028227 33.66590761 -8.6643363 32.33274858 -9 31 C-9.0925252 28.91434229 -9.13067923 26.82598919 -9.1328125 24.73828125 C-9.13410156 23.53751953 -9.13539062 22.33675781 -9.13671875 21.09960938 C-9.13285156 19.84986328 -9.12898438 18.60011719 -9.125 17.3125 C-9.12886719 16.05115234 -9.13273437 14.78980469 -9.13671875 13.49023438 C-9.13542969 12.29333984 -9.13414063 11.09644531 -9.1328125 9.86328125 C-9.13168457 8.76282471 -9.13055664 7.66236816 -9.12939453 6.52856445 C-9 4 -9 4 -8 3 C-8.99 2.34 -9.98 1.68 -11 1 C-3.375 -1.125 -3.375 -1.125 0 0 Z " fill="#219165" transform="translate(31,29)"/>
<path d="M0 0 C0.495 1.485 0.495 1.485 1 3 C-6.23723743 7.13556425 -13.8997184 9.18793563 -22 11 C-22.78528076 11.18385254 -23.57056152 11.36770508 -24.37963867 11.55712891 C-32.47671417 13.26360284 -40.44541987 13.22954236 -48.6875 13.125 C-50.0826758 13.11494059 -51.4778587 13.10582002 -52.87304688 13.09765625 C-56.2488837 13.07429406 -59.62434618 13.04153668 -63 13 C-63 12.67 -63 12.34 -63 12 C-60.98523539 11.79657586 -58.97044777 11.59337779 -56.95556641 11.39111328 C-55.16992984 11.21132907 -53.38445084 11.02997391 -51.59912109 10.84716797 C-46.89828323 10.37029508 -42.19928511 9.92663556 -37.48828125 9.5625 C-24.10489312 8.49667362 -11.90896293 6.66901924 0 0 Z " fill="#1D3593" transform="translate(248,215)"/>
<path d="M0 0 C2.99261967 2.99261967 2.4260494 6.41423776 2.5625 10.4375 C2.63533981 12.07558273 2.7095557 13.71360486 2.78515625 15.3515625 C2.82012207 16.14852539 2.85508789 16.94548828 2.89111328 17.76660156 C3.14965964 23.06970041 3.44887997 28.41782923 4.55859375 33.6171875 C5.06615934 36.35714334 4.68870539 38.32170128 4 41 C4.66 41.33 5.32 41.66 6 42 C1.125 41.125 1.125 41.125 0 40 C-0.14630203 38.2040295 -0.22744262 36.40267857 -0.28125 34.6015625 C-0.31863281 33.48136719 -0.35601563 32.36117187 -0.39453125 31.20703125 C-0.42933594 30.02496094 -0.46414062 28.84289062 -0.5 27.625 C-0.72889369 20.1054183 -1.02965234 12.68663648 -1.99414062 5.22021484 C-2 3 -2 3 0 0 Z " fill="#33B080" transform="translate(31,29)"/>
<path d="M0 0 C0.86935941 3.0231385 1.14574151 5.77329059 1.2109375 8.9140625 C1.23929688 9.83960938 1.26765625 10.76515625 1.296875 11.71875 C1.349163 13.66386352 1.39337192 15.60921023 1.4296875 17.5546875 C1.460625 18.47765625 1.4915625 19.400625 1.5234375 20.3515625 C1.54325684 21.19541504 1.56307617 22.03926758 1.58349609 22.90869141 C1.72094238 23.59882324 1.85838867 24.28895508 2 25 C2.99 25.66 3.98 26.32 5 27 C2.03 27.33 -0.94 27.66 -4 28 C-4 22.33333333 -4 16.66666667 -4 11 C-4.268125 9.865625 -4.53625 8.73125 -4.8125 7.5625 C-4.874375 6.386875 -4.93625 5.21125 -5 4 C-2.5625 1.5625 -2.5625 1.5625 0 0 Z " fill="#117E54" transform="translate(20,176)"/>
<path d="M0 0 C1.16917969 0.17208984 2.33835937 0.34417969 3.54296875 0.52148438 C5.37021484 0.81829102 5.37021484 0.81829102 7.234375 1.12109375 C9.03841797 1.37729492 9.03841797 1.37729492 10.87890625 1.63867188 C17.65271828 2.68337066 23.06596026 4.0767403 28.984375 7.55859375 C26.05102535 8.45471325 24.00257777 8.58391442 21 8 C20.2366333 7.86118408 19.4732666 7.72236816 18.68676758 7.5793457 C17.87747803 7.42812256 17.06818848 7.27689941 16.234375 7.12109375 C7.37760836 5.57516359 -1.03512611 5.22414758 -10.015625 5.55859375 C-10.015625 2.55859375 -10.015625 2.55859375 -8.39160156 0.84350586 C-5.24960115 -0.85566678 -3.5124564 -0.52334211 0 0 Z " fill="#38427E" transform="translate(62.015625,199.44140625)"/>
<path d="M0 0 C1.32 0.33 2.64 0.66 4 1 C3.67 1.99 3.34 2.98 3 4 C2.90553046 5.94482486 2.86928294 7.89272695 2.8671875 9.83984375 C2.86589844 10.98517578 2.86460938 12.13050781 2.86328125 13.31054688 C2.86714844 14.50744141 2.87101562 15.70433594 2.875 16.9375 C2.87113281 18.13052734 2.86726563 19.32355469 2.86328125 20.55273438 C2.86521484 22.27266602 2.86521484 22.27266602 2.8671875 24.02734375 C2.86887939 25.60116821 2.86887939 25.60116821 2.87060547 27.20678711 C2.98349985 29.64381462 3.29732359 31.67530641 4 34 C2.02 33.67 0.04 33.34 -2 33 C-1.814375 31.96875 -1.62875 30.9375 -1.4375 29.875 C-0.91656677 25.85739169 -1.15493472 22.09408551 -1.5 18.0625 C-2.58084177 5.16168353 -2.58084177 5.16168353 0 0 Z " fill="#1A875D" transform="translate(20,31)"/>
<path d="M0 0 C1.81213643 1.5539557 2.87620399 2.61194711 3.609375 4.91015625 C3.88313361 9.10018393 3.48701892 11.30837549 1.01953125 14.8125 C-1.23198392 17.33247882 -3.49508589 19.73184525 -6 22 C-6.33 22 -6.66 22 -7 22 C-7.05449838 20.27119018 -7.09301688 18.54187288 -7.125 16.8125 C-7.14820313 15.84957031 -7.17140625 14.88664063 -7.1953125 13.89453125 C-6.78401517 7.79910482 -3.88807471 4.39966349 0 0 Z " fill="#DEA411" transform="translate(9,172)"/>
<path d="M0 0 C7.1184209 0.66735196 14.00957238 1.88654393 21 3.375 C22.04800781 3.58382812 23.09601563 3.79265625 24.17578125 4.0078125 C25.16964844 4.21921875 26.16351563 4.430625 27.1875 4.6484375 C28.53908203 4.92953369 28.53908203 4.92953369 29.91796875 5.21630859 C30.60503906 5.47492676 31.29210937 5.73354492 32 6 C32.495 7.485 32.495 7.485 33 9 C35.77834277 10.19026667 35.77834277 10.19026667 39.125 11.0625 C40.29675781 11.39894531 41.46851563 11.73539063 42.67578125 12.08203125 C43.77277344 12.38496094 44.86976563 12.68789062 46 13 C47.43776075 13.41576603 48.87533347 13.83218458 50.3125 14.25 C51.199375 14.4975 52.08625 14.745 53 15 C48.95863398 16.61654641 45.38767897 15.33963777 41.375 14.25 C40.31128174 13.97192505 40.31128174 13.97192505 39.22607422 13.68823242 C24.71189713 9.85594856 24.71189713 9.85594856 21 8 C21 7.34 21 6.68 21 6 C20.40574219 5.89042969 19.81148437 5.78085938 19.19921875 5.66796875 C12.70154153 4.42502272 6.3605714 2.81385116 0 1 C0 0.67 0 0.34 0 0 Z " fill="#0E2374" transform="translate(96,205)"/>
<path d="M0 0 C5.83581332 1.00084566 11.62640985 2.11499743 17.3984375 3.4375 C34.70981747 7.34999824 51.2649701 9.28816046 69 10 C69 10.33 69 10.66 69 11 C49.9468818 11.34433346 31.61417091 10.23049339 13 6 C13 5.34 13 4.68 13 4 C11.783125 3.87625 10.56625 3.7525 9.3125 3.625 C5.93520941 3.21108694 3.10243305 2.45426549 0 1 C0 0.67 0 0.34 0 0 Z " fill="#96302D" transform="translate(141,43)"/>
<path d="M0 0 C3.63 0.33 7.26 0.66 11 1 C9.68 1.99 8.36 2.98 7 4 C7.33 4.66 7.66 5.32 8 6 C7.67 6.66 7.34 7.32 7 8 C7.99 8.33 8.98 8.66 10 9 C9.34 10.65 8.68 12.3 8 14 C5.36 13.67 2.72 13.34 0 13 C0 8.71 0 4.42 0 0 Z " fill="#DBA011" transform="translate(3,61)"/>
<path d="M0 0 C0 2.79784711 -0.37195775 4.9790678 -1 7.6875 C-1.185625 8.49574219 -1.37125 9.30398437 -1.5625 10.13671875 C-1.7790625 11.05904297 -1.7790625 11.05904297 -2 12 C-1.34 12.33 -0.68 12.66 0 13 C-1.11733729 14.50571657 -2.24410035 16.00444292 -3.375 17.5 C-4.00148438 18.3353125 -4.62796875 19.170625 -5.2734375 20.03125 C-5.84320313 20.6809375 -6.41296875 21.330625 -7 22 C-7.66 22 -8.32 22 -9 22 C-8.96744792 20.046875 -8.93489583 18.09375 -8.90234375 16.140625 C-8.87784161 13.9795569 -8.87784161 13.9795569 -9.8125 12.0625 C-10 10 -10 10 -7.91015625 7.421875 C-6.97042969 6.54015625 -6.03070312 5.6584375 -5.0625 4.75 C-4.12535156 3.85796875 -3.18820313 2.9659375 -2.22265625 2.046875 C-1.48917969 1.37140625 -0.75570313 0.6959375 0 0 Z " fill="#E4AC17" transform="translate(20,161)"/>
<path d="M0 0 C1.86785156 0.01353516 1.86785156 0.01353516 3.7734375 0.02734375 C5.18496094 0.04474609 5.18496094 0.04474609 6.625 0.0625 C3.98943805 3.17725503 2.40986712 4.88137682 -1.625 5.8125 C-2.8625 5.895 -4.1 5.9775 -5.375 6.0625 C-6.95865484 6.26837513 -8.54198336 6.47677376 -10.125 6.6875 C-13.15925891 7.08004399 -14.37645547 7.06201484 -17.375 6.0625 C-16.375 3.0625 -16.375 3.0625 -13.375 1.0625 C-8.89114399 0.04110587 -4.58637325 -0.04326767 0 0 Z " fill="#D0D5DD" transform="translate(49.375,198.9375)"/>
<path d="M0 0 C0 0.66 0 1.32 0 2 C0.66 2.33 1.32 2.66 2 3 C1.625 5.4375 1.625 5.4375 1 8 C-2.06533164 9.53266582 -5.26754272 9.10276471 -8.625 9.0625 C-9.33140625 9.05798828 -10.0378125 9.05347656 -10.765625 9.04882812 C-12.51045275 9.03703875 -14.255237 9.01910324 -16 9 C-12.89656252 6.42936506 -9.84351111 4.19235586 -6.3125 2.25 C-5.16201172 1.60804688 -5.16201172 1.60804688 -3.98828125 0.953125 C-2 0 -2 0 0 0 Z " fill="#3251C4" transform="translate(73,190)"/>
<path d="M0 0 C0 0.99 0 1.98 0 3 C0.03480469 3.65097656 0.06960937 4.30195312 0.10546875 4.97265625 C0.18428257 6.98053218 0.09557846 8.99285224 0 11 C-3 13 -3 13 -7 13 C-6.67 11.02 -6.34 9.04 -6 7 C-6.66 6.67 -7.32 6.34 -8 6 C-8.625 3.4375 -8.625 3.4375 -9 1 C-6.04335481 -0.4783226 -3.25770263 -0.06032783 0 0 Z " fill="#E7AE17" transform="translate(18,63)"/>
<path d="M0 0 C0.66 0.33 1.32 0.66 2 1 C1.071875 2.0209375 1.071875 2.0209375 0.125 3.0625 C-2.83978707 7.16088212 -4.27352934 10.85735348 -3.625 15.9375 C-3.41875 16.618125 -3.2125 17.29875 -3 18 C-4.65 18.99 -6.3 19.98 -8 21 C-9.6109643 17.47601558 -10.53979746 14.86854848 -10 11 C-8.38587866 8.86417159 -6.86238098 7.07253156 -5 5.1875 C-4.52304687 4.68541016 -4.04609375 4.18332031 -3.5546875 3.66601562 C-2.380799 2.4334327 -1.19183114 1.21524211 0 0 Z " fill="#F5CF2B" transform="translate(38,144)"/>
<path d="M0 0 C0 11.88 0 23.76 0 36 C-0.99 36 -1.98 36 -3 36 C-2.67 24.78 -2.34 13.56 -2 2 C-2.66 1.67 -3.32 1.34 -4 1 C-1 0 -1 0 0 0 Z " fill="#27906A" transform="translate(256,111)"/>
<path d="M0 0 C8.58838053 -0.71240023 15.9081731 1.38822878 24 4 C24 4.66 24 5.32 24 6 C25.32 6.66 26.64 7.32 28 8 C21.51093459 7.33425862 15.32918678 5.99578944 9 4.4375 C8.03449219 4.20353516 7.06898437 3.96957031 6.07421875 3.72851562 C3.71515983 3.15626866 1.35715708 2.58002171 -1 2 C-0.67 1.34 -0.34 0.68 0 0 Z " fill="#293676" transform="translate(93,207)"/>
<path d="M0 0 C3.33727786 1.17255709 5.77437487 2.18868404 8 5 C8 5.66 8 6.32 8 7 C6.5682384 7.69937202 5.12932968 8.38412718 3.6875 9.0625 C2.88699219 9.44535156 2.08648437 9.82820313 1.26171875 10.22265625 C-1 11 -1 11 -4 10 C-4 7.69 -4 5.38 -4 3 C-3.34 3 -2.68 3 -2 3 C-1.67 2.34 -1.34 1.68 -1 1 C-0.67 0.67 -0.34 0.34 0 0 Z " fill="#EDC023" transform="translate(92,115)"/>
<path d="M0 0 C1.26650391 0.07734375 1.26650391 0.07734375 2.55859375 0.15625 C3.43128906 0.22070312 4.30398437 0.28515625 5.203125 0.3515625 C6.09128906 0.40828125 6.97945312 0.465 7.89453125 0.5234375 C10.08158832 0.66453796 12.2674319 0.8159058 14.453125 0.9765625 C14.453125 1.3065625 14.453125 1.6365625 14.453125 1.9765625 C21.383125 2.4715625 21.383125 2.4715625 28.453125 2.9765625 C28.453125 3.3065625 28.453125 3.6365625 28.453125 3.9765625 C21.08416848 5.01257859 14.00402629 4.98070432 6.578125 4.6640625 C5.45148438 4.62861328 4.32484375 4.59316406 3.1640625 4.55664062 C2.08640625 4.51345703 1.00875 4.47027344 -0.1015625 4.42578125 C-1.56311768 4.36910278 -1.56311768 4.36910278 -3.05419922 4.3112793 C-5.546875 3.9765625 -5.546875 3.9765625 -8.546875 1.9765625 C-5.50566808 0.20151544 -3.50012846 -0.23649517 0 0 Z " fill="#303C77" transform="translate(187.546875,227.0234375)"/>
<path d="M0 0 C1.65 0.33 3.3 0.66 5 1 C5.19491452 2.45736087 5.38069358 3.91594593 5.5625 5.375 C5.66691406 6.18710938 5.77132813 6.99921875 5.87890625 7.8359375 C6 10 6 10 5 12 C5.89163577 14.11683841 5.89163577 14.11683841 7 16 C1.25 14.375 1.25 14.375 -1 11 C-0.67 10.01 -0.34 9.02 0 8 C0.06665376 6.60560336 0.08538199 5.20830125 0.0625 3.8125 C0.041875 2.554375 0.02125 1.29625 0 0 Z " fill="#F7CF2A" transform="translate(25,67)"/>
<path d="M0 0 C4.45298252 -0.17998582 7.99622808 0.38773636 12.25 1.6875 C13.45527344 2.04972656 14.66054687 2.41195312 15.90234375 2.78515625 C16.55315918 2.98125488 17.20397461 3.17735352 17.87451172 3.37939453 C20.20058012 4.05856589 22.53665916 4.68757468 24.87890625 5.30859375 C26.10722168 5.63694214 26.10722168 5.63694214 27.36035156 5.97192383 C28.97932385 6.40310173 30.59975727 6.82883485 32.22167969 7.2487793 C34.16488827 7.77278345 36.08544934 8.37940695 38 9 C38.495 9.99 38.495 9.99 39 11 C29.62579217 9.01656832 20.30465941 6.91066938 11.0625 4.375 C9.919021 4.06622925 9.919021 4.06622925 8.75244141 3.7512207 C5.42097454 2.81927059 2.90213562 1.93475708 0 0 Z " fill="#343867" transform="translate(121,215)"/>
<path d="M0 0 C0.66 0 1.32 0 2 0 C2.09688221 5.44693314 2.12862175 10.63904667 1 16 C2.65 16.33 4.3 16.66 6 17 C6.33 17.99 6.66 18.98 7 20 C5.02253397 20.73080266 3.01927511 21.39421747 1 22 C0.34 21.67 -0.32 21.34 -1 21 C-0.67 14.07 -0.34 7.14 0 0 Z " fill="#1F4642" transform="translate(1,194)"/>
<path d="M0 0 C0 0.66 0 1.32 0 2 C0.66 2.33 1.32 2.66 2 3 C-1.12394391 3.83732743 -4.24931974 4.66917982 -7.375 5.5 C-8.26445312 5.73847656 -9.15390625 5.97695312 -10.0703125 6.22265625 C-10.92109375 6.44824219 -11.771875 6.67382812 -12.6484375 6.90625 C-13.43395996 7.11572266 -14.21948242 7.32519531 -15.02880859 7.54101562 C-17 8 -17 8 -19 8 C-18.67 6.68 -18.34 5.36 -18 4 C-15.75194998 3.32678716 -13.50147776 2.66165877 -11.25 2 C-9.99703125 1.62875 -8.7440625 1.2575 -7.453125 0.875 C-4 0 -4 0 0 0 Z " fill="#30615D" transform="translate(32,203)"/>
<path d="M0 0 C9.23320113 0.49862725 17.98455884 2.04172794 27 4 C27 4.33 27 4.66 27 5 C8.22479839 5.45060484 8.22479839 5.45060484 2 3 C1.34 2.01 0.68 1.02 0 0 Z " fill="#061C73" transform="translate(167,222)"/>
<path d="M0 0 C1.51421001 1.51421001 1.21309856 2.92472768 1.31640625 5.03515625 C1.35830078 5.84404297 1.40019531 6.65292969 1.44335938 7.48632812 C1.48267578 8.33646484 1.52199219 9.18660156 1.5625 10.0625 C1.60568359 10.91650391 1.64886719 11.77050781 1.69335938 12.65039062 C1.79976702 14.76672037 1.90041731 16.88333813 2 19 C0.01491078 15.33629148 -0.37432119 12.42798016 -0.625 8.25 C-0.69976562 7.07953125 -0.77453125 5.9090625 -0.8515625 4.703125 C-0.90054688 3.81109375 -0.94953125 2.9190625 -1 2 C-5.12327344 2.54430398 -5.12327344 2.54430398 -8.9375 4.0625 C-11.95297586 5.43317084 -14.73661871 5.12551466 -18 5 C-15.37094339 3.24729559 -13.02020381 2.03130161 -10.125 0.8125 C-8.86042969 0.26529297 -8.86042969 0.26529297 -7.5703125 -0.29296875 C-4.62525821 -1.10308247 -2.90041638 -0.87416731 0 0 Z " fill="#A73A38" transform="translate(252,44)"/>
<path d="M0 0 C0.66 0.33 1.32 0.66 2 1 C1.979375 2.2375 1.95875 3.475 1.9375 4.75 C1.92212518 9.60844451 2.36163584 14.37526781 2.87890625 19.203125 C2.99994998 21.9988448 2.66694679 24.29269006 2 27 C1.34 27 0.68 27 0 27 C0.020625 25.845 0.04125 24.69 0.0625 23.5 C0.07972316 18.11776141 -0.30941278 12.77288411 -0.73217773 7.41015625 C-1.1074588 2.21491759 -1.1074588 2.21491759 0 0 Z " fill="#23976A" transform="translate(25,39)"/>
<path d="M0 0 C1.72669922 0.32097656 1.72669922 0.32097656 3.48828125 0.6484375 C5.22658203 0.94621094 5.22658203 0.94621094 7 1.25 C8.38638672 1.63285156 8.38638672 1.63285156 9.80078125 2.0234375 C10.13078125 2.6834375 10.46078125 3.3434375 10.80078125 4.0234375 C4.86078125 4.0234375 -1.07921875 4.0234375 -7.19921875 4.0234375 C-3.19921875 0.0234375 -3.19921875 0.0234375 0 0 Z " fill="#3C4EA3" transform="translate(59.19921875,198.9765625)"/>
<path d="M0 0 C0.66 0.33 1.32 0.66 2 1 C1.01 2.485 1.01 2.485 0 4 C0.37125 4.5775 0.7425 5.155 1.125 5.75 C2 8 2 8 1.125 10.25 C0.75375 10.8275 0.3825 11.405 0 12 C-1.32 11.34 -2.64 10.68 -4 10 C-3.34 9.01 -2.68 8.02 -2 7 C-3.32 6.34 -4.64 5.68 -6 5 C-4.02 3.35 -2.04 1.7 0 0 Z " fill="#37AC78" transform="translate(43,154)"/>
<path d="M0 0 C3.3 0.33 6.6 0.66 10 1 C10 1.66 10 2.32 10 3 C12.31 3.33 14.62 3.66 17 4 C17 4.33 17 4.66 17 5 C11.20120006 6.0997724 8.14727735 6.35171548 3 3 C2.01 2.01 1.02 1.02 0 0 Z " fill="#22378E" transform="translate(82,202)"/>
<path d="M0 0 C0 0.66 0 1.32 0 2 C-6.93 3.485 -6.93 3.485 -14 5 C-14.33 6.65 -14.66 8.3 -15 10 C-16.65 10.33 -18.3 10.66 -20 11 C-18.21609532 7.17734712 -16.56807141 5.37871427 -13 3 C-11.35035555 2.40851564 -9.68102813 1.87030293 -8 1.375 C-6.700625 0.98441406 -6.700625 0.98441406 -5.375 0.5859375 C-3 0 -3 0 0 0 Z " fill="#1A5F4C" transform="translate(28,202)"/>
<path d="M0 0 C-7.52341971 3.68494027 -14.83340455 3.28710687 -23 3 C-22.67 2.34 -22.34 1.68 -22 1 C-20.18994141 0.57348633 -20.18994141 0.57348633 -17.8515625 0.33203125 C-17.01109375 0.24373047 -16.170625 0.15542969 -15.3046875 0.06445312 C-14.42039063 -0.01869141 -13.53609375 -0.10183594 -12.625 -0.1875 C-11.7484375 -0.28224609 -10.871875 -0.37699219 -9.96875 -0.47460938 C-3.3980517 -1.1326839 -3.3980517 -1.1326839 0 0 Z " fill="#32469B" transform="translate(224,227)"/>
<path d="M0 0 C0.66 0.33 1.32 0.66 2 1 C3.61760357 0.76409948 5.2347257 0.52379259 6.84765625 0.2578125 C10.88251977 -0.22549239 14.94302799 -0.07346629 19 0 C18.67 0.66 18.34 1.32 18 2 C15.64535859 2.44149527 13.37643667 2.74915391 11 3 C10.22140625 3.10441406 9.4428125 3.20882812 8.640625 3.31640625 C7.45726562 3.46916016 7.45726562 3.46916016 6.25 3.625 C5.51265625 3.72039062 4.7753125 3.81578125 4.015625 3.9140625 C2 4 2 4 -1 3 C-0.67 2.01 -0.34 1.02 0 0 Z " fill="#969CAA" transform="translate(33,202)"/>
<path d="M0 0 C-0.33 0.66 -0.66 1.32 -1 2 C-7.93 2 -14.86 2 -22 2 C-22 1.67 -22 1.34 -22 1 C-19.2718186 0.63604195 -16.54296095 0.28355188 -13.8125 -0.0625 C-12.65911133 -0.2181543 -12.65911133 -0.2181543 -11.48242188 -0.37695312 C-7.40719806 -0.88416982 -4.01801421 -1.15145497 0 0 Z " fill="#172E86" transform="translate(207,226)"/>
<path d="M0 0 C-0.639375 0.350625 -1.27875 0.70125 -1.9375 1.0625 C-4.82163832 3.77184206 -4.7100822 6.15858911 -5 10 C-5.66 9.67 -6.32 9.34 -7 9 C-7 6.69 -7 4.38 -7 2 C-8.32 1.67 -9.64 1.34 -11 1 C-3.375 -1.125 -3.375 -1.125 0 0 Z " fill="#2B7A68" transform="translate(31,29)"/>
<path d="M0 0 C1.36011539 2.72023078 1.2062431 4.9661881 1.25 8 C1.27578125 9.0725 1.3015625 10.145 1.328125 11.25 C1.21984375 12.1575 1.1115625 13.065 1 14 C0.01 14.66 -0.98 15.32 -2 16 C-2.05449838 14.27119018 -2.09301688 12.54187288 -2.125 10.8125 C-2.14820313 9.84957031 -2.17140625 8.88664063 -2.1953125 7.89453125 C-1.9913544 4.87187222 -1.26874632 2.73230015 0 0 Z " fill="#AE611B" transform="translate(4,178)"/>
<path d="M0 0 C0 0.66 0 1.32 0 2 C0.66 2.33 1.32 2.66 2 3 C-2.455 3.495 -2.455 3.495 -7 4 C-7 3.01 -7 2.02 -7 1 C-4 0 -4 0 0 0 Z " fill="#3D6A67" transform="translate(32,203)"/>
<path d="M0 0 C2.02408755 0.09002398 4.04544287 0.24641038 6.0625 0.4375 C7.71958984 0.59025391 7.71958984 0.59025391 9.41015625 0.74609375 C10.26480469 0.82988281 11.11945313 0.91367188 12 1 C12 1.33 12 1.66 12 2 C10.39773045 2.22245393 8.79303233 2.42746669 7.1875 2.625 C6.29417969 2.74101562 5.40085937 2.85703125 4.48046875 2.9765625 C2 3 2 3 -1 1 C-0.67 0.67 -0.34 0.34 0 0 Z M12 0 C14 1 14 1 14 1 Z " fill="#19359C" transform="translate(76,200)"/>
<path d="M0 0 C3.96 0 7.92 0 12 0 C11.01 0.495 11.01 0.495 10 1 C9.67 1.66 9.34 2.32 9 3 C4 3 4 3 0 0 Z " fill="#F75D56" transform="translate(52,27)"/>
<path d="M0 0 C9.41002278 0.96355353 9.41002278 0.96355353 14 2 C14 2.33 14 2.66 14 3 C12.22992286 3.08114106 10.45877902 3.13925505 8.6875 3.1875 C7.70136719 3.22230469 6.71523437 3.25710937 5.69921875 3.29296875 C3 3 3 3 1.14453125 1.48828125 C0.76683594 0.99714844 0.38914062 0.50601562 0 0 Z " fill="#AE3732" transform="translate(80,28)"/>
<path d="M0 0 C-1.65 1.98 -3.3 3.96 -5 6 C-5.99 5.67 -6.98 5.34 -8 5 C-8 4.01 -8 3.02 -8 2 C-4.77208445 -0.1519437 -3.71599191 -0.20086443 0 0 Z " fill="#0A573C" transform="translate(13,207)"/>
<path d="M0 0 C3.63 0 7.26 0 11 0 C11.33 0.99 11.66 1.98 12 3 C6.06 2.01 6.06 2.01 0 1 C0 0.67 0 0.34 0 0 Z " fill="#A42420" transform="translate(154,48)"/>
<path d="M0 0 C3.3 0.33 6.6 0.66 10 1 C10 1.66 10 2.32 10 3 C8.72125 3.061875 7.4425 3.12375 6.125 3.1875 C5.40570313 3.22230469 4.68640625 3.25710937 3.9453125 3.29296875 C3.30335937 3.19628906 2.66140625 3.09960938 2 3 C1.34 2.01 0.68 1.02 0 0 Z " fill="#183088" transform="translate(82,202)"/>
<path d="M0 0 C-0.33 1.32 -0.66 2.64 -1 4 C-2.65 4.33 -4.3 4.66 -6 5 C-5.625 3.0625 -5.625 3.0625 -5 1 C-3 0 -3 0 0 0 Z " fill="#265E56" transform="translate(19,206)"/>
</svg>
