<?xml version="1.0" encoding="UTF-8"?>
<svg version="1.1" xmlns="http://www.w3.org/2000/svg" width="180" height="180">
<path d="M0 0 C48.18 0 96.36 0 146 0 C146 56.1 146 112.2 146 170 C97.82 170 49.64 170 0 170 C0 113.9 0 57.8 0 0 Z " fill="#BCD4E7" transform="translate(17,5)"/>
<path d="M0 0 C0.33 0 0.66 0 1 0 C1 1.98 1 3.96 1 6 C3.31 6 5.62 6 8 6 C8 4.02 8 2.04 8 0 C8.33 0 8.66 0 9 0 C9 1.98 9 3.96 9 6 C11.31 6 13.62 6 16 6 C16 4.02 16 2.04 16 0 C16.33 0 16.66 0 17 0 C17 1.98 17 3.96 17 6 C19.31 6 21.62 6 24 6 C24 4.02 24 2.04 24 0 C24.33 0 24.66 0 25 0 C25 1.98 25 3.96 25 6 C27.31 6 29.62 6 32 6 C32 4.02 32 2.04 32 0 C32.33 0 32.66 0 33 0 C33 9.57 33 19.14 33 29 C42.9 29 52.8 29 63 29 C63 26.36 63 23.72 63 21 C70.92 21 78.84 21 87 21 C87 16.71 87 12.42 87 8 C74.46 8 61.92 8 49 8 C49 10.64 49 13.28 49 16 C48.67 16 48.34 16 48 16 C47.67 10.72 47.34 5.44 47 0 C47.66 0 48.32 0 49 0 C49 1.98 49 3.96 49 6 C50.98 6 52.96 6 55 6 C55 4.02 55 2.04 55 0 C55.66 0 56.32 0 57 0 C57 1.98 57 3.96 57 6 C58.98 6 60.96 6 63 6 C63 4.02 63 2.04 63 0 C63.66 0 64.32 0 65 0 C65 1.98 65 3.96 65 6 C66.98 6 68.96 6 71 6 C71 4.02 71 2.04 71 0 C71.66 0 72.32 0 73 0 C73 1.98 73 3.96 73 6 C74.98 6 76.96 6 79 6 C79 4.02 79 2.04 79 0 C79.66 0 80.32 0 81 0 C81 1.98 81 3.96 81 6 C82.98 6 84.96 6 87 6 C87 4.02 87 2.04 87 0 C87.66 0 88.32 0 89 0 C89 1.98 89 3.96 89 6 C90.98 6 92.96 6 95 6 C95 4.02 95 2.04 95 0 C95.66 0 96.32 0 97 0 C97 1.98 97 3.96 97 6 C98.65 6 100.3 6 102 6 C102 4.02 102 2.04 102 0 C102.99 0 103.98 0 105 0 C105 55.77 105 111.54 105 169 C75.63 169 46.26 169 16 169 C16 142.93 16 116.86 16 90 C26.89 90 37.78 90 49 90 C49 112.44 49 134.88 49 158 C50.98 157.67 52.96 157.34 55 157 C55.66 156.01 56.32 155.02 57 154 C57 155.32 57 156.64 57 158 C58.98 158 60.96 158 63 158 C63 115.76 63 73.52 63 30 C61.02 30 59.04 30 57 30 C56.67 30.66 56.34 31.32 56 32 C55.67 31.67 55.34 31.34 55 31 C53.36743242 30.84285346 51.72864662 30.74914586 50.08984375 30.68359375 C48.60581055 30.62075195 48.60581055 30.62075195 47.09179688 30.55664062 C46.05087891 30.51732422 45.00996094 30.47800781 43.9375 30.4375 C42.89271484 30.39431641 41.84792969 30.35113281 40.77148438 30.30664062 C38.18113116 30.20018775 35.59067814 30.0981724 33 30 C33.03029297 30.61818604 33.06058594 31.23637207 33.09179688 31.87329102 C34.01584523 51.02063916 34.04007033 69.85551398 33 89 C32.67 89 32.34 89 32 89 C32 84.71 32 80.42 32 76 C30.865625 76.020625 29.73125 76.04125 28.5625 76.0625 C25 76 25 76 24 75 C23.95907063 72.66702567 23.95758277 70.33294775 24 68 C21.69 68 19.38 68 17 68 C17 74.93 17 81.86 17 89 C16.67 89 16.34 89 16 89 C16 78.77 16 68.54 16 58 C16.33 58 16.66 58 17 58 C17 60.97 17 63.94 17 67 C21.95 67 26.9 67 32 67 C31.814375 64.81375 31.62875 62.6275 31.4375 60.375 C30.86741127 52.82048593 31.2444301 45.54407482 32 38 C29.69 38 27.38 38 25 38 C25 42.62 25 47.24 25 52 C22.36 52 19.72 52 17 52 C16.18565857 49.14839609 15.88118758 46.63373869 15.90234375 43.671875 C15.90556641 42.87265625 15.90878906 42.0734375 15.91210938 41.25 C15.92467773 40.0125 15.92467773 40.0125 15.9375 38.75 C15.94201172 37.90953125 15.94652344 37.0690625 15.95117188 36.203125 C15.96292039 34.13538599 15.98085478 32.06768376 16 30 C11.38 30.33 6.76 30.66 2 31 C1.67 32.65 1.34 34.3 1 36 C0.67 36 0.34 36 0 36 C0 34.02 0 32.04 0 30 C-1.175625 30.185625 -2.35125 30.37125 -3.5625 30.5625 C-7.52167758 31.1876333 -11.05927029 30.64484668 -15 30 C-14.91621094 31.00160156 -14.83242188 32.00320312 -14.74609375 33.03515625 C-14.64283088 34.37757359 -14.53998879 35.72002334 -14.4375 37.0625 C-14.28087891 39.02896484 -14.28087891 39.02896484 -14.12109375 41.03515625 C-14.00234381 44.92325897 -14.33133784 48.19110223 -15 52 C-15.33 52 -15.66 52 -16 52 C-16 44.74 -16 37.48 -16 30 C-19.96 30 -23.92 30 -28 30 C-28 29.67 -28 29.34 -28 29 C-24.04 29 -20.08 29 -16 29 C-16 27.02 -16 25.04 -16 23 C-15.67 23 -15.34 23 -15 23 C-15 24.98 -15 26.96 -15 29 C-10.05 29 -5.1 29 0 29 C0 25.37 0 21.74 0 18 C2.78637633 22.1795645 1.79562512 24.14668677 1 29 C3.31 29 5.62 29 8 29 C8.33 27.68 8.66 26.36 9 25 C9 26.32 9 27.64 9 29 C11.31 29 13.62 29 16 29 C16 24.71 16 20.42 16 16 C16.33 16 16.66 16 17 16 C17 25.24 17 34.48 17 44 C19.31 44 21.62 44 24 44 C24 41.36 24 38.72 24 36 C26.31 36 28.62 36 31 36 C30.99476318 35.36497559 30.98952637 34.72995117 30.98413086 34.07568359 C30.96323744 31.17546595 30.95030066 28.2752642 30.9375 25.375 C30.92912109 24.37597656 30.92074219 23.37695312 30.91210938 22.34765625 C30.8958913 17.44979725 30.95681463 12.81343801 32 8 C30.824375 8.20625 29.64875 8.4125 28.4375 8.625 C24.09954633 9.18947526 21.09528583 8.45041373 17 7 C16.67 7.66 16.34 8.32 16 9 C10.72 9 5.44 9 0 9 C0 6.03 0 3.06 0 0 Z " fill="#BFD1E0" transform="translate(58,6)"/>
<path d="M0 0 C48.18 0 96.36 0 146 0 C145.01 0.33 144.02 0.66 143 1 C143 2.98 143 4.96 143 7 C141.35 7 139.7 7 138 7 C138 5.02 138 3.04 138 1 C137.34 1 136.68 1 136 1 C136 2.98 136 4.96 136 7 C134.02 7 132.04 7 130 7 C130 5.02 130 3.04 130 1 C129.34 1 128.68 1 128 1 C128 2.98 128 4.96 128 7 C126.02 7 124.04 7 122 7 C122 5.02 122 3.04 122 1 C121.34 1 120.68 1 120 1 C120 2.98 120 4.96 120 7 C118.02 7 116.04 7 114 7 C114 5.02 114 3.04 114 1 C113.34 1 112.68 1 112 1 C112 2.98 112 4.96 112 7 C110.02 7 108.04 7 106 7 C106 5.02 106 3.04 106 1 C105.34 1 104.68 1 104 1 C104 2.98 104 4.96 104 7 C102.02 7 100.04 7 98 7 C98 5.02 98 3.04 98 1 C97.34 1 96.68 1 96 1 C96 2.98 96 4.96 96 7 C94.02 7 92.04 7 90 7 C90 5.02 90 3.04 90 1 C89.34 1 88.68 1 88 1 C88.495 4.96 88.495 4.96 89 9 C101.87 9 114.74 9 128 9 C128 13.29 128 17.58 128 22 C120.08 22 112.16 22 104 22 C104 24.64 104 27.28 104 30 C94.1 30 84.2 30 74 30 C73.67 22.41 73.34 14.82 73 7 C62.77 7 52.54 7 42 7 C42 7.66 42 8.32 42 9 C44.47923801 9.02685095 46.9581884 9.04676547 49.4375 9.0625 C50.14455078 9.07087891 50.85160156 9.07925781 51.58007812 9.08789062 C53.38693559 9.09653588 55.19387603 9.05220011 57 9 C57.33 8.67 57.66 8.34 58 8 C63.52941176 7.76470588 63.52941176 7.76470588 66 9 C68.3329866 9.04022391 70.66706666 9.04320247 73 9 C73.02465881 12.96930989 73.04284023 16.93859034 73.05493164 20.90795898 C73.05997057 22.25920386 73.06680177 23.61044326 73.07543945 24.96166992 C73.08752419 26.90020434 73.09269828 28.838778 73.09765625 30.77734375 C73.10289307 31.94515381 73.10812988 33.11296387 73.11352539 34.31616211 C73 37 73 37 72 38 C70.00041636 38.04080783 67.99954746 38.04254356 66 38 C65.67 40.31 65.34 42.62 65 45 C62.69 45 60.38 45 58 45 C57.505 37.575 57.505 37.575 57 30 C52.05 30 47.1 30 42 30 C42 27.36 42 24.72 42 22 C41.67 24.64 41.34 27.28 41 30 C35.72 30 30.44 30 25 30 C25.33 34.95 25.66 39.9 26 45 C26 40.38 26 35.76 26 31 C36.33333333 31 46.66666667 31 57 31 C57.33 38.26 57.66 45.52 58 53 C60.64 53 63.28 53 66 53 C66 48.38 66 43.76 66 39 C68.31 39 70.62 39 73 39 C73 48.57 73 58.14 73 68 C68.05 68 63.1 68 58 68 C57.67 70.64 57.34 73.28 57 76 C52.33333333 76 47.66666667 76 43 76 C43 70.72 43 65.44 43 60 C29.8 60 16.6 60 3 60 C3 45.15 3 30.3 3 15 C2.67 66.15 2.34 117.3 2 170 C1.34 170 0.68 170 0 170 C0 113.9 0 57.8 0 0 Z " fill="#CEDAE5" transform="translate(17,5)"/>
<path d="M0 0 C10.56 0 21.12 0 32 0 C32 48.51 32 97.02 32 147 C21.44 147 10.88 147 0 147 C0 98.49 0 49.98 0 0 Z " fill="#0355B8" transform="translate(122,28)"/>
<path d="M0 0 C10.56 0 21.12 0 32 0 C32 35.64 32 71.28 32 108 C21.44 108 10.88 108 0 108 C0 72.36 0 36.72 0 0 Z " fill="#02B617" transform="translate(27,66)"/>
<path d="M0 0 C0.33 0 0.66 0 1 0 C1 4.62 1 9.24 1 14 C1.99 14.33 2.98 14.66 4 15 C3.01 15 2.02 15 1 15 C1.05329468 15.93513428 1.05329468 15.93513428 1.10766602 16.88916016 C1.75857215 28.68370978 2.32566783 40.23214861 1 52 C1.99 52.33 2.98 52.66 4 53 C3.01 53 2.02 53 1 53 C1 54.98 1 56.96 1 59 C14.2 59 27.4 59 41 59 C41 64.28 41 69.56 41 75 C42.98 75 44.96 75 47 75 C47.495 73.515 47.495 73.515 48 72 C48.33 72.66 48.66 73.32 49 74 C52.02934491 74.65772428 52.02934491 74.65772428 55 75 C55.33 72.69 55.66 70.38 56 68 C58.31 68 60.62 68 63 68 C63.495 71.465 63.495 71.465 64 75 C66.31 75.33 68.62 75.66 71 76 C71 80.29 71 84.58 71 89 C76.28 89 81.56 89 87 89 C87 89.33 87 89.66 87 90 C76.44 90 65.88 90 55 90 C55 116.07 55 142.14 55 169 C36.85 169 18.7 169 0 169 C0 113.23 0 57.46 0 0 Z M8 60 C8 95.64 8 131.28 8 168 C18.56 168 29.12 168 40 168 C40 132.36 40 96.72 40 60 C29.44 60 18.88 60 8 60 Z " fill="#C0CED3" transform="translate(19,6)"/>
<path d="M0 0 C10.56 0 21.12 0 32 0 C32 26.07 32 52.14 32 79 C21.44 79 10.88 79 0 79 C0 52.93 0 26.86 0 0 Z " fill="#B40302" transform="translate(74,96)"/>
<path d="M0 0 C0.66 0 1.32 0 2 0 C2 1.98 2 3.96 2 6 C3.98 6 5.96 6 8 6 C8.33 6.66 8.66 7.32 9 8 C11.47923801 8.02685095 13.9581884 8.04676547 16.4375 8.0625 C17.14455078 8.07087891 17.85160156 8.07925781 18.58007812 8.08789062 C20.38693559 8.09653588 22.19387603 8.05220011 24 8 C24.33 7.67 24.66 7.34 25 7 C30.52941176 6.76470588 30.52941176 6.76470588 33 8 C35.3329866 8.04022391 37.66706666 8.04320247 40 8 C40.02465881 11.96930989 40.04284023 15.93859034 40.05493164 19.90795898 C40.05997057 21.25920386 40.06680177 22.61044326 40.07543945 23.96166992 C40.08752419 25.90020434 40.09269828 27.838778 40.09765625 29.77734375 C40.10289307 30.94515381 40.10812988 32.11296387 40.11352539 33.31616211 C40 36 40 36 39 37 C37.00041636 37.04080783 34.99954746 37.04254356 33 37 C32.67 39.31 32.34 41.62 32 44 C29.69 44 27.38 44 25 44 C24.505 36.575 24.505 36.575 24 29 C19.05 29 14.1 29 9 29 C9 26.36 9 23.72 9 21 C8.67 23.64 8.34 26.28 8 29 C-1.9 29 -11.8 29 -22 29 C-22 26.36 -22 23.72 -22 21 C-20.02 21 -18.04 21 -16 21 C-16 19.02 -16 17.04 -16 15 C-13.29120665 13.64560332 -10.99066732 13.93498549 -8 14 C-8 12.02 -8 10.04 -8 8 C-9.98 8 -11.96 8 -14 8 C-14 7.67 -14 7.34 -14 7 C-9.38 6.67 -4.76 6.34 0 6 C0 4.02 0 2.04 0 0 Z " fill="#C2D9ED" transform="translate(50,6)"/>
<path d="M0 0 C0.33 0 0.66 0 1 0 C1 4.62 1 9.24 1 14 C1.99 14.33 2.98 14.66 4 15 C3.01 15 2.02 15 1 15 C1.05329468 15.93513428 1.05329468 15.93513428 1.10766602 16.88916016 C1.75857215 28.68370978 2.32566783 40.23214861 1 52 C1.99 52.33 2.98 52.66 4 53 C3.01 53 2.02 53 1 53 C1 54.98 1 56.96 1 59 C13.87 59 26.74 59 40 59 C40 59.33 40 59.66 40 60 C29.44 60 18.88 60 8 60 C8 95.64 8 131.28 8 168 C18.56 168 29.12 168 40 168 C40 149.52 40 131.04 40 112 C40.33 112 40.66 112 41 112 C41 127.18 41 142.36 41 158 C42.98 158 44.96 158 47 158 C47.33 157.01 47.66 156.02 48 155 C48 155.99 48 156.98 48 158 C50.31 158 52.62 158 55 158 C55 161.63 55 165.26 55 169 C36.85 169 18.7 169 0 169 C0 113.23 0 57.46 0 0 Z " fill="#92BCB6" transform="translate(19,6)"/>
<path d="M0 0 C0.33 0 0.66 0 1 0 C1 1.98 1 3.96 1 6 C3.31 6 5.62 6 8 6 C8 4.02 8 2.04 8 0 C8.33 0 8.66 0 9 0 C9 1.98 9 3.96 9 6 C11.31 6 13.62 6 16 6 C16 4.02 16 2.04 16 0 C16.33 0 16.66 0 17 0 C17 1.98 17 3.96 17 6 C19.31 6 21.62 6 24 6 C24 4.02 24 2.04 24 0 C24.33 0 24.66 0 25 0 C25 1.98 25 3.96 25 6 C27.31 6 29.62 6 32 6 C32 4.02 32 2.04 32 0 C32.33 0 32.66 0 33 0 C33 9.57 33 19.14 33 29 C42.9 29 52.8 29 63 29 C63 26.36 63 23.72 63 21 C70.92 21 78.84 21 87 21 C87 16.71 87 12.42 87 8 C74.46 8 61.92 8 49 8 C49 10.64 49 13.28 49 16 C48.67 16 48.34 16 48 16 C47.67 10.72 47.34 5.44 47 0 C47.66 0 48.32 0 49 0 C49 1.98 49 3.96 49 6 C50.98 6 52.96 6 55 6 C55 4.02 55 2.04 55 0 C55.66 0 56.32 0 57 0 C57 1.98 57 3.96 57 6 C58.98 6 60.96 6 63 6 C63 4.02 63 2.04 63 0 C63.66 0 64.32 0 65 0 C65 1.98 65 3.96 65 6 C66.98 6 68.96 6 71 6 C71 4.02 71 2.04 71 0 C71.66 0 72.32 0 73 0 C73 1.98 73 3.96 73 6 C74.98 6 76.96 6 79 6 C79 4.02 79 2.04 79 0 C79.66 0 80.32 0 81 0 C81 1.98 81 3.96 81 6 C82.98 6 84.96 6 87 6 C87 4.02 87 2.04 87 0 C87.66 0 88.32 0 89 0 C89.495 2.97 89.495 2.97 90 6 C91.65 6.33 93.3 6.66 95 7 C95 7.33 95 7.66 95 8 C92.69 8 90.38 8 88 8 C88 9.98 88 11.96 88 14 C90.31 14 92.62 14 95 14 C95 14.33 95 14.66 95 15 C92.69 15 90.38 15 88 15 C88 16.98 88 18.96 88 21 C90.64 21 93.28 21 96 21 C96 21.33 96 21.66 96 22 C85.44 22 74.88 22 64 22 C64 70.51 64 119.02 64 169 C58.72 169 53.44 169 48 169 C48 142.93 48 116.86 48 90 C48.33 90 48.66 90 49 90 C49 112.44 49 134.88 49 158 C50.98 157.67 52.96 157.34 55 157 C55.66 156.01 56.32 155.02 57 154 C57 155.32 57 156.64 57 158 C58.98 158 60.96 158 63 158 C63 115.76 63 73.52 63 30 C61.02 30 59.04 30 57 30 C56.67 30.66 56.34 31.32 56 32 C55.67 31.67 55.34 31.34 55 31 C53.36743242 30.84285346 51.72864662 30.74914586 50.08984375 30.68359375 C48.60581055 30.62075195 48.60581055 30.62075195 47.09179688 30.55664062 C46.05087891 30.51732422 45.00996094 30.47800781 43.9375 30.4375 C42.89271484 30.39431641 41.84792969 30.35113281 40.77148438 30.30664062 C38.18113116 30.20018775 35.59067814 30.0981724 33 30 C33.03029297 30.61818604 33.06058594 31.23637207 33.09179688 31.87329102 C34.01584523 51.02063916 34.04007033 69.85551398 33 89 C32.67 89 32.34 89 32 89 C32 84.71 32 80.42 32 76 C30.865625 76.020625 29.73125 76.04125 28.5625 76.0625 C25 76 25 76 24 75 C23.95907063 72.66702567 23.95758277 70.33294775 24 68 C21.69 68 19.38 68 17 68 C17 74.93 17 81.86 17 89 C16.67 89 16.34 89 16 89 C16 78.77 16 68.54 16 58 C16.33 58 16.66 58 17 58 C17 60.97 17 63.94 17 67 C21.95 67 26.9 67 32 67 C31.814375 64.81375 31.62875 62.6275 31.4375 60.375 C30.86741127 52.82048593 31.2444301 45.54407482 32 38 C29.69 38 27.38 38 25 38 C25 42.62 25 47.24 25 52 C22.36 52 19.72 52 17 52 C16.18565857 49.14839609 15.88118758 46.63373869 15.90234375 43.671875 C15.90556641 42.87265625 15.90878906 42.0734375 15.91210938 41.25 C15.92467773 40.0125 15.92467773 40.0125 15.9375 38.75 C15.94201172 37.90953125 15.94652344 37.0690625 15.95117188 36.203125 C15.96292039 34.13538599 15.98085478 32.06768376 16 30 C11.38 30.33 6.76 30.66 2 31 C1.67 32.65 1.34 34.3 1 36 C0.67 36 0.34 36 0 36 C0 34.02 0 32.04 0 30 C-1.175625 30.185625 -2.35125 30.37125 -3.5625 30.5625 C-7.52167758 31.1876333 -11.05927029 30.64484668 -15 30 C-14.91621094 31.00160156 -14.83242188 32.00320312 -14.74609375 33.03515625 C-14.64283088 34.37757359 -14.53998879 35.72002334 -14.4375 37.0625 C-14.28087891 39.02896484 -14.28087891 39.02896484 -14.12109375 41.03515625 C-14.00234381 44.92325897 -14.33133784 48.19110223 -15 52 C-15.33 52 -15.66 52 -16 52 C-16 44.74 -16 37.48 -16 30 C-19.96 30 -23.92 30 -28 30 C-28 29.67 -28 29.34 -28 29 C-24.04 29 -20.08 29 -16 29 C-16 27.02 -16 25.04 -16 23 C-15.67 23 -15.34 23 -15 23 C-15 24.98 -15 26.96 -15 29 C-10.05 29 -5.1 29 0 29 C0 25.37 0 21.74 0 18 C2.78637633 22.1795645 1.79562512 24.14668677 1 29 C3.31 29 5.62 29 8 29 C8.33 27.68 8.66 26.36 9 25 C9 26.32 9 27.64 9 29 C11.31 29 13.62 29 16 29 C16 24.71 16 20.42 16 16 C16.33 16 16.66 16 17 16 C17 25.24 17 34.48 17 44 C19.31 44 21.62 44 24 44 C24 41.36 24 38.72 24 36 C26.31 36 28.62 36 31 36 C30.99476318 35.36497559 30.98952637 34.72995117 30.98413086 34.07568359 C30.96323744 31.17546595 30.95030066 28.2752642 30.9375 25.375 C30.92912109 24.37597656 30.92074219 23.37695312 30.91210938 22.34765625 C30.8958913 17.44979725 30.95681463 12.81343801 32 8 C30.824375 8.20625 29.64875 8.4125 28.4375 8.625 C24.09954633 9.18947526 21.09528583 8.45041373 17 7 C16.67 7.66 16.34 8.32 16 9 C10.72 9 5.44 9 0 9 C0 6.03 0 3.06 0 0 Z " fill="#B4D4EE" transform="translate(58,6)"/>
<path d="M0 0 C10 0 20 0 30 0 C30 12.21 30 24.42 30 37 C25.38 37 20.76 37 16 37 C15.67 39.31 15.34 41.62 15 44 C12.69 44 10.38 44 8 44 C7.505 36.575 7.505 36.575 7 29 C4.69 29 2.38 29 0 29 C0 19.43 0 9.86 0 0 Z " fill="#C0D8ED" transform="translate(91,36)"/>
<path d="M0 0 C0.66 0 1.32 0 2 0 C2 1.98 2 3.96 2 6 C3.423125 5.938125 3.423125 5.938125 4.875 5.875 C8 6 8 6 10 8 C12.86888581 8.17532289 15.63992645 8.23137614 18.5078125 8.1953125 C19.34843231 8.1924826 20.18905212 8.18965271 21.05514526 8.18673706 C23.74524046 8.1755243 26.4350051 8.15041803 29.125 8.125 C30.94660978 8.1149716 32.76822477 8.10584551 34.58984375 8.09765625 C39.06002358 8.07558142 43.52995571 8.04104434 48 8 C48 12.29 48 16.58 48 21 C40.08 21 32.16 21 24 21 C24 23.64 24 26.28 24 29 C14.1 29 4.2 29 -6 29 C-6 21.41 -6 13.82 -6 6 C-4.02 6 -2.04 6 0 6 C0 4.02 0 2.04 0 0 Z " fill="#BED8EE" transform="translate(97,6)"/>
<path d="M0 0 C0 17.49 0 34.98 0 53 C-4.66666667 53 -9.33333333 53 -14 53 C-14 35.51 -14 18.02 -14 0 C-8 -1 -8 -1 0 0 Z " fill="#B2CBE1" transform="translate(121,111)"/>
<path d="M0 0 C1.98 0 3.96 0 6 0 C6 20.46 6 40.92 6 62 C16.89 62 27.78 62 39 62 C39 43.52 39 25.04 39 6 C39.33 6 39.66 6 40 6 C40 21.18 40 36.36 40 52 C41.98 52 43.96 52 46 52 C46.33 51.01 46.66 50.02 47 49 C47 49.99 47 50.98 47 52 C49.31 52 51.62 52 54 52 C54 55.63 54 59.26 54 63 C36.18 63 18.36 63 0 63 C0 57.39 0 51.78 0 46 C0.99 45.505 0.99 45.505 2 45 C1.34 44.67 0.68 44.34 0 44 C0 29.48 0 14.96 0 0 Z " fill="#D2CCD3" transform="translate(20,112)"/>
<path d="M0 0 C0.33 0 0.66 0 1 0 C1 5.28 1 10.56 1 16 C2.98 15.67 4.96 15.34 7 15 C7 15.66 7 16.32 7 17 C5.02 17 3.04 17 1 17 C1 26.57 1 36.14 1 46 C2.65 46 4.3 46 6 46 C6 44.02 6 42.04 6 40 C4.68 39.67 3.36 39.34 2 39 C3.485 38.505 3.485 38.505 5 38 C5.495 35.03 5.495 35.03 6 32 C4.68 31.67 3.36 31.34 2 31 C3.32 31 4.64 31 6 31 C6 29.02 6 27.04 6 25 C5.01 24.67 4.02 24.34 3 24 C4.32 23.67 5.64 23.34 7 23 C8.80273519 39.17177444 9.25051454 55.11257812 9.125 71.375 C9.114933 73.68358979 9.10581384 75.99218392 9.09765625 78.30078125 C9.0759768 83.86729784 9.04165988 89.43359858 9 95 C6.03 95 3.06 95 0 95 C0 63.65 0 32.3 0 0 Z " fill="#B6C5D3" transform="translate(154,80)"/>
<path d="M0 0 C10.56 0 21.12 0 32 0 C31.67 25.41 31.34 50.82 31 77 C30.67 77 30.34 77 30 77 C30 51.92 30 26.84 30 1 C20.76 1 11.52 1 2 1 C2.33 34.33 2.66 67.66 3 102 C10.13588877 102.84612249 10.13588877 102.84612249 17.125 103 C21.33447179 102.88661355 24.65160964 103.37880138 29 104 C29.33 95.75 29.66 87.5 30 79 C30.33 79 30.66 79 31 79 C31.93329843 88.73296932 32 98.16419911 32 108 C21.44 108 10.88 108 0 108 C0 72.36 0 36.72 0 0 Z " fill="#00B409" transform="translate(27,66)"/>
<path d="M0 0 C0.33 0 0.66 0 1 0 C1 17.16 1 34.32 1 52 C-3.62 52 -8.24 52 -13 52 C-13 42.1 -13 32.2 -13 22 C-11.35 21.67 -9.7 21.34 -8 21 C-7.34 19.02 -6.68 17.04 -6 15 C-4.02 15 -2.04 15 0 15 C0 10.05 0 5.1 0 0 Z " fill="#BCC9D8" transform="translate(73,112)"/>
<path d="M0 0 C10 0 20 0 30 0 C30 7.26 30 14.52 30 22 C25.38 22 20.76 22 16 22 C16 20.02 16 18.04 16 16 C17.98 16 19.96 16 22 16 C22 15.34 22 14.68 22 14 C20.02 14 18.04 14 16 14 C16 11.36 16 8.72 16 6 C10.72 6 5.44 6 0 6 C0 4.02 0 2.04 0 0 Z " fill="#C8DEF1" transform="translate(91,36)"/>
<path d="M0 0 C0.33 0 0.66 0 1 0 C1 30.03 1 60.06 1 91 C-4.28 91 -9.56 91 -15 91 C-15 64.93 -15 38.86 -15 12 C-14.67 12 -14.34 12 -14 12 C-14 34.44 -14 56.88 -14 80 C-11.03 79.505 -11.03 79.505 -8 79 C-7.34 78.01 -6.68 77.02 -6 76 C-6 77.32 -6 78.64 -6 80 C-4.02 80 -2.04 80 0 80 C0 53.6 0 27.2 0 0 Z " fill="#A195AC" transform="translate(121,84)"/>
<path d="M0 0 C0.66 0.33 1.32 0.66 2 1 C2 2.65 2 4.3 2 6 C3.98 6 5.96 6 8 6 C8 13.59 8 21.18 8 29 C3.33333333 29 -1.33333333 29 -6 29 C-6 21.41 -6 13.82 -6 6 C-4.02 6 -2.04 6 0 6 C0 4.02 0 2.04 0 0 Z " fill="#AFC6D9" transform="translate(113,135)"/>
<path d="M0 0 C0.71033431 5.52967941 1.30267176 10.49983036 0 16 C2.31 16 4.62 16 7 16 C7 11.71 7 7.42 7 3 C7.33 3 7.66 3 8 3 C8 4.98 8 6.96 8 9 C12.62 9 17.24 9 22 9 C22 9.33 22 9.66 22 10 C16.58855858 10.83970643 13.62652838 10.93775473 8 10 C8 14.62 8 19.24 8 24 C7.67 24 7.34 24 7 24 C7 22.02 7 20.04 7 18 C4.69 18 2.38 18 0 18 C0 22.29 0 26.58 0 31 C-2.64 31 -5.28 31 -8 31 C-8 21.1 -8 11.2 -8 1 C-1 0 -1 0 0 0 Z " fill="#B8D3EA" transform="translate(99,64)"/>
<path d="M0 0 C0.66 0 1.32 0 2 0 C2 1.98 2 3.96 2 6 C3.98 6 5.96 6 8 6 C8 4.02 8 2.04 8 0 C8.66 0 9.32 0 10 0 C10 1.98 10 3.96 10 6 C11.98 6 13.96 6 16 6 C16 4.02 16 2.04 16 0 C16.66 0 17.32 0 18 0 C18 1.98 18 3.96 18 6 C19.98 6 21.96 6 24 6 C24 4.02 24 2.04 24 0 C24.66 0 25.32 0 26 0 C26 1.98 26 3.96 26 6 C27.98 6 29.96 6 32 6 C32 4.02 32 2.04 32 0 C32.66 0 33.32 0 34 0 C34 1.98 34 3.96 34 6 C35.98 6 37.96 6 40 6 C40 4.02 40 2.04 40 0 C40.66 0 41.32 0 42 0 C42.495 2.97 42.495 2.97 43 6 C45.475 6.495 45.475 6.495 48 7 C48 7.33 48 7.66 48 8 C45.69 8 43.38 8 41 8 C41 9.98 41 11.96 41 14 C43.31 14 45.62 14 48 14 C48 14.33 48 14.66 48 15 C45.69 15 43.38 15 41 15 C41 16.98 41 18.96 41 21 C43.64 21 46.28 21 49 21 C49 21.33 49 21.66 49 22 C38.44 22 27.88 22 17 22 C17 40.48 17 58.96 17 78 C16.67 78 16.34 78 16 78 C16 59.19 16 40.38 16 21 C23.92 21 31.84 21 40 21 C40 16.71 40 12.42 40 8 C27.46 8 14.92 8 2 8 C2 10.64 2 13.28 2 16 C1.67 16 1.34 16 1 16 C0.67 10.72 0.34 5.44 0 0 Z " fill="#A9C7E2" transform="translate(105,6)"/>
<path d="M0 0 C0.33 0 0.66 0 1 0 C1 15.18 1 30.36 1 46 C2.98 46 4.96 46 7 46 C7.33 45.01 7.66 44.02 8 43 C8 43.99 8 44.98 8 46 C10.31 46 12.62 46 15 46 C15 49.63 15 53.26 15 57 C-0.51 57 -16.02 57 -32 57 C-32 56.67 -32 56.34 -32 56 C-21.44 56 -10.88 56 0 56 C0 37.52 0 19.04 0 0 Z " fill="#89C491" transform="translate(59,118)"/>
<path d="M0 0 C1.98 0 3.96 0 6 0 C6 14.52 6 29.04 6 44 C4.02 44 2.04 44 0 44 C0 37.07 0 30.14 0 23 C1.65 23 3.3 23 5 23 C5 22.34 5 21.68 5 21 C3.35 21 1.7 21 0 21 C0 19.02 0 17.04 0 15 C1.65 15 3.3 15 5 15 C5 14.34 5 13.68 5 13 C3.35 13 1.7 13 0 13 C0 8.71 0 4.42 0 0 Z " fill="#E6DEE9" transform="translate(20,67)"/>
<path d="M0 0 C0.33 0 0.66 0 1 0 C1 5.28 1 10.56 1 16 C2.98 15.67 4.96 15.34 7 15 C7 15.66 7 16.32 7 17 C5.02 17 3.04 17 1 17 C1 26.57 1 36.14 1 46 C2.98 46 4.96 46 7 46 C6.67 46.66 6.34 47.32 6 48 C4.35 47.67 2.7 47.34 1 47 C1 56.57 1 66.14 1 76 C2.65 76 4.3 76 6 76 C6 74.02 6 72.04 6 70 C5.01 69.67 4.02 69.34 3 69 C4.98 68.505 4.98 68.505 7 68 C7 76.91 7 85.82 7 95 C4.69 95 2.38 95 0 95 C0 63.65 0 32.3 0 0 Z " fill="#9FB2C5" transform="translate(154,80)"/>
<path d="M0 0 C1.98 0 3.96 0 6 0 C6 1.98 6 3.96 6 6 C6.66 6 7.32 6 8 6 C8 6.66 8 7.32 8 8 C9.98 8 11.96 8 14 8 C14 12.29 14 16.58 14 21 C9.38 21 4.76 21 0 21 C0 14.07 0 7.14 0 0 Z " fill="#C2DAEF" transform="translate(91,44)"/>
<path d="M0 0 C2.31 0 4.62 0 7 0 C7 4.95 7 9.9 7 15 C9.64 15 12.28 15 15 15 C15 17.31 15 19.62 15 22 C9.72 22 4.44 22 -1 22 C-1.02683201 18.52078265 -1.0467567 15.04176961 -1.0625 11.5625 C-1.07087891 10.56927734 -1.07925781 9.57605469 -1.08789062 8.55273438 C-1.09111328 7.60849609 -1.09433594 6.66425781 -1.09765625 5.69140625 C-1.10289307 4.81685791 -1.10812988 3.94230957 -1.11352539 3.04125977 C-1 1 -1 1 0 0 Z " fill="#B7D0E7" transform="translate(21,43)"/>
<path d="M0 0 C0.66 0 1.32 0 2 0 C2 1.98 2 3.96 2 6 C3.98 6 5.96 6 8 6 C8 6.66 8 7.32 8 8 C6.02 8 4.04 8 2 8 C2.185625 9.03125 2.37125 10.0625 2.5625 11.125 C2.97307082 14.76148442 2.778309 17.45437009 2 21 C3.98 21 5.96 21 8 21 C8 21.66 8 22.32 8 23 C6.02 23 4.04 23 2 23 C2 24.98 2 26.96 2 29 C-0.64 29 -3.28 29 -6 29 C-6 21.41 -6 13.82 -6 6 C-4.02 6 -2.04 6 0 6 C0 4.02 0 2.04 0 0 Z " fill="#BDD7EC" transform="translate(97,6)"/>
<path d="M0 0 C4.62 0 9.24 0 14 0 C14 1.98 14 3.96 14 6 C12.68 6 11.36 6 10 6 C10 6.66 10 7.32 10 8 C11.32 8 12.64 8 14 8 C14 9.65 14 11.3 14 13 C13.01 13.495 13.01 13.495 12 14 C12.66 14.33 13.32 14.66 14 15 C14 19.62 14 24.24 14 29 C13.34 29.33 12.68 29.66 12 30 C12.66 30.33 13.32 30.66 14 31 C14 32.65 14 34.3 14 36 C11.525 36.495 11.525 36.495 9 37 C9 26.77 9 16.54 9 6 C6.03 6 3.06 6 0 6 C0 4.02 0 2.04 0 0 Z " fill="#E6E4E4" transform="translate(146,21)"/>
<path d="M0 0 C1.98 0 3.96 0 6 0 C6.0246501 5.10863896 6.04283607 10.21724359 6.05493164 15.32592773 C6.05997204 17.06519168 6.0668043 18.80445136 6.07543945 20.54370117 C6.08751792 23.03825937 6.09323108 25.53276173 6.09765625 28.02734375 C6.10281754 28.80963852 6.10797882 29.59193329 6.11329651 30.39793396 C6.11349226 32.26567114 6.06199694 34.13329204 6 36 C5.505 36.495 5.505 36.495 5 37 C3.35 37 1.7 37 0 37 C0 24.79 0 12.58 0 0 Z " fill="#D9DBE4" transform="translate(60,97)"/>
<path d="M0 0 C4.95 0 9.9 0 15 0 C15 4.62 15 9.24 15 14 C10.05 14 5.1 14 0 14 C0 9.38 0 4.76 0 0 Z " fill="#C3DBF1" transform="translate(59,21)"/>
<path d="M0 0 C0.33 0 0.66 0 1 0 C1.93329843 9.73296932 2 19.16419911 2 29 C-8.56 29 -19.12 29 -30 29 C-30 21.08 -30 13.16 -30 5 C-29.67 5 -29.34 5 -29 5 C-28.93941406 6.13179687 -28.87882812 7.26359375 -28.81640625 8.4296875 C-28.73200083 9.91147145 -28.64735283 11.3932416 -28.5625 12.875 C-28.52318359 13.62136719 -28.48386719 14.36773437 -28.44335938 15.13671875 C-28.28426376 19.19986864 -28.28426376 19.19986864 -27 23 C-21.47518017 23.87695553 -16.13970207 24.0879381 -10.5546875 23.9375 C-7.35111873 24.01587477 -4.17232022 24.5468114 -1 25 C-0.67 16.75 -0.34 8.5 0 0 Z " fill="#01A20F" transform="translate(57,145)"/>
<path d="M0 0 C4.62 0 9.24 0 14 0 C14 4.62 14 9.24 14 14 C12.02 14 10.04 14 8 14 C8 12.02 8 10.04 8 8 C7.34 8 6.68 8 6 8 C6 9.98 6 11.96 6 14 C4.02 14 2.04 14 0 14 C0 9.38 0 4.76 0 0 Z " fill="#D5E0E9" transform="translate(107,74)"/>
<path d="M0 0 C0.33 0 0.66 0 1 0 C1 15.18 1 30.36 1 46 C2.65 46 4.3 46 6 46 C6 44.02 6 42.04 6 40 C4.68 40 3.36 40 2 40 C2 39.34 2 38.68 2 38 C3.65 38 5.3 38 7 38 C7 46.25 7 54.5 7 63 C5.02 63 3.04 63 1 63 C0.0693631 55.4553185 -0.13305095 48.02597673 -0.09765625 40.4296875 C-0.0962413 39.26744659 -0.09482635 38.10520569 -0.09336853 36.90774536 C-0.08781342 33.23013634 -0.07526941 29.55259033 -0.0625 25.875 C-0.05747919 23.36718839 -0.05291731 20.85937581 -0.04882812 18.3515625 C-0.03785872 12.23435384 -0.02116589 6.11718143 0 0 Z " fill="#AFC2D5" transform="translate(154,27)"/>
<path d="M0 0 C5.28 0 10.56 0 16 0 C16 2.64 16 5.28 16 8 C17.98 8 19.96 8 22 8 C22 8.66 22 9.32 22 10 C20.02 10 18.04 10 16 10 C16 11.98 16 13.96 16 16 C15.34 16 14.68 16 14 16 C14 14.02 14 12.04 14 10 C12.02 10 10.04 10 8 10 C8 9.34 8 8.68 8 8 C7.34 8 6.68 8 6 8 C6 6.02 6 4.04 6 2 C4.02 2 2.04 2 0 2 C0 1.34 0 0.68 0 0 Z " fill="#C3DDF1" transform="translate(91,42)"/>
<path d="M0 0 C1.65 0 3.3 0 5 0 C5 1.98 5 3.96 5 6 C4.01 6.495 4.01 6.495 3 7 C3.66 7.33 4.32 7.66 5 8 C5 15 5 22 5 29 C3.35 29 1.7 29 0 29 C0 19.43 0 9.86 0 0 Z " fill="#DAD8D7" transform="translate(155,97)"/>
<path d="M0 0 C1.65 0 3.3 0 5 0 C5.92092281 4.65537356 6.12205997 9.14685433 6.0625 13.875 C6.05798828 14.56335938 6.05347656 15.25171875 6.04882812 15.9609375 C6.03716336 17.64066335 6.01923271 19.32034375 6 21 C4.02 21 2.04 21 0 21 C0 14.07 0 7.14 0 0 Z " fill="#D3D2D9" transform="translate(20,90)"/>
<path d="M0 0 C0.33 0 0.66 0 1 0 C1 1.98 1 3.96 1 6 C3.31 6 5.62 6 8 6 C8 4.02 8 2.04 8 0 C8.33 0 8.66 0 9 0 C9 1.98 9 3.96 9 6 C11.31 6 13.62 6 16 6 C16 4.02 16 2.04 16 0 C16.33 0 16.66 0 17 0 C17 1.98 17 3.96 17 6 C19.31 6 21.62 6 24 6 C24 4.02 24 2.04 24 0 C24.33 0 24.66 0 25 0 C25 1.98 25 3.96 25 6 C27.31 6 29.62 6 32 6 C32 4.02 32 2.04 32 0 C32.33 0 32.66 0 33 0 C33 5.28 33 10.56 33 16 C32.34 15.34 31.68 14.68 31 14 C31.375 10.875 31.375 10.875 32 8 C30.2365625 8.309375 30.2365625 8.309375 28.4375 8.625 C24.09954633 9.18947526 21.09528583 8.45041373 17 7 C16.67 7.66 16.34 8.32 16 9 C10.72 9 5.44 9 0 9 C0 6.03 0 3.06 0 0 Z " fill="#B2CFE6" transform="translate(58,6)"/>
<path d="M0 0 C2.31 0 4.62 0 7 0 C7 4.62 7 9.24 7 14 C4.69 14 2.38 14 0 14 C0 9.38 0 4.76 0 0 Z " fill="#CDDCE9" transform="translate(75,74)"/>
<path d="M0 0 C2.31 0 4.62 0 7 0 C7 4.62 7 9.24 7 14 C4.69 14 2.38 14 0 14 C0 9.38 0 4.76 0 0 Z " fill="#D2E0ED" transform="translate(83,59)"/>
<path d="M0 0 C2.31 0 4.62 0 7 0 C7 4.62 7 9.24 7 14 C4.69 14 2.38 14 0 14 C0 9.38 0 4.76 0 0 Z " fill="#D5E3F0" transform="translate(83,44)"/>
<path d="M0 0 C2.31 0 4.62 0 7 0 C7 4.62 7 9.24 7 14 C4.69 14 2.38 14 0 14 C0 9.38 0 4.76 0 0 Z " fill="#C7DBEB" transform="translate(91,67)"/>
<path d="M0 0 C2.5 0.125 2.5 0.125 3.5 1.125 C3.57258946 3.31139453 3.58373783 5.50000389 3.5625 7.6875 C3.55347656 8.88503906 3.54445313 10.08257812 3.53515625 11.31640625 C3.52355469 12.24324219 3.51195313 13.17007813 3.5 14.125 C1.19 14.125 -1.12 14.125 -3.5 14.125 C-3.52685938 11.97923363 -3.54633088 9.83337355 -3.5625 7.6875 C-3.57410156 6.49253906 -3.58570312 5.29757813 -3.59765625 4.06640625 C-3.46840705 0.17342035 -3.46840705 0.17342035 0 0 Z " fill="#D2E3F1" transform="translate(78.5,35.875)"/>
<path d="M0 0 C0.66 0 1.32 0 2 0 C2 1.98 2 3.96 2 6 C3.98 6 5.96 6 8 6 C8 6.66 8 7.32 8 8 C6.02 8 4.04 8 2 8 C2 9.98 2 11.96 2 14 C3.65 14 5.3 14 7 14 C7 14.33 7 14.66 7 15 C4.69 15 2.38 15 0 15 C0 16.98 0 18.96 0 21 C-1.98 21 -3.96 21 -6 21 C-6 18.69 -6 16.38 -6 14 C-4.02 14 -2.04 14 0 14 C0 11.69 0 9.38 0 7 C-1.65 7 -3.3 7 -5 7 C-5 6.67 -5 6.34 -5 6 C-3.35 6 -1.7 6 0 6 C0 4.02 0 2.04 0 0 Z " fill="#B8D2E8" transform="translate(113,82)"/>
<path d="M0 0 C2.78637633 4.1795645 1.79562512 6.14668677 1 11 C3.31 11 5.62 11 8 11 C8 11.33 8 11.66 8 12 C6.02 12.33 4.04 12.66 2 13 C1.67 14.65 1.34 16.3 1 18 C0.67 18 0.34 18 0 18 C0 16.02 0 14.04 0 12 C-1.7634375 12.2784375 -1.7634375 12.2784375 -3.5625 12.5625 C-7.52167758 13.1876333 -11.05927029 12.64484668 -15 12 C-14.91621094 13.00160156 -14.83242188 14.00320312 -14.74609375 15.03515625 C-14.64283088 16.37757359 -14.53998879 17.72002334 -14.4375 19.0625 C-14.33308594 20.37347656 -14.22867188 21.68445313 -14.12109375 23.03515625 C-14.00234381 26.92325897 -14.33133784 30.19110223 -15 34 C-15.33 34 -15.66 34 -16 34 C-16 26.74 -16 19.48 -16 12 C-19.96 12 -23.92 12 -28 12 C-28 11.67 -28 11.34 -28 11 C-24.04 11 -20.08 11 -16 11 C-16 9.02 -16 7.04 -16 5 C-15.67 5 -15.34 5 -15 5 C-15 6.98 -15 8.96 -15 11 C-10.05 11 -5.1 11 0 11 C0 7.37 0 3.74 0 0 Z " fill="#B5D5F0" transform="translate(58,24)"/>
<path d="M0 0 C1.98 0 3.96 0 6 0 C6 4.62 6 9.24 6 14 C4.02 14 2.04 14 0 14 C0 9.38 0 4.76 0 0 Z " fill="#C3D4E2" transform="translate(67,112)"/>
<path d="M0 0 C1.65 0 3.3 0 5 0 C5 5.61 5 11.22 5 17 C3.02 17 1.04 17 -1 17 C-0.67 11.39 -0.34 5.78 0 0 Z " fill="#C6C3C3" transform="translate(155,158)"/>
<path d="M0 0 C1.98 0 3.96 0 6 0 C6 4.62 6 9.24 6 14 C4.02 14 2.04 14 0 14 C0 9.38 0 4.76 0 0 Z " fill="#D6D0D6" transform="translate(20,112)"/>
<path d="M0 0 C1.98 0 3.96 0 6 0 C6 4.62 6 9.24 6 14 C4.02 14 2.04 14 0 14 C0 9.38 0 4.76 0 0 Z " fill="#E1E3EE" transform="translate(60,82)"/>
<path d="M0 0 C0.33 0.99 0.66 1.98 1 3 C2.98 3 4.96 3 7 3 C7 3.66 7 4.32 7 5 C5.35 5 3.7 5 2 5 C2 6.65 2 8.3 2 10 C3.32 10.33 4.64 10.66 6 11 C2.04 11 -1.92 11 -6 11 C-6 8.36 -6 5.72 -6 3 C-4.02 3 -2.04 3 0 3 C0 2.01 0 1.02 0 0 Z " fill="#B6C5D5" transform="translate(66,153)"/>
<path d="M0 0 C1.98 0 3.96 0 6 0 C6 4.29 6 8.58 6 13 C4.02 13 2.04 13 0 13 C0 8.71 0 4.42 0 0 Z " fill="#E1E4E4" transform="translate(107,120)"/>
<path d="M0 0 C1.98 0 3.96 0 6 0 C6 4.29 6 8.58 6 13 C4.02 13 2.04 13 0 13 C0 8.71 0 4.42 0 0 Z " fill="#EEEBE8" transform="translate(115,90)"/>
<path d="M0 0 C1.65 0 3.3 0 5 0 C6.73956658 1.73956658 6.37190386 4.1936622 6.5625 6.5625 C6.64628906 7.57441406 6.73007812 8.58632812 6.81640625 9.62890625 C6.87699219 10.41136719 6.93757813 11.19382813 7 12 C4.69 12 2.38 12 0 12 C0 8.04 0 4.08 0 0 Z " fill="#C4C2C6" transform="translate(20,163)"/>
<path d="M0 0 C1.4540625 0.0309375 1.4540625 0.0309375 2.9375 0.0625 C2.9375 3.3625 2.9375 6.6625 2.9375 10.0625 C0.6275 10.0625 -1.6825 10.0625 -4.0625 10.0625 C-4.08939216 8.58343108 -4.10884621 7.10422517 -4.125 5.625 C-4.13660156 4.80128906 -4.14820312 3.97757813 -4.16015625 3.12890625 C-4.00103255 -0.23815127 -3.43619093 0.07012635 0 0 Z " fill="#C6C4C6" transform="translate(71.0625,164.9375)"/>
<path d="M0 0 C1.65 0 3.3 0 5 0 C5.95261487 4.76307437 6.08333357 9.1666528 6 14 C3.03 13.505 3.03 13.505 0 13 C0 11.35 0 9.7 0 8 C0.66 7.67 1.32 7.34 2 7 C1.34 6.67 0.68 6.34 0 6 C0 4.02 0 2.04 0 0 Z " fill="#CCC8CC" transform="translate(20,150)"/>
<path d="M0 0 C1.98 0 3.96 0 6 0 C6.125 4.75 6.125 4.75 5 7 C4.960008 8.99960012 4.95653201 11.00047242 5 13 C3.35 13 1.7 13 0 13 C0 8.71 0 4.42 0 0 Z " fill="#D2CDCC" transform="translate(155,143)"/>
<path d="M0 0 C2.475 0.495 2.475 0.495 5 1 C5 5.29 5 9.58 5 14 C3.35 14 1.7 14 0 14 C0 9.38 0 4.76 0 0 Z " fill="#E2DFDE" transform="translate(155,74)"/>
<path d="M0 0 C0.66 0 1.32 0 2 0 C1.67 9.9 1.34 19.8 1 30 C0.34 30.33 -0.32 30.66 -1 31 C-3.125 30.0625 -3.125 30.0625 -5 29 C-3.68 28.67 -2.36 28.34 -1 28 C-1 26.35 -1 24.7 -1 23 C-2.32 23 -3.64 23 -5 23 C-5 22.34 -5 21.68 -5 21 C-3.68 21 -2.36 21 -1 21 C-0.67 14.07 -0.34 7.14 0 0 Z " fill="#C0CFDD" transform="translate(161,6)"/>
<path d="M0 0 C1.98 0 3.96 0 6 0 C6 3.3 6 6.6 6 10 C3.69 10 1.38 10 -1 10 C-0.67 6.7 -0.34 3.4 0 0 Z " fill="#CECFD3" transform="translate(107,165)"/>
<path d="M0 0 C1.98 0 3.96 0 6 0 C6 3.3 6 6.6 6 10 C4.02 10 2.04 10 0 10 C0 6.7 0 3.4 0 0 Z " fill="#D3CFCE" transform="translate(115,165)"/>
<path d="M0 0 C1.65 0 3.3 0 5 0 C6 1 6 1 6.09765625 3.06640625 C6.08605469 3.89011719 6.07445313 4.71382812 6.0625 5.5625 C6.05347656 6.38878906 6.04445313 7.21507812 6.03515625 8.06640625 C6.01775391 9.02353516 6.01775391 9.02353516 6 10 C4.02 10 2.04 10 0 10 C0 6.7 0 3.4 0 0 Z " fill="#D4CED2" transform="translate(60,165)"/>
<path d="M0 0 C2.475 0.495 2.475 0.495 5 1 C5 2.65 5 4.3 5 6 C3.68 6 2.36 6 1 6 C1 6.66 1 7.32 1 8 C2.32 8 3.64 8 5 8 C5 9.98 5 11.96 5 14 C3.35 14 1.7 14 0 14 C0 9.38 0 4.76 0 0 Z " fill="#EAE5E2" transform="translate(155,59)"/>
<path d="M0 0 C0.33 0 0.66 0 1 0 C1 3.96 1 7.92 1 12 C3.31 12 5.62 12 8 12 C8 12.33 8 12.66 8 13 C5.69 13 3.38 13 1 13 C1 17.62 1 22.24 1 27 C2.98 27 4.96 27 7 27 C7 27.33 7 27.66 7 28 C2.6835078 28.76173392 -0.74433453 29.16063604 -5 28 C-5 27.67 -5 27.34 -5 27 C-3.35 27 -1.7 27 0 27 C0 25.02 0 23.04 0 21 C-1.65 21 -3.3 21 -5 21 C-5 20.67 -5 20.34 -5 20 C-3.35 20 -1.7 20 0 20 C0 17.69 0 15.38 0 13 C-1.65 13 -3.3 13 -5 13 C-5 12.67 -5 12.34 -5 12 C-3.35 12 -1.7 12 0 12 C0 8.04 0 4.08 0 0 Z " fill="#AAC8E1" transform="translate(66,99)"/>
<path d="M0 0 C0.66 0 1.32 0 2 0 C2 2.64 2 5.28 2 8 C3.98 8 5.96 8 8 8 C8 8.66 8 9.32 8 10 C6.02 10 4.04 10 2 10 C2 11.98 2 13.96 2 16 C1.34 16 0.68 16 0 16 C0 14.02 0 12.04 0 10 C-1.98 10 -3.96 10 -6 10 C-6 9.34 -6 8.68 -6 8 C-4.02 8 -2.04 8 0 8 C0 5.36 0 2.72 0 0 Z " fill="#C2DAF1" transform="translate(105,42)"/>
<path d="M0 0 C0.33 0 0.66 0 1 0 C1 9.57 1 19.14 1 29 C-0.98 28.67 -2.96 28.34 -5 28 C-5 26.35 -5 24.7 -5 23 C-3.35 23 -1.7 23 0 23 C0 15.41 0 7.82 0 0 Z " fill="#CEC1C1" transform="translate(73,135)"/>
<path d="M0 0 C1.99954746 -0.04254356 4.00041636 -0.04080783 6 0 C7 1 7 1 7.0625 4.0625 C7.041875 5.031875 7.02125 6.00125 7 7 C4.69 7 2.38 7 0 7 C0 4.69 0 2.38 0 0 Z " fill="#E4E8EC" transform="translate(75,13)"/>
<path d="M0 0 C1.99954746 -0.04254356 4.00041636 -0.04080783 6 0 C7 1 7 1 7.0625 4.0625 C7.041875 5.031875 7.02125 6.00125 7 7 C5.00045254 7.04254356 2.99958364 7.04080783 1 7 C0 6 0 6 -0.0625 2.9375 C-0.041875 1.968125 -0.02125 0.99875 0 0 Z " fill="#E4E7EA" transform="translate(83,74)"/>
<path d="M0 0 C1.99954746 -0.04254356 4.00041636 -0.04080783 6 0 C7 1 7 1 7.125 3.5 C7 6 7 6 6 7 C4.00041636 7.04080783 1.99954746 7.04254356 0 7 C0 4.69 0 2.38 0 0 Z " fill="#EBEEF1" transform="translate(83,36)"/>
<path d="M0 0 C1.98 0 3.96 0 6 0 C6 2.31 6 4.62 6 7 C4.02 7 2.04 7 0 7 C0 4.69 0 2.38 0 0 Z " fill="#E1DFDE" transform="translate(115,127)"/>
<path d="M0 0 C2.31 0 4.62 0 7 0 C7 1.98 7 3.96 7 6 C4.69 6 2.38 6 0 6 C0 4.02 0 2.04 0 0 Z " fill="#E7E7E8" transform="translate(67,82)"/>
<path d="M0 0 C2.31 0 4.62 0 7 0 C7 1.98 7 3.96 7 6 C4.69 6 2.38 6 0 6 C0 4.02 0 2.04 0 0 Z " fill="#E7E7E8" transform="translate(83,82)"/>
<path d="M0 0 C2.31 0 4.62 0 7 0 C7 1.98 7 3.96 7 6 C4.69 6 2.38 6 0 6 C0 4.02 0 2.04 0 0 Z " fill="#EBEAEC" transform="translate(75,67)"/>
<path d="M0 0 C2.31 0 4.62 0 7 0 C7 1.98 7 3.96 7 6 C4.69 6 2.38 6 0 6 C0 4.02 0 2.04 0 0 Z " fill="#ECECEE" transform="translate(75,59)"/>
<path d="M0 0 C2.31 0 4.62 0 7 0 C7 1.98 7 3.96 7 6 C4.69 6 2.38 6 0 6 C0 4.02 0 2.04 0 0 Z " fill="#ECECEE" transform="translate(59,59)"/>
<path d="M0 0 C2.31 0 4.62 0 7 0 C7 1.98 7 3.96 7 6 C4.69 6 2.38 6 0 6 C0 4.02 0 2.04 0 0 Z " fill="#EFEBF1" transform="translate(43,59)"/>
<path d="M0 0 C2.31 0 4.62 0 7 0 C7 1.98 7 3.96 7 6 C4.69 6 2.38 6 0 6 C0 4.02 0 2.04 0 0 Z " fill="#EDEEF0" transform="translate(67,52)"/>
<path d="M0 0 C2.31 0 4.62 0 7 0 C7 1.98 7 3.96 7 6 C4.69 6 2.38 6 0 6 C0 4.02 0 2.04 0 0 Z " fill="#EDEEF0" transform="translate(59,52)"/>
<path d="M0 0 C2.31 0 4.62 0 7 0 C7 1.98 7 3.96 7 6 C4.69 6 2.38 6 0 6 C0 4.02 0 2.04 0 0 Z " fill="#ECECEE" transform="translate(43,52)"/>
<path d="M0 0 C2.31 0 4.62 0 7 0 C7 1.98 7 3.96 7 6 C4.69 6 2.38 6 0 6 C0 4.02 0 2.04 0 0 Z " fill="#EDEEF0" transform="translate(75,52)"/>
<path d="M0 0 C2.31 0 4.62 0 7 0 C7 1.98 7 3.96 7 6 C4.69 6 2.38 6 0 6 C0 4.02 0 2.04 0 0 Z " fill="#F0EFF1" transform="translate(67,44)"/>
<path d="M0 0 C2.31 0 4.62 0 7 0 C7 1.98 7 3.96 7 6 C4.69 6 2.38 6 0 6 C0 4.02 0 2.04 0 0 Z " fill="#EFEFF1" transform="translate(59,44)"/>
<path d="M0 0 C2.31 0 4.62 0 7 0 C7 1.98 7 3.96 7 6 C4.69 6 2.38 6 0 6 C0 4.02 0 2.04 0 0 Z " fill="#F0EEEF" transform="translate(43,44)"/>
<path d="M0 0 C2.31 0 4.62 0 7 0 C7 1.98 7 3.96 7 6 C4.69 6 2.38 6 0 6 C0 4.02 0 2.04 0 0 Z " fill="#EFEFF1" transform="translate(59,29)"/>
<path d="M0 0 C2.31 0 4.62 0 7 0 C7 1.98 7 3.96 7 6 C4.69 6 2.38 6 0 6 C0 4.02 0 2.04 0 0 Z " fill="#EFEFF1" transform="translate(83,29)"/>
<path d="M0 0 C2.31 0 4.62 0 7 0 C7 1.98 7 3.96 7 6 C4.69 6 2.38 6 0 6 C0 4.02 0 2.04 0 0 Z " fill="#EEEEEF" transform="translate(83,21)"/>
<path d="M0 0 C2.31 0 4.62 0 7 0 C7 1.98 7 3.96 7 6 C4.69 6 2.38 6 0 6 C0 4.02 0 2.04 0 0 Z " fill="#EEEEEF" transform="translate(59,21)"/>
<path d="M0 0 C2.31 0 4.62 0 7 0 C7 1.98 7 3.96 7 6 C4.69 6 2.38 6 0 6 C0 4.02 0 2.04 0 0 Z " fill="#EBEAEA" transform="translate(146,21)"/>
<path d="M0 0 C2.31 0 4.62 0 7 0 C7 1.98 7 3.96 7 6 C4.69 6 2.38 6 0 6 C0 4.02 0 2.04 0 0 Z " fill="#EEEEEF" transform="translate(67,21)"/>
<path d="M0 0 C2.31 0 4.62 0 7 0 C7 1.98 7 3.96 7 6 C4.69 6 2.38 6 0 6 C0 4.02 0 2.04 0 0 Z " fill="#E9EAEC" transform="translate(83,14)"/>
<path d="M0 0 C2.31 0 4.62 0 7 0 C7 1.98 7 3.96 7 6 C4.69 6 2.38 6 0 6 C0 4.02 0 2.04 0 0 Z " fill="#E9EAEC" transform="translate(67,14)"/>
<path d="M0 0 C2.31 0 4.62 0 7 0 C7 1.98 7 3.96 7 6 C4.69 6 2.38 6 0 6 C0 4.02 0 2.04 0 0 Z " fill="#E9EAEC" transform="translate(59,14)"/>
<path d="M0 0 C2.31 0 4.62 0 7 0 C7 1.98 7 3.96 7 6 C4.69 6 2.38 6 0 6 C0 4.02 0 2.04 0 0 Z " fill="#EAE9EB" transform="translate(43,14)"/>
<path d="M0 0 C2.31 0 4.62 0 7 0 C7 1.98 7 3.96 7 6 C4.69 6 2.38 6 0 6 C0 4.02 0 2.04 0 0 Z " fill="#E4E5E7" transform="translate(146,14)"/>
<path d="M0 0 C0.33 1.32 0.66 2.64 1 4 C2.98 4 4.96 4 7 4 C7 4.33 7 4.66 7 5 C5.02 5 3.04 5 1 5 C1 8.3 1 11.6 1 15 C0.34 15 -0.32 15 -1 15 C-1 11.7 -1 8.4 -1 5 C-2.98 5 -4.96 5 -7 5 C-7 4.67 -7 4.34 -7 4 C-5.02 3.67 -3.04 3.34 -1 3 C-0.67 2.01 -0.34 1.02 0 0 Z " fill="#A4B9CC" transform="translate(114,160)"/>
<path d="M0 0 C1.98 0 3.96 0 6 0 C6 2.31 6 4.62 6 7 C3.03 6.505 3.03 6.505 0 6 C0 4.02 0 2.04 0 0 Z " fill="#F5F4F3" transform="translate(115,36)"/>
<path d="M0 0 C1.98 0 3.96 0 6 0 C6 1.98 6 3.96 6 6 C4.02 6 2.04 6 0 6 C0 4.02 0 2.04 0 0 Z " fill="#DAD5D3" transform="translate(115,158)"/>
<path d="M0 0 C1.98 0 3.96 0 6 0 C6 1.98 6 3.96 6 6 C4.02 6 2.04 6 0 6 C0 4.02 0 2.04 0 0 Z " fill="#D6D6D8" transform="translate(107,158)"/>
<path d="M0 0 C1.98 0 3.96 0 6 0 C6 1.98 6 3.96 6 6 C4.02 6 2.04 6 0 6 C0 4.02 0 2.04 0 0 Z " fill="#DDD9D8" transform="translate(115,150)"/>
<path d="M0 0 C1.98 0 3.96 0 6 0 C6 1.98 6 3.96 6 6 C4.02 6 2.04 6 0 6 C0 4.02 0 2.04 0 0 Z " fill="#DADCDC" transform="translate(107,150)"/>
<path d="M0 0 C1.98 0 3.96 0 6 0 C6 1.98 6 3.96 6 6 C4.02 6 2.04 6 0 6 C0 4.02 0 2.04 0 0 Z " fill="#E0DCDA" transform="translate(115,143)"/>
<path d="M0 0 C1.98 0 3.96 0 6 0 C6 1.98 6 3.96 6 6 C4.02 6 2.04 6 0 6 C0 4.02 0 2.04 0 0 Z " fill="#DCDEDE" transform="translate(107,143)"/>
<path d="M0 0 C1.98 0 3.96 0 6 0 C6 1.98 6 3.96 6 6 C4.02 6 2.04 6 0 6 C0 4.02 0 2.04 0 0 Z " fill="#E4DFDC" transform="translate(115,135)"/>
<path d="M0 0 C1.98 0 3.96 0 6 0 C6 1.98 6 3.96 6 6 C4.02 6 2.04 6 0 6 C0 4.02 0 2.04 0 0 Z " fill="#E1E2E1" transform="translate(107,135)"/>
<path d="M0 0 C1.98 0 3.96 0 6 0 C6 1.98 6 3.96 6 6 C4.02 6 2.04 6 0 6 C0 4.02 0 2.04 0 0 Z " fill="#E0E4E3" transform="translate(67,135)"/>
<path d="M0 0 C1.98 0 3.96 0 6 0 C6 1.98 6 3.96 6 6 C4.02 6 2.04 6 0 6 C0 4.02 0 2.04 0 0 Z " fill="#E3DCE0" transform="translate(60,135)"/>
<path d="M0 0 C1.98 0 3.96 0 6 0 C6 1.98 6 3.96 6 6 C4.02 6 2.04 6 0 6 C0 4.02 0 2.04 0 0 Z " fill="#E7E2E0" transform="translate(115,120)"/>
<path d="M0 0 C1.98 0 3.96 0 6 0 C6 1.98 6 3.96 6 6 C4.02 6 2.04 6 0 6 C0 4.02 0 2.04 0 0 Z " fill="#E8E4E2" transform="translate(115,112)"/>
<path d="M0 0 C1.98 0 3.96 0 6 0 C6 1.98 6 3.96 6 6 C4.02 6 2.04 6 0 6 C0 4.02 0 2.04 0 0 Z " fill="#E4E6E6" transform="translate(107,112)"/>
<path d="M0 0 C1.98 0 3.96 0 6 0 C6 1.98 6 3.96 6 6 C4.02 6 2.04 6 0 6 C0 4.02 0 2.04 0 0 Z " fill="#E9E6E4" transform="translate(115,105)"/>
<path d="M0 0 C1.98 0 3.96 0 6 0 C6 1.98 6 3.96 6 6 C4.02 6 2.04 6 0 6 C0 4.02 0 2.04 0 0 Z " fill="#E6E9E8" transform="translate(107,105)"/>
<path d="M0 0 C1.98 0 3.96 0 6 0 C6 1.98 6 3.96 6 6 C4.02 6 2.04 6 0 6 C0 4.02 0 2.04 0 0 Z " fill="#E7EDEE" transform="translate(107,97)"/>
<path d="M0 0 C1.98 0 3.96 0 6 0 C6 1.98 6 3.96 6 6 C4.02 6 2.04 6 0 6 C0 4.02 0 2.04 0 0 Z " fill="#EDE9E8" transform="translate(99,82)"/>
<path d="M0 0 C1.98 0 3.96 0 6 0 C6 1.98 6 3.96 6 6 C4.02 6 2.04 6 0 6 C0 4.02 0 2.04 0 0 Z " fill="#ECE9E8" transform="translate(91,82)"/>
<path d="M0 0 C1.98 0 3.96 0 6 0 C6 1.98 6 3.96 6 6 C4.02 6 2.04 6 0 6 C0 4.02 0 2.04 0 0 Z " fill="#EBE9E8" transform="translate(75,82)"/>
<path d="M0 0 C1.98 0 3.96 0 6 0 C6 1.98 6 3.96 6 6 C4.02 6 2.04 6 0 6 C0 4.02 0 2.04 0 0 Z " fill="#F1ECEA" transform="translate(115,82)"/>
<path d="M0 0 C1.98 0 3.96 0 6 0 C6 1.98 6 3.96 6 6 C4.02 6 2.04 6 0 6 C0 4.02 0 2.04 0 0 Z " fill="#ECEBEB" transform="translate(107,74)"/>
<path d="M0 0 C1.98 0 3.96 0 6 0 C6 1.98 6 3.96 6 6 C4.02 6 2.04 6 0 6 C0 4.02 0 2.04 0 0 Z " fill="#F0EEEB" transform="translate(115,74)"/>
<path d="M0 0 C1.98 0 3.96 0 6 0 C6 1.98 6 3.96 6 6 C4.02 6 2.04 6 0 6 C0 4.02 0 2.04 0 0 Z " fill="#F0ECF0" transform="translate(60,67)"/>
<path d="M0 0 C1.98 0 3.96 0 6 0 C6 1.98 6 3.96 6 6 C4.02 6 2.04 6 0 6 C0 4.02 0 2.04 0 0 Z " fill="#F3EFED" transform="translate(115,67)"/>
<path d="M0 0 C1.98 0 3.96 0 6 0 C6 1.98 6 3.96 6 6 C4.02 6 2.04 6 0 6 C0 4.02 0 2.04 0 0 Z " fill="#F0EDEC" transform="translate(91,67)"/>
<path d="M0 0 C1.98 0 3.96 0 6 0 C6 1.98 6 3.96 6 6 C4.02 6 2.04 6 0 6 C0 4.02 0 2.04 0 0 Z " fill="#F0EDEC" transform="translate(107,67)"/>
<path d="M0 0 C1.98 0 3.96 0 6 0 C6 1.98 6 3.96 6 6 C4.02 6 2.04 6 0 6 C0 4.02 0 2.04 0 0 Z " fill="#F0EDEC" transform="translate(99,67)"/>
<path d="M0 0 C1.98 0 3.96 0 6 0 C6 1.98 6 3.96 6 6 C4.02 6 2.04 6 0 6 C0 4.02 0 2.04 0 0 Z " fill="#F3F1F0" transform="translate(115,59)"/>
<path d="M0 0 C1.98 0 3.96 0 6 0 C6 1.98 6 3.96 6 6 C4.02 6 2.04 6 0 6 C0 4.02 0 2.04 0 0 Z " fill="#F1EEED" transform="translate(107,59)"/>
<path d="M0 0 C1.98 0 3.96 0 6 0 C6 1.98 6 3.96 6 6 C4.02 6 2.04 6 0 6 C0 4.02 0 2.04 0 0 Z " fill="#F1EEEE" transform="translate(99,59)"/>
<path d="M0 0 C1.98 0 3.96 0 6 0 C6 1.98 6 3.96 6 6 C4.02 6 2.04 6 0 6 C0 4.02 0 2.04 0 0 Z " fill="#F1EEEE" transform="translate(91,59)"/>
<path d="M0 0 C1.98 0 3.96 0 6 0 C6 1.98 6 3.96 6 6 C4.02 6 2.04 6 0 6 C0 4.02 0 2.04 0 0 Z " fill="#F1EBF1" transform="translate(36,59)"/>
<path d="M0 0 C1.98 0 3.96 0 6 0 C6 1.98 6 3.96 6 6 C4.02 6 2.04 6 0 6 C0 4.02 0 2.04 0 0 Z " fill="#F3EEF4" transform="translate(52,59)"/>
<path d="M0 0 C1.98 0 3.96 0 6 0 C6 1.98 6 3.96 6 6 C4.02 6 2.04 6 0 6 C0 4.02 0 2.04 0 0 Z " fill="#EDE6ED" transform="translate(28,59)"/>
<path d="M0 0 C1.98 0 3.96 0 6 0 C6 1.98 6 3.96 6 6 C4.02 6 2.04 6 0 6 C0 4.02 0 2.04 0 0 Z " fill="#E1DFDF" transform="translate(20,59)"/>
<path d="M0 0 C1.98 0 3.96 0 6 0 C6 1.98 6 3.96 6 6 C4.02 6 2.04 6 0 6 C0 4.02 0 2.04 0 0 Z " fill="#EEECEC" transform="translate(36,52)"/>
<path d="M0 0 C1.98 0 3.96 0 6 0 C6 1.98 6 3.96 6 6 C4.02 6 2.04 6 0 6 C0 4.02 0 2.04 0 0 Z " fill="#F2F0EF" transform="translate(52,52)"/>
<path d="M0 0 C1.98 0 3.96 0 6 0 C6 1.98 6 3.96 6 6 C4.02 6 2.04 6 0 6 C0 4.02 0 2.04 0 0 Z " fill="#EBE8E8" transform="translate(28,52)"/>
<path d="M0 0 C1.98 0 3.96 0 6 0 C6 1.98 6 3.96 6 6 C4.02 6 2.04 6 0 6 C0 4.02 0 2.04 0 0 Z " fill="#F2F0F0" transform="translate(99,52)"/>
<path d="M0 0 C1.98 0 3.96 0 6 0 C6 1.98 6 3.96 6 6 C4.02 6 2.04 6 0 6 C0 4.02 0 2.04 0 0 Z " fill="#F4F3F1" transform="translate(115,52)"/>
<path d="M0 0 C1.98 0 3.96 0 6 0 C6 1.98 6 3.96 6 6 C4.02 6 2.04 6 0 6 C0 4.02 0 2.04 0 0 Z " fill="#F2F1F0" transform="translate(107,52)"/>
<path d="M0 0 C1.98 0 3.96 0 6 0 C6 1.98 6 3.96 6 6 C4.02 6 2.04 6 0 6 C0 4.02 0 2.04 0 0 Z " fill="#E2E0E0" transform="translate(20,52)"/>
<path d="M0 0 C1.98 0 3.96 0 6 0 C6 1.98 6 3.96 6 6 C4.02 6 2.04 6 0 6 C0 4.02 0 2.04 0 0 Z " fill="#F5F1F1" transform="translate(99,44)"/>
<path d="M0 0 C1.98 0 3.96 0 6 0 C6 1.98 6 3.96 6 6 C4.02 6 2.04 6 0 6 C0 4.02 0 2.04 0 0 Z " fill="#F4F1F1" transform="translate(91,44)"/>
<path d="M0 0 C1.98 0 3.96 0 6 0 C6 1.98 6 3.96 6 6 C4.02 6 2.04 6 0 6 C0 4.02 0 2.04 0 0 Z " fill="#F5F1F1" transform="translate(52,44)"/>
<path d="M0 0 C1.98 0 3.96 0 6 0 C6 1.98 6 3.96 6 6 C4.02 6 2.04 6 0 6 C0 4.02 0 2.04 0 0 Z " fill="#F3EEED" transform="translate(36,44)"/>
<path d="M0 0 C1.98 0 3.96 0 6 0 C6 1.98 6 3.96 6 6 C4.02 6 2.04 6 0 6 C0 4.02 0 2.04 0 0 Z " fill="#F5F2F1" transform="translate(107,44)"/>
<path d="M0 0 C1.98 0 3.96 0 6 0 C6 1.98 6 3.96 6 6 C4.02 6 2.04 6 0 6 C0 4.02 0 2.04 0 0 Z " fill="#E6E2E1" transform="translate(20,44)"/>
<path d="M0 0 C1.98 0 3.96 0 6 0 C6 1.98 6 3.96 6 6 C4.02 6 2.04 6 0 6 C0 4.02 0 2.04 0 0 Z " fill="#F7F4F2" transform="translate(115,44)"/>
<path d="M0 0 C1.98 0 3.96 0 6 0 C6 1.98 6 3.96 6 6 C4.02 6 2.04 6 0 6 C0 4.02 0 2.04 0 0 Z " fill="#EEEAE9" transform="translate(28,44)"/>
<path d="M0 0 C1.98 0 3.96 0 6 0 C6 1.98 6 3.96 6 6 C4.02 6 2.04 6 0 6 C0 4.02 0 2.04 0 0 Z " fill="#E4E3E3" transform="translate(20,36)"/>
<path d="M0 0 C1.98 0 3.96 0 6 0 C6 1.98 6 3.96 6 6 C4.02 6 2.04 6 0 6 C0 4.02 0 2.04 0 0 Z " fill="#F7F4F2" transform="translate(115,29)"/>
<path d="M0 0 C1.98 0 3.96 0 6 0 C6 1.98 6 3.96 6 6 C4.02 6 2.04 6 0 6 C0 4.02 0 2.04 0 0 Z " fill="#F4F1F1" transform="translate(52,29)"/>
<path d="M0 0 C1.98 0 3.96 0 6 0 C6 1.98 6 3.96 6 6 C4.02 6 2.04 6 0 6 C0 4.02 0 2.04 0 0 Z " fill="#F2EFEE" transform="translate(36,29)"/>
<path d="M0 0 C1.98 0 3.96 0 6 0 C6 1.98 6 3.96 6 6 C4.02 6 2.04 6 0 6 C0 4.02 0 2.04 0 0 Z " fill="#EDEAEA" transform="translate(28,29)"/>
<path d="M0 0 C1.98 0 3.96 0 6 0 C6 1.98 6 3.96 6 6 C4.02 6 2.04 6 0 6 C0 4.02 0 2.04 0 0 Z " fill="#F3F1F1" transform="translate(75,29)"/>
<path d="M0 0 C1.98 0 3.96 0 6 0 C6 1.98 6 3.96 6 6 C4.02 6 2.04 6 0 6 C0 4.02 0 2.04 0 0 Z " fill="#F3F1F1" transform="translate(68,29)"/>
<path d="M0 0 C1.98 0 3.96 0 6 0 C6 1.98 6 3.96 6 6 C4.02 6 2.04 6 0 6 C0 4.02 0 2.04 0 0 Z " fill="#F5F2F1" transform="translate(107,29)"/>
<path d="M0 0 C1.98 0 3.96 0 6 0 C6 1.98 6 3.96 6 6 C4.02 6 2.04 6 0 6 C0 4.02 0 2.04 0 0 Z " fill="#F5F1F1" transform="translate(99,29)"/>
<path d="M0 0 C1.98 0 3.96 0 6 0 C6 1.98 6 3.96 6 6 C4.02 6 2.04 6 0 6 C0 4.02 0 2.04 0 0 Z " fill="#F5F2F1" transform="translate(91,29)"/>
<path d="M0 0 C1.98 0 3.96 0 6 0 C6 1.98 6 3.96 6 6 C4.02 6 2.04 6 0 6 C0 4.02 0 2.04 0 0 Z " fill="#F3F0F1" transform="translate(44,29)"/>
<path d="M0 0 C1.98 0 3.96 0 6 0 C6 1.98 6 3.96 6 6 C4.02 6 2.04 6 0 6 C0 4.02 0 2.04 0 0 Z " fill="#E5E3E3" transform="translate(20,29)"/>
<path d="M0 0 C1.98 0 3.96 0 6 0 C6 1.98 6 3.96 6 6 C4.02 6 2.04 6 0 6 C0 4.02 0 2.04 0 0 Z " fill="#F3F0EF" transform="translate(91,21)"/>
<path d="M0 0 C1.98 0 3.96 0 6 0 C6 1.98 6 3.96 6 6 C4.02 6 2.04 6 0 6 C0 4.02 0 2.04 0 0 Z " fill="#F2F0EF" transform="translate(52,21)"/>
<path d="M0 0 C1.98 0 3.96 0 6 0 C6 1.98 6 3.96 6 6 C4.02 6 2.04 6 0 6 C0 4.02 0 2.04 0 0 Z " fill="#F2EFED" transform="translate(139,21)"/>
<path d="M0 0 C1.98 0 3.96 0 6 0 C6 1.98 6 3.96 6 6 C4.02 6 2.04 6 0 6 C0 4.02 0 2.04 0 0 Z " fill="#F4F2F1" transform="translate(123,21)"/>
<path d="M0 0 C1.98 0 3.96 0 6 0 C6 1.98 6 3.96 6 6 C4.02 6 2.04 6 0 6 C0 4.02 0 2.04 0 0 Z " fill="#F3F0EF" transform="translate(115,21)"/>
<path d="M0 0 C1.98 0 3.96 0 6 0 C6 1.98 6 3.96 6 6 C4.02 6 2.04 6 0 6 C0 4.02 0 2.04 0 0 Z " fill="#F3F0F0" transform="translate(99,21)"/>
<path d="M0 0 C1.98 0 3.96 0 6 0 C6 1.98 6 3.96 6 6 C4.02 6 2.04 6 0 6 C0 4.02 0 2.04 0 0 Z " fill="#F0EDED" transform="translate(36,21)"/>
<path d="M0 0 C1.98 0 3.96 0 6 0 C6 1.98 6 3.96 6 6 C4.02 6 2.04 6 0 6 C0 4.02 0 2.04 0 0 Z " fill="#ECEAE9" transform="translate(28,21)"/>
<path d="M0 0 C1.98 0 3.96 0 6 0 C6 1.98 6 3.96 6 6 C4.02 6 2.04 6 0 6 C0 4.02 0 2.04 0 0 Z " fill="#E5E3E2" transform="translate(20,21)"/>
<path d="M0 0 C1.98 0 3.96 0 6 0 C6 1.98 6 3.96 6 6 C4.02 6 2.04 6 0 6 C0 4.02 0 2.04 0 0 Z " fill="#F4F1F0" transform="translate(131,21)"/>
<path d="M0 0 C1.98 0 3.96 0 6 0 C6 1.98 6 3.96 6 6 C4.02 6 2.04 6 0 6 C0 4.02 0 2.04 0 0 Z " fill="#F3F1F0" transform="translate(107,21)"/>
<path d="M0 0 C1.98 0 3.96 0 6 0 C6 1.98 6 3.96 6 6 C4.02 6 2.04 6 0 6 C0 4.02 0 2.04 0 0 Z " fill="#EEECEC" transform="translate(91,14)"/>
<path d="M0 0 C1.98 0 3.96 0 6 0 C6 1.98 6 3.96 6 6 C4.02 6 2.04 6 0 6 C0 4.02 0 2.04 0 0 Z " fill="#EDEBEB" transform="translate(131,14)"/>
<path d="M0 0 C1.98 0 3.96 0 6 0 C6 1.98 6 3.96 6 6 C4.02 6 2.04 6 0 6 C0 4.02 0 2.04 0 0 Z " fill="#EEECEC" transform="translate(99,14)"/>
<path d="M0 0 C1.98 0 3.96 0 6 0 C6 1.98 6 3.96 6 6 C4.02 6 2.04 6 0 6 C0 4.02 0 2.04 0 0 Z " fill="#EEECEC" transform="translate(52,14)"/>
<path d="M0 0 C1.98 0 3.96 0 6 0 C6 1.98 6 3.96 6 6 C4.02 6 2.04 6 0 6 C0 4.02 0 2.04 0 0 Z " fill="#ECEAEA" transform="translate(36,14)"/>
<path d="M0 0 C1.98 0 3.96 0 6 0 C6 1.98 6 3.96 6 6 C4.02 6 2.04 6 0 6 C0 4.02 0 2.04 0 0 Z " fill="#DEDFE0" transform="translate(154,14)"/>
<path d="M0 0 C1.98 0 3.96 0 6 0 C6 1.98 6 3.96 6 6 C4.02 6 2.04 6 0 6 C0 4.02 0 2.04 0 0 Z " fill="#ECEAE9" transform="translate(139,14)"/>
<path d="M0 0 C1.98 0 3.96 0 6 0 C6 1.98 6 3.96 6 6 C4.02 6 2.04 6 0 6 C0 4.02 0 2.04 0 0 Z " fill="#EEECEC" transform="translate(123,14)"/>
<path d="M0 0 C1.98 0 3.96 0 6 0 C6 1.98 6 3.96 6 6 C4.02 6 2.04 6 0 6 C0 4.02 0 2.04 0 0 Z " fill="#EEECEC" transform="translate(115,14)"/>
<path d="M0 0 C1.98 0 3.96 0 6 0 C6 1.98 6 3.96 6 6 C4.02 6 2.04 6 0 6 C0 4.02 0 2.04 0 0 Z " fill="#EEEDEC" transform="translate(107,14)"/>
<path d="M0 0 C1.98 0 3.96 0 6 0 C6 1.98 6 3.96 6 6 C4.02 6 2.04 6 0 6 C0 4.02 0 2.04 0 0 Z " fill="#E9E7E7" transform="translate(28,14)"/>
<path d="M0 0 C1.98 0 3.96 0 6 0 C6 1.98 6 3.96 6 6 C4.02 6 2.04 6 0 6 C0 4.02 0 2.04 0 0 Z " fill="#E1E0E0" transform="translate(20,14)"/>
<path d="M0 0 C1.98 0 3.96 0 6 0 C6 1.98 6 3.96 6 6 C4.02 6 2.04 6 0 6 C0 4.02 0 2.04 0 0 Z " fill="#DEDCDB" transform="translate(20,6)"/>
<path d="M0 0 C1.2065625 0.0309375 1.2065625 0.0309375 2.4375 0.0625 C2.4375 2.0425 2.4375 4.0225 2.4375 6.0625 C0.4575 6.0625 -1.5225 6.0625 -3.5625 6.0625 C-3.605221 4.39638095 -3.60313832 2.72867115 -3.5625 1.0625 C-2.5625 0.0625 -2.5625 0.0625 0 0 Z " fill="#F3F2F1" transform="translate(78.5625,35.9375)"/>
<path d="M0 0 C1.65 0 3.3 0 5 0 C5 1.98 5 3.96 5 6 C3.35 6.33 1.7 6.66 0 7 C0 4.69 0 2.38 0 0 Z " fill="#D6D2D0" transform="translate(155,127)"/>
<path d="M0 0 C0 2.31 0 4.62 0 7 C-1.65 7 -3.3 7 -5 7 C-5 5.02 -5 3.04 -5 1 C-1.125 0 -1.125 0 0 0 Z " fill="#DFE1E2" transform="translate(73,127)"/>
<path d="M0 0 C1.98 0 3.96 0 6 0 C6.33 1.65 6.66 3.3 7 5 C4.69 5 2.38 5 0 5 C0 3.35 0 1.7 0 0 Z " fill="#ECEDEC" transform="translate(99,90)"/>
<path d="M0 0 C1.98 0 3.96 0 6 0 C6.33 1.65 6.66 3.3 7 5 C4.69 5 2.38 5 0 5 C0 3.35 0 1.7 0 0 Z " fill="#EAEDEC" transform="translate(75,90)"/>
<path d="M0 0 C1.98 0 3.96 0 6 0 C6.33 1.65 6.66 3.3 7 5 C4.69 5 2.38 5 0 5 C0 3.35 0 1.7 0 0 Z " fill="#ECEDEC" transform="translate(91,90)"/>
<path d="M0 0 C1.98 0 3.96 0 6 0 C6 1.98 6 3.96 6 6 C5.401875 5.835 4.80375 5.67 4.1875 5.5 C1.88655664 4.8885876 1.88655664 4.8885876 -1 5 C-0.67 3.35 -0.34 1.7 0 0 Z " fill="#DFDFE1" transform="translate(154,21)"/>
<path d="M0 0 C1.65 0 3.3 0 5 0 C5 1.98 5 3.96 5 6 C3.35 6 1.7 6 0 6 C0 4.02 0 2.04 0 0 Z " fill="#D7D1CE" transform="translate(155,135)"/>
<path d="M0 0 C1.65 0 3.3 0 5 0 C5 1.98 5 3.96 5 6 C3.35 6 1.7 6 0 6 C0 4.02 0 2.04 0 0 Z " fill="#E4E5E4" transform="translate(68,120)"/>
<path d="M0 0 C1.65 0 3.3 0 5 0 C5 1.98 5 3.96 5 6 C3.35 6 1.7 6 0 6 C0 4.02 0 2.04 0 0 Z " fill="#DFDAD9" transform="translate(155,90)"/>
<path d="M0 0 C1.98 0 3.96 0 6 0 C6 1.65 6 3.3 6 5 C4.02 5 2.04 5 0 5 C0 3.35 0 1.7 0 0 Z " fill="#EDE9E7" transform="translate(107,90)"/>
<path d="M0 0 C1.65 0 3.3 0 5 0 C5 1.98 5 3.96 5 6 C3.35 6 1.7 6 0 6 C0 4.02 0 2.04 0 0 Z " fill="#DCD9D7" transform="translate(20,82)"/>
<path d="M0 0 C1.98 0 3.96 0 6 0 C6 1.65 6 3.3 6 5 C4.02 5 2.04 5 0 5 C0 3.35 0 1.7 0 0 Z " fill="#F1EDEA" transform="translate(91,75)"/>
<path d="M0 0 C1.98 0 3.96 0 6 0 C6 1.65 6 3.3 6 5 C4.02 5 2.04 5 0 5 C0 3.35 0 1.7 0 0 Z " fill="#F1EDEA" transform="translate(99,75)"/>
<path d="M0 0 C1.65 0 3.3 0 5 0 C5 1.98 5 3.96 5 6 C3.35 6 1.7 6 0 6 C0 4.02 0 2.04 0 0 Z " fill="#F2EDEC" transform="translate(84,67)"/>
<path d="M0 0 C1.65 0 3.3 0 5 0 C5 1.98 5 3.96 5 6 C3.35 6 1.7 6 0 6 C0 4.02 0 2.04 0 0 Z " fill="#F2EEEC" transform="translate(68,67)"/>
<path d="M0 0 C1.98 0 3.96 0 6 0 C6 1.65 6 3.3 6 5 C4.02 5 2.04 5 0 5 C0 3.35 0 1.7 0 0 Z " fill="#F5F2F0" transform="translate(91,52)"/>
<path d="M0 0 C1.65 0 3.3 0 5 0 C5 1.98 5 3.96 5 6 C3.35 6 1.7 6 0 6 C0 4.02 0 2.04 0 0 Z " fill="#F7F2F1" transform="translate(84,44)"/>
<path d="M0 0 C1.65 0 3.3 0 5 0 C5 1.98 5 3.96 5 6 C3.35 6 1.7 6 0 6 C0 4.02 0 2.04 0 0 Z " fill="#F7F3F1" transform="translate(76,44)"/>
<path d="M0 0 C1.98 0 3.96 0 6 0 C6 1.65 6 3.3 6 5 C4.02 5 2.04 5 0 5 C0 3.35 0 1.7 0 0 Z " fill="#F8F4F1" transform="translate(99,37)"/>
<path d="M0 0 C1.98 0 3.96 0 6 0 C6 1.65 6 3.3 6 5 C4.02 5 2.04 5 0 5 C0 3.35 0 1.7 0 0 Z " fill="#F5F1EF" transform="translate(36,37)"/>
<path d="M0 0 C1.98 0 3.96 0 6 0 C6 1.65 6 3.3 6 5 C4.02 5 2.04 5 0 5 C0 3.35 0 1.7 0 0 Z " fill="#F8F5F1" transform="translate(107,37)"/>
<path d="M0 0 C1.98 0 3.96 0 6 0 C6 1.65 6 3.3 6 5 C4.02 5 2.04 5 0 5 C0 3.35 0 1.7 0 0 Z " fill="#F8F4F1" transform="translate(91,37)"/>
<path d="M0 0 C1.98 0 3.96 0 6 0 C6 1.65 6 3.3 6 5 C4.02 5 2.04 5 0 5 C0 3.35 0 1.7 0 0 Z " fill="#F0ECEB" transform="translate(28,37)"/>
<path d="M0 0 C1.65 0 3.3 0 5 0 C5 1.98 5 3.96 5 6 C3.35 6 1.7 6 0 6 C0 4.02 0 2.04 0 0 Z " fill="#DBD7D6" transform="translate(155,6)"/>
<path d="M0 0 C0.33 0.99 0.66 1.98 1 3 C3.31 3 5.62 3 8 3 C8 3.33 8 3.66 8 4 C6.02 4.33 4.04 4.66 2 5 C1.67 7.97 1.34 10.94 1 14 C0.67 14 0.34 14 0 14 C-0.33 11.03 -0.66 8.06 -1 5 C-2.65 4.67 -4.3 4.34 -6 4 C-6 3.67 -6 3.34 -6 3 C-4.02 3 -2.04 3 0 3 C0 2.01 0 1.02 0 0 Z " fill="#9EB7CD" transform="translate(66,161)"/>
<path d="M0 0 C0 2.64 0 5.28 0 8 C-1.65 8 -3.3 8 -5 8 C-3.91891892 0 -3.91891892 0 0 0 Z " fill="#C6C5C6" transform="translate(66,166)"/>
<path d="M0 0 C1.65 0 3.3 0 5 0 C5.33 1.65 5.66 3.3 6 5 C3.69 5 1.38 5 -1 5 C-0.67 3.35 -0.34 1.7 0 0 Z " fill="#EDEEED" transform="translate(84,90)"/>
<path d="M0 0 C0.1799928 5.21979128 -0.02905192 9.07262981 -2 14 C-2.33 14 -2.66 14 -3 14 C-3 9.71 -3 5.42 -3 1 C-1 0 -1 0 0 0 Z " fill="#C0CCD7" transform="translate(163,89)"/>
<path d="M0 0 C0.33 1.98 0.66 3.96 1 6 C-0.65 6 -2.3 6 -4 6 C-4 4.35 -4 2.7 -4 1 C-2 0 -2 0 0 0 Z " fill="#CAC6C5" transform="translate(119,168)"/>
<path d="M0 0 C1.65 0 3.3 0 5 0 C5 1.65 5 3.3 5 5 C3.35 5.33 1.7 5.66 0 6 C0 4.02 0 2.04 0 0 Z " fill="#DED5D8" transform="translate(60,158)"/>
<path d="M0 0 C1.65 0 3.3 0 5 0 C5 1.65 5 3.3 5 5 C3.35 5.33 1.7 5.66 0 6 C0 4.02 0 2.04 0 0 Z " fill="#D3CCC9" transform="translate(155,158)"/>
<path d="M0 0 C1.65 0 3.3 0 5 0 C5 1.98 5 3.96 5 6 C3.35 5.67 1.7 5.34 0 5 C0 3.35 0 1.7 0 0 Z " fill="#DAD8D9" transform="translate(68,158)"/>
<path d="M0 0 C0 1.98 0 3.96 0 6 C-1.65 6 -3.3 6 -5 6 C-5 4.35 -5 2.7 -5 1 C-1.125 0 -1.125 0 0 0 Z " fill="#DEDEDD" transform="translate(73,150)"/>
<path d="M0 0 C0 1.98 0 3.96 0 6 C-1.65 6 -3.3 6 -5 6 C-5 4.35 -5 2.7 -5 1 C-1.125 0 -1.125 0 0 0 Z " fill="#E8E9E7" transform="translate(73,112)"/>
<path d="M0 0 C1.65 0 3.3 0 5 0 C5 1.98 5 3.96 5 6 C3.35 5.67 1.7 5.34 0 5 C0 3.35 0 1.7 0 0 Z " fill="#E9EAE9" transform="translate(68,105)"/>
<path d="M0 0 C1.65 0 3.3 0 5 0 C5 1.65 5 3.3 5 5 C3.35 5.33 1.7 5.66 0 6 C0 4.02 0 2.04 0 0 Z " fill="#EFE6E9" transform="translate(60,105)"/>
<path d="M0 0 C2.475 0.495 2.475 0.495 5 1 C5 2.65 5 4.3 5 6 C3.35 6 1.7 6 0 6 C0 4.02 0 2.04 0 0 Z " fill="#F0E8EB" transform="translate(60,97)"/>
<path d="M0 0 C0 1.98 0 3.96 0 6 C-1.65 6 -3.3 6 -5 6 C-5 4.35 -5 2.7 -5 1 C-1.125 0 -1.125 0 0 0 Z " fill="#EAECEB" transform="translate(73,97)"/>
<path d="M0 0 C2.475 0.495 2.475 0.495 5 1 C5 2.65 5 4.3 5 6 C3.35 6 1.7 6 0 6 C0 4.02 0 2.04 0 0 Z " fill="#F5EEF0" transform="translate(60,74)"/>
<path d="M0 0 C1.65 0 3.3 0 5 0 C5 1.65 5 3.3 5 5 C3.35 5.33 1.7 5.66 0 6 C0 4.02 0 2.04 0 0 Z " fill="#EAE5E2" transform="translate(155,52)"/>
<path d="M0 0 C1.65 0 3.3 0 5 0 C5.33 1.65 5.66 3.3 6 5 C4.02 5 2.04 5 0 5 C0 3.35 0 1.7 0 0 Z " fill="#F9F5F1" transform="translate(52,37)"/>
<path d="M0 0 C1.65 0 3.3 0 5 0 C5.33 1.65 5.66 3.3 6 5 C4.02 5 2.04 5 0 5 C0 3.35 0 1.7 0 0 Z " fill="#F8F4F1" transform="translate(44,37)"/>
<path d="M0 0 C0.99 0 1.98 0 3 0 C3.33 1.98 3.66 3.96 4 6 C2.35 6 0.7 6 -1 6 C-0.67 4.02 -0.34 2.04 0 0 Z " fill="#CAC6C5" transform="translate(109,168)"/>
<path d="M0 0 C1.65 0 3.3 0 5 0 C5 1.65 5 3.3 5 5 C3.35 5 1.7 5 0 5 C0 3.35 0 1.7 0 0 Z " fill="#E3D9DC" transform="translate(60,151)"/>
<path d="M0 0 C1.65 0 3.3 0 5 0 C5 1.65 5 3.3 5 5 C3.35 5 1.7 5 0 5 C0 3.35 0 1.7 0 0 Z " fill="#E6DCDF" transform="translate(60,143)"/>
<path d="M0 0 C1.65 0 3.3 0 5 0 C5 1.65 5 3.3 5 5 C3.35 5 1.7 5 0 5 C0 3.35 0 1.7 0 0 Z " fill="#E1E1DE" transform="translate(68,143)"/>
<path d="M0 0 C1.65 0 3.3 0 5 0 C5 1.65 5 3.3 5 5 C3.35 5 1.7 5 0 5 C0 3.35 0 1.7 0 0 Z " fill="#EDE4E6" transform="translate(60,113)"/>
<path d="M0 0 C1.65 0 3.3 0 5 0 C5 1.65 5 3.3 5 5 C3.35 5 1.7 5 0 5 C0 3.35 0 1.7 0 0 Z " fill="#F2EAEC" transform="translate(60,90)"/>
<path d="M0 0 C1.65 0 3.3 0 5 0 C5 1.65 5 3.3 5 5 C3.35 5 1.7 5 0 5 C0 3.35 0 1.7 0 0 Z " fill="#EFE9E7" transform="translate(68,90)"/>
<path d="M0 0 C1.65 0 3.3 0 5 0 C5 1.65 5 3.3 5 5 C3.35 5 1.7 5 0 5 C0 3.35 0 1.7 0 0 Z " fill="#DCD9D7" transform="translate(20,90)"/>
<path d="M0 0 C1.65 0 3.3 0 5 0 C5 1.65 5 3.3 5 5 C3.35 5 1.7 5 0 5 C0 3.35 0 1.7 0 0 Z " fill="#E1DCDA" transform="translate(20,75)"/>
<path d="M0 0 C1.65 0 3.3 0 5 0 C5 1.65 5 3.3 5 5 C3.35 5 1.7 5 0 5 C0 3.35 0 1.7 0 0 Z " fill="#F3EDEA" transform="translate(76,75)"/>
<path d="M0 0 C1.65 0 3.3 0 5 0 C5 1.65 5 3.3 5 5 C3.35 5 1.7 5 0 5 C0 3.35 0 1.7 0 0 Z " fill="#F3EEEB" transform="translate(68,75)"/>
<path d="M0 0 C1.65 0 3.3 0 5 0 C5 1.65 5 3.3 5 5 C3.35 5 1.7 5 0 5 C0 3.35 0 1.7 0 0 Z " fill="#F6F0EE" transform="translate(84,60)"/>
<path d="M0 0 C1.65 0 3.3 0 5 0 C5 1.65 5 3.3 5 5 C3.35 5 1.7 5 0 5 C0 3.35 0 1.7 0 0 Z " fill="#F6F1EE" transform="translate(68,60)"/>
<path d="M0 0 C1.65 0 3.3 0 5 0 C5 1.65 5 3.3 5 5 C3.35 5 1.7 5 0 5 C0 3.35 0 1.7 0 0 Z " fill="#F7F2EF" transform="translate(84,52)"/>
<path d="M0 0 C1.65 0 3.3 0 5 0 C5 1.65 5 3.3 5 5 C3.35 5 1.7 5 0 5 C0 3.35 0 1.7 0 0 Z " fill="#FAF5F1" transform="translate(68,37)"/>
<path d="M0 0 C1.65 0 3.3 0 5 0 C5 1.65 5 3.3 5 5 C3.35 5 1.7 5 0 5 C0 3.35 0 1.7 0 0 Z " fill="#F7F3EF" transform="translate(76,22)"/>
<path d="M0 0 C1.32 0 2.64 0 4 0 C4 1.98 4 3.96 4 6 C2.68 6 1.36 6 0 6 C0 4.02 0 2.04 0 0 Z " fill="#D2CFCF" transform="translate(156,120)"/>
<path d="M0 0 C1.32 0 2.64 0 4 0 C4 1.98 4 3.96 4 6 C2.68 6 1.36 6 0 6 C0 4.02 0 2.04 0 0 Z " fill="#D6D3D2" transform="translate(156,105)"/>
<path d="M0 0 C1.32 0 2.64 0 4 0 C4 1.98 4 3.96 4 6 C2.68 6 1.36 6 0 6 C0 4.02 0 2.04 0 0 Z " fill="#DCD8D7" transform="translate(156,82)"/>
<path d="M0 0 C1.32 0 2.64 0 4 0 C4 1.98 4 3.96 4 6 C2.68 6 1.36 6 0 6 C0 4.02 0 2.04 0 0 Z " fill="#DFDCDB" transform="translate(156,67)"/>
<path d="M0 0 C1.65 0 3.3 0 5 0 C5 1.98 5 3.96 5 6 C4.01 5.34 3.02 4.68 2 4 C1.01 4.495 1.01 4.495 0 5 C0 3.35 0 1.7 0 0 Z " fill="#D0D1D4" transform="translate(68,165)"/>
<path d="M0 0 C1.65 0 3.3 0 5 0 C4.67 1.98 4.34 3.96 4 6 C2.68 6 1.36 6 0 6 C0 4.02 0 2.04 0 0 Z " fill="#E5E4E5" transform="translate(115,97)"/>
<path d="M0 0 C1.65 0 3.3 0 5 0 C5.33 1.32 5.66 2.64 6 4 C4.02 4 2.04 4 0 4 C0 2.68 0 1.36 0 0 Z " fill="#E6E3E2" transform="translate(36,8)"/>
<path d="M0 0 C1.65 0 3.3 0 5 0 C5 0.66 5 1.32 5 2 C4.01 2 3.02 2 2 2 C2 3.32 2 4.64 2 6 C1.34 6 0.68 6 0 6 C0 4.02 0 2.04 0 0 Z " fill="#DBDADC" transform="translate(67,135)"/>
<path d="M0 0 C1.65 0 3.3 0 5 0 C5 1.98 5 3.96 5 6 C4.34 6 3.68 6 3 6 C3 4.68 3 3.36 3 2 C2.01 2 1.02 2 0 2 C0 1.34 0 0.68 0 0 Z " fill="#EAE8E9" transform="translate(61,82)"/>
<path d="M0 0 C1.98 0 3.96 0 6 0 C6 0.66 6 1.32 6 2 C4.02 2.66 2.04 3.32 0 4 C0 2.68 0 1.36 0 0 Z " fill="#D6D3D2" transform="translate(20,6)"/>
<path d="M0 0 C1.32 0 2.64 0 4 0 C4 1.65 4 3.3 4 5 C2.68 4.67 1.36 4.34 0 4 C0 2.68 0 1.36 0 0 Z " fill="#C8C4C5" transform="translate(157,143)"/>
<path d="M0 0 C1.32 0 2.64 0 4 0 C4.33 1.32 4.66 2.64 5 4 C3.35 4 1.7 4 0 4 C0 2.68 0 1.36 0 0 Z " fill="#E8E6E5" transform="translate(108,99)"/>
<path d="M0 0 C0.66 0 1.32 0 2 0 C2 0.66 2 1.32 2 2 C1.34 2 0.68 2 0 2 C0 1.34 0 0.68 0 0 Z " fill="#FF0000" transform="translate(5,173)"/>
<path d="M0 0 C0.66 0 1.32 0 2 0 C2 0.66 2 1.32 2 2 C1.34 2 0.68 2 0 2 C0 1.34 0 0.68 0 0 Z " fill="#FF0000" transform="translate(173,5)"/>
</svg>
