<?xml version="1.0" encoding="UTF-8"?>
<svg version="1.1" xmlns="http://www.w3.org/2000/svg" width="160" height="160">
<path d="M0 0 C-0.1953125 1.796875 -0.1953125 1.796875 -1 4 C-3.1171875 5.640625 -3.1171875 5.640625 -5.875 7.25 C-11.83530496 10.85118032 -17.41762137 14.84290953 -23 19 C-21.58847656 18.58427734 -21.58847656 18.58427734 -20.1484375 18.16015625 C-18.28058594 17.61681641 -18.28058594 17.61681641 -16.375 17.0625 C-15.14523438 16.70285156 -13.91546875 16.34320312 -12.6484375 15.97265625 C-7.45258416 14.58746623 -2.62580507 13.86014971 2.75 13.875 C3.69359375 13.87242188 4.6371875 13.86984375 5.609375 13.8671875 C8 14 8 14 10 15 C9.67 16.65 9.34 18.3 9 20 C2.73 21.98 -3.54 23.96 -10 26 C-4.91702396 27.19200232 -4.91702396 27.19200232 0.17089844 28.36254883 C3.986693 29.28670159 7.19607458 30.07063581 10 33 C10 33.99 10 34.98 10 36 C6.04 36 2.08 36 -2 36 C0.165625 37.423125 0.165625 37.423125 2.375 38.875 C4.82525569 40.48516803 6.92428357 41.92428357 9 44 C9 44.99 9 45.98 9 47 C7.68 47.33 6.36 47.66 5 48 C5.495 48.4125 5.99 48.825 6.5 49.25 C8 51 8 51 8 55 C1.29873464 55.48736475 -3.06561592 54.07708804 -9 51 C-9.27585938 51.64453125 -9.55171875 52.2890625 -9.8359375 52.953125 C-11 55 -11 55 -13.625 55.75 C-14.40875 55.8325 -15.1925 55.915 -16 56 C-16.0825 56.61875 -16.165 57.2375 -16.25 57.875 C-17 60 -17 60 -19.0625 61.25 C-19.701875 61.4975 -20.34125 61.745 -21 62 C-20.67 63.32 -20.34 64.64 -20 66 C-20.804375 66.391875 -21.60875 66.78375 -22.4375 67.1875 C-25.23064738 68.76948191 -25.23064738 68.76948191 -25.8125 71.6875 C-25.9053125 72.8321875 -25.9053125 72.8321875 -26 74 C-27.485 74.495 -27.485 74.495 -29 75 C-28.67 76.32 -28.34 77.64 -28 79 C-33.75 83 -33.75 83 -36 83 C-36.103125 83.639375 -36.20625 84.27875 -36.3125 84.9375 C-36.539375 85.618125 -36.76625 86.29875 -37 87 C-38.485 87.495 -38.485 87.495 -40 88 C-40.495 89.485 -40.495 89.485 -41 91 C-45.95721489 94.33124841 -51.49074634 97.71097564 -57.625 96.875 C-58.73875 96.58625 -59.8525 96.2975 -61 96 C-61.66 96 -62.32 96 -63 96 C-61.21983903 99.06167741 -59.39538029 102.09463791 -57.5625 105.125 C-57.06556641 105.9809375 -56.56863281 106.836875 -56.05664062 107.71875 C-52.24766385 113.94726548 -48.27763624 117.36991078 -42 121 C-41.06414062 121.64324219 -40.12828125 122.28648438 -39.1640625 122.94921875 C-32.09164218 127.7911065 -24.78035774 132.09948909 -17.32275391 136.3190918 C-16.53304199 136.76808838 -15.74333008 137.21708496 -14.9296875 137.6796875 C-14.22054199 138.07913574 -13.51139648 138.47858398 -12.78076172 138.89013672 C-11 140 -11 140 -9 142 C-8.66666667 143.66666667 -8.33333333 145.33333333 -8 147 C-7.34 147.66 -6.68 148.32 -6 149 C-6.375 151.125 -6.375 151.125 -7 153 C-8.98 153 -10.96 153 -13 153 C-13 153.66 -13 154.32 -13 155 C-16.94727588 155.17942163 -19.5980513 155.09350689 -23 153 C-23.66 153.66 -24.32 154.32 -25 155 C-27.27734375 154.9765625 -27.27734375 154.9765625 -29.9375 154.625 C-32.67883607 154.27779101 -35.23184386 154 -38 154 C-44.06531499 153.75641305 -48.56509343 152.43980652 -54 149.76953125 C-56.0867075 148.76043138 -56.0867075 148.76043138 -58.75 149.5625 C-59.4925 149.706875 -60.235 149.85125 -61 150 C-64.91392149 146.97560612 -66.36399997 144.82653356 -67 140 C-66.9920552 137.19945627 -66.87409467 134.41830166 -66.7421875 131.62109375 C-67.04428054 128.54981452 -67.96490362 127.26417791 -70 125 C-72.23891142 130.45126259 -73.47606294 135.13190493 -74 141 C-74.99 141.33 -75.98 141.66 -77 142 C-76.505 145.465 -76.505 145.465 -76 149 C-82.2092266 147.72993092 -86.83654278 144.79553916 -92.1328125 141.36328125 C-94.87376546 139.7992022 -94.87376546 139.7992022 -97.67578125 140.046875 C-100.51697345 141.21200256 -101.40319431 142.38152215 -103.0625 144.9375 C-105.12868646 148.09115302 -106.61135789 149.40158391 -110 151 C-110.80528889 153.05000871 -110.80528889 153.05000871 -111 155 C-114.75376152 153.74874616 -115.24073289 152.4347596 -117 149 C-117 148.34 -117 147.68 -117 147 C-116.01 147 -115.02 147 -114 147 C-113.814375 145.8553125 -113.814375 145.8553125 -113.625 144.6875 C-113 142 -113 142 -111 139 C-111.66 139 -112.32 139 -113 139 C-113.2475 139.5775 -113.495 140.155 -113.75 140.75 C-115 143 -115 143 -117.0625 144.9375 C-119.28970409 147.30839468 -119.64629437 148.81664932 -120 152 C-120.99 151.67 -121.98 151.34 -123 151 C-124.0019297 147.99421089 -124.29923484 145.81888169 -123.19921875 142.80859375 C-120.11364897 136.86862066 -116.06388828 132.03194414 -110 129 C-112.31 129 -114.62 129 -117 129 C-117.0825 129.763125 -117.165 130.52625 -117.25 131.3125 C-118.16080012 134.57620042 -119.28138365 135.13095126 -122 137 C-122.33 137.99 -122.66 138.98 -123 140 C-128.66153846 138.52307692 -128.66153846 138.52307692 -130.375 135.875 C-130.684375 134.946875 -130.684375 134.946875 -131 134 C-131.33 136.64 -131.66 139.28 -132 142 C-135.875 140.25 -135.875 140.25 -137 138 C-136.94958679 131.92520837 -135.58943406 126.46658302 -133 121 C-131.25 119.4375 -131.25 119.4375 -129 119 C-122.44444444 119.55555556 -122.44444444 119.55555556 -121 121 C-112.77508638 121 -107.53033591 115.591961 -101.9375 110.0625 C-101.298125 109.381875 -100.65875 108.70125 -100 108 C-100.51949219 107.50371094 -101.03898437 107.00742188 -101.57421875 106.49609375 C-104.92714375 103.22993575 -108.08430427 100.09229359 -110.6875 96.1875 C-113.06070041 92.91633186 -114.42216835 91.72775631 -118 90 C-126.04269467 88.92482981 -133.470259 90.14447745 -141 93 C-141 94.98 -141 96.96 -141 99 C-144.08914085 98.66902062 -145.0026931 97.99715301 -147.1875 95.6875 C-150 91.51724138 -150 91.51724138 -150 89 C-148.74282547 86.95127113 -147.39355764 84.95851344 -146 83 C-145.33321743 81.67701872 -144.68788726 80.34304477 -144.0625 79 C-141.15446362 73.04761303 -137.22126488 69.07938558 -132 65 C-132.84304687 64.51789063 -133.68609375 64.03578125 -134.5546875 63.5390625 C-135.65039062 62.90742187 -136.74609375 62.27578125 -137.875 61.625 C-138.96554688 60.99851563 -140.05609375 60.37203125 -141.1796875 59.7265625 C-144 58 -144 58 -146 56 C-146 54.68 -146 53.36 -146 52 C-145.01 52 -144.02 52 -143 52 C-143.42152344 51.37351563 -143.84304687 50.74703125 -144.27734375 50.1015625 C-144.82519531 49.28429688 -145.37304688 48.46703125 -145.9375 47.625 C-146.48277344 46.81289063 -147.02804688 46.00078125 -147.58984375 45.1640625 C-150.39252472 40.8629953 -150.08196365 38.08174649 -150 33 C-148.68 33 -147.36 33 -146 33 C-144.68 35.31 -143.36 37.62 -142 40 C-142.04125 38.906875 -142.0825 37.81375 -142.125 36.6875 C-142 33 -142 33 -140 30 C-137.37812506 31.04874998 -136.20628639 31.64931313 -134.75 34.125 C-134.5025 34.74375 -134.255 35.3625 -134 36 C-133.01 34.35 -132.02 32.7 -131 31 C-129.68 31.33 -128.36 31.66 -127 32 C-126.67 33.98 -126.34 35.96 -126 38 C-124.02 35.525 -124.02 35.525 -122 33 C-120.515 33.495 -120.515 33.495 -119 34 C-119 36.64 -119 39.28 -119 42 C-118.01 41.34 -117.02 40.68 -116 40 C-115.01 40 -114.02 40 -113 40 C-112.875 46.75 -112.875 46.75 -114 49 C-113.21625 48.814375 -112.4325 48.62875 -111.625 48.4375 C-109 48 -109 48 -107 49 C-107.165 49.639375 -107.33 50.27875 -107.5 50.9375 C-108.03926667 52.80826821 -108.03926667 52.80826821 -108 54 C-106.72125 54.0825 -105.4425 54.165 -104.125 54.25 C-101.89453125 54.51953125 -101.89453125 54.51953125 -100 55 C-98.8125 56.9375 -98.8125 56.9375 -98 59 C-94.711434 60.93445059 -91.07144895 61.73072559 -87.24609375 61.63671875 C-79.65409455 59.48455202 -72.92732706 50.6041105 -69 44 C-67.66739251 41.35293054 -66.40033637 38.67502874 -65.125 36 C-61.47298621 28.35957963 -57.16891486 21.3712982 -49 18 C-45.75 17.875 -45.75 17.875 -43 18 C-43 18.66 -43 19.32 -43 20 C-39.06556651 18.61553148 -36.12262942 16.77293468 -32.8125 14.25 C-12.12898224 -1.05469411 -12.12898224 -1.05469411 0 0 Z M-141 43 C-140 45 -140 45 -140 45 Z M-128 126 C-126.68 127.65 -125.36 129.3 -124 131 C-123.34 130.01 -122.68 129.02 -122 128 C-123.98 127.34 -125.96 126.68 -128 126 Z M-106 132 C-105.67 132.66 -105.34 133.32 -105 134 C-104.01 133.67 -103.02 133.34 -102 133 C-103.32 132.67 -104.64 132.34 -106 132 Z " fill="#322A27" transform="translate(150,5)"/>
<path d="M0 0 C2.62187494 1.04874998 3.79371361 1.64931313 5.25 4.125 C5.4975 4.74375 5.745 5.3625 6 6 C6.99 4.35 7.98 2.7 9 1 C10.32 1.33 11.64 1.66 13 2 C13.33 3.98 13.66 5.96 14 8 C15.32 6.35 16.64 4.7 18 3 C18.99 3.33 19.98 3.66 21 4 C21 6.64 21 9.28 21 12 C21.99 11.34 22.98 10.68 24 10 C24.99 10 25.98 10 27 10 C27.125 16.75 27.125 16.75 26 19 C26.78375 18.814375 27.5675 18.62875 28.375 18.4375 C31 18 31 18 33 19 C32.835 19.639375 32.67 20.27875 32.5 20.9375 C31.96073333 22.80826821 31.96073333 22.80826821 32 24 C33.27875 24.0825 34.5575 24.165 35.875 24.25 C38.10546875 24.51953125 38.10546875 24.51953125 40 25 C41.1875 26.9375 41.1875 26.9375 42 29 C45.288566 30.93445059 48.92855105 31.73072559 52.75390625 31.63671875 C60.35790595 29.48115014 67.04674962 20.59266088 71 14 C72.80607781 10.38784438 74.4508188 6.72900253 76 3 C77.61498443 7.66551056 76.66698434 11.51119567 74.6875 15.9296875 C70.63589813 23.00123335 66.39609939 27.99194301 60 33 C59.34 33.61230469 58.68 34.22460938 58 34.85546875 C55.14820091 37.36804174 53.26566205 38.94710666 49.3828125 39.109375 C46.6875 38.8125 46.6875 38.8125 44.19921875 38.33203125 C41.83052744 37.80409727 41.83052744 37.80409727 39 39 C37.84478498 41.47130918 37.84478498 41.47130918 37 44 C36.67 44.33 36.34 44.66 36 45 C36.04125 45.969375 36.0825 46.93875 36.125 47.9375 C36.08375 48.948125 36.0425 49.95875 36 51 C32.63348195 53.24434537 31.78403012 53.20138902 27.89453125 52.9765625 C26.91162109 52.925 25.92871094 52.8734375 24.91601562 52.8203125 C23.89185547 52.75585938 22.86769531 52.69140625 21.8125 52.625 C20.77673828 52.56828125 19.74097656 52.5115625 18.67382812 52.453125 C16.11518729 52.31163334 13.55752516 52.16022134 11 52 C10.82620176 47.69125204 11.54280602 45.58340788 14 42 C12.58235006 42.93601246 11.16592432 43.8738792 9.75 44.8125 C8.56664062 45.59560547 8.56664062 45.59560547 7.359375 46.39453125 C4.99717227 47.95558991 4.99717227 47.95558991 2.890625 49.69921875 C1 51 1 51 -2 51 C-2.33 51.66 -2.66 52.32 -3 53 C-3.66 52.01 -4.32 51.02 -5 50 C-1.36452739 43.88761199 1.93009101 39.76334357 8 36 C5.85312502 34.34971526 3.69018746 32.79768302 1.421875 31.31640625 C0.54015625 30.73761719 -0.3415625 30.15882812 -1.25 29.5625 C-2.14203125 28.98628906 -3.0340625 28.41007812 -3.953125 27.81640625 C-4.62859375 27.21699219 -5.3040625 26.61757813 -6 26 C-6 24.68 -6 23.36 -6 22 C-5.01 22 -4.02 22 -3 22 C-3.42152344 21.37351562 -3.84304687 20.74703125 -4.27734375 20.1015625 C-5.09912109 18.87566406 -5.09912109 18.87566406 -5.9375 17.625 C-6.48277344 16.81289063 -7.02804688 16.00078125 -7.58984375 15.1640625 C-10.39252472 10.8629953 -10.08196365 8.08174649 -10 3 C-8.68 3 -7.36 3 -6 3 C-4.68 5.31 -3.36 7.62 -2 10 C-2.04125 8.906875 -2.0825 7.81375 -2.125 6.6875 C-2 3 -2 3 0 0 Z M-1 13 C0 15 0 15 0 15 Z " fill="#473D37" transform="translate(10,35)"/>
<path d="M0 0 C2.31 0.33 4.62 0.66 7 1 C7.07605469 1.680625 7.15210937 2.36125 7.23046875 3.0625 C8.22366656 6.85379315 10.16229835 9.77985801 12.3125 13 C12.70373047 13.60328125 13.09496094 14.2065625 13.49804688 14.828125 C14.64024616 16.57078394 15.8118041 18.2884535 17 20 C17.6084375 20.87785156 18.216875 21.75570312 18.84375 22.66015625 C21.61784465 25.67045099 24.64380367 27.44348136 28.1875 29.4375 C29.54528455 30.22481687 30.90206172 31.01387365 32.2578125 31.8046875 C32.90782227 32.18206055 33.55783203 32.55943359 34.22753906 32.94824219 C36.39930575 34.23694341 38.48480563 35.62771483 40.5625 37.0625 C44.98396052 40.08637242 49.62362027 42.68983999 54.30493164 45.28540039 C56.82891142 46.69620073 58.94400539 47.94400539 61 50 C61.33333333 51.66666667 61.66666667 53.33333333 62 55 C62.66 55.66 63.32 56.32 64 57 C63.625 59.125 63.625 59.125 63 61 C61.02 61 59.04 61 57 61 C57 61.66 57 62.32 57 63 C53.05272412 63.17942163 50.4019487 63.09350689 47 61 C46.34 61.66 45.68 62.32 45 63 C42.72265625 62.9765625 42.72265625 62.9765625 40.0625 62.625 C37.32116393 62.27779101 34.76815614 62 32 62 C25.93468501 61.75641305 21.43490657 60.43980652 16 57.76953125 C13.9132925 56.76043138 13.9132925 56.76043138 11.25 57.5625 C10.5075 57.706875 9.765 57.85125 9 58 C5.08354651 54.97364958 3.64397675 52.82628729 3 48 C2.97216703 45.23260718 3.06305157 42.48429126 3.16015625 39.71875 C2.98639361 36.76902325 2.23240948 34.66780405 1 32 C1.66 32 2.32 32 3 32 C3 32.66 3 33.32 3 34 C3.556875 34.2475 4.11375 34.495 4.6875 34.75 C7.39971127 36.21606015 9.63587365 38.02989471 12 40 C12.99 39.505 12.99 39.505 14 39 C16.125 39.9375 16.125 39.9375 18 41 C17.814375 40.175 17.62875 39.35 17.4375 38.5 C17.0723716 35.57897282 17.08085843 33.70818482 17.5 30.875 C18.155468 26.76399108 18.155468 26.76399108 17 23 C16.34 22.731875 15.68 22.46375 15 22.1875 C14.34 21.795625 13.68 21.40375 13 21 C12.25 17.375 12.25 17.375 12 14 C11.40703125 13.92523438 10.8140625 13.85046875 10.203125 13.7734375 C7.22780014 12.72890856 6.43421108 11.25339002 4.75 8.625 C4.22921875 7.83351563 3.7084375 7.04203125 3.171875 6.2265625 C2 4 2 4 2 1 C1.34 0.67 0.68 0.34 0 0 Z " fill="#64584A" transform="translate(80,97)"/>
<path d="M0 0 C0 0.99 0 1.98 0 3 C-0.66 3.33 -1.32 3.66 -2 4 C-2.165 4.66 -2.33 5.32 -2.5 6 C-2.665 6.66 -2.83 7.32 -3 8 C-3.66 8.33 -4.32 8.66 -5 9 C-5 9.99 -5 10.98 -5 12 C-4.34 12.66 -3.68 13.32 -3 14 C-2.855625 14.66 -2.71125 15.32 -2.5625 16 C-2.12541292 18.38640738 -2.12541292 18.38640738 1 20 C-0.32749688 23.98249064 -1.8851452 24.35379202 -5.5625 26.25 C-11.05919427 28.90335063 -14.14637829 29.62600603 -20 28 C-20.66 27.67 -21.32 27.34 -22 27 C-22 26.34 -22 25.68 -22 25 C-24.31 24.67 -26.62 24.34 -29 24 C-29.66 25.32 -30.32 26.64 -31 28 C-31.66 27.67 -32.32 27.34 -33 27 C-33 26.34 -33 25.68 -33 25 C-33.66 25 -34.32 25 -35 25 C-39 20.64705882 -39 20.64705882 -39 17 C-38.01 17 -37.02 17 -36 17 C-36 16.34 -36 15.68 -36 15 C-36.99 14.34 -37.98 13.68 -39 13 C-35.8124203 12.31694721 -33.40787846 11.91842431 -30.1875 12.5625 C-25.73487396 13.17364475 -22.09807078 12.94908244 -18 11 C-15.90873336 8.86362761 -14.26336471 6.6762034 -12.60546875 4.19140625 C-8.77836588 -1.0324495 -6.26608423 -1.32551782 0 0 Z " fill="#352D2B" transform="translate(109,73)"/>
<path d="M0 0 C1.40607715 4.87991481 2.30876009 8.02671166 1 13 C1.04125 14.051875 1.0825 15.10375 1.125 16.1875 C1.08375 17.115625 1.0425 18.04375 1 19 C-2.36651805 21.24434537 -3.21596988 21.20138902 -7.10546875 20.9765625 C-8.57983398 20.89921875 -8.57983398 20.89921875 -10.08398438 20.8203125 C-11.10814453 20.75585938 -12.13230469 20.69140625 -13.1875 20.625 C-14.22326172 20.56828125 -15.25902344 20.5115625 -16.32617188 20.453125 C-18.88481271 20.31163334 -21.44247484 20.16022134 -24 20 C-24.17379824 15.69125204 -23.45719398 13.58340788 -21 10 C-22.41764994 10.93601246 -23.83407568 11.8738792 -25.25 12.8125 C-26.03890625 13.33457031 -26.8278125 13.85664062 -27.640625 14.39453125 C-30.00282773 15.95558991 -30.00282773 15.95558991 -32.109375 17.69921875 C-34 19 -34 19 -37 19 C-37.33 19.66 -37.66 20.32 -38 21 C-38.66 20.01 -39.32 19.02 -40 18 C-36.19883896 11.29206876 -32.18273512 6.18719436 -25 3 C-22.4167655 2.47861322 -19.97490697 2.25416279 -17.34375 2.14453125 C-14.74717676 2.07132924 -14.74717676 2.07132924 -11.375 0.9375 C-7.36951754 -0.17513402 -4.13986491 -0.14525842 0 0 Z " fill="#E9E3D8" transform="translate(45,67)"/>
<path d="M0 0 C-0.99 3.3 -1.98 6.6 -3 10 C4.59 10 12.18 10 20 10 C18 16 18 16 15 18 C15 18.66 15 19.32 15 20 C15.61875 20.268125 16.2375 20.53625 16.875 20.8125 C19 22 19 22 21 25 C21.556875 25.825 22.11375 26.65 22.6875 27.5 C23.120625 28.325 23.55375 29.15 24 30 C23.505 31.485 23.505 31.485 23 33 C22.55269531 32.48050781 22.10539062 31.96101563 21.64453125 31.42578125 C14.77099469 22.39997505 14.77099469 22.39997505 5.21484375 17.69921875 C-2.05481534 17.67322474 -8.18873938 18.41694857 -15 21 C-15 22.98 -15 24.96 -15 27 C-18.08914085 26.66902062 -19.0026931 25.99715301 -21.1875 23.6875 C-24 19.51724138 -24 19.51724138 -24 17 C-21.49745484 11.39906559 -18.06302307 9.77751196 -12.609375 7.30078125 C-9.25758342 5.62990311 -6.48947227 3.49246002 -3.59375 1.13671875 C-2 0 -2 0 0 0 Z " fill="#736B62" transform="translate(24,77)"/>
<path d="M0 0 C5.44388295 2.82543735 10.72527637 5.69438806 15.6875 9.3125 C20.7655082 12.98769818 26.14681826 15.9863738 31.64331055 18.97973633 C36.80787638 21.80787638 36.80787638 21.80787638 39 24 C39.33333333 25.66666667 39.66666667 27.33333333 40 29 C40.66 29.66 41.32 30.32 42 31 C41.625 33.125 41.625 33.125 41 35 C39.02 35 37.04 35 35 35 C35 35.66 35 36.32 35 37 C31.05272412 37.17942163 28.4019487 37.09350689 25 35 C24.34 35.66 23.68 36.32 23 37 C20.6875 37.046875 20.6875 37.046875 18 36.75 C17.113125 36.66234375 16.22625 36.5746875 15.3125 36.484375 C13 36 13 36 11 34 C14.96 34.33 18.92 34.66 23 35 C22.34 33.96875 21.68 32.9375 21 31.875 C19.02717274 28.46423174 18.61172335 25.9798357 19 22 C19.66 21.67 20.32 21.34 21 21 C20.01 20.34 19.02 19.68 18 19 C18 19.66 18 20.32 18 21 C16.68 20.34 15.36 19.68 14 19 C14.09796875 18.24847656 14.1959375 17.49695313 14.296875 16.72265625 C14.2860761 13.84832502 14.2860761 13.84832502 11.953125 12.12109375 C11.06109375 11.56550781 10.1690625 11.00992188 9.25 10.4375 C5.76264013 8.22985844 2.68483602 6.16785558 0 3 C0 2.01 0 1.02 0 0 Z " fill="#786E64" transform="translate(102,123)"/>
<path d="M0 0 C2.06438962 0.76629473 3.98544727 1.67537912 5.92578125 2.71484375 C5.92578125 2.38484375 5.92578125 2.05484375 5.92578125 1.71484375 C7.57578125 1.71484375 9.22578125 1.71484375 10.92578125 1.71484375 C11.25578125 3.36484375 11.58578125 5.01484375 11.92578125 6.71484375 C14.89578125 7.20984375 14.89578125 7.20984375 17.92578125 7.71484375 C17.92578125 8.37484375 17.92578125 9.03484375 17.92578125 9.71484375 C19.24578125 9.05484375 20.56578125 8.39484375 21.92578125 7.71484375 C22.42078125 9.19984375 22.42078125 9.19984375 22.92578125 10.71484375 C24.24225244 11.41421907 25.57600276 12.08213508 26.92578125 12.71484375 C27.42078125 13.70484375 27.42078125 13.70484375 27.92578125 14.71484375 C28.91578125 15.37484375 29.90578125 16.03484375 30.92578125 16.71484375 C25.73103341 15.98080329 22.06434364 13.58863037 17.64453125 10.89453125 C14.44780854 9.50744755 13.1493847 9.44363906 9.92578125 10.71484375 C8.19334072 12.46588156 8.19334072 12.46588156 6.86328125 14.65234375 C4.79709479 17.80599677 3.31442336 19.11642766 -0.07421875 20.71484375 C-0.87950764 22.76485246 -0.87950764 22.76485246 -1.07421875 24.71484375 C-4.82798027 23.46358991 -5.31495164 22.14960335 -7.07421875 18.71484375 C-7.07421875 18.05484375 -7.07421875 17.39484375 -7.07421875 16.71484375 C-6.08421875 16.71484375 -5.09421875 16.71484375 -4.07421875 16.71484375 C-3.95046875 15.95171875 -3.82671875 15.18859375 -3.69921875 14.40234375 C-3.07421875 11.71484375 -3.07421875 11.71484375 -1.07421875 8.71484375 C-1.73421875 8.71484375 -2.39421875 8.71484375 -3.07421875 8.71484375 C-3.32171875 9.29234375 -3.56921875 9.86984375 -3.82421875 10.46484375 C-5.07421875 12.71484375 -5.07421875 12.71484375 -7.13671875 14.65234375 C-9.36392284 17.02323843 -9.72051312 18.53149307 -10.07421875 21.71484375 C-11.06421875 21.38484375 -12.05421875 21.05484375 -13.07421875 20.71484375 C-14.07614845 17.70905464 -14.37345359 15.53372544 -13.2734375 12.5234375 C-10.8512133 7.86045866 -6.14898334 -0.84534046 0 0 Z " fill="#D09942" transform="translate(40.07421875,135.28515625)"/>
<path d="M0 0 C0.66 0.33 1.32 0.66 2 1 C0.02 3.97 0.02 3.97 -2 7 C-1.360625 7.45375 -0.72125 7.9075 -0.0625 8.375 C2 10 2 10 3 12 C3.99 12.33 4.98 12.66 6 13 C6 13.66 6 14.32 6 15 C1.125 13.125 1.125 13.125 0 12 C-2.33297433 11.95907063 -4.66705225 11.95758277 -7 12 C-7.0825 12.763125 -7.165 13.52625 -7.25 14.3125 C-8.16080012 17.57620042 -9.28138365 18.13095126 -12 20 C-12.33 20.99 -12.66 21.98 -13 23 C-18.66153846 21.52307692 -18.66153846 21.52307692 -20.375 18.875 C-20.58125 18.25625 -20.7875 17.6375 -21 17 C-21.33 19.64 -21.66 22.28 -22 25 C-25.875 23.25 -25.875 23.25 -27 21 C-26.94958679 14.92520837 -25.58943406 9.46658302 -23 4 C-21.25 2.4375 -21.25 2.4375 -19 2 C-12.44444444 2.55555556 -12.44444444 2.55555556 -11 4 C-6.42928825 3.65504062 -3.41674829 3.14340842 0 0 Z M-18 9 C-16.68 10.65 -15.36 12.3 -14 14 C-13.34 13.01 -12.68 12.02 -12 11 C-13.98 10.34 -15.96 9.68 -18 9 Z " fill="#B78E4C" transform="translate(40,122)"/>
<path d="M0 0 C1.96861473 0.68901515 3.93537167 1.39008148 5.859375 2.1953125 C8.89711672 3.33723731 11.78086688 3.66467363 15 4 C14.01 4.66 13.02 5.32 12 6 C11.27034634 8.56282742 11.27034634 8.56282742 11 11 C10.01 11.33 9.02 11.66 8 12 C8.33 13.32 8.66 14.64 9 16 C3.25 20 3.25 20 1 20 C0.67 21.32 0.34 22.64 0 24 C-2.875 24.125 -2.875 24.125 -6 24 C-8.20052594 21.79947406 -8.3929392 20.94858104 -9 18 C-9.185625 17.2575 -9.37125 16.515 -9.5625 15.75 C-9.7790625 14.88375 -9.7790625 14.88375 -10 14 C-9.01 13.67 -8.02 13.34 -7 13 C-6.87625 12.195625 -6.7525 11.39125 -6.625 10.5625 C-6.41875 9.716875 -6.2125 8.87125 -6 8 C-5.34 7.67 -4.68 7.34 -4 7 C-3.855625 6.195625 -3.71125 5.39125 -3.5625 4.5625 C-3 2 -3 2 0 0 Z " fill="#423631" transform="translate(113,68)"/>
<path d="M0 0 C2.4375 1.6875 2.4375 1.6875 4 4 C3.6792612 8.72667701 1.30559876 12.34112885 -1.0625 16.3125 C-1.43955078 16.95767578 -1.81660156 17.60285156 -2.20507812 18.26757812 C-3.13037493 19.84878152 -4.06432681 21.4249146 -5 23 C-6.65 23 -8.3 23 -10 23 C-10 22.34 -10 21.68 -10 21 C-10.556875 20.95875 -11.11375 20.9175 -11.6875 20.875 C-15.24030274 19.53069626 -16.70958953 16.99025811 -19 14 C-17.77801556 12.41111701 -16.54705525 10.82913536 -15.3125 9.25 C-14.28576172 7.92742187 -14.28576172 7.92742187 -13.23828125 6.578125 C-9.2654581 2.00209834 -6.3093361 -1.07392955 0 0 Z " fill="#2B2523" transform="translate(56,114)"/>
<path d="M0 0 C1.98 0.495 1.98 0.495 4 1 C4.33 2.98 4.66 4.96 5 7 C6.32 5.35 7.64 3.7 9 2 C9.99 2.33 10.98 2.66 12 3 C12 5.64 12 8.28 12 11 C12.99 10.34 13.98 9.68 15 9 C15.99 9 16.98 9 18 9 C18.125 15.75 18.125 15.75 17 18 C17.78375 17.814375 18.5675 17.62875 19.375 17.4375 C22 17 22 17 24 18 C23.835 18.639375 23.67 19.27875 23.5 19.9375 C22.96073333 21.80826821 22.96073333 21.80826821 23 23 C25.64 23.33 28.28 23.66 31 24 C31.495 25.485 31.495 25.485 32 27 C31.34 27 30.68 27 30 27 C30 26.34 30 25.68 30 25 C26.7 25 23.4 25 20 25 C20 24.01 20 23.02 20 22 C18.02 22 16.04 22 14 22 C14 19.33333333 14 16.66666667 14 14 C13.360625 14.66 12.72125 15.32 12.0625 16 C10 18 10 18 9 18 C8.67 21.63 8.34 25.26 8 29 C3.35520906 25.43899361 2.73373375 21.52231188 2 16 C1.57165434 11.3374329 1.25271279 6.67518666 1 2 C0.01 2.495 0.01 2.495 -1 3 C-0.67 2.01 -0.34 1.02 0 0 Z " fill="#53453E" transform="translate(19,36)"/>
<path d="M0 0 C0 0.99 0 1.98 0 3 C-0.66 3.33 -1.32 3.66 -2 4 C-2.65213292 6.02463255 -2.65213292 6.02463255 -3 8 C-4.32 8.33 -5.64 8.66 -7 9 C-7 10.32 -7 11.64 -7 13 C-12.18946595 17.77541282 -16.08910823 18.73840454 -23 18.75 C-24.54173099 18.78362836 -26.08340383 18.82004857 -27.625 18.859375 C-28.72521484 18.88161133 -28.72521484 18.88161133 -29.84765625 18.90429688 C-32.94693271 19.04210499 -35.94050162 19.49550825 -39 20 C-39 19.01 -39 18.02 -39 17 C-38.01 17 -37.02 17 -36 17 C-36 16.34 -36 15.68 -36 15 C-36.99 14.34 -37.98 13.68 -39 13 C-35.8124203 12.31694721 -33.40787846 11.91842431 -30.1875 12.5625 C-25.73487396 13.17364475 -22.09807078 12.94908244 -18 11 C-15.90873336 8.86362761 -14.26336471 6.6762034 -12.60546875 4.19140625 C-8.77836588 -1.0324495 -6.26608423 -1.32551782 0 0 Z " fill="#221C1C" transform="translate(109,73)"/>
<path d="M0 0 C4.98729675 1.73729675 4.98729675 1.73729675 7.3125 4.0625 C7.3125 5.0525 7.3125 6.0425 7.3125 7.0625 C3.3525 7.0625 -0.6075 7.0625 -4.6875 7.0625 C-3.24375 8.01125 -1.8 8.96 -0.3125 9.9375 C2.13775569 11.54766803 4.23678357 12.98678357 6.3125 15.0625 C6.3125 16.0525 6.3125 17.0425 6.3125 18.0625 C-0.21146607 17.80463573 -4.56568251 17.24082479 -9.6875 13.0625 C-9.3575 12.4025 -9.0275 11.7425 -8.6875 11.0625 C-8.0275 11.0625 -7.3675 11.0625 -6.6875 11.0625 C-6.6875 10.0725 -6.6875 9.0825 -6.6875 8.0625 C-11.6375 7.0725 -16.5875 6.0825 -21.6875 5.0625 C-21.3575 4.4025 -21.0275 3.7425 -20.6875 3.0625 C-16.05168814 2.13419157 -11.38112458 1.65448869 -6.6875 1.0625 C-12.6275 0.7325 -18.5675 0.4025 -24.6875 0.0625 C-17.15672055 -4.95801964 -8.27795733 -2.68257867 0 0 Z " fill="#4E413C" transform="translate(152.6875,33.9375)"/>
<path d="M0 0 C6.75 0.875 6.75 0.875 9 2 C9 2.99 9 3.98 9 5 C8.34 5.66 7.68 6.32 7 7 C7.75925781 7.39832031 8.51851562 7.79664063 9.30078125 8.20703125 C10.29464844 8.73683594 11.28851563 9.26664063 12.3125 9.8125 C13.79169922 10.59560547 13.79169922 10.59560547 15.30078125 11.39453125 C19.40082129 13.83319472 19.40082129 13.83319472 21 16 C21 17.32 21 18.64 21 20 C14.29873464 20.48736475 9.93438408 19.07708804 4 16 C3.67 16.66 3.34 17.32 3 18 C2.79375 17.401875 2.5875 16.80375 2.375 16.1875 C0.49073918 13.18981233 -1.81132084 12.38638224 -5 11 C-5 10.01 -5 9.02 -5 8 C-6.32 7.67 -7.64 7.34 -9 7 C-6.36 6.67 -3.72 6.34 -1 6 C-3.475 5.01 -3.475 5.01 -6 4 C-6 3.67 -6 3.34 -6 3 C-5.195625 2.87625 -4.39125 2.7525 -3.5625 2.625 C-2.716875 2.41875 -1.87125 2.2125 -1 2 C-0.67 1.34 -0.34 0.68 0 0 Z " fill="#3F322B" transform="translate(137,40)"/>
<path d="M0 0 C2.62187494 1.04874998 3.79371361 1.64931313 5.25 4.125 C5.4975 4.74375 5.745 5.3625 6 6 C6.639375 5.34 7.27875 4.68 7.9375 4 C10 2 10 2 11 2 C11.03738281 3.19496094 11.07476562 4.38992187 11.11328125 5.62109375 C11.57502858 17.58740885 11.57502858 17.58740885 15 29 C14.01 29.33 13.02 29.66 12 30 C5.12208896 24.06474682 -0.63471024 16.92396948 -2.4375 7.78125 C-2.55360817 4.356059 -1.92704489 2.89056734 0 0 Z " fill="#3F332D" transform="translate(10,35)"/>
<path d="M0 0 C2.29145729 7.11557789 2.29145729 7.11557789 1.09375 10.75 C-1.28514863 13.30642838 -1.69506346 13.34667797 -5.01171875 13.48828125 C-6.57106059 13.45510376 -8.13001786 13.39554868 -9.6875 13.3125 C-10.48478516 13.28994141 -11.28207031 13.26738281 -12.10351562 13.24414062 C-14.06981334 13.18526944 -16.03514491 13.09558755 -18 13 C-18.33 12.01 -18.66 11.02 -19 10 C-21.50447516 8.78130071 -21.50447516 8.78130071 -24 8 C-23.34 7.01 -22.68 6.02 -22 5 C-18.375 4.3125 -18.375 4.3125 -15 4 C-15 3.34 -15 2.68 -15 2 C-9.75614911 0.2520497 -5.52677733 -0.19392201 0 0 Z " fill="#F7F4EC" transform="translate(45,67)"/>
<path d="M0 0 C1.485 0.680625 1.485 0.680625 3 1.375 C8.79197856 3.85560496 14.78404128 5.06760619 21 6 C21 6.33 21 6.66 21 7 C19.35 7.33 17.7 7.66 16 8 C15.9175 8.61875 15.835 9.2375 15.75 9.875 C15 12 15 12 12.9375 13.25 C12.298125 13.4975 11.65875 13.745 11 14 C11.33 15.32 11.66 16.64 12 18 C11.34 18.33 10.68 18.66 10 19 C9.67 18.34 9.34 17.68 9 17 C7.68 17 6.36 17 5 17 C2.25 14.625 2.25 14.625 0 12 C0 11.34 0 10.68 0 10 C-0.99 10 -1.98 10 -3 10 C-2.69201674 8.51988629 -2.378482 7.04092675 -2.0625 5.5625 C-1.88847656 4.73878906 -1.71445313 3.91507813 -1.53515625 3.06640625 C-1 1 -1 1 0 0 Z " fill="#4E3D34" transform="translate(118,53)"/>
<path d="M0 0 C0.66 0 1.32 0 2 0 C2 0.66 2 1.32 2 2 C2.66 2 3.32 2 4 2 C4.66 3.98 5.32 5.96 6 8 C6.99 8 7.98 8 9 8 C10.31640625 9.6796875 10.31640625 9.6796875 11.5625 11.875 C12.94122232 14.27165749 14.03227554 16.03227554 16 18 C16.56520003 20.65537372 16.73788198 23.29144713 17 26 C16.443125 25.814375 15.88625 25.62875 15.3125 25.4375 C12.9572702 24.80563128 12.9572702 24.80563128 10.5625 25.75 C8 26 8 26 5.25 23.875 C1.32118574 18.85484845 1.94519997 13.84070498 2.16015625 7.71875 C1.98639361 4.76902325 1.23240948 2.66780405 0 0 Z " fill="#655646" transform="translate(81,129)"/>
<path d="M0 0 C5.44388295 2.82543735 10.72527637 5.69438806 15.6875 9.3125 C20.77004912 13.0051611 26.18101092 15.96960774 31.73120117 18.8918457 C36.89336685 21.68010055 36.89336685 21.68010055 38 25 C32.95388514 25.63076436 29.2075216 23.54494684 25 21 C24.34 20.34 23.68 19.68 23 19 C22.05125 18.649375 21.1025 18.29875 20.125 17.9375 C12.75670094 14.92813154 5.1793251 9.01988383 0 3 C0 2.01 0 1.02 0 0 Z " fill="#CFC1B2" transform="translate(102,123)"/>
<path d="M0 0 C1.65 0 3.3 0 5 0 C5.33 1.65 5.66 3.3 6 5 C8.97 5.495 8.97 5.495 12 6 C12 6.66 12 7.32 12 8 C13.32 7.34 14.64 6.68 16 6 C16.33 6.99 16.66 7.98 17 9 C18.31647119 9.69937532 19.65022151 10.36729133 21 11 C21.495 11.99 21.495 11.99 22 13 C22.99 13.66 23.98 14.32 25 15 C19.80525216 14.26595954 16.13856239 11.87378662 11.71875 9.1796875 C8.52202729 7.7926038 7.22360345 7.72879531 4 9 C2.26755947 10.75103781 2.26755947 10.75103781 0.9375 12.9375 C-1.12868646 16.09115302 -2.61135789 17.40158391 -6 19 C-6.80528889 21.05000871 -6.80528889 21.05000871 -7 23 C-10.75376152 21.74874616 -11.24073289 20.4347596 -13 17 C-13 16.34 -13 15.68 -13 15 C-11.68 15 -10.36 15 -9 15 C-8.814375 14.401875 -8.62875 13.80375 -8.4375 13.1875 C-6.32351935 9.97057293 -3.51758673 9.39490508 0 8 C3.09544702 6.04498083 3.81974864 5.54075407 5 2 C2.525 1.505 2.525 1.505 0 1 C0 0.67 0 0.34 0 0 Z " fill="#806647" transform="translate(46,137)"/>
<path d="M0 0 C-0.99 3.3 -1.98 6.6 -3 10 C4.59 10 12.18 10 20 10 C18 14 18 14 16.0625 14.875 C14 15 14 15 11 13 C11 12.34 11 11.68 11 11 C9.9378125 11.13277344 8.875625 11.26554687 7.78125 11.40234375 C6.35416667 11.58072917 4.92708333 11.75911458 3.5 11.9375 C2.80390625 12.02451172 2.1078125 12.11152344 1.390625 12.20117188 C-0.02188644 12.3777358 -1.43465186 12.55227901 -2.84765625 12.72485352 C-4.31592453 12.9125507 -5.78213697 13.11689547 -7.24609375 13.33569336 C-12.78935185 14.13823785 -12.78935185 14.13823785 -15 12.6875 C-16 11 -16 11 -16 9 C-15.175 8.62875 -14.35 8.2575 -13.5 7.875 C-9.90906625 5.95128549 -6.91011159 3.73654237 -3.734375 1.20703125 C-2 0 -2 0 0 0 Z " fill="#87827D" transform="translate(24,77)"/>
<path d="M0 0 C0 0.33 0 0.66 0 1 C-1.15628906 1.07347656 -1.15628906 1.07347656 -2.3359375 1.1484375 C-3.33882812 1.22320312 -4.34171875 1.29796875 -5.375 1.375 C-6.37273438 1.44460937 -7.37046875 1.51421875 -8.3984375 1.5859375 C-11.15508879 1.76363964 -11.15508879 1.76363964 -13 4 C-13.24253813 6.21072977 -13.24253813 6.21072977 -13.125 8.625 C-13.10695313 9.44226563 -13.08890625 10.25953125 -13.0703125 11.1015625 C-13.04710937 11.72804687 -13.02390625 12.35453125 -13 13 C-13.66 12.67 -14.32 12.34 -15 12 C-15.33 14.64 -15.66 17.28 -16 20 C-19.875 18.25 -19.875 18.25 -21 16 C-20.94958679 9.92520837 -19.58943406 4.46658302 -17 -1 C-12.34616076 -5.15521361 -5.1698246 -1.89139924 0 0 Z " fill="#B78D47" transform="translate(34,127)"/>
<path d="M0 0 C0.99 0.33 1.98 0.66 3 1 C3 3.64 3 6.28 3 9 C3.99 8.34 4.98 7.68 6 7 C6.99 7 7.98 7 9 7 C9.125 13.75 9.125 13.75 8 16 C8.78375 15.814375 9.5675 15.62875 10.375 15.4375 C13 15 13 15 15 16 C14.835 16.639375 14.67 17.27875 14.5 17.9375 C13.96073333 19.80826821 13.96073333 19.80826821 14 21 C16.64 21.33 19.28 21.66 22 22 C22.33 22.99 22.66 23.98 23 25 C22.34 25 21.68 25 21 25 C21 24.34 21 23.68 21 23 C17.7 23 14.4 23 11 23 C11 22.01 11 21.02 11 20 C9.02 20 7.04 20 5 20 C5 17.33333333 5 14.66666667 5 12 C3.68 13.32 2.36 14.64 1 16 C-0.04005702 12.61981469 -0.08004482 9.5219721 0 6 C-0.99 5.67 -1.98 5.34 -3 5 C-1.125 1.125 -1.125 1.125 0 0 Z " fill="#71655F" transform="translate(28,38)"/>
<path d="M0 0 C2.31 0.33 4.62 0.66 7 1 C7.11601563 2.02287109 7.11601563 2.02287109 7.234375 3.06640625 C8.216752 6.83051405 10.12118199 9.73738361 12.25 12.9375 C12.63285156 13.53240234 13.01570313 14.12730469 13.41015625 14.74023438 C15.36360969 17.72921413 17.40265857 20.5520465 19.70703125 23.28125 C22 26 22 26 23.4375 28.5625 C25.50954415 31.79488888 27.97462735 33.64693238 31 36 C29.2578125 36.69921875 29.2578125 36.69921875 27 37 C24.9296875 35.70703125 24.9296875 35.70703125 22.875 33.8125 C22.19179687 33.20019531 21.50859375 32.58789062 20.8046875 31.95703125 C18.0778261 28.99998025 17 27.04445231 17 23 C16.360625 22.814375 15.72125 22.62875 15.0625 22.4375 C13 21 13 21 12.25 17.375 C12.1675 16.26125 12.085 15.1475 12 14 C11.40703125 13.92523438 10.8140625 13.85046875 10.203125 13.7734375 C7.22780014 12.72890856 6.43421108 11.25339002 4.75 8.625 C4.22921875 7.83351563 3.7084375 7.04203125 3.171875 6.2265625 C2 4 2 4 2 1 C1.34 0.67 0.68 0.34 0 0 Z " fill="#81746A" transform="translate(80,97)"/>
<path d="M0 0 C5 2 5 2 10 4 C9.195625 4.5775 8.39125 5.155 7.5625 5.75 C4.93994322 8.05273278 4.30419046 8.65390497 4 12 C3.96213099 13.66623639 3.95372155 15.33397597 4 17 C0.91085915 16.66902062 -0.0026931 15.99715301 -2.1875 13.6875 C-5 9.51724138 -5 9.51724138 -5 7 C-3.50594347 4.4601039 -2.09462345 2.09462345 0 0 Z " fill="#CDA059" transform="translate(5,87)"/>
<path d="M0 0 C0.33 0.99 0.66 1.98 1 3 C-2.96 3 -6.92 3 -11 3 C-8.834375 4.423125 -8.834375 4.423125 -6.625 5.875 C-4.17474431 7.48516803 -2.07571643 8.92428357 0 11 C0 11.99 0 12.98 0 14 C-6.52396607 13.74213573 -10.87818251 13.17832479 -16 9 C-15.67 8.34 -15.34 7.68 -15 7 C-14.34 7 -13.68 7 -13 7 C-13 6.01 -13 5.02 -13 4 C-15.64 3.34 -18.28 2.68 -21 2 C-21 1.67 -21 1.34 -21 1 C-6.21867882 0.81548975 -6.21867882 0.81548975 0 2 C0 1.34 0 0.68 0 0 Z " fill="#776D68" transform="translate(159,38)"/>
<path d="M0 0 C0.33 0 0.66 0 1 0 C1 2.64 1 5.28 1 8 C-5.93 8 -12.86 8 -20 8 C-19.67 5.69 -19.34 3.38 -19 1 C-18.34 1.33 -17.68 1.66 -17 2 C-14.12089412 2.23274209 -11.25853505 2.41972757 -8.375 2.5625 C-7.57320312 2.60568359 -6.77140625 2.64886719 -5.9453125 2.69335938 C-3.9637489 2.79951457 -1.98189729 2.90026855 0 3 C0 2.01 0 1.02 0 0 Z " fill="#D8D4CD" transform="translate(44,77)"/>
<path d="M0 0 C2.22855574 -0.0814222 4.45797655 -0.13938079 6.6875 -0.1875 C8.54955078 -0.23970703 8.54955078 -0.23970703 10.44921875 -0.29296875 C14.2457708 0.02027812 16.01467371 0.69242347 19 3 C19.99 4.485 19.99 4.485 21 6 C21.66 6.33 22.32 6.66 23 7 C25 8 25 8 27 11 C27.556875 11.825 28.11375 12.65 28.6875 13.5 C29.120625 14.325 29.55375 15.15 30 16 C29.67 16.99 29.34 17.98 29 19 C28.55269531 18.48050781 28.10539062 17.96101563 27.64453125 17.42578125 C21.41033501 10.07694915 21.41033501 10.07694915 14 4 C11.39754502 3.85778935 8.90882316 3.81197068 6.3125 3.875 C5.61060547 3.88402344 4.90871094 3.89304687 4.18554688 3.90234375 C2.45688475 3.92586296 0.72839855 3.96173287 -1 4 C-0.67 2.68 -0.34 1.36 0 0 Z " fill="#A69F98" transform="translate(18,91)"/>
<path d="M0 0 C2.62187494 1.04874998 3.79371361 1.64931313 5.25 4.125 C5.4975 4.74375 5.745 5.3625 6 6 C6.66 5.34 7.32 4.68 8 4 C8 8.95 8 13.9 8 19 C4.85797013 17.42898506 4.07675778 15.23027335 3 12 C2.34 12 1.68 12 1 12 C0.67 12.99 0.34 13.98 0 15 C-1.99840383 10.8782921 -2.33775739 7.5597248 -2 3 C-1.34 2.01 -0.68 1.02 0 0 Z " fill="#6E6460" transform="translate(10,35)"/>
<path d="M0 0 C1.32 0 2.64 0 4 0 C4.87144869 1.5529276 5.72153657 3.11785436 6.5625 4.6875 C7.03816406 5.55761719 7.51382812 6.42773438 8.00390625 7.32421875 C9.15883345 10.42667026 8.83766734 11.85874749 8 15 C8.37722015 17.72502965 8.37722015 17.72502965 9 20 C4.69977804 16.05812987 0.42297327 11.82690105 -0.24609375 5.7734375 C-0.24949697 3.84721384 -0.13484219 1.92150118 0 0 Z " fill="#483F3A" transform="translate(0,38)"/>
<path d="M0 0 C-0.125 1.75 -0.125 1.75 -1 4 C-4.0625 6.25 -4.0625 6.25 -7 8 C-9 7 -9 7 -10 4 C-18.07199757 6.37411693 -24.27569774 11.11053022 -31 16 C-31.66 15.67 -32.32 15.34 -33 15 C-27.43602698 9.85064997 -21.70913622 6.06170306 -14.8125 3 C-14.14798828 2.69763428 -13.48347656 2.39526855 -12.79882812 2.08374023 C-8.39406169 0.21652606 -4.85763295 -0.30242073 0 0 Z " fill="#7D726E" transform="translate(150,5)"/>
<path d="M0 0 C2.36683527 2.78948442 4.34437251 5.53265702 6.0625 8.75 C7.67162578 12.25328616 7.67162578 12.25328616 11 13 C11.87890625 14.8125 11.87890625 14.8125 12.5625 17 C13.20681284 19.14541038 13.20681284 19.14541038 14 21 C14.66 21.33 15.32 21.66 16 22 C17.1875 23.875 17.1875 23.875 18 26 C17.67 26.99 17.34 27.98 17 29 C14.09074699 27.99680931 13.1389773 27.26471866 11.6875 24.5 C11.130625 23.345 10.57375 22.19 10 21 C8.22308625 18.38545643 6.38411042 15.82501242 4.5234375 13.26953125 C3 11 3 11 2 8 C1.34 7.67 0.68 7.34 0 7 C0 4.69 0 2.38 0 0 Z " fill="#544841" transform="translate(81,98)"/>
<path d="M0 0 C0 0.66 0 1.32 0 2 C-1.27875 2.0825 -2.5575 2.165 -3.875 2.25 C-6.06224367 2.47729986 -6.06224367 2.47729986 -8 3 C-9.3498008 4.78265886 -9.3498008 4.78265886 -10 7 C-10.680625 7.639375 -11.36125 8.27875 -12.0625 8.9375 C-14.28970409 11.30839468 -14.64629437 12.81664932 -15 16 C-15.99 15.67 -16.98 15.34 -18 15 C-18.91194105 11.43513952 -19.26830444 9.60368499 -17.75 6.1875 C-16 4 -16 4 -13 3 C-12.34 3.33 -11.68 3.66 -11 4 C-10.71125 3.360625 -10.4225 2.72125 -10.125 2.0625 C-7.72413483 -2.33908615 -4.35711616 -0.72618603 0 0 Z " fill="#7B706A" transform="translate(45,141)"/>
<path d="M0 0 C1.32 0.33 2.64 0.66 4 1 C3.01 3.64 2.02 6.28 1 9 C10.9 8.505 10.9 8.505 21 8 C21.66 6.68 22.32 5.36 23 4 C23.1875 6.875 23.1875 6.875 23 10 C19.63348195 12.24434537 18.78403012 12.20138902 14.89453125 11.9765625 C13.42016602 11.89921875 13.42016602 11.89921875 11.91601562 11.8203125 C10.89185547 11.75585938 9.86769531 11.69140625 8.8125 11.625 C7.77673828 11.56828125 6.74097656 11.5115625 5.67382812 11.453125 C3.11518729 11.31163334 0.55752516 11.16022134 -2 11 C-2.10431281 7.11434793 -1.58415621 4.56435147 0 1 C0 0.67 0 0.34 0 0 Z " fill="#C6C1BB" transform="translate(23,76)"/>
<path d="M0 0 C3.43991455 1.12195889 6.76318734 1.4426051 10.359375 1.76953125 C8.796875 3.76953125 8.796875 3.76953125 6.359375 5.76953125 C2.734375 6.14453125 2.734375 6.14453125 -0.640625 5.76953125 C-1.300625 5.10953125 -1.960625 4.44953125 -2.640625 3.76953125 C-5.21123811 3.12185332 -5.21123811 3.12185332 -7.640625 2.76953125 C-7.970625 1.77953125 -8.300625 0.78953125 -8.640625 -0.23046875 C-8.640625 2.07953125 -8.640625 4.38953125 -8.640625 6.76953125 C-8.970625 6.76953125 -9.300625 6.76953125 -9.640625 6.76953125 C-9.640625 5.11953125 -9.640625 3.46953125 -9.640625 1.76953125 C-10.960625 1.43953125 -12.280625 1.10953125 -13.640625 0.76953125 C-12.980625 0.76953125 -12.320625 0.76953125 -11.640625 0.76953125 C-11.640625 0.10953125 -11.640625 -0.55046875 -11.640625 -1.23046875 C-7.15198556 -2.82321178 -4.25042555 -1.56181744 0 0 Z " fill="#6B6158" transform="translate(54.640625,65.23046875)"/>
<path d="M0 0 C1.84545613 6.65783787 -0.43558842 11.27774854 -3.55078125 17.14453125 C-5.32625502 19.41771195 -6.26722532 19.35910538 -9 20 C-11.0624994 21.81222534 -11.0624994 21.81222534 -13 24 C-15.57441077 26.81576178 -17.15825448 28.45117921 -21 29 C-20.34 28.34 -19.68 27.68 -19 27 C-18.54238281 26.53207031 -18.08476563 26.06414062 -17.61328125 25.58203125 C-16 24 -16 24 -14.16796875 22.44921875 C-7.18292913 16.23570225 -3.81480695 8.36010884 0 0 Z " fill="#585452" transform="translate(86,38)"/>
<path d="M0 0 C7.27768201 0.16540186 13.19008933 3.8029352 19 8 C19.33 8.99 19.66 9.98 20 11 C14.13675111 11.73290611 9.46785458 8.86718809 4.9296875 5.43359375 C3.22606136 4.00240984 1.56117053 2.58556382 0 1 C0 0.67 0 0.34 0 0 Z " fill="#DECFC0" transform="translate(120,137)"/>
<path d="M0 0 C1.1446875 0.3403125 1.1446875 0.3403125 2.3125 0.6875 C2.3125 1.3475 2.3125 2.0075 2.3125 2.6875 C0.6625 3.0175 -0.9875 3.3475 -2.6875 3.6875 C-1.6975 5.1725 -1.6975 5.1725 -0.6875 6.6875 C-1.0625 8.875 -1.0625 8.875 -1.6875 10.6875 C0.2925 10.3575 2.2725 10.0275 4.3125 9.6875 C3.3225 11.9975 2.3325 14.3075 1.3125 16.6875 C-0.6675 16.0275 -2.6475 15.3675 -4.6875 14.6875 C-4.93650646 12.75244977 -5.16106242 10.81424066 -5.375 8.875 C-5.50261719 7.79605469 -5.63023438 6.71710938 -5.76171875 5.60546875 C-5.6875 2.6875 -5.6875 2.6875 -4.375 0.78125 C-2.6875 -0.3125 -2.6875 -0.3125 0 0 Z " fill="#7C5429" transform="translate(25.6875,128.3125)"/>
<path d="M0 0 C1.98 0 3.96 0 6 0 C6 0.66 6 1.32 6 2 C5.34 2 4.68 2 4 2 C3.34 3.32 2.68 4.64 2 6 C2.99 6.66 3.98 7.32 5 8 C2.69 9.32 0.38 10.64 -2 12 C-2 11.34 -2 10.68 -2 10 C-2.78375 10.495 -3.5675 10.99 -4.375 11.5 C-7 13 -7 13 -9 13 C-7.27587208 8.96832714 -4.86901006 7.08697304 -1.4609375 4.46484375 C0.35308104 2.99078183 0.35308104 2.99078183 0 0 Z " fill="#27201F" transform="translate(101,23)"/>
<path d="M0 0 C1.65 0 3.3 0 5 0 C5.33 1.65 5.66 3.3 6 5 C8.97 5.495 8.97 5.495 12 6 C12 6.66 12 7.32 12 8 C13.32 7.34 14.64 6.68 16 6 C16.33 6.99 16.66 7.98 17 9 C18.31647119 9.69937532 19.65022151 10.36729133 21 11 C21.33 11.66 21.66 12.32 22 13 C22.99 13.66 23.98 14.32 25 15 C19.80525216 14.26595954 16.13856239 11.87378662 11.71875 9.1796875 C6.88706645 7.08318113 2.76731891 9.33698177 -2 11 C-1.21625 10.2575 -0.4325 9.515 0.375 8.75 C2.56504531 6.45566682 3.82731386 4.87841142 5 2 C3.35 1.67 1.7 1.34 0 1 C0 0.67 0 0.34 0 0 Z " fill="#826F5B" transform="translate(46,137)"/>
<path d="M0 0 C6.58305303 0.22315434 9.26947523 1.48949964 14 6 C14.99 6.66 15.98 7.32 17 8 C10.92330063 9.71732808 7.57340871 8.26428846 2.0390625 5.421875 C0 4 0 4 -1 1 C-0.67 0.67 -0.34 0.34 0 0 Z " fill="#39322F" transform="translate(11,62)"/>
<path d="M0 0 C0.66 0 1.32 0 2 0 C2 0.66 2 1.32 2 2 C2.66 2 3.32 2 4 2 C4.02578125 2.88042969 4.0515625 3.76085937 4.078125 4.66796875 C4.13484375 5.82941406 4.1915625 6.99085938 4.25 8.1875 C4.29640625 9.33605469 4.3428125 10.48460937 4.390625 11.66796875 C5.09301938 15.50862519 6.42219507 17.13914198 9 20 C9.625 22.1875 9.625 22.1875 10 24 C10.66 24.66 11.32 25.32 12 26 C6.53234266 25.51398601 6.53234266 25.51398601 4.1875 23.25 C1.55720054 18.26627471 1.96767066 13.2007397 2.16015625 7.71875 C1.98639361 4.76902325 1.23240948 2.66780405 0 0 Z " fill="#94887D" transform="translate(81,129)"/>
<path d="M0 0 C-0.45082469 1.46067199 -0.91093537 2.91848032 -1.375 4.375 C-1.63023438 5.18710938 -1.88546875 5.99921875 -2.1484375 6.8359375 C-3 9 -3 9 -5 11 C-7.68839385 11.26991906 -10.29141936 11.08737357 -13 11 C-13 10.01 -13 9.02 -13 8 C-10.6640625 5.95703125 -10.6640625 5.95703125 -7.625 3.8125 C-6.12839844 2.73935547 -6.12839844 2.73935547 -4.6015625 1.64453125 C-2 0 -2 0 0 0 Z " fill="#302E2C" transform="translate(24,77)"/>
<path d="M0 0 C0.33 0.66 0.66 1.32 1 2 C0.43410156 2.31453125 -0.13179687 2.6290625 -0.71484375 2.953125 C-1.44832031 3.38109375 -2.18179687 3.8090625 -2.9375 4.25 C-3.66839844 4.66765625 -4.39929688 5.0853125 -5.15234375 5.515625 C-7.31857318 7.25593617 -7.63594751 8.29561004 -8 11 C-7.01 11.33 -6.02 11.66 -5 12 C-6.8125 14 -6.8125 14 -9 16 C-9.99 16 -10.98 16 -12 16 C-12.33 16.66 -12.66 17.32 -13 18 C-13.66 17.01 -14.32 16.02 -15 15 C-11.07001671 8.06473536 -6.93526464 3.92998329 0 0 Z " fill="#C2BBB1" transform="translate(20,70)"/>
<path d="M0 0 C2.31 1.65 4.62 3.3 7 5 C7.66 4.67 8.32 4.34 9 4 C12.0625 4.6875 12.0625 4.6875 15 6 C16 8 16 8 16 10 C15.34 10.66 14.68 11.32 14 12 C12.68 10.68 11.36 9.36 10 8 C10.33 9.98 10.66 11.96 11 14 C7.07699505 11.64619703 6.16142685 9.35535069 5 5 C4.01 5.33 3.02 5.66 2 6 C1.34 4.02 0.68 2.04 0 0 Z " fill="#52463A" transform="translate(85,132)"/>
<path d="M0 0 C0.33 0.66 0.66 1.32 1 2 C1.99 2.33 2.98 2.66 4 3 C3.67 3.66 3.34 4.32 3 5 C4.98 5 6.96 5 9 5 C6.525 1.535 6.525 1.535 4 -2 C6.46800047 -0.84826645 8.04783565 0.04783565 10 2 C10 3.32 10 4.64 10 6 C3.29873464 6.48736475 -1.06561592 5.07708804 -7 2 C-7.33 2.66 -7.66 3.32 -8 4 C-8.33 2.35 -8.66 0.7 -9 -1 C-5.25616401 -2.03995444 -3.27217674 -2.22040564 0 0 Z " fill="#7C716A" transform="translate(148,54)"/>
<path d="M0 0 C2.97 0 5.94 0 9 0 C8.67 0.99 8.34 1.98 8 3 C6.35 3 4.7 3 3 3 C3 3.66 3 4.32 3 5 C-6.41002278 8.44419134 -6.41002278 8.44419134 -11 8 C-10.34 7.01 -9.68 6.02 -9 5 C-8.34 5.33 -7.68 5.66 -7 6 C-6.67 5.01 -6.34 4.02 -6 3 C-5.67 3.66 -5.34 4.32 -5 5 C-4.01 4.67 -3.02 4.34 -2 4 C-1.34 2.68 -0.68 1.36 0 0 Z " fill="#392E28" transform="translate(40,61)"/>
<path d="M0 0 C3.9126984 1.3042328 6.37310241 2.78934739 9 6 C9 6.99 9 7.98 9 9 C2.47603393 8.74213573 -1.87818251 8.17832479 -7 4 C-5 3 -5 3 -1.875 3.9375 C-0.92625 4.288125 0.0225 4.63875 1 5 C1 4.34 1 3.68 1 3 C0.34 2.34 -0.32 1.68 -1 1 C-0.67 0.67 -0.34 0.34 0 0 Z " fill="#756A64" transform="translate(150,43)"/>
<path d="M0 0 C-0.33 1.98 -0.66 3.96 -1 6 C-5.97093824 5.58846263 -10.44508386 5.20399168 -15 3 C-12.92446352 2.4465236 -11.15634036 2 -9 2 C-8.67 1.34 -8.34 0.68 -8 0 C-4.71023192 -1.09658936 -3.28696233 -0.79953138 0 0 Z " fill="#706457" transform="translate(113,153)"/>
<path d="M0 0 C-1.2065625 0.86625 -1.2065625 0.86625 -2.4375 1.75 C-5.06005678 4.05273278 -5.69580954 4.65390497 -6 8 C-6.03786901 9.66623639 -6.04627845 11.33397597 -6 13 C-7.32 12.67 -8.64 12.34 -10 12 C-9.91621094 11.22914062 -9.83242187 10.45828125 -9.74609375 9.6640625 C-9.59333984 8.15972656 -9.59333984 8.15972656 -9.4375 6.625 C-9.33308594 5.62726563 -9.22867187 4.62953125 -9.12109375 3.6015625 C-8.78855292 1.015963 -8.78855292 1.015963 -10 -1 C-6.18510326 -2.46726798 -3.70988378 -1.43336419 0 0 Z " fill="#CA973F" transform="translate(15,91)"/>
<path d="M0 0 C-2.11686079 2.11686079 -6.68368332 1.37493614 -9.625 1.5 C-15.14898556 1.74173032 -20.53782896 2.12136659 -26 3 C-26 2.01 -26 1.02 -26 0 C-21.55244694 -1.48251769 -17.09829892 -1.45461531 -12.4375 -1.6875 C-10.98053711 -1.77741211 -10.98053711 -1.77741211 -9.49414062 -1.86914062 C-8.56666016 -1.91619141 -7.63917969 -1.96324219 -6.68359375 -2.01171875 C-5.83337646 -2.05772217 -4.98315918 -2.10372559 -4.10717773 -2.15112305 C-2 -2 -2 -2 0 0 Z " fill="#1D1715" transform="translate(96,90)"/>
<path d="M0 0 C-0.33 0.99 -0.66 1.98 -1 3 C0.258125 3.185625 1.51625 3.37125 2.8125 3.5625 C3.52019531 3.66691406 4.22789063 3.77132812 4.95703125 3.87890625 C7.2025342 4.13904799 7.2025342 4.13904799 10 3 C10 3.99 10 4.98 10 6 C4.72 6 -0.56 6 -6 6 C-6.33 5.01 -6.66 4.02 -7 3 C-7.66 2.34 -8.32 1.68 -9 1 C-5.8035914 -0.06546953 -3.34252724 -0.07427838 0 0 Z " fill="#F1ECE5" transform="translate(33,74)"/>
<path d="M0 0 C0.99 0.33 1.98 0.66 3 1 C2.34 1 1.68 1 1 1 C1 1.66 1 2.32 1 3 C3.64 3.33 6.28 3.66 9 4 C9.33 4.99 9.66 5.98 10 7 C9.401875 7.144375 8.80375 7.28875 8.1875 7.4375 C6.43849596 7.8872439 4.71322977 8.42892341 3 9 C1.78130071 11.50447516 1.78130071 11.50447516 1 14 C0.34 13.01 -0.32 12.02 -1 11 C-0.67 10.01 -0.34 9.02 0 8 C0.06665376 6.60560336 0.08538199 5.20830125 0.0625 3.8125 C0.041875 2.554375 0.02125 1.29625 0 0 Z " fill="#514740" transform="translate(46,65)"/>
<path d="M0 0 C0.8353125 0.30744141 0.8353125 0.30744141 1.6875 0.62109375 C6.83617554 2.43878495 11.56276016 3.50570547 17 4 C16.01 4.66 15.02 5.32 14 6 C14.33 7.32 14.66 8.64 15 10 C14.01 10.495 14.01 10.495 13 11 C12.67 10.34 12.34 9.68 12 9 C10.68 9 9.36 9 8 9 C5.25 6.625 5.25 6.625 3 4 C3 3.34 3 2.68 3 2 C2.01 2 1.02 2 0 2 C0 1.34 0 0.68 0 0 Z " fill="#62524A" transform="translate(115,61)"/>
<path d="M0 0 C-0.165 0.639375 -0.33 1.27875 -0.5 1.9375 C-1.03926667 3.80826821 -1.03926667 3.80826821 -1 5 C1.64 5.33 4.28 5.66 7 6 C7.33 6.99 7.66 7.98 8 9 C7.34 9 6.68 9 6 9 C6 8.34 6 7.68 6 7 C2.7 7 -0.6 7 -4 7 C-4 6.01 -4 5.02 -4 4 C-5.65 4 -7.3 4 -9 4 C-6.73455663 -1.01633889 -5.27613404 -1.24961069 0 0 Z " fill="#736A66" transform="translate(43,54)"/>
<path d="M0 0 C0.33 0 0.66 0 1 0 C1.33 6.93 1.66 13.86 2 21 C-0.5654594 18.4345406 -0.54046087 16.52313332 -1 13 C-1.66 13 -2.32 13 -3 13 C-3.17791204 8.46324303 -3.0461125 5.092225 -1 1 C-0.67 0.67 -0.34 0.34 0 0 Z " fill="#50413A" transform="translate(20,37)"/>
<path d="M0 0 C4.875 4.75 4.875 4.75 6 7 C3.69 7 1.38 7 -1 7 C-1 7.66 -1 8.32 -1 9 C-3.91517292 7.92598892 -5.77810176 7.22189824 -8 5 C-8 3.68 -8 2.36 -8 1 C-6.2984375 1.495 -6.2984375 1.495 -4.5625 2 C-1.45623361 3.04504273 -1.45623361 3.04504273 0 3 C0 2.01 0 1.02 0 0 Z " fill="#3C3430" transform="translate(12,56)"/>
<path d="M0 0 C-1.13685423 3.41056269 -2.15331969 4.19934165 -4.875 6.4375 C-7.11046271 8.28113806 -8.89376391 9.84963101 -10.5703125 12.22265625 C-11.04210937 12.80917969 -11.51390625 13.39570312 -12 14 C-12.99 14 -13.98 14 -15 14 C-13.66445565 10.02119078 -12.01381696 7.65301487 -9 4.75 C-7.948125 3.72132812 -7.948125 3.72132812 -6.875 2.671875 C-4.33021145 0.40277187 -3.46824642 0 0 0 Z " fill="#5A5451" transform="translate(102,24)"/>
<path d="M0 0 C1.98 0 3.96 0 6 0 C5.01 0.66 4.02 1.32 3 2 C2.27034634 4.56282742 2.27034634 4.56282742 2 7 C1.01 7.33 0.02 7.66 -1 8 C-0.67 9.32 -0.34 10.64 0 12 C-1.98 12.99 -3.96 13.98 -6 15 C-5.67 13.68 -5.34 12.36 -5 11 C-4.34 11 -3.68 11 -3 11 C-3.66 9.02 -4.32 7.04 -5 5 C-4.01 4.67 -3.02 4.34 -2 4 C-1.34 4.33 -0.68 4.66 0 5 C0 3.35 0 1.7 0 0 Z " fill="#665E5B" transform="translate(122,72)"/>
<path d="M0 0 C0 0.33 0 0.66 0 1 C-6.22833095 2.2019586 -9.37129115 1.93161919 -15 -1 C-15.19335938 -0.28972656 -15.38671875 0.42054687 -15.5859375 1.15234375 C-15.84632812 2.07144531 -16.10671875 2.99054688 -16.375 3.9375 C-16.63023438 4.85402344 -16.88546875 5.77054688 -17.1484375 6.71484375 C-18 9 -18 9 -20 10 C-18.84978541 0.84978541 -18.84978541 0.84978541 -15.8125 -2.1875 C-10.26266593 -3.7907854 -5.26728272 -1.92705465 0 0 Z " fill="#C09D6F" transform="translate(34,127)"/>
<path d="M0 0 C0.53625 0.268125 1.0725 0.53625 1.625 0.8125 C0.158292 4.67927565 -1.84701672 5.82235559 -5.375 7.8125 C-5.705 8.4725 -6.035 9.1325 -6.375 9.8125 C-7.695 9.8125 -9.015 9.8125 -10.375 9.8125 C-9.01008735 5.03530571 -5.57550568 -0.4401715 0 0 Z " fill="#D0A55B" transform="translate(40.375,135.1875)"/>
<path d="M0 0 C1.3303125 0.4640625 1.3303125 0.4640625 2.6875 0.9375 C2.6875 1.2675 2.6875 1.5975 2.6875 1.9375 C0.3775 2.2675 -1.9325 2.5975 -4.3125 2.9375 C-4.3125 2.6075 -4.3125 2.2775 -4.3125 1.9375 C-10.2525 1.6075 -16.1925 1.2775 -22.3125 0.9375 C-15.63262123 -3.51575251 -7.57038076 -2.18076812 0 0 Z " fill="#847D7D" transform="translate(150.3125,33.0625)"/>
<path d="M0 0 C-0.1875 2.375 -0.1875 2.375 -1 5 C-3.375 6.375 -3.375 6.375 -6 7 C-6.99 6.67 -7.98 6.34 -9 6 C-7.68 5.67 -6.36 5.34 -5 5 C-5 4.34 -5 3.68 -5 3 C-3.68 3 -2.36 3 -1 3 C-1 2.34 -1 1.68 -1 1 C-6.94 1 -12.88 1 -19 1 C-19 0.67 -19 0.34 -19 0 C-13.45801366 -1.19826732 -5.24599449 -2.62299724 0 0 Z " fill="#726C69" transform="translate(160,20)"/>
<path d="M0 0 C0.45375 0.495 0.9075 0.99 1.375 1.5 C2.87635519 3.22609337 2.87635519 3.22609337 5 3 C5.66 5.97 6.32 8.94 7 12 C5.68 11.34 4.36 10.68 3 10 C2.67 10.99 2.34 11.98 2 13 C-0.20914 9.68629 -0.22481553 8.6553979 -0.125 4.8125 C-0.10695313 3.91144531 -0.08890625 3.01039063 -0.0703125 2.08203125 C-0.04710938 1.39496094 -0.02390625 0.70789063 0 0 Z " fill="#796755" transform="translate(85,134)"/>
<path d="M0 0 C-0.33 3.63 -0.66 7.26 -1 11 C-5 9 -5 9 -6 7 C-6.039992 5.00039988 -6.04346799 2.99952758 -6 1 C-4 0 -4 0 0 0 Z " fill="#7D6E60" transform="translate(19,136)"/>
<path d="M0 0 C0.66 0.33 1.32 0.66 2 1 C0.02 3.97 0.02 3.97 -2 7 C-1.360625 7.45375 -0.72125 7.9075 -0.0625 8.375 C2 10 2 10 3 12 C3.99 12.33 4.98 12.66 6 13 C6 13.66 6 14.32 6 15 C3.5625 14.1875 3.5625 14.1875 1 13 C0.67 12.01 0.34 11.02 0 10 C-2.31 10 -4.62 10 -7 10 C-6.01 9.67 -5.02 9.34 -4 9 C-4.268125 8.443125 -4.53625 7.88625 -4.8125 7.3125 C-4.874375 6.549375 -4.93625 5.78625 -5 5 C-2.5625 2.25 -2.5625 2.25 0 0 Z " fill="#635A50" transform="translate(40,122)"/>
<path d="M0 0 C2.36683527 2.78948442 4.34437251 5.53265702 6.0625 8.75 C7.67162578 12.25328616 7.67162578 12.25328616 11 13 C11.33 14.98 11.66 16.96 12 19 C11.2575 18.236875 10.515 17.47375 9.75 16.6875 C7.18870238 14.05190726 7.18870238 14.05190726 4.75 12.375 C3 11 3 11 2 8 C1.34 7.67 0.68 7.34 0 7 C0 4.69 0 2.38 0 0 Z " fill="#5F5249" transform="translate(81,98)"/>
<path d="M0 0 C2.2109885 0.42793326 3.98119242 0.99059621 6 2 C6.92436701 4.11654129 7.76692481 6.26926074 8.5625 8.4375 C10.12599028 12.78586572 10.12599028 12.78586572 12 17 C10.125 16.375 10.125 16.375 8 15 C6.875 12 6.875 12 6 9 C5.34 8.34 4.68 7.68 4 7 C3.690625 6.34 3.38125 5.68 3.0625 5 C2.03213141 2.67868591 2.03213141 2.67868591 -1 1 C-0.67 0.67 -0.34 0.34 0 0 Z " fill="#5D544A" transform="translate(40,96)"/>
<path d="M0 0 C1.32 0 2.64 0 4 0 C4.67154933 1.28913487 5.33708859 2.58140204 6 3.875 C6.37125 4.59429687 6.7425 5.31359375 7.125 6.0546875 C8 8 8 8 8 10 C7.34 10 6.68 10 6 10 C6 9.34 6 8.68 6 8 C3.36893239 6.94729537 3.36893239 6.94729537 2 7 C1.67 7.99 1.34 8.98 1 10 C-0.60725635 6.78548731 -0.05748185 3.56387464 0 0 Z " fill="#7C736F" transform="translate(0,38)"/>
<path d="M0 0 C0.66 0.33 1.32 0.66 2 1 C2 2.32 2 3.64 2 5 C3.32 5.66 4.64 6.32 6 7 C3.69 7.33 1.38 7.66 -1 8 C-1.33 9.65 -1.66 11.3 -2 13 C-2.99 13 -3.98 13 -5 13 C-4.01 9.7 -3.02 6.4 -2 3 C-1.34 3 -0.68 3 0 3 C0 2.01 0 1.02 0 0 Z " fill="#967A57" transform="translate(34,126)"/>
<path d="M0 0 C0 0.66 0 1.32 0 2 C-1.27875 2.0825 -2.5575 2.165 -3.875 2.25 C-6.05333418 2.45869931 -6.05333418 2.45869931 -8 3 C-9.5899433 4.92064793 -9.5899433 4.92064793 -10 7 C-11.32 6.67 -12.64 6.34 -14 6 C-14 5.01 -14 4.02 -14 3 C-13.01 3.33 -12.02 3.66 -11 4 C-10.566875 3.0409375 -10.566875 3.0409375 -10.125 2.0625 C-7.72413483 -2.33908615 -4.35711616 -0.72618603 0 0 Z " fill="#9D7645" transform="translate(45,141)"/>
<path d="M0 0 C1.14726562 -0.00515625 2.29453125 -0.0103125 3.4765625 -0.015625 C6.375 0.25 6.375 0.25 8.375 2.25 C4.12948144 3.34587955 0.4157161 3.17865836 -3.9375 2.8125 C-5.19175781 2.71066406 -6.44601563 2.60882813 -7.73828125 2.50390625 C-8.69089844 2.42011719 -9.64351563 2.33632813 -10.625 2.25 C-7.0753584 0.04677418 -4.12851529 -0.0186389 0 0 Z " fill="#2D231F" transform="translate(128.625,43.75)"/>
<path d="M0 0 C9.59453303 3.85421412 9.59453303 3.85421412 13 8 C9.04179141 7.43454163 6.3340947 6.19097652 3 4 C3 4.66 3 5.32 3 6 C1.68 5.34 0.36 4.68 -1 4 C-0.67 2.68 -0.34 1.36 0 0 Z " fill="#827A70" transform="translate(117,138)"/>
<path d="M0 0 C0.99 0.33 1.98 0.66 3 1 C3 3.64 3 6.28 3 9 C3.99 9 4.98 9 6 9 C5.360625 9.268125 4.72125 9.53625 4.0625 9.8125 C1.66868314 10.88667752 1.66868314 10.88667752 1 14 C-0.35439668 11.29120665 -0.06501451 8.99066732 0 6 C-0.99 5.67 -1.98 5.34 -3 5 C-1.125 1.125 -1.125 1.125 0 0 Z " fill="#877F7B" transform="translate(28,38)"/>
<path d="M0 0 C0.33 0 0.66 0 1 0 C1.1875 2.875 1.1875 2.875 1 6 C-2.22448147 8.14965431 -2.79930965 8.22152284 -6.44921875 7.9765625 C-7.29677734 7.925 -8.14433594 7.8734375 -9.01757812 7.8203125 C-9.89865234 7.75585938 -10.77972656 7.69140625 -11.6875 7.625 C-12.58017578 7.56828125 -13.47285156 7.5115625 -14.39257812 7.453125 C-16.59587413 7.31173702 -18.79801539 7.16034022 -21 7 C-21 6.67 -21 6.34 -21 6 C-20.05898438 5.93941406 -19.11796875 5.87882812 -18.1484375 5.81640625 C-16.28058594 5.69072266 -16.28058594 5.69072266 -14.375 5.5625 C-12.53035156 5.44068359 -12.53035156 5.44068359 -10.6484375 5.31640625 C-7.38467612 5.03336056 -4.22056141 4.58961047 -1 4 C-0.67 2.68 -0.34 1.36 0 0 Z " fill="#A7A29D" transform="translate(45,80)"/>
<path d="M0 0 C2.31 0.33 4.62 0.66 7 1 C6.78472656 1.56203125 6.56945312 2.1240625 6.34765625 2.703125 C5.87814992 5.80503202 6.83748941 7.09632389 8.4375 9.75 C8.91058594 10.54921875 9.38367188 11.3484375 9.87109375 12.171875 C10.42990234 13.07679687 10.42990234 13.07679687 11 14 C7.6227555 12.60724746 6.12929695 11.17726069 4.25 8.0625 C3.82203125 7.37285156 3.3940625 6.68320313 2.953125 5.97265625 C2 4 2 4 2 1 C1.34 0.67 0.68 0.34 0 0 Z " fill="#786B5F" transform="translate(80,97)"/>
<path d="M0 0 C3.3 0 6.6 0 10 0 C10 0.66 10 1.32 10 2 C12.31 2.33 14.62 2.66 17 3 C16 6 16 6 13.9375 7.1875 C13.298125 7.455625 12.65875 7.72375 12 8 C11.34 7.01 10.68 6.02 10 5 C9.01 4.34 8.02 3.68 7 3 C7.33 2.34 7.66 1.68 8 1 C5.36 1 2.72 1 0 1 C0 0.67 0 0.34 0 0 Z " fill="#76716A" transform="translate(25,88)"/>
<path d="M0 0 C0.99 0.33 1.98 0.66 3 1 C8.14943278 1.4017339 8.14943278 1.4017339 13 0 C13.99 0.66 14.98 1.32 16 2 C8.15652768 5.02460697 8.15652768 5.02460697 4.0625 4.9375 C2 4 2 4 0.6875 1.9375 C0.460625 1.298125 0.23375 0.65875 0 0 Z " fill="#979087" transform="translate(8,86)"/>
<path d="M0 0 C2.31 0 4.62 0 7 0 C6.01 2.31 5.02 4.62 4 7 C2.02 6.34 0.04 5.68 -2 5 C-2 4.01 -2 3.02 -2 2 C-1.34 2 -0.68 2 0 2 C0 1.34 0 0.68 0 0 Z " fill="#6C5E51" transform="translate(23,138)"/>
<path d="M0 0 C0.53625 0.721875 1.0725 1.44375 1.625 2.1875 C4.2092888 5.247842 6.87248014 7.51220011 10 10 C8.234375 10.68359375 8.234375 10.68359375 6 11 C4.078125 9.78515625 4.078125 9.78515625 2.25 8.0625 C1.63640625 7.49660156 1.0228125 6.93070313 0.390625 6.34765625 C-0.06828125 5.90292969 -0.5271875 5.45820313 -1 5 C-0.67 3.35 -0.34 1.7 0 0 Z " fill="#9E9383" transform="translate(101,123)"/>
<path d="M0 0 C3 1 3 1 5 4 C5.8353125 5.2375 5.8353125 5.2375 6.6875 6.5 C7.120625 7.325 7.55375 8.15 8 9 C7.67 9.99 7.34 10.98 7 12 C5.821389 10.76125579 4.65747085 9.5085199 3.5 8.25 C2.8503125 7.55390625 2.200625 6.8578125 1.53125 6.140625 C0 4 0 4 0 0 Z " fill="#776C60" transform="translate(40,98)"/>
<path d="M0 0 C0 1.32 0 2.64 0 4 C-2.97 5.32 -5.94 6.64 -9 8 C-8 4 -8 4 -5.0625 1.75 C-2 0 -2 0 0 0 Z " fill="#8F6023" transform="translate(17,91)"/>
<path d="M0 0 C0.99 0.33 1.98 0.66 3 1 C3 1.99 3 2.98 3 4 C-0.63 4.66 -4.26 5.32 -8 6 C-8 5.01 -8 4.02 -8 3 C-7.236875 2.87625 -6.47375 2.7525 -5.6875 2.625 C-2.79732864 2.11897208 -2.79732864 2.11897208 0 0 Z " fill="#FEFEF7" transform="translate(30,70)"/>
<path d="M0 0 C0.66 0 1.32 0 2 0 C2.66 2.64 3.32 5.28 4 8 C4.66 8 5.32 8 6 8 C7.38938077 9.96147874 8.7260411 11.96166576 10 14 C9.67 14.66 9.34 15.32 9 16 C7.86966702 14.75482035 6.74594964 13.50363348 5.625 12.25 C4.99851562 11.55390625 4.37203125 10.8578125 3.7265625 10.140625 C0.81518459 6.53104334 0 4.72465134 0 0 Z " fill="#3A2F2A" transform="translate(11,47)"/>
<path d="M0 0 C4.19469571 0.59924224 8.00999834 1.57499941 12 3 C11.67 3.66 11.34 4.32 11 5 C9.741875 4.87625 8.48375 4.7525 7.1875 4.625 C6.12595703 4.52058594 6.12595703 4.52058594 5.04296875 4.4140625 C3 4 3 4 0 2 C0 1.34 0 0.68 0 0 Z " fill="#4C3B32" transform="translate(132,49)"/>
<path d="M0 0 C1.98 0.495 1.98 0.495 4 1 C4.19658808 2.41543415 4.38187546 3.83244031 4.5625 5.25 C4.66691406 6.03890625 4.77132813 6.8278125 4.87890625 7.640625 C5.00027349 10.00532874 4.69633257 11.7511037 4 14 C3.34 14 2.68 14 2 14 C1.67 10.04 1.34 6.08 1 2 C0.01 2.495 0.01 2.495 -1 3 C-0.67 2.01 -0.34 1.02 0 0 Z " fill="#89817E" transform="translate(19,36)"/>
<path d="M0 0 C3 1 3 1 4.75 3.3125 C6 6 6 6 5.6875 8.3125 C5.460625 8.869375 5.23375 9.42625 5 10 C2 9 2 9 0.8125 6.6875 C0 4 0 4 0 0 Z " fill="#5B4E40" transform="translate(88,144)"/>
<path d="M0 0 C3.57416264 0.49641148 6.69252492 1.58251068 10 3 C9.34 3.66 8.68 4.32 8 5 C5.27130593 4.96712417 2.7033382 4.43602229 0 4 C-0.33 3.01 -0.66 2.02 -1 1 C-0.67 0.67 -0.34 0.34 0 0 Z " fill="#2C2622" transform="translate(18,66)"/>
<path d="M0 0 C0.66 0.33 1.32 0.66 2 1 C0.26194659 2.36946622 -1.49091233 3.72015954 -3.25 5.0625 C-4.22453125 5.81660156 -5.1990625 6.57070313 -6.203125 7.34765625 C-9 9 -9 9 -11.359375 8.74609375 C-11.90078125 8.49988281 -12.4421875 8.25367188 -13 8 C-12.31292969 7.59007812 -11.62585938 7.18015625 -10.91796875 6.7578125 C-10.01691406 6.21898437 -9.11585937 5.68015625 -8.1875 5.125 C-7.29417969 4.59132813 -6.40085937 4.05765625 -5.48046875 3.5078125 C-3.62705276 2.38116908 -1.80470083 1.20313389 0 0 Z " fill="#776F6E" transform="translate(115,21)"/>
<path d="M0 0 C0.99 0 1.98 0 3 0 C3 0.66 3 1.32 3 2 C3.99 2 4.98 2 6 2 C5.67 4.64 5.34 7.28 5 10 C1.55783328 7.3401439 1.00495326 4.09711714 0 0 Z " fill="#3F362E" transform="translate(48,104)"/>
<path d="M0 0 C2.125 0.375 2.125 0.375 4 1 C4 1.66 4 2.32 4 3 C3.01 3.33 2.02 3.66 1 4 C1 4.99 1 5.98 1 7 C0.67 7.99 0.34 8.98 0 10 C-0.66 10 -1.32 10 -2 10 C-2.1953125 3.9453125 -2.1953125 3.9453125 -2 2 C-1.34 1.34 -0.68 0.68 0 0 Z " fill="#EAC27A" transform="translate(5,87)"/>
<path d="M0 0 C0.99 1.32 1.98 2.64 3 4 C2.34 4.66 1.68 5.32 1 6 C0.01 6 -0.98 6 -2 6 C-2.33 6.66 -2.66 7.32 -3 8 C-3.66 7.01 -4.32 6.02 -5 5 C-3.35 3.35 -1.7 1.7 0 0 Z " fill="#BCB3A8" transform="translate(10,80)"/>
<path d="M0 0 C3.8665284 3.222107 4.88059018 6.14922412 6 11 C4.1875 10.4375 4.1875 10.4375 2 9 C0.1875 5.5 0.1875 5.5 -1 2 C-0.67 1.34 -0.34 0.68 0 0 Z " fill="#332924" transform="translate(8,50)"/>
<path d="M0 0 C0.66 0 1.32 0 2 0 C2.33 0.99 2.66 1.98 3 3 C4.31647119 3.69937532 5.65022151 4.36729133 7 5 C7.33 5.66 7.66 6.32 8 7 C8.99 7.66 9.98 8.32 11 9 C7.05879291 8.43697042 4.2491277 7.3208055 1 5 C1 4.34 1 3.68 1 3 C0.34 2.67 -0.32 2.34 -1 2 C-0.67 1.34 -0.34 0.68 0 0 Z " fill="#5B5652" transform="translate(60,143)"/>
<path d="M0 0 C1.33855056 0.78281305 2.67073644 1.57651877 4 2.375 C5.11375 3.03628906 5.11375 3.03628906 6.25 3.7109375 C6.8275 4.13632812 7.405 4.56171875 8 5 C8 5.66 8 6.32 8 7 C6.02 7 4.04 7 2 7 C0.5393715 4.35261084 0 3.10551666 0 0 Z " fill="#4B3B31" transform="translate(149,52)"/>
<path d="M0 0 C4.875 4.75 4.875 4.75 6 7 C5.01 8.485 5.01 8.485 4 10 C2 8.375 2 8.375 0 6 C-0.25 2.75 -0.25 2.75 0 0 Z " fill="#6E5F4F" transform="translate(101,139)"/>
<path d="M0 0 C2.31 1.65 4.62 3.3 7 5 C6.67 5.66 6.34 6.32 6 7 C4.68 6.01 3.36 5.02 2 4 C0.515 6.475 0.515 6.475 -1 9 C-2.0326802 6.21176345 -2.04509293 5.1322726 -1.0625 2.25 C-0.711875 1.5075 -0.36125 0.765 0 0 Z " fill="#574C41" transform="translate(99,127)"/>
<path d="M0 0 C2.06212166 2.06212166 3.2543095 3.97035716 4.6875 6.5 C5.14511719 7.2940625 5.60273438 8.088125 6.07421875 8.90625 C6.37972656 9.5971875 6.68523438 10.288125 7 11 C6.67 11.66 6.34 12.32 6 13 C3 9.25 3 9.25 3 7 C2.34 7 1.68 7 1 7 C-0.0625 4.625 -0.0625 4.625 -1 2 C-0.67 1.34 -0.34 0.68 0 0 Z " fill="#4A3D36" transform="translate(14,48)"/>
<path d="M0 0 C0.66 1.32 1.32 2.64 2 4 C1.34 4.66 0.68 5.32 0 6 C-1.32 4.68 -2.64 3.36 -4 2 C-3.67 3.98 -3.34 5.96 -3 8 C-4.5625 6.75 -4.5625 6.75 -6 5 C-5.6875 2.8125 -5.6875 2.8125 -5 1 C-3.35 0.67 -1.7 0.34 0 0 Z " fill="#5A4D40" transform="translate(99,138)"/>
<path d="M0 0 C-0.99 2.97 -1.98 5.94 -3 9 C-3.45375 8.360625 -3.9075 7.72125 -4.375 7.0625 C-5.83921726 4.90297594 -5.83921726 4.90297594 -8 4 C-2.25 0 -2.25 0 0 0 Z " fill="#69645D" transform="translate(24,77)"/>
<path d="M0 0 C-0.33 1.32 -0.66 2.64 -1 4 C-8.42857143 3 -8.42857143 3 -12 2 C-7.8794254 0.00214565 -4.54805635 -0.17835515 0 0 Z " fill="#827976" transform="translate(150,5)"/>
<path d="M0 0 C3.3 0.66 6.6 1.32 10 2 C8 3 6 4 4 5 C1.375 4.0625 1.375 4.0625 -1 3 C-0.67 2.01 -0.34 1.02 0 0 Z " fill="#B78C51" transform="translate(41,137)"/>
<path d="M0 0 C1.65 1.65 3.3 3.3 5 5 C2.625 6.0625 2.625 6.0625 0 7 C-0.66 6.67 -1.32 6.34 -2 6 C-1.125 1.125 -1.125 1.125 0 0 Z M0 2 C1 4 1 4 1 4 Z " fill="#D8D1C8" transform="translate(14,75)"/>
<path d="M0 0 C2.35171131 0.59861742 4.6859378 1.26924352 7 2 C7.33 2.66 7.66 3.32 8 4 C5.50935112 4.68707555 3.62113708 5 1 5 C0.67 3.35 0.34 1.7 0 0 Z " fill="#6F6B6A" transform="translate(4,57)"/>
<path d="M0 0 C2.93200474 2.85276137 5.64315404 5.65079784 8 9 C5.69 8.34 3.38 7.68 1 7 C0.67 4.69 0.34 2.38 0 0 Z " fill="#5D4F40" transform="translate(96,147)"/>
<path d="M0 0 C-1.98 0 -3.96 0 -6 0 C-6 2.31 -6 4.62 -6 7 C-6.33 7 -6.66 7 -7 7 C-7 5.35 -7 3.7 -7 2 C-8.32 1.67 -9.64 1.34 -11 1 C-10.34 1 -9.68 1 -9 1 C-9 0.34 -9 -0.32 -9 -1 C-5.22102349 -2.0497157 -3.35080929 -2.10976881 0 0 Z " fill="#706964" transform="translate(52,65)"/>
<path d="M0 0 C2.475 0.495 2.475 0.495 5 1 C5 2.65 5 4.3 5 6 C3.35 5.67 1.7 5.34 0 5 C0 3.35 0 1.7 0 0 Z " fill="#796C5F" transform="translate(93,149)"/>
<path d="M0 0 C0.66 0 1.32 0 2 0 C1.34 1.65 0.68 3.3 0 5 C0.99 5.33 1.98 5.66 3 6 C2.21625 6.28875 1.4325 6.5775 0.625 6.875 C-2.09671632 7.84912254 -2.09671632 7.84912254 -4 10 C-3.43697042 6.05879291 -2.3208055 3.2491277 0 0 Z " fill="#C4A475" transform="translate(40,142)"/>
<path d="M0 0 C0.66 0 1.32 0 2 0 C2.66 2.97 3.32 5.94 4 9 C2.68 8.34 1.36 7.68 0 7 C-0.8125 3.9375 -0.8125 3.9375 -1 1 C-0.67 0.67 -0.34 0.34 0 0 Z " fill="#72614F" transform="translate(88,137)"/>
<path d="M0 0 C1.98 0.99 3.96 1.98 6 3 C6 3.99 6 4.98 6 6 C6.99 7.485 6.99 7.485 8 9 C4.63704165 7.55873214 2.37072898 5.79407345 0 3 C0 2.01 0 1.02 0 0 Z " fill="#CBBDAD" transform="translate(102,123)"/>
<path d="M0 0 C2.31 0.66 4.62 1.32 7 2 C7 2.66 7 3.32 7 4 C4.625 4.625 4.625 4.625 2 5 C1.34 4.34 0.68 3.68 0 3 C0 2.01 0 1.02 0 0 Z " fill="#4A4341" transform="translate(105,87)"/>
<path d="M0 0 C0.33 0.66 0.66 1.32 1 2 C3.02463255 2.65213292 3.02463255 2.65213292 5 3 C1.49223216 4.60355101 -1.14354879 5.22036864 -5 5 C-4.34 4.01 -3.68 3.02 -3 2 C-2.34 2.33 -1.68 2.66 -1 3 C-0.67 2.01 -0.34 1.02 0 0 Z " fill="#332823" transform="translate(34,64)"/>
<path d="M0 0 C0 0.33 0 0.66 0 1 C-1.6396875 1.2165625 -1.6396875 1.2165625 -3.3125 1.4375 C-6.93122987 1.88288104 -6.93122987 1.88288104 -10 3 C-10.99 2.34 -11.98 1.68 -13 1 C-8.31506124 -1.48887372 -5.0555786 -0.85687773 0 0 Z " fill="#493A32" transform="translate(144,37)"/>
<path d="M0 0 C0.66 0.33 1.32 0.66 2 1 C2 2.32 2 3.64 2 5 C3.32 5.66 4.64 6.32 6 7 C3.36 7 0.72 7 -2 7 C-2 5.68 -2 4.36 -2 3 C-1.34 3 -0.68 3 0 3 C0 2.01 0 1.02 0 0 Z " fill="#937547" transform="translate(34,126)"/>
<path d="M0 0 C2.31 0 4.62 0 7 0 C6.01 0.495 6.01 0.495 5 1 C5 1.66 5 2.32 5 3 C6.65 3.33 8.3 3.66 10 4 C10 4.33 10 4.66 10 5 C7.69 5 5.38 5 3 5 C2.67 4.01 2.34 3.02 2 2 C1.34 1.34 0.68 0.68 0 0 Z " fill="#E6E1DA" transform="translate(24,75)"/>
<path d="M0 0 C-1.57914015 0.53341184 -3.16354387 1.05125763 -4.75 1.5625 C-5.63171875 1.85253906 -6.5134375 2.14257812 -7.421875 2.44140625 C-10.07834316 3.01697435 -11.47031106 2.89248371 -14 2 C-13.34 2 -12.68 2 -12 2 C-12 1.34 -12 0.68 -12 0 C-3.96428571 -1.20535714 -3.96428571 -1.20535714 0 0 Z " fill="#7A736E" transform="translate(150,28)"/>
<path d="M0 0 C1.65 0.33 3.3 0.66 5 1 C4.67 2.98 4.34 4.96 4 7 C2.35 7 0.7 7 -1 7 C0.32 6.67 1.64 6.34 3 6 C2.67 4.68 2.34 3.36 2 2 C1.34 2 0.68 2 0 2 C0 1.34 0 0.68 0 0 Z " fill="#7E7267" transform="translate(108,152)"/>
<path d="M0 0 C2 2 2 2 2.125 4.625 C2.08375 5.40875 2.0425 6.1925 2 7 C0.68 6.67 -0.64 6.34 -2 6 C-1.49396008 3.83125748 -1.00016187 2.00032373 0 0 Z " fill="#A57E46" transform="translate(7,97)"/>
<path d="M0 0 C1.32 0.33 2.64 0.66 4 1 C3.01 2.98 2.02 4.96 1 7 C0.34 7 -0.32 7 -1 7 C-1.33 7.99 -1.66 8.98 -2 10 C-1.33333333 6.66666667 -0.66666667 3.33333333 0 0 Z " fill="#B6B1AA" transform="translate(23,76)"/>
<path d="M0 0 C0.66 0 1.32 0 2 0 C1.814375 0.721875 1.62875 1.44375 1.4375 2.1875 C0.98004693 5.12826973 1.26483643 7.14103058 2 10 C0.68 9.01 -0.64 8.02 -2 7 C-1.34 4.69 -0.68 2.38 0 0 Z " fill="#5E5754" transform="translate(7,48)"/>
<path d="M0 0 C3.78717347 1.48781815 5.77407001 3.61988409 8 7 C7.67 7.99 7.34 8.98 7 10 C5.83043409 8.52312468 4.66441854 7.04343707 3.5 5.5625 C2.8503125 4.73878906 2.200625 3.91507812 1.53125 3.06640625 C0 1 0 1 0 0 Z " fill="#483E37" transform="translate(85,110)"/>
<path d="M0 0 C-0.99 0.33 -1.98 0.66 -3 1 C-4.20882096 3.00016466 -4.20882096 3.00016466 -5 5 C-5.66 4.67 -6.32 4.34 -7 4 C-7 3.34 -7 2.68 -7 2 C-7.66 1.67 -8.32 1.34 -9 1 C-6.04335481 -0.4783226 -3.25770263 -0.06032783 0 0 Z " fill="#4D423A" transform="translate(83,96)"/>
<path d="M0 0 C0.66 0.66 1.32 1.32 2 2 C1.625 4.125 1.625 4.125 1 6 C0.01 6 -0.98 6 -2 6 C-2.33 5.01 -2.66 4.02 -3 3 C-2.01 2.01 -1.02 1.02 0 0 Z " fill="#41352F" transform="translate(37,60)"/>
<path d="M0 0 C2.16874252 0.50603992 3.99967627 0.99983813 6 2 C5.67 3.32 5.34 4.64 5 6 C3.31237149 4.3545622 1.6459651 2.68711423 0 1 C0 0.67 0 0.34 0 0 Z " fill="#E5D6C6" transform="translate(113,131)"/>
<path d="M0 0 C2.0625 0.4375 2.0625 0.4375 4 1 C4.33 2.65 4.66 4.3 5 6 C4.01 6.495 4.01 6.495 3 7 C2.896875 6.38125 2.79375 5.7625 2.6875 5.125 C2.12474627 2.63473516 2.12474627 2.63473516 -1 1 C-0.67 0.67 -0.34 0.34 0 0 Z " fill="#544A3F" transform="translate(40,96)"/>
<path d="M0 0 C-0.33 1.32 -0.66 2.64 -1 4 C-2.65 4 -4.3 4 -6 4 C-5.67 3.01 -5.34 2.02 -5 1 C-2 0 -2 0 0 0 Z " fill="#211A19" transform="translate(113,62)"/>
<path d="M0 0 C3.65316671 1.24976756 4.78065836 1.67098753 7 5 C3.31245243 4.50168276 1.39509338 3.89932357 -1 1 C-0.67 0.67 -0.34 0.34 0 0 Z " fill="#655B58" transform="translate(150,43)"/>
<path d="M0 0 C0.82638376 2.89234315 1 4.88742431 1 8 C-0.32 8 -1.64 8 -3 8 C-1.125 2.25 -1.125 2.25 0 0 Z " fill="#64615F" transform="translate(86,38)"/>
<path d="M0 0 C0.66 0.33 1.32 0.66 2 1 C2.34342449 2.33076989 2.67619874 3.66431979 3 5 C3.66 5.66 4.32 6.32 5 7 C3.68 7 2.36 7 1 7 C-0.0625 4.625 -0.0625 4.625 -1 2 C-0.67 1.34 -0.34 0.68 0 0 Z " fill="#736455" transform="translate(88,148)"/>
<path d="M0 0 C0.66 0.33 1.32 0.66 2 1 C0.6875 3.5 0.6875 3.5 -1 6 C-1.99 6 -2.98 6 -4 6 C-2.84826645 3.53199953 -1.95216435 1.95216435 0 0 Z " fill="#805328" transform="translate(46,147)"/>
<path d="M0 0 C3.625 0.375 3.625 0.375 7 1 C7 1.66 7 2.32 7 3 C4.03 2.67 1.06 2.34 -2 2 C-1.34 1.34 -0.68 0.68 0 0 Z " fill="#996023" transform="translate(38,140)"/>
<path d="M0 0 C1.32 0.99 2.64 1.98 4 3 C3.67 4.65 3.34 6.3 3 8 C0.37613513 4.93882432 0 4.26826873 0 0 Z " fill="#7C6F65" transform="translate(97,119)"/>
<path d="M0 0 C0.99 0.33 1.98 0.66 3 1 C3.33 3.31 3.66 5.62 4 8 C2 6.25 2 6.25 0 4 C0 2.68 0 1.36 0 0 Z " fill="#8D847A" transform="translate(40,98)"/>
<path d="M0 0 C0.66 0.66 1.32 1.32 2 2 C3.31747324 2.69748583 4.64914193 3.36959957 6 4 C3.36 4 0.72 4 -2 4 C-2 3.01 -2 2.02 -2 1 C-1.34 0.67 -0.68 0.34 0 0 Z " fill="#605B55" transform="translate(13,84)"/>
</svg>
