<?xml version="1.0" encoding="UTF-8"?>
<svg version="1.1" xmlns="http://www.w3.org/2000/svg" width="160" height="160">
<path d="M0 0 C0.80308594 -0.03287109 1.60617188 -0.06574219 2.43359375 -0.09960938 C6.77780377 -0.13897207 8.58572909 0.02712459 12.1484375 2.73828125 C14.125 5.4375 14.125 5.4375 14.875 9.0625 C15.70174413 12.4525116 15.70174413 12.4525116 17.78515625 13.3046875 C19.30341713 13.75107273 20.82757526 14.17763339 22.35546875 14.58984375 C31.4069491 17.360184 38.76723555 21.71202881 43.77734375 29.82421875 C45.50071651 33.16606331 46.88426383 36.55982498 48.171875 40.08984375 C49.08577918 42.34089461 50.13478371 44.12469891 51.5 46.125 C53.84085861 49.75661242 55.71323971 53.54503546 57.4375 57.5 C57.94925781 58.64597656 58.46101563 59.79195312 58.98828125 60.97265625 C62.5197719 72.10482264 59.91074794 83.57261648 56.49951172 94.33154297 C55.86235385 96.35261372 55.26772666 98.3832473 54.67578125 100.41796875 C54.28105531 101.7142778 53.88401069 103.00988364 53.484375 104.3046875 C53.12827148 105.46081543 52.77216797 106.61694336 52.40527344 107.80810547 C51.125 110.4375 51.125 110.4375 49.15332031 111.41845703 C44.06941543 111.46618748 39.36805079 106.0110977 35.73828125 102.83203125 C33.93313118 101.27164729 32.0611423 99.83152246 30.125 98.4375 C30.783855 94.36320126 32.1022975 90.86517951 33.6875 87.0625 C36.4364154 79.9504805 37.18395225 75.57177133 34.125 68.5 C33.4709609 67.1396895 32.80854364 65.78322653 32.125 64.4375 C32.28548828 66.22607422 32.28548828 66.22607422 32.44921875 68.05078125 C32.57114951 69.61712257 32.69219734 71.18353279 32.8125 72.75 C32.88533203 73.53568359 32.95816406 74.32136719 33.03320312 75.13085938 C33.08798828 75.88818359 33.14277344 76.64550781 33.19921875 77.42578125 C33.25682373 78.12227783 33.31442871 78.81877441 33.3737793 79.53637695 C33.04576233 82.04301885 31.96403771 82.78133867 30.125 84.4375 C29.51224947 86.50164955 29.51224947 86.50164955 29.375 88.75 C29.29765625 89.48863281 29.2203125 90.22726563 29.140625 90.98828125 C29.10333275 96.83384076 30.87829303 102.2146585 32.62890625 107.72265625 C33.127119 109.32091184 33.62516075 110.91922075 34.12304688 112.51757812 C34.90617291 115.01556072 35.69154371 117.51279865 36.48022461 120.0090332 C37.24425067 122.43253624 37.99955615 124.85862702 38.75390625 127.28515625 C39.11011803 128.3993972 39.11011803 128.3993972 39.473526 129.53614807 C40.62245089 133.24765933 41.53922847 136.54120611 41.125 140.4375 C35.96158378 147.50322746 25.08435445 149.27538099 17.125 151.4375 C16.50431641 151.61780762 15.88363281 151.79811523 15.24414062 151.98388672 C-0.20342572 155.29052016 -19.56829702 153.14045528 -33.875 146.4375 C-34.019375 145.798125 -34.16375 145.15875 -34.3125 144.5 C-34.498125 143.819375 -34.68375 143.13875 -34.875 142.4375 C-37.85852894 140.65370585 -37.85852894 140.65370585 -40.875 139.4375 C-40.26194868 131.70137626 -38.01755812 124.53993637 -35.8125 117.125 C-35.06673987 114.60944618 -34.32701311 112.09232531 -33.58984375 109.57421875 C-33.26105225 108.46780029 -32.93226074 107.36138184 -32.59350586 106.22143555 C-31.75004943 103.43255773 -31.75004943 103.43255773 -31.875 100.4375 C-33.10495949 101.3531026 -34.33392386 102.27004203 -35.5625 103.1875 C-36.2946875 103.73277344 -37.026875 104.27804688 -37.78125 104.83984375 C-39.41801081 106.08878997 -41.00187129 107.40713343 -42.5625 108.75 C-45.09022633 110.59455705 -46.83435401 110.9282044 -49.875 111.4375 C-53.94012591 101.81908689 -56.77269118 92.04054474 -59.26367188 81.91162109 C-59.74564764 79.96100513 -60.26457339 78.01951887 -60.796875 76.08203125 C-62.76953347 65.72557429 -56.27123623 55.48857459 -51.875 46.4375 C-51.55450684 45.76992676 -51.23401367 45.10235352 -50.90380859 44.41455078 C-49.28540797 41.05749401 -47.59768885 37.74193043 -45.875 34.4375 C-45.37871094 33.41527344 -44.88242187 32.39304687 -44.37109375 31.33984375 C-39.59775471 22.07981527 -31.6981427 17.20887467 -22.125 13.625 C-17.49410945 11.70228043 -15.59347988 8.73728038 -13.1640625 4.4609375 C-9.91008476 -0.6468215 -5.38581347 0.03853126 0 0 Z M-31.875 61.4375 C-36.73187801 71.04352739 -36.73187801 71.04352739 -36.875 81.4375 C-35.07881701 86.2100669 -33.05056105 90.82738254 -30.875 95.4375 C-28.28655152 92.84905152 -28.63622558 91.03866333 -28.609375 87.5078125 C-28.7520321 85.3972123 -28.7520321 85.3972123 -29.87939453 83.60595703 C-31.02916303 81.10172854 -31.10548392 79.41524577 -31.0703125 76.671875 C-31.06064453 75.33769531 -31.06064453 75.33769531 -31.05078125 73.9765625 C-31.03402344 73.05617188 -31.01726563 72.13578125 -31 71.1875 C-30.99097656 70.25164062 -30.98195313 69.31578125 -30.97265625 68.3515625 C-30.94913636 66.04661343 -30.91626853 63.7421884 -30.875 61.4375 C-31.205 61.4375 -31.535 61.4375 -31.875 61.4375 Z " fill="#D0CCC7" transform="translate(81.875,3.5625)"/>
<path d="M0 0 C1.32 0.33 2.64 0.66 4 1 C3.546527 8.93577757 1.2271334 15.55581411 -1.625 22.9375 C-2.07576904 24.12811035 -2.52653809 25.3187207 -2.9909668 26.54541016 C-4.31571065 30.03485288 -5.65502494 33.51831236 -7 37 C-7.35497559 37.92280762 -7.70995117 38.84561523 -8.07568359 39.79638672 C-9.53111888 43.57640415 -10.99752044 47.35178599 -12.48046875 51.12109375 C-13.89396684 54.71465787 -15.26031578 58.32510059 -16.625 61.9375 C-18.84647512 67.73842839 -21.35398123 73.38143249 -24 79 C-20.89738494 79.25494218 -17.79325198 79.47447008 -14.6875 79.6875 C-13.80642578 79.76033203 -12.92535156 79.83316406 -12.01757812 79.90820312 C-11.17001953 79.96298828 -10.32246094 80.01777344 -9.44921875 80.07421875 C-8.66893311 80.13182373 -7.88864746 80.18942871 -7.0847168 80.2487793 C-4.43666044 79.93277398 -3.7429373 78.9350174 -2 77 C-1.34 77 -0.68 77 0 77 C0 78.32 0 79.64 0 81 C5.70911136 80.28636108 7.81740721 78.42152653 11.375 73.875 C12.04273437 72.96492188 12.71046875 72.05484375 13.3984375 71.1171875 C13.92695312 70.41851562 14.45546875 69.71984375 15 69 C15.33 69 15.66 69 16 69 C16.02698189 70.62490954 16.04638757 72.24994633 16.0625 73.875 C16.07410156 74.77992187 16.08570312 75.68484375 16.09765625 76.6171875 C16 79 16 79 15 81 C18.25683444 78.51296279 18.96153503 77.20750293 19.72265625 73.1015625 C19.85349342 71.61081175 19.96627677 70.1183845 20.0625 68.625 C20.44668172 63.16108216 20.83006176 58.67371741 24 54 C26.6875 52.625 26.6875 52.625 29 52 C28.98839844 52.84304687 28.97679688 53.68609375 28.96484375 54.5546875 C28.95582031 55.65039062 28.94679688 56.74609375 28.9375 57.875 C28.92589844 58.96554688 28.91429688 60.05609375 28.90234375 61.1796875 C28.80255697 63.95177546 28.80255697 63.95177546 30 66 C33.29148243 64.86500606 33.9959869 64.00716624 35.75 60.875 C36.1625 59.92625 36.575 58.9775 37 58 C37.66 58 38.32 58 39 58 C38.42144082 61.25014126 37.64953013 64.14525198 36.375 67.1875 C34.30056181 72.25834892 32.25919225 77.34048048 30.25 82.4375 C29.93208496 83.23115967 29.61416992 84.02481934 29.28662109 84.8425293 C28.99094238 85.59445557 28.69526367 86.34638184 28.390625 87.12109375 C28.12282227 87.7958374 27.85501953 88.47058105 27.57910156 89.16577148 C26.84946469 91.1562219 26.84946469 91.1562219 27 94 C28.50139618 95.22866145 28.50139618 95.22866145 30.5 96.25 C35.07807017 98.94779135 39.44740692 102.01278117 43 106 C43 106.99 43 107.98 43 109 C38.33299098 108.50873589 35.9527199 106.64642684 32.4375 103.625 C29.34607543 100.99235828 26.28146828 98.39354157 23 96 C23.658855 91.92570126 24.9772975 88.42767951 26.5625 84.625 C29.3114154 77.5129805 30.05895225 73.13427133 27 66.0625 C26.3459609 64.7021895 25.68354364 63.34572653 25 62 C25.16048828 63.78857422 25.16048828 63.78857422 25.32421875 65.61328125 C25.44614951 67.17962257 25.56719734 68.74603279 25.6875 70.3125 C25.76033203 71.09818359 25.83316406 71.88386719 25.90820312 72.69335938 C25.96298828 73.45068359 26.01777344 74.20800781 26.07421875 74.98828125 C26.13182373 75.68477783 26.18942871 76.38127441 26.2487793 77.09887695 C25.92076233 79.60551885 24.83903771 80.34383867 23 82 C22.38724947 84.06414955 22.38724947 84.06414955 22.25 86.3125 C22.17265625 87.05113281 22.0953125 87.78976563 22.015625 88.55078125 C21.97833275 94.39634076 23.75329303 99.7771585 25.50390625 105.28515625 C26.002119 106.88341184 26.50016075 108.48172075 26.99804688 110.08007812 C27.78117291 112.57806072 28.56654371 115.07529865 29.35522461 117.5715332 C30.11925067 119.99503624 30.87455615 122.42112702 31.62890625 124.84765625 C31.98511803 125.9618972 31.98511803 125.9618972 32.348526 127.09864807 C33.49745089 130.81015933 34.41422847 134.10370611 34 138 C28.83658378 145.06572746 17.95935445 146.83788099 10 149 C9.37931641 149.18030762 8.75863281 149.36061523 8.11914062 149.54638672 C-7.32842572 152.85302016 -26.69329702 150.70295528 -41 144 C-41.144375 143.360625 -41.28875 142.72125 -41.4375 142.0625 C-41.623125 141.381875 -41.80875 140.70125 -42 140 C-44.98352894 138.21620585 -44.98352894 138.21620585 -48 137 C-47.38694868 129.26387626 -45.14255812 122.10243637 -42.9375 114.6875 C-42.19173987 112.17194618 -41.45201311 109.65482531 -40.71484375 107.13671875 C-40.38605225 106.03030029 -40.05726074 104.92388184 -39.71850586 103.78393555 C-38.87504943 100.99505773 -38.87504943 100.99505773 -39 98 C-40.22995949 98.9156026 -41.45892386 99.83254203 -42.6875 100.75 C-43.4196875 101.29527344 -44.151875 101.84054688 -44.90625 102.40234375 C-46.54301081 103.65128997 -48.12687129 104.96963343 -49.6875 106.3125 C-52.21522633 108.15705705 -53.95935401 108.4907044 -57 109 C-59.91756607 102.11361044 -62.24139877 95.21826637 -64.1875 88 C-64.44724609 87.07960938 -64.70699219 86.15921875 -64.97460938 85.2109375 C-66.62656175 79.14951018 -67.58276077 73.26793595 -68 67 C-67.34 67 -66.68 67 -66 67 C-64.84957212 70.77997731 -63.88670551 74.48608554 -63.1875 78.375 C-62.23403335 83.3422537 -60.86636783 88.15312592 -59.4375 93 C-59.21537842 93.75458496 -58.99325684 94.50916992 -58.7644043 95.28662109 C-57.60606439 99.22847147 -57.60606439 99.22847147 -56 103 C-52.65291949 101.45158425 -49.75332488 99.50894136 -46.75 97.375 C-45.85796875 96.74335937 -44.9659375 96.11171875 -44.046875 95.4609375 C-43.37140625 94.97882813 -42.6959375 94.49671875 -42 94 C-42.55662493 88.97757964 -43.70983629 84.75485908 -45.5625 80.0625 C-47.55554282 74.69617493 -48.56802804 70.68028043 -48 65 C-46.515 64.505 -46.515 64.505 -45 64 C-44.67 63.34 -44.34 62.68 -44 62 C-43.34 62 -42.68 62 -42 62 C-42 59.03 -42 56.06 -42 53 C-41.67 53 -41.34 53 -41 53 C-40.67 51.02 -40.34 49.04 -40 47 C-39.67 47.66 -39.34 48.32 -39 49 C-37.68 49 -36.36 49 -35 49 C-33.84905083 51.30189833 -33.84727309 52.71998388 -33.7890625 55.28125 C-33.76070312 56.12300781 -33.73234375 56.96476562 -33.703125 57.83203125 C-33.65104786 59.61046564 -33.60677447 61.3891457 -33.5703125 63.16796875 C-33.52390625 64.43060547 -33.52390625 64.43060547 -33.4765625 65.71875 C-33.4468335 66.87793945 -33.4468335 66.87793945 -33.41650391 68.06054688 C-33.14891184 70.40413926 -33.14891184 70.40413926 -30 72 C-30 72.66 -30 73.32 -30 74 C-27.11490348 74.15104247 -27.11490348 74.15104247 -24 73 C-22.15620544 70.5069252 -21.19330888 67.70632728 -20.125 64.8125 C-19.79765869 63.9776709 -19.47031738 63.1428418 -19.13305664 62.28271484 C-18.43398469 60.48263365 -17.7473343 58.67768985 -17.07177734 56.86865234 C-15.96577186 53.90838711 -14.82223423 50.96434184 -13.67578125 48.01953125 C-12.92707993 46.05567963 -12.18092754 44.0908541 -11.4375 42.125 C-10.89923584 40.72664917 -10.89923584 40.72664917 -10.35009766 39.30004883 C-10.02702637 38.41986084 -9.70395508 37.53967285 -9.37109375 36.6328125 C-8.9368811 35.47096436 -8.9368811 35.47096436 -8.49389648 34.28564453 C-7.56127545 29.96967906 -8.99408382 26.61591366 -11.06640625 22.86328125 C-11.46923828 22.12142578 -11.87207031 21.37957031 -12.28710938 20.61523438 C-12.70798828 19.85533203 -13.12886719 19.09542969 -13.5625 18.3125 C-14.40082088 16.78978362 -15.23563938 15.26513209 -16.06640625 13.73828125 C-16.43709229 13.06837158 -16.80777832 12.39846191 -17.18969727 11.70825195 C-18 10 -18 10 -18 8 C-12.25 7.875 -12.25 7.875 -10 9 C-6.04437178 9.25797575 -3.40340307 9.09440189 0 7 C0 4.69 0 2.38 0 0 Z M-39 59 C-43.85687801 68.60602739 -43.85687801 68.60602739 -44 79 C-42.20381701 83.7725669 -40.17556105 88.38988254 -38 93 C-35.41155152 90.41155152 -35.76122558 88.60116333 -35.734375 85.0703125 C-35.8770321 82.9597123 -35.8770321 82.9597123 -37.00439453 81.16845703 C-38.15416303 78.66422854 -38.23048392 76.97774577 -38.1953125 74.234375 C-38.18564453 72.90019531 -38.18564453 72.90019531 -38.17578125 71.5390625 C-38.15902344 70.61867188 -38.14226563 69.69828125 -38.125 68.75 C-38.11597656 67.81414062 -38.10695313 66.87828125 -38.09765625 65.9140625 C-38.07413636 63.60911343 -38.04126853 61.3046884 -38 59 C-38.33 59 -38.66 59 -39 59 Z " fill="#A8A4A2" transform="translate(89,6)"/>
<path d="M0 0 C2.80284005 2.35590069 3.40235621 3.97155999 3.875 7.5625 C4.8672138 13.37037213 7.19857503 17.83948032 10 23 C9.505 17.555 9.505 17.555 9 12 C11.95242537 16.42863806 13.09341827 21.30708321 14.625 26.375 C14.94984375 27.4165625 15.2746875 28.458125 15.609375 29.53125 C16.06957031 31.04332031 16.06957031 31.04332031 16.5390625 32.5859375 C16.81959473 33.5042334 17.10012695 34.4225293 17.38916016 35.36865234 C18.00801089 38.03450894 18.19934915 40.27438555 18 43 C12.83658378 50.06572746 1.95935445 51.83788099 -6 54 C-6.62068359 54.18030762 -7.24136719 54.36061523 -7.88085938 54.54638672 C-23.84130727 57.96280517 -42.11502369 55.19974623 -57 49 C-56.48992372 46.78966946 -55.89106866 44.70282765 -55.109375 42.5703125 C-53.57053423 37.61784609 -52.63273214 32.58322967 -51.625 27.5 C-49.8066273 18.52165732 -47.75542683 9.74347733 -45 1 C-43.54176788 0.9729957 -42.08339325 0.95360213 -40.625 0.9375 C-39.81289062 0.92589844 -39.00078125 0.91429688 -38.1640625 0.90234375 C-36 1 -36 1 -34 2 C-34.63941978 4.73428078 -35.46284355 7.30643258 -36.4375 9.9375 C-40.09534478 20.89319118 -40.44164897 32.55380396 -41 44 C-38.03 43.34 -35.06 42.68 -32 42 C-32.2475 39.7415625 -32.2475 39.7415625 -32.5 37.4375 C-33.56102462 25.10110929 -33.41997255 14.70108805 -29 3 C-25.54116691 2.22946788 -23.39913029 1.98026091 -20 3 C-19.01 3 -18.02 3 -17 3 C-16.18177267 5.37316118 -15.37031293 7.7482942 -14.5625 10.125 C-14.33240234 10.79015625 -14.10230469 11.4553125 -13.86523438 12.140625 C-11.27287162 19.80500183 -10.86659085 26.82408376 -10.9375 34.875 C-10.94201172 35.84953125 -10.94652344 36.8240625 -10.95117188 37.828125 C-10.96289076 40.21877668 -10.98082404 42.6093965 -11 45 C-8.03 45 -5.06 45 -2 45 C-2.86955857 32.21619115 -3.76827038 19.25613702 -10.21875 7.84375 C-11.20454294 5.51727865 -10.8339278 4.33499783 -10 2 C-9.04287109 1.90912109 -9.04287109 1.90912109 -8.06640625 1.81640625 C-7.24011719 1.73261719 -6.41382813 1.64882812 -5.5625 1.5625 C-4.73878906 1.48128906 -3.91507813 1.40007812 -3.06640625 1.31640625 C-1.01337975 1.21069185 -1.01337975 1.21069185 0 0 Z " fill="#D9D7D6" transform="translate(105,101)"/>
<path d="M0 0 C2.18994248 3.28491373 2.35277339 4.83095639 2.625 8.6875 C2.69976562 9.68136719 2.77453125 10.67523438 2.8515625 11.69921875 C2.90054688 12.45847656 2.94953125 13.21773437 3 14 C3.66 13.01 4.32 12.02 5 11 C6.60495567 11.11442461 8.20898119 11.24194694 9.8125 11.375 C11.15248047 11.47941406 11.15248047 11.47941406 12.51953125 11.5859375 C15 12 15 12 18 14 C20.64017635 14.81779841 23.30270591 15.3809489 26 16 C25.71848084 18.12636813 25.42446737 20.25108528 25.125 22.375 C24.96257812 23.55835937 24.80015625 24.74171875 24.6328125 25.9609375 C24 29 24 29 22 31 C20.89116887 34.0926088 20.19831016 37.3061178 19.4375 40.5 C19.2120752 41.43384521 18.98665039 42.36769043 18.75439453 43.32983398 C17.15908238 50.33793942 16.39694893 57.12880991 16.36499023 64.3125 C16.32076005 67.50599334 16.17957071 69.67948134 14.6015625 72.49609375 C13 74 13 74 11 74 C11 70.7 11 67.4 11 64 C10.12988281 65.0828125 10.12988281 65.0828125 9.2421875 66.1875 C8.46101563 67.115625 7.67984375 68.04375 6.875 69 C6.10929687 69.928125 5.34359375 70.85625 4.5546875 71.8125 C2 74 2 74 -1.3046875 74.3125 C-2.19414063 74.209375 -3.08359375 74.10625 -4 74 C-4 72.68 -4 71.36 -4 70 C-4.99 70.99 -4.99 70.99 -6 72 C-12.04947151 76.03298101 -19.13394615 73.75640184 -25.875 72.4375 C-26.57625 72.293125 -27.2775 72.14875 -28 72 C-26.51185547 67.22227282 -24.91356795 62.7002886 -22.75 58.1875 C-19.9637558 52.21459328 -17.86787673 46.06012212 -15.73193359 39.83447266 C-12.97100944 31.82018552 -9.92401566 23.93670939 -6.80664062 16.05566406 C-5.14548094 11.82232129 -3.54962398 7.56373777 -1.9453125 3.30859375 C-1 1 -1 1 0 0 Z " fill="#E8E5E6" transform="translate(93,13)"/>
<path d="M0 0 C2.81617382 2.81617382 4.21790448 6.26918667 5.9375 9.8125 C6.6321658 11.23662932 7.32874115 12.65982898 8.02734375 14.08203125 C8.35847168 14.76346191 8.68959961 15.44489258 9.03076172 16.14697266 C10.04242812 18.18050895 10.04242812 18.18050895 11.81640625 20.57421875 C13.88025156 24.80407993 12.32743755 28.96553933 10.95605469 33.2980957 C10.53227539 34.41273193 10.10849609 35.52736816 9.671875 36.67578125 C9.44099182 37.28584518 9.21010864 37.89590912 8.972229 38.52445984 C8.48481329 39.80727024 7.99385664 41.08874036 7.49951172 42.36889648 C6.75716755 44.29391339 6.02815468 46.22358087 5.30078125 48.15429688 C-1.09369348 64.99082431 -1.09369348 64.99082431 -4 69 C-6.02441406 69.8215332 -6.02441406 69.8215332 -8 70 C-8.66 69.67 -9.32 69.34 -10 69 C-10 68.34 -10 67.68 -10 67 C-11.32 66.34 -12.64 65.68 -14 65 C-14.01458252 64.43490723 -14.02916504 63.86981445 -14.04418945 63.28759766 C-14.11856058 60.73269981 -14.21525242 58.17912502 -14.3125 55.625 C-14.33505859 54.73554687 -14.35761719 53.84609375 -14.38085938 52.9296875 C-14.41630859 52.07890625 -14.45175781 51.228125 -14.48828125 50.3515625 C-14.51446533 49.56604004 -14.54064941 48.78051758 -14.56762695 47.97119141 C-14.84889597 45.59959844 -14.84889597 45.59959844 -18 44 C-18.80128052 41.31335354 -19.43241913 38.73470782 -20 36 C-20.18691406 35.25878906 -20.37382813 34.51757812 -20.56640625 33.75390625 C-21.81817128 28.70307811 -22.69195879 24.18969091 -22 19 C-20.1827205 16.70331548 -18.52550382 15.61632245 -16 14 C-15.34 14 -14.68 14 -14 14 C-14 13.34 -14 12.68 -14 12 C-9.77050005 9.58314288 -6.87664009 8.65166856 -2 9 C-2.04125 8.2575 -2.0825 7.515 -2.125 6.75 C-1.99601866 3.91241048 -1.42948778 2.41226062 0 0 Z " fill="#E5E2E3" transform="translate(69,11)"/>
<path d="M0 0 C6.875 0.875 6.875 0.875 8 2 C10.45088882 2.12712692 12.86110545 2.18520683 15.3125 2.1875 C15.98990234 2.19974609 16.66730469 2.21199219 17.36523438 2.22460938 C21.13573223 2.23566655 23.76541177 1.95438821 27 0 C30.3442286 -0.44003008 31.73655558 -0.15316536 34.6875 1.5625 C39.27500387 3.55330357 43.17424889 3.05911699 48 2 C49.33529843 1.33727809 50.66888331 0.67108165 52 0 C52.99 0 53.98 0 55 0 C55 2.64 55 5.28 55 8 C50.35855331 9.76054874 45.72224516 11.46527032 41 13 C41.65672715 16.99201558 42.90345093 20.45024694 44.4375 24.1875 C48.5174244 34.70568659 49.29240762 43.72606184 49 55 C46.03 55 43.06 55 40 55 C39.94392578 52.93492187 39.94392578 52.93492187 39.88671875 50.828125 C39.55309513 40.82487078 38.91305461 31.63091523 36 22 C35.58849629 20.25361839 35.19139556 18.50374519 34.8125 16.75 C34.544375 15.5125 34.27625 14.275 34 13 C33.113125 13.185625 32.22625 13.37125 31.3125 13.5625 C28.11595648 13.98468499 26.09308585 13.71135705 23 13 C17.36763317 25.42138043 18.61218305 38.67848786 19 52 C15.62902617 53.49821059 13.79557881 54 10 54 C9.47445945 39.53790262 10.11607015 25.05572902 17 12 C15.94039062 11.86722656 14.88078125 11.73445313 13.7890625 11.59765625 C12.40101721 11.41946125 11.01299769 11.2410654 9.625 11.0625 C8.57699219 10.93198242 8.57699219 10.93198242 7.5078125 10.79882812 C2.2265625 10.11328125 2.2265625 10.11328125 0 9 C0 6.03 0 3.06 0 0 Z " fill="#222221" transform="translate(54,91)"/>
<path d="M0 0 C0.66 0 1.32 0 2 0 C2.50921328 2.18537367 3.00694437 4.37342431 3.5 6.5625 C3.7784375 7.78066406 4.056875 8.99882813 4.34375 10.25390625 C4.98637554 13.92222707 5.11474823 17.28502603 5 21 C4.01 21.33 3.02 21.66 2 22 C2.33 22.66 2.66 23.32 3 24 C3.06996014 25.70702735 3.08440154 27.41668003 3.0625 29.125 C3.05347656 30.03507812 3.04445313 30.94515625 3.03515625 31.8828125 C3.02355469 32.58148438 3.01195313 33.28015625 3 34 C2.34 34 1.68 34 1 34 C1 34.66 1 35.32 1 36 C-0.32 36 -1.64 36 -3 36 C-2.56670871 41.09117271 -1.27781621 44.91760195 0.87890625 49.53125 C2.10807289 52.2379863 3.19965652 54.9690194 4.25 57.75 C4.58515625 58.63171875 4.9203125 59.5134375 5.265625 60.421875 C6.08036045 63.28211648 6.56087943 65.06117719 6 68 C4.07112641 69.90794008 2.3766391 71.33982517 0.1875 72.875 C-0.35970703 73.29007812 -0.90691406 73.70515625 -1.47070312 74.1328125 C-3.08203125 75.3046875 -3.08203125 75.3046875 -6 77 C-6.99 76.67 -7.98 76.34 -9 76 C-12.13253334 68.55153182 -12.59524621 59.94674341 -13.35375977 51.96899414 C-13.66499095 47.8539748 -13.66499095 47.8539748 -15 44 C-15.29194896 38.85281286 -14.57624792 34.61856502 -13.125 29.6875 C-12.77695312 28.47449219 -12.42890625 27.26148437 -12.0703125 26.01171875 C-11 23 -11 23 -9 21 C-8.42489132 18.67826495 -8.0490056 16.35561652 -7.66015625 13.99609375 C-7.44230469 13.33738281 -7.22445312 12.67867187 -7 12 C-6.01 11.67 -5.02 11.34 -4 11 C-3.8453125 9.39125 -3.8453125 9.39125 -3.6875 7.75 C-3.02797801 4.15260731 -2.54223809 2.54223809 0 0 Z " fill="#E8E5E4" transform="translate(42,32)"/>
<path d="M0 0 C2.80284005 2.35590069 3.40235621 3.97155999 3.875 7.5625 C4.8672138 13.37037213 7.19857503 17.83948032 10 23 C9.67 19.37 9.34 15.74 9 12 C11.95242537 16.42863806 13.09341827 21.30708321 14.625 26.375 C14.94984375 27.4165625 15.2746875 28.458125 15.609375 29.53125 C15.91617188 30.53929687 16.22296875 31.54734375 16.5390625 32.5859375 C16.81959473 33.5042334 17.10012695 34.4225293 17.38916016 35.36865234 C18.00801089 38.03450894 18.19934915 40.27438555 18 43 C12.82986292 50.07492442 1.96542506 51.81530817 -6 54 C-6.33 53.34 -6.66 52.68 -7 52 C-5.515 51.505 -5.515 51.505 -4 51 C-6.37612865 49.39092892 -6.37612865 49.39092892 -9 48 C-9.99 48.495 -9.99 48.495 -11 49 C-11 48.34 -11 47.68 -11 47 C-11.66 47 -12.32 47 -13 47 C-13 37.76 -13 28.52 -13 19 C-13.66 19 -14.32 19 -15 19 C-15 16.69 -15 14.38 -15 12 C-10.7857345 19.22445514 -10.72967378 26.89526829 -10.875 35 C-10.88402344 35.96550781 -10.89304687 36.93101562 -10.90234375 37.92578125 C-10.92569209 40.28396326 -10.96155461 42.6420158 -11 45 C-8.03 45 -5.06 45 -2 45 C-2.86955857 32.21619115 -3.76827038 19.25613702 -10.21875 7.84375 C-11.20454294 5.51727865 -10.8339278 4.33499783 -10 2 C-9.04287109 1.90912109 -9.04287109 1.90912109 -8.06640625 1.81640625 C-6.82697266 1.69072266 -6.82697266 1.69072266 -5.5625 1.5625 C-4.73878906 1.48128906 -3.91507813 1.40007812 -3.06640625 1.31640625 C-1.01337975 1.21069185 -1.01337975 1.21069185 0 0 Z " fill="#D2CECB" transform="translate(105,101)"/>
<path d="M0 0 C3.11229733 2.54642509 3.77883932 5.25510724 5 9 C5.66 9.33 6.32 9.66 7 10 C7.69339294 24.25307703 3.64259869 36.73281086 -1 50 C-5.31058464 50 -5.79837119 49.74231572 -8.9375 47.1875 C-11.85589652 44.88005752 -14.74889532 42.82874638 -18 41 C-17.0093051 35.51815489 -15.1447085 30.47438006 -13.25 25.25 C-12.91484375 24.29867187 -12.5796875 23.34734375 -12.234375 22.3671875 C-9.27068298 14.17213001 -5.76562675 6.61979367 0 0 Z " fill="#F0EDEC" transform="translate(133,59)"/>
<path d="M0 0 C1.32 0 2.64 0 4 0 C4.66 2.31 5.32 4.62 6 7 C5.21625 6.79375 4.4325 6.5875 3.625 6.375 C2.325625 6.189375 2.325625 6.189375 1 6 C-1.35953094 8.35953094 -1.49141413 9.77895617 -2 13 C-4.66666667 13.66666667 -7.33333333 14.33333333 -10 15 C-10.74765625 15.18691406 -11.4953125 15.37382812 -12.265625 15.56640625 C-13.12414063 15.78103516 -13.12414063 15.78103516 -14 16 C-14 16.66 -14 17.32 -14 18 C-15.96722008 19.38123963 -17.96868328 20.71488126 -20 22 C-21.58428969 23.58428969 -21.20842692 25.17855561 -21.25 27.375 C-21.22818067 32.43708427 -20.12949931 36.76517101 -18.55859375 41.5546875 C-17.95594003 44.1928779 -18.147265 45.47377257 -19 48 C-19.34060811 49.66519519 -19.67558396 51.33157466 -20 53 C-20.33 53 -20.66 53 -21 53 C-21.33 55.64 -21.66 58.28 -22 61 C-22.66 61 -23.32 61 -24 61 C-24.33 61.99 -24.66 62.98 -25 64 C-25.99 64 -26.98 64 -28 64 C-28 65.65 -28 67.3 -28 69 C-28.66 68.67 -29.32 68.34 -30 68 C-30.59355614 65.35139573 -30.74209269 62.70802678 -31 60 C-29.35 60.33 -27.7 60.66 -26 61 C-26 60.34 -26 59.68 -26 59 C-25.34 59 -24.68 59 -24 59 C-24.33 55.04 -24.66 51.08 -25 47 C-24.01 46.505 -24.01 46.505 -23 46 C-23.64945944 35.46226334 -23.64945944 35.46226334 -25 25 C-28.91658843 28.26382369 -29.68292667 31.17073111 -31 36 C-31.515625 36.495 -32.03125 36.99 -32.5625 37.5 C-34.85539241 39.89258339 -34.59296286 42.80185103 -35 46 C-35.66 46.66 -36.32 47.32 -37 48 C-37.78324917 50.20396027 -38.47990325 52.43921836 -39.125 54.6875 C-39.65480469 56.48767578 -39.65480469 56.48767578 -40.1953125 58.32421875 C-41.12954349 62.59174962 -42.01798172 66.96403655 -40 71 C-39.67676847 73.791545 -39.39034315 76.57797105 -39.125 79.375 C-37.95887448 91.54130571 -37.95887448 91.54130571 -34 103 C-34.99 102.67 -35.98 102.34 -37 102 C-38.00132916 99.59027315 -38.81508014 97.2999699 -39.5625 94.8125 C-39.77068359 94.15185547 -39.97886719 93.49121094 -40.19335938 92.81054688 C-40.60801845 91.49377683 -41.01657675 90.17506973 -41.41894531 88.85449219 C-41.92999647 87.22342304 -42.50144003 85.61153609 -43.08203125 84.00390625 C-44.17890959 80.41454691 -44.68599225 76.83857374 -45.125 73.125 C-45.21136719 72.43664062 -45.29773438 71.74828125 -45.38671875 71.0390625 C-45.59659566 69.36004725 -45.79907087 67.68010952 -46 66 C-46.66 66 -47.32 66 -48 66 C-44.21406717 53.8008831 -38.81957266 42.34572149 -33 31 C-32.49984375 29.96875 -31.9996875 28.9375 -31.484375 27.875 C-26.69225407 18.59341841 -18.75203813 13.77546538 -9.1875 10.125 C-4.7907583 8.31366627 -3.17908787 5.8319546 -1.16796875 1.609375 C-0.78253906 1.07828125 -0.39710937 0.5471875 0 0 Z " fill="#B5B2B1" transform="translate(69,7)"/>
<path d="M0 0 C1.55546612 3.11093224 1.01719109 6.26078292 0.9375 9.6875 C0.83764219 12.02768893 0.83764219 12.02768893 2 14 C5.29148243 12.86500606 5.9959869 12.00716624 7.75 8.875 C8.1625 7.92625 8.575 6.9775 9 6 C9.66 6 10.32 6 11 6 C10.42144082 9.25014126 9.64953013 12.14525198 8.375 15.1875 C6.30056181 20.25834892 4.25919225 25.34048048 2.25 30.4375 C1.93208496 31.23115967 1.61416992 32.02481934 1.28662109 32.8425293 C0.84310303 33.9704187 0.84310303 33.9704187 0.390625 35.12109375 C0.12282227 35.7958374 -0.14498047 36.47058105 -0.42089844 37.16577148 C-1.15053531 39.1562219 -1.15053531 39.1562219 -1 42 C0.50139618 43.22866145 0.50139618 43.22866145 2.5 44.25 C7.07807017 46.94779135 11.44740692 50.01278117 15 54 C15 54.99 15 55.98 15 57 C10.33299098 56.50873589 7.9527199 54.64642684 4.4375 51.625 C1.34607543 48.99235828 -1.71853172 46.39354157 -5 44 C-4.341145 39.92570126 -3.0227025 36.42767951 -1.4375 32.625 C1.3114154 25.5129805 2.05895225 21.13427133 -1 14.0625 C-1.6540391 12.7021895 -2.31645636 11.34572653 -3 10 C-2.89300781 11.19238281 -2.78601563 12.38476562 -2.67578125 13.61328125 C-2.55385049 15.17962257 -2.43280266 16.74603279 -2.3125 18.3125 C-2.23966797 19.09818359 -2.16683594 19.88386719 -2.09179688 20.69335938 C-2.03701172 21.45068359 -1.98222656 22.20800781 -1.92578125 22.98828125 C-1.86817627 23.68477783 -1.81057129 24.38127441 -1.7512207 25.09887695 C-2.07923767 27.60551885 -3.16096229 28.34383867 -5 30 C-6.59979232 35.99922119 -6.09273529 41.86749216 -4.0625 47.6875 C-2.01278757 54.07777993 -0.31343472 60.38531489 -2 67 C-6.5087494 60.2368759 -9.40837786 54.13480442 -10 46 C-10.33 45.67 -10.66 45.34 -11 45 C-11.66 46.32 -12.32 47.64 -13 49 C-13 47.35 -13 45.7 -13 44 C-13.99 43.67 -14.98 43.34 -16 43 C-13.69 42.34 -11.38 41.68 -9 41 C-8.67 38.36 -8.34 35.72 -8 33 C-10.97 33.99 -13.94 34.98 -17 36 C-15.18873852 32.37747704 -13.81606028 30.72805839 -11 28 C-8.18175424 23.77263135 -8.28200559 19.36546815 -7.87695312 14.42382812 C-7.41600202 9.69388843 -6.55044991 6.1302062 -4 2 C-1.8125 0.625 -1.8125 0.625 0 0 Z " fill="#94918B" transform="translate(117,58)"/>
<path d="M0 0 C2.6855594 2.6855594 3.06049974 5.37621328 4 9 C4.33 9 4.66 9 5 9 C5 15.27 5 21.54 5 28 C8.3 28.99 11.6 29.98 15 31 C15 32.32 15 33.64 15 35 C17.64 35 20.28 35 23 35 C23 36.32 23 37.64 23 39 C23.59167969 38.7834375 24.18335938 38.566875 24.79296875 38.34375 C32.89918838 35.48739855 32.89918838 35.48739855 37 36 C37.33 36.33 37.66 36.66 38 37 C40.67058851 37.14115161 43.32432238 37.04247107 46 37 C46.12375 37.639375 46.2475 38.27875 46.375 38.9375 C46.58125 39.618125 46.7875 40.29875 47 41 C47.99 41.495 47.99 41.495 49 42 C47.56163249 41.88541307 46.12429034 41.75790884 44.6875 41.625 C43.88699219 41.55539063 43.08648437 41.48578125 42.26171875 41.4140625 C40 41 40 41 37 39 C32.34184319 39.40595214 32.34184319 39.40595214 28 41 C19.81677216 41.52020519 12.48144469 41.66438107 5 38 C5 40.97 5 43.94 5 47 C8.63 47.33 12.26 47.66 16 48 C16 48.33 16 48.66 16 49 C8.57142857 50.28571429 8.57142857 50.28571429 5 49 C4.67 49.66 4.34 50.32 4 51 C3.36631465 47.19788787 2.95399183 43.66815687 3.0625 39.8125 C3.27998643 36.20029845 3.27998643 36.20029845 2.00830078 34.03222656 C0.85722594 31.7122394 0.76793804 30.24433704 0.8046875 27.671875 C0.81113281 26.87265625 0.81757812 26.0734375 0.82421875 25.25 C0.84097656 24.425 0.85773437 23.6 0.875 22.75 C0.88402344 21.90953125 0.89304687 21.0690625 0.90234375 20.203125 C0.92584183 18.13529396 0.96171092 16.06761005 1 14 C-0.32 17.3 -1.64 20.6 -3 24 C-3.66 24 -4.32 24 -5 24 C-5 25.98 -5 27.96 -5 30 C-6.90401138 28.09598862 -7.93520439 26.66574314 -8.19921875 23.953125 C-8.1886578 21.96766727 -8.09915043 19.9830086 -8 18 C-7.01 17.67 -6.02 17.34 -5 17 C-4.67 16.34 -4.34 15.68 -4 15 C-3.34 15 -2.68 15 -2 15 C-2 12.03 -2 9.06 -2 6 C-1.67 6 -1.34 6 -1 6 C-0.67 4.02 -0.34 2.04 0 0 Z " fill="#73716B" transform="translate(49,53)"/>
<path d="M0 0 C2.7483437 1.02196814 3.81827338 1.67300427 5.265625 4.27734375 C5.59046875 5.15519531 5.9153125 6.03304687 6.25 6.9375 C6.58515625 7.81277344 6.9203125 8.68804687 7.265625 9.58984375 C8 12 8 12 8 15 C8.99 14.67 9.98 14.34 11 14 C14.31757486 18.78121082 16.98573416 23.73073489 19.3125 29.0625 C19.82425781 30.20847656 20.33601563 31.35445312 20.86328125 32.53515625 C24.68445362 44.60039819 21.2886953 56.43156294 17.5 67.9375 C17.06444509 69.31383403 16.63084172 70.69078721 16.19921875 72.06835938 C15.15509077 75.38631 14.08523398 78.69523163 13 82 C11.43359375 80.22265625 11.43359375 80.22265625 10 78 C10.84733373 75.15893986 11.80866205 72.69404832 13 70 C17.33613461 59.0118407 19.23137943 48.77203081 20 37 C18.515 36.505 18.515 36.505 17 36 C15.3125 32.4375 15.3125 32.4375 14 29 C13.34 29 12.68 29 12 29 C11.34 29.66 10.68 30.32 10 31 C10 30.01 10 29.02 10 28 C9.34 28 8.68 28 8 28 C7.34 26.02 6.68 24.04 6 22 C5.01 22 4.02 22 3 22 C2.87625 21.360625 2.7525 20.72125 2.625 20.0625 C2.41875 19.381875 2.2125 18.70125 2 18 C1.34 17.67 0.68 17.34 0 17 C-1.81596196 11.55211412 -1.42868053 5.53613706 0 0 Z " fill="#ECE7E6" transform="translate(120,32)"/>
<path d="M0 0 C0.66 0.33 1.32 0.66 2 1 C2.36081337 2.66093426 2.68802556 4.32920353 3 6 C3.78044504 8.07484169 4.5957277 10.13677284 5.4375 12.1875 C9.5174244 22.70568659 10.29240762 31.72606184 10 43 C7.03 43 4.06 43 1 43 C0.94392578 40.93492187 0.94392578 40.93492187 0.88671875 38.828125 C0.46381171 25.49223588 0.46381171 25.49223588 -2.28125 12.47265625 C-3.09567942 9.67084201 -3.56362966 6.88256175 -4 4 C-3.01 3.67 -2.02 3.34 -1 3 C-0.67 2.01 -0.34 1.02 0 0 Z " fill="#383735" transform="translate(93,103)"/>
<path d="M0 0 C0.33 0 0.66 0 1 0 C2.00640475 13.75419825 -1.01799965 26.63651439 -4 40 C-7.31395986 41.08784335 -7.83580335 41.07262544 -11.25 39.5625 C-12.1575 39.046875 -13.065 38.53125 -14 38 C-13.38955672 30.36945905 -11.20378179 23.29810526 -9 16 C-8.34 16 -7.68 16 -7 16 C-6.66226563 15.01257813 -6.32453125 14.02515625 -5.9765625 13.0078125 C-5.52634467 11.71343623 -5.07580716 10.41917113 -4.625 9.125 C-4.40328125 8.47402344 -4.1815625 7.82304688 -3.953125 7.15234375 C-2.93037374 4.23449455 -2.21443349 2.21443349 0 0 Z " fill="#B7B4B3" transform="translate(55,105)"/>
<path d="M0 0 C0.99 0 1.98 0 3 0 C3.75438826 3.69650248 4.23882145 6.28353566 3.03125 9.90625 C1.28143092 15.58520827 1.79162119 21.55929397 1.875 27.4375 C1.88402344 28.64599609 1.89304687 29.85449219 1.90234375 31.09960938 C1.92579832 34.06661278 1.95862206 37.03320143 2 40 C-1.37097383 41.49821059 -3.20442119 42 -7 42 C-7.52554055 27.53790262 -6.88392985 13.05572902 0 0 Z " fill="#30302F" transform="translate(71,103)"/>
<path d="M0 0 C1.32 0.33 2.64 0.66 4 1 C3.52701886 8.31994623 1.66909448 14.28305049 -1.0625 21.0625 C-1.43955078 22.02349609 -1.81660156 22.98449219 -2.20507812 23.97460938 C-3.12706656 26.32042804 -4.05878882 28.66184338 -5 31 C-9.1486896 27.44126167 -11.28855985 23.15356134 -13.75 18.375 C-14.16121094 17.59898438 -14.57242188 16.82296875 -14.99609375 16.0234375 C-18 10.27509863 -18 10.27509863 -18 8 C-12.25 7.875 -12.25 7.875 -10 9 C-6.04437178 9.25797575 -3.40340307 9.09440189 0 7 C0 4.69 0 2.38 0 0 Z " fill="#A29C94" transform="translate(89,6)"/>
<path d="M0 0 C3.7682416 5.65236239 4.55247549 11.37029406 4 18 C3.51402344 18.48339844 3.02804688 18.96679688 2.52734375 19.46484375 C-0.26685305 22.27333312 0.09776579 26.20668729 0 30 C0.30727988 33.13425477 0.90222412 35.71970916 1.9375 38.6875 C3.98721243 45.07777993 5.68656528 51.38531489 4 58 C-0.5087494 51.2368759 -3.40837786 45.13480442 -4 37 C-4.33 36.67 -4.66 36.34 -5 36 C-5.66 37.32 -6.32 38.64 -7 40 C-7 38.35 -7 36.7 -7 35 C-7.99 34.67 -8.98 34.34 -10 34 C-7.69 33.34 -5.38 32.68 -3 32 C-3.02320312 31.01257813 -3.04640625 30.02515625 -3.0703125 29.0078125 C-3.09738281 27.08582031 -3.09738281 27.08582031 -3.125 25.125 C-3.14820312 23.84882812 -3.17140625 22.57265625 -3.1953125 21.2578125 C-3 18 -3 18 -1 16 C-0.6936141 13.26565038 -0.4886664 10.61720179 -0.375 7.875 C-0.31699219 6.74384766 -0.31699219 6.74384766 -0.2578125 5.58984375 C-0.16348969 3.72696816 -0.08065338 1.86351745 0 0 Z " fill="#7C7B77" transform="translate(111,67)"/>
<path d="M0 0 C0.80308594 -0.03287109 1.60617188 -0.06574219 2.43359375 -0.09960938 C6.94472387 -0.14048452 8.58018581 -0.01096664 12.1953125 2.96484375 C12.83210938 3.78082031 13.46890625 4.59679687 14.125 5.4375 C13.135 5.9325 13.135 5.9325 12.125 6.4375 C12.455 8.4175 12.785 10.3975 13.125 12.4375 C12.135 11.7775 11.145 11.1175 10.125 10.4375 C9.9375 6.8125 9.9375 6.8125 10.125 3.4375 C9.135 3.1075 8.145 2.7775 7.125 2.4375 C7.455 5.0775 7.785 7.7175 8.125 10.4375 C4.29230743 12.24112003 1.35650665 12.87828194 -2.875 12.4375 C-5.6875 11.3125 -5.6875 11.3125 -7.875 9.4375 C-8.6875 6.25 -8.6875 6.25 -8.875 3.4375 C-9.865 3.1075 -10.855 2.7775 -11.875 2.4375 C-7.83877474 -0.25331684 -4.73986541 0.03391001 0 0 Z " fill="#C9C5C4" transform="translate(81.875,3.5625)"/>
<path d="M0 0 C0.33 0 0.66 0 1 0 C1.33 2.97 1.66 5.94 2 9 C2.99 8.34 3.98 7.68 5 7 C5.24042276 11.08718695 4.42258812 14.17679443 3 18 C8.1693489 17.59443869 8.1693489 17.59443869 13 16 C12.67 17.32 12.34 18.64 12 20 C11.34 19.67 10.68 19.34 10 19 C9.731875 19.928125 9.46375 20.85625 9.1875 21.8125 C8.08851629 24.76240366 7.37581439 26.05615186 5 28 C4.01 27.67 3.02 27.34 2 27 C0.67770811 24.35541621 0.90322806 22.32238699 0.9375 19.375 C0.94652344 18.37210938 0.95554687 17.36921875 0.96484375 16.3359375 C0.98224609 15.17964844 0.98224609 15.17964844 1 14 C-2.17952717 15.37764644 -2.17952717 15.37764644 -4.1875 18.125 C-5.21372732 21.75626592 -5.61818567 25.24549242 -6 29 C-6.33 29 -6.66 29 -7 29 C-7.20190089 22.64012196 -6.6277833 17.14778871 -5 11 C-4.34 11 -3.68 11 -3 11 C-2.86722656 10.37351562 -2.73445313 9.74703125 -2.59765625 9.1015625 C-2.42105469 8.28429688 -2.24445313 7.46703125 -2.0625 6.625 C-1.88847656 5.81289063 -1.71445313 5.00078125 -1.53515625 4.1640625 C-1 2 -1 2 0 0 Z " fill="#B8B4B0" transform="translate(116,45)"/>
<path d="M0 0 C0.66 0 1.32 0 2 0 C3.15042788 3.77997731 4.11329449 7.48608554 4.8125 11.375 C5.76596665 16.3422537 7.13363217 21.15312592 8.5625 26 C8.78462158 26.75458496 9.00674316 27.50916992 9.2355957 28.28662109 C10.39393561 32.22847147 10.39393561 32.22847147 12 36 C14.97889756 34.62970712 17.34104733 33.00842115 19.875 30.9375 C23.21101053 28.36989639 25.69960185 27.21501991 30 27 C25.46217403 31.8403477 20.40199452 36.14689594 15 40 C14.34 40 13.68 40 13 40 C13 40.66 13 41.32 13 42 C10 41 10 41 9.15625 39.33276367 C8.9396875 38.61838135 8.723125 37.90399902 8.5 37.16796875 C8.13104614 35.97868774 8.13104614 35.97868774 7.75463867 34.76538086 C7.50560791 33.91468018 7.25657715 33.06397949 7 32.1875 C6.73872314 31.32326416 6.47744629 30.45902832 6.20825195 29.56860352 C3.27356378 19.75914504 0.65809022 10.25713035 0 0 Z " fill="#A19E9D" transform="translate(21,73)"/>
<path d="M0 0 C3.32724594 3.07815672 4.92097065 6.64162068 6.6875 10.75 C7.00783203 11.42160156 7.32816406 12.09320313 7.65820312 12.78515625 C13.1394738 25.57089211 9.62240731 38.41810869 5.5 50.9375 C5.06444509 52.31383403 4.63084172 53.69078721 4.19921875 55.06835938 C3.15509077 58.38631 2.08523398 61.69523163 1 65 C-0.56640625 63.22265625 -0.56640625 63.22265625 -2 61 C-1.15266627 58.15893986 -0.19133795 55.69404832 1 53 C5.33613461 42.0118407 7.23137943 31.77203081 8 20 C7.01 19.67 6.02 19.34 5 19 C3.95155573 16.35969246 3.09477547 13.84287551 2.3125 11.125 C2.08755859 10.39152344 1.86261719 9.65804687 1.63085938 8.90234375 C0.71551331 5.8474806 0 3.20488959 0 0 Z " fill="#CDC8C7" transform="translate(132,49)"/>
<path d="M0 0 C1.13696461 3.33559815 0.85790684 5.07110422 -0.4375 8.3125 C-1.89662755 12.35008583 -2.3534538 15.67019093 -2 20 C-1.67 20.66 -1.34 21.32 -1 22 C-0.67676847 24.791545 -0.39034315 27.57797105 -0.125 30.375 C1.04112552 42.54130571 1.04112552 42.54130571 5 54 C4.01 53.67 3.02 53.34 2 53 C0.99867084 50.59027315 0.18491986 48.2999699 -0.5625 45.8125 C-0.77068359 45.15185547 -0.97886719 44.49121094 -1.19335938 43.81054688 C-1.60785338 42.49430102 -2.0166579 41.17624963 -2.41967773 39.85644531 C-2.93237993 38.21631595 -3.49752074 36.59277892 -4.0703125 34.97265625 C-6.41382292 27.4793309 -8.60854717 18.1901588 -5.00390625 10.8515625 C-4.67261719 10.24054688 -4.34132813 9.62953125 -4 9 C-3.26286006 7.33684441 -2.53379252 5.67008949 -1.8125 4 C-1.21067185 2.6656095 -0.60736227 1.33188071 0 0 Z " fill="#BDB9B9" transform="translate(30,56)"/>
<path d="M0 0 C0.99 0 1.98 0 3 0 C3 2.64 3 5.28 3 8 C-2.61508087 10.34812473 -7.86285685 11.94906935 -14 12 C-14.66 11.67 -15.32 11.34 -16 11 C-18.09821215 11.39938767 -18.09821215 11.39938767 -20 12 C-15.53835238 5.37126639 -11.39841859 3.71936302 -3.73046875 1.7265625 C-1.10521016 1.27237636 -1.10521016 1.27237636 0 0 Z " fill="#090909" transform="translate(106,91)"/>
<path d="M0 0 C2.95242537 4.42863806 4.09341827 9.30708321 5.625 14.375 C5.94984375 15.4165625 6.2746875 16.458125 6.609375 17.53125 C6.91617188 18.53929687 7.22296875 19.54734375 7.5390625 20.5859375 C7.95986084 21.96338135 7.95986084 21.96338135 8.38916016 23.36865234 C9.00212826 26.00916801 9.11404591 28.30010018 9 31 C7.35 30.67 5.7 30.34 4 30 C4 30.99 4 31.98 4 33 C3.01 33 2.02 33 1 33 C0.93941406 31.9378125 0.87882812 30.875625 0.81640625 29.78125 C0.20729762 19.36284897 0.20729762 19.36284897 -1 9 C-0.34 9.66 0.32 10.32 1 11 C0.67 7.37 0.34 3.74 0 0 Z " fill="#B9B5B3" transform="translate(114,113)"/>
<path d="M0 0 C6.875 0.875 6.875 0.875 8 2 C11.48944389 2.46130083 14.98411008 2.83723339 18.484375 3.20703125 C22.36162013 4.08156543 24.24926177 5.16002026 27 8 C27 8.99 27 9.98 27 11 C25.68 10.67 24.36 10.34 23 10 C23.33 9.01 23.66 8.02 24 7 C20.85069107 5.95023036 18.61185544 5.89868405 15.3125 5.9375 C14.31863281 5.94652344 13.32476562 5.95554687 12.30078125 5.96484375 C11.54152344 5.97644531 10.78226563 5.98804687 10 6 C11.32 6.66 12.64 7.32 14 8 C14 8.66 14 9.32 14 10 C15.65 9.67 17.3 9.34 19 9 C19 9.66 19 10.32 19 11 C16.2079699 10.8595017 13.41650204 10.71284617 10.625 10.5625 C9.8309375 10.52318359 9.036875 10.48386719 8.21875 10.44335938 C2.2265625 10.11328125 2.2265625 10.11328125 0 9 C0 6.03 0 3.06 0 0 Z " fill="#0B0B0A" transform="translate(54,91)"/>
<path d="M0 0 C4.26964109 1.4232137 5.1876362 4.51938297 7.125 8.3125 C7.66447266 9.32860352 7.66447266 9.32860352 8.21484375 10.36523438 C9.88773684 13.57004641 11.21716533 16.45183361 12 20 C11.34 20 10.68 20 10 20 C9.67 21.32 9.34 22.64 9 24 C8.34 23.67 7.68 23.34 7 23 C7 22.34 7 21.68 7 21 C6.01 20.67 5.02 20.34 4 20 C-0.37808857 13.37032303 -0.46822584 7.80376407 0 0 Z " fill="#EAE7E8" transform="translate(70,17)"/>
<path d="M0 0 C1.45823212 -0.0270043 2.91660675 -0.04639787 4.375 -0.0625 C5.18710938 -0.07410156 5.99921875 -0.08570312 6.8359375 -0.09765625 C9 0 9 0 11 1 C10.30058404 4.14737182 9.23921302 7.02588876 8 10 C7.34 9.01 6.68 8.02 6 7 C6.875 4.3125 6.875 4.3125 8 2 C7.01 2 6.02 2 5 2 C4.34 6.95 3.68 11.9 3 17 C2.34 16.34 1.68 15.68 1 15 C-1.475 18.465 -1.475 18.465 -4 22 C-4.9684759 18.12609641 -5.04960955 17.2425692 -4.00390625 13.671875 C-3.66069336 12.47304687 -3.66069336 12.47304687 -3.31054688 11.25 C-3.06369141 10.425 -2.81683594 9.6 -2.5625 8.75 C-2.31951172 7.90953125 -2.07652344 7.0690625 -1.82617188 6.203125 C-1.22626051 4.13284266 -0.61429181 2.06606103 0 0 Z " fill="#D8D7D4" transform="translate(60,102)"/>
<path d="M0 0 C0.721875 0.144375 1.44375 0.28875 2.1875 0.4375 C3.5796875 0.7159375 3.5796875 0.7159375 5 1 C6.66666667 1.33333333 8.33333333 1.66666667 10 2 C10 3.32 10 4.64 10 6 C12.64 6 15.28 6 18 6 C18 7.32 18 8.64 18 10 C18.88751953 9.67515625 18.88751953 9.67515625 19.79296875 9.34375 C27.89918838 6.48739855 27.89918838 6.48739855 32 7 C32.495 7.495 32.495 7.495 33 8 C35.67058851 8.14115161 38.32432238 8.04247107 41 8 C41.12375 8.639375 41.2475 9.27875 41.375 9.9375 C41.58125 10.618125 41.7875 11.29875 42 12 C42.66 12.33 43.32 12.66 44 13 C42.56163249 12.88541307 41.12429034 12.75790884 39.6875 12.625 C38.88699219 12.55539063 38.08648437 12.48578125 37.26171875 12.4140625 C35 12 35 12 32 10 C27.34184319 10.40595214 27.34184319 10.40595214 23 12 C21.19051505 12.12176503 19.37603729 12.17545792 17.5625 12.1875 C16.59441406 12.20167969 15.62632813 12.21585938 14.62890625 12.23046875 C12 12 12 12 9 10 C10.65 10 12.3 10 14 10 C14 9.34 14 8.68 14 8 C12.35 8 10.7 8 9 8 C9 7.01 9 6.02 9 5 C7.35 5 5.7 5 4 5 C4 4.34 4 3.68 4 3 C2.68 2.34 1.36 1.68 0 1 C0 0.67 0 0.34 0 0 Z " fill="#918E83" transform="translate(54,82)"/>
<path d="M0 0 C0.2990625 0.60457031 0.598125 1.20914063 0.90625 1.83203125 C3.11343733 6.6950557 3.11343733 6.6950557 7 10 C7 10.66 7 11.32 7 12 C8.65 12 10.3 12 12 12 C12 12.99 12 13.98 12 15 C13.65 15 15.3 15 17 15 C17 15.66 17 16.32 17 17 C16.34 17.66 15.68 18.32 15 19 C10.8987522 18.53128597 6.95227751 17.16243456 3 16 C3 18.97 3 21.94 3 25 C6.63 25.33 10.26 25.66 14 26 C14 26.33 14 26.66 14 27 C6.57142857 28.28571429 6.57142857 28.28571429 3 27 C2.67 27.66 2.34 28.32 2 29 C1.36204531 25.17227184 0.94320615 21.57077935 1 17.6875 C1.27485002 14.17702205 1.27485002 14.17702205 0 12 C-0.07065617 9.95944995 -0.08421976 7.91665743 -0.0625 5.875 C-0.05347656 4.77929688 -0.04445312 3.68359375 -0.03515625 2.5546875 C-0.02355469 1.71164063 -0.01195312 0.86859375 0 0 Z " fill="#626059" transform="translate(51,75)"/>
<path d="M0 0 C1.3826954 3.73327758 0.48389664 5.40740813 -1 9 C-2.65201125 15.40744362 -3.28864164 21.73517297 -3.55859375 28.3359375 C-4.05539749 31.33434589 -5.0030759 32.75279475 -7 35 C-8.65 34.34 -10.3 33.68 -12 33 C-11.37131708 29.49279697 -10.47174553 26.25838366 -9.2578125 22.91015625 C-8.91363281 21.96076172 -8.56945312 21.01136719 -8.21484375 20.03320312 C-7.85519531 19.05287109 -7.49554688 18.07253906 -7.125 17.0625 C-6.77308594 16.08603516 -6.42117187 15.10957031 -6.05859375 14.10351562 C-4.28530697 9.2418093 -2.45319849 4.55924625 0 0 Z " fill="#E0DCD9" transform="translate(127,67)"/>
<path d="M0 0 C1.32 0 2.64 0 4 0 C4.66 2.31 5.32 4.62 6 7 C5.21625 6.79375 4.4325 6.5875 3.625 6.375 C2.325625 6.189375 2.325625 6.189375 1 6 C-1.35953094 8.35953094 -1.49141413 9.77895617 -2 13 C-4.66666667 13.66666667 -7.33333333 14.33333333 -10 15 C-11.12148438 15.28037109 -11.12148438 15.28037109 -12.265625 15.56640625 C-12.83796875 15.70949219 -13.4103125 15.85257813 -14 16 C-14 16.66 -14 17.32 -14 18 C-14.94875 18.5775 -15.8975 19.155 -16.875 19.75 C-20.4294113 22.30917613 -21.04949793 23.81779089 -22 28 C-24 26 -24 26 -24.625 23.6875 C-24 21 -24 21 -22.2109375 19.66796875 C-20.74551636 18.81098218 -19.25777489 17.99100159 -17.75 17.2109375 C-17.1725 16.81132812 -16.595 16.41171875 -16 16 C-16 15.01 -16 14.02 -16 13 C-14.89591797 12.5978125 -14.89591797 12.5978125 -13.76953125 12.1875 C-7.53283533 9.68293519 -3.93873909 7.79699534 -1.09765625 1.57421875 C-0.73542969 1.05472656 -0.37320313 0.53523437 0 0 Z " fill="#BFBCBB" transform="translate(69,7)"/>
<path d="M0 0 C2.18857237 1.71279577 2.95048994 2.81902256 3.69140625 5.52734375 C4.1908518 11.1476867 4.00158319 16.75254924 3.87304688 22.38867188 C3.7225325 28.94179248 3.7225325 28.94179248 6 35 C7.90168356 36.45219377 7.90168356 36.45219377 10 37 C10.99 36.505 10.99 36.505 12 36 C11.67 36.99 11.34 37.98 11 39 C9.0625 39.75 9.0625 39.75 7 40 C6.34 39.67 5.68 39.34 5 39 C5 38.34 5 37.68 5 37 C3.68 36.34 2.36 35.68 1 35 C0.28874793 23.31514456 -0.14534014 11.70795574 0 0 Z " fill="#CDCAC9" transform="translate(54,41)"/>
<path d="M0 0 C0.33 0 0.66 0 1 0 C0.979375 1.134375 0.95875 2.26875 0.9375 3.4375 C0.58422523 6.81575674 0.58422523 6.81575674 2 8 C2.15387638 10.95028374 2.23171021 13.86098588 2.25 16.8125 C2.270625 17.63298828 2.29125 18.45347656 2.3125 19.29882812 C2.35175406 25.34885976 2.35175406 25.34885976 0.609375 28.57421875 C-1 30 -1 30 -3 30 C-3 26.7 -3 23.4 -3 20 C-3.66 20.33 -4.32 20.66 -5 21 C-3.29787234 3.29787234 -3.29787234 3.29787234 0 0 Z " fill="#D9D6D5" transform="translate(107,57)"/>
<path d="M0 0 C0.99 0.495 0.99 0.495 2 1 C2 1.66 2 2.32 2 3 C2.99 3.33 3.98 3.66 5 4 C5.33 5.98 5.66 7.96 6 10 C6.66 10 7.32 10 8 10 C8 10.66 8 11.32 8 12 C11.03292954 10.85916824 11.03292954 10.85916824 14 9 C14.67147918 6.55936559 14.67147918 6.55936559 15 4 C17.0625 1.6875 17.0625 1.6875 19 0 C18.44147333 5.4367976 17.06042383 9.9183367 14.9375 14.9375 C14.65583984 15.62134766 14.37417969 16.30519531 14.08398438 17.00976562 C13.3964595 18.67613946 12.69923825 20.33850727 12 22 C8.17435316 18.63101821 6.06856462 14.8900028 3.75 10.4375 C3.38648437 9.76525391 3.02296875 9.09300781 2.6484375 8.40039062 C0 3.38727679 0 3.38727679 0 0 Z " fill="#7E7172" transform="translate(72,15)"/>
<path d="M0 0 C0.33 0 0.66 0 1 0 C1.33 2.64 1.66 5.28 2 8 C2.99 8.33 3.98 8.66 5 9 C5 10.32 5 11.64 5 13 C5.99 13 6.98 13 8 13 C10 16 10 16 10 19 C10.66 19 11.32 19 12 19 C11.67 20.32 11.34 21.64 11 23 C10.67 22.34 10.34 21.68 10 21 C8.88625 21.2475 8.88625 21.2475 7.75 21.5 C5 22 5 22 1 22 C1 19 1 16 1 13 C0.34 13.66 -0.32 14.32 -1 15 C-1.09038099 9.84828377 -0.84681133 5.08086796 0 0 Z " fill="#D8D3D1" transform="translate(118,41)"/>
<path d="M0 0 C3.07544904 1.18167421 6.0400448 2.55549027 9 4 C7.88625 4.86625 7.88625 4.86625 6.75 5.75 C4.33912357 7.72253526 2.15957299 9.76044282 0 12 C-0.66 11.67 -1.32 11.34 -2 11 C-1.01 9.68 -0.02 8.36 1 7 C0.484375 7.4125 -0.03125 7.825 -0.5625 8.25 C-1.366875 8.4975 -2.17125 8.745 -3 9 C-4.75478741 8.05761417 -6.50705473 7.10279103 -8.18359375 6.02734375 C-10.69907053 4.60461172 -13.15117633 4.27793402 -16 4 C-16 3.67 -16 3.34 -16 3 C-15.37351562 2.86722656 -14.74703125 2.73445313 -14.1015625 2.59765625 C-13.28429687 2.42105469 -12.46703125 2.24445313 -11.625 2.0625 C-10.81289062 1.88847656 -10.00078125 1.71445313 -9.1640625 1.53515625 C-2.06699967 -0.21989358 -2.06699967 -0.21989358 0 0 Z " fill="#272725" transform="translate(86,91)"/>
<path d="M0 0 C4.2142655 7.22445514 4.27032622 14.89526829 4.125 23 C4.11597656 23.96550781 4.10695313 24.93101562 4.09765625 25.92578125 C4.07430791 28.28396326 4.03844539 30.6420158 4 33 C6.97 33 9.94 33 13 33 C13 30.36 13 27.72 13 25 C13.33 25 13.66 25 14 25 C14.02688151 26.64574566 14.04634123 28.29161413 14.0625 29.9375 C14.07410156 30.85402344 14.08570312 31.77054688 14.09765625 32.71484375 C14 35 14 35 13 36 C10.66666667 36 8.33333333 36 6 36 C5.01 36.495 5.01 36.495 4 37 C4 36.34 4 35.68 4 35 C3.34 35 2.68 35 2 35 C2 25.76 2 16.52 2 7 C1.34 7 0.68 7 0 7 C0 4.69 0 2.38 0 0 Z " fill="#ABA8A6" transform="translate(90,113)"/>
<path d="M0 0 C7.44830477 0.87627115 14.04751708 6.58243619 19 12 C19 12.99 19 13.98 19 15 C14.30240977 14.51315883 11.90793986 12.60394272 8.375 9.5625 C5.62603916 7.21646903 3.00848981 5.00565987 0 3 C0 2.01 0 1.02 0 0 Z " fill="#83807F" transform="translate(113,100)"/>
<path d="M0 0 C3.7682416 5.65236239 4.55247549 11.37029406 4 18 C3.51273437 18.47824219 3.02546875 18.95648438 2.5234375 19.44921875 C0.53950449 21.46876082 0.51904899 22.77638358 0.3125 25.5625 C0.24675781 26.34753906 0.18101563 27.13257812 0.11328125 27.94140625 C0.0389187 29.29275322 0 30.64660855 0 32 C-0.66 32 -1.32 32 -2 32 C-2.22127098 29.70954632 -2.4266504 27.41755236 -2.625 25.125 C-2.74101563 23.84882812 -2.85703125 22.57265625 -2.9765625 21.2578125 C-2.98816406 19.64519531 -2.98816406 19.64519531 -3 18 C-2.34 17.34 -1.68 16.68 -1 16 C-0.6936141 13.26565038 -0.4886664 10.61720179 -0.375 7.875 C-0.33632812 7.12089844 -0.29765625 6.36679688 -0.2578125 5.58984375 C-0.16348969 3.72696816 -0.08065338 1.86351745 0 0 Z " fill="#8B8985" transform="translate(111,67)"/>
<path d="M0 0 C0.33 0 0.66 0 1 0 C1.08636719 0.58265625 1.17273437 1.1653125 1.26171875 1.765625 C2.3422326 8.07027465 4.308443 13.58331092 6.87890625 19.43359375 C8 22 8 22 9 25 C8.34773438 25.44730469 7.69546875 25.89460938 7.0234375 26.35546875 C1.13807808 30.41174401 1.13807808 30.41174401 -4.4375 34.875 C-7 37 -7 37 -10 38 C-10 37.34 -10 36.68 -10 36 C-8.27734375 34.44921875 -8.27734375 34.44921875 -5.9375 32.6875 C-5.1228125 32.07132813 -4.308125 31.45515625 -3.46875 30.8203125 C-0.33638507 28.51068899 2.81487147 26.23636684 6 24 C5.01 23.67 4.02 23.34 3 23 C2.896875 22.05125 2.79375 21.1025 2.6875 20.125 C2.25134945 16.91571312 1.39279612 14.00947825 0.375 10.9375 C-0.89166568 6.92945158 -1.19613036 4.13208671 0 0 Z " fill="#ABA7A3" transform="translate(44,77)"/>
<path d="M0 0 C0.66 1.32 1.32 2.64 2 4 C2.66 4 3.32 4 4 4 C4 4.99 4 5.98 4 7 C4.99 6.67 5.98 6.34 7 6 C7.66 6.33 8.32 6.66 9 7 C9.33 6.34 9.66 5.68 10 5 C10 5.66 10 6.32 10 7 C12.31 7 14.62 7 17 7 C17.268125 6.38125 17.53625 5.7625 17.8125 5.125 C19 3 19 3 22 1 C22.33 3.31 22.66 5.62 23 8 C24.98 7.67 26.96 7.34 29 7 C28.67 7.66 28.34 8.32 28 9 C26.02 9 24.04 9 22 9 C22 7.68 22 6.36 22 5 C21.34 5.66 20.68 6.32 20 7 C13.95052849 11.03298101 6.86605385 8.75640184 0.125 7.4375 C-0.57625 7.293125 -1.2775 7.14875 -2 7 C-1.34 4.69 -0.68 2.38 0 0 Z " fill="#D3D1CF" transform="translate(67,78)"/>
<path d="M0 0 C0.99 0.33 1.98 0.66 3 1 C3.33 2.65 3.66 4.3 4 6 C4.54527344 6.15855469 5.09054688 6.31710938 5.65234375 6.48046875 C11.56121247 8.30868283 16.69864172 10.82921124 22 14 C22 14.66 22 15.32 22 16 C16 14 16 14 13.73828125 13.1640625 C12.95839844 12.88304687 12.17851563 12.60203125 11.375 12.3125 C10.27285156 11.90451172 10.27285156 11.90451172 9.1484375 11.48828125 C6.68614448 10.75864535 6.68614448 10.75864535 3 12 C2.01 8.04 1.02 4.08 0 0 Z " fill="#C3C0BD" transform="translate(94,10)"/>
<path d="M0 0 C0.33 0 0.66 0 1 0 C1.10823773 2.24893954 1.18569645 4.49937575 1.25 6.75 C1.29640625 8.00296875 1.3428125 9.2559375 1.390625 10.546875 C1 14 1 14 -0.828125 16.453125 C-3 18 -3 18 -6 18 C-4.25 14.125 -4.25 14.125 -2 13 C-1.34444881 10.47266765 -1.34444881 10.47266765 -1 8 C-3.62901288 9.52206009 -5.84365964 10.84365964 -8 13 C-10.68839385 13.26991906 -13.29141936 13.08737357 -16 13 C-16 12.01 -16 11.02 -16 10 C-16.66 9.67 -17.32 9.34 -18 9 C-17.01 8.67 -16.02 8.34 -15 8 C-15 9.32 -15 10.64 -15 12 C-9.29088864 11.28636108 -7.18259279 9.42152653 -3.625 4.875 C-2.95726563 3.96492188 -2.28953125 3.05484375 -1.6015625 2.1171875 C-0.80878906 1.06917969 -0.80878906 1.06917969 0 0 Z " fill="#C3C0BA" transform="translate(104,75)"/>
<path d="M0 0 C0.99 0 1.98 0 3 0 C3.3125 2.1875 3.3125 2.1875 3 5 C0.5 7.8125 0.5 7.8125 -2 10 C-1.34 10.33 -0.68 10.66 0 11 C-1.32 11 -2.64 11 -4 11 C-4.66 10.01 -5.32 9.02 -6 8 C-7.11375 8 -8.2275 8 -9.375 8 C-13.36416099 8 -14.09024839 7.4611115 -17 5 C-16.27554688 5.05800781 -15.55109375 5.11601563 -14.8046875 5.17578125 C-8.11557638 5.63444014 -8.11557638 5.63444014 -2.5 2.5 C-1.675 1.675 -0.85 0.85 0 0 Z " fill="#A5A295" transform="translate(100,83)"/>
<path d="M0 0 C2 3 2 3 3 5 C3.99 4.67 4.98 4.34 6 4 C8.6640625 4.70703125 8.6640625 4.70703125 11.625 5.8125 C12.60726562 6.16957031 13.58953125 6.52664062 14.6015625 6.89453125 C17 8 17 8 18 10 C18.99 10.66 19.98 11.32 21 12 C17.55948821 12.3127738 15.79075598 11.90869352 12.5625 10.5 C8.95102985 8.97938099 6.85404952 8.38685576 3 9 C2.01 10.32 1.02 11.64 0 13 C0 8.71 0 4.42 0 0 Z " fill="#DAD5D2" transform="translate(95,16)"/>
<path d="M0 0 C2.52502236 3.78753354 1.96272877 4.83187553 1.1015625 9.19921875 C0.86953125 10.40771484 0.6375 11.61621094 0.3984375 12.86132812 C0.14320312 14.12396484 -0.11203125 15.38660156 -0.375 16.6875 C-0.6225 17.96173828 -0.87 19.23597656 -1.125 20.54882812 C-1.73901278 23.70154758 -2.36443212 26.85156745 -3 30 C-4.32 30.33 -5.64 30.66 -7 31 C-6.82984375 30.43796875 -6.6596875 29.8759375 -6.484375 29.296875 C-3.7069457 19.66451381 -1.89198183 9.83570386 0 0 Z " fill="#B3B0AD" transform="translate(54,115)"/>
<path d="M0 0 C0.33 0 0.66 0 1 0 C1 2.31 1 4.62 1 7 C1.66 7 2.32 7 3 7 C3.66 5.68 4.32 4.36 5 3 C4.00956295 7.83628305 3.04301154 12.47618873 1 17 C0.01 16.67 -0.98 16.34 -2 16 C-2.05402274 13.89611431 -2.09280256 11.79183286 -2.125 9.6875 C-2.14820312 8.51574219 -2.17140625 7.34398438 -2.1953125 6.13671875 C-2 3 -2 3 0 0 Z " fill="#E3DFE0" transform="translate(130,93)"/>
<path d="M0 0 C1.32 0.33 2.64 0.66 4 1 C3.67 3.97 3.34 6.94 3 10 C1.68 9.67 0.36 9.34 -1 9 C-1.66 10.32 -2.32 11.64 -3 13 C-3.763125 12.835 -4.52625 12.67 -5.3125 12.5 C-8.03596236 11.90854604 -8.03596236 11.90854604 -11 12 C-12.6875 10 -12.6875 10 -14 8 C-13.32453125 8.09539063 -12.6490625 8.19078125 -11.953125 8.2890625 C-11.06109375 8.39992188 -10.1690625 8.51078125 -9.25 8.625 C-8.36828125 8.74101562 -7.4865625 8.85703125 -6.578125 8.9765625 C-3.77140122 9.00207817 -2.36615134 8.44843844 0 7 C0 4.69 0 2.38 0 0 Z " fill="#B4AFAC" transform="translate(89,6)"/>
<path d="M0 0 C3.93243082 5.89864623 5.44895473 11.96637582 5 19 C4.67 19 4.34 19 4 19 C3.67 21.97 3.34 24.94 3 28 C2.67 28 2.34 28 2 28 C0.80343362 21.68027076 -0.27637073 15.39205856 -1 9 C-0.34 9.66 0.32 10.32 1 11 C0.67 7.37 0.34 3.74 0 0 Z " fill="#ABA8A4" transform="translate(114,113)"/>
<path d="M0 0 C2.97 0 5.94 0 9 0 C9.38133299 1.9914056 9.71325582 3.99279077 10 6 C9 7 9 7 5.625 7.1875 C2 7 2 7 -1 5 C-0.67 3.35 -0.34 1.7 0 0 Z " fill="#DFDCDA" transform="translate(77,7)"/>
<path d="M0 0 C-3.33333333 2.66666667 -6.66666667 5.33333333 -10 8 C-10.89332031 8.74765625 -11.78664063 9.4953125 -12.70703125 10.265625 C-15 12 -15 12 -17 12 C-17 12.66 -17 13.32 -17 14 C-17.66 14 -18.32 14 -19 14 C-19 12.68 -19 11.36 -19 10 C-16.94951181 8.07100027 -15.00763789 6.45859358 -12.75 4.8125 C-11.87021484 4.13670898 -11.87021484 4.13670898 -10.97265625 3.44726562 C-3.82256773 -1.91128386 -3.82256773 -1.91128386 0 0 Z " fill="#817D77" transform="translate(51,101)"/>
<path d="M0 0 C0.721875 0.144375 1.44375 0.28875 2.1875 0.4375 C3.5796875 0.7159375 3.5796875 0.7159375 5 1 C6.66666667 1.33333333 8.33333333 1.66666667 10 2 C10 3.32 10 4.64 10 6 C12.31 6.33 14.62 6.66 17 7 C17 8.65 17 10.3 17 12 C14.36 11.67 11.72 11.34 9 11 C9 10.67 9 10.34 9 10 C10.65 10 12.3 10 14 10 C14 9.34 14 8.68 14 8 C12.35 8 10.7 8 9 8 C9 7.01 9 6.02 9 5 C7.35 5 5.7 5 4 5 C4 4.34 4 3.68 4 3 C2.68 2.34 1.36 1.68 0 1 C0 0.67 0 0.34 0 0 Z " fill="#79766C" transform="translate(54,82)"/>
<path d="M0 0 C0.66 0 1.32 0 2 0 C-0.00834918 8.44419541 -2.37173829 16.72831339 -5 25 C-6.5625 23.21484375 -6.5625 23.21484375 -8 21 C-7.16861023 18.14209766 -6.19543531 15.70768211 -5 13 C-4.09526384 10.67010423 -3.19983974 8.33657656 -2.3125 6 C-1.5419965 3.99987291 -0.77127569 1.99982945 0 0 Z " fill="#AEAAAA" transform="translate(138,89)"/>
<path d="M0 0 C0 3 0 3 -1.5 4.6875 C-1.995 5.120625 -2.49 5.55375 -3 6 C-2.05125 5.79375 -1.1025 5.5875 -0.125 5.375 C1.421875 5.189375 1.421875 5.189375 3 5 C3.66 5.66 4.32 6.32 5 7 C4.625 9.125 4.625 9.125 4 11 C2.68 10.67 1.36 10.34 0 10 C0 9.34 0 8.68 0 8 C-0.886875 8.20625 -1.77375 8.4125 -2.6875 8.625 C-6.2252711 9.02550239 -7.86632967 8.56683516 -11 7 C-9.68 6.67 -8.36 6.34 -7 6 C-6.67 4.68 -6.34 3.36 -6 2 C-5.67 2.66 -5.34 3.32 -5 4 C-3.35 2.68 -1.7 1.36 0 0 Z " fill="#171716" transform="translate(88,96)"/>
<path d="M0 0 C0 1.98 0 3.96 0 6 C-0.66 6 -1.32 6 -2 6 C-1.97679687 6.75925781 -1.95359375 7.51851562 -1.9296875 8.30078125 C-1.90261719 9.79158203 -1.90261719 9.79158203 -1.875 11.3125 C-1.85179687 12.29863281 -1.82859375 13.28476563 -1.8046875 14.30078125 C-2 17 -2 17 -4 20 C-4.99 20 -5.98 20 -7 20 C-7 21.65 -7 23.3 -7 25 C-7.66 24.67 -8.32 24.34 -9 24 C-9.59355614 21.35139573 -9.74209269 18.70802678 -10 16 C-8.35 16.33 -6.7 16.66 -5 17 C-5 16.34 -5 15.68 -5 15 C-4.34 15 -3.68 15 -3 15 C-3.10699219 14.16855469 -3.21398438 13.33710937 -3.32421875 12.48046875 C-3.44410156 11.39378906 -3.56398438 10.30710937 -3.6875 9.1875 C-3.81511719 8.10855469 -3.94273438 7.02960937 -4.07421875 5.91796875 C-4 3 -4 3 -2.58203125 1.11328125 C-1 0 -1 0 0 0 Z " fill="#BFBAB3" transform="translate(48,51)"/>
<path d="M0 0 C1.13696461 3.33559815 0.85790684 5.07110422 -0.4375 8.3125 C-2.62935486 14.41766649 -2.23241028 19.68389732 -1 26 C-6.49295775 20.92957746 -6.49295775 20.92957746 -7 17 C-5.11585789 11.14924292 -2.54859553 5.58879833 0 0 Z " fill="#D7D1D0" transform="translate(30,56)"/>
<path d="M0 0 C2 1 2 1 2.88671875 3.36328125 C3.15097656 4.33652344 3.41523437 5.30976562 3.6875 6.3125 C3.95949219 7.27800781 4.23148438 8.24351563 4.51171875 9.23828125 C5.00083055 12.00469759 4.8875349 13.38795109 4 16 C3.65939189 17.66519519 3.32441604 19.33157466 3 21 C2.67 21 2.34 21 2 21 C1.67 23.64 1.34 26.28 1 29 C0.67 29 0.34 29 0 29 C0 25.37 0 21.74 0 18 C0.66 18 1.32 18 2 18 C1.855625 17.28714844 1.71125 16.57429688 1.5625 15.83984375 C0.5202768 10.46226157 -0.2433952 5.47639208 0 0 Z " fill="#9D9A95" transform="translate(46,39)"/>
<path d="M0 0 C1.125 3.75 1.125 3.75 0 6 C0.42177186 8.27581067 1.02689626 10.47552478 1.625 12.7109375 C2.02547531 15.15550553 1.76663021 16.66816645 1 19 C-1.76685105 14.18808512 -2.44945382 10.4137041 -3 5 C-3.33 4.67 -3.66 4.34 -4 4 C-4.66 5.32 -5.32 6.64 -6 8 C-6 6.35 -6 4.7 -6 3 C-6.99 2.67 -7.98 2.34 -9 2 C-2.25 0 -2.25 0 0 0 Z " fill="#878480" transform="translate(110,99)"/>
<path d="M0 0 C1.65 0 3.3 0 5 0 C5.33 0.99 5.66 1.98 6 3 C6.99 3.33 7.98 3.66 9 4 C9 4.66 9 5.32 9 6 C10.65 5.67 12.3 5.34 14 5 C14 5.66 14 6.32 14 7 C8.39 6.67 2.78 6.34 -3 6 C-2.01 5.67 -1.02 5.34 0 5 C0 3.35 0 1.7 0 0 Z " fill="#161616" transform="translate(59,95)"/>
<path d="M0 0 C0.99 0.495 0.99 0.495 2 1 C2 1.66 2 2.32 2 3 C2.99 3.33 3.98 3.66 5 4 C5.33 5.98 5.66 7.96 6 10 C6.66 10 7.32 10 8 10 C8 10.66 8 11.32 8 12 C10.31 11.01 12.62 10.02 15 9 C14.67 10.32 14.34 11.64 14 13 C8.375 14.125 8.375 14.125 5 13 C3.61328125 10.8203125 3.61328125 10.8203125 2.3125 8.125 C1.87550781 7.24070312 1.43851562 6.35640625 0.98828125 5.4453125 C0 3 0 3 0 0 Z " fill="#8F8583" transform="translate(72,15)"/>
<path d="M0 0 C0.66 2.31 1.32 4.62 2 7 C0.824375 6.690625 0.824375 6.690625 -0.375 6.375 C-1.674375 6.189375 -1.674375 6.189375 -3 6 C-5.35953094 8.35953094 -5.49141413 9.77895617 -6 13 C-6.66 12.67 -7.32 12.34 -8 12 C-7 0 -7 0 0 0 Z " fill="#B4B0AD" transform="translate(73,7)"/>
<path d="M0 0 C-0.33 1.98 -0.66 3.96 -1 6 C-3.31 6.33 -5.62 6.66 -8 7 C-8.66 5.35 -9.32 3.7 -10 2 C-6.49223216 0.39644899 -3.85645121 -0.22036864 0 0 Z " fill="#20201F" transform="translate(102,96)"/>
<path d="M0 0 C0.33 1.98 0.66 3.96 1 6 C-0.32 5.67 -1.64 5.34 -3 5 C-2.67 4.01 -2.34 3.02 -2 2 C-4.64 2.33 -7.28 2.66 -10 3 C-9.67 4.65 -9.34 6.3 -9 8 C-9.5775 7.814375 -10.155 7.62875 -10.75 7.4375 C-13.22488597 6.95627217 -14.60985476 7.32212267 -17 8 C-12.33788181 1.81690708 -8.25297585 -2.42734584 0 0 Z " fill="#101010" transform="translate(103,95)"/>
<path d="M0 0 C1.49017573 2.35092706 2.09871552 3.4756304 1.57421875 6.26171875 C1.28160156 7.06222656 0.98898438 7.86273438 0.6875 8.6875 C-0.93262292 13.51202533 -1.59143564 17.93380199 -2 23 C-2.99 22.67 -3.98 22.34 -5 22 C-4.38955672 14.36945905 -2.20378179 7.29810526 0 0 Z " fill="#A7A4A1" transform="translate(46,121)"/>
<path d="M0 0 C0.144375 0.598125 0.28875 1.19625 0.4375 1.8125 C0.8872439 3.56150404 1.42892341 5.28677023 2 7 C1.67 7.66 1.34 8.32 1 9 C0.34 9 -0.32 9 -1 9 C-1 10.98 -1 12.96 -1 15 C-2.90401138 13.09598862 -3.93520439 11.66574314 -4.19921875 8.953125 C-4.1886578 6.96766727 -4.09915043 4.9830086 -4 3 C-3.01 2.67 -2.02 2.34 -1 2 C-0.67 1.34 -0.34 0.68 0 0 Z " fill="#908D84" transform="translate(45,68)"/>
<path d="M0 0 C2.67053989 0.363378 3.77260595 0.74591911 5.59765625 2.78515625 C13 14.29333333 13 14.29333333 13 21 C12.34 21 11.68 21 11 21 C10.18667257 18.89615302 9.37436583 16.79191143 8.5625 14.6875 C8.11003906 13.51574219 7.65757813 12.34398437 7.19140625 11.13671875 C6.42015245 9.10617185 5.68687358 7.06062074 5 5 C4.34 5 3.68 5 3 5 C3 4.01 3 3.02 3 2 C2.01 1.67 1.02 1.34 0 1 C0 0.67 0 0.34 0 0 Z " fill="#BFBCBC" transform="translate(117,26)"/>
<path d="M0 0 C2.31 0 4.62 0 7 0 C7.66 2.97 8.32 5.94 9 9 C8.01 9.495 8.01 9.495 7 10 C7 8.68 7 7.36 7 6 C4.69 5.34 2.38 4.68 0 4 C0 2.68 0 1.36 0 0 Z " fill="#A5A3A1" transform="translate(81,104)"/>
<path d="M0 0 C0.33 0.99 0.66 1.98 1 3 C0.67 3.66 0.34 4.32 0 5 C0.94875 4.175 1.8975 3.35 2.875 2.5 C5.75 0 5.75 0 8 0 C8 0.99 8 1.98 8 3 C8.66 3 9.32 3 10 3 C9.67 4.32 9.34 5.64 9 7 C8.67 6.34 8.34 5.68 8 5 C7.2575 5.165 6.515 5.33 5.75 5.5 C3 6 3 6 -1 6 C-1.042721 4.33388095 -1.04063832 2.66617115 -1 1 C-0.67 0.67 -0.34 0.34 0 0 Z " fill="#D0CBC7" transform="translate(120,57)"/>
<path d="M0 0 C2.1385485 2.1385485 2.42655063 3.13275314 3 6 C2.34 6 1.68 6 1 6 C1 9.3 1 12.6 1 16 C-1.0625 13.9375 -1.0625 13.9375 -3 11 C-2.8544437 6.85164553 -2.1403119 3.56718651 0 0 Z " fill="#D3CFCF" transform="translate(69,11)"/>
<path d="M0 0 C0.33 0 0.66 0 1 0 C1 3.3 1 6.6 1 10 C0.34 10 -0.32 10 -1 10 C-1 10.66 -1 11.32 -1 12 C-2.98 12.33 -4.96 12.66 -7 13 C-9.09230769 8.56923077 -9.09230769 8.56923077 -8.625 5.6875 C-8.41875 5.130625 -8.2125 4.57375 -8 4 C-7.01 5.65 -6.02 7.3 -5 9 C-2.93597032 8.51294288 -2.93597032 8.51294288 -1 7 C-0.18129815 3.43793339 -0.18129815 3.43793339 0 0 Z " fill="#D9D4CD" transform="translate(44,56)"/>
<path d="M0 0 C0.33 0 0.66 0 1 0 C1.125 2.875 1.125 2.875 1 6 C0.34 6.66 -0.32 7.32 -1 8 C-1.46110069 10.13432323 -1.46110069 10.13432323 -1.625 12.5 C-1.69976562 13.2940625 -1.77453125 14.088125 -1.8515625 14.90625 C-1.94812655 16.2683114 -2 17.63451992 -2 19 C-2.66 19 -3.32 19 -4 19 C-4.33 14.71 -4.66 10.42 -5 6 C-4.01 5.67 -3.02 5.34 -2 5 C-0.78130071 2.49552484 -0.78130071 2.49552484 0 0 Z " fill="#5B5A55" transform="translate(113,80)"/>
<path d="M0 0 C1.468763 4.54359189 -0.08075489 7.844688 -1.75 12.125 C-2.01554687 12.85332031 -2.28109375 13.58164063 -2.5546875 14.33203125 C-3.95903446 18.02014632 -4.64113277 19.76075518 -8 22 C-5.88530212 14.47039391 -3.50667619 7.01335237 0 0 Z " fill="#CFCAC7" transform="translate(127,67)"/>
<path d="M0 0 C0.33 0 0.66 0 1 0 C1.33 4.62 1.66 9.24 2 14 C0.02 14.99 0.02 14.99 -2 16 C-2.625 13.625 -2.625 13.625 -3 11 C-2.34 10.34 -1.68 9.68 -1 9 C-0.53993654 6.79749008 -0.53993654 6.79749008 -0.375 4.375 C-0.30023438 3.55773438 -0.22546875 2.74046875 -0.1484375 1.8984375 C-0.09945312 1.27195313 -0.05046875 0.64546875 0 0 Z " fill="#D4CFCD" transform="translate(45,39)"/>
<path d="M0 0 C0.33 0 0.66 0 1 0 C1.51580179 14.18454936 1.51580179 14.18454936 -2.57421875 18.76171875 C-3.04472656 19.17035156 -3.51523437 19.57898438 -4 20 C-3.34034961 13.13963599 -1.7637236 6.65556077 0 0 Z " fill="#C1C0BE" transform="translate(59,104)"/>
<path d="M0 0 C4.51707932 0.5314211 7.38687577 2.29015683 11 5 C11.33 5.66 11.66 6.32 12 7 C7.61110675 6.33501617 4.0188515 4.81242323 0 3 C0 2.01 0 1.02 0 0 Z " fill="#5A5555" transform="translate(113,100)"/>
<path d="M0 0 C0.99 0 1.98 0 3 0 C3 0.66 3 1.32 3 2 C3.99 2 4.98 2 6 2 C5.67 3.98 5.34 5.96 5 8 C4.01 8 3.02 8 2 8 C1.67 6.68 1.34 5.36 1 4 C0.01 4.66 -0.98 5.32 -2 6 C-1.49396008 3.83125748 -1.00016187 2.00032373 0 0 Z " fill="#DDD9D8" transform="translate(112,34)"/>
<path d="M0 0 C2.21097244 2.21097244 2.65010463 3.55740552 3.5625 6.5 C4.27516518 8.77462048 4.93369925 10.86739849 6 13 C5.34 13 4.68 13 4 13 C3.67 13.99 3.34 14.98 3 16 C0.89424625 10.47239641 -0.37851209 5.93002267 0 0 Z " fill="#969494" transform="translate(28,98)"/>
<path d="M0 0 C0.33 0 0.66 0 1 0 C1.05441656 1.89551022 1.09298035 3.7914792 1.125 5.6875 C1.14820313 6.74324219 1.17140625 7.79898438 1.1953125 8.88671875 C0.99858729 12.02251859 0.33057654 14.17645373 -1 17 C-1.66 17 -2.32 17 -3 17 C-2.86722656 16.27554688 -2.73445312 15.55109375 -2.59765625 14.8046875 C-1.69718291 9.87508895 -0.80218034 4.94677877 0 0 Z " fill="#BAB5B6" transform="translate(141,72)"/>
<path d="M0 0 C0.33 0.66 0.66 1.32 1 2 C1.99 2.33 2.98 2.66 4 3 C3.95875 3.78375 3.9175 4.5675 3.875 5.375 C3.71271266 8.16116119 3.71271266 8.16116119 6 10 C4.35 9.67 2.7 9.34 1 9 C0.67 7.02 0.34 5.04 0 3 C-0.99 2.67 -1.98 2.34 -3 2 C-2.01 1.34 -1.02 0.68 0 0 Z " fill="#D2CFCD" transform="translate(73,4)"/>
<path d="M0 0 C0 0.99 0 1.98 0 3 C-1.57421875 4.46484375 -1.57421875 4.46484375 -3.6875 5.9375 C-4.78191406 6.71480469 -4.78191406 6.71480469 -5.8984375 7.5078125 C-6.93871094 8.24644531 -6.93871094 8.24644531 -8 9 C-8.928125 9.763125 -9.85625 10.52625 -10.8125 11.3125 C-13 13 -13 13 -16 14 C-16 13.34 -16 12.68 -16 12 C-14.27734375 10.44921875 -14.27734375 10.44921875 -11.9375 8.6875 C-10.71546875 7.76324219 -10.71546875 7.76324219 -9.46875 6.8203125 C-6.33638507 4.51068899 -3.18512853 2.23636684 0 0 Z " fill="#A19F9D" transform="translate(50,101)"/>
<path d="M0 0 C0.33 0 0.66 0 1 0 C1.33 4.62 1.66 9.24 2 14 C1.67 14 1.34 14 1 14 C0.67 15.98 0.34 17.96 0 20 C-0.33 20 -0.66 20 -1 20 C-1.02712351 17.60408962 -1.0468982 15.20849043 -1.0625 12.8125 C-1.07087891 12.13896484 -1.07925781 11.46542969 -1.08789062 10.77148438 C-1.10606538 7.04565869 -0.89299392 3.6211958 0 0 Z " fill="#908D88" transform="translate(51,65)"/>
<path d="M0 0 C2.74515677 2.38333095 3.89080018 4.68909319 5.1875 8.0625 C5.53167969 8.94035156 5.87585938 9.81820312 6.23046875 10.72265625 C7 13 7 13 7 15 C6.34 15 5.68 15 5 15 C4.16013916 13.06532058 3.32831973 11.12714871 2.5 9.1875 C2.0359375 8.10855469 1.571875 7.02960937 1.09375 5.91796875 C0 3 0 3 0 0 Z " fill="#BCB8B9" transform="translate(132,49)"/>
<path d="M0 0 C0.99 0 1.98 0 3 0 C4.32229189 2.64458379 4.09677194 4.67761301 4.0625 7.625 C4.05347656 8.62789062 4.04445313 9.63078125 4.03515625 10.6640625 C4.02355469 11.43492188 4.01195312 12.20578125 4 13 C3.67 13 3.34 13 3 13 C2.87625 12.21625 2.7525 11.4325 2.625 10.625 C2.20882007 7.85942178 2.20882007 7.85942178 0 6 C-0.125 2.875 -0.125 2.875 0 0 Z " fill="#9E9B99" transform="translate(51,55)"/>
<path d="M0 0 C0.33 0 0.66 0 1 0 C1.33 2.97 1.66 5.94 2 9 C2.99 8.34 3.98 7.68 5 7 C5.99 7.33 6.98 7.66 8 8 C8 8.99 8 9.98 8 11 C6.35 10.67 4.7 10.34 3 10 C3 10.99 3 11.98 3 13 C2.01 13 1.02 13 0 13 C0 8.71 0 4.42 0 0 Z " fill="#C1BEBC" transform="translate(115,133)"/>
<path d="M0 0 C2.41215354 3.61823031 2.0629945 4.43710222 1.25 8.5625 C0.97929688 10.01849609 0.97929688 10.01849609 0.703125 11.50390625 C0 14 0 14 -2 16 C-2.20674944 10.21101581 -1.59162079 5.57067277 0 0 Z " fill="#A5A19E" transform="translate(54,115)"/>
<path d="M0 0 C0.53625 0.2475 1.0725 0.495 1.625 0.75 C0.201875 1.554375 0.201875 1.554375 -1.25 2.375 C-4.74239592 5.0292209 -5.42235876 6.55837855 -6.375 10.75 C-8.375 8.75 -8.375 8.75 -8.875 6.375 C-8.375 3.75 -8.375 3.75 -5.625 1.375 C-2.375 -0.25 -2.375 -0.25 0 0 Z " fill="#CFCCC8" transform="translate(53.375,24.25)"/>
<path d="M0 0 C0.66 0 1.32 0 2 0 C2 1.65 2 3.3 2 5 C0.03533587 6.06775224 -1.96855359 7.06553465 -4 8 C-4.66 7.67 -5.32 7.34 -6 7 C-5.04882866 5.8274869 -4.08882991 4.66212985 -3.125 3.5 C-2.59132813 2.8503125 -2.05765625 2.200625 -1.5078125 1.53125 C-0.76144531 0.77328125 -0.76144531 0.77328125 0 0 Z " fill="#837F71" transform="translate(106,86)"/>
<path d="M0 0 C5.75 1.625 5.75 1.625 8 5 C8.07905064 7.33199388 8.08798769 9.66832622 8 12 C6.47700477 9.06279492 5.19899698 6.0831351 4 3 C2.68 3.33 1.36 3.66 0 4 C0 2.68 0 1.36 0 0 Z " fill="#D1CDCB" transform="translate(82,108)"/>
<path d="M0 0 C0.66 0 1.32 0 2 0 C2.36552803 1.41377782 2.71695495 2.83120576 3.0625 4.25 C3.25972656 5.03890625 3.45695312 5.8278125 3.66015625 6.640625 C4.01497267 9.10394822 3.76877544 10.65604132 3 13 C0.33409063 8.44573816 -0.31563182 5.26053037 0 0 Z " fill="#989691" transform="translate(108,105)"/>
<path d="M0 0 C-7.11389522 5.55580866 -7.11389522 5.55580866 -12 6 C-4.43243243 -2.21621622 -4.43243243 -2.21621622 0 0 Z " fill="#5B5554" transform="translate(51,101)"/>
<path d="M0 0 C0.33 0 0.66 0 1 0 C1.33 4.95 1.66 9.9 2 15 C1.01 15.33 0.02 15.66 -1 16 C-1 12.7 -1 9.4 -1 6 C-1.99 6.495 -1.99 6.495 -3 7 C-2.38722388 4.03824877 -1.74627478 2.61941217 0 0 Z " fill="#CFCDCB" transform="translate(105,71)"/>
<path d="M0 0 C0.33 1.32 0.66 2.64 1 4 C0.01 3.67 -0.98 3.34 -2 3 C-2.66 4.98 -3.32 6.96 -4 9 C-5.32 9 -6.64 9 -8 9 C-6.4169423 4.7257442 -3.49431596 2.73468206 0 0 Z " fill="#C2BDB7" transform="translate(128,61)"/>
<path d="M0 0 C2 1 2 1 2.8515625 3.28515625 C3.10679688 4.20167969 3.36203125 5.11820313 3.625 6.0625 C3.88539062 6.98160156 4.14578125 7.90070312 4.4140625 8.84765625 C4.60742188 9.55792969 4.80078125 10.26820312 5 11 C3.68 11.33 2.36 11.66 1 12 C0.01751476 7.9472484 -0.08159574 4.16138263 0 0 Z " fill="#ABA7A6" transform="translate(46,39)"/>
<path d="M0 0 C1.04255319 5.21276596 1.04255319 5.21276596 1 8 C-0.75 10.5 -0.75 10.5 -3 12 C-3.99 12 -4.98 12 -6 12 C-4.25 8.125 -4.25 8.125 -2 7 C-1.34444881 4.47266765 -1.34444881 4.47266765 -1 2 C-1.66 1.67 -2.32 1.34 -3 1 C-1 0 -1 0 0 0 Z " fill="#BBB8AE" transform="translate(104,81)"/>
<path d="M0 0 C0.33 0 0.66 0 1 0 C1.144375 1.093125 1.28875 2.18625 1.4375 3.3125 C1.88288104 6.93122987 1.88288104 6.93122987 3 10 C3.99 10.33 4.98 10.66 6 11 C4.02 11.99 4.02 11.99 2 13 C-0.20914 9.68629 -0.22481553 8.6553979 -0.125 4.8125 C-0.10695313 3.91144531 -0.08890625 3.01039062 -0.0703125 2.08203125 C-0.04710938 1.39496094 -0.02390625 0.70789062 0 0 Z " fill="#B3AFA5" transform="translate(117,60)"/>
<path d="M0 0 C0.99 0 1.98 0 3 0 C3 0.66 3 1.32 3 2 C2.525625 2.391875 2.05125 2.78375 1.5625 3.1875 C-0.33604879 5.0591537 -0.33604879 5.0591537 -0.5 8.5625 C-0.665 9.696875 -0.83 10.83125 -1 12 C-1.99 12.66 -2.98 13.32 -4 14 C-3.71715982 12.22773547 -3.42339502 10.457212 -3.125 8.6875 C-2.96257813 7.70136719 -2.80015625 6.71523438 -2.6328125 5.69921875 C-2 3 -2 3 0 0 Z " fill="#C1BDBE" transform="translate(35,41)"/>
<path d="M0 0 C2.97 0.495 2.97 0.495 6 1 C5.30058404 4.14737182 4.23921302 7.02588876 3 10 C2.34 9.01 1.68 8.02 1 7 C1.875 3.8125 1.875 3.8125 3 1 C2.01 0.67 1.02 0.34 0 0 Z " fill="#B3B1AF" transform="translate(65,102)"/>
<path d="M0 0 C0.99 0.66 1.98 1.32 3 2 C2.67 3.32 2.34 4.64 2 6 C0.68 5.67 -0.64 5.34 -2 5 C-2 4.34 -2 3.68 -2 3 C-2.66 2.67 -3.32 2.34 -4 2 C-2.68 1.34 -1.36 0.68 0 0 Z " fill="#272726" transform="translate(90,101)"/>
<path d="M0 0 C0.33 1.32 0.66 2.64 1 4 C2.98 3.67 4.96 3.34 7 3 C5.35 4.98 3.7 6.96 2 9 C1.34 8.67 0.68 8.34 0 8 C0 5.36 0 2.72 0 0 Z " fill="#C0BBB5" transform="translate(118,59)"/>
<path d="M0 0 C1.98 0 3.96 0 6 0 C6.33 3.3 6.66 6.6 7 10 C3.68987756 6.68987756 3.49648935 5.46840411 3 1 C2.01 0.67 1.02 0.34 0 0 Z " fill="#B8B5B0" transform="translate(98,102)"/>
<path d="M0 0 C0.99 0 1.98 0 3 0 C3 3.63 3 7.26 3 11 C-1.13333333 4.8 -1.13333333 4.8 -0.625 1.75 C-0.41875 1.1725 -0.2125 0.595 0 0 Z " fill="#BFBAB0" transform="translate(95,103)"/>
<path d="M0 0 C0.99 0 1.98 0 3 0 C3.33 2.31 3.66 4.62 4 7 C3.01 6.34 2.02 5.68 1 5 C0.34 5 -0.32 5 -1 5 C-1 6.32 -1 7.64 -1 9 C-1.66 9 -2.32 9 -3 9 C-2.01 6.03 -1.02 3.06 0 0 Z " fill="#474644" transform="translate(71,103)"/>
<path d="M0 0 C0.99 0.33 1.98 0.66 3 1 C3.73046875 2.84765625 3.73046875 2.84765625 4.1875 5.0625 C4.34605469 5.79597656 4.50460938 6.52945312 4.66796875 7.28515625 C4.83232422 8.13400391 4.83232422 8.13400391 5 9 C4.01 9 3.02 9 2 9 C1.34 6.03 0.68 3.06 0 0 Z " fill="#B6B3B0" transform="translate(94,10)"/>
<path d="M0 0 C0.33 0 0.66 0 1 0 C1.103125 0.928125 1.20625 1.85625 1.3125 2.8125 C1.69646542 5.99011748 1.69646542 5.99011748 3.625 7.625 C4.07875 8.07875 4.5325 8.5325 5 9 C4.6875 11.1875 4.6875 11.1875 4 13 C3.731875 12.38125 3.46375 11.7625 3.1875 11.125 C2.04443152 8.7004767 2.04443152 8.7004767 -1 7 C-0.67 4.69 -0.34 2.38 0 0 Z " fill="#CCC7C6" transform="translate(24,69)"/>
<path d="M0 0 C0.66 0 1.32 0 2 0 C2.67154933 1.28913487 3.33708859 2.58140204 4 3.875 C4.37125 4.59429687 4.7425 5.31359375 5.125 6.0546875 C6 8 6 8 6 10 C5.34 10 4.68 10 4 10 C4 9.01 4 8.02 4 7 C3.34 7 2.68 7 2 7 C0 4 0 4 0 0 Z " fill="#B8B4B0" transform="translate(107,112)"/>
<path d="M0 0 C2.97 0.33 5.94 0.66 9 1 C5.81237635 3.12508244 3.73487777 3.5020163 0 4 C0 2.68 0 1.36 0 0 Z " fill="#A2A19A" transform="translate(72,88)"/>
<path d="M0 0 C0.99 0 1.98 0 3 0 C3 0.99 3 1.98 3 3 C4.98 3 6.96 3 9 3 C9 3.33 9 3.66 9 4 C4.71 4 0.42 4 -4 4 C-2.68 2.68 -1.36 1.36 0 0 Z " fill="#B3B1A9" transform="translate(85,85)"/>
<path d="M0 0 C0.721875 0.144375 1.44375 0.28875 2.1875 0.4375 C3.5796875 0.7159375 3.5796875 0.7159375 5 1 C6.66666667 1.33333333 8.33333333 1.66666667 10 2 C10 2.66 10 3.32 10 4 C7.25 4.25 7.25 4.25 4 4 C1.625 2 1.625 2 0 0 Z " fill="#8F8D86" transform="translate(54,82)"/>
<path d="M0 0 C1.25955231 3.77865693 0.48087189 5.03411786 -0.9375 8.6875 C-1.31777344 9.68136719 -1.69804688 10.67523438 -2.08984375 11.69921875 C-2.39019531 12.45847656 -2.69054687 13.21773437 -3 14 C-4.16516703 10.60548006 -3.83093313 8.65924103 -2.625 5.3125 C-2.34914063 4.52488281 -2.07328125 3.73726562 -1.7890625 2.92578125 C-1 1 -1 1 0 0 Z " fill="#D2CED1" transform="translate(77,46)"/>
<path d="M0 0 C1.2077558 3.62326739 0.54311128 4.64146369 -1 8 C-1.99 7.67 -2.98 7.34 -4 7 C-3.34 5.35 -2.68 3.7 -2 2 C-1.34 2 -0.68 2 0 2 C0 1.34 0 0.68 0 0 Z " fill="#D6D2D2" transform="translate(132,102)"/>
<path d="M0 0 C0.66 0 1.32 0 2 0 C1.44271087 3.34373475 0.64826111 6.03312999 -1 9 C-1.66 8.01 -2.32 7.02 -3 6 C-2.01 4.02 -1.02 2.04 0 0 Z " fill="#98928D" transform="translate(126,64)"/>
<path d="M0 0 C-0.99 1.485 -0.99 1.485 -2 3 C-2.99 2.34 -3.98 1.68 -5 1 C-6.9896995 0.60986284 -8.99019869 0.26797351 -11 0 C-11 -0.33 -11 -0.66 -11 -1 C-3.57142857 -2.42857143 -3.57142857 -2.42857143 0 0 Z " fill="#393834" transform="translate(81,95)"/>
<path d="M0 0 C2 4 2 4 3 7 C2.0625 9.6875 2.0625 9.6875 1 12 C0.67 12 0.34 12 0 12 C0 8.04 0 4.08 0 0 Z " fill="#717069" transform="translate(51,75)"/>
<path d="M0 0 C1.6415049 3.2830098 0.51888624 6.42545033 0 10 C-0.33 10 -0.66 10 -1 10 C-1.103125 9.21625 -1.20625 8.4325 -1.3125 7.625 C-1.77595022 4.66954819 -1.77595022 4.66954819 -5 3 C-3.35 2.01 -1.7 1.02 0 0 Z " fill="#928F86" transform="translate(117,58)"/>
<path d="M0 0 C2.59482129 2.59482129 2.69990302 4.39883625 3 8 C2.34 8.66 1.68 9.32 1 10 C-0.60725635 6.78548731 -0.05748185 3.56387464 0 0 Z " fill="#B1AFAC" transform="translate(120,133)"/>
<path d="M0 0 C2 3 2 3 1.625 5.6875 C1.41875 6.450625 1.2125 7.21375 1 8 C-0.74627478 5.38058783 -1.38722388 3.96175123 -2 1 C-1.34 0.67 -0.68 0.34 0 0 Z " fill="#8B8983" transform="translate(114,117)"/>
<path d="M0 0 C2.6855594 2.6855594 3.06049974 5.37621328 4 9 C3.01 8.67 2.02 8.34 1 8 C-0.35439668 5.29120665 -0.06501451 2.99066732 0 0 Z " fill="#D8D2CE" transform="translate(44,88)"/>
<path d="M0 0 C0.66 1.32 1.32 2.64 2 4 C2.66 4 3.32 4 4 4 C4 4.66 4 5.32 4 6 C2.35 6 0.7 6 -1 6 C-0.67 4.02 -0.34 2.04 0 0 Z " fill="#D7D4D0" transform="translate(67,78)"/>
<path d="M0 0 C1.1875 1.625 1.1875 1.625 2 4 C0.625 7.25 0.625 7.25 -1 10 C-1.99 9.67 -2.98 9.34 -4 9 C-3.525625 8.62875 -3.05125 8.2575 -2.5625 7.875 C-0.47794198 5.37353038 -0.35378509 3.18406582 0 0 Z " fill="#78766D" transform="translate(112,76)"/>
<path d="M0 0 C0.33 0.99 0.66 1.98 1 3 C1.99 2.67 2.98 2.34 4 2 C4.99 3.485 4.99 3.485 6 5 C5.34 5.66 4.68 6.32 4 7 C2 5.75 2 5.75 0 4 C0 2.68 0 1.36 0 0 Z " fill="#D6D1D2" transform="translate(127,44)"/>
<path d="M0 0 C0.625 1.8125 0.625 1.8125 1 4 C-1 7 -1 7 -3 8 C-3.33 7.01 -3.66 6.02 -4 5 C-2.0625 2.3125 -2.0625 2.3125 0 0 Z " fill="#8D8483" transform="translate(90,15)"/>
<path d="M0 0 C0.66 0 1.32 0 2 0 C1.625 2.9375 1.625 2.9375 1 6 C0.01 6.495 0.01 6.495 -1 7 C-1.625 4.625 -1.625 4.625 -2 2 C-1.34 1.34 -0.68 0.68 0 0 Z " fill="#2A2928" transform="translate(75,100)"/>
<path d="M0 0 C1.32 0 2.64 0 4 0 C4.66 1.65 5.32 3.3 6 5 C5.34 5 4.68 5 4 5 C4 4.34 4 3.68 4 3 C2.68 3.33 1.36 3.66 0 4 C0 2.68 0 1.36 0 0 Z " fill="#B4B1AC" transform="translate(47,97)"/>
<path d="M0 0 C4.21878192 -0.19622241 7.17010894 0.19769832 11 2 C11 2.33 11 2.66 11 3 C9.54077307 2.88590407 8.08259402 2.75834456 6.625 2.625 C5.40683594 2.52058594 5.40683594 2.52058594 4.1640625 2.4140625 C2 2 2 2 0 0 Z " fill="#7C786D" transform="translate(87,92)"/>
</svg>
