<?xml version="1.0" encoding="UTF-8"?>
<svg version="1.1" xmlns="http://www.w3.org/2000/svg" width="160" height="160">
<path d="M0 0 C1.15238678 1.01342954 2.29953012 2.0329082 3.4375 3.0625 C4.4275 3.7225 5.4175 4.3825 6.4375 5.0625 C8.49146726 4.65320014 8.49146726 4.65320014 10.4375 4.0625 C11.0975 4.3925 11.7575 4.7225 12.4375 5.0625 C12.4375 5.7225 12.4375 6.3825 12.4375 7.0625 C15.02172459 6.94831333 17.60429513 6.82157638 20.1875 6.6875 C20.91710937 6.6565625 21.64671875 6.625625 22.3984375 6.59375 C26.17692656 6.3876506 29.21696668 6.14737157 32.4375 4.0625 C34.64133093 5.80133101 35.37841818 6.67801407 35.8117218 9.49781799 C35.81109238 10.46219284 35.81046295 11.42656769 35.80981445 12.42016602 C35.81604324 13.5146254 35.82227203 14.60908478 35.82868958 15.73670959 C35.81487495 17.50865944 35.81487495 17.50865944 35.80078125 19.31640625 C35.80152901 21.13409767 35.80152901 21.13409767 35.80229187 22.98851013 C35.79994998 25.55152017 35.79021478 28.11453245 35.77368164 30.67749023 C35.75007394 34.61267529 35.753122 38.54718396 35.75976562 42.48242188 C35.75418965 44.96875406 35.74708029 47.45508338 35.73828125 49.94140625 C35.73919266 51.12473038 35.74010406 52.3080545 35.74104309 53.52723694 C35.73151108 54.61854416 35.72197906 55.70985138 35.7121582 56.83422852 C35.70755081 57.79780777 35.70294342 58.76138702 35.69819641 59.75416565 C35.4375 62.0625 35.4375 62.0625 33.4375 64.0625 C30.8125 64.1875 30.8125 64.1875 28.4375 64.0625 C28.4375 63.4025 28.4375 62.7425 28.4375 62.0625 C23.1575 62.0625 17.8775 62.0625 12.4375 62.0625 C12.4375 62.7225 12.4375 63.3825 12.4375 64.0625 C10.0943787 63.80688677 7.75906597 63.46979228 5.4375 63.0625 C5.1075 62.4025 4.7775 61.7425 4.4375 61.0625 C3.509375 61.701875 2.58125 62.34125 1.625 63 C-6.78365413 68.44089385 -17.73049536 66.42547317 -27.109375 64.51953125 C-33.04471331 63.4137437 -38.87259035 63.65571696 -44.59375 65.68359375 C-47.98620682 68.05965974 -48.55746446 71.56832059 -49.68359375 75.40625 C-50.87440768 79.00515433 -52.61143883 80.7291028 -55.5625 83.0625 C-56.531875 83.92875 -57.50125 84.795 -58.5 85.6875 C-65.43107382 90.43377881 -74.62162415 91.66074946 -82.8125 90.625 C-88.85885774 89.31267468 -93.58512971 86.6674017 -98.5625 83.0625 C-99.18769531 82.62035156 -99.81289062 82.17820312 -100.45703125 81.72265625 C-112.1535016 72.61366693 -119.58684521 57.32018286 -122.5625 43.0625 C-123.49335005 33.88563489 -122.95658876 26.22099503 -118.5625 18.0625 C-118.13839844 17.23234375 -117.71429688 16.4021875 -117.27734375 15.546875 C-109.63687926 1.67059967 -96.81107486 -7.56325672 -81.734375 -12.0703125 C-80.68765625 -12.35648438 -79.6409375 -12.64265625 -78.5625 -12.9375 C-76.71398437 -13.45957031 -76.71398437 -13.45957031 -74.828125 -13.9921875 C-71.08775094 -15.03366749 -67.32650405 -15.98501063 -63.5625 -16.9375 C-62.26892578 -17.31648438 -62.26892578 -17.31648438 -60.94921875 -17.703125 C-41.90551078 -22.69609717 -14.91788277 -11.68975076 0 0 Z " fill="#A22223" transform="translate(123.5625,47.9375)"/>
<path d="M0 0 C0 0.66 0 1.32 0 2 C-11.18809451 1.1491255 -11.18809451 1.1491255 -15.0625 0.4375 C-22.87243367 -0.72568161 -31.4181337 -1.05457753 -38.203125 3.46875 C-40.17873141 4.93318552 -42.10420986 6.43412659 -44 8 C-44.66 7.67 -45.32 7.34 -46 7 C-46 6.67 -46 6.34 -46 6 C-47.14926266 6.95421808 -48.29430541 7.91352045 -49.4375 8.875 C-50.39462891 9.67550781 -50.39462891 9.67550781 -51.37109375 10.4921875 C-53.10805004 11.9222757 -53.10805004 11.9222757 -54 14 C-53.31164063 13.67902344 -52.62328125 13.35804687 -51.9140625 13.02734375 C-47.63964798 11.52041209 -43.45963323 11.60097097 -38.9609375 11.44140625 C-36.01801376 11.23173098 -36.01801376 11.23173098 -34.08203125 9.6328125 C-32.71319802 7.94838995 -32.71319802 7.94838995 -33.3125 5.3125 C-33.6528125 4.1678125 -33.6528125 4.1678125 -34 3 C-29.90698372 0.27132248 -26.80646328 0.49444212 -22 1 C-18.59762752 1.8175145 -15.30097052 2.84224833 -12 4 C-12 4.66 -12 5.32 -12 6 C-12.53109375 6.23074219 -13.0621875 6.46148437 -13.609375 6.69921875 C-21.15260518 10.18176845 -25.08561663 15.2716798 -28 23 C-28.62529693 25.8216524 -29.10716043 28.62257451 -29.5078125 31.484375 C-30.00411796 34.02104735 -30.63325641 35.81321026 -32 38 C-36.41168532 40.87272532 -39.78318741 41.62961531 -45 41 C-49.81563404 39.23818267 -53.63283855 36.92835502 -57 33 C-58.1490712 34.9254644 -58.1490712 34.9254644 -58 37 C-55.91304836 40.87454547 -53.44266475 44.44966004 -50.6875 47.875 C-49 50 -49 50 -49 52 C-47.88625 52.185625 -47.88625 52.185625 -46.75 52.375 C-44 53 -44 53 -42.1875 54.0625 C-37.94772662 55.87954574 -33.32669774 55.44223258 -29 54 C-28.01 53.01 -28.01 53.01 -27 52 C-26.34 52.66 -25.68 53.32 -25 54 C-25.0234375 56.8203125 -25.0234375 56.8203125 -25.375 60.125 C-25.48585938 61.22070312 -25.59671875 62.31640625 -25.7109375 63.4453125 C-25.80632812 64.28835937 -25.90171875 65.13140625 -26 66 C-26.66 66 -27.32 66 -28 66 C-28.37125 67.36125 -28.37125 67.36125 -28.75 68.75 C-30.03981342 72.10351489 -31.31971042 73.67708236 -34 76 C-34.99 75.67 -35.98 75.34 -37 75 C-39.06885803 75.59972979 -39.06885803 75.59972979 -41.125 76.6875 C-41.82882813 77.02136719 -42.53265625 77.35523437 -43.2578125 77.69921875 C-45.43703303 79.32630493 -45.57486851 80.37144312 -46 83 C-46.33 83.66 -46.66 84.32 -47 85 C-51.36414001 85.85571373 -55.56076733 86.10827397 -60 86 C-59.67 86.99 -59.34 87.98 -59 89 C-65.94937945 88.85522126 -69.20306131 85.79693869 -74 81 C-75.0828125 79.8553125 -75.0828125 79.8553125 -76.1875 78.6875 C-78.30015514 76.72054522 -80.28015391 75.90661536 -83 75 C-81.16974789 79.66714289 -79.3502463 83.18765077 -76 87 C-76.33 87.66 -76.66 88.32 -77 89 C-87.13792728 78.37931428 -93.05747561 63.97480825 -93.5 49.3125 C-93.29781138 42.74810954 -92.10185921 37.75921523 -89 32 C-88.57589844 31.16984375 -88.15179688 30.3396875 -87.71484375 29.484375 C-80.07437926 15.60809967 -67.24857486 6.37424328 -52.171875 1.8671875 C-51.12515625 1.58101562 -50.0784375 1.29484375 -49 1 C-47.15148438 0.47792969 -47.15148438 0.47792969 -45.265625 -0.0546875 C-41.52525094 -1.09616749 -37.76400405 -2.04751063 -34 -3 C-32.70642578 -3.37898438 -32.70642578 -3.37898438 -31.38671875 -3.765625 C-21.29134694 -6.41247879 -9.373557 -4.29621363 0 0 Z " fill="#E95455" transform="translate(94,34)"/>
<path d="M0 0 C4.93601109 0.69104155 9.2300528 2.62370229 13.75 4.625 C14.55187744 4.97965332 15.35375488 5.33430664 16.17993164 5.69970703 C22.14724106 8.4252979 27.08658507 11.64037524 32 16 C32.99 16.66 33.98 17.32 35 18 C37.05396726 17.59070014 37.05396726 17.59070014 39 17 C39.66 17.33 40.32 17.66 41 18 C41 18.66 41 19.32 41 20 C43.58422459 19.88581333 46.16679513 19.75907638 48.75 19.625 C49.47960937 19.5940625 50.20921875 19.563125 50.9609375 19.53125 C54.73942656 19.3251506 57.77946668 19.08487157 61 17 C63.20383093 18.73883101 63.94091818 19.61551407 64.3742218 22.43531799 C64.37359238 23.39969284 64.37296295 24.36406769 64.37231445 25.35766602 C64.38165764 26.99935509 64.38165764 26.99935509 64.39118958 28.67420959 C64.38197983 29.85550949 64.37277008 31.03680939 64.36328125 32.25390625 C64.36402901 34.07159767 64.36402901 34.07159767 64.36479187 35.92601013 C64.36244998 38.48902017 64.35271478 41.05203245 64.33618164 43.61499023 C64.31257394 47.55017529 64.315622 51.48468396 64.32226562 55.41992188 C64.31668965 57.90625406 64.30958029 60.39258338 64.30078125 62.87890625 C64.30169266 64.06223038 64.30260406 65.2455545 64.30354309 66.46473694 C64.29401108 67.55604416 64.28447906 68.64735138 64.2746582 69.77172852 C64.26774712 71.2170974 64.26774712 71.2170974 64.26069641 72.69166565 C64 75 64 75 62 77 C59.375 77.125 59.375 77.125 57 77 C57 76.34 57 75.68 57 75 C51.72 75 46.44 75 41 75 C41 75.66 41 76.32 41 77 C38.6568787 76.74438677 36.32156597 76.40729228 34 76 C33.67 75.34 33.34 74.68 33 74 C32.071875 74.639375 31.14375 75.27875 30.1875 75.9375 C21.85329026 81.33022395 11.04345091 79.4112072 1.75390625 77.4453125 C-3.14183799 76.65366024 -8.0564598 76.84470554 -13 77 C-9.32059741 74.54706494 -7.43692571 74.7620082 -3.0625 74.8125 C-1.83660156 74.81894531 -0.61070313 74.82539062 0.65234375 74.83203125 C4 75 4 75 5.9519043 75.49560547 C9.54910337 76.38150525 13.1865709 76.26780983 16.875 76.3125 C17.66519531 76.34150391 18.45539063 76.37050781 19.26953125 76.40039062 C24.76771429 76.45985517 27.50644046 75.40035028 32 72 C32.99 72 33.98 72 35 72 C35.08544714 64.88267473 35.10033625 57.76765572 35.06713867 50.64990234 C35.06406438 48.23092394 35.07689525 45.81186924 35.10620117 43.39306641 C35.14564246 39.90645686 35.12709268 36.42412699 35.09765625 32.9375 C35.12223404 31.86322754 35.14681183 30.78895508 35.1721344 29.68212891 C35.08662415 25.17050054 34.92004708 22.17688115 32.08566284 18.55126953 C27.70830515 14.530808 23.49328526 12.08547905 17.90625 10.140625 C14.06404791 8.63266396 10.50064435 6.71413933 6.875 4.75 C6.19872559 4.38390625 5.52245117 4.0178125 4.82568359 3.640625 C3.21489393 2.76450144 1.60711679 1.88284282 0 1 C0 0.67 0 0.34 0 0 Z " fill="#A5989A" transform="translate(95,35)"/>
<path d="M0 0 C0.828125 2.1640625 0.828125 2.1640625 1.25 4.625 C1.39953125 5.44226562 1.5490625 6.25953125 1.703125 7.1015625 C1.80109375 7.72804688 1.8990625 8.35453125 2 9 C2.66 8.67 3.32 8.34 4 8 C5.58783869 12.18703959 6.52412233 15.4902771 5.01953125 19.82421875 C3.76731154 22.28305912 2.45732993 24.65751331 1 27 C1.33 27 1.66 27 2 27 C2.495 32.445 2.495 32.445 3 38 C0 35 0 35 -1 31 C-3.97 30.67 -6.94 30.34 -10 30 C-7 28 -7 28 -5 27 C-6.65 26.67 -8.3 26.34 -10 26 C-10 25.34 -10 24.68 -10 24 C-10.804375 23.731875 -11.60875 23.46375 -12.4375 23.1875 C-13.283125 22.795625 -14.12875 22.40375 -15 22 C-15.495 20.515 -15.495 20.515 -16 19 C-19.3 19 -22.6 19 -26 19 C-26.2475 19.66 -26.495 20.32 -26.75 21 C-27.75612943 23.41471064 -28.80322813 25.76953887 -29.9375 28.125 C-30.41509766 29.11886719 -30.41509766 29.11886719 -30.90234375 30.1328125 C-32.53962141 32.9179325 -34.05495431 34.66645446 -37.125 35.75 C-37.74375 35.8325 -38.3625 35.915 -39 36 C-39.495 35.505 -39.495 35.505 -40 35 C-43.4660368 34.96786456 -46.9218885 35.06868766 -50.38671875 35.16015625 C-53.97879758 35.00093978 -56.66931796 34.30464504 -60 33 C-58.9444312 36.06114953 -58.09081252 36.94633805 -55.25 38.625 C-49.10662495 41.22412021 -43.61239405 42.44162006 -37 43 C-37 45.31 -37 47.62 -37 50 C-37.66 48.68 -38.32 47.36 -39 46 C-39.99 46.495 -39.99 46.495 -41 47 C-46.54498712 47.36360571 -49.34578785 47.23209177 -54 44 C-54.96873047 43.814375 -54.96873047 43.814375 -55.95703125 43.625 C-59.92469411 42.41118345 -61.76650833 38.29895837 -64 35 C-64.5053125 34.28457031 -65.010625 33.56914063 -65.53125 32.83203125 C-65.9953125 32.14496094 -66.459375 31.45789063 -66.9375 30.75 C-67.35902344 30.12609375 -67.78054687 29.5021875 -68.21484375 28.859375 C-69.20305947 26.51912285 -68.83664534 25.3488428 -68 23 C-67.67 23.33 -67.34 23.66 -67 24 C-66.67 23.34 -66.34 22.68 -66 22 C-65.319375 22.928125 -64.63875 23.85625 -63.9375 24.8125 C-60.24188382 29.21600886 -56.14263147 30.81204987 -50.4375 31.3125 C-46.81685277 30.98335025 -44.21885459 30.72171292 -41 29 C-39.67887229 25.82929349 -39.16062921 23.00351857 -38.62109375 19.6328125 C-37.46206501 12.92924089 -35.87856417 5.93176264 -30.17578125 1.62109375 C-28.14955454 0.54229721 -26.17199673 -0.26111513 -24 -1 C-22.7625 -1.433125 -21.525 -1.86625 -20.25 -2.3125 C-14.1392618 -3.6825663 -5.24582981 -3.79130427 0 0 Z " fill="#C52A2B" transform="translate(103,43)"/>
<path d="M0 0 C0.66 0 1.32 0 2 0 C2.495 3.465 2.495 3.465 3 7 C3.58410645 6.69602295 4.16821289 6.3920459 4.77001953 6.07885742 C11.98561386 2.7118161 17.15750652 2.9241417 24.875 4.3125 C33.19687245 5.72453384 40.60153722 6.06216401 49 5 C47.41842464 6.88038978 46.52936275 7.90220554 44.07055664 8.35644531 C43.35762451 8.34709961 42.64469238 8.33775391 41.91015625 8.328125 C40.73356445 8.32039063 40.73356445 8.32039063 39.53320312 8.3125 C38.71787109 8.291875 37.90253906 8.27125 37.0625 8.25 C36.25103516 8.24484375 35.43957031 8.2396875 34.60351562 8.234375 C28.61727851 8.15580257 28.61727851 8.15580257 25.99291992 7.4934082 C23.87947013 6.97015915 22.0643243 6.88587633 19.890625 6.90234375 C18.75947266 6.90717773 18.75947266 6.90717773 17.60546875 6.91210938 C16.43951172 6.92467773 16.43951172 6.92467773 15.25 6.9375 C14.45722656 6.94201172 13.66445312 6.94652344 12.84765625 6.95117188 C10.89840492 6.96291435 8.94919262 6.98084854 7 7 C7 7.66 7 8.32 7 9 C6.21625 9.22042969 5.4325 9.44085938 4.625 9.66796875 C1.8142908 10.76305588 1.8142908 10.76305588 0.8125 13.42578125 C0.544375 14.37839844 0.27625 15.33101562 0 16.3125 C-1.56327724 21.08952646 -2.97021111 23.8136553 -7 27 C-7.969375 27.86625 -8.93875 28.7325 -9.9375 29.625 C-16.86857382 34.37127881 -26.05912415 35.59824946 -34.25 34.5625 C-42.89190604 32.68682665 -51.00193962 27.49494112 -57 21 C-58.125 18.5625 -58.125 18.5625 -59 16 C-60.27078062 14.19972746 -61.6010455 12.46747774 -62.9765625 10.74609375 C-64 9 -64 9 -64 5 C-57.37909744 6.48970308 -52.94196816 10.81348536 -48.44921875 15.6796875 C-44.03620778 19.7001665 -34.54440484 18.09023444 -29 18 C-29 18.66 -29 19.32 -29 20 C-28.46375 19.690625 -27.9275 19.38125 -27.375 19.0625 C-24.60124647 17.82161026 -21.98966629 17.49827771 -19 17 C-14.46690751 15.35160273 -11.67810966 11.76097927 -8.41796875 8.33984375 C-6.97942694 6.85930072 -5.49248294 5.42615036 -4 4 C-3.34 4 -2.68 4 -2 4 C-1.34 2.68 -0.68 1.36 0 0 Z " fill="#891B1C" transform="translate(75,104)"/>
<path d="M0 0 C5.51475514 0.08842902 10.33609042 1.466677 15.5 3.3125 C15.5 3.9725 15.5 4.6325 15.5 5.3125 C14.96890625 5.54324219 14.4378125 5.77398437 13.890625 6.01171875 C6.34739482 9.49426845 2.41438337 14.5841798 -0.5 22.3125 C-1.12529693 25.1341524 -1.60716043 27.93507451 -2.0078125 30.796875 C-2.50411796 33.33354735 -3.13325641 35.12571026 -4.5 37.3125 C-8.91168532 40.18522532 -12.28318741 40.94211531 -17.5 40.3125 C-22.31563404 38.55068267 -26.13283855 36.24085502 -29.5 32.3125 C-29.83 32.9725 -30.16 33.6325 -30.5 34.3125 C-32.71066083 30.99650876 -32.82275195 29.69975511 -32.875 25.8125 C-32.90335938 24.8534375 -32.93171875 23.894375 -32.9609375 22.90625 C-32.5 20.3125 -32.5 20.3125 -30.66796875 18.5703125 C-24.64471887 15.0757423 -19.98941368 13.94496202 -13.05078125 13.62109375 C-10.43933613 13.30516088 -8.7560781 12.62810526 -6.5 11.3125 C-6.83 10.3225 -7.16 9.3325 -7.5 8.3125 C-6.84 7.9825 -6.18 7.6525 -5.5 7.3125 C-5.70625 6.52875 -5.9125 5.745 -6.125 4.9375 C-6.24875 4.07125 -6.3725 3.205 -6.5 2.3125 C-4.0600981 -0.1274019 -3.35505859 0.01592591 0 0 Z " fill="#EA5456" transform="translate(66.5,34.6875)"/>
<path d="M0 0 C0 0.66 0 1.32 0 2 C-11.18809451 1.1491255 -11.18809451 1.1491255 -15.0625 0.4375 C-22.87243367 -0.72568161 -31.4181337 -1.05457753 -38.203125 3.46875 C-40.17873141 4.93318552 -42.10420986 6.43412659 -44 8 C-44.66 7.67 -45.32 7.34 -46 7 C-46 6.67 -46 6.34 -46 6 C-49.15336286 6.96352754 -50.71390144 7.60793901 -52.6875 10.3125 C-55.09503184 13.11044241 -56.5806801 13.88295377 -59.875 15.375 C-66.12879186 18.28974665 -69.25088307 22.3763246 -73 28 C-73.66 28 -74.32 28 -75 28 C-74.67 26.35 -74.34 24.7 -74 23 C-77.97100631 26.42788661 -79.89946377 30.29602996 -82.125 34.9375 C-82.47175781 35.64068359 -82.81851563 36.34386719 -83.17578125 37.06835938 C-84.1385329 39.03628276 -85.07537918 41.01392512 -86 43 C-86.40476562 43.86882812 -86.80953125 44.73765625 -87.2265625 45.6328125 C-89.39661525 52.2744891 -88.42029887 59.59332651 -86 66 C-85.54870057 68.99047862 -85.25443831 71.98691477 -85 75 C-84.34 75 -83.68 75 -83 75 C-82.5875 76.051875 -82.175 77.10375 -81.75 78.1875 C-80.30588622 81.58704057 -78.44808942 84.21424307 -76 87 C-76.33 87.66 -76.66 88.32 -77 89 C-87.13792728 78.37931428 -93.05747561 63.97480825 -93.5 49.3125 C-93.29781138 42.74810954 -92.10185921 37.75921523 -89 32 C-88.57589844 31.16984375 -88.15179688 30.3396875 -87.71484375 29.484375 C-80.07437926 15.60809967 -67.24857486 6.37424328 -52.171875 1.8671875 C-51.12515625 1.58101562 -50.0784375 1.29484375 -49 1 C-47.15148438 0.47792969 -47.15148438 0.47792969 -45.265625 -0.0546875 C-41.52525094 -1.09616749 -37.76400405 -2.04751063 -34 -3 C-32.70642578 -3.37898438 -32.70642578 -3.37898438 -31.38671875 -3.765625 C-21.29134694 -6.41247879 -9.373557 -4.29621363 0 0 Z " fill="#B13A3C" transform="translate(94,34)"/>
<path d="M0 0 C3.71467911 1.6884905 5.84357907 3.56124878 8 7 C8.35644531 9.36254883 8.35644531 9.36254883 8.328125 11.95703125 C8.32296875 12.90513672 8.3178125 13.85324219 8.3125 14.83007812 C8.291875 15.81427734 8.27125 16.79847656 8.25 17.8125 C8.24484375 18.78509766 8.2396875 19.75769531 8.234375 20.75976562 C8.08099119 34.91900881 8.08099119 34.91900881 6 37 C4.65732587 37.08631874 3.31025678 37.10706473 1.96484375 37.09765625 C1.15595703 37.09443359 0.34707031 37.09121094 -0.48632812 37.08789062 C-1.33646484 37.07951172 -2.18660156 37.07113281 -3.0625 37.0625 C-3.91650391 37.05798828 -4.77050781 37.05347656 -5.65039062 37.04882812 C-7.76695663 37.03700373 -9.88348685 37.01906769 -12 37 C-12.24304738 32.8383869 -12.4577288 28.67653245 -12.64697266 24.51220703 C-12.71515851 23.09775445 -12.79089442 21.6836438 -12.87451172 20.27001953 C-12.99383992 18.22993856 -13.08536129 16.19014221 -13.171875 14.1484375 C-13.2347168 12.92302246 -13.29755859 11.69760742 -13.36230469 10.43505859 C-12.92478902 6.28691472 -11.59902627 4.21546968 -9 1 C-5.93570224 -0.53214888 -3.3834358 -0.22938548 0 0 Z " fill="#CB4F4B" transform="translate(146,71)"/>
<path d="M0 0 C0.66 0.33 1.32 0.66 2 1 C0.02 3.31 -1.96 5.62 -4 8 C-3.31164063 7.68417969 -2.62328125 7.36835937 -1.9140625 7.04296875 C1.34188789 5.8776353 4.17958576 5.55407502 7.625 5.3125 C8.75164063 5.22613281 9.87828125 5.13976563 11.0390625 5.05078125 C14 5 14 5 17 6 C16.0409375 6.4640625 16.0409375 6.4640625 15.0625 6.9375 C13.06389179 7.8345163 13.06389179 7.8345163 12 9 C10.35556443 9.10744044 8.70917244 9.18533404 7.0625 9.25 C1.1138504 9.79432088 -4.5361841 10.76486319 -9 15 C-10.12991764 18.71931223 -10.23002088 22.13700225 -10 26 C-13.00617269 22.99382731 -12.59585316 20.17618402 -13 16 C-18.15168392 18.39548073 -18.15168392 18.39548073 -21.4375 22.75 C-21.623125 23.4925 -21.80875 24.235 -22 25 C-22.66 25 -23.32 25 -24 25 C-24.99 27.475 -24.99 27.475 -26 30 C-26.33 28.68 -26.66 27.36 -27 26 C-32.89465688 40.99979653 -34.14927024 53.04921755 -32 69 C-32.99 69 -33.98 69 -35 69 C-40.04841412 52.50250385 -40.11228772 41.47905023 -32 26 C-29.93800515 22.38140119 -27.65889501 19.20901121 -25 16 C-24.34 16.33 -23.68 16.66 -23 17 C-23.99 19.475 -23.99 19.475 -25 22 C-22.5300062 19.62500596 -20.32729119 17.1675681 -18.1875 14.5 C-15.15691489 10.92329422 -12.23662113 8.9984062 -8 7 C-7.01 7 -6.02 7 -5 7 C-4.731875 6.401875 -4.46375 5.80375 -4.1875 5.1875 C-3.01506533 3.02775192 -1.80630718 1.64209744 0 0 Z " fill="#C14A4B" transform="translate(44,40)"/>
<path d="M0 0 C1.13055826 3.39167479 0.7231605 5.54489981 0 9 C0.04125 10.11375 0.0825 11.2275 0.125 12.375 C-0.03795388 17.10066256 -1.30426285 20.93841868 -4.33984375 24.62890625 C-8.85488815 28.35780174 -16.44567662 28.41919422 -22 28 C-25.4375 27 -25.4375 27 -28 26 C-26.9444312 29.06114953 -26.09081252 29.94633805 -23.25 31.625 C-17.10662495 34.22412021 -11.61239405 35.44162006 -5 36 C-5 38.31 -5 40.62 -5 43 C-5.66 41.68 -6.32 40.36 -7 39 C-7.99 39.495 -7.99 39.495 -9 40 C-14.54498712 40.36360571 -17.34578785 40.23209177 -22 37 C-22.96873047 36.814375 -22.96873047 36.814375 -23.95703125 36.625 C-27.92469411 35.41118345 -29.76650833 31.29895837 -32 28 C-32.5053125 27.28457031 -33.010625 26.56914063 -33.53125 25.83203125 C-33.9953125 25.14496094 -34.459375 24.45789063 -34.9375 23.75 C-35.35902344 23.12609375 -35.78054687 22.5021875 -36.21484375 21.859375 C-37.20305947 19.51912285 -36.83664534 18.3488428 -36 16 C-35.67 16.33 -35.34 16.66 -35 17 C-34.67 16.34 -34.34 15.68 -34 15 C-33.319375 15.928125 -32.63875 16.85625 -31.9375 17.8125 C-28.24188382 22.21600886 -24.14263147 23.81204987 -18.4375 24.3125 C-14.81685277 23.98335025 -12.21885459 23.72171292 -9 22 C-7.95282678 19.48678428 -7.44163945 17.63543544 -7 15 C-6.67160289 13.22824462 -6.33810501 11.45742848 -6 9.6875 C-5.855625 8.84574219 -5.71125 8.00398438 -5.5625 7.13671875 C-4.73139433 3.9796715 -2.26423645 2.26423645 0 0 Z " fill="#C64343" transform="translate(71,50)"/>
<path d="M0 0 C0.66 0 1.32 0 2 0 C2.495 3.465 2.495 3.465 3 7 C3.58410645 6.69602295 4.16821289 6.3920459 4.77001953 6.07885742 C11.98561386 2.7118161 17.15750652 2.9241417 24.875 4.3125 C33.19687245 5.72453384 40.60153722 6.06216401 49 5 C47.41842464 6.88038978 46.52936275 7.90220554 44.07055664 8.35644531 C43.35762451 8.34709961 42.64469238 8.33775391 41.91015625 8.328125 C40.73356445 8.32039063 40.73356445 8.32039063 39.53320312 8.3125 C38.71787109 8.291875 37.90253906 8.27125 37.0625 8.25 C36.25103516 8.24484375 35.43957031 8.2396875 34.60351562 8.234375 C28.61727851 8.15580257 28.61727851 8.15580257 25.99291992 7.4934082 C23.87947013 6.97015915 22.0643243 6.88587633 19.890625 6.90234375 C18.75947266 6.90717773 18.75947266 6.90717773 17.60546875 6.91210938 C16.82816406 6.92048828 16.05085938 6.92886719 15.25 6.9375 C14.45722656 6.94201172 13.66445312 6.94652344 12.84765625 6.95117188 C10.89840492 6.96291435 8.94919262 6.98084854 7 7 C7 7.66 7 8.32 7 9 C5.824375 9.33064453 5.824375 9.33064453 4.625 9.66796875 C1.8142908 10.76305588 1.8142908 10.76305588 0.8125 13.42578125 C0.544375 14.37839844 0.27625 15.33101562 0 16.3125 C-1.56327724 21.08952646 -2.97021111 23.8136553 -7 27 C-7.969375 27.86625 -8.93875 28.7325 -9.9375 29.625 C-17.10098178 34.53042774 -26.34446352 35.58698568 -34.75 34.3125 C-39.65058236 33.34941764 -39.65058236 33.34941764 -42 31 C-36.06 31.33 -30.12 31.66 -24 32 C-24 31.34 -24 30.68 -24 30 C-23.01 30 -22.02 30 -21 30 C-20.67 29.01 -20.34 28.02 -20 27 C-18.80375 26.443125 -17.6075 25.88625 -16.375 25.3125 C-11.37315955 22.96028314 -8.04623714 19.58716997 -5 15 C-4.09533679 11.99032674 -4.09533679 11.99032674 -4 9 C-2.33333333 2.33333333 -2.33333333 2.33333333 0 0 Z " fill="#8D3B3B" transform="translate(75,104)"/>
<path d="M0 0 C-1.03640625 0.54269531 -2.0728125 1.08539063 -3.140625 1.64453125 C-4.51051236 2.36700609 -5.88029873 3.08967243 -7.25 3.8125 C-7.93191406 4.16892578 -8.61382813 4.52535156 -9.31640625 4.89257812 C-12.75596018 6.71253627 -15.97226196 8.52630681 -19 11 C-18.67 11.66 -18.34 12.32 -18 13 C-19.4540625 13.61875 -19.4540625 13.61875 -20.9375 14.25 C-24.10267872 15.62618293 -24.10267872 15.62618293 -24.75 18 C-24.8325 18.66 -24.915 19.32 -25 20 C-25.66 20.99 -26.32 21.98 -27 23 C-25.68 22.67 -24.36 22.34 -23 22 C-23.55429687 23.09699219 -24.10859375 24.19398437 -24.6796875 25.32421875 C-25.41156558 26.77859187 -26.14333045 28.23302196 -26.875 29.6875 C-27.23980469 30.40873047 -27.60460938 31.12996094 -27.98046875 31.87304688 C-32.38271886 40.63752663 -34.96384455 48.32292854 -32.0625 58.1875 C-31.5365625 59.5796875 -31.5365625 59.5796875 -31 61 C-30.54870057 63.99047862 -30.25443831 66.98691477 -30 70 C-29.34 70 -28.68 70 -28 70 C-27.5875 71.051875 -27.175 72.10375 -26.75 73.1875 C-25.30588622 76.58704057 -23.44808942 79.21424307 -21 82 C-21.33 82.66 -21.66 83.32 -22 84 C-32.13792728 73.37931428 -38.05747561 58.97480825 -38.5 44.3125 C-38.29781138 37.74810954 -37.10185921 32.75921523 -34 27 C-33.57589844 26.16984375 -33.15179688 25.3396875 -32.71484375 24.484375 C-27.87924068 15.70216553 -11.74592628 -3.91530876 0 0 Z " fill="#B8686A" transform="translate(39,39)"/>
<path d="M0 0 C2.475 0.495 2.475 0.495 5 1 C5 2.65 5 4.3 5 6 C3.35 5.34 1.7 4.68 0 4 C0 8.29 0 12.58 0 17 C-1.65 16.34 -3.3 15.68 -5 15 C-7.92654527 14.02448491 -9.94654996 13.83521912 -13 13.8125 C-13.86625 13.79832031 -14.7325 13.78414062 -15.625 13.76953125 C-18.26721537 13.83744062 -18.26721537 13.83744062 -21 16 C-20.67 11.38 -20.34 6.76 -20 2 C-13.4 2.33 -6.8 2.66 0 3 C0 2.01 0 1.02 0 0 Z " fill="#902D2D" transform="translate(154,54)"/>
<path d="M0 0 C6.03295618 0.08593955 9.38559107 1.57393129 13.953125 5.546875 C17.86354385 10.35891325 16.91476798 16.50150605 16.75 22.375 C16.74419922 23.55449219 16.73839844 24.73398438 16.73242188 25.94921875 C16.59761118 35.42910677 16.59761118 35.42910677 14.3125 39.25 C13.9825 39.25 13.6525 39.25 13.3125 39.25 C13.3031543 38.42798096 13.29380859 37.60596191 13.28417969 36.7590332 C13.23042129 33.02625038 13.14678169 29.29471319 13.0625 25.5625 C13.04832031 24.26892578 13.03414062 22.97535156 13.01953125 21.64257812 C12.98730469 20.39541016 12.95507812 19.14824219 12.921875 17.86328125 C12.90092773 16.71641846 12.87998047 15.56955566 12.85839844 14.38793945 C12.20242187 10.61724767 10.99835171 8.93554664 8.3125 6.25 C4.71985548 5.05245183 2.08532526 4.91905042 -1.6875 5.25 C-4.05247439 7.11708505 -5.34780715 8.57061431 -6.6875 11.25 C-6.83873831 12.7695764 -6.93631693 14.29472502 -7.00390625 15.8203125 C-7.04580078 16.71621094 -7.08769531 17.61210938 -7.13085938 18.53515625 C-7.18983398 19.94087891 -7.18983398 19.94087891 -7.25 21.375 C-7.29318359 22.31988281 -7.33636719 23.26476562 -7.38085938 24.23828125 C-7.48709072 26.57537092 -7.58913176 28.9125683 -7.6875 31.25 C-10.57685104 26.91597343 -10.05557667 23.03652898 -10.0625 17.9375 C-10.08699219 16.99970703 -10.11148438 16.06191406 -10.13671875 15.09570312 C-10.16190591 9.13893895 -9.57986905 5.82092381 -5.6875 1.25 C-4.05737162 -0.38012838 -2.24312555 0.04023544 0 0 Z " fill="#DCDDDC" transform="translate(140.6875,66.75)"/>
<path d="M0 0 C3.50919889 3.42758962 3.47356468 5.82355872 3.6796875 10.578125 C3.68355469 11.59132813 3.68355469 11.59132813 3.6875 12.625 C0.37379 14.83414 -0.6571021 14.84981553 -4.5 14.75 C-5.40105469 14.73195313 -6.30210937 14.71390625 -7.23046875 14.6953125 C-7.91753906 14.67210938 -8.60460937 14.64890625 -9.3125 14.625 C-9.3125 13.965 -9.3125 13.305 -9.3125 12.625 C-10.6325 12.625 -11.9525 12.625 -13.3125 12.625 C-13.38904536 8.10882401 -13.41478696 4.03414783 -12.3125 -0.375 C-7.63229849 -1.93506717 -4.58831372 -1.90458306 0 0 Z " fill="#EC867D" transform="translate(149.3125,75.375)"/>
<path d="M0 0 C9.08829321 -0.37292389 17.92489279 1.50049328 26.8203125 3.14453125 C26.8203125 2.48453125 26.8203125 1.82453125 26.8203125 1.14453125 C29.89406626 2.68140813 32.84011965 4.4336798 35.8203125 6.14453125 C32.57529556 7.22620356 31.56338742 7.06548932 28.328125 6.33203125 C27.02294922 6.04972656 27.02294922 6.04972656 25.69140625 5.76171875 C23.86811316 5.35193168 22.04519186 4.94048669 20.22265625 4.52734375 C18.91361328 4.24503906 18.91361328 4.24503906 17.578125 3.95703125 C16.7855127 3.77785156 15.99290039 3.59867188 15.17626953 3.4140625 C12.49921867 3.10779678 10.4322869 3.54197709 7.8203125 4.14453125 C5.5390625 3.98828125 5.5390625 3.98828125 3.3203125 3.64453125 C-0.09955482 3.193497 -2.81927407 3.16892735 -6.1796875 4.14453125 C-5.8496875 5.13453125 -5.5196875 6.12453125 -5.1796875 7.14453125 C-5.5096875 7.80453125 -5.8396875 8.46453125 -6.1796875 9.14453125 C-5.5196875 9.47453125 -4.8596875 9.80453125 -4.1796875 10.14453125 C-5.4996875 10.14453125 -6.8196875 10.14453125 -8.1796875 10.14453125 C-8.5096875 11.13453125 -8.8396875 12.12453125 -9.1796875 13.14453125 C-10.06011719 13.20511719 -10.94054687 13.26570313 -11.84765625 13.328125 C-13.58982422 13.45380859 -13.58982422 13.45380859 -15.3671875 13.58203125 C-16.51574219 13.66324219 -17.66429687 13.74445312 -18.84765625 13.828125 C-21.69566921 14.09856937 -24.39179232 14.51974872 -27.1796875 15.14453125 C-25.79780297 11.93409243 -24.25546847 10.0951676 -21.5546875 7.89453125 C-20.92304687 7.37375 -20.29140625 6.85296875 -19.640625 6.31640625 C-18.91746094 5.73632812 -18.91746094 5.73632812 -18.1796875 5.14453125 C-17.5196875 5.47453125 -16.8596875 5.80453125 -16.1796875 6.14453125 C-16.5096875 6.80453125 -16.8396875 7.46453125 -17.1796875 8.14453125 C-16.59960938 7.65082031 -16.01953125 7.15710937 -15.421875 6.6484375 C-10.06023835 2.25118764 -6.92002036 0.4588544 0 0 Z " fill="#982F31" transform="translate(67.1796875,32.85546875)"/>
<path d="M0 0 C2.80652431 2.80652431 2.36616611 4.70583195 2.4375 8.625 C2.32515207 15.08170166 1.59371305 19.35026606 -3 24 C-7.38659371 28.039239 -11.03736804 29.28950785 -17 29.3125 C-18.66803371 29.23317774 -20.33576552 29.13766646 -22 29 C-21.5625 26.25 -21.5625 26.25 -20 23 C-17.13722607 21.27291518 -14.15019724 20.10192085 -11 19 C-11 19.66 -11 20.32 -11 21 C-5.70810451 16.97791392 -5.70810451 16.97791392 -3 11 C-2.34 11 -1.68 11 -1 11 C-1.20625 10.29875 -1.4125 9.5975 -1.625 8.875 C-2.07850357 5.39813928 -1.27540277 3.22601877 0 0 Z " fill="#B62425" transform="translate(69,89)"/>
<path d="M0 0 C0 0.66 0 1.32 0 2 C-11.18809451 1.1491255 -11.18809451 1.1491255 -15.0625 0.4375 C-22.87243367 -0.72568161 -31.4181337 -1.05457753 -38.203125 3.46875 C-40.17873141 4.93318552 -42.10420986 6.43412659 -44 8 C-44.66 7.67 -45.32 7.34 -46 7 C-46 6.67 -46 6.34 -46 6 C-46.66 5.67 -47.32 5.34 -48 5 C-47.67 4.67 -47.34 4.34 -47 4 C-49.64 4 -52.28 4 -55 4 C-52.83014073 1.83014073 -51.89205666 1.52750391 -49 0.78125 C-47.80080933 0.46716187 -47.80080933 0.46716187 -46.57739258 0.14672852 C-45.72685303 -0.06669189 -44.87631348 -0.2801123 -44 -0.5 C-42.69615356 -0.82883179 -42.69615356 -0.82883179 -41.3659668 -1.16430664 C-39.6567767 -1.59228515 -37.94675454 -2.01695708 -36.23583984 -2.43798828 C-34.50919876 -2.87200529 -32.79293026 -3.34741632 -31.08203125 -3.83984375 C-21.14210956 -6.45741349 -9.21086023 -4.22164427 0 0 Z " fill="#984A4C" transform="translate(94,34)"/>
<path d="M0 0 C0.928125 0.0825 1.85625 0.165 2.8125 0.25 C2.8125 1.57 2.8125 2.89 2.8125 4.25 C3.72 4.188125 4.6275 4.12625 5.5625 4.0625 C9.13860265 4.26881361 10.31798587 4.75548587 12.8125 7.25 C13.1425 8.24 13.4725 9.23 13.8125 10.25 C14.8025 10.25 15.7925 10.25 16.8125 10.25 C16.8125 11.24 16.8125 12.23 16.8125 13.25 C11.73510076 13.47075649 7.28597988 12.83309443 2.32421875 11.76171875 C-1.16489166 11.05087355 -4.64970886 10.6430879 -8.1875 10.25 C-5.2814781 0.41423358 -5.2814781 0.41423358 0 0 Z " fill="#852122" transform="translate(81.1875,64.75)"/>
<path d="M0 0 C5.70326984 1.28323571 10.38414236 4.42052548 14 9 C14.2265625 11.60546875 14.2265625 11.60546875 14 14 C14 14.66 14 15.32 14 16 C14.99 16.66 15.98 17.32 17 18 C17 18.66 17 19.32 17 20 C18.32 20.33 19.64 20.66 21 21 C21.33 22.65 21.66 24.3 22 26 C18.04378269 24.61496881 15.09508228 22.78476253 11.8125 20.1875 C10.95269531 19.52105469 10.09289062 18.85460937 9.20703125 18.16796875 C6.82624381 15.82931915 6.09045591 14.10853947 5 11 C3.74854162 9.1759046 2.40381584 7.47356145 1.0234375 5.74609375 C0 4 0 4 0 0 Z " fill="#862F2F" transform="translate(11,109)"/>
<path d="M0 0 C2.475 0.99 2.475 0.99 5 2 C8.58430945 2.24082874 8.58430945 2.24082874 12.3125 2.125 C13.56675781 2.10695313 14.82101563 2.08890625 16.11328125 2.0703125 C17.06589844 2.04710938 18.01851562 2.02390625 19 2 C19.09765625 8.15234375 19.09765625 8.15234375 19 10 C18 11 18 11 16.23413086 11.11352539 C15.48526611 11.10828857 14.73640137 11.10305176 13.96484375 11.09765625 C13.15595703 11.09443359 12.34707031 11.09121094 11.51367188 11.08789062 C10.66353516 11.07951172 9.81339844 11.07113281 8.9375 11.0625 C8.08349609 11.05798828 7.22949219 11.05347656 6.34960938 11.04882812 C4.23304337 11.03700373 2.11651315 11.01906769 0 11 C0 7.37 0 3.74 0 0 Z " fill="#811516" transform="translate(134,97)"/>
<path d="M0 0 C1.13055826 3.39167479 0.7231605 5.54489981 0 9 C0.04125 10.11375 0.0825 11.2275 0.125 12.375 C-0.03795388 17.10066256 -1.30426285 20.93841868 -4.33984375 24.62890625 C-8.83595076 28.34216168 -16.4703991 28.45139599 -22 28 C-22.66 27.34 -23.32 26.68 -24 26 C-22.87851562 25.92652344 -22.87851562 25.92652344 -21.734375 25.8515625 C-20.74953125 25.77679688 -19.7646875 25.70203125 -18.75 25.625 C-17.77546875 25.55539063 -16.8009375 25.48578125 -15.796875 25.4140625 C-13.00619699 25.00091743 -11.25882862 24.68894067 -9 23 C-8.25183833 20.72483805 -8.25183833 20.72483805 -8 18 C-7.5322993 15.7683995 -7.0525483 13.53929981 -6.5625 11.3125 C-6.31628906 10.17425781 -6.07007812 9.03601563 -5.81640625 7.86328125 C-4.78610651 4.24983767 -2.59411424 2.59411424 0 0 Z " fill="#E03F40" transform="translate(71,50)"/>
<path d="M0 0 C1.47290039 1.00976562 1.47290039 1.00976562 3 3 C3.31034119 5.69274893 3.44427049 8.14991509 3.43359375 10.84375 C3.4388356 11.60925171 3.44407745 12.37475342 3.44947815 13.16345215 C3.45589682 14.78066801 3.4545633 16.39793056 3.44604492 18.01513672 C3.43752956 20.49140347 3.46630278 22.96536719 3.49804688 25.44140625 C3.49965886 27.01302014 3.49908141 28.58463812 3.49609375 30.15625 C3.51294472 31.26728088 3.51294472 31.26728088 3.53013611 32.40075684 C3.46022531 37.5490135 3.46022531 37.5490135 0.96899414 39.99023438 C0.31922607 40.32345703 -0.33054199 40.65667969 -1 41 C-3.88734564 39.57276992 -6.54479707 38.09704436 -9 36 C-10 32.1875 -10 32.1875 -10 29 C-9.01 29 -8.02 29 -7 29 C-7 30.32 -7 31.64 -7 33 C-4.34771188 34.07525194 -1.71631546 35.09456151 1 36 C0.93417725 35.33581055 0.86835449 34.67162109 0.80053711 33.98730469 C0.5018514 30.90916023 0.21962426 27.82970485 -0.0625 24.75 C-0.16626953 23.70585938 -0.27003906 22.66171875 -0.37695312 21.5859375 C-1.03295921 14.25676606 -0.84504675 7.30789214 0 0 Z " fill="#B82526" transform="translate(125,61)"/>
<path d="M0 0 C0.66 0.33 1.32 0.66 2 1 C1.01 1 0.02 1 -1 1 C-0.67 0.67 -0.34 0.34 0 0 Z M-28 1 C-26.741875 1.33 -25.48375 1.66 -24.1875 2 C-16.46764853 3.71417174 -8.7470298 3.37724974 -1 2 C-1.33 3.98 -1.66 5.96 -2 8 C-2.99 8 -3.98 8 -5 8 C-5 8.66 -5 9.32 -5 10 C-7.41696872 10.05411124 -9.83271787 10.09372278 -12.25 10.125 C-12.93191406 10.14175781 -13.61382812 10.15851563 -14.31640625 10.17578125 C-18.0169819 10.21170917 -20.93527034 10.21556023 -24 8 C-24.36162029 6.67405895 -24.69728039 5.34061543 -25 4 C-25.99 3.67 -26.98 3.34 -28 3 C-28 2.34 -28 1.68 -28 1 Z " fill="#5C1718" transform="translate(56,126)"/>
<path d="M0 0 C0.625 1.8125 0.625 1.8125 1 4 C0.01 5.485 0.01 5.485 -1 7 C-1.66 7 -2.32 7 -3 7 C-3.67258667 9.33163378 -4.33847444 11.6652039 -5 14 C-5.26876953 14.86238281 -5.26876953 14.86238281 -5.54296875 15.7421875 C-7.70386102 26.41736471 -6.19098507 36.42681111 -2.09375 46.33984375 C-1 49 -1 49 -1 51 C-0.34 51 0.32 51 1 51 C1.4125 52.051875 1.825 53.10375 2.25 54.1875 C3.69411378 57.58704057 5.55191058 60.21424307 8 63 C7.67 63.66 7.34 64.32 7 65 C-3.13792728 54.37931428 -9.05747561 39.97480825 -9.5 25.3125 C-9.20252648 15.34200808 -5.52404836 8.1049562 0 0 Z " fill="#A0898A" transform="translate(10,58)"/>
<path d="M0 0 C1.42366767 2.84733534 0.52297345 4.92753098 0 8 C0.33 8.33 0.66 8.66 1 9 C1.21413131 12.02460477 1.37767876 15.03391676 1.5 18.0625 C1.75160457 24.09635024 2.16983424 30.01588848 3 36 C2.01 36 1.02 36 0 36 C-3.61264517 24.19439166 -6.816466 13.18224593 -0.875 1.546875 C-0.58625 1.03640625 -0.2975 0.5259375 0 0 Z " fill="#BC4849" transform="translate(9,73)"/>
<path d="M0 0 C2.475 0.495 2.475 0.495 5 1 C5 2.65 5 4.3 5 6 C3.35 5.34 1.7 4.68 0 4 C0 8.29 0 12.58 0 17 C-1.65 16.34 -3.3 15.68 -5 15 C-8.14930893 13.95023036 -10.38814456 13.89868405 -13.6875 13.9375 C-14.68136719 13.94652344 -15.67523438 13.95554687 -16.69921875 13.96484375 C-17.45847656 13.97644531 -18.21773437 13.98804687 -19 14 C-18.67 12.35 -18.34 10.7 -18 9 C-16.10448978 8.94558344 -14.2085208 8.90701965 -12.3125 8.875 C-11.25675781 8.85179687 -10.20101562 8.82859375 -9.11328125 8.8046875 C-5.97748141 9.00141271 -3.82354627 9.66942346 -1 11 C-1.020625 9.741875 -1.04125 8.48375 -1.0625 7.1875 C-1.10886083 4.35948913 -0.91692961 2.75078884 0 0 Z " fill="#CC4E49" transform="translate(154,54)"/>
<path d="M0 0 C0.89847656 0.00257812 1.79695312 0.00515625 2.72265625 0.0078125 C3.61855469 0.00523438 4.51445312 0.00265625 5.4375 0 C7.78515625 0.1328125 7.78515625 0.1328125 9.78515625 1.1328125 C9.78515625 1.7928125 9.78515625 2.4528125 9.78515625 3.1328125 C8.88023437 3.27976562 8.88023437 3.27976562 7.95703125 3.4296875 C3.09299584 4.33973283 -0.10571517 4.98730773 -3.21484375 9.1328125 C-4.38953819 11.48220138 -4.41519264 13.08354455 -4.53125 15.703125 C-4.57314453 16.59902344 -4.61503906 17.49492188 -4.65820312 18.41796875 C-4.71717773 19.82369141 -4.71717773 19.82369141 -4.77734375 21.2578125 C-4.82052734 22.20269531 -4.86371094 23.14757812 -4.90820312 24.12109375 C-5.01443447 26.45818342 -5.11647551 28.7953808 -5.21484375 31.1328125 C-8.10419479 26.79878593 -7.58292042 22.91934148 -7.58984375 17.8203125 C-7.61433594 16.88251953 -7.63882813 15.94472656 -7.6640625 14.97851562 C-7.68924966 9.02175145 -7.1072128 5.70373631 -3.21484375 1.1328125 C-2.21484375 0.1328125 -2.21484375 0.1328125 0 0 Z " fill="#E0E2E1" transform="translate(138.21484375,66.8671875)"/>
<path d="M0 0 C0.495 1.98 0.495 1.98 1 4 C2.98 3.67 4.96 3.34 7 3 C5 5 5 5 2 6 C0.93035757 8.39235729 0.93035757 8.39235729 0.125 11.25 C-1.504829 16.01033075 -2.97222488 18.81524758 -7 22 C-7.969375 22.86625 -8.93875 23.7325 -9.9375 24.625 C-17.10098178 29.53042774 -26.34446352 30.58698568 -34.75 29.3125 C-39.65058236 28.34941764 -39.65058236 28.34941764 -42 26 C-41.43079834 26.01047363 -40.86159668 26.02094727 -40.27514648 26.03173828 C-37.6626437 26.07365718 -35.05021201 26.09943888 -32.4375 26.125 C-31.09461914 26.15013672 -31.09461914 26.15013672 -29.72460938 26.17578125 C-20.31144851 26.24474214 -13.19153377 24.18206887 -5.75 18.1875 C-1.30638758 12.63298448 -0.45361992 6.89815122 0 0 Z " fill="#806B6E" transform="translate(75,109)"/>
<path d="M0 0 C1.32 0.66 2.64 1.32 4 2 C4.85785424 14.68398772 5.11941996 27.28840915 5 40 C2.57549168 37.57549168 2.74285445 36.9260634 2.69140625 33.60546875 C2.66626953 32.73212891 2.64113281 31.85878906 2.61523438 30.95898438 C2.58030237 29.12311324 2.54900468 27.28716907 2.52148438 25.45117188 C2.36490058 20.25335383 1.80957971 17.44976679 -1 13 C-1.07421875 9.66796875 -1.07421875 9.66796875 -0.6875 6.1875 C-0.56761719 5.02605469 -0.44773438 3.86460938 -0.32421875 2.66796875 C-0.21722656 1.78753906 -0.11023438 0.90710937 0 0 Z " fill="#AAAAA7" transform="translate(154,58)"/>
<path d="M0 0 C2 2 2 2 2.0625 4.25 C0.45937027 8.39927694 -2.52448128 10.36054045 -6 13 C-6.59683594 13.49242188 -7.19367187 13.98484375 -7.80859375 14.4921875 C-10.87797861 16.91214794 -12.44494405 17.94954037 -16.4375 18.3125 C-17.283125 18.209375 -18.12875 18.10625 -19 18 C-18.5625 15.25 -18.5625 15.25 -17 12 C-14.13722607 10.27291518 -11.15019724 9.10192085 -8 8 C-8 8.66 -8 9.32 -8 10 C-2.70810451 5.97791392 -2.70810451 5.97791392 0 0 Z " fill="#C63031" transform="translate(66,100)"/>
<path d="M0 0 C0.66 0.33 1.32 0.66 2 1 C1.67 1.66 1.34 2.32 1 3 C1.68707031 2.89300781 2.37414063 2.78601562 3.08203125 2.67578125 C3.98308594 2.55589844 4.88414063 2.43601563 5.8125 2.3125 C6.70582031 2.18488281 7.59914063 2.05726562 8.51953125 1.92578125 C11 2 11 2 12.82421875 3.48046875 C13.40623047 4.23263672 13.40623047 4.23263672 14 5 C12.68 5 11.36 5 10 5 C9.67 5.99 9.34 6.98 9 8 C8.11957031 8.06058594 7.23914063 8.12117188 6.33203125 8.18359375 C4.58986328 8.30927734 4.58986328 8.30927734 2.8125 8.4375 C1.66394531 8.51871094 0.51539063 8.59992187 -0.66796875 8.68359375 C-3.51598171 8.95403812 -6.21210482 9.37521747 -9 10 C-7.61811547 6.78956118 -6.07578097 4.95063635 -3.375 2.75 C-2.74335937 2.22921875 -2.11171875 1.7084375 -1.4609375 1.171875 C-0.73777344 0.59179688 -0.73777344 0.59179688 0 0 Z " fill="#C03032" transform="translate(49,38)"/>
<path d="M0 0 C1.67401097 0.64800425 3.33805262 1.32165413 5 2 C5.67804688 2.25652344 6.35609375 2.51304688 7.0546875 2.77734375 C12.75309083 5.07445098 18.41495542 7.83272904 22 13 C22.3576678 16.20879112 21.89565783 18.91417887 21 22 C20.67 22 20.34 22 20 22 C19.80019531 21.12730469 19.60039063 20.25460938 19.39453125 19.35546875 C17.6180443 15.08095253 15.24777023 13.13779768 11.6875 10.3125 C11.11837891 9.84005859 10.54925781 9.36761719 9.96289062 8.88085938 C7.40561697 6.78747692 4.94293285 4.96661533 2.08203125 3.29296875 C1.39496094 2.86628906 0.70789063 2.43960938 0 2 C0 1.34 0 0.68 0 0 Z " fill="#912324" transform="translate(107,42)"/>
<path d="M0 0 C1.32 1.65 2.64 3.3 4 5 C2.68 5 1.36 5 0 5 C0 4.34 0 3.68 0 3 C-0.81404297 3.52400391 -0.81404297 3.52400391 -1.64453125 4.05859375 C-2.35996094 4.51363281 -3.07539062 4.96867187 -3.8125 5.4375 C-4.87404297 6.11619141 -4.87404297 6.11619141 -5.95703125 6.80859375 C-13.82245862 11.39550646 -24.75299828 9.24265908 -33.24609375 7.4453125 C-38.14183799 6.65366024 -43.0564598 6.84470554 -48 7 C-44.32059741 4.54706494 -42.43692571 4.7620082 -38.0625 4.8125 C-36.83660156 4.81894531 -35.61070313 4.82539062 -34.34765625 4.83203125 C-31 5 -31 5 -29.0480957 5.49560547 C-25.45089663 6.38150525 -21.8134291 6.26780983 -18.125 6.3125 C-17.33480469 6.34150391 -16.54460937 6.37050781 -15.73046875 6.40039062 C-10.23228571 6.45985517 -7.49355954 5.40035028 -3 2 C-2.01 2 -1.02 2 0 2 C0 1.34 0 0.68 0 0 Z " fill="#A49499" transform="translate(130,105)"/>
<path d="M0 0 C-0.56589844 0.48210938 -1.13179687 0.96421875 -1.71484375 1.4609375 C-2.44832031 2.09257813 -3.18179688 2.72421875 -3.9375 3.375 C-4.66839844 4.00148438 -5.39929688 4.62796875 -6.15234375 5.2734375 C-8.08380906 6.87747714 -8.08380906 6.87747714 -9 9 C-10.59396973 9.89125189 -12.22565071 10.7159615 -13.875 11.5 C-16.76031 12.87956513 -19.33078996 14.22052664 -22 16 C-22.66 15.67 -23.32 15.34 -24 15 C-24 14.34 -24 13.68 -24 13 C-23.01 12.34 -22.02 11.68 -21 11 C-21.33 10.34 -21.66 9.68 -22 9 C-20.906875 8.690625 -19.81375 8.38125 -18.6875 8.0625 C-16.44592006 7.41662103 -14.2130649 6.7376883 -12 6 C-11.773125 5.38125 -11.54625 4.7625 -11.3125 4.125 C-9.44782094 1.10599581 -7.12617813 0.59532553 -3.875 -0.58203125 C-2 -1 -2 -1 0 0 Z " fill="#8D2C2D" transform="translate(48,38)"/>
<path d="M0 0 C1.2065625 0.0309375 1.2065625 0.0309375 2.4375 0.0625 C2.7675 1.3825 3.0975 2.7025 3.4375 4.0625 C4.7678125 4.18625 4.7678125 4.18625 6.125 4.3125 C9.85005464 5.1559086 11.64678838 6.51802764 14.4375 9.0625 C11.80712313 10.37768844 10.65468116 9.82985054 7.8125 9.1875 C3.35703315 8.22905655 -1.03438609 7.56562377 -5.5625 7.0625 C-3.33446653 0.08132845 -3.33446653 0.08132845 0 0 Z " fill="#671314" transform="translate(78.5625,67.9375)"/>
<path d="M0 0 C0.33 0.66 0.66 1.32 1 2 C-2.51237551 3.57993952 -5.28985064 4.20374203 -9.125 4.3125 C-15.44916613 4.759924 -20.43991958 7.08552845 -26 10 C-24.75023244 6.34683329 -24.32901247 5.21934164 -21 3 C-13.94928623 0.69210871 -7.39623783 -0.36981189 0 0 Z " fill="#DB3D3F" transform="translate(60,45)"/>
<path d="M0 0 C0.33 0 0.66 0 1 0 C1.02465746 4.1117256 1.04283959 8.22342278 1.05493164 12.33520508 C1.0599708 13.73495228 1.06680216 15.1346942 1.07543945 16.53442383 C1.0875232 18.54245777 1.09269807 20.55052957 1.09765625 22.55859375 C1.10289307 23.76829834 1.10812988 24.97800293 1.11352539 26.22436523 C1 29 1 29 0 30 C-2.89075784 30.31251436 -4.58384012 30.21402508 -7.1875 28.875 C-9.5084683 26.47399831 -10.14875108 24.19218343 -11 21 C-10.01 21 -9.02 21 -8 21 C-8 22.32 -8 23.64 -8 25 C-5.34771188 26.07525194 -2.71631546 27.09456151 0 28 C-0.10658936 26.94087402 -0.10658936 26.94087402 -0.21533203 25.86035156 C-0.53072663 22.65796432 -0.82804809 19.45414777 -1.125 16.25 C-1.23714844 15.13882813 -1.34929687 14.02765625 -1.46484375 12.8828125 C-1.56152344 11.81289062 -1.65820312 10.74296875 -1.7578125 9.640625 C-1.8520752 8.65610352 -1.94633789 7.67158203 -2.04345703 6.65722656 C-1.99742021 3.84225578 -1.46133837 2.37159965 0 0 Z " fill="#CB2E2F" transform="translate(126,69)"/>
<path d="M0 0 C0 0.66 0 1.32 0 2 C-0.66 1.690625 -1.32 1.38125 -2 1.0625 C-9.53991228 -1.6078856 -17.60734264 -1.12386636 -25.5 -1.0625 C-27.16289063 -1.05573242 -27.16289063 -1.05573242 -28.859375 -1.04882812 C-31.57297399 -1.03713158 -34.28645761 -1.02074086 -37 -1 C-26.57825397 -7.94783069 -10.77423246 -4.93818988 0 0 Z " fill="#A8878C" transform="translate(94,34)"/>
<path d="M0 0 C2.24234009 3.36351013 2.27098215 4.62310056 2.25 8.5625 C2.25515625 9.53316406 2.2603125 10.50382812 2.265625 11.50390625 C2 14 2 14 0 16 C-2.625 16.125 -2.625 16.125 -5 16 C-5 15.01 -5 14.02 -5 13 C-8.96 13 -12.92 13 -17 13 C-17 12.67 -17 12.34 -17 12 C-11.06 11.505 -11.06 11.505 -5 11 C-4.67 8.69 -4.34 6.38 -4 4 C-3.67 4 -3.34 4 -3 4 C-2.67 5.65 -2.34 7.3 -2 9 C-1.34 6.03 -0.68 3.06 0 0 Z " fill="#959596" transform="translate(157,96)"/>
<path d="M0 0 C3 1 3 1 4 3 C9.81087163 4.28036155 12.78846381 4.25721012 18 1 C18.042721 2.66611905 18.04063832 4.33382885 18 6 C16.14365553 7.85634447 13.17170097 7.17368353 10.6875 7.1875 C9.53636719 7.20167969 8.38523438 7.21585937 7.19921875 7.23046875 C4.17587763 7.01267006 2.53434129 6.5831811 0 5 C0 3.35 0 1.7 0 0 Z " fill="#C73A38" transform="translate(135,93)"/>
<path d="M0 0 C1.53166168 4.08443115 0.63081652 7.79455657 0 12 C1.32 12 2.64 12 4 12 C4 12.66 4 13.32 4 14 C5.6045556 13.85851011 7.20863767 13.71164314 8.8125 13.5625 C10.15248047 13.44068359 10.15248047 13.44068359 11.51953125 13.31640625 C14.12743559 13.06510233 14.12743559 13.06510233 17 12 C17 13.65 17 15.3 17 17 C12.6835078 17.76173392 9.25566547 18.16063604 5 17 C5 16.34 5 15.68 5 15 C4.195625 14.855625 3.39125 14.71125 2.5625 14.5625 C0 14 0 14 -1 13 C-1.09879565 11.189715 -1.12971514 9.37547273 -1.125 7.5625 C-1.12757813 6.57378906 -1.13015625 5.58507812 -1.1328125 4.56640625 C-1 2 -1 2 0 0 Z " fill="#DE6665" transform="translate(136,76)"/>
<path d="M0 0 C0.66 0.33 1.32 0.66 2 1 C1.01 1 0.02 1 -1 1 C-0.67 0.67 -0.34 0.34 0 0 Z M-28 1 C-26.741875 1.33 -25.48375 1.66 -24.1875 2 C-16.46764853 3.71417174 -8.7470298 3.37724974 -1 2 C-4.75410013 5.92474104 -4.75410013 5.92474104 -7.87939453 6.11352539 C-8.62302246 6.10828857 -9.36665039 6.10305176 -10.1328125 6.09765625 C-10.93847656 6.09443359 -11.74414062 6.09121094 -12.57421875 6.08789062 C-13.41597656 6.07951172 -14.25773437 6.07113281 -15.125 6.0625 C-15.97449219 6.05798828 -16.82398438 6.05347656 -17.69921875 6.04882812 C-19.79950909 6.03702874 -21.8997633 6.01909306 -24 6 C-24.33 5.34 -24.66 4.68 -25 4 C-25.99 3.67 -26.98 3.34 -28 3 C-28 2.34 -28 1.68 -28 1 Z " fill="#741717" transform="translate(56,126)"/>
<path d="M0 0 C0.6875 1.625 0.6875 1.625 1 4 C-0.4375 7.25 -0.4375 7.25 -2 10 C-1.67 10 -1.34 10 -1 10 C-0.67 13.63 -0.34 17.26 0 21 C-3 18 -3 18 -4 14 C-6.97 13.67 -9.94 13.34 -13 13 C-11.0614922 11.70766147 -9.08267939 10.47302859 -7.0625 9.3125 C-3.34114439 6.50249679 -2.06452414 4.12904828 0 0 Z " fill="#C82E2F" transform="translate(106,60)"/>
<path d="M0 0 C0.78375 0.474375 1.5675 0.94875 2.375 1.4375 C6.92189258 3.39736749 11.09893144 3.71910872 16 4 C16 4.66 16 5.32 16 6 C14.44033408 6.36644578 12.87707349 6.71760862 11.3125 7.0625 C10.44238281 7.25972656 9.57226562 7.45695312 8.67578125 7.66015625 C5.7700037 8.02921121 3.78318596 7.90560225 1 7 C0.34 6.01 -0.32 5.02 -1 4 C-0.34 4 0.32 4 1 4 C0.67 2.68 0.34 1.36 0 0 Z " fill="#892323" transform="translate(24,119)"/>
<path d="M0 0 C-0.55429687 0.17015625 -1.10859375 0.3403125 -1.6796875 0.515625 C-2.40414062 0.75796875 -3.12859375 1.0003125 -3.875 1.25 C-4.59429687 1.48203125 -5.31359375 1.7140625 -6.0546875 1.953125 C-8.16560252 2.84547912 -8.16560252 2.84547912 -8.98046875 5.00390625 C-10 7 -10 7 -12.05859375 8.01171875 C-12.84363281 8.23472656 -13.62867188 8.45773438 -14.4375 8.6875 C-15.21996094 8.91824219 -16.00242187 9.14898437 -16.80859375 9.38671875 C-17.89333984 9.69029297 -17.89333984 9.69029297 -19 10 C-19.99 10.33 -20.98 10.66 -22 11 C-22 10.01 -22 9.02 -22 8 C-19.56401192 6.68462636 -17.1263175 5.37260857 -14.6875 4.0625 C-13.99720703 3.68931641 -13.30691406 3.31613281 -12.59570312 2.93164062 C-11.92861328 2.57392578 -11.26152344 2.21621094 -10.57421875 1.84765625 C-9.65515747 1.3527771 -9.65515747 1.3527771 -8.7175293 0.84790039 C-5.35814733 -0.81054077 -3.52329345 -1.0934359 0 0 Z " fill="#AE393A" transform="translate(46,38)"/>
<path d="M0 0 C4.09430738 3.75024794 5.81422436 8.27916101 6.1875 13.74609375 C6.1875 16.17173096 6.13398536 18.5783386 6 21 C5.01 21.33 4.02 21.66 3 22 C2.96261719 21.32195312 2.92523438 20.64390625 2.88671875 19.9453125 C2.41514671 13.26933186 1.18078865 7.32291553 -1 1 C-0.67 0.67 -0.34 0.34 0 0 Z " fill="#A71C1C" transform="translate(68,80)"/>
<path d="M0 0 C1.01126953 0.49113281 1.01126953 0.49113281 2.04296875 0.9921875 C5.61501454 2.20960865 8.54711647 2.195381 12.3125 2.125 C13.56675781 2.10695313 14.82101563 2.08890625 16.11328125 2.0703125 C17.06589844 2.04710938 18.01851562 2.02390625 19 2 C18.67 3.32 18.34 4.64 18 6 C15.5622037 6.05397335 13.12560315 6.09365616 10.6875 6.125 C9.65206055 6.15013672 9.65206055 6.15013672 8.59570312 6.17578125 C4.82864604 6.21217794 3.21568296 6.14378864 0 4 C0 2.68 0 1.36 0 0 Z " fill="#AB2423" transform="translate(134,97)"/>
<path d="M0 0 C8.2425317 -0.26305952 15.91191011 0.39385449 24 2 C24 1.34 24 0.68 24 0 C27.07375376 1.53687688 30.01980715 3.28914855 33 5 C29.75498306 6.08167231 28.74307492 5.92095807 25.5078125 5.1875 C24.20263672 4.90519531 24.20263672 4.90519531 22.87109375 4.6171875 C21.04780066 4.20740043 19.22487936 3.79595544 17.40234375 3.3828125 C16.52964844 3.19460937 15.65695313 3.00640625 14.7578125 2.8125 C13.9652002 2.63332031 13.17258789 2.45414063 12.35595703 2.26953125 C9.68672459 1.96415999 7.61540664 2.45877029 5 3 C2.1875 2.0625 2.1875 2.0625 0 1 C0 0.67 0 0.34 0 0 Z " fill="#973335" transform="translate(70,34)"/>
<path d="M0 0 C-1.03640625 0.54269531 -2.0728125 1.08539063 -3.140625 1.64453125 C-4.51051236 2.36700609 -5.88029873 3.08967243 -7.25 3.8125 C-7.93191406 4.16892578 -8.61382813 4.52535156 -9.31640625 4.89257812 C-12.75596018 6.71253627 -15.97226196 8.52630681 -19 11 C-18.67 11.66 -18.34 12.32 -18 13 C-19.29096781 13.81360995 -20.58279875 14.62585046 -21.875 15.4375 C-22.95394531 16.11619141 -22.95394531 16.11619141 -24.0546875 16.80859375 C-26 18 -26 18 -28 19 C-23.73514952 9.70222171 -14.61990821 4.77589509 -6 0 C-3 -1 -3 -1 0 0 Z " fill="#B5888A" transform="translate(39,39)"/>
<path d="M0 0 C-3.4636097 4.10669033 -7.86698091 4.44292816 -13 5 C-16.625 4.625 -16.625 4.625 -19 4 C-19 3.01 -19 2.02 -19 1 C-17.1746875 1.0309375 -17.1746875 1.0309375 -15.3125 1.0625 C-10.11609396 1.07163252 -5.22647464 -0.12154592 0 0 Z " fill="#AE2829" transform="translate(53,118)"/>
<path d="M0 0 C0.33 1.32 0.66 2.64 1 4 C2.98 3.67 4.96 3.34 7 3 C5 5 5 5 2 6 C0.93035757 8.39235729 0.93035757 8.39235729 0.125 11.25 C-1.48034378 15.98024962 -3.01963084 18.81570467 -7 22 C-7.721875 22.598125 -8.44375 23.19625 -9.1875 23.8125 C-11 25 -11 25 -13 25 C-13 24.34 -13 23.68 -13 23 C-11.34151823 21.98648336 -9.67334039 20.98879205 -8 20 C-2.80370396 15.72069738 -1.04562385 10.53842734 -0.3125 4.0625 C-0.19727993 2.709229 -0.0891201 1.35524008 0 0 Z " fill="#9D8386" transform="translate(75,109)"/>
<path d="M0 0 C5.1692853 0.66326879 9.62251365 2.91924657 14.3125 5.0625 C15.56643555 5.62807617 15.56643555 5.62807617 16.84570312 6.20507812 C18.89927262 7.13211807 20.95056287 8.06386878 23 9 C22.67 9.99 22.34 10.98 22 12 C14.66666667 8.33333333 7.33333333 4.66666667 0 1 C0 0.67 0 0.34 0 0 Z " fill="#AA7F81" transform="translate(95,35)"/>
<path d="M0 0 C0 4.00036416 -1.38393035 5.03040742 -4 8 C-4.7425 8.9075 -5.485 9.815 -6.25 10.75 C-9.9353021 13.76524717 -12.30511022 13.76127679 -17 14 C-17 13.34 -17 12.68 -17 12 C-16.01 12 -15.02 12 -14 12 C-13.67 11.01 -13.34 10.02 -13 9 C-11.328125 8.0078125 -11.328125 8.0078125 -9.25 7.125 C-5.29798533 5.29115147 -2.88197657 3.24222364 0 0 Z " fill="#732F30" transform="translate(68,122)"/>
<path d="M0 0 C0.81791016 0.30744141 0.81791016 0.30744141 1.65234375 0.62109375 C7.15432765 2.58675979 12.1764819 3.53781602 18 4 C18 6.31 18 8.62 18 11 C17.75894531 10.35289063 17.51789063 9.70578125 17.26953125 9.0390625 C16.20491087 6.81328744 16.20491087 6.81328744 14.01171875 6.4609375 C12.86123047 6.41839844 12.86123047 6.41839844 11.6875 6.375 C8.09121674 6.11481873 5.18862026 5.83587227 2 4 C0.87109375 1.92578125 0.87109375 1.92578125 0 0 Z " fill="#C93031" transform="translate(48,82)"/>
<path d="M0 0 C0.625 1.8125 0.625 1.8125 1 4 C0.01 5.485 0.01 5.485 -1 7 C-1.66 7 -2.32 7 -3 7 C-4.57578241 12.29012667 -5.84941444 17.60204011 -7 23 C-7.66 23 -8.32 23 -9 23 C-8.86532857 15.0543858 -5.79616387 5.79616387 0 0 Z " fill="#B89393" transform="translate(10,58)"/>
<path d="M0 0 C5.00566288 -0.29445076 7.99160747 -0.11763863 12 3 C14.82037114 6.01487949 15 6.66722334 15 11 C14.34 11 13.68 11 13 11 C13 9.68 13 8.36 13 7 C12.195625 6.690625 11.39125 6.38125 10.5625 6.0625 C8 5 8 5 7 4 C4.32941149 3.85884839 1.67567762 3.95752893 -1 4 C-0.67 2.68 -0.34 1.36 0 0 Z " fill="#BF6C6C" transform="translate(139,71)"/>
<path d="M0 0 C1.2375 0.12375 2.475 0.2475 3.75 0.375 C3.75 0.705 3.75 1.035 3.75 1.375 C2.079375 1.7771875 2.079375 1.7771875 0.375 2.1875 C-3.46840951 3.03309019 -3.46840951 3.03309019 -5.25 6.375 C-5.61433373 8.49837771 -5.61433373 8.49837771 -5.6640625 10.82421875 C-5.70273438 11.67177734 -5.74140625 12.51933594 -5.78125 13.39257812 C-5.8121875 14.27365234 -5.843125 15.15472656 -5.875 16.0625 C-5.91367188 16.95517578 -5.95234375 17.84785156 -5.9921875 18.76757812 C-6.08640218 20.9698462 -6.17201588 23.17210722 -6.25 25.375 C-6.58 25.375 -6.91 25.375 -7.25 25.375 C-9.20588235 8.64522059 -9.20588235 8.64522059 -6.75 2.8125 C-4.01276552 0.14369638 -3.59748585 0.01913556 0 0 Z " fill="#A95155" transform="translate(141.25,71.625)"/>
<path d="M0 0 C0.66 0.33 1.32 0.66 2 1 C1.38125 1.0825 0.7625 1.165 0.125 1.25 C-2.1036442 1.80037725 -2.1036442 1.80037725 -3.125 3.65625 C-4.23680487 6.63429877 -4.19392417 9.07948829 -4.125 12.25 C-4.10695312 13.32765625 -4.08890625 14.4053125 -4.0703125 15.515625 C-4.04710937 16.33546875 -4.02390625 17.1553125 -4 18 C-6.27929022 16.21042466 -6.94759712 15.31347309 -7.43359375 12.40625 C-7.43488281 11.4471875 -7.43617187 10.488125 -7.4375 9.5 C-7.45683594 8.5409375 -7.47617187 7.581875 -7.49609375 6.59375 C-7 4 -7 4 -5.16015625 2.21875 C-3 1 -3 1 0 0 Z " fill="#E45455" transform="translate(41,51)"/>
<path d="M0 0 C0.66 0.33 1.32 0.66 2 1 C1.88655624 3.1464753 1.75893655 5.29220592 1.625 7.4375 C1.52058594 9.22994141 1.52058594 9.22994141 1.4140625 11.05859375 C1.27742188 12.02925781 1.14078125 12.99992187 1 14 C0.01 14.495 0.01 14.495 -1 15 C-1.02703381 13.06257659 -1.04641125 11.12504521 -1.0625 9.1875 C-1.07410156 8.10855469 -1.08570312 7.02960938 -1.09765625 5.91796875 C-1 3 -1 3 0 0 Z M-3 15 C-2.34 15 -1.68 15 -1 15 C-1 15.66 -1 16.32 -1 17 C-1.99 17.33 -2.98 17.66 -4 18 C-3.67 17.01 -3.34 16.02 -3 15 Z M-7 19 C-6.34 19.33 -5.68 19.66 -5 20 C-6.65 21.32 -8.3 22.64 -10 24 C-10.66 23.67 -11.32 23.34 -12 23 C-10.35 21.68 -8.7 20.36 -7 19 Z " fill="#C42A2B" transform="translate(68,92)"/>
<path d="M0 0 C0.33 0 0.66 0 1 0 C1.33 2.31 1.66 4.62 2 7 C2.61746094 6.69964844 3.23492187 6.39929688 3.87109375 6.08984375 C10.1949582 3.25036123 14.1922854 2.68237782 21 4 C21 4.33 21 4.66 21 5 C20.3709375 5.03738281 19.741875 5.07476562 19.09375 5.11328125 C13.16231878 5.56885805 8.50226763 6.77978674 3 9 C2.01 9 1.02 9 0 9 C0 6.03 0 3.06 0 0 Z " fill="#772B2C" transform="translate(76,104)"/>
<path d="M0 0 C1.99173794 3.98347589 2.46902162 5.6850011 2 10 C-1.31371 12.20914 -2.3446021 12.22481553 -6.1875 12.125 C-7.08855469 12.10695313 -7.98960937 12.08890625 -8.91796875 12.0703125 C-9.60503906 12.04710938 -10.29210937 12.02390625 -11 12 C-11 11.34 -11 10.68 -11 10 C-7.30458414 9.04975021 -4.69541586 9.04975021 -1 10 C-0.67 6.7 -0.34 3.4 0 0 Z " fill="#EB796E" transform="translate(151,78)"/>
<path d="M0 0 C1.65 0.33 3.3 0.66 5 1 C5 2.65 5 4.3 5 6 C2.525 5.01 2.525 5.01 0 4 C0 8.29 0 12.58 0 17 C-1.32 16.34 -2.64 15.68 -4 15 C-3.01 14.67 -2.02 14.34 -1 14 C-1.01160156 13.24074219 -1.02320313 12.48148438 -1.03515625 11.69921875 C-1.04417969 10.70535156 -1.05320313 9.71148437 -1.0625 8.6875 C-1.07410156 7.70136719 -1.08570313 6.71523438 -1.09765625 5.69921875 C-1 3 -1 3 0 0 Z " fill="#737076" transform="translate(154,54)"/>
<path d="M0 0 C0.33 0.66 0.66 1.32 1 2 C3.02463255 2.65213292 3.02463255 2.65213292 5 3 C3.68 3.33 2.36 3.66 1 4 C1 4.66 1 5.32 1 6 C-0.28913487 6.67154933 -1.58140204 7.33708859 -2.875 8 C-3.59429688 8.37125 -4.31359375 8.7425 -5.0546875 9.125 C-7 10 -7 10 -9 10 C-7.83060516 6.49181547 -6.92218525 6.08727518 -4 4 C-2.64802142 2.68557638 -1.30973998 1.3565164 0 0 Z " fill="#B84445" transform="translate(23,47)"/>
<path d="M0 0 C1.32 1.65 2.64 3.3 4 5 C2.68 5 1.36 5 0 5 C0 4.34 0 3.68 0 3 C-0.99 3.825 -1.98 4.65 -3 5.5 C-9.30025963 9.55179741 -16.82152393 8.39202843 -24 8 C-24 7.67 -24 7.34 -24 7 C-22.98679687 6.97421875 -21.97359375 6.9484375 -20.9296875 6.921875 C-19.57808403 6.86555819 -18.22652319 6.80821167 -16.875 6.75 C-16.20984375 6.73582031 -15.5446875 6.72164063 -14.859375 6.70703125 C-9.78660221 6.45836592 -7.04841709 4.93363557 -3 2 C-2.01 2 -1.02 2 0 2 C0 1.34 0 0.68 0 0 Z " fill="#8F7376" transform="translate(130,105)"/>
<path d="M0 0 C0.33 0 0.66 0 1 0 C1.33 5.28 1.66 10.56 2 16 C2.33 16 2.66 16 3 16 C2.88637738 17.4800841 2.75877092 18.95910074 2.625 20.4375 C2.52058594 21.67306641 2.52058594 21.67306641 2.4140625 22.93359375 C2.27742187 23.61550781 2.14078125 24.29742187 2 25 C1.34 25.33 0.68 25.66 0 26 C0 17.42 0 8.84 0 0 Z " fill="#B5B5B4" transform="translate(154,80)"/>
<path d="M0 0 C0.66 0 1.32 0 2 0 C2.08107583 1.93681161 2.13922475 3.8745934 2.1875 5.8125 C2.23970703 7.43091797 2.23970703 7.43091797 2.29296875 9.08203125 C2 12 2 12 0.48828125 13.88671875 C-0.00285156 14.25410156 -0.49398437 14.62148437 -1 15 C-1.02685412 12.68756208 -1.04632841 10.3750373 -1.0625 8.0625 C-1.07410156 6.77472656 -1.08570313 5.48695312 -1.09765625 4.16015625 C-1 1 -1 1 0 0 Z " fill="#BDBEBD" transform="translate(132,56)"/>
<path d="M0 0 C1.32229189 2.64458379 1.09677194 4.67761301 1.0625 7.625 C1.05347656 8.62789062 1.04445313 9.63078125 1.03515625 10.6640625 C1.02355469 11.43492188 1.01195312 12.20578125 1 13 C-2.00617269 9.99382731 -1.59585316 7.17618402 -2 3 C-3.98 3.99 -5.96 4.98 -8 6 C-6.98565881 3.46414701 -6.34981128 2.21863205 -4 0.75 C-2 0 -2 0 0 0 Z " fill="#D14647" transform="translate(33,53)"/>
<path d="M0 0 C2.0622048 -0.054348 4.12482816 -0.09294961 6.1875 -0.125 C7.33605469 -0.14820313 8.48460937 -0.17140625 9.66796875 -0.1953125 C12.91740372 -0.00484152 15.08660521 0.60639873 18 2 C18 2.66 18 3.32 18 4 C12.39 3.34 6.78 2.68 1 2 C0.67 2.66 0.34 3.32 0 4 C0 2.68 0 1.36 0 0 Z " fill="#BD312F" transform="translate(135,61)"/>
<path d="M0 0 C0.66 0 1.32 0 2 0 C0.76176234 5.7784424 -2.16010464 8.86529984 -7 12 C-9.2265625 12.66796875 -9.2265625 12.66796875 -11 13 C-10.60167969 12.54109375 -10.20335937 12.0821875 -9.79296875 11.609375 C-6.39984291 7.68325173 -6.39984291 7.68325173 -3.25 3.5625 C-2.8375 3.046875 -2.425 2.53125 -2 2 C-1.34 2 -0.68 2 0 2 C0 1.34 0 0.68 0 0 Z " fill="#854646" transform="translate(71,120)"/>
<path d="M0 0 C0.33 0 0.66 0 1 0 C1.06058594 1.26714844 1.12117187 2.53429687 1.18359375 3.83984375 C1.26808565 5.53906964 1.35272919 7.238288 1.4375 8.9375 C1.47681641 9.76830078 1.51613281 10.59910156 1.55664062 11.45507812 C1.83730769 17.00365014 2.33760065 22.48371637 3 28 C1 27 1 27 0 24 C-0.08239169 22.15389468 -0.10743359 20.30494836 -0.09765625 18.45703125 C-0.09443359 17.38388672 -0.09121094 16.31074219 -0.08789062 15.20507812 C-0.07951172 14.08552734 -0.07113281 12.96597656 -0.0625 11.8125 C-0.05798828 10.68134766 -0.05347656 9.55019531 -0.04882812 8.38476562 C-0.03703498 5.58979073 -0.0205765 2.7949218 0 0 Z " fill="#BBBCBB" transform="translate(130,76)"/>
<path d="M0 0 C0.66 0.33 1.32 0.66 2 1 C0.04676526 4.51582254 -1.86880504 7.43811321 -5 10 C-6.32 10 -7.64 10 -9 10 C-7.61811547 6.78956118 -6.07578097 4.95063635 -3.375 2.75 C-2.74335937 2.22921875 -2.11171875 1.7084375 -1.4609375 1.171875 C-0.73777344 0.59179688 -0.73777344 0.59179688 0 0 Z " fill="#B8383A" transform="translate(49,38)"/>
<path d="M0 0 C-4.455 2.97 -4.455 2.97 -9 6 C-9.66 5.67 -10.32 5.34 -11 5 C-10.67 4.67 -10.34 4.34 -10 4 C-12.64 4 -15.28 4 -18 4 C-15.36256699 1.36256699 -13.18091039 1.13944998 -9.5625 0.3125 C-8.40878906 0.04050781 -7.25507812 -0.23148438 -6.06640625 -0.51171875 C-3 -1 -3 -1 0 0 Z " fill="#AB7779" transform="translate(57,34)"/>
<path d="M0 0 C2 2 2 2 2 5 C2.66 5 3.32 5 4 5 C7.79680497 8.91928255 9.281502 12.93043089 11 18 C9.125 17.3125 9.125 17.3125 7 16 C6.29289322 14.35008418 5.63437344 12.6792238 5 11 C3.72866617 9.19995274 2.39903733 7.4675814 1.0234375 5.74609375 C0 4 0 4 0 0 Z " fill="#79474B" transform="translate(11,109)"/>
<path d="M0 0 C0.99 0.33 1.98 0.66 3 1 C3 1.66 3 2.32 3 3 C8.30094216 4.80304155 13.60308488 6.50723624 19 8 C19 8.33 19 8.66 19 9 C13.48093274 9.28063054 10.64307627 9.22435852 6 6 C5.278125 5.87625 4.55625 5.7525 3.8125 5.625 C2 5 2 5 0.75 2.4375 C0.5025 1.633125 0.255 0.82875 0 0 Z " fill="#E14444" transform="translate(43,81)"/>
<path d="M0 0 C6.04433574 1.35997554 9.63494136 4.85651794 14 9 C12.22265625 9.703125 12.22265625 9.703125 10 10 C8.18359375 8.671875 8.18359375 8.671875 6.4375 6.75 C5.85871094 6.12609375 5.27992187 5.5021875 4.68359375 4.859375 C4.12800781 4.24578125 3.57242188 3.6321875 3 3 C2.00567846 1.99435361 1.00762743 0.99231394 0 0 Z " fill="#8E3F3F" transform="translate(115,46)"/>
<path d="M0 0 C-1.23553276 1.20254524 -2.48902339 2.38666232 -3.75 3.5625 C-4.79414062 4.55443359 -4.79414062 4.55443359 -5.859375 5.56640625 C-8 7 -8 7 -10.265625 6.71484375 C-10.83796875 6.47894531 -11.4103125 6.24304687 -12 6 C-11.5 4.1875 -11.5 4.1875 -10 2 C-3.17355372 -1.58677686 -3.17355372 -1.58677686 0 0 Z " fill="#A4292B" transform="translate(48,38)"/>
<path d="M0 0 C0 0.66 0 1.32 0 2 C-0.99 2.495 -0.99 2.495 -2 3 C-2.02693575 5.12493141 -2.04636628 7.24995912 -2.0625 9.375 C-2.07410156 10.55835937 -2.08570313 11.74171875 -2.09765625 12.9609375 C-2.21466593 15.91921521 -2.21466593 15.91921521 -1 18 C-1.99 19.32 -2.98 20.64 -4 22 C-4.33 15.07 -4.66 8.14 -5 1 C-3 0 -3 0 0 0 Z " fill="#848282" transform="translate(134,54)"/>
<path d="M0 0 C0.33 0 0.66 0 1 0 C1.144375 1.0725 1.28875 2.145 1.4375 3.25 C1.94865662 7.06645907 1.94865662 7.06645907 3 11 C-2.28 10.34 -7.56 9.68 -13 9 C-13 8.67 -13 8.34 -13 8 C-7.06 7.505 -7.06 7.505 -1 7 C-0.67 4.69 -0.34 2.38 0 0 Z " fill="#847373" transform="translate(153,100)"/>
<path d="M0 0 C0.66 0 1.32 0 2 0 C3.00496852 3.01490557 3.10335303 5.04181692 3.0625 8.1875 C3.05347656 9.08855469 3.04445312 9.98960938 3.03515625 10.91796875 C3.02355469 11.60503906 3.01195312 12.29210937 3 13 C2.01 12.34 1.02 11.68 0 11 C-0.29296875 8.3984375 -0.29296875 8.3984375 -0.1875 5.375 C-0.16042969 4.37210937 -0.13335937 3.36921875 -0.10546875 2.3359375 C-0.07066406 1.56507812 -0.03585938 0.79421875 0 0 Z " fill="#C8C9C9" transform="translate(154,60)"/>
<path d="M0 0 C0.61875 0.33 1.2375 0.66 1.875 1 C3.91018344 2.14193235 3.91018344 2.14193235 6 2 C7.33783393 2.31478446 8.67203709 2.64587656 10 3 C10.33 4.65 10.66 6.3 11 8 C6.40378078 6.5129879 3.53027653 4.20187872 0 1 C0 0.67 0 0.34 0 0 Z " fill="#674442" transform="translate(22,127)"/>
<path d="M0 0 C2.99220268 1.36370299 5.29026529 2.94908083 7.75 5.125 C8.67039062 5.93324219 8.67039062 5.93324219 9.609375 6.7578125 C10.06828125 7.16773437 10.5271875 7.57765625 11 8 C9.1640625 8.6015625 9.1640625 8.6015625 7 9 C3.08994944 6.57949251 1.33909529 4.38249366 0 0 Z " fill="#9B2E2F" transform="translate(14,110)"/>
<path d="M0 0 C4.32511328 3.91319773 5.87983952 8.75700439 6.1875 14.5 C6.125625 15.325 6.06375 16.15 6 17 C4 14 4 14 3.0625 10.6875 C2.04978439 7.17278111 0.72449716 4.21383561 -1 1 C-0.67 0.67 -0.34 0.34 0 0 Z " fill="#911516" transform="translate(68,80)"/>
<path d="M0 0 C0 0.99 0 1.98 0 3 C-3.40401948 4.13732426 -5.77456664 3.83989957 -9.25 3.0625 C-10.14203125 2.86785156 -11.0340625 2.67320313 -11.953125 2.47265625 C-12.62859375 2.31667969 -13.3040625 2.16070312 -14 2 C-14 1.67 -14 1.34 -14 1 C-9.27685687 0.22887459 -4.78478822 -0.09764874 0 0 Z " fill="#B76762" transform="translate(153,65)"/>
<path d="M0 0 C3.45925163 1.2491742 6.14693203 2.67527795 9 5 C8.67 6.32 8.34 7.64 8 9 C6.84775972 8.07038578 5.70340824 7.1309875 4.5625 6.1875 C3.60537109 5.40439453 3.60537109 5.40439453 2.62890625 4.60546875 C1 3 1 3 0 0 Z " fill="#632C2B" transform="translate(19,122)"/>
<path d="M0 0 C5.57142857 5.14285714 5.57142857 5.14285714 6 9 C3.13275314 8.42655063 2.1385485 8.1385485 0 6 C-0.66 5.67 -1.32 5.34 -2 5 C-1.67 3.68 -1.34 2.36 -1 1 C-0.67 1.33 -0.34 1.66 0 2 C0 1.34 0 0.68 0 0 Z " fill="#CE4849" transform="translate(36,65)"/>
<path d="M0 0 C3.33864404 0.57562828 4.69102632 1.59063616 7 4 C7.99 4.33 8.98 4.66 10 5 C10 7.64 10 10.28 10 13 C9.67 13 9.34 13 9 13 C8.7215625 11.700625 8.7215625 11.700625 8.4375 10.375 C6.75209555 6.41796346 4.79047484 4.78810391 1.4609375 2.19921875 C0.97882813 1.80347656 0.49671875 1.40773437 0 1 C0 0.67 0 0.34 0 0 Z " fill="#941C1D" transform="translate(118,51)"/>
<path d="M0 0 C0 0.99 0 1.98 0 3 C-5.14285714 7 -5.14285714 7 -9 7 C-8.25675659 4.60510457 -7.52942646 3.29222384 -5.30859375 2.06640625 C-3.55926499 1.32780077 -1.78065851 0.65950315 0 0 Z " fill="#D93E3F" transform="translate(57,108)"/>
<path d="M0 0 C2 2 2 2 2.125 4.625 C2.08375 5.40875 2.0425 6.1925 2 7 C2.66 7 3.32 7 4 7 C4.33 8.98 4.66 10.96 5 13 C4.01 13 3.02 13 2 13 C1.66127487 11.58461283 1.32925376 10.16762037 1 8.75 C0.814375 7.96109375 0.62875 7.1721875 0.4375 6.359375 C0 4 0 4 0 0 Z " fill="#9A4849" transform="translate(7,96)"/>
<path d="M0 0 C0 0.99 0 1.98 0 3 C-3.29329826 4.96661413 -5.81296573 5.27055005 -9.625 5.25 C-10.58664063 5.25515625 -11.54828125 5.2603125 -12.5390625 5.265625 C-15 5 -15 5 -17 3 C-16.27554688 3.03480469 -15.55109375 3.06960937 -14.8046875 3.10546875 C-9.06001832 3.26631949 -4.98677034 3.23466184 0 0 Z " fill="#C72C2D" transform="translate(62,71)"/>
<path d="M0 0 C1.11889609 3.40174449 0.9845447 4.04342203 -0.3125 7.6875 C-2 11 -2 11 -4 12 C-6.3329866 12.04022391 -8.66706666 12.04320247 -11 12 C-11 11.67 -11 11.34 -11 11 C-9.741875 10.855625 -8.48375 10.71125 -7.1875 10.5625 C-4.95170303 10.13357299 -4.95170303 10.13357299 -3 9 C-1.38701861 6.12605596 -0.6360833 3.22017171 0 0 Z " fill="#FB5556" transform="translate(64,61)"/>
<path d="M0 0 C2.64 0.33 5.28 0.66 8 1 C8 1.66 8 2.32 8 3 C4.67465243 4.10844919 2.37817425 3.84454356 -1 3 C-0.67 2.01 -0.34 1.02 0 0 Z " fill="#982021" transform="translate(32,122)"/>
<path d="M0 0 C0.33 0.99 0.66 1.98 1 3 C0 4 0 4 -1.76586914 4.11352539 C-2.51473389 4.10828857 -3.26359863 4.10305176 -4.03515625 4.09765625 C-4.84404297 4.09443359 -5.65292969 4.09121094 -6.48632812 4.08789062 C-7.33646484 4.07951172 -8.18660156 4.07113281 -9.0625 4.0625 C-9.91650391 4.05798828 -10.77050781 4.05347656 -11.65039062 4.04882812 C-13.76695663 4.03700373 -15.88348685 4.01906769 -18 4 C-18 3.67 -18 3.34 -18 3 C-17.03578125 2.95101562 -16.0715625 2.90203125 -15.078125 2.8515625 C-13.81484375 2.77679688 -12.5515625 2.70203125 -11.25 2.625 C-9.99703125 2.55539063 -8.7440625 2.48578125 -7.453125 2.4140625 C-4.39001879 2.04676696 -2.58025734 1.60288714 0 0 Z " fill="#6D2527" transform="translate(152,104)"/>
<path d="M0 0 C0.33 0.99 0.66 1.98 1 3 C-3.3164922 3.76173392 -6.74433453 4.16063604 -11 3 C-11 2.34 -11 1.68 -11 1 C-5.555 0.505 -5.555 0.505 0 0 Z " fill="#DE5D57" transform="translate(152,90)"/>
<path d="M0 0 C0.33 0.99 0.66 1.98 1 3 C-0.32 3.33 -1.64 3.66 -3 4 C-3 4.66 -3 5.32 -3 6 C-4.65 6 -6.3 6 -8 6 C-3.375 1.125 -3.375 1.125 0 0 Z " fill="#891819" transform="translate(127,103)"/>
<path d="M0 0 C-3.41016497 2.86453858 -6.90694544 4.34703566 -11 6 C-8.67640938 -0.47285958 -6.6985661 -0.12404752 0 0 Z " fill="#D64849" transform="translate(45,49)"/>
<path d="M0 0 C3.66172475 0.62678171 6.8818995 1.64451846 10.3125 3.0625 C11.19550781 3.42472656 12.07851562 3.78695312 12.98828125 4.16015625 C13.65214844 4.43730469 14.31601563 4.71445312 15 5 C15 5.33 15 5.66 15 6 C8.89357521 6.78287497 4.99540421 4.10825151 0 1 C0 0.67 0 0.34 0 0 Z " fill="#AD8E8E" transform="translate(95,35)"/>
<path d="M0 0 C2.02910711 0.25327449 4.04962145 0.57730068 6.0625 0.9375 C7.16722656 1.13214844 8.27195312 1.32679687 9.41015625 1.52734375 C10.69212891 1.76130859 10.69212891 1.76130859 12 2 C12 2.33 12 2.66 12 3 C10.2300132 3.19532961 8.45895721 3.38098882 6.6875 3.5625 C5.70136719 3.66691406 4.71523437 3.77132812 3.69921875 3.87890625 C1 4 1 4 -2 3 C-1 1 -1 1 0 0 Z " fill="#9E292A" transform="translate(79,35)"/>
<path d="M0 0 C0.66 0.33 1.32 0.66 2 1 C-1.60957611 4.2910841 -4.12637153 5.54663921 -9 6 C-3.30379747 1.25316456 -3.30379747 1.25316456 0 0 Z " fill="#CE3638" transform="translate(58,110)"/>
<path d="M0 0 C4.95 0.99 4.95 0.99 10 2 C10 2.99 10 3.98 10 5 C6.05140217 4.4359146 3.29120954 3.2568294 0 1 C0 0.67 0 0.34 0 0 Z " fill="#742122" transform="translate(88,73)"/>
<path d="M0 0 C0.75 1.625 0.75 1.625 1 4 C-2.01157407 9.68852881 -2.01157407 9.68852881 -5.14453125 10.67578125 C-5.75683594 10.78277344 -6.36914062 10.88976562 -7 11 C-6.57847656 10.37351562 -6.15695313 9.74703125 -5.72265625 9.1015625 C-4.90087891 7.87566406 -4.90087891 7.87566406 -4.0625 6.625 C-3.24458984 5.40683594 -3.24458984 5.40683594 -2.41015625 4.1640625 C-0.98906121 2.07280816 -0.98906121 2.07280816 0 0 Z " fill="#E84647" transform="translate(106,60)"/>
<path d="M0 0 C0.8353125 0.37125 0.8353125 0.37125 1.6875 0.75 C1.6875 1.74 1.6875 2.73 1.6875 3.75 C-1.2825 3.75 -4.2525 3.75 -7.3125 3.75 C-2.88173077 -0.31153846 -2.88173077 -0.31153846 0 0 Z " fill="#AB2B2D" transform="translate(59.3125,37.25)"/>
<path d="M0 0 C2.78211944 0.37596209 4.5879284 0.67318459 6.8125 2.4375 C8 4 8 4 8 6 C5.03 5.505 5.03 5.505 2 5 C2 4.01 2 3.02 2 2 C1.34 1.34 0.68 0.68 0 0 Z " fill="#CB3B3C" transform="translate(39,71)"/>
<path d="M0 0 C1.9955516 3.99110319 2.19546065 5.69986566 2 10 C0.68 10.33 -0.64 10.66 -2 11 C-1.34 7.37 -0.68 3.74 0 0 Z " fill="#DC7673" transform="translate(151,78)"/>
<path d="M0 0 C1.32 0 2.64 0 4 0 C4 0.99 4 1.98 4 3 C3.34 3 2.68 3 2 3 C1.34 4.65 0.68 6.3 0 8 C-1.09658936 4.71023192 -0.79953138 3.28696233 0 0 Z " fill="#D1494B" transform="translate(18,62)"/>
<path d="M0 0 C0.598125 0.350625 1.19625 0.70125 1.8125 1.0625 C1.8125 2.0525 1.8125 3.0425 1.8125 4.0625 C0.1625 3.7325 -1.4875 3.4025 -3.1875 3.0625 C-3.1875 2.4025 -3.1875 1.7425 -3.1875 1.0625 C-3.8475 0.7325 -4.5075 0.4025 -5.1875 0.0625 C-2.1875 -0.9375 -2.1875 -0.9375 0 0 Z " fill="#9F1C1D" transform="translate(66.1875,80.9375)"/>
<path d="M0 0 C1.48117801 0.28127421 2.95993249 0.57533732 4.4375 0.875 C5.67306641 1.11863281 5.67306641 1.11863281 6.93359375 1.3671875 C7.61550781 1.57601562 8.29742187 1.78484375 9 2 C9.33 2.66 9.66 3.32 10 4 C7.03 3.67 4.06 3.34 1 3 C0.67 2.01 0.34 1.02 0 0 Z " fill="#FD5F5F" transform="translate(41,69)"/>
<path d="M0 0 C0.33 0 0.66 0 1 0 C1 4.62 1 9.24 1 14 C-0.32 13.34 -1.64 12.68 -3 12 C-2.01 11.67 -1.02 11.34 0 11 C0 7.37 0 3.74 0 0 Z " fill="#866867" transform="translate(153,57)"/>
<path d="M0 0 C2.15546298 3.23319447 2.68074747 5.16896958 3 9 C2.34 9.99 1.68 10.98 1 12 C0.03929566 9.11788698 -0.10581883 7.30149956 -0.0625 4.3125 C-0.05347656 3.50425781 -0.04445313 2.69601563 -0.03515625 1.86328125 C-0.02355469 1.24839844 -0.01195313 0.63351563 0 0 Z " fill="#D23132" transform="translate(106,51)"/>
<path d="M0 0 C3.07375376 1.53687688 6.01980715 3.28914855 9 5 C5.59068103 6.13643966 4.99664544 5.86747764 1.8125 4.5625 C1.09707031 4.27503906 0.38164063 3.98757812 -0.35546875 3.69140625 C-0.89816406 3.46324219 -1.44085938 3.23507813 -2 3 C-1.34 2.67 -0.68 2.34 0 2 C0 1.34 0 0.68 0 0 Z " fill="#985C5D" transform="translate(94,34)"/>
<path d="M0 0 C2.97 0.495 2.97 0.495 6 1 C5.01 1.495 5.01 1.495 4 2 C4.33 3.32 4.66 4.64 5 6 C2.5 4.6875 2.5 4.6875 0 3 C0 2.01 0 1.02 0 0 Z " fill="#B32C2C" transform="translate(43,76)"/>
<path d="M0 0 C1.32 0 2.64 0 4 0 C4 0.66 4 1.32 4 2 C-0.455 3.485 -0.455 3.485 -5 5 C-5.33 4.34 -5.66 3.68 -6 3 C-5.195625 2.690625 -4.39125 2.38125 -3.5625 2.0625 C-1.10919595 1.23664655 -1.10919595 1.23664655 0 0 Z " fill="#7E2728" transform="translate(35,45)"/>
<path d="M0 0 C4.43090471 1.20842856 6.98112756 2.51668565 10 6 C5.56909529 4.79157144 3.01887244 3.48331435 0 0 Z " fill="#9C5757" transform="translate(115,46)"/>
<path d="M0 0 C0.66 0.33 1.32 0.66 2 1 C0.515 3.475 0.515 3.475 -1 6 C-2.32 5.67 -3.64 5.34 -5 5 C-3.35 3.35 -1.7 1.7 0 0 Z " fill="#A43538" transform="translate(49,38)"/>
<path d="M0 0 C0.66 0.99 1.32 1.98 2 3 C1.34 4.32 0.68 5.64 0 7 C-0.66 7 -1.32 7 -2 7 C-1.34 4.69 -0.68 2.38 0 0 Z " fill="#932122" transform="translate(74,99)"/>
<path d="M0 0 C0.66 0.66 1.32 1.32 2 2 C0.70700306 4.88437779 -0.65941363 6.87219421 -3 9 C-2.25 2.25 -2.25 2.25 0 0 Z " fill="#B95D5E" transform="translate(13,56)"/>
</svg>
