<?xml version="1.0" encoding="UTF-8"?>
<svg version="1.1" xmlns="http://www.w3.org/2000/svg" width="160" height="160">
<path d="M0 0 C3.16480199 1.63891532 5.19905653 3.06556595 7.5 5.75 C9.04287465 7.25367499 9.04287465 7.25367499 11.8125 7.4375 C15.7805457 6.89286628 17.70942137 5.25824024 21 3 C28.37475414 -0.71849417 36.9208467 -1.12877059 45 0 C50.69569288 3.08707865 50.69569288 3.08707865 52 7 C52.7425 6.835 53.485 6.67 54.25 6.5 C59.46838047 5.80421594 64.74778991 5.53610719 70 6 C70.99 6.99 70.99 6.99 72 8 C71.74522532 11.82162016 69.65494013 13.45168398 67 16 C67.90363281 16.19335938 68.80726563 16.38671875 69.73828125 16.5859375 C70.91777344 16.84632812 72.09726563 17.10671875 73.3125 17.375 C74.48425781 17.63023438 75.65601563 17.88546875 76.86328125 18.1484375 C80 19 80 19 83 21 C83 21.66 83 22.32 83 23 C82.11957031 23.31453125 81.23914063 23.6290625 80.33203125 23.953125 C78.58986328 24.59507813 78.58986328 24.59507813 76.8125 25.25 C75.66394531 25.66765625 74.51539063 26.0853125 73.33203125 26.515625 C67.76356147 28.99630321 64.20729356 32.03665048 61.734375 37.5703125 C58.66063446 47.73981577 61.96931875 57.8927364 64.80859375 67.71484375 C67.97724413 78.82381597 69.03443312 91.3999791 64.0703125 102.08203125 C63.12856806 103.7696098 62.07199368 105.39200948 61 107 C62.14855469 107.02578125 63.29710938 107.0515625 64.48046875 107.078125 C73.93254272 107.38622282 83.33890838 107.75005657 92 112 C92.33 112.99 92.66 113.98 93 115 C92.37996094 114.855625 91.75992188 114.71125 91.12109375 114.5625 C80.69049907 112.37617448 69.13232115 110.60834234 59.53515625 116.16796875 C55.7411947 118.90967594 52.1784807 121.91456561 48.72802734 125.07739258 C42.27948521 130.89000582 36.64373414 132.39894158 28 132 C27.01 135.63 26.02 139.26 25 143 C26.32 143.33 27.64 143.66 29 144 C28.67 144.66 28.34 145.32 28 146 C27.01 146 26.02 146 25 146 C25 150.29 25 154.58 25 159 C21.37 159 17.74 159 14 159 C14 158.34 14 157.68 14 157 C13.01 156.67 12.02 156.34 11 156 C11 155.34 11 154.68 11 154 C11.66 154 12.32 154 13 154 C13.495 147.565 13.495 147.565 14 141 C12.35 140.67 10.7 140.34 9 140 C9 139.34 9 138.68 9 138 C10.32 138 11.64 138 13 138 C12.34 136.02 11.68 134.04 11 132 C9.76636719 131.87044922 9.76636719 131.87044922 8.5078125 131.73828125 C-6.39973756 129.8619268 -16.20923133 122.49322713 -27.5234375 113.078125 C-34.03464755 107.7087832 -39.44722307 103.43821294 -48 102 C-49.66675677 101.66711749 -51.33344608 101.33389657 -53 101 C-53 100.34 -53 99.68 -53 99 C-44.08791171 98.48992817 -37.16926356 99.3328356 -29 103 C-29.2165625 102.31035156 -29.433125 101.62070313 -29.65625 100.91015625 C-30.07390625 99.50056641 -30.07390625 99.50056641 -30.5 98.0625 C-30.7784375 97.14597656 -31.056875 96.22945313 -31.34375 95.28515625 C-32.85336703 87.72808526 -31.80489033 80.76269528 -30.1875 73.3125 C-30.00735352 72.43964355 -29.82720703 71.56678711 -29.64160156 70.66748047 C-28.836471 66.7921662 -27.99573035 62.92949356 -27.06640625 59.08203125 C-25.19879784 51.17373728 -23.41731281 43.09489051 -25 35 C-27.16691547 31.60249055 -29.77483196 29.37521401 -33 27 C-37.61961387 23.40464441 -40.59789808 20.38070831 -43 15 C-43.08091099 11.52082738 -42.30845008 10.38042177 -40.125 7.6875 C-35.38611648 5.1285029 -31.27072479 5.18860343 -26 6 C-21.85149963 7.38443026 -17.92726662 9.08091683 -14 11 C-14.2475 9.9275 -14.495 8.855 -14.75 7.75 C-15 4 -15 4 -13.75 1.5625 C-9.32892223 -0.94947601 -4.95636243 -0.72549653 0 0 Z " fill="#B10612" transform="translate(61,1)"/>
<path d="M0 0 C0.5775 0.185625 1.155 0.37125 1.75 0.5625 C3.92777543 1.15470837 3.92777543 1.15470837 5.7578125 0.5390625 C8.58562447 -0.14079473 11.21861205 -0.16964749 14.125 -0.1875 C15.17945312 -0.20167969 16.23390625 -0.21585937 17.3203125 -0.23046875 C20 0 20 0 22 2 C21.74522532 5.82162016 19.65494013 7.45168398 17 10 C17.90363281 10.19335938 18.80726563 10.38671875 19.73828125 10.5859375 C20.91777344 10.84632812 22.09726563 11.10671875 23.3125 11.375 C24.48425781 11.63023438 25.65601563 11.88546875 26.86328125 12.1484375 C30 13 30 13 33 15 C33 15.66 33 16.32 33 17 C32.11957031 17.31453125 31.23914063 17.6290625 30.33203125 17.953125 C29.17058594 18.38109375 28.00914062 18.8090625 26.8125 19.25 C25.66394531 19.66765625 24.51539063 20.0853125 23.33203125 20.515625 C17.76356147 22.99630321 14.20729356 26.03665048 11.734375 31.5703125 C8.66063446 41.73981577 11.96931875 51.8927364 14.80859375 61.71484375 C17.91465461 72.60438336 19.19178249 85.54298077 14.12890625 96.00390625 C11.27509495 101.04991861 11.27509495 101.04991861 9 103 C5.4375 103.25 5.4375 103.25 2 103 C1.01 103.33 0.02 103.66 -1 104 C-2.134375 104.309375 -3.26875 104.61875 -4.4375 104.9375 C-7.23157876 105.77082174 -9.45137 106.66126908 -12 108 C-12.00410889 107.34104736 -12.00821777 106.68209473 -12.01245117 106.00317383 C-12.04911795 87.86573993 -12.04911795 87.86573993 -18 71 C-18.73669922 69.62134766 -18.73669922 69.62134766 -19.48828125 68.21484375 C-20.90193557 65.7345562 -22.40300389 63.36528072 -24 61 C-25.051875 59.4221875 -25.051875 59.4221875 -26.125 57.8125 C-28.61501099 54.90612651 -31.73340054 53.38644298 -35.0625 51.5625 C-42.91328195 47.16567727 -44.74248242 42.35797902 -47.484375 34.015625 C-48 32 -48 32 -48 29 C-48.66 29 -49.32 29 -50 29 C-51.0063655 26.56495491 -52.00526413 24.12729136 -53 21.6875 C-53.42925781 20.65206055 -53.42925781 20.65206055 -53.8671875 19.59570312 C-55.08910744 16.58454326 -56 14.28113016 -56 11 C-43.29032258 23.12903226 -43.29032258 23.12903226 -41 30 C-37.64820682 28.88273561 -36.98292595 28.04550033 -34.8125 25.375 C-31.22517612 21.12846703 -27.26823283 17.54762209 -23 14 C-25.31 14.66 -27.62 15.32 -30 16 C-29.67 15.34 -29.34 14.68 -29 14 C-28.34 14 -27.68 14 -27 14 C-27 13.34 -27 12.68 -27 12 C-25.37446717 10.29319053 -23.70884005 8.62339805 -22 7 C-22.99 7 -23.98 7 -25 7 C-25 6.34 -25 5.68 -25 5 C-20.70374369 5.48821094 -18.3384591 6.29294512 -15 9 C-14.32453125 8.6390625 -13.6490625 8.278125 -12.953125 7.90625 C-12.06109375 7.4421875 -11.1690625 6.978125 -10.25 6.5 C-9.36828125 6.0359375 -8.4865625 5.571875 -7.578125 5.09375 C-5 4 -5 4 -1 4 C-0.67 2.68 -0.34 1.36 0 0 Z " fill="#CA0110" transform="translate(111,7)"/>
<path d="M0 0 C4.47674617 4.80337572 5.77310927 9.90316254 7.53515625 16.0546875 C10.83861633 26.8228723 17.51629243 33.92686828 25.5 41.625 C27.15861412 43.23976273 28.81491342 44.85690697 30.46875 46.4765625 C31.25048584 47.23952637 32.03222168 48.00249023 32.83764648 48.78857422 C34.80035946 50.79582884 36.56256233 52.85810887 38.31640625 55.046875 C41.16232575 58.17862921 41.51622771 58.4049107 45.4375 58.625 C53.02616479 58.31754028 58.81614899 53.87117499 64.6875 49.5625 C77.85584784 40.33771945 91.20015625 37.68230185 107.15429688 40.36181641 C110.92601692 41.19534058 114.57098861 42.21069039 118 44 C118.33 44.99 118.66 45.98 119 47 C118.37996094 46.855625 117.75992188 46.71125 117.12109375 46.5625 C106.69049907 44.37617448 95.13232115 42.60834234 85.53515625 48.16796875 C81.7411947 50.90967594 78.1784807 53.91456561 74.72802734 57.07739258 C68.27948521 62.89000582 62.64373414 64.39894158 54 64 C53.01 67.63 52.02 71.26 51 75 C52.98 75.495 52.98 75.495 55 76 C54.67 76.66 54.34 77.32 54 78 C53.01 78 52.02 78 51 78 C51 82.29 51 86.58 51 91 C47.37 91 43.74 91 40 91 C40 90.34 40 89.68 40 89 C38.515 88.505 38.515 88.505 37 88 C37 87.34 37 86.68 37 86 C37.66 86 38.32 86 39 86 C39.33 81.71 39.66 77.42 40 73 C38.35 72.67 36.7 72.34 35 72 C35 71.34 35 70.68 35 70 C36.32 70 37.64 70 39 70 C38.34 68.02 37.68 66.04 37 64 C36.17757812 63.91363281 35.35515625 63.82726562 34.5078125 63.73828125 C19.60026244 61.8619268 9.79076867 54.49322713 -1.5234375 45.078125 C-8.03464755 39.7087832 -13.44722307 35.43821294 -22 34 C-23.66675677 33.66711749 -25.33344608 33.33389657 -27 33 C-27 32.34 -27 31.68 -27 31 C-17.19754456 30.27805156 -9.91524099 31.91445585 -1 36 C-1.00785522 35.16359985 -1.00785522 35.16359985 -1.01586914 34.31030273 C-1.10910121 22.82151517 -0.98506516 11.45138246 0 0 Z " fill="#4B8B28" transform="translate(35,69)"/>
<path d="M0 0 C0 0.66 0 1.32 0 2 C-0.88042969 2.31453125 -1.76085937 2.6290625 -2.66796875 2.953125 C-3.82941406 3.38109375 -4.99085938 3.8090625 -6.1875 4.25 C-7.91033203 4.87648438 -7.91033203 4.87648438 -9.66796875 5.515625 C-15.23643853 7.99630321 -18.79270644 11.03665048 -21.265625 16.5703125 C-24.33936554 26.73981577 -21.03068125 36.8927364 -18.19140625 46.71484375 C-15.0746443 57.64190031 -13.85204236 70.49073091 -18.8515625 81.00390625 C-20.34598722 83.60135874 -21.87719425 85.87719425 -24 88 C-24.66 88 -25.32 88 -26 88 C-26 86.02 -26 84.04 -26 82 C-27.98 82.495 -27.98 82.495 -30 83 C-30 82.34 -30 81.68 -30 81 C-30.886875 81.350625 -31.77375 81.70125 -32.6875 82.0625 C-36.06203126 83.01755602 -37.69686152 82.97151132 -41 82 C-41.33 79.03 -41.66 76.06 -42 73 C-42.99 73.495 -42.99 73.495 -44 74 C-44.08636719 73.17757812 -44.17273438 72.35515625 -44.26171875 71.5078125 C-45.12655268 64.63674661 -46.44844826 59.15747829 -49.87890625 53.12109375 C-50.96341574 51.06921692 -51.54280584 49.26542275 -52 47 C-50.62437146 48.28965176 -49.29233607 49.62689293 -48 51 C-48 51.66 -48 52.32 -48 53 C-47.34 53 -46.68 53 -46 53 C-46.08701172 52.12601563 -46.08701172 52.12601563 -46.17578125 51.234375 C-46.77481623 40.34905366 -41.85323392 30.293626 -35 22 C-29.64064762 16.40894629 -23.50345434 11.74735468 -17.3125 7.125 C-16.69511963 6.6604541 -16.07773926 6.1959082 -15.44165039 5.71728516 C-5.22300571 -1.7410019 -5.22300571 -1.7410019 0 0 Z " fill="#FC2C39" transform="translate(144,22)"/>
<path d="M0 0 C4.93706236 3.9085077 8.78962653 8.0014879 12.63671875 12.9765625 C14.41928578 15.25706974 16.22718876 17.49055035 18.08203125 19.7109375 C37.00584817 42.43009133 37.00584817 42.43009133 39.47265625 53.03125 C40.11716732 55.43742466 41.21839058 57.32947877 42.4375 59.5 C45.35497324 65.14944241 46.27830946 70.73098664 47 77 C47.66 76.34 48.32 75.68 49 75 C49 78.63 49 82.26 49 86 C52.63 85.67 56.26 85.34 60 85 C60 85.66 60 86.32 60 87 C61.98 86.505 61.98 86.505 64 86 C64 87.98 64 89.96 64 92 C63.236875 91.979375 62.47375 91.95875 61.6875 91.9375 C58.89814214 91.87057159 58.89814214 91.87057159 56 93 C54.865625 93.309375 53.73125 93.61875 52.5625 93.9375 C49.76842124 94.77082174 47.54863 95.66126908 45 97 C44.99589111 96.34104736 44.99178223 95.68209473 44.98754883 95.00317383 C44.95088205 76.86573993 44.95088205 76.86573993 39 60 C38.50886719 59.08089844 38.01773438 58.16179687 37.51171875 57.21484375 C36.09806443 54.7345562 34.59699611 52.36528072 33 50 C31.948125 48.4221875 31.948125 48.4221875 30.875 46.8125 C28.38498901 43.90612651 25.26659946 42.38644298 21.9375 40.5625 C14.08671805 36.16567727 12.25751758 31.35797902 9.515625 23.015625 C9 21 9 21 9 18 C8.34 18 7.68 18 7 18 C6.0197729 15.56292162 5.04077829 13.12536055 4.0625 10.6875 C3.64581055 9.65206055 3.64581055 9.65206055 3.22070312 8.59570312 C2.07859872 5.74732227 0.97069769 2.91209306 0 0 Z " fill="#E40215" transform="translate(54,18)"/>
<path d="M0 0 C2.49078651 2.49078651 2.99593216 4.59180239 4.0625 7.9375 C4.40410156 8.99839844 4.74570312 10.05929688 5.09765625 11.15234375 C5.54431641 12.56193359 5.54431641 12.56193359 6 14 C6.33 14.99 6.66 15.98 7 17 C7.825 17.33 8.65 17.66 9.5 18 C10.325 18.33 11.15 18.66 12 19 C12.33 19.99 12.66 20.98 13 22 C13.87398437 21.68289062 13.87398437 21.68289062 14.765625 21.359375 C17 21 17 21 18.921875 21.890625 C19.52515625 22.33921875 20.1284375 22.7878125 20.75 23.25 C21.36359375 23.68828125 21.9771875 24.1265625 22.609375 24.578125 C24 26 24 26 24 29 C24.66 29 25.32 29 26 29 C26 29.66 26 30.32 26 31 C26.99 31.33 27.98 31.66 29 32 C30.70993434 33.6222454 32.37347684 35.29413425 34 37 C34.78375 37.680625 35.5675 38.36125 36.375 39.0625 C36.91125 39.701875 37.4475 40.34125 38 41 C37.75 43.25 37.75 43.25 37 45 C36.34 45 35.68 45 35 45 C34.505 45.99 34.505 45.99 34 47 C33.67 46.01 33.34 45.02 33 44 C32.17757812 43.91363281 31.35515625 43.82726562 30.5078125 43.73828125 C20.1326393 42.43239917 12.45178943 39.00521881 4 33 C4.99 32.505 4.99 32.505 6 32 C5.47599609 30.87464844 5.47599609 30.87464844 4.94140625 29.7265625 C0.4301018 19.57932245 -0.21004919 10.9692357 0 0 Z " fill="#386D25" transform="translate(39,89)"/>
<path d="M0 0 C0 0.66 0 1.32 0 2 C-0.88042969 2.31453125 -1.76085937 2.6290625 -2.66796875 2.953125 C-3.82941406 3.38109375 -4.99085938 3.8090625 -6.1875 4.25 C-7.33605469 4.66765625 -8.48460937 5.0853125 -9.66796875 5.515625 C-15.23643853 7.99630321 -18.79270644 11.03665048 -21.265625 16.5703125 C-24.33936554 26.73981577 -21.03068125 36.8927364 -18.19140625 46.71484375 C-15.09771246 57.56751212 -13.82969576 70.65939153 -19 81 C-19.66 81 -20.32 81 -21 81 C-21.04898438 80.38511719 -21.09796875 79.77023438 -21.1484375 79.13671875 C-21.22320312 78.32847656 -21.29796875 77.52023438 -21.375 76.6875 C-21.44460937 75.88699219 -21.51421875 75.08648437 -21.5859375 74.26171875 C-21.89564426 71.72775559 -21.89564426 71.72775559 -24 69 C-26.35807958 62.14410197 -26.21818092 55.16360682 -26 48 C-26.33 48 -26.66 48 -27 48 C-27.17439217 43.73179948 -27.30067865 39.46553888 -27.38452148 35.19482422 C-27.41950365 33.74556316 -27.46710991 32.29654519 -27.52807617 30.84814453 C-28.08444606 17.28019991 -28.08444606 17.28019991 -23.92578125 12.30859375 C-21.99829102 10.53076172 -21.99829102 10.53076172 -20 9 C-19.392771 8.52965332 -18.78554199 8.05930664 -18.15991211 7.57470703 C-16.39885323 6.31343069 -14.606428 5.17756227 -12.75 4.0625 C-12.13898438 3.67771484 -11.52796875 3.29292969 -10.8984375 2.89648438 C-4.05798465 -1.35266155 -4.05798465 -1.35266155 0 0 Z " fill="#FC6468" transform="translate(144,22)"/>
<path d="M0 0 C0.79277344 0.02449219 1.58554688 0.04898437 2.40234375 0.07421875 C4.8628623 0.26881161 7.21288139 0.73833848 9.625 1.25 C10.285 0.92 10.945 0.59 11.625 0.25 C12.285 0.58 12.945 0.91 13.625 1.25 C13.625 1.91 13.625 2.57 13.625 3.25 C14.615 3.25 15.605 3.25 16.625 3.25 C15.8125 5.1875 15.8125 5.1875 14.625 7.25 C13.635 7.58 12.645 7.91 11.625 8.25 C11.625 8.91 11.625 9.57 11.625 10.25 C13.935 9.59 16.245 8.93 18.625 8.25 C16.47846491 10.45616107 14.22875315 12.45563984 11.875 14.4375 C8.22512854 17.58324557 5.17197031 20.98574025 2.16796875 24.74609375 C0.625 26.25 0.625 26.25 -2.375 26.25 C-4.23312283 24.11974265 -5.90393524 22.0260903 -7.5625 19.75 C-8.02591797 19.12996094 -8.48933594 18.50992187 -8.96679688 17.87109375 C-10.1114137 16.33707119 -11.24432941 14.79433057 -12.375 13.25 C-11.6118139 11.64218107 -10.83912942 10.03886862 -10.0625 8.4375 C-9.63324219 7.54417969 -9.20398437 6.65085937 -8.76171875 5.73046875 C-6.40205871 1.5096684 -4.95605885 -0.16914877 0 0 Z " fill="#C2000E" transform="translate(72.375,10.75)"/>
<path d="M0 0 C3.27785508 3.65033861 4.69973614 6.53379944 5.75 11.3125 C5.99234375 12.38113281 6.2346875 13.44976562 6.484375 14.55078125 C6.65453125 15.35902344 6.8246875 16.16726562 7 17 C5.68 17 4.36 17 3 17 C2.67 20.63 2.34 24.26 2 28 C2.66 28 3.32 28 4 28 C4.33 27.01 4.66 26.02 5 25 C4.93039063 25.85658203 4.93039063 25.85658203 4.859375 26.73046875 C4.51670286 34.42835368 6.55966527 40.76720068 9 48 C9.35073256 49.32886251 9.69261458 50.66044668 10 52 C6.26919495 51.40375262 4.23301732 49.78616119 1.375 47.375 C0.49199219 46.65699219 -0.39101563 45.93898437 -1.30078125 45.19921875 C-3.00820953 43.80807241 -4.71413534 42.41507817 -6.41796875 41.01953125 C-12.86558654 36.08652514 -19.03476406 34.31089306 -27 33 C-27 32.34 -27 31.68 -27 31 C-17.19754456 30.27805156 -9.91524099 31.91445585 -1 36 C-1.00785522 35.16359985 -1.00785522 35.16359985 -1.01586914 34.31030273 C-1.10910121 22.82151517 -0.98506516 11.45138246 0 0 Z " fill="#4C8A3A" transform="translate(35,69)"/>
<path d="M0 0 C1.2684375 -0.02835937 2.536875 -0.05671875 3.84375 -0.0859375 C8.26111718 0.47095281 10.04628984 1.67812138 13.5 4.375 C13.125 7.125 13.125 7.125 11.5 10.375 C8.31254571 12.15404426 4.95739416 13.23463011 1.5 14.375 C-0.17077815 15.0312946 -1.83873493 15.69498486 -3.5 16.375 C-3.90089844 15.90578125 -4.30179688 15.4365625 -4.71484375 14.953125 C-6.82901302 13.08414385 -8.31680569 12.68589966 -11.0625 12.125 C-11.84753906 11.95484375 -12.63257812 11.7846875 -13.44140625 11.609375 C-15.5614263 11.17841245 -15.5614263 11.17841245 -17.5 12.375 C-19.17299959 11.72438905 -20.83859237 11.05466676 -22.5 10.375 C-24.4924325 9.99906934 -26.4918674 9.65520455 -28.5 9.375 C-28.5 9.045 -28.5 8.715 -28.5 8.375 C-27.015 8.00375 -27.015 8.00375 -25.5 7.625 C-21.94270482 6.61889631 -18.8340024 5.13082371 -15.58984375 3.375 C-10.36303888 0.87394945 -5.78955964 0.05883699 0 0 Z " fill="#A4010C" transform="translate(98.5,0.625)"/>
<path d="M0 0 C23.70400125 -0.85079167 23.70400125 -0.85079167 33 4 C33.495 5.485 33.495 5.485 34 7 C33.37996094 6.855625 32.75992188 6.71125 32.12109375 6.5625 C21.69049907 4.37617448 10.13232115 2.60834234 0.53515625 8.16796875 C-3.2588053 10.90967594 -6.8215193 13.91456561 -10.27197266 17.07739258 C-14.8198631 21.17678863 -19.14762396 23.84441585 -25.4375 24.1875 C-26.7059375 24.0946875 -26.7059375 24.0946875 -28 24 C-27.5244482 19.7200338 -25.08639827 17.80581661 -22 15 C-21.278125 14.34 -20.55625 13.68 -19.8125 13 C-16.48153591 10.63131443 -12.98283375 9.00095371 -9.3046875 7.23828125 C-6.72433653 5.85188929 -4.98012769 4.1385379 -3 2 C-2.01 2 -1.02 2 0 2 C0 1.34 0 0.68 0 0 Z " fill="#63973B" transform="translate(120,109)"/>
<path d="M0 0 C7.01209083 2.54559199 10.21912854 11.71324459 13.59375 17.94140625 C18.38230455 28.39548901 17.92610581 39.69418819 18 51 C18.74894531 50.51789063 19.49789062 50.03578125 20.26953125 49.5390625 C23.52967407 47.70144266 26.3088412 47.41786703 30 47 C30.66 46.67 31.32 46.34 32 46 C32.66 46.66 33.32 47.32 34 48 C33.45214844 48.16113281 32.90429688 48.32226562 32.33984375 48.48828125 C25.39257338 50.87181629 20.07177423 54.62066492 14.35522461 59.11450195 C8.72795394 63.47218269 3.38886231 65.62040531 -3.80859375 65.53515625 C-7.8409112 64.55043701 -9.82537434 61.34295395 -12 58 C-8 58 -8 58 -6 59 C-4.9275 59 -3.855 59 -2.75 59 C1 59 1 59 4.25 59.6875 C6.93987708 60.28330391 6.93987708 60.28330391 8.6875 58.9375 C16.02817001 48.10127284 14.03238242 36.27781708 12 24 C11.81179687 22.86304687 11.62359375 21.72609375 11.4296875 20.5546875 C11.28789063 19.71164063 11.14609375 18.86859375 11 18 C10.34 18 9.68 18 9 18 C7.8515625 16.4609375 7.8515625 16.4609375 6.625 14.375 C5.05481113 11.73782819 3.47196612 9.25789834 1.6875 6.75 C0 4 0 4 0 0 Z " fill="#A4030E" transform="translate(82,63)"/>
<path d="M0 0 C0.9375 2.625 0.9375 2.625 1 6 C-0.52768199 7.64877874 -2.23872228 8.88479951 -4.0234375 10.25 C-12.10412777 17.40444514 -16.21357507 29.70054079 -16.921875 40.1640625 C-16.94765625 40.76992187 -16.9734375 41.37578125 -17 42 C-17.66 42 -18.32 42 -19 42 C-21.79936797 37.80094804 -23.72147112 34.55551083 -23.46484375 29.3203125 C-22.23287497 23.17082129 -19.46386073 17.1957911 -16 12 C-15.34 12 -14.68 12 -14 12 C-13.7421875 11.41605469 -13.484375 10.83210938 -13.21875 10.23046875 C-11.90301636 7.82250751 -10.45841408 6.22527307 -8.5 4.3125 C-7.8915625 3.71050781 -7.283125 3.10851563 -6.65625 2.48828125 C-4.24238386 0.31921757 -3.31382274 0 0 0 Z " fill="#9C010B" transform="translate(115,33)"/>
<path d="M0 0 C3.6092012 3.24828108 5.38751246 6.11770571 6.3984375 10.875 C7.09431987 13.33318189 8.18703532 15.27365339 9.4375 17.5 C12.35497324 23.14944241 13.27830946 28.73098664 14 35 C14.66 34.34 15.32 33.68 16 33 C16 36.63 16 40.26 16 44 C21.445 43.505 21.445 43.505 27 43 C27 43.66 27 44.32 27 45 C28.98 44.505 28.98 44.505 31 44 C31 45.98 31 47.96 31 50 C30.236875 49.979375 29.47375 49.95875 28.6875 49.9375 C25.89814214 49.87057159 25.89814214 49.87057159 23 51 C21.865625 51.309375 20.73125 51.61875 19.5625 51.9375 C16.76842124 52.77082174 14.54863 53.66126908 12 55 C11.99589111 54.34104736 11.99178223 53.68209473 11.98754883 53.00317383 C11.79181008 35.06880646 10.2003593 20.23585701 -1.7421875 5.91015625 C-2.15726562 5.27980469 -2.57234375 4.64945312 -3 4 C-2.67 3.01 -2.34 2.02 -2 1 C-1.34 0.67 -0.68 0.34 0 0 Z " fill="#F81B30" transform="translate(87,60)"/>
<path d="M0 0 C3.92743046 3.92743046 3.08004603 11.33629219 3.1875 16.6875 C3.03216612 33.95175081 3.03216612 33.95175081 -1 40 C-2.45032682 47.58913151 -2.11150542 55.30237946 -2.0625 63 C-2.05747487 64.36067544 -2.05291376 65.72135267 -2.04882812 67.08203125 C-2.03710459 70.38806725 -2.02069427 73.69401001 -2 77 C-4 76 -4 76 -4.8515625 73.8125 C-5.10679688 72.884375 -5.36203125 71.95625 -5.625 71 C-5.88539062 70.0925 -6.14578125 69.185 -6.4140625 68.25 C-7.77796755 60.68487334 -6.80351255 53.7563488 -5.1875 46.3125 C-5.00735352 45.43964355 -4.82720703 44.56678711 -4.64160156 43.66748047 C-3.836471 39.7921662 -2.99573035 35.92949356 -2.06640625 32.08203125 C1.30034095 18.80025245 1.30034095 18.80025245 -1.125 5.7890625 C-2.57420437 3.93644836 -2.57420437 3.93644836 -5 2 C-3.68 2 -2.36 2 -1 2 C-0.67 1.34 -0.34 0.68 0 0 Z " fill="#BB1722" transform="translate(36,28)"/>
<path d="M0 0 C1.0725 0.00515625 2.145 0.0103125 3.25 0.015625 C4.85875 0.00789062 4.85875 0.00789062 6.5 0 C9.25 0.265625 9.25 0.265625 11.25 2.265625 C11.02821157 6.25781672 8.60495705 8.31217239 5.875 11.015625 C5.08351563 11.81484375 4.29203125 12.6140625 3.4765625 13.4375 C1.25 15.265625 1.25 15.265625 -1.75 15.265625 C-2.018125 15.843125 -2.28625 16.420625 -2.5625 17.015625 C-3.76719859 19.2982118 -5.15798115 21.2394192 -6.75 23.265625 C-8.07 22.935625 -9.39 22.605625 -10.75 22.265625 C-11.73120464 19.21298836 -11.73120464 17.31826164 -10.75 14.265625 C-10.09 14.265625 -9.43 14.265625 -8.75 14.265625 C-8.42 13.275625 -8.09 12.285625 -7.75 11.265625 C-5.97265625 9.73046875 -5.97265625 9.73046875 -3.8125 8.203125 C-1.60557073 6.62903571 0.32911204 5.18651296 2.25 3.265625 C-0.06 2.935625 -2.37 2.605625 -4.75 2.265625 C-2.75 0.265625 -2.75 0.265625 0 0 Z " fill="#FE1527" transform="translate(121.75,6.734375)"/>
<path d="M0 0 C1.65 0.33 3.3 0.66 5 1 C6.42944336 3.3425293 6.42944336 3.3425293 7.65234375 6.38671875 C11.01552062 13.65191216 15.7729526 18.39258366 21.5625 23.8125 C32.85124295 34.57074224 32.85124295 34.57074224 37 41 C33.04322598 39.32598022 30.15535787 36.86850715 27 34 C27 33.34 27 32.68 27 32 C26.34 32 25.68 32 25 32 C24.67 31.01 24.34 30.02 24 29 C20.31082874 26.13064457 18.75567676 25 14 25 C12 23.25 12 23.25 10 21 C9.34515625 20.4225 8.6903125 19.845 8.015625 19.25 C5.58923399 16.5414705 4.80438412 14.21440496 3.75 10.75 C3.24726562 9.13351563 3.24726562 9.13351563 2.734375 7.484375 C2.49203125 6.66453125 2.2496875 5.8446875 2 5 C1.67 6.98 1.34 8.96 1 11 C0.34 11 -0.32 11 -1 11 C-0.67 7.37 -0.34 3.74 0 0 Z " fill="#687E26" transform="translate(38,86)"/>
<path d="M0 0 C4.29634755 0.20458798 7.80909177 1.02864857 11.9375 2.1875 C11.9375 2.8475 11.9375 3.5075 11.9375 4.1875 C11.35484375 4.44402344 10.7721875 4.70054688 10.171875 4.96484375 C3.53648873 8.06344394 -1.95149662 11.91228335 -7.69140625 16.39453125 C-10.0625 18.1875 -10.0625 18.1875 -11.0625 18.1875 C-11.248125 17.011875 -11.248125 17.011875 -11.4375 15.8125 C-11.85367993 13.04692178 -11.85367993 13.04692178 -14.0625 11.1875 C-11.08662898 6.68118102 -8.99111641 3.6518082 -4.0625 1.1875 C-3.0625 0.1875 -3.0625 0.1875 0 0 Z " fill="#FA0212" transform="translate(129.0625,17.8125)"/>
<path d="M0 0 C2.49078651 2.49078651 2.99593216 4.59180239 4.0625 7.9375 C4.40410156 8.99839844 4.74570312 10.05929688 5.09765625 11.15234375 C5.54431641 12.56193359 5.54431641 12.56193359 6 14 C6.33 14.99 6.66 15.98 7 17 C7.825 17.33 8.65 17.66 9.5 18 C10.325 18.33 11.15 18.66 12 19 C12.33 19.99 12.66 20.98 13 22 C13.66 22 14.32 22 15 22 C14 25 14 25 13 26 C13 26.66 13 27.32 13 28 C12.505 28.474375 12.01 28.94875 11.5 29.4375 C9.65373409 30.99969942 9.65373409 30.99969942 10 34 C9.34 34 8.68 34 8 34 C8 33.34 8 32.68 8 32 C7.34 32 6.68 32 6 32 C0.87464851 20.99278758 -0.22972134 11.99655909 0 0 Z " fill="#3E893E" transform="translate(39,89)"/>
<path d="M0 0 C3.27785508 3.65033861 4.69973614 6.53379944 5.75 11.3125 C6.11351562 12.91544922 6.11351562 12.91544922 6.484375 14.55078125 C6.65453125 15.35902344 6.8246875 16.16726562 7 17 C5.68 17 4.36 17 3 17 C2.94178065 20.89577024 2.9063297 24.79142802 2.875 28.6875 C2.85824219 29.79029297 2.84148438 30.89308594 2.82421875 32.02929688 C2.81777344 33.09599609 2.81132813 34.16269531 2.8046875 35.26171875 C2.79421387 36.24100342 2.78374023 37.22028809 2.77294922 38.22924805 C3.01402315 41.17112772 3.76944458 43.33237726 5 46 C0.94390335 42.48471624 -0.7502827 39.19694582 -1.17285156 33.78710938 C-1.23374145 31.20909349 -1.22477773 28.64095396 -1.1875 26.0625 C-1.18105469 25.14186768 -1.17460938 24.22123535 -1.16796875 23.27270508 C-1.0814597 15.48891802 -0.66709795 7.75501369 0 0 Z " fill="#958F2D" transform="translate(35,69)"/>
<path d="M0 0 C1.9296875 0.5625 1.9296875 0.5625 4.9296875 2 C4.9296875 3.98 4.9296875 5.96 4.9296875 8 C3.9396875 8 2.9496875 8 1.9296875 8 C1.9296875 6.68 1.9296875 5.36 1.9296875 4 C-3.76103197 6.35956661 -9.25300554 10.36538609 -12.0703125 16 C-12.7303125 16 -13.3903125 16 -14.0703125 16 C-17.67998897 22.91180203 -20.37811377 30.21276425 -21.0703125 38 C-21.4003125 38 -21.7303125 38 -22.0703125 38 C-22.28922878 25.9109567 -20.98442716 18.53665304 -12.6953125 9.375 C-11.8290625 8.59125 -10.9628125 7.8075 -10.0703125 7 C-9.15765625 6.04673828 -9.15765625 6.04673828 -8.2265625 5.07421875 C-3.10307949 0 -3.10307949 0 0 0 Z " fill="#B60310" transform="translate(113.0703125,29)"/>
<path d="M0 0 C0 0.66 0 1.32 0 2 C-0.88042969 2.31453125 -1.76085937 2.6290625 -2.66796875 2.953125 C-3.82941406 3.38109375 -4.99085938 3.8090625 -6.1875 4.25 C-7.33605469 4.66765625 -8.48460937 5.0853125 -9.66796875 5.515625 C-15.3816368 8.06098708 -18.66471805 11.0223286 -21.26757812 16.66796875 C-22.64708177 21.06030835 -22.4134455 25.44238505 -22.25 30 C-22.23195313 30.96550781 -22.21390625 31.93101563 -22.1953125 32.92578125 C-22.14859687 35.28492033 -22.08312137 37.64191075 -22 40 C-26.93851246 32.59223131 -28.46195176 25.91569064 -27 17 C-23.27590767 9.05257109 -13.34521883 4.21704146 -6 0 C-3 -1 -3 -1 0 0 Z " fill="#F87479" transform="translate(144,22)"/>
<path d="M0 0 C2.53874856 3.80812283 2.83720987 7.44036724 3.4375 11.875 C3.56237793 12.750354 3.68725586 13.62570801 3.81591797 14.52758789 C4.21747968 17.35080231 4.60876072 20.17533841 5 23 C5.40803413 25.88915272 5.81872852 28.77791198 6.23071289 31.66650391 C6.48870751 33.47965497 6.74449286 35.29312211 6.99780273 37.10693359 C7.46484978 40.4262231 7.9337315 43.69620284 8.6484375 46.97265625 C9 49 9 49 8 51 C7.34 51 6.68 51 6 51 C5.95101562 50.38511719 5.90203125 49.77023438 5.8515625 49.13671875 C5.77679688 48.32847656 5.70203125 47.52023438 5.625 46.6875 C5.55539063 45.88699219 5.48578125 45.08648437 5.4140625 44.26171875 C5.10435574 41.72775559 5.10435574 41.72775559 3 39 C0.64192042 32.14410197 0.78181908 25.16360682 1 18 C0.67 18 0.34 18 0 18 C0 12.06 0 6.12 0 0 Z " fill="#FF5158" transform="translate(117,52)"/>
<path d="M0 0 C0.33 0 0.66 0 1 0 C1.33 2.31 1.66 4.62 2 7 C2.66 7 3.32 7 4 7 C4 6.01 4 5.02 4 4 C9.445 3.505 9.445 3.505 15 3 C15 3.66 15 4.32 15 5 C16.32 4.67 17.64 4.34 19 4 C19 5.98 19 7.96 19 10 C18.236875 9.979375 17.47375 9.95875 16.6875 9.9375 C13.89814214 9.87057159 13.89814214 9.87057159 11 11 C9.2984375 11.4640625 9.2984375 11.4640625 7.5625 11.9375 C3.83991681 12.93593539 3.83991681 12.93593539 0 15 C0 10.05 0 5.1 0 0 Z " fill="#CF1610" transform="translate(99,100)"/>
<path d="M0 0 C-0.66 3.96 -1.32 7.92 -2 12 C-0.68 12.33 0.64 12.66 2 13 C1.67 13.66 1.34 14.32 1 15 C0.01 15 -0.98 15 -2 15 C-2 19.29 -2 23.58 -2 28 C-3.65 27.67 -5.3 27.34 -7 27 C-6.94812459 23.24887102 -6.85304782 19.50004468 -6.75 15.75 C-6.73582031 14.68652344 -6.72164063 13.62304688 -6.70703125 12.52734375 C-6.67480469 11.50253906 -6.64257812 10.47773438 -6.609375 9.421875 C-6.58842773 8.47924805 -6.56748047 7.53662109 -6.54589844 6.56542969 C-5.7921558 3.02324381 -3.89163449 0 0 0 Z " fill="#6BB530" transform="translate(88,132)"/>
<path d="M0 0 C4.455 0.99 4.455 0.99 9 2 C6.80153547 4.63815744 5.55846122 5.87896177 2.15234375 6.6171875 C1.09144531 6.70226562 0.03054687 6.78734375 -1.0625 6.875 C-7.25661931 7.62220492 -11.5194866 9.53682608 -16.7578125 12.85546875 C-17.86769531 13.42201172 -17.86769531 13.42201172 -19 14 C-19.99 13.67 -20.98 13.34 -22 13 C-24.00812926 13.98357352 -26.00854609 14.98308736 -28 16 C-28.66 15.67 -29.32 15.34 -30 15 C-29.01 14.67 -28.02 14.34 -27 14 C-27 13.34 -27 12.68 -27 12 C-25.37446717 10.29319053 -23.70884005 8.62339805 -22 7 C-22.99 7 -23.98 7 -25 7 C-25 6.34 -25 5.68 -25 5 C-20.70374369 5.48821094 -18.3384591 6.29294512 -15 9 C-14.32453125 8.6390625 -13.6490625 8.278125 -12.953125 7.90625 C-12.06109375 7.4421875 -11.1690625 6.978125 -10.25 6.5 C-9.36828125 6.0359375 -8.4865625 5.571875 -7.578125 5.09375 C-5 4 -5 4 -1 4 C-0.67 2.68 -0.34 1.36 0 0 Z " fill="#C20C19" transform="translate(111,7)"/>
<path d="M0 0 C-0.763125 0.433125 -1.52625 0.86625 -2.3125 1.3125 C-4.91688979 2.78010147 -4.91688979 2.78010147 -6.30078125 4.4296875 C-8.58217287 6.53800803 -11.05034516 7.53400909 -13.875 8.8125 C-18.98422006 11.28072225 -21.78333326 13.38944434 -25 18 C-25.66 18.33 -26.32 18.66 -27 19 C-27.33 19.99 -27.66 20.98 -28 22 C-29.98 21.67 -31.96 21.34 -34 21 C-32 19 -32 19 -30.0625 18.25 C-27.72905639 17.10366097 -27.72905639 17.10366097 -26.7578125 14.21484375 C-24.71775093 10.48379782 -22.29123662 8.57658977 -18.8125 6.3125 C-18.23314697 5.92529785 -17.65379395 5.5380957 -17.05688477 5.13916016 C-6.21762956 -1.93195492 -6.21762956 -1.93195492 0 0 Z " fill="#678F34" transform="translate(120,111)"/>
<path d="M0 0 C1.98 0 3.96 0 6 0 C6.33 0.66 6.66 1.32 7 2 C7.99 2.33 8.98 2.66 10 3 C9.67 3.99 9.34 4.98 9 6 C8.01 6 7.02 6 6 6 C6.33 7.65 6.66 9.3 7 11 C7.45375 10.505 7.9075 10.01 8.375 9.5 C10 8 10 8 12 8 C12.08159574 12.16138263 11.98248524 15.9472484 11 20 C11.66 20.33 12.32 20.66 13 21 C10.36 21 7.72 21 5 21 C5 20.34 5 19.68 5 19 C4.01 18.67 3.02 18.34 2 18 C2 17.34 2 16.68 2 16 C2.66 16 3.32 16 4 16 C4.33 11.71 4.66 7.42 5 3 C3.35 2.67 1.7 2.34 0 2 C0 1.34 0 0.68 0 0 Z " fill="#5BA128" transform="translate(70,139)"/>
<path d="M0 0 C6.14264627 4.86580407 10.18753128 9.56704694 13 17 C13.66 17.99 14.32 18.98 15 20 C14.7578125 22.26171875 14.7578125 22.26171875 14.125 24.6875 C13.92132813 25.49574219 13.71765625 26.30398437 13.5078125 27.13671875 C13.25644531 28.05904297 13.25644531 28.05904297 13 29 C10.6870518 26.6870518 10.50419025 25.52095125 9.875 22.375 C9.62363281 21.14910156 9.62363281 21.14910156 9.3671875 19.8984375 C9.24601562 19.27195312 9.12484375 18.64546875 9 18 C8.34 18 7.68 18 7 18 C6.0197729 15.56292162 5.04077829 13.12536055 4.0625 10.6875 C3.64581055 9.65206055 3.64581055 9.65206055 3.22070312 8.59570312 C2.07859872 5.74732227 0.97069769 2.91209306 0 0 Z " fill="#DC0315" transform="translate(54,18)"/>
<path d="M0 0 C0 0.66 0 1.32 0 2 C-1.59381506 3.29590571 -3.25324782 4.51152694 -4.9375 5.6875 C-8.6539138 8.30664143 -12.24145636 10.98454176 -15.75 13.875 C-19.43015139 16.78596659 -22.40622251 18.12034048 -27 19 C-23.41031023 10.08627597 -12.61669862 4.92270714 -4.43359375 0.99609375 C-2 0 -2 0 0 0 Z " fill="#97DF36" transform="translate(123,114)"/>
<path d="M0 0 C1.86892487 0.69047313 3.69673923 1.49062248 5.51171875 2.3125 C2.51171875 3.3125 2.51171875 3.3125 -1.17578125 3.25 C-8.11540003 3.18621674 -13.31756876 4.46495704 -18.48828125 9.3125 C-18.81828125 7.6625 -19.14828125 6.0125 -19.48828125 4.3125 C-13.87060047 -1.76066841 -7.88217752 -2.17780729 0 0 Z " fill="#AE1613" transform="translate(37.48828125,7.6875)"/>
<path d="M0 0 C1.65 0.33 3.3 0.66 5 1 C6.58984375 3.4765625 6.58984375 3.4765625 7.9375 6.625 C10.38331816 11.94862498 12.96817083 15.77617897 17 20 C15.68 20 14.36 20 13 20 C13 19.34 13 18.68 13 18 C12.38125 17.773125 11.7625 17.54625 11.125 17.3125 C8.3707902 15.61137042 8.17849539 13.94623846 7 11 C5.67479497 10.31731862 4.34187818 9.6492959 3 9 C2.25 6.875 2.25 6.875 2 5 C1.67 6.98 1.34 8.96 1 11 C0.34 11 -0.32 11 -1 11 C-0.67 7.37 -0.34 3.74 0 0 Z " fill="#6C972D" transform="translate(38,86)"/>
<path d="M0 0 C0.66 0.33 1.32 0.66 2 1 C2 1.66 2 2.32 2 3 C2.804375 3.268125 3.60875 3.53625 4.4375 3.8125 C5.283125 4.204375 6.12875 4.59625 7 5 C7.33 5.99 7.66 6.98 8 8 C8.66 8 9.32 8 10 8 C9 11 9 11 8 12 C8 12.66 8 13.32 8 14 C7.505 14.474375 7.01 14.94875 6.5 15.4375 C4.65373409 16.99969942 4.65373409 16.99969942 5 20 C4.34 20 3.68 20 3 20 C2.375 17.1875 2.375 17.1875 2 14 C2.66 13.01 3.32 12.02 4 11 C3.34 11 2.68 11 2 11 C1.01 7.7 0.02 4.4 -1 1 C-0.67 0.67 -0.34 0.34 0 0 Z " fill="#328431" transform="translate(44,103)"/>
<path d="M0 0 C-0.4846875 0.3403125 -0.969375 0.680625 -1.46875 1.03125 C-7.73228713 5.56026916 -13.68512748 10.52769122 -18 17 C-18.99 17 -19.98 17 -21 17 C-21.33 16.01 -21.66 15.02 -22 14 C-18.5639933 8.43263576 -7.09043424 -3.54521712 0 0 Z " fill="#9A000A" transform="translate(91,20)"/>
<path d="M0 0 C0.680625 0.33 1.36125 0.66 2.0625 1 C5.02517686 2.1846303 5.02517686 2.1846303 8.4375 2 C12.08419984 2 14.62698606 2.68370188 18 4 C16.27489155 6.40015088 14.85089072 7.78848827 11.94140625 8.51171875 C8.30916587 8.78735251 5.97053542 8.79659017 3.08203125 6.42578125 C1.59001494 4.67859826 0.25217656 2.92491456 -1 1 C-0.67 0.67 -0.34 0.34 0 0 Z " fill="#983F2F" transform="translate(71,120)"/>
<path d="M0 0 C0.33 0 0.66 0 1 0 C0.95359375 0.57105469 0.9071875 1.14210938 0.859375 1.73046875 C0.51670286 9.42835368 2.55966527 15.76720068 5 23 C5.35073256 24.32886251 5.69261458 25.66044668 6 27 C4.125 26.8125 4.125 26.8125 2 26 C0.875 23.75 0.875 23.75 0 21 C-0.51820312 19.88818359 -0.51820312 19.88818359 -1.046875 18.75390625 C-2.19886959 15.4253973 -2.19597528 12.70077632 -2.125 9.1875 C-2.10695312 8.02605469 -2.08890625 6.86460938 -2.0703125 5.66796875 C-2.04710937 4.78753906 -2.02390625 3.90710938 -2 3 C-1.34 3 -0.68 3 0 3 C0 2.01 0 1.02 0 0 Z " fill="#5E984A" transform="translate(39,94)"/>
<path d="M0 0 C-1.01320313 0.90492187 -1.01320313 0.90492187 -2.046875 1.828125 C-3.38492188 3.02695313 -3.38492188 3.02695313 -4.75 4.25 C-5.63171875 5.03890625 -6.5134375 5.8278125 -7.421875 6.640625 C-9.99005713 8.91660881 -9.99005713 8.91660881 -12.078125 11.296875 C-14 13 -14 13 -18 13 C-17.41278206 7.71503851 -13.18005976 5.0114798 -9.375 1.75 C-5.92567337 -0.79160909 -4.00834503 -1.24396915 0 0 Z " fill="#6BA130" transform="translate(110,120)"/>
<path d="M0 0 C0.33 0 0.66 0 1 0 C1.0501123 0.79172607 1.10022461 1.58345215 1.15185547 2.39916992 C1.38434424 5.99589253 1.62953634 9.59164056 1.875 13.1875 C1.95363281 14.43337891 2.03226563 15.67925781 2.11328125 16.96289062 C2.19707031 18.16494141 2.28085937 19.36699219 2.3671875 20.60546875 C2.44050293 21.71043701 2.51381836 22.81540527 2.58935547 23.95385742 C2.99199438 26.94061468 3.75167285 29.27011733 5 32 C1.43452652 28.90992298 0.13801844 26.56724736 -1 22 C-1.25579421 18.39142286 -1.23426734 14.8033536 -1.1875 11.1875 C-1.1865332 9.73827148 -1.1865332 9.73827148 -1.18554688 8.25976562 C-1.14052002 1.14052002 -1.14052002 1.14052002 0 0 Z " fill="#849F4E" transform="translate(35,83)"/>
<path d="M0 0 C10.25569666 -0.76662184 17.66608123 1.08171326 27 5 C27 5.66 27 6.32 27 7 C25.88625 6.731875 24.7725 6.46375 23.625 6.1875 C15.81950967 4.44037737 7.89291633 3.27717093 0 2 C0 1.34 0 0.68 0 0 Z " fill="#618C32" transform="translate(8,100)"/>
<path d="M0 0 C0.33 0.66 0.66 1.32 1 2 C1.66 2 2.32 2 3 2 C4.91126351 10.19575708 6.62432674 17.58303417 5 26 C2.87531668 22.37608126 2.21931999 18.72648497 1.4375 14.625 C1.18871094 13.33851562 0.93992187 12.05203125 0.68359375 10.7265625 C0.45800781 9.49679688 0.23242188 8.26703125 0 7 C-0.32291016 5.31003906 -0.32291016 5.31003906 -0.65234375 3.5859375 C-0.76707031 2.73257813 -0.88179688 1.87921875 -1 1 C-0.67 0.67 -0.34 0.34 0 0 Z " fill="#FB7070" transform="translate(122,63)"/>
<path d="M0 0 C0 0.66 0 1.32 0 2 C-0.721875 1.84015625 -1.44375 1.6803125 -2.1875 1.515625 C-11.46492048 -0.18523542 -20.00478036 1.59746121 -29 4 C-28.67 3.01 -28.34 2.02 -28 1 C-20.28651651 -2.59075956 -7.62318697 -4.81969755 0 0 Z " fill="#AF0D18" transform="translate(110,3)"/>
<path d="M0 0 C1.96428228 3.50764693 2.90951185 7.14694189 4 11 C4.33 11.33 4.66 11.66 5 12 C6.8618554 21.48432325 6.8618554 21.48432325 4.1875 26.1875 C2 28 2 28 0 28 C0.875 23.25 0.875 23.25 2 21 C2.38080156 15.47837742 1.73770401 11.89288988 -0.3984375 6.83203125 C-1.22490634 4.31505796 -0.84906252 2.47000006 0 0 Z " fill="#FC3541" transform="translate(118,82)"/>
<path d="M0 0 C0.33 0 0.66 0 1 0 C1.125 6.625 1.125 6.625 0 10 C1.65 9.67 3.3 9.34 5 9 C1.23156953 13.12172083 -2.88904305 16.63068221 -8 19 C-8.66 18.67 -9.32 18.34 -10 18 C-9.2575 17.175 -8.515 16.35 -7.75 15.5 C-3.93026531 10.92065898 -1.29494281 5.82724265 0 0 Z " fill="#7E0F0B" transform="translate(97,108)"/>
<path d="M0 0 C0.33 0 0.66 0 1 0 C1.33 2.31 1.66 4.62 2 7 C2.66 7 3.32 7 4 7 C4 6.01 4 5.02 4 4 C9.445 3.505 9.445 3.505 15 3 C15 3.66 15 4.32 15 5 C16.32 4.67 17.64 4.34 19 4 C18.67 4.99 18.34 5.98 18 7 C16.96875 6.773125 15.9375 6.54625 14.875 6.3125 C10.48183434 5.95821245 8.73682136 6.82742944 5 9 C4.34 9 3.68 9 3 9 C2.67 10.32 2.34 11.64 2 13 C1.34 13 0.68 13 0 13 C0 8.71 0 4.42 0 0 Z " fill="#E31716" transform="translate(99,100)"/>
<path d="M0 0 C0 0.66 0 1.32 0 2 C-0.88042969 2.31453125 -1.76085937 2.6290625 -2.66796875 2.953125 C-3.82941406 3.38109375 -4.99085938 3.8090625 -6.1875 4.25 C-7.33605469 4.66765625 -8.48460937 5.0853125 -9.66796875 5.515625 C-13.6726126 7.29963984 -16.59878907 9.54489635 -19.625 12.6875 C-21 14 -21 14 -24 15 C-21.44773308 8.20942316 -12.34729106 2.83230704 -5.9375 -0.125 C-3 -1 -3 -1 0 0 Z " fill="#EF545D" transform="translate(144,22)"/>
<path d="M0 0 C0.66 0 1.32 0 2 0 C2.18175781 1.00160156 2.36351562 2.00320312 2.55078125 3.03515625 C2.80426549 4.37768391 3.05819568 5.72012743 3.3125 7.0625 C3.43044922 7.71927734 3.54839844 8.37605469 3.66992188 9.05273438 C4.33783585 12.52931225 5.17928376 15.58805212 6.66796875 18.80859375 C8 22 8 22 7 25 C-1.88933888 8.80242995 -1.88933888 8.80242995 -0.5703125 1.6796875 C-0.28800781 0.84824219 -0.28800781 0.84824219 0 0 Z " fill="#830606" transform="translate(40,72)"/>
<path d="M0 0 C0 3 0 3 -2.25 5.5 C-5 8 -5 8 -7.25 9.625 C-9.29712875 10.97372834 -9.29712875 10.97372834 -10 14 C-12.97 13.505 -12.97 13.505 -16 13 C-14 11 -14 11 -12.0625 10.25 C-9.13618744 8.47647723 -8.48424546 6.03033447 -7 3 C-4.39070749 0.55378827 -3.62968776 0 0 0 Z " fill="#5C912E" transform="translate(102,119)"/>
<path d="M0 0 C0.99 0.66 1.98 1.32 3 2 C2.38253906 2.24234375 1.76507813 2.4846875 1.12890625 2.734375 C-4.64636804 5.01987168 -10.34482245 7.43194836 -16 10 C-17 8 -17 8 -16.0625 4.875 C-15.5365625 3.451875 -15.5365625 3.451875 -15 2 C-14.01 2.99 -13.02 3.98 -12 5 C-11.484375 4.525625 -10.96875 4.05125 -10.4375 3.5625 C-7.3362712 1.57453282 -4.62308517 1.41016059 -1 1 C-0.67 0.67 -0.34 0.34 0 0 Z " fill="#AC1710" transform="translate(113,109)"/>
<path d="M0 0 C1.0725 0.00515625 2.145 0.0103125 3.25 0.015625 C4.85875 0.00789062 4.85875 0.00789062 6.5 0 C9.25 0.265625 9.25 0.265625 11.25 2.265625 C11.05688882 5.1622927 10.22235629 6.29772737 8.3125 8.515625 C6.25 10.265625 6.25 10.265625 4.25 10.265625 C4.58 7.625625 4.91 4.985625 5.25 2.265625 C1.95 2.265625 -1.35 2.265625 -4.75 2.265625 C-2.75 0.265625 -2.75 0.265625 0 0 Z " fill="#F24B56" transform="translate(121.75,6.734375)"/>
<path d="M0 0 C0 0.66 0 1.32 0 2 C-1.14597656 2.58007812 -2.29195312 3.16015625 -3.47265625 3.7578125 C-5.00285796 4.54638271 -6.53279167 5.33547312 -8.0625 6.125 C-8.81466797 6.50398438 -9.56683594 6.88296875 -10.34179688 7.2734375 C-15.53860428 9.97307771 -19.68038646 13.04178839 -24 17 C-24.66 16.67 -25.32 16.34 -26 16 C-23.98811956 14.21804875 -21.9664809 12.44980214 -19.9375 10.6875 C-19.37611328 10.18798828 -18.81472656 9.68847656 -18.23632812 9.17382812 C-14.34803277 5.81878471 -10.80168037 3.82253562 -6 2 C-5.236875 1.608125 -4.47375 1.21625 -3.6875 0.8125 C-2 0 -2 0 0 0 Z " fill="#84C436" transform="translate(123,114)"/>
<path d="M0 0 C6.95040259 -0.64654908 13.63288164 1.24091538 20 4 C20.33 4.99 20.66 5.98 21 7 C17.37 6.34 13.74 5.68 10 5 C10 4.34 10 3.68 10 3 C6.7 2.34 3.4 1.68 0 1 C0 0.67 0 0.34 0 0 Z " fill="#7FAC4E" transform="translate(133,109)"/>
<path d="M0 0 C0.66 0 1.32 0 2 0 C2.33 1.65 2.66 3.3 3 5 C3.66 4.34 4.32 3.68 5 3 C5 7.62 5 12.24 5 17 C4.34 17 3.68 17 3 17 C2.67 17.66 2.34 18.32 2 19 C1.34 12.73 0.68 6.46 0 0 Z " fill="#FC181F" transform="translate(98,90)"/>
<path d="M0 0 C0.66 0.33 1.32 0.66 2 1 C0.9375 3.375 0.9375 3.375 -1 6 C-4.6875 7.3125 -4.6875 7.3125 -8 8 C-8.66 7.34 -9.32 6.68 -10 6 C-11.31747324 5.30251417 -12.64914193 4.63040043 -14 4 C-13.24074219 3.87882812 -12.48148437 3.75765625 -11.69921875 3.6328125 C-10.20841797 3.38144531 -10.20841797 3.38144531 -8.6875 3.125 C-7.70136719 2.96257812 -6.71523437 2.80015625 -5.69921875 2.6328125 C-2.79940173 2.11914546 -2.79940173 2.11914546 0 0 Z " fill="#427A29" transform="translate(92,124)"/>
<path d="M0 0 C0.33 0 0.66 0 1 0 C1.02698422 2.43757413 1.04683099 4.87484915 1.0625 7.3125 C1.07087891 8.00279297 1.07925781 8.69308594 1.08789062 9.40429688 C1.10307906 12.5483025 1.00193327 14.99420019 0 18 C-0.66 18 -1.32 18 -2 18 C-2.36552803 16.58622218 -2.71695495 15.16879424 -3.0625 13.75 C-3.25972656 12.96109375 -3.45695312 12.1721875 -3.66015625 11.359375 C-4.01497267 8.89605178 -3.76877544 7.34395868 -3 5 C-2.67 6.32 -2.34 7.64 -2 9 C-1.34 9 -0.68 9 0 9 C0 6.03 0 3.06 0 0 Z " fill="#F65B5F" transform="translate(127,80)"/>
<path d="M0 0 C0.66 0.33 1.32 0.66 2 1 C1.31164062 1.56267578 1.31164062 1.56267578 0.609375 2.13671875 C-3.03296109 5.17454948 -6.17191907 8.15380993 -9 12 C-9.99 11.67 -10.98 11.34 -12 11 C-10.58590577 7.60470083 -8.97643772 5.94087183 -6 3.8125 C-4.948125 3.04873047 -4.948125 3.04873047 -3.875 2.26953125 C-2 1 -2 1 0 0 Z " fill="#AB000B" transform="translate(79,22)"/>
<path d="M0 0 C1.8125 0.125 1.8125 0.125 4 1 C5.06775224 2.96466413 6.06553465 4.96855359 7 7 C8.56102491 8.81554159 8.56102491 8.81554159 10 10 C9.67 10.99 9.34 11.98 9 13 C4.31326373 10.9170061 2.79393923 8.28595007 0.69921875 3.83984375 C0 2 0 2 0 0 Z " fill="#598C2A" transform="translate(42,96)"/>
<path d="M0 0 C0.20625 0.61875 0.4125 1.2375 0.625 1.875 C1.89068641 4.31985677 1.89068641 4.31985677 5.0625 5 C8 6 8 6 9 7.75 C9 10.77995949 8.08472545 13.1924753 7 16 C4.6870518 13.6870518 4.50419025 12.52095125 3.875 9.375 C3.70742188 8.55773438 3.53984375 7.74046875 3.3671875 6.8984375 C3.24601562 6.27195312 3.12484375 5.64546875 3 5 C2.34 5 1.68 5 1 5 C0.67 3.35 0.34 1.7 0 0 Z " fill="#CA0212" transform="translate(60,31)"/>
<path d="M0 0 C1.32 0 2.64 0 4 0 C4 0.66 4 1.32 4 2 C5.11375 2.1546875 5.11375 2.1546875 6.25 2.3125 C9 3 9 3 10.6875 4.5 C13.90337983 6.58597611 17.02884281 6.56439934 20.75 6.6875 C21.79607422 6.73874023 21.79607422 6.73874023 22.86328125 6.79101562 C24.57497108 6.87308295 26.2874576 6.93822919 28 7 C28 7.33 28 7.66 28 8 C17.74440724 8.75744706 10.45106134 8.98555032 1.80859375 2.62890625 C1.21175781 2.09136719 0.61492188 1.55382812 0 1 C0 0.67 0 0.34 0 0 Z " fill="#3D6D41" transform="translate(43,121)"/>
<path d="M0 0 C3.5374336 3.5374336 4.90555935 8.87508549 5.125 13.8125 C5.08375 14.534375 5.0425 15.25625 5 16 C5.29044914 17.34332728 5.60955794 18.68225804 6 20 C2.29050111 17.40335077 1.54392325 14.83127574 0.75 10.5625 C0.17526015 7.00010387 -0.07856728 3.6075478 0 0 Z " fill="#3E8E30" transform="translate(39,89)"/>
<path d="M0 0 C0 3.28967618 -0.74203144 5.20389507 -1.9375 8.25 C-3.56078104 12.56918948 -4.59244419 16.41499715 -5 21 C-5.33 21 -5.66 21 -6 21 C-6.22268847 8.70264795 -6.22268847 8.70264795 -5 4 C-2.4375 1.5625 -2.4375 1.5625 0 0 Z " fill="#B40615" transform="translate(97,46)"/>
<path d="M0 0 C0.33 0 0.66 0 1 0 C1.12375 0.969375 1.2475 1.93875 1.375 2.9375 C1.58125 3.948125 1.7875 4.95875 2 6 C2.66 6.33 3.32 6.66 4 7 C3.1875 8.9375 3.1875 8.9375 2 11 C1.01 11.33 0.02 11.66 -1 12 C-1.12375 11.21625 -1.2475 10.4325 -1.375 9.625 C-1.79117993 6.85942178 -1.79117993 6.85942178 -4 5 C-2.69254251 3.31295807 -1.35827971 1.64639965 0 0 Z " fill="#DE0513" transform="translate(119,24)"/>
<path d="M0 0 C4.455 0.99 4.455 0.99 9 2 C6.18342636 5.2338438 4.32713231 6.66714367 0 7 C-0.99 6.67 -1.98 6.34 -3 6 C-3 5.34 -3 4.68 -3 4 C-2.34 4 -1.68 4 -1 4 C-0.67 2.68 -0.34 1.36 0 0 Z " fill="#DF2031" transform="translate(111,7)"/>
<path d="M0 0 C-2.29715095 2.69220239 -3.90883374 3.43216389 -7.375 4 C-11.15341564 4.71882054 -13.73769474 5.92398756 -17 8 C-17.66 7.67 -18.32 7.34 -19 7 C-14.25 3 -14.25 3 -12 3 C-12 2.34 -12 1.68 -12 1 C-7.95858806 0.36605303 -4.0934693 -0.12404452 0 0 Z " fill="#6EA240" transform="translate(131,111)"/>
<path d="M0 0 C-0.49628906 0.36351563 -0.99257812 0.72703125 -1.50390625 1.1015625 C-6.17603477 4.55911492 -10.62578697 8.1725636 -15 12 C-14.1516317 8.42473358 -13.3367307 5.92091337 -11 3 C-3.15495343 -1.57747671 -3.15495343 -1.57747671 0 0 Z " fill="#91040E" transform="translate(91,20)"/>
<path d="M0 0 C3.37503669 1.1858237 5.64722731 2.27573689 8 5 C7.67 5.66 7.34 6.32 7 7 C9.31 7 11.62 7 14 7 C14 7.33 14 7.66 14 8 C10.89441326 8.43478214 8.09038203 8.59797636 5 8 C2.5001159 5.9849419 0.74467257 3.68200647 -1 1 C-0.67 0.67 -0.34 0.34 0 0 Z " fill="#8A3B26" transform="translate(71,120)"/>
<path d="M0 0 C0.66 0 1.32 0 2 0 C3.32388229 6.43028541 4.24794402 12.4294834 4 19 C0.53226679 15.53226679 0.12727626 10.41427164 -0.125 5.62890625 C-0.125 3.75214158 -0.06820091 1.87552506 0 0 Z " fill="#FF414A" transform="translate(118,74)"/>
<path d="M0 0 C0.99 0.66 1.98 1.32 3 2 C2.20335938 2.02578125 1.40671875 2.0515625 0.5859375 2.078125 C-5.81759882 2.42089337 -10.07896378 2.76244103 -15 7 C-15 5.68 -15 4.36 -15 3 C-10.0568646 -0.04192948 -5.69079125 -0.83464938 0 0 Z " fill="#A31318" transform="translate(35,9)"/>
<path d="M0 0 C5.28 0 10.56 0 16 0 C15.67 0.99 15.34 1.98 15 3 C9.5610835 3.21755666 5.12919186 3.10428384 0 1 C0 0.67 0 0.34 0 0 Z " fill="#446929" transform="translate(56,129)"/>
<path d="M0 0 C0.66 0 1.32 0 2 0 C2 3.96 2 7.92 2 12 C0.68 11.67 -0.64 11.34 -2 11 C-1.85892253 9.54119891 -1.71197585 8.08296449 -1.5625 6.625 C-1.48128906 5.81289062 -1.40007812 5.00078125 -1.31640625 4.1640625 C-1 2 -1 2 0 0 Z " fill="#9FE92A" transform="translate(84,148)"/>
<path d="M0 0 C0.66 0.33 1.32 0.66 2 1 C0.98679687 1.90492187 0.98679687 1.90492187 -0.046875 2.828125 C-1.38492188 4.02695313 -1.38492188 4.02695313 -2.75 5.25 C-3.63171875 6.03890625 -4.5134375 6.8278125 -5.421875 7.640625 C-8.00158497 9.91668174 -8.00158497 9.91668174 -10.078125 12.359375 C-11.02945313 13.17148438 -11.02945313 13.17148438 -12 14 C-14.25 13.75 -14.25 13.75 -16 13 C-15.34773438 12.48050781 -14.69546875 11.96101562 -14.0234375 11.42578125 C-9.30839912 7.66348662 -4.61407865 3.88553991 0 0 Z " fill="#78B434" transform="translate(108,119)"/>
<path d="M0 0 C0.33 0 0.66 0 1 0 C1 1.98 1 3.96 1 6 C1.66 6 2.32 6 3 6 C3.66 7.32 4.32 8.64 5 10 C4.01 10 3.02 10 2 10 C2 11.98 2 13.96 2 16 C1.34 16.33 0.68 16.66 0 17 C-1.33257403 5.47835991 -1.33257403 5.47835991 0 0 Z " fill="#85AD29" transform="translate(36,76)"/>
<path d="M0 0 C0.99 0 1.98 0 3 0 C3.6875 2.3125 3.6875 2.3125 4 5 C2.5625 6.625 2.5625 6.625 1 8 C1 8.99 1 9.98 1 11 C0.34 11 -0.32 11 -1 11 C-2.0257259 6.58937864 -2.03684712 4.07369424 0 0 Z " fill="#2E7D37" transform="translate(48,112)"/>
<path d="M0 0 C1.89175638 3.30458709 2.57561543 6.38008238 3.1875 10.125 C3.36667969 11.17945312 3.54585938 12.23390625 3.73046875 13.3203125 C4 16 4 16 3 18 C2.34 18 1.68 18 1 18 C0.22959149 11.93303301 -0.09706112 6.11485027 0 0 Z " fill="#F44951" transform="translate(122,85)"/>
<path d="M0 0 C0.53625 0.680625 1.0725 1.36125 1.625 2.0625 C4.35076561 5.43384168 7.16483178 8.72065543 10 12 C8.68 12 7.36 12 6 12 C6 11.34 6 10.68 6 10 C5.38125 9.773125 4.7625 9.54625 4.125 9.3125 C1.34340099 7.59445355 0.90440459 6.09004901 0 3 C0 2.01 0 1.02 0 0 Z " fill="#738B2A" transform="translate(45,94)"/>
<path d="M0 0 C0.66 0 1.32 0 2 0 C2 1.65 2 3.3 2 5 C3.65 4.67 5.3 4.34 7 4 C5.515 6.475 5.515 6.475 4 9 C2.68 8.67 1.36 8.34 0 8 C-0.98120464 4.94736336 -0.98120464 3.05263664 0 0 Z " fill="#E11826" transform="translate(111,21)"/>
<path d="M0 0 C0 0.66 0 1.32 0 2 C-1.010625 2.12375 -2.02125 2.2475 -3.0625 2.375 C-8.34589546 3.2136342 -13.30554547 4.37110547 -18 7 C-15.80240884 3.52048066 -14.07137205 1.72323366 -10.125 0.6875 C-6.72433484 0.00609331 -3.47209662 -0.17360483 0 0 Z " fill="#C0130F" transform="translate(117,108)"/>
<path d="M0 0 C4.47840426 1.3684013 6.25249773 3.27757757 9 7 C10.31494512 8.35147138 11.64264858 9.69112542 13 11 C12.67 11.66 12.34 12.32 12 13 C9.99698146 11.0238076 7.99750133 9.04425526 6 7.0625 C5.42765625 6.49853516 4.8553125 5.93457031 4.265625 5.35351562 C2.82474495 3.92121224 1.41012857 2.46258871 0 1 C0 0.67 0 0.34 0 0 Z " fill="#8B1710" transform="translate(57,107)"/>
<path d="M0 0 C1.9375 0.75 1.9375 0.75 4 2 C4.75 4.125 4.75 4.125 5 6 C5.66 6 6.32 6 7 6 C8.42258812 9.82320557 9.24042276 12.91281305 9 17 C7.84871193 14.69742387 6.71659541 12.39454474 5.625 10.0625 C4.02354494 7.04437316 2.13543279 4.65088208 0 2 C0 1.34 0 0.68 0 0 Z " fill="#CE172C" transform="translate(86,75)"/>
<path d="M0 0 C2 2 2 2 2.1953125 4.3828125 C2.17210937 5.28773437 2.14890625 6.19265625 2.125 7.125 C2.10695313 8.03507812 2.08890625 8.94515625 2.0703125 9.8828125 C2.04710937 10.58148438 2.02390625 11.28015625 2 12 C1.72414063 11.40703125 1.44828125 10.8140625 1.1640625 10.203125 C0.06484675 8.12273009 -1.09298471 6.52391244 -2.625 4.75 C-3.800625 3.38875 -3.800625 3.38875 -5 2 C-3.68 2 -2.36 2 -1 2 C-0.67 1.34 -0.34 0.68 0 0 Z " fill="#8B1E25" transform="translate(36,28)"/>
<path d="M0 0 C5.4185766 -0.22577402 9.77487721 0.53329887 15 2 C15 2.66 15 3.32 15 4 C13.02 4.33 11.04 4.66 9 5 C9 4.01 9 3.02 9 2 C6.03 1.67 3.06 1.34 0 1 C0 0.67 0 0.34 0 0 Z " fill="#DB0211" transform="translate(126,18)"/>
<path d="M0 0 C0.33 0 0.66 0 1 0 C0.67 3.3 0.34 6.6 0 10 C0.99 10.33 1.98 10.66 3 11 C1.35 11 -0.3 11 -2 11 C-2.05399736 9.54207116 -2.09279177 8.08357288 -2.125 6.625 C-2.15980469 5.40683594 -2.15980469 5.40683594 -2.1953125 4.1640625 C-2 2 -2 2 0 0 Z " fill="#80DB40" transform="translate(86,134)"/>
<path d="M0 0 C0.33 0 0.66 0 1 0 C1.64715133 2.0829243 2.29267166 4.16635539 2.9375 6.25 C3.29714844 7.41015625 3.65679687 8.5703125 4.02734375 9.765625 C4.75066637 12.17089058 5.42542411 14.55654044 6 17 C4.68 16.67 3.36 16.34 2 16 C2.33 15.34 2.66 14.68 3 14 C2.71758117 11.6599583 2.38749213 9.32495277 2 7 C1.34 7 0.68 7 0 7 C0 4.69 0 2.38 0 0 Z " fill="#4D8F47" transform="translate(39,104)"/>
<path d="M0 0 C0 1.98 0 3.96 0 6 C-1.65 6.33 -3.3 6.66 -5 7 C-5 5.35 -5 3.7 -5 2 C-1.125 0 -1.125 0 0 0 Z " fill="#F92533" transform="translate(118,19)"/>
<path d="M0 0 C0 1.32 0 2.64 0 4 C-2.5 6.25 -2.5 6.25 -5 8 C-6 7 -6 7 -6.0625 4.4375 C-6.041875 3.633125 -6.02125 2.82875 -6 2 C-2.25 0 -2.25 0 0 0 Z " fill="#489B2F" transform="translate(82,143)"/>
<path d="M0 0 C1.23922223 3.71766668 0.57018942 5.43889537 -0.4375 9.1875 C-0.72496094 10.27417969 -1.01242188 11.36085938 -1.30859375 12.48046875 C-1.65083984 13.72763672 -1.65083984 13.72763672 -2 15 C-2.33 15 -2.66 15 -3 15 C-3.08142927 13.2507786 -3.13938541 11.50045458 -3.1875 9.75 C-3.22230469 8.77546875 -3.25710937 7.8009375 -3.29296875 6.796875 C-2.96075202 3.62531258 -2.11327721 2.32959693 0 0 Z " fill="#F68288" transform="translate(122,35)"/>
<path d="M0 0 C1.32 0.99 2.64 1.98 4 3 C3.67 4.32 3.34 5.64 3 7 C2.34 7 1.68 7 1 7 C0.67 7.66 0.34 8.32 0 9 C-1.125 6.1875 -1.125 6.1875 -2 3 C-1.34 2.01 -0.68 1.02 0 0 Z " fill="#3E7623" transform="translate(73,127)"/>
<path d="M0 0 C0 0.66 0 1.32 0 2 C-1.78614318 3.03046722 -3.57910018 4.04913236 -5.375 5.0625 C-6.87160156 5.91521484 -6.87160156 5.91521484 -8.3984375 6.78515625 C-9.25695312 7.18605469 -10.11546875 7.58695312 -11 8 C-11.66 7.67 -12.32 7.34 -13 7 C-11.54261898 6.01941648 -10.08406325 5.04057868 -8.625 4.0625 C-7.81289062 3.51722656 -7.00078125 2.97195312 -6.1640625 2.41015625 C-2.46537396 0 -2.46537396 0 0 0 Z " fill="#8AC741" transform="translate(123,114)"/>
<path d="M0 0 C5.70939788 -0.45675183 8.55127459 0.37894444 13 4 C13.99 5.485 13.99 5.485 15 7 C11.20691798 5.54970393 7.6157433 3.84633701 4 2 C3.21625 1.608125 2.4325 1.21625 1.625 0.8125 C1.08875 0.544375 0.5525 0.27625 0 0 Z " fill="#C82F3A" transform="translate(54,1)"/>
<path d="M0 0 C1.231394 3.69418201 0.64432764 6.2056261 0 10 C-1.32 8.68 -2.64 7.36 -4 6 C-2.84826645 3.53199953 -1.95216435 1.95216435 0 0 Z " fill="#C90D21" transform="translate(91,54)"/>
<path d="M0 0 C0.66 0.33 1.32 0.66 2 1 C0.6875 3.5 0.6875 3.5 -1 6 C-1.99 6 -2.98 6 -4 6 C-4 5.34 -4 4.68 -4 4 C-4.99 3.67 -5.98 3.34 -7 3 C-4.69631264 1.93347808 -2.35981813 0.93578995 0 0 Z " fill="#517627" transform="translate(92,124)"/>
<path d="M0 0 C0.66 0.33 1.32 0.66 2 1 C-0.31 3.64 -2.62 6.28 -5 9 C-5.33 8.01 -5.66 7.02 -6 6 C-4 4 -2 2 0 0 Z " fill="#5E832C" transform="translate(99,119)"/>
<path d="M0 0 C0.66 0 1.32 0 2 0 C2.33 0.99 2.66 1.98 3 3 C1.02 4.32 -0.96 5.64 -3 7 C-3.66 6.67 -4.32 6.34 -5 6 C-3.38405168 3.95880212 -1.7143618 1.95927063 0 0 Z " fill="#731A10" transform="translate(92,120)"/>
<path d="M0 0 C2.5 1.375 2.5 1.375 5 3 C5 3.66 5 4.32 5 5 C5.66 5 6.32 5 7 5 C6.67 5.99 6.34 6.98 6 8 C4.68 7.34 3.36 6.68 2 6 C2 5.01 2 4.02 2 3 C1.34 3 0.68 3 0 3 C0 2.01 0 1.02 0 0 Z " fill="#437F2B" transform="translate(47,106)"/>
<path d="M0 0 C0.66 1.32 1.32 2.64 2 4 C0.71937515 5.7074998 -0.61767557 7.37373596 -2 9 C-2.66 9 -3.32 9 -4 9 C-3.625 6.5625 -3.625 6.5625 -3 4 C-2.34 3.67 -1.68 3.34 -1 3 C-0.67 2.01 -0.34 1.02 0 0 Z " fill="#D13D44" transform="translate(122,101)"/>
<path d="M0 0 C3.25543229 0.34879632 4.01873107 1.02133261 6.25 3.5625 C6.8275 4.366875 7.405 5.17125 8 6 C7.05125 5.67 6.1025 5.34 5.125 5 C2.22937548 3.89840809 2.22937548 3.89840809 0 4 C0 2.68 0 1.36 0 0 Z " fill="#587D21" transform="translate(52,107)"/>
<path d="M0 0 C-1 3 -1 3 -3.9375 4.75 C-5.4534375 5.36875 -5.4534375 5.36875 -7 6 C-7.66 5.67 -8.32 5.34 -9 5 C-8.01 4.67 -7.02 4.34 -6 4 C-6 3.34 -6 2.68 -6 2 C-3 0 -3 0 0 0 Z " fill="#B80D20" transform="translate(90,17)"/>
<path d="M0 0 C1.98 0.495 1.98 0.495 4 1 C3.690625 1.5775 3.38125 2.155 3.0625 2.75 C2.07416636 4.84294184 1.4831387 6.74535275 1 9 C0.34 9 -0.32 9 -1 9 C-0.67 6.03 -0.34 3.06 0 0 Z " fill="#FE3442" transform="translate(127,8)"/>
<path d="M0 0 C0.66 0.33 1.32 0.66 2 1 C-2.455 3.97 -2.455 3.97 -7 7 C-7.33 6.01 -7.66 5.02 -8 4 C-6.71349294 3.30289269 -5.42059335 2.61757124 -4.125 1.9375 C-3.40570313 1.55464844 -2.68640625 1.17179687 -1.9453125 0.77734375 C-1.30335937 0.52082031 -0.66140625 0.26429687 0 0 Z " fill="#900B17" transform="translate(89,19)"/>
<path d="M0 0 C0.33 0 0.66 0 1 0 C0.67 3.3 0.34 6.6 0 10 C-0.66 9.67 -1.32 9.34 -2 9 C-2 7.02 -2 5.04 -2 3 C-1.34 3 -0.68 3 0 3 C0 2.01 0 1.02 0 0 Z " fill="#579539" transform="translate(39,94)"/>
<path d="M0 0 C1.32 1.32 2.64 2.64 4 4 C3.67 4.66 3.34 5.32 3 6 C2.01 6 1.02 6 0 6 C0 5.01 0 4.02 0 3 C-0.99 3 -1.98 3 -3 3 C-2 1 -2 1 0 0 Z " fill="#F80B1F" transform="translate(87,60)"/>
<path d="M0 0 C-2.39223697 2.39223697 -3.67759676 2.6758631 -7 3 C-7.99 2.34 -8.98 1.68 -10 1 C-3.375 -1.125 -3.375 -1.125 0 0 Z " fill="#EE0C23" transform="translate(118,11)"/>
</svg>
